%TF.GenerationSoftware,Altium Limited,Altium Designer,25.2.1 (25)*%
G04 Layer_Color=16711935*
%FSLAX45Y45*%
%MOMM*%
%TF.SameCoordinates,982BFCA8-AA29-4240-802F-59D3D38ADE71*%
%TF.FilePolarity,Negative*%
%TF.FileFunction,Soldermask,Bot*%
%TF.Part,Single*%
G01*
G75*
%TA.AperFunction,SMDPad,CuDef*%
%ADD69C,1.52400*%
G04:AMPARAMS|DCode=72|XSize=0.6616mm|YSize=0.7216mm|CornerRadius=0.1208mm|HoleSize=0mm|Usage=FLASHONLY|Rotation=270.000|XOffset=0mm|YOffset=0mm|HoleType=Round|Shape=RoundedRectangle|*
%AMROUNDEDRECTD72*
21,1,0.66160,0.48000,0,0,270.0*
21,1,0.42000,0.72160,0,0,270.0*
1,1,0.24160,-0.24000,-0.21000*
1,1,0.24160,-0.24000,0.21000*
1,1,0.24160,0.24000,0.21000*
1,1,0.24160,0.24000,-0.21000*
%
%ADD72ROUNDEDRECTD72*%
G04:AMPARAMS|DCode=73|XSize=0.6416mm|YSize=0.7416mm|CornerRadius=0.1183mm|HoleSize=0mm|Usage=FLASHONLY|Rotation=0.000|XOffset=0mm|YOffset=0mm|HoleType=Round|Shape=RoundedRectangle|*
%AMROUNDEDRECTD73*
21,1,0.64160,0.50500,0,0,0.0*
21,1,0.40500,0.74160,0,0,0.0*
1,1,0.23660,0.20250,-0.25250*
1,1,0.23660,-0.20250,-0.25250*
1,1,0.23660,-0.20250,0.25250*
1,1,0.23660,0.20250,0.25250*
%
%ADD73ROUNDEDRECTD73*%
G04:AMPARAMS|DCode=74|XSize=1.1016mm|YSize=1.5516mm|CornerRadius=0.1758mm|HoleSize=0mm|Usage=FLASHONLY|Rotation=0.000|XOffset=0mm|YOffset=0mm|HoleType=Round|Shape=RoundedRectangle|*
%AMROUNDEDRECTD74*
21,1,1.10160,1.20000,0,0,0.0*
21,1,0.75000,1.55160,0,0,0.0*
1,1,0.35160,0.37500,-0.60000*
1,1,0.35160,-0.37500,-0.60000*
1,1,0.35160,-0.37500,0.60000*
1,1,0.35160,0.37500,0.60000*
%
%ADD74ROUNDEDRECTD74*%
%TA.AperFunction,ComponentPad*%
%ADD77C,1.72720*%
%ADD78R,1.67640X1.67640*%
%ADD79C,2.46380*%
%ADD80R,1.72720X1.72720*%
%ADD81C,3.21600*%
%TA.AperFunction,NonConductor*%
%ADD82C,0.00100*%
%TA.AperFunction,SMDPad,CuDef*%
G04:AMPARAMS|DCode=83|XSize=0.6616mm|YSize=0.7216mm|CornerRadius=0.1208mm|HoleSize=0mm|Usage=FLASHONLY|Rotation=180.000|XOffset=0mm|YOffset=0mm|HoleType=Round|Shape=RoundedRectangle|*
%AMROUNDEDRECTD83*
21,1,0.66160,0.48000,0,0,180.0*
21,1,0.42000,0.72160,0,0,180.0*
1,1,0.24160,-0.21000,0.24000*
1,1,0.24160,0.21000,0.24000*
1,1,0.24160,0.21000,-0.24000*
1,1,0.24160,-0.21000,-0.24000*
%
%ADD83ROUNDEDRECTD83*%
%ADD84R,1.87960X3.91160*%
%ADD85R,0.90160X1.70160*%
G04:AMPARAMS|DCode=86|XSize=0.6416mm|YSize=0.7416mm|CornerRadius=0.1183mm|HoleSize=0mm|Usage=FLASHONLY|Rotation=270.000|XOffset=0mm|YOffset=0mm|HoleType=Round|Shape=RoundedRectangle|*
%AMROUNDEDRECTD86*
21,1,0.64160,0.50500,0,0,270.0*
21,1,0.40500,0.74160,0,0,270.0*
1,1,0.23660,-0.25250,-0.20250*
1,1,0.23660,-0.25250,0.20250*
1,1,0.23660,0.25250,0.20250*
1,1,0.23660,0.25250,-0.20250*
%
%ADD86ROUNDEDRECTD86*%
%ADD87R,1.60160X2.40160*%
G04:AMPARAMS|DCode=88|XSize=0.8766mm|YSize=0.5016mm|CornerRadius=0.1008mm|HoleSize=0mm|Usage=FLASHONLY|Rotation=0.000|XOffset=0mm|YOffset=0mm|HoleType=Round|Shape=RoundedRectangle|*
%AMROUNDEDRECTD88*
21,1,0.87660,0.30000,0,0,0.0*
21,1,0.67500,0.50160,0,0,0.0*
1,1,0.20160,0.33750,-0.15000*
1,1,0.20160,-0.33750,-0.15000*
1,1,0.20160,-0.33750,0.15000*
1,1,0.20160,0.33750,0.15000*
%
%ADD88ROUNDEDRECTD88*%
G04:AMPARAMS|DCode=89|XSize=0.9906mm|YSize=0.8636mm|CornerRadius=0.11557mm|HoleSize=0mm|Usage=FLASHONLY|Rotation=0.000|XOffset=0mm|YOffset=0mm|HoleType=Round|Shape=RoundedRectangle|*
%AMROUNDEDRECTD89*
21,1,0.99060,0.63246,0,0,0.0*
21,1,0.75946,0.86360,0,0,0.0*
1,1,0.23114,0.37973,-0.31623*
1,1,0.23114,-0.37973,-0.31623*
1,1,0.23114,-0.37973,0.31623*
1,1,0.23114,0.37973,0.31623*
%
%ADD89ROUNDEDRECTD89*%
G04:AMPARAMS|DCode=90|XSize=0.9906mm|YSize=0.8636mm|CornerRadius=0.13081mm|HoleSize=0mm|Usage=FLASHONLY|Rotation=0.000|XOffset=0mm|YOffset=0mm|HoleType=Round|Shape=RoundedRectangle|*
%AMROUNDEDRECTD90*
21,1,0.99060,0.60198,0,0,0.0*
21,1,0.72898,0.86360,0,0,0.0*
1,1,0.26162,0.36449,-0.30099*
1,1,0.26162,-0.36449,-0.30099*
1,1,0.26162,-0.36449,0.30099*
1,1,0.26162,0.36449,0.30099*
%
%ADD90ROUNDEDRECTD90*%
G04:AMPARAMS|DCode=91|XSize=0.9906mm|YSize=1.2446mm|CornerRadius=0.12636mm|HoleSize=0mm|Usage=FLASHONLY|Rotation=0.000|XOffset=0mm|YOffset=0mm|HoleType=Round|Shape=RoundedRectangle|*
%AMROUNDEDRECTD91*
21,1,0.99060,0.99187,0,0,0.0*
21,1,0.73787,1.24460,0,0,0.0*
1,1,0.25273,0.36894,-0.49593*
1,1,0.25273,-0.36894,-0.49593*
1,1,0.25273,-0.36894,0.49593*
1,1,0.25273,0.36894,0.49593*
%
%ADD91ROUNDEDRECTD91*%
G04:AMPARAMS|DCode=92|XSize=1.5766mm|YSize=0.7016mm|CornerRadius=0.1258mm|HoleSize=0mm|Usage=FLASHONLY|Rotation=180.000|XOffset=0mm|YOffset=0mm|HoleType=Round|Shape=RoundedRectangle|*
%AMROUNDEDRECTD92*
21,1,1.57660,0.45000,0,0,180.0*
21,1,1.32500,0.70160,0,0,180.0*
1,1,0.25160,-0.66250,0.22500*
1,1,0.25160,0.66250,0.22500*
1,1,0.25160,0.66250,-0.22500*
1,1,0.25160,-0.66250,-0.22500*
%
%ADD92ROUNDEDRECTD92*%
%ADD93R,0.80160X0.50160*%
%ADD94R,0.30080X0.45080*%
%ADD95R,0.35160X0.50160*%
%ADD96R,1.08160X3.50160*%
%ADD97R,1.75160X1.05160*%
%ADD98R,0.45160X0.58160*%
%ADD99R,1.17080X1.77080*%
%ADD100R,0.50080X0.45080*%
%ADD101R,1.40160X1.50160*%
G04:AMPARAMS|DCode=102|XSize=0.4016mm|YSize=0.3016mm|CornerRadius=0.0758mm|HoleSize=0mm|Usage=FLASHONLY|Rotation=0.000|XOffset=0mm|YOffset=0mm|HoleType=Round|Shape=RoundedRectangle|*
%AMROUNDEDRECTD102*
21,1,0.40160,0.15000,0,0,0.0*
21,1,0.25000,0.30160,0,0,0.0*
1,1,0.15160,0.12500,-0.07500*
1,1,0.15160,-0.12500,-0.07500*
1,1,0.15160,-0.12500,0.07500*
1,1,0.15160,0.12500,0.07500*
%
%ADD102ROUNDEDRECTD102*%
G04:AMPARAMS|DCode=103|XSize=0.4516mm|YSize=0.3016mm|CornerRadius=0.0758mm|HoleSize=0mm|Usage=FLASHONLY|Rotation=0.000|XOffset=0mm|YOffset=0mm|HoleType=Round|Shape=RoundedRectangle|*
%AMROUNDEDRECTD103*
21,1,0.45160,0.15000,0,0,0.0*
21,1,0.30000,0.30160,0,0,0.0*
1,1,0.15160,0.15000,-0.07500*
1,1,0.15160,-0.15000,-0.07500*
1,1,0.15160,-0.15000,0.07500*
1,1,0.15160,0.15000,0.07500*
%
%ADD103ROUNDEDRECTD103*%
%ADD104R,0.20160X0.20160*%
%ADD105R,0.80160X0.52160*%
G04:AMPARAMS|DCode=106|XSize=0.4016mm|YSize=1.1766mm|CornerRadius=0.0883mm|HoleSize=0mm|Usage=FLASHONLY|Rotation=180.000|XOffset=0mm|YOffset=0mm|HoleType=Round|Shape=RoundedRectangle|*
%AMROUNDEDRECTD106*
21,1,0.40160,1.00000,0,0,180.0*
21,1,0.22500,1.17660,0,0,180.0*
1,1,0.17660,-0.11250,0.50000*
1,1,0.17660,0.11250,0.50000*
1,1,0.17660,0.11250,-0.50000*
1,1,0.17660,-0.11250,-0.50000*
%
%ADD106ROUNDEDRECTD106*%
%ADD107R,0.40160X0.60160*%
G04:AMPARAMS|DCode=108|XSize=1.0266mm|YSize=0.4516mm|CornerRadius=0.08755mm|HoleSize=0mm|Usage=FLASHONLY|Rotation=0.000|XOffset=0mm|YOffset=0mm|HoleType=Round|Shape=RoundedRectangle|*
%AMROUNDEDRECTD108*
21,1,1.02660,0.27650,0,0,0.0*
21,1,0.85150,0.45160,0,0,0.0*
1,1,0.17510,0.42575,-0.13825*
1,1,0.17510,-0.42575,-0.13825*
1,1,0.17510,-0.42575,0.13825*
1,1,0.17510,0.42575,0.13825*
%
%ADD108ROUNDEDRECTD108*%
G04:AMPARAMS|DCode=109|XSize=1.6266mm|YSize=0.4016mm|CornerRadius=0.0823mm|HoleSize=0mm|Usage=FLASHONLY|Rotation=0.000|XOffset=0mm|YOffset=0mm|HoleType=Round|Shape=RoundedRectangle|*
%AMROUNDEDRECTD109*
21,1,1.62660,0.23700,0,0,0.0*
21,1,1.46200,0.40160,0,0,0.0*
1,1,0.16460,0.73100,-0.11850*
1,1,0.16460,-0.73100,-0.11850*
1,1,0.16460,-0.73100,0.11850*
1,1,0.16460,0.73100,0.11850*
%
%ADD109ROUNDEDRECTD109*%
%ADD110R,0.60160X0.65160*%
G04:AMPARAMS|DCode=111|XSize=1.2266mm|YSize=0.5016mm|CornerRadius=0.0928mm|HoleSize=0mm|Usage=FLASHONLY|Rotation=0.000|XOffset=0mm|YOffset=0mm|HoleType=Round|Shape=RoundedRectangle|*
%AMROUNDEDRECTD111*
21,1,1.22660,0.31600,0,0,0.0*
21,1,1.04100,0.50160,0,0,0.0*
1,1,0.18560,0.52050,-0.15800*
1,1,0.18560,-0.52050,-0.15800*
1,1,0.18560,-0.52050,0.15800*
1,1,0.18560,0.52050,0.15800*
%
%ADD111ROUNDEDRECTD111*%
%ADD112R,0.72160X0.55160*%
%ADD113R,0.45160X0.72660*%
G36*
X5847780Y14465849D02*
X5817780D01*
Y14515849D01*
X5847780D01*
Y14465849D01*
D02*
G37*
G36*
X5647780D02*
X5617780D01*
Y14515849D01*
X5647780D01*
Y14465849D01*
D02*
G37*
G36*
X5847780Y14417950D02*
X5835380Y14408350D01*
X5825280D01*
X5817780Y14415840D01*
Y14437100D01*
X5847780D01*
Y14417950D01*
D02*
G37*
G36*
X5647780Y14415840D02*
X5640280Y14408350D01*
X5630180D01*
X5617780Y14417950D01*
Y14437100D01*
X5647780D01*
Y14415840D01*
D02*
G37*
G36*
X6002280Y14437801D02*
X6049780D01*
Y14393600D01*
X5971030D01*
X5967280Y14397350D01*
Y14516100D01*
X6002280D01*
Y14437801D01*
D02*
G37*
G36*
X5498280Y14397350D02*
X5494530Y14393600D01*
X5415780D01*
Y14437801D01*
X5463280D01*
Y14516100D01*
X5498280D01*
Y14397350D01*
D02*
G37*
G36*
X6050280Y14227100D02*
Y14207100D01*
X5940280D01*
Y14227100D01*
X5906530D01*
X5902780Y14230850D01*
Y14258600D01*
X5906530Y14262100D01*
X6050280D01*
Y14227100D01*
D02*
G37*
G36*
X5562780Y14258600D02*
Y14230850D01*
X5559030Y14227100D01*
X5525280D01*
Y14207100D01*
X5415280D01*
Y14227100D01*
Y14262100D01*
X5559030D01*
X5562780Y14258600D01*
D02*
G37*
G36*
X6050280Y14082100D02*
X5990780D01*
X5988280Y14079601D01*
Y14007100D01*
X5948280D01*
Y14062100D01*
X5945780Y14064600D01*
X5914780D01*
X5912280Y14062100D01*
Y14007100D01*
X5871280D01*
Y14124600D01*
X5873780Y14127100D01*
X6050280D01*
Y14082100D01*
D02*
G37*
G36*
X5767280Y14157100D02*
Y14070850D01*
X5768530Y14069600D01*
X5777780D01*
Y14007100D01*
X5742780D01*
Y14157100D01*
X5745280Y14159599D01*
X5764780D01*
X5767280Y14157100D01*
D02*
G37*
G36*
X5722780D02*
Y14007100D01*
X5687780D01*
Y14069600D01*
X5697030D01*
X5698280Y14070850D01*
Y14157100D01*
X5700780Y14159599D01*
X5720280D01*
X5722780Y14157100D01*
D02*
G37*
G36*
X5594280Y14124600D02*
Y14007100D01*
X5553280D01*
Y14062100D01*
X5550780Y14064600D01*
X5519780D01*
X5517280Y14062100D01*
Y14007100D01*
X5477280D01*
Y14079601D01*
X5474780Y14082100D01*
X5415280D01*
Y14127100D01*
X5591780D01*
X5594280Y14124600D01*
D02*
G37*
G36*
X6120760Y13277460D02*
X5905760D01*
Y13319460D01*
X5950760D01*
Y13342461D01*
X5905760D01*
Y13384460D01*
X5950760D01*
Y13407460D01*
X5905760D01*
Y13449460D01*
X5950760D01*
Y13472459D01*
X5905760D01*
Y13514461D01*
X6120760D01*
Y13277460D01*
D02*
G37*
G36*
X7274372Y11442926D02*
X7275876Y11442738D01*
X7277755Y11442362D01*
X7279823Y11441798D01*
X7282078Y11441046D01*
X7284522Y11440107D01*
Y11426574D01*
X7284334Y11426761D01*
X7283582Y11427137D01*
X7282454Y11427701D01*
X7280951Y11428265D01*
X7279447Y11428829D01*
X7277567Y11429393D01*
X7275876Y11429769D01*
X7274184Y11429957D01*
X7273244D01*
X7272492Y11429769D01*
X7270801Y11429393D01*
X7268733Y11428641D01*
X7266666Y11427325D01*
X7265726Y11426386D01*
X7264974Y11425446D01*
X7264222Y11424130D01*
X7263846Y11422626D01*
X7263470Y11420935D01*
X7263282Y11419055D01*
Y11418867D01*
Y11418303D01*
X7263470Y11417551D01*
Y11416424D01*
X7263658Y11414920D01*
X7264034Y11413416D01*
X7264410Y11411537D01*
X7264974Y11409469D01*
X7265162Y11409281D01*
X7265350Y11408341D01*
X7265914Y11407026D01*
X7266854Y11404958D01*
X7268169Y11402139D01*
X7268921Y11400447D01*
X7269861Y11398755D01*
X7270989Y11396688D01*
X7272117Y11394432D01*
X7273432Y11391989D01*
X7274748Y11389357D01*
X7274936Y11389169D01*
X7275124Y11388794D01*
X7275500Y11388042D01*
X7276064Y11386914D01*
X7276628Y11385786D01*
X7277379Y11384283D01*
X7279071Y11381087D01*
X7280951Y11377516D01*
X7282642Y11373757D01*
X7284146Y11370186D01*
X7285274Y11366990D01*
X7285462Y11366614D01*
X7285650Y11365675D01*
X7286026Y11364171D01*
X7286589Y11362479D01*
X7286965Y11360224D01*
X7287341Y11357968D01*
X7287529Y11355525D01*
X7287717Y11353269D01*
Y11353081D01*
Y11352705D01*
Y11352141D01*
X7287529Y11351390D01*
X7287341Y11349322D01*
X7286965Y11346691D01*
X7286026Y11343683D01*
X7284898Y11340676D01*
X7283394Y11337481D01*
X7281139Y11334661D01*
X7280763Y11334285D01*
X7280011Y11333533D01*
X7278507Y11332406D01*
X7276628Y11331090D01*
X7274184Y11329774D01*
X7271365Y11328646D01*
X7268169Y11327895D01*
X7264410Y11327519D01*
X7263094D01*
X7261591Y11327707D01*
X7259899Y11328082D01*
X7257644Y11328646D01*
X7255200Y11329398D01*
X7252757Y11330338D01*
X7250125Y11331842D01*
Y11346878D01*
X7250501Y11346691D01*
X7251253Y11345939D01*
X7252569Y11344999D01*
X7254072Y11343871D01*
X7255952Y11342555D01*
X7258207Y11341616D01*
X7260463Y11340864D01*
X7262719Y11340676D01*
X7263470D01*
X7264410Y11340864D01*
X7265350Y11341052D01*
X7266666Y11341428D01*
X7267793Y11341992D01*
X7269109Y11342743D01*
X7270425Y11343683D01*
X7270613Y11343871D01*
X7270989Y11344247D01*
X7271553Y11344999D01*
X7272117Y11345939D01*
X7272680Y11347066D01*
X7273244Y11348382D01*
X7273620Y11349698D01*
X7273808Y11351390D01*
Y11351578D01*
Y11352141D01*
Y11352893D01*
X7273620Y11354021D01*
X7273432Y11355337D01*
X7273056Y11357028D01*
X7272492Y11358908D01*
X7271929Y11360788D01*
Y11360976D01*
X7271553Y11361915D01*
X7270989Y11363419D01*
X7270049Y11365487D01*
X7268733Y11368306D01*
X7267793Y11369998D01*
X7266854Y11371877D01*
X7265914Y11373945D01*
X7264786Y11376200D01*
X7263470Y11378644D01*
X7261967Y11381275D01*
Y11381463D01*
X7261591Y11382027D01*
X7261215Y11382779D01*
X7260651Y11383719D01*
X7260087Y11385034D01*
X7259335Y11386350D01*
X7257644Y11389733D01*
X7255952Y11393305D01*
X7254260Y11397064D01*
X7252757Y11400447D01*
X7251629Y11403642D01*
Y11404018D01*
X7251253Y11404958D01*
X7250877Y11406462D01*
X7250501Y11408153D01*
X7250125Y11410409D01*
X7249749Y11412664D01*
X7249561Y11414920D01*
X7249373Y11417176D01*
Y11417363D01*
Y11417739D01*
Y11418303D01*
X7249561Y11419055D01*
X7249749Y11421123D01*
X7250125Y11423754D01*
X7250877Y11426761D01*
X7252005Y11429957D01*
X7253696Y11432964D01*
X7255764Y11435784D01*
X7256140Y11436159D01*
X7256892Y11436911D01*
X7258395Y11438039D01*
X7260275Y11439543D01*
X7262531Y11440858D01*
X7265538Y11441986D01*
X7268733Y11442738D01*
X7272304Y11443114D01*
X7273244D01*
X7274372Y11442926D01*
D02*
G37*
G36*
X6974200Y11442738D02*
X6976080Y11442362D01*
X6978523Y11441610D01*
X6981154Y11440671D01*
X6983974Y11439167D01*
X6987169Y11437099D01*
Y11422626D01*
X6986793Y11423002D01*
X6985853Y11423754D01*
X6984538Y11424882D01*
X6982658Y11426198D01*
X6980403Y11427325D01*
X6977959Y11428453D01*
X6975328Y11429205D01*
X6972508Y11429581D01*
X6972132D01*
X6971193Y11429393D01*
X6969501Y11429017D01*
X6967621Y11428265D01*
X6965554Y11427137D01*
X6963486Y11425258D01*
X6962546Y11424130D01*
X6961607Y11422626D01*
X6960667Y11421123D01*
X6959915Y11419243D01*
Y11419055D01*
X6959727Y11418679D01*
X6959539Y11418115D01*
X6959351Y11417363D01*
X6958975Y11416236D01*
X6958787Y11414732D01*
X6958411Y11413040D01*
X6958035Y11411161D01*
X6957659Y11408905D01*
X6957284Y11406462D01*
X6957096Y11403642D01*
X6956720Y11400635D01*
X6956532Y11397252D01*
X6956344Y11393493D01*
X6956156Y11389545D01*
Y11385222D01*
Y11385034D01*
Y11384283D01*
Y11382967D01*
Y11381463D01*
X6956344Y11379396D01*
Y11377328D01*
X6956532Y11374885D01*
X6956720Y11372253D01*
X6957096Y11366614D01*
X6957847Y11360976D01*
X6958223Y11358344D01*
X6958787Y11355901D01*
X6959351Y11353457D01*
X6960103Y11351390D01*
Y11351202D01*
X6960291Y11351014D01*
X6960855Y11349698D01*
X6961795Y11348194D01*
X6963298Y11346315D01*
X6964990Y11344247D01*
X6967245Y11342743D01*
X6969877Y11341428D01*
X6971381Y11341240D01*
X6973072Y11341052D01*
X6973448D01*
X6974200Y11341240D01*
X6975516Y11341428D01*
X6977395Y11341992D01*
X6979651Y11343119D01*
X6982282Y11344435D01*
X6985102Y11346503D01*
X6986793Y11347630D01*
X6988485Y11349134D01*
Y11333721D01*
X6988109Y11333533D01*
X6986981Y11332781D01*
X6985478Y11331842D01*
X6983222Y11330714D01*
X6980591Y11329398D01*
X6977771Y11328458D01*
X6974576Y11327707D01*
X6971193Y11327519D01*
X6970629D01*
X6969877Y11327707D01*
X6968749D01*
X6967621Y11327895D01*
X6966118Y11328270D01*
X6962922Y11329398D01*
X6961231Y11330150D01*
X6959351Y11331090D01*
X6957471Y11332218D01*
X6955592Y11333721D01*
X6953900Y11335413D01*
X6952021Y11337293D01*
X6950329Y11339548D01*
X6948825Y11342179D01*
Y11342367D01*
X6948449Y11342931D01*
X6948073Y11343683D01*
X6947510Y11344999D01*
X6946946Y11346503D01*
X6946382Y11348382D01*
X6945630Y11350450D01*
X6944878Y11353081D01*
X6944126Y11355901D01*
X6943374Y11359096D01*
X6942811Y11362479D01*
X6942247Y11366426D01*
X6941683Y11370561D01*
X6941307Y11374885D01*
X6941119Y11379584D01*
X6940931Y11384658D01*
Y11385034D01*
Y11385786D01*
Y11387290D01*
X6941119Y11389169D01*
Y11391425D01*
X6941307Y11394244D01*
X6941683Y11397064D01*
X6941871Y11400259D01*
X6942811Y11407214D01*
X6944314Y11414356D01*
X6946194Y11421311D01*
X6947510Y11424506D01*
X6948825Y11427513D01*
X6949013Y11427701D01*
X6949201Y11428265D01*
X6949577Y11429017D01*
X6950329Y11429957D01*
X6952021Y11432400D01*
X6954652Y11435408D01*
X6957847Y11438227D01*
X6961795Y11440671D01*
X6964050Y11441610D01*
X6966306Y11442362D01*
X6968937Y11442926D01*
X6971568Y11443114D01*
X6972884D01*
X6974200Y11442738D01*
D02*
G37*
G36*
X7175505Y11329022D02*
X7161408D01*
X7162160Y11410409D01*
X7161784Y11410597D01*
X7147499Y11373569D01*
X7144868D01*
X7130583Y11410597D01*
X7130207Y11410409D01*
X7131147Y11329022D01*
X7117050D01*
Y11441610D01*
X7129267D01*
X7146183Y11400259D01*
X7163100Y11441610D01*
X7175505D01*
Y11329022D01*
D02*
G37*
G36*
X7330008Y11387854D02*
X7352375Y11329022D01*
X7337151D01*
X7317039Y11385974D01*
X7333016Y11441610D01*
X7348052D01*
X7330008Y11387854D01*
D02*
G37*
G36*
X7316475Y11329022D02*
X7302002D01*
Y11441610D01*
X7316475D01*
Y11329022D01*
D02*
G37*
G36*
X7243547D02*
X7229450D01*
X7225314Y11354021D01*
X7204451D01*
X7199940Y11329022D01*
X7186031D01*
X7207270Y11442362D01*
X7222307D01*
X7243547Y11329022D01*
D02*
G37*
G36*
X7029648Y11387854D02*
X7052015Y11329022D01*
X7036791D01*
X7016679Y11385974D01*
X7032655Y11441610D01*
X7047692D01*
X7029648Y11387854D01*
D02*
G37*
G36*
X7016115Y11329022D02*
X7001642D01*
Y11441610D01*
X7016115D01*
Y11329022D01*
D02*
G37*
G36*
X6934352D02*
X6920255D01*
X6916120Y11354021D01*
X6895257D01*
X6890746Y11329022D01*
X6876837D01*
X6898076Y11442362D01*
X6913113D01*
X6934352Y11329022D01*
D02*
G37*
G36*
X6839996Y11441422D02*
X6841124D01*
X6842440Y11441234D01*
X6845447Y11440671D01*
X6848831Y11439543D01*
X6852214Y11438039D01*
X6855785Y11436159D01*
X6857477Y11434844D01*
X6859168Y11433340D01*
X6859356D01*
X6859544Y11432964D01*
X6860484Y11431836D01*
X6861800Y11430145D01*
X6863491Y11427701D01*
X6864995Y11424882D01*
X6866311Y11421499D01*
X6867251Y11417739D01*
X6867627Y11415672D01*
Y11413604D01*
Y11413416D01*
Y11412852D01*
Y11412101D01*
X6867439Y11411161D01*
X6867251Y11409845D01*
X6866875Y11408341D01*
X6865747Y11404958D01*
X6864995Y11402891D01*
X6864055Y11401011D01*
X6862928Y11398943D01*
X6861424Y11396876D01*
X6859732Y11394996D01*
X6857853Y11392929D01*
X6855597Y11391049D01*
X6852966Y11389357D01*
X6853154D01*
X6853718Y11388982D01*
X6854657Y11388418D01*
X6855597Y11387854D01*
X6856913Y11386914D01*
X6858417Y11385786D01*
X6859920Y11384471D01*
X6861612Y11382779D01*
X6863304Y11381087D01*
X6864807Y11379020D01*
X6866311Y11376764D01*
X6867627Y11374133D01*
X6868754Y11371313D01*
X6869506Y11368306D01*
X6870070Y11364923D01*
X6870258Y11361351D01*
Y11361163D01*
Y11360788D01*
Y11360036D01*
X6870070Y11358908D01*
Y11357780D01*
X6869694Y11356276D01*
X6869130Y11353081D01*
X6868003Y11349322D01*
X6866311Y11345563D01*
X6865183Y11343495D01*
X6864055Y11341616D01*
X6862552Y11339736D01*
X6860860Y11338044D01*
X6860672Y11337856D01*
X6860484Y11337668D01*
X6859920Y11337293D01*
X6859168Y11336729D01*
X6858229Y11335977D01*
X6856913Y11335225D01*
X6855597Y11334473D01*
X6854093Y11333533D01*
X6852214Y11332781D01*
X6850334Y11331842D01*
X6848079Y11331090D01*
X6845635Y11330526D01*
X6843192Y11329774D01*
X6840372Y11329398D01*
X6837553Y11329210D01*
X6834358Y11329022D01*
X6820825D01*
Y11441610D01*
X6839245D01*
X6839996Y11441422D01*
D02*
G37*
%LPC*%
G36*
X7214789Y11414544D02*
X7214413D01*
X7206518Y11367554D01*
X7222683D01*
X7214789Y11414544D01*
D02*
G37*
G36*
X6905595D02*
X6905219D01*
X6897324Y11367554D01*
X6913489D01*
X6905595Y11414544D01*
D02*
G37*
G36*
X6836613Y11428077D02*
X6835297D01*
Y11393868D01*
X6837929D01*
X6839245Y11394056D01*
X6840936Y11394432D01*
X6842816Y11394996D01*
X6844883Y11395936D01*
X6846763Y11397064D01*
X6848643Y11398568D01*
X6848831Y11398755D01*
X6849394Y11399507D01*
X6850146Y11400447D01*
X6850898Y11401951D01*
X6851650Y11403830D01*
X6852402Y11405898D01*
X6852966Y11408529D01*
X6853154Y11411349D01*
Y11411725D01*
Y11412664D01*
X6852966Y11414168D01*
X6852590Y11415860D01*
X6852026Y11417739D01*
X6851274Y11419807D01*
X6850334Y11421875D01*
X6848831Y11423566D01*
X6848643Y11423754D01*
X6848079Y11424318D01*
X6847139Y11425070D01*
X6845635Y11425822D01*
X6843944Y11426574D01*
X6841876Y11427325D01*
X6839433Y11427889D01*
X6836613Y11428077D01*
D02*
G37*
G36*
X6837741Y11380335D02*
X6835297D01*
Y11342555D01*
X6839057D01*
X6840748Y11342743D01*
X6842628Y11343119D01*
X6844695Y11343683D01*
X6846951Y11344623D01*
X6849019Y11345751D01*
X6850898Y11347254D01*
X6851086Y11347442D01*
X6851650Y11348194D01*
X6852402Y11349322D01*
X6853342Y11350826D01*
X6854281Y11352705D01*
X6855033Y11355149D01*
X6855597Y11357780D01*
X6855785Y11360976D01*
Y11361163D01*
Y11361351D01*
Y11362479D01*
X6855597Y11363983D01*
X6855221Y11365862D01*
X6854657Y11368118D01*
X6853718Y11370373D01*
X6852590Y11372817D01*
X6851086Y11374885D01*
X6850898Y11375073D01*
X6850146Y11375824D01*
X6849207Y11376576D01*
X6847703Y11377704D01*
X6845823Y11378644D01*
X6843568Y11379584D01*
X6840748Y11380147D01*
X6837741Y11380335D01*
D02*
G37*
%LPD*%
D69*
X9949180Y14635480D02*
D03*
X4089400Y12857480D02*
D03*
Y14635480D02*
D03*
D72*
X4937760Y13601360D02*
D03*
Y13505360D02*
D03*
X5336540Y14312640D02*
D03*
Y14216640D02*
D03*
X5034280Y13601360D02*
D03*
Y13505360D02*
D03*
X6129020Y14315179D02*
D03*
Y14219180D02*
D03*
D73*
X6128820Y13081000D02*
D03*
X6230820D02*
D03*
X5486600Y14592300D02*
D03*
X5384600D02*
D03*
X6197800D02*
D03*
X6095800D02*
D03*
X6199940Y12890500D02*
D03*
X6301940D02*
D03*
D74*
X6879340Y14320520D02*
D03*
X6689340D02*
D03*
X6003040Y13787120D02*
D03*
X5813040D02*
D03*
X4591300Y14320520D02*
D03*
X4781300D02*
D03*
X4591300Y14122400D02*
D03*
X4781300D02*
D03*
X6879340Y14518640D02*
D03*
X6689340D02*
D03*
X4591300D02*
D03*
X4781300D02*
D03*
X6879340Y14122400D02*
D03*
X6689340D02*
D03*
X5200900Y13350240D02*
D03*
X5390900D02*
D03*
X5462520Y13787120D02*
D03*
X5652520D02*
D03*
D77*
X8128000Y13568680D02*
D03*
X7874000D02*
D03*
X7620000D02*
D03*
X7366000D02*
D03*
D78*
X7112000D02*
D03*
D79*
X8128000Y13192760D02*
D03*
X7112000D02*
D03*
X8382000Y13081000D02*
D03*
X6604000Y13192760D02*
D03*
X6858000Y13081000D02*
D03*
X8636000Y13192760D02*
D03*
D80*
X8382000Y13456920D02*
D03*
X6604000Y13568680D02*
D03*
X6858000Y13456920D02*
D03*
X8636000Y13568680D02*
D03*
D81*
X9874250Y13746480D02*
D03*
X4159250D02*
D03*
D82*
X5832780Y14415849D02*
G03*
X5832780Y14415849I-7500J0D01*
G01*
X5647780D02*
G03*
X5647780Y14415849I-7500J0D01*
G01*
D83*
X6202940Y13911580D02*
D03*
X6298940D02*
D03*
X5946400Y14688820D02*
D03*
X6042400D02*
D03*
X4826260Y13936980D02*
D03*
X4922260D02*
D03*
X5671560Y14688820D02*
D03*
X5575560D02*
D03*
X5679700Y14594839D02*
D03*
X5775700D02*
D03*
X8320780Y13921741D02*
D03*
X8224780D02*
D03*
X5760980Y14688820D02*
D03*
X5856980D02*
D03*
X5877300Y13931900D02*
D03*
X5781300D02*
D03*
X5588260D02*
D03*
X5684260D02*
D03*
D84*
X5326380Y12999719D02*
D03*
X4711700D02*
D03*
D85*
X8405360Y14091000D02*
D03*
X8225360D02*
D03*
D86*
X8386480Y14286380D02*
D03*
Y14388380D02*
D03*
X4579620Y13850819D02*
D03*
Y13748820D02*
D03*
D87*
X8653180Y14388181D02*
D03*
D88*
X8801930Y14293179D02*
D03*
Y14388181D02*
D03*
Y14483180D02*
D03*
X8504430D02*
D03*
Y14388181D02*
D03*
Y14293179D02*
D03*
D89*
X4831080Y13436600D02*
D03*
Y13629640D02*
D03*
D90*
X4577080D02*
D03*
D91*
Y13455650D02*
D03*
D92*
X5545050Y12956540D02*
D03*
X5732550Y12861540D02*
D03*
Y13051540D02*
D03*
D93*
X7241540Y13695120D02*
D03*
D94*
X7219040Y13625121D02*
D03*
D95*
X7264040D02*
D03*
D96*
X6519300Y14234160D02*
D03*
X6282300D02*
D03*
X4951340D02*
D03*
X5188340D02*
D03*
D97*
X6215380Y13726160D02*
D03*
D98*
X6280380Y13817160D02*
D03*
X6215380D02*
D03*
X6150380D02*
D03*
Y13635159D02*
D03*
X6215380D02*
D03*
X6280380D02*
D03*
D99*
X5214620Y13550819D02*
D03*
D100*
X5307120Y13485820D02*
D03*
Y13550819D02*
D03*
Y13615820D02*
D03*
X5122120D02*
D03*
Y13550819D02*
D03*
Y13485820D02*
D03*
D101*
X6878380Y13804900D02*
D03*
X6588380D02*
D03*
X8422860Y13769341D02*
D03*
X8132860D02*
D03*
D102*
X4909340Y13749820D02*
D03*
Y13799820D02*
D03*
Y13849820D02*
D03*
X4849340D02*
D03*
Y13799820D02*
D03*
D103*
X4851840Y13749820D02*
D03*
D104*
X6080760Y13395959D02*
D03*
D105*
X6220760Y13298460D02*
D03*
Y13363460D02*
D03*
Y13428461D02*
D03*
Y13493460D02*
D03*
D106*
X5932780Y14462100D02*
D03*
X5882780D02*
D03*
X5782780D02*
D03*
X5732780D02*
D03*
X5682780D02*
D03*
X5582780D02*
D03*
X5532780D02*
D03*
D107*
X5832780D02*
D03*
X5632780D02*
D03*
D108*
X5461530Y14352100D02*
D03*
X6004030D02*
D03*
D109*
X5491530Y14297099D02*
D03*
X5974030D02*
D03*
D110*
X5489030Y14234599D02*
D03*
X5976530D02*
D03*
D111*
X5471530Y14167101D02*
D03*
X5994030D02*
D03*
D112*
X5446280Y14104601D02*
D03*
X6019280D02*
D03*
D113*
X5705280Y14038350D02*
D03*
X5760280D02*
D03*
%TF.MD5,0d968be3f78313f49fa6c4df78cdcab3*%
M02*
