%TF.GenerationSoftware,Altium Limited,Altium Designer,25.2.1 (25)*%
G04 Layer_Color=8388736*
%FSLAX45Y45*%
%MOMM*%
%TF.SameCoordinates,982BFCA8-AA29-4240-802F-59D3D38ADE71*%
%TF.FilePolarity,Negative*%
%TF.FileFunction,Soldermask,Top*%
%TF.Part,Single*%
G01*
G75*
%TA.AperFunction,SMDPad,CuDef*%
G04:AMPARAMS|DCode=65|XSize=2.6416mm|YSize=2.1336mm|CornerRadius=1.0668mm|HoleSize=0mm|Usage=FLASHONLY|Rotation=90.000|XOffset=0mm|YOffset=0mm|HoleType=Round|Shape=RoundedRectangle|*
%AMROUNDEDRECTD65*
21,1,2.64160,0.00000,0,0,90.0*
21,1,0.50800,2.13360,0,0,90.0*
1,1,2.13360,0.00000,0.25400*
1,1,2.13360,0.00000,-0.25400*
1,1,2.13360,0.00000,-0.25400*
1,1,2.13360,0.00000,0.25400*
%
%ADD65ROUNDEDRECTD65*%
%ADD66R,0.61380X0.27580*%
%ADD67R,0.27580X0.76380*%
G04:AMPARAMS|DCode=68|XSize=2.6416mm|YSize=2.1336mm|CornerRadius=1.0668mm|HoleSize=0mm|Usage=FLASHONLY|Rotation=0.000|XOffset=0mm|YOffset=0mm|HoleType=Round|Shape=RoundedRectangle|*
%AMROUNDEDRECTD68*
21,1,2.64160,0.00000,0,0,0.0*
21,1,0.50800,2.13360,0,0,0.0*
1,1,2.13360,0.25400,0.00000*
1,1,2.13360,-0.25400,0.00000*
1,1,2.13360,-0.25400,0.00000*
1,1,2.13360,0.25400,0.00000*
%
%ADD68ROUNDEDRECTD68*%
%ADD69C,1.52400*%
G04:AMPARAMS|DCode=70|XSize=5.1816mm|YSize=3.9116mm|CornerRadius=1.9558mm|HoleSize=0mm|Usage=FLASHONLY|Rotation=0.000|XOffset=0mm|YOffset=0mm|HoleType=Round|Shape=RoundedRectangle|*
%AMROUNDEDRECTD70*
21,1,5.18160,0.00000,0,0,0.0*
21,1,1.27000,3.91160,0,0,0.0*
1,1,3.91160,0.63500,0.00000*
1,1,3.91160,-0.63500,0.00000*
1,1,3.91160,-0.63500,0.00000*
1,1,3.91160,0.63500,0.00000*
%
%ADD70ROUNDEDRECTD70*%
%ADD71R,0.40160X0.40160*%
G04:AMPARAMS|DCode=72|XSize=0.6616mm|YSize=0.7216mm|CornerRadius=0.1208mm|HoleSize=0mm|Usage=FLASHONLY|Rotation=270.000|XOffset=0mm|YOffset=0mm|HoleType=Round|Shape=RoundedRectangle|*
%AMROUNDEDRECTD72*
21,1,0.66160,0.48000,0,0,270.0*
21,1,0.42000,0.72160,0,0,270.0*
1,1,0.24160,-0.24000,-0.21000*
1,1,0.24160,-0.24000,0.21000*
1,1,0.24160,0.24000,0.21000*
1,1,0.24160,0.24000,-0.21000*
%
%ADD72ROUNDEDRECTD72*%
G04:AMPARAMS|DCode=73|XSize=0.6416mm|YSize=0.7416mm|CornerRadius=0.1183mm|HoleSize=0mm|Usage=FLASHONLY|Rotation=0.000|XOffset=0mm|YOffset=0mm|HoleType=Round|Shape=RoundedRectangle|*
%AMROUNDEDRECTD73*
21,1,0.64160,0.50500,0,0,0.0*
21,1,0.40500,0.74160,0,0,0.0*
1,1,0.23660,0.20250,-0.25250*
1,1,0.23660,-0.20250,-0.25250*
1,1,0.23660,-0.20250,0.25250*
1,1,0.23660,0.20250,0.25250*
%
%ADD73ROUNDEDRECTD73*%
G04:AMPARAMS|DCode=74|XSize=1.1016mm|YSize=1.5516mm|CornerRadius=0.1758mm|HoleSize=0mm|Usage=FLASHONLY|Rotation=0.000|XOffset=0mm|YOffset=0mm|HoleType=Round|Shape=RoundedRectangle|*
%AMROUNDEDRECTD74*
21,1,1.10160,1.20000,0,0,0.0*
21,1,0.75000,1.55160,0,0,0.0*
1,1,0.35160,0.37500,-0.60000*
1,1,0.35160,-0.37500,-0.60000*
1,1,0.35160,-0.37500,0.60000*
1,1,0.35160,0.37500,0.60000*
%
%ADD74ROUNDEDRECTD74*%
G04:AMPARAMS|DCode=75|XSize=1.1016mm|YSize=1.5516mm|CornerRadius=0.1758mm|HoleSize=0mm|Usage=FLASHONLY|Rotation=90.000|XOffset=0mm|YOffset=0mm|HoleType=Round|Shape=RoundedRectangle|*
%AMROUNDEDRECTD75*
21,1,1.10160,1.20000,0,0,90.0*
21,1,0.75000,1.55160,0,0,90.0*
1,1,0.35160,0.60000,0.37500*
1,1,0.35160,0.60000,-0.37500*
1,1,0.35160,-0.60000,-0.37500*
1,1,0.35160,-0.60000,0.37500*
%
%ADD75ROUNDEDRECTD75*%
%ADD76R,0.37660X0.81460*%
%TA.AperFunction,ComponentPad*%
%ADD77C,1.72720*%
%ADD78R,1.67640X1.67640*%
%ADD79C,2.46380*%
%ADD80R,1.72720X1.72720*%
%ADD81C,3.21600*%
G36*
X6212040Y14446181D02*
X6097040D01*
X6147040Y14521181D01*
X6097040Y14596181D01*
X6212040D01*
Y14446181D01*
D02*
G37*
G36*
X6117040Y14521181D02*
X6067040Y14446181D01*
X5967040D01*
Y14596181D01*
X6067040D01*
X6117040Y14521181D01*
D02*
G37*
G36*
X5500840Y14446181D02*
X5400840D01*
X5350840Y14521181D01*
X5400840Y14596181D01*
X5500840D01*
Y14446181D01*
D02*
G37*
G36*
X5320840Y14521181D02*
X5370840Y14446181D01*
X5255840D01*
Y14596181D01*
X5370840D01*
X5320840Y14521181D01*
D02*
G37*
G36*
X6212040Y14194720D02*
X6097040D01*
X6147040Y14269720D01*
X6097040Y14344720D01*
X6212040D01*
Y14194720D01*
D02*
G37*
G36*
X6117040Y14269720D02*
X6067040Y14194720D01*
X5967040D01*
Y14344720D01*
X6067040D01*
X6117040Y14269720D01*
D02*
G37*
G36*
X5500840Y14194720D02*
X5400840D01*
X5350840Y14269720D01*
X5400840Y14344720D01*
X5500840D01*
Y14194720D01*
D02*
G37*
G36*
X5320840Y14269720D02*
X5370840Y14194720D01*
X5255840D01*
Y14344720D01*
X5370840D01*
X5320840Y14269720D01*
D02*
G37*
G36*
X6212040Y13943260D02*
X6097040D01*
X6147040Y14018260D01*
X6097040Y14093260D01*
X6212040D01*
Y13943260D01*
D02*
G37*
G36*
X6117040Y14018260D02*
X6067040Y13943260D01*
X5967040D01*
Y14093260D01*
X6067040D01*
X6117040Y14018260D01*
D02*
G37*
G36*
X7309896Y11442926D02*
X7311400Y11442738D01*
X7313280Y11442362D01*
X7315347Y11441798D01*
X7317603Y11441046D01*
X7320046Y11440107D01*
Y11426574D01*
X7319858Y11426761D01*
X7319107Y11427137D01*
X7317979Y11427701D01*
X7316475Y11428265D01*
X7314971Y11428829D01*
X7313092Y11429393D01*
X7311400Y11429769D01*
X7309709Y11429957D01*
X7308769D01*
X7308017Y11429769D01*
X7306325Y11429393D01*
X7304258Y11428641D01*
X7302190Y11427325D01*
X7301250Y11426386D01*
X7300498Y11425446D01*
X7299747Y11424130D01*
X7299371Y11422626D01*
X7298995Y11420935D01*
X7298807Y11419055D01*
Y11418867D01*
Y11418303D01*
X7298995Y11417551D01*
Y11416424D01*
X7299183Y11414920D01*
X7299559Y11413416D01*
X7299935Y11411537D01*
X7300498Y11409469D01*
X7300686Y11409281D01*
X7300874Y11408341D01*
X7301438Y11407026D01*
X7302378Y11404958D01*
X7303694Y11402139D01*
X7304446Y11400447D01*
X7305385Y11398755D01*
X7306513Y11396688D01*
X7307641Y11394432D01*
X7308957Y11391989D01*
X7310272Y11389357D01*
X7310460Y11389169D01*
X7310648Y11388794D01*
X7311024Y11388042D01*
X7311588Y11386914D01*
X7312152Y11385786D01*
X7312904Y11384283D01*
X7314595Y11381087D01*
X7316475Y11377516D01*
X7318167Y11373757D01*
X7319670Y11370186D01*
X7320798Y11366990D01*
X7320986Y11366614D01*
X7321174Y11365675D01*
X7321550Y11364171D01*
X7322114Y11362479D01*
X7322490Y11360224D01*
X7322866Y11357968D01*
X7323054Y11355525D01*
X7323242Y11353269D01*
Y11353081D01*
Y11352705D01*
Y11352141D01*
X7323054Y11351390D01*
X7322866Y11349322D01*
X7322490Y11346691D01*
X7321550Y11343683D01*
X7320422Y11340676D01*
X7318919Y11337481D01*
X7316663Y11334661D01*
X7316287Y11334285D01*
X7315535Y11333533D01*
X7314032Y11332406D01*
X7312152Y11331090D01*
X7309709Y11329774D01*
X7306889Y11328646D01*
X7303694Y11327895D01*
X7299935Y11327519D01*
X7298619D01*
X7297115Y11327707D01*
X7295424Y11328082D01*
X7293168Y11328646D01*
X7290725Y11329398D01*
X7288281Y11330338D01*
X7285650Y11331842D01*
Y11346878D01*
X7286026Y11346691D01*
X7286777Y11345939D01*
X7288093Y11344999D01*
X7289597Y11343871D01*
X7291476Y11342555D01*
X7293732Y11341616D01*
X7295987Y11340864D01*
X7298243Y11340676D01*
X7298995D01*
X7299935Y11340864D01*
X7300874Y11341052D01*
X7302190Y11341428D01*
X7303318Y11341992D01*
X7304634Y11342743D01*
X7305949Y11343683D01*
X7306137Y11343871D01*
X7306513Y11344247D01*
X7307077Y11344999D01*
X7307641Y11345939D01*
X7308205Y11347066D01*
X7308769Y11348382D01*
X7309145Y11349698D01*
X7309333Y11351390D01*
Y11351578D01*
Y11352141D01*
Y11352893D01*
X7309145Y11354021D01*
X7308957Y11355337D01*
X7308581Y11357028D01*
X7308017Y11358908D01*
X7307453Y11360788D01*
Y11360976D01*
X7307077Y11361915D01*
X7306513Y11363419D01*
X7305573Y11365487D01*
X7304258Y11368306D01*
X7303318Y11369998D01*
X7302378Y11371877D01*
X7301438Y11373945D01*
X7300311Y11376200D01*
X7298995Y11378644D01*
X7297491Y11381275D01*
Y11381463D01*
X7297115Y11382027D01*
X7296739Y11382779D01*
X7296175Y11383719D01*
X7295612Y11385034D01*
X7294860Y11386350D01*
X7293168Y11389733D01*
X7291476Y11393305D01*
X7289785Y11397064D01*
X7288281Y11400447D01*
X7287153Y11403642D01*
Y11404018D01*
X7286777Y11404958D01*
X7286401Y11406462D01*
X7286026Y11408153D01*
X7285650Y11410409D01*
X7285274Y11412664D01*
X7285086Y11414920D01*
X7284898Y11417176D01*
Y11417363D01*
Y11417739D01*
Y11418303D01*
X7285086Y11419055D01*
X7285274Y11421123D01*
X7285650Y11423754D01*
X7286401Y11426761D01*
X7287529Y11429957D01*
X7289221Y11432964D01*
X7291288Y11435784D01*
X7291664Y11436159D01*
X7292416Y11436911D01*
X7293920Y11438039D01*
X7295799Y11439543D01*
X7298055Y11440858D01*
X7301062Y11441986D01*
X7304258Y11442738D01*
X7307829Y11443114D01*
X7308769D01*
X7309896Y11442926D01*
D02*
G37*
G36*
X7211030Y11329022D02*
X7196933D01*
X7197684Y11410409D01*
X7197308Y11410597D01*
X7183023Y11373569D01*
X7180392D01*
X7166107Y11410597D01*
X7165731Y11410409D01*
X7166671Y11329022D01*
X7152574D01*
Y11441610D01*
X7164791D01*
X7181708Y11400259D01*
X7198624Y11441610D01*
X7211030D01*
Y11329022D01*
D02*
G37*
G36*
X7024197D02*
X7012544D01*
X6987169Y11399131D01*
X6986981D01*
Y11329022D01*
X6973824D01*
Y11441610D01*
X6985290D01*
X7010664Y11371689D01*
X7011040Y11372065D01*
Y11441610D01*
X7024197D01*
Y11329022D01*
D02*
G37*
G36*
X7365533Y11387854D02*
X7387900Y11329022D01*
X7372675D01*
X7352563Y11385974D01*
X7368540Y11441610D01*
X7383577D01*
X7365533Y11387854D01*
D02*
G37*
G36*
X7352000Y11329022D02*
X7337527D01*
Y11441610D01*
X7352000D01*
Y11329022D01*
D02*
G37*
G36*
X7279071D02*
X7264974D01*
X7260839Y11354021D01*
X7239975D01*
X7235464Y11329022D01*
X7221555D01*
X7242795Y11442362D01*
X7257832D01*
X7279071Y11329022D01*
D02*
G37*
G36*
X7084908Y11428077D02*
X7067616D01*
Y11329022D01*
X7053143D01*
Y11428077D01*
X7035851D01*
Y11441610D01*
X7084908D01*
Y11428077D01*
D02*
G37*
G36*
X6854657Y11441422D02*
X6855785D01*
X6857289Y11441234D01*
X6860484Y11440483D01*
X6864055Y11439543D01*
X6867627Y11438039D01*
X6871198Y11435784D01*
X6872889Y11434468D01*
X6874393Y11432964D01*
X6874769Y11432588D01*
X6875145Y11432024D01*
X6875521Y11431461D01*
X6876837Y11429581D01*
X6878340Y11426949D01*
X6879656Y11423754D01*
X6880972Y11419807D01*
X6881724Y11415484D01*
X6882100Y11410409D01*
Y11410221D01*
Y11409657D01*
Y11408905D01*
X6881912Y11407778D01*
X6881724Y11406462D01*
X6881536Y11404958D01*
X6880596Y11401387D01*
X6879280Y11397440D01*
X6878340Y11395372D01*
X6877025Y11393305D01*
X6875709Y11391425D01*
X6874205Y11389545D01*
X6872326Y11387854D01*
X6870258Y11386162D01*
X6870446D01*
X6870634Y11385786D01*
X6871198Y11385410D01*
X6871762Y11384658D01*
X6872514Y11383907D01*
X6873453Y11382779D01*
X6874393Y11381275D01*
X6875521Y11379584D01*
X6876837Y11377516D01*
X6877964Y11375073D01*
X6879280Y11372253D01*
X6880596Y11369058D01*
X6881912Y11365487D01*
X6883227Y11361539D01*
X6884543Y11357028D01*
X6885671Y11352141D01*
X6890934Y11329022D01*
X6875709D01*
X6871198Y11348382D01*
Y11348570D01*
X6871010Y11349322D01*
X6870822Y11350262D01*
X6870446Y11351578D01*
X6870070Y11353269D01*
X6869506Y11355149D01*
X6868566Y11359284D01*
X6867251Y11363607D01*
X6865935Y11367930D01*
X6865183Y11369810D01*
X6864431Y11371501D01*
X6863867Y11373193D01*
X6863116Y11374321D01*
X6862928Y11374509D01*
X6862552Y11375260D01*
X6861800Y11376012D01*
X6860860Y11377140D01*
X6859544Y11378080D01*
X6858041Y11378832D01*
X6856537Y11379396D01*
X6854657D01*
Y11329022D01*
X6840184D01*
Y11441610D01*
X6853530D01*
X6854657Y11441422D01*
D02*
G37*
G36*
X6820449Y11428077D02*
X6799773D01*
Y11394620D01*
X6818945D01*
Y11381087D01*
X6799773D01*
Y11329022D01*
X6785300D01*
Y11441610D01*
X6820449D01*
Y11428077D01*
D02*
G37*
G36*
X6929277Y11442926D02*
X6930217D01*
X6931345Y11442550D01*
X6932661Y11442174D01*
X6934164Y11441798D01*
X6935856Y11441046D01*
X6937548Y11440295D01*
X6939427Y11439167D01*
X6941119Y11437851D01*
X6942999Y11436347D01*
X6944878Y11434468D01*
X6946570Y11432212D01*
X6948261Y11429769D01*
X6949953Y11426949D01*
X6950141Y11426761D01*
X6950329Y11426198D01*
X6950705Y11425258D01*
X6951269Y11423942D01*
X6951833Y11422438D01*
X6952585Y11420559D01*
X6953336Y11418303D01*
X6954088Y11415672D01*
X6954840Y11412852D01*
X6955592Y11409657D01*
X6956344Y11406274D01*
X6956908Y11402515D01*
X6957471Y11398568D01*
X6957847Y11394432D01*
X6958223Y11389921D01*
Y11385222D01*
Y11384846D01*
Y11384095D01*
Y11382591D01*
X6958035Y11380711D01*
Y11378456D01*
X6957847Y11375824D01*
X6957471Y11372817D01*
X6957096Y11369622D01*
X6956156Y11362855D01*
X6954652Y11355901D01*
X6952397Y11348946D01*
X6951081Y11345751D01*
X6949577Y11342743D01*
X6949389Y11342555D01*
X6949201Y11342179D01*
X6948637Y11341428D01*
X6948073Y11340300D01*
X6946194Y11337856D01*
X6943562Y11335225D01*
X6940555Y11332406D01*
X6936796Y11329962D01*
X6934728Y11329022D01*
X6932661Y11328270D01*
X6930405Y11327707D01*
X6927962Y11327519D01*
X6927398D01*
X6926646Y11327707D01*
X6925706D01*
X6924578Y11328082D01*
X6923263Y11328270D01*
X6920255Y11329398D01*
X6918564Y11330338D01*
X6916872Y11331278D01*
X6914993Y11332594D01*
X6913113Y11334097D01*
X6911233Y11335789D01*
X6909542Y11337856D01*
X6907850Y11340300D01*
X6906158Y11342931D01*
Y11343119D01*
X6905782Y11343683D01*
X6905407Y11344623D01*
X6904843Y11345751D01*
X6904279Y11347254D01*
X6903527Y11349322D01*
X6902775Y11351390D01*
X6902023Y11354021D01*
X6901271Y11356840D01*
X6900520Y11360036D01*
X6899768Y11363419D01*
X6899204Y11367366D01*
X6898640Y11371313D01*
X6898264Y11375636D01*
X6898076Y11380335D01*
X6897888Y11385222D01*
Y11385598D01*
Y11386350D01*
Y11387666D01*
X6898076Y11389357D01*
Y11391613D01*
X6898264Y11394056D01*
X6898640Y11396876D01*
X6898828Y11399883D01*
X6899392Y11403079D01*
X6899768Y11406462D01*
X6901271Y11413416D01*
X6903151Y11420371D01*
X6904467Y11423566D01*
X6905782Y11426761D01*
X6905970Y11426949D01*
X6906158Y11427513D01*
X6906534Y11428265D01*
X6907286Y11429393D01*
X6908038Y11430521D01*
X6908978Y11432024D01*
X6911609Y11435032D01*
X6914617Y11438039D01*
X6916496Y11439355D01*
X6918564Y11440483D01*
X6920631Y11441610D01*
X6922887Y11442362D01*
X6925330Y11442926D01*
X6927962Y11443114D01*
X6928526D01*
X6929277Y11442926D01*
D02*
G37*
%LPC*%
G36*
X7250313Y11414544D02*
X7249937D01*
X7242043Y11367554D01*
X7258207D01*
X7250313Y11414544D01*
D02*
G37*
G36*
X6854657Y11428077D02*
Y11392929D01*
X6855785D01*
X6856349Y11393117D01*
X6857101D01*
X6859168Y11393868D01*
X6860296Y11394432D01*
X6861424Y11394996D01*
X6862552Y11395936D01*
X6863679Y11397064D01*
X6864807Y11398380D01*
X6865747Y11400071D01*
X6866499Y11401951D01*
X6867063Y11404206D01*
X6867439Y11406838D01*
X6867627Y11409845D01*
Y11410033D01*
Y11410597D01*
Y11411537D01*
X6867439Y11412664D01*
X6867251Y11413980D01*
X6866875Y11415484D01*
X6865935Y11418867D01*
X6865371Y11420559D01*
X6864431Y11422250D01*
X6863491Y11423754D01*
X6862176Y11425070D01*
X6860672Y11426386D01*
X6858980Y11427325D01*
X6856913Y11427889D01*
X6854657Y11428077D01*
D02*
G37*
G36*
X6927774Y11429581D02*
X6927398D01*
X6926646Y11429393D01*
X6925330Y11429017D01*
X6923827Y11428077D01*
X6921947Y11426761D01*
X6921007Y11425822D01*
X6920255Y11424506D01*
X6919316Y11423190D01*
X6918376Y11421687D01*
X6917624Y11419807D01*
X6916872Y11417739D01*
Y11417551D01*
X6916684Y11417176D01*
X6916496Y11416424D01*
X6916308Y11415484D01*
X6915932Y11414356D01*
X6915744Y11412852D01*
X6915368Y11411161D01*
X6914993Y11409281D01*
X6914617Y11407026D01*
X6914241Y11404582D01*
X6914053Y11401951D01*
X6913677Y11398943D01*
X6913489Y11395936D01*
X6913301Y11392553D01*
X6913113Y11388982D01*
Y11385222D01*
Y11385034D01*
Y11384283D01*
Y11383155D01*
Y11381651D01*
X6913301Y11379959D01*
Y11377892D01*
X6913489Y11375636D01*
X6913677Y11373005D01*
X6914053Y11367742D01*
X6914617Y11362291D01*
X6915556Y11357028D01*
X6916308Y11354585D01*
X6916872Y11352329D01*
Y11352141D01*
X6917060Y11351765D01*
X6917248Y11351202D01*
X6917624Y11350638D01*
X6918564Y11348758D01*
X6919692Y11346691D01*
X6921383Y11344623D01*
X6923263Y11342743D01*
X6924391Y11342179D01*
X6925518Y11341616D01*
X6926834Y11341240D01*
X6928150Y11341052D01*
X6928526D01*
X6929277Y11341240D01*
X6930593Y11341616D01*
X6932097Y11342555D01*
X6933789Y11343871D01*
X6934728Y11344811D01*
X6935480Y11345939D01*
X6936420Y11347254D01*
X6937360Y11348946D01*
X6938112Y11350638D01*
X6938863Y11352705D01*
Y11352893D01*
X6939051Y11353269D01*
X6939239Y11353833D01*
X6939427Y11354773D01*
X6939803Y11356089D01*
X6940179Y11357592D01*
X6940555Y11359284D01*
X6940931Y11361163D01*
X6941307Y11363419D01*
X6941683Y11365862D01*
X6942059Y11368494D01*
X6942435Y11371313D01*
X6942623Y11374509D01*
X6942811Y11377892D01*
X6942999Y11381463D01*
Y11385222D01*
Y11385410D01*
Y11386162D01*
Y11387290D01*
Y11388794D01*
X6942811Y11390485D01*
Y11392553D01*
X6942623Y11394808D01*
X6942435Y11397252D01*
X6942059Y11402515D01*
X6941307Y11407966D01*
X6940179Y11413228D01*
X6939615Y11415672D01*
X6938863Y11417927D01*
Y11418115D01*
X6938675Y11418491D01*
X6938488Y11419055D01*
X6938112Y11419807D01*
X6937172Y11421687D01*
X6936044Y11423754D01*
X6934352Y11425822D01*
X6932473Y11427701D01*
X6931533Y11428453D01*
X6930217Y11429017D01*
X6929090Y11429393D01*
X6927774Y11429581D01*
D02*
G37*
%LPD*%
D65*
X5087620Y13972540D02*
D03*
X4744720Y13578841D02*
D03*
Y14366240D02*
D03*
X5087620Y13578841D02*
D03*
X4744720Y13972540D02*
D03*
D66*
X7994030Y14251300D02*
D03*
Y14211301D02*
D03*
Y14171300D02*
D03*
X7840330D02*
D03*
Y14211301D02*
D03*
Y14251300D02*
D03*
D67*
X7937180Y14161951D02*
D03*
X7897180D02*
D03*
Y14260651D02*
D03*
X7937180D02*
D03*
D68*
X6664960Y14495779D02*
D03*
Y14152879D02*
D03*
X7937500Y14452600D02*
D03*
X7058660Y14495779D02*
D03*
X8298180Y14213840D02*
D03*
X9245600Y13921741D02*
D03*
X7937500Y13972540D02*
D03*
X7058660Y14152879D02*
D03*
X8851900Y14495779D02*
D03*
X7452360D02*
D03*
X9245600D02*
D03*
X8851900Y13924280D02*
D03*
D69*
X4089400Y14635480D02*
D03*
X9949180D02*
D03*
X4089400Y12857480D02*
D03*
D70*
X5107940Y13088620D02*
D03*
X5844540Y13416280D02*
D03*
D71*
X5305840Y14521181D02*
D03*
X5450840D02*
D03*
X6162040Y14018260D02*
D03*
X6017040D02*
D03*
X6162040Y14269720D02*
D03*
X6017040D02*
D03*
X6162040Y14521181D02*
D03*
X6017040D02*
D03*
X5305840Y14269720D02*
D03*
X5450840D02*
D03*
D72*
X9194800Y14153140D02*
D03*
Y14249139D02*
D03*
X8094980Y14312640D02*
D03*
Y14216640D02*
D03*
D73*
X5169100Y14345920D02*
D03*
X5067100D02*
D03*
X5167720Y14442439D02*
D03*
X5065720D02*
D03*
X5776920Y14439900D02*
D03*
X5878920D02*
D03*
X6297620Y14442439D02*
D03*
X6399620D02*
D03*
X6297620Y13942059D02*
D03*
X6399620D02*
D03*
X5688420Y14439900D02*
D03*
X5586420D02*
D03*
X6300160Y14193520D02*
D03*
X6402160D02*
D03*
D74*
X6003040Y13787120D02*
D03*
X5813040D02*
D03*
X5462520D02*
D03*
X5652520D02*
D03*
D75*
X5732780Y14143739D02*
D03*
Y13953740D02*
D03*
D76*
X8992400Y14258040D02*
D03*
X9042400D02*
D03*
X9092400D02*
D03*
Y14144240D02*
D03*
X9042400D02*
D03*
X8992400D02*
D03*
D77*
X8128000Y13568680D02*
D03*
X7874000D02*
D03*
X7620000D02*
D03*
X7366000D02*
D03*
D78*
X7112000D02*
D03*
D79*
X8128000Y13192760D02*
D03*
X7112000D02*
D03*
X8382000Y13081000D02*
D03*
X6604000Y13192760D02*
D03*
X6858000Y13081000D02*
D03*
X8636000Y13192760D02*
D03*
D80*
X8382000Y13456920D02*
D03*
X6604000Y13568680D02*
D03*
X6858000Y13456920D02*
D03*
X8636000Y13568680D02*
D03*
D81*
X9874250Y13746480D02*
D03*
X4159250D02*
D03*
%TF.MD5,be209650d25f6183986b9d159140caaf*%
M02*
