%TF.GenerationSoftware,Altium Limited,Altium Designer,25.2.1 (25)*%
G04 Layer_Color=128*
%FSLAX45Y45*%
%MOMM*%
%TF.SameCoordinates,982BFCA8-AA29-4240-802F-59D3D38ADE71*%
%TF.FilePolarity,Positive*%
%TF.FileFunction,Paste,Bot*%
%TF.Part,Single*%
G01*
G75*
%TA.AperFunction,SMDPad,CuDef*%
%ADD15C,1.01600*%
G04:AMPARAMS|DCode=18|XSize=0.56mm|YSize=0.62mm|CornerRadius=0.07mm|HoleSize=0mm|Usage=FLASHONLY|Rotation=270.000|XOffset=0mm|YOffset=0mm|HoleType=Round|Shape=RoundedRectangle|*
%AMROUNDEDRECTD18*
21,1,0.56000,0.48000,0,0,270.0*
21,1,0.42000,0.62000,0,0,270.0*
1,1,0.14000,-0.24000,-0.21000*
1,1,0.14000,-0.24000,0.21000*
1,1,0.14000,0.24000,0.21000*
1,1,0.14000,0.24000,-0.21000*
%
%ADD18ROUNDEDRECTD18*%
G04:AMPARAMS|DCode=20|XSize=0.54mm|YSize=0.64mm|CornerRadius=0.0675mm|HoleSize=0mm|Usage=FLASHONLY|Rotation=0.000|XOffset=0mm|YOffset=0mm|HoleType=Round|Shape=RoundedRectangle|*
%AMROUNDEDRECTD20*
21,1,0.54000,0.50500,0,0,0.0*
21,1,0.40500,0.64000,0,0,0.0*
1,1,0.13500,0.20250,-0.25250*
1,1,0.13500,-0.20250,-0.25250*
1,1,0.13500,-0.20250,0.25250*
1,1,0.13500,0.20250,0.25250*
%
%ADD20ROUNDEDRECTD20*%
G04:AMPARAMS|DCode=21|XSize=1mm|YSize=1.45mm|CornerRadius=0.125mm|HoleSize=0mm|Usage=FLASHONLY|Rotation=0.000|XOffset=0mm|YOffset=0mm|HoleType=Round|Shape=RoundedRectangle|*
%AMROUNDEDRECTD21*
21,1,1.00000,1.20000,0,0,0.0*
21,1,0.75000,1.45000,0,0,0.0*
1,1,0.25000,0.37500,-0.60000*
1,1,0.25000,-0.37500,-0.60000*
1,1,0.25000,-0.37500,0.60000*
1,1,0.25000,0.37500,0.60000*
%
%ADD21ROUNDEDRECTD21*%
G04:AMPARAMS|DCode=33|XSize=0.56mm|YSize=0.62mm|CornerRadius=0.07mm|HoleSize=0mm|Usage=FLASHONLY|Rotation=180.000|XOffset=0mm|YOffset=0mm|HoleType=Round|Shape=RoundedRectangle|*
%AMROUNDEDRECTD33*
21,1,0.56000,0.48000,0,0,180.0*
21,1,0.42000,0.62000,0,0,180.0*
1,1,0.14000,-0.21000,0.24000*
1,1,0.14000,0.21000,0.24000*
1,1,0.14000,0.21000,-0.24000*
1,1,0.14000,-0.21000,-0.24000*
%
%ADD33ROUNDEDRECTD33*%
%ADD34R,1.77800X3.81000*%
%ADD35R,0.80000X1.60000*%
G04:AMPARAMS|DCode=36|XSize=0.54mm|YSize=0.64mm|CornerRadius=0.0675mm|HoleSize=0mm|Usage=FLASHONLY|Rotation=270.000|XOffset=0mm|YOffset=0mm|HoleType=Round|Shape=RoundedRectangle|*
%AMROUNDEDRECTD36*
21,1,0.54000,0.50500,0,0,270.0*
21,1,0.40500,0.64000,0,0,270.0*
1,1,0.13500,-0.25250,-0.20250*
1,1,0.13500,-0.25250,0.20250*
1,1,0.13500,0.25250,0.20250*
1,1,0.13500,0.25250,-0.20250*
%
%ADD36ROUNDEDRECTD36*%
G04:AMPARAMS|DCode=38|XSize=0.775mm|YSize=0.4mm|CornerRadius=0.05mm|HoleSize=0mm|Usage=FLASHONLY|Rotation=0.000|XOffset=0mm|YOffset=0mm|HoleType=Round|Shape=RoundedRectangle|*
%AMROUNDEDRECTD38*
21,1,0.77500,0.30000,0,0,0.0*
21,1,0.67500,0.40000,0,0,0.0*
1,1,0.10000,0.33750,-0.15000*
1,1,0.10000,-0.33750,-0.15000*
1,1,0.10000,-0.33750,0.15000*
1,1,0.10000,0.33750,0.15000*
%
%ADD38ROUNDEDRECTD38*%
G04:AMPARAMS|DCode=39|XSize=0.889mm|YSize=0.762mm|CornerRadius=0.06477mm|HoleSize=0mm|Usage=FLASHONLY|Rotation=0.000|XOffset=0mm|YOffset=0mm|HoleType=Round|Shape=RoundedRectangle|*
%AMROUNDEDRECTD39*
21,1,0.88900,0.63246,0,0,0.0*
21,1,0.75946,0.76200,0,0,0.0*
1,1,0.12954,0.37973,-0.31623*
1,1,0.12954,-0.37973,-0.31623*
1,1,0.12954,-0.37973,0.31623*
1,1,0.12954,0.37973,0.31623*
%
%ADD39ROUNDEDRECTD39*%
G04:AMPARAMS|DCode=40|XSize=0.889mm|YSize=0.762mm|CornerRadius=0.08001mm|HoleSize=0mm|Usage=FLASHONLY|Rotation=0.000|XOffset=0mm|YOffset=0mm|HoleType=Round|Shape=RoundedRectangle|*
%AMROUNDEDRECTD40*
21,1,0.88900,0.60198,0,0,0.0*
21,1,0.72898,0.76200,0,0,0.0*
1,1,0.16002,0.36449,-0.30099*
1,1,0.16002,-0.36449,-0.30099*
1,1,0.16002,-0.36449,0.30099*
1,1,0.16002,0.36449,0.30099*
%
%ADD40ROUNDEDRECTD40*%
G04:AMPARAMS|DCode=41|XSize=0.889mm|YSize=1.143mm|CornerRadius=0.07556mm|HoleSize=0mm|Usage=FLASHONLY|Rotation=0.000|XOffset=0mm|YOffset=0mm|HoleType=Round|Shape=RoundedRectangle|*
%AMROUNDEDRECTD41*
21,1,0.88900,0.99187,0,0,0.0*
21,1,0.73787,1.14300,0,0,0.0*
1,1,0.15113,0.36894,-0.49593*
1,1,0.15113,-0.36894,-0.49593*
1,1,0.15113,-0.36894,0.49593*
1,1,0.15113,0.36894,0.49593*
%
%ADD41ROUNDEDRECTD41*%
G04:AMPARAMS|DCode=42|XSize=1.475mm|YSize=0.6mm|CornerRadius=0.075mm|HoleSize=0mm|Usage=FLASHONLY|Rotation=180.000|XOffset=0mm|YOffset=0mm|HoleType=Round|Shape=RoundedRectangle|*
%AMROUNDEDRECTD42*
21,1,1.47500,0.45000,0,0,180.0*
21,1,1.32500,0.60000,0,0,180.0*
1,1,0.15000,-0.66250,0.22500*
1,1,0.15000,0.66250,0.22500*
1,1,0.15000,0.66250,-0.22500*
1,1,0.15000,-0.66250,-0.22500*
%
%ADD42ROUNDEDRECTD42*%
%ADD43R,0.70000X0.40000*%
%ADD44R,0.25000X0.40000*%
%ADD45R,0.98000X3.40000*%
%ADD46R,1.65000X0.95000*%
%ADD47R,0.35000X0.48000*%
%ADD48R,1.12000X1.72000*%
%ADD49R,0.45000X0.40000*%
%ADD50R,1.30000X1.40000*%
G04:AMPARAMS|DCode=51|XSize=0.3mm|YSize=0.2mm|CornerRadius=0.025mm|HoleSize=0mm|Usage=FLASHONLY|Rotation=0.000|XOffset=0mm|YOffset=0mm|HoleType=Round|Shape=RoundedRectangle|*
%AMROUNDEDRECTD51*
21,1,0.30000,0.15000,0,0,0.0*
21,1,0.25000,0.20000,0,0,0.0*
1,1,0.05000,0.12500,-0.07500*
1,1,0.05000,-0.12500,-0.07500*
1,1,0.05000,-0.12500,0.07500*
1,1,0.05000,0.12500,0.07500*
%
%ADD51ROUNDEDRECTD51*%
G04:AMPARAMS|DCode=52|XSize=0.35mm|YSize=0.2mm|CornerRadius=0.025mm|HoleSize=0mm|Usage=FLASHONLY|Rotation=0.000|XOffset=0mm|YOffset=0mm|HoleType=Round|Shape=RoundedRectangle|*
%AMROUNDEDRECTD52*
21,1,0.35000,0.15000,0,0,0.0*
21,1,0.30000,0.20000,0,0,0.0*
1,1,0.05000,0.15000,-0.07500*
1,1,0.05000,-0.15000,-0.07500*
1,1,0.05000,-0.15000,0.07500*
1,1,0.05000,0.15000,0.07500*
%
%ADD52ROUNDEDRECTD52*%
%ADD53R,0.10000X0.10000*%
%ADD54R,0.70000X0.42000*%
G04:AMPARAMS|DCode=55|XSize=0.3mm|YSize=1.075mm|CornerRadius=0.0375mm|HoleSize=0mm|Usage=FLASHONLY|Rotation=180.000|XOffset=0mm|YOffset=0mm|HoleType=Round|Shape=RoundedRectangle|*
%AMROUNDEDRECTD55*
21,1,0.30000,1.00000,0,0,180.0*
21,1,0.22500,1.07500,0,0,180.0*
1,1,0.07500,-0.11250,0.50000*
1,1,0.07500,0.11250,0.50000*
1,1,0.07500,0.11250,-0.50000*
1,1,0.07500,-0.11250,-0.50000*
%
%ADD55ROUNDEDRECTD55*%
%ADD56R,0.30000X0.50000*%
G04:AMPARAMS|DCode=57|XSize=0.925mm|YSize=0.35mm|CornerRadius=0.03675mm|HoleSize=0mm|Usage=FLASHONLY|Rotation=0.000|XOffset=0mm|YOffset=0mm|HoleType=Round|Shape=RoundedRectangle|*
%AMROUNDEDRECTD57*
21,1,0.92500,0.27650,0,0,0.0*
21,1,0.85150,0.35000,0,0,0.0*
1,1,0.07350,0.42575,-0.13825*
1,1,0.07350,-0.42575,-0.13825*
1,1,0.07350,-0.42575,0.13825*
1,1,0.07350,0.42575,0.13825*
%
%ADD57ROUNDEDRECTD57*%
G04:AMPARAMS|DCode=58|XSize=1.525mm|YSize=0.3mm|CornerRadius=0.0315mm|HoleSize=0mm|Usage=FLASHONLY|Rotation=0.000|XOffset=0mm|YOffset=0mm|HoleType=Round|Shape=RoundedRectangle|*
%AMROUNDEDRECTD58*
21,1,1.52500,0.23700,0,0,0.0*
21,1,1.46200,0.30000,0,0,0.0*
1,1,0.06300,0.73100,-0.11850*
1,1,0.06300,-0.73100,-0.11850*
1,1,0.06300,-0.73100,0.11850*
1,1,0.06300,0.73100,0.11850*
%
%ADD58ROUNDEDRECTD58*%
%ADD59R,0.50000X0.55000*%
G04:AMPARAMS|DCode=60|XSize=1.125mm|YSize=0.4mm|CornerRadius=0.042mm|HoleSize=0mm|Usage=FLASHONLY|Rotation=0.000|XOffset=0mm|YOffset=0mm|HoleType=Round|Shape=RoundedRectangle|*
%AMROUNDEDRECTD60*
21,1,1.12500,0.31600,0,0,0.0*
21,1,1.04100,0.40000,0,0,0.0*
1,1,0.08400,0.52050,-0.15800*
1,1,0.08400,-0.52050,-0.15800*
1,1,0.08400,-0.52050,0.15800*
1,1,0.08400,0.52050,0.15800*
%
%ADD60ROUNDEDRECTD60*%
%ADD61R,0.62000X0.45000*%
%ADD62R,0.35000X0.62500*%
%TA.AperFunction,NonConductor*%
%ADD82C,0.00100*%
%TA.AperFunction,OtherPad,Pad U4-Un4 (86.907mm,143.307mm)*%
G04:AMPARAMS|DCode=114|XSize=0.6mm|YSize=0.93mm|CornerRadius=0.075mm|HoleSize=0mm|Usage=FLASHONLY|Rotation=0.000|XOffset=0mm|YOffset=0mm|HoleType=Round|Shape=RoundedRectangle|*
%AMROUNDEDRECTD114*
21,1,0.60000,0.78000,0,0,0.0*
21,1,0.45000,0.93000,0,0,0.0*
1,1,0.15000,0.22500,-0.39000*
1,1,0.15000,-0.22500,-0.39000*
1,1,0.15000,-0.22500,0.39000*
1,1,0.15000,0.22500,0.39000*
%
%ADD114ROUNDEDRECTD114*%
%TA.AperFunction,OtherPad,Pad U4-Un3 (86.907mm,144.457mm)*%
G04:AMPARAMS|DCode=115|XSize=0.6mm|YSize=0.93mm|CornerRadius=0.075mm|HoleSize=0mm|Usage=FLASHONLY|Rotation=0.000|XOffset=0mm|YOffset=0mm|HoleType=Round|Shape=RoundedRectangle|*
%AMROUNDEDRECTD115*
21,1,0.60000,0.78000,0,0,0.0*
21,1,0.45000,0.93000,0,0,0.0*
1,1,0.15000,0.22500,-0.39000*
1,1,0.15000,-0.22500,-0.39000*
1,1,0.15000,-0.22500,0.39000*
1,1,0.15000,0.22500,0.39000*
%
%ADD115ROUNDEDRECTD115*%
%TA.AperFunction,OtherPad,Pad U4-Un2 (86.157mm,143.307mm)*%
G04:AMPARAMS|DCode=116|XSize=0.6mm|YSize=0.93mm|CornerRadius=0.075mm|HoleSize=0mm|Usage=FLASHONLY|Rotation=0.000|XOffset=0mm|YOffset=0mm|HoleType=Round|Shape=RoundedRectangle|*
%AMROUNDEDRECTD116*
21,1,0.60000,0.78000,0,0,0.0*
21,1,0.45000,0.93000,0,0,0.0*
1,1,0.15000,0.22500,-0.39000*
1,1,0.15000,-0.22500,-0.39000*
1,1,0.15000,-0.22500,0.39000*
1,1,0.15000,0.22500,0.39000*
%
%ADD116ROUNDEDRECTD116*%
%TA.AperFunction,OtherPad,Pad U4-Un1 (86.157mm,144.457mm)*%
G04:AMPARAMS|DCode=117|XSize=0.6mm|YSize=0.93mm|CornerRadius=0.075mm|HoleSize=0mm|Usage=FLASHONLY|Rotation=0.000|XOffset=0mm|YOffset=0mm|HoleType=Round|Shape=RoundedRectangle|*
%AMROUNDEDRECTD117*
21,1,0.60000,0.78000,0,0,0.0*
21,1,0.45000,0.93000,0,0,0.0*
1,1,0.15000,0.22500,-0.39000*
1,1,0.15000,-0.22500,-0.39000*
1,1,0.15000,-0.22500,0.39000*
1,1,0.15000,0.22500,0.39000*
%
%ADD117ROUNDEDRECTD117*%
G36*
X5847780Y14465849D02*
X5817780D01*
Y14515849D01*
X5847780D01*
Y14465849D01*
D02*
G37*
G36*
X5647780D02*
X5617780D01*
Y14515849D01*
X5647780D01*
Y14465849D01*
D02*
G37*
G36*
X5847780Y14417950D02*
X5835380Y14408350D01*
X5825280D01*
X5817780Y14415840D01*
Y14437100D01*
X5847780D01*
Y14417950D01*
D02*
G37*
G36*
X5647780Y14415840D02*
X5640280Y14408350D01*
X5630180D01*
X5617780Y14417950D01*
Y14437100D01*
X5647780D01*
Y14415840D01*
D02*
G37*
G36*
X6002280Y14437801D02*
X6049780D01*
Y14393600D01*
X5971030D01*
X5967280Y14397350D01*
Y14516100D01*
X6002280D01*
Y14437801D01*
D02*
G37*
G36*
X5498280Y14397350D02*
X5494530Y14393600D01*
X5415780D01*
Y14437801D01*
X5463280D01*
Y14516100D01*
X5498280D01*
Y14397350D01*
D02*
G37*
G36*
X6050280Y14227100D02*
Y14207100D01*
X5940280D01*
Y14227100D01*
X5906530D01*
X5902780Y14230850D01*
Y14258600D01*
X5906530Y14262100D01*
X6050280D01*
Y14227100D01*
D02*
G37*
G36*
X5562780Y14258600D02*
Y14230850D01*
X5559030Y14227100D01*
X5525280D01*
Y14207100D01*
X5415280D01*
Y14227100D01*
Y14262100D01*
X5559030D01*
X5562780Y14258600D01*
D02*
G37*
G36*
X6050280Y14082100D02*
X5990780D01*
X5988280Y14079601D01*
Y14007100D01*
X5948280D01*
Y14062100D01*
X5945780Y14064600D01*
X5914780D01*
X5912280Y14062100D01*
Y14007100D01*
X5871280D01*
Y14124600D01*
X5873780Y14127100D01*
X6050280D01*
Y14082100D01*
D02*
G37*
G36*
X5767280Y14157100D02*
Y14070850D01*
X5768530Y14069600D01*
X5777780D01*
Y14007100D01*
X5742780D01*
Y14157100D01*
X5745280Y14159599D01*
X5764780D01*
X5767280Y14157100D01*
D02*
G37*
G36*
X5722780D02*
Y14007100D01*
X5687780D01*
Y14069600D01*
X5697030D01*
X5698280Y14070850D01*
Y14157100D01*
X5700780Y14159599D01*
X5720280D01*
X5722780Y14157100D01*
D02*
G37*
G36*
X5594280Y14124600D02*
Y14007100D01*
X5553280D01*
Y14062100D01*
X5550780Y14064600D01*
X5519780D01*
X5517280Y14062100D01*
Y14007100D01*
X5477280D01*
Y14079601D01*
X5474780Y14082100D01*
X5415280D01*
Y14127100D01*
X5591780D01*
X5594280Y14124600D01*
D02*
G37*
G36*
X6120760Y13277460D02*
X5905760D01*
Y13319460D01*
X5950760D01*
Y13342461D01*
X5905760D01*
Y13384460D01*
X5950760D01*
Y13407460D01*
X5905760D01*
Y13449460D01*
X5950760D01*
Y13472459D01*
X5905760D01*
Y13514461D01*
X6120760D01*
Y13277460D01*
D02*
G37*
G36*
X7245332Y11442926D02*
X7246836Y11442738D01*
X7248715Y11442362D01*
X7250783Y11441798D01*
X7253039Y11441046D01*
X7255482Y11440107D01*
Y11426574D01*
X7255294Y11426761D01*
X7254542Y11427137D01*
X7253414Y11427701D01*
X7251911Y11428265D01*
X7250407Y11428829D01*
X7248528Y11429393D01*
X7246836Y11429769D01*
X7245144Y11429957D01*
X7244204D01*
X7243453Y11429769D01*
X7241761Y11429393D01*
X7239693Y11428641D01*
X7237626Y11427325D01*
X7236686Y11426386D01*
X7235934Y11425446D01*
X7235182Y11424130D01*
X7234806Y11422626D01*
X7234431Y11420935D01*
X7234243Y11419055D01*
Y11418867D01*
Y11418303D01*
X7234431Y11417551D01*
Y11416424D01*
X7234618Y11414920D01*
X7234994Y11413416D01*
X7235370Y11411537D01*
X7235934Y11409469D01*
X7236122Y11409281D01*
X7236310Y11408341D01*
X7236874Y11407026D01*
X7237814Y11404958D01*
X7239130Y11402139D01*
X7239881Y11400447D01*
X7240821Y11398755D01*
X7241949Y11396688D01*
X7243077Y11394432D01*
X7244392Y11391989D01*
X7245708Y11389357D01*
X7245896Y11389169D01*
X7246084Y11388794D01*
X7246460Y11388042D01*
X7247024Y11386914D01*
X7247588Y11385786D01*
X7248340Y11384283D01*
X7250031Y11381087D01*
X7251911Y11377516D01*
X7253602Y11373757D01*
X7255106Y11370186D01*
X7256234Y11366990D01*
X7256422Y11366614D01*
X7256610Y11365675D01*
X7256986Y11364171D01*
X7257550Y11362479D01*
X7257926Y11360224D01*
X7258301Y11357968D01*
X7258489Y11355525D01*
X7258677Y11353269D01*
Y11353081D01*
Y11352705D01*
Y11352141D01*
X7258489Y11351390D01*
X7258301Y11349322D01*
X7257926Y11346691D01*
X7256986Y11343683D01*
X7255858Y11340676D01*
X7254354Y11337481D01*
X7252099Y11334661D01*
X7251723Y11334285D01*
X7250971Y11333533D01*
X7249467Y11332406D01*
X7247588Y11331090D01*
X7245144Y11329774D01*
X7242325Y11328646D01*
X7239130Y11327895D01*
X7235370Y11327519D01*
X7234055D01*
X7232551Y11327707D01*
X7230859Y11328082D01*
X7228604Y11328646D01*
X7226160Y11329398D01*
X7223717Y11330338D01*
X7221085Y11331842D01*
Y11346878D01*
X7221461Y11346691D01*
X7222213Y11345939D01*
X7223529Y11344999D01*
X7225033Y11343871D01*
X7226912Y11342555D01*
X7229168Y11341616D01*
X7231423Y11340864D01*
X7233679Y11340676D01*
X7234431D01*
X7235370Y11340864D01*
X7236310Y11341052D01*
X7237626Y11341428D01*
X7238754Y11341992D01*
X7240069Y11342743D01*
X7241385Y11343683D01*
X7241573Y11343871D01*
X7241949Y11344247D01*
X7242513Y11344999D01*
X7243077Y11345939D01*
X7243641Y11347066D01*
X7244204Y11348382D01*
X7244580Y11349698D01*
X7244768Y11351390D01*
Y11351578D01*
Y11352141D01*
Y11352893D01*
X7244580Y11354021D01*
X7244392Y11355337D01*
X7244017Y11357028D01*
X7243453Y11358908D01*
X7242889Y11360788D01*
Y11360976D01*
X7242513Y11361915D01*
X7241949Y11363419D01*
X7241009Y11365487D01*
X7239693Y11368306D01*
X7238754Y11369998D01*
X7237814Y11371877D01*
X7236874Y11373945D01*
X7235746Y11376200D01*
X7234431Y11378644D01*
X7232927Y11381275D01*
Y11381463D01*
X7232551Y11382027D01*
X7232175Y11382779D01*
X7231611Y11383719D01*
X7231047Y11385034D01*
X7230295Y11386350D01*
X7228604Y11389733D01*
X7226912Y11393305D01*
X7225220Y11397064D01*
X7223717Y11400447D01*
X7222589Y11403642D01*
Y11404018D01*
X7222213Y11404958D01*
X7221837Y11406462D01*
X7221461Y11408153D01*
X7221085Y11410409D01*
X7220709Y11412664D01*
X7220521Y11414920D01*
X7220334Y11417176D01*
Y11417363D01*
Y11417739D01*
Y11418303D01*
X7220521Y11419055D01*
X7220709Y11421123D01*
X7221085Y11423754D01*
X7221837Y11426761D01*
X7222965Y11429957D01*
X7224657Y11432964D01*
X7226724Y11435784D01*
X7227100Y11436159D01*
X7227852Y11436911D01*
X7229356Y11438039D01*
X7231235Y11439543D01*
X7233491Y11440858D01*
X7236498Y11441986D01*
X7239693Y11442738D01*
X7243265Y11443114D01*
X7244204D01*
X7245332Y11442926D01*
D02*
G37*
G36*
X6959257Y11442738D02*
X6961137Y11442362D01*
X6963580Y11441610D01*
X6966212Y11440671D01*
X6969031Y11439167D01*
X6972226Y11437099D01*
Y11422626D01*
X6971850Y11423002D01*
X6970911Y11423754D01*
X6969595Y11424882D01*
X6967715Y11426198D01*
X6965460Y11427325D01*
X6963016Y11428453D01*
X6960385Y11429205D01*
X6957565Y11429581D01*
X6957190D01*
X6956250Y11429393D01*
X6954558Y11429017D01*
X6952679Y11428265D01*
X6950611Y11427137D01*
X6948543Y11425258D01*
X6947604Y11424130D01*
X6946664Y11422626D01*
X6945724Y11421123D01*
X6944972Y11419243D01*
Y11419055D01*
X6944784Y11418679D01*
X6944596Y11418115D01*
X6944408Y11417363D01*
X6944032Y11416236D01*
X6943844Y11414732D01*
X6943468Y11413040D01*
X6943093Y11411161D01*
X6942717Y11408905D01*
X6942341Y11406462D01*
X6942153Y11403642D01*
X6941777Y11400635D01*
X6941589Y11397252D01*
X6941401Y11393493D01*
X6941213Y11389545D01*
Y11385222D01*
Y11385034D01*
Y11384283D01*
Y11382967D01*
Y11381463D01*
X6941401Y11379396D01*
Y11377328D01*
X6941589Y11374885D01*
X6941777Y11372253D01*
X6942153Y11366614D01*
X6942905Y11360976D01*
X6943280Y11358344D01*
X6943844Y11355901D01*
X6944408Y11353457D01*
X6945160Y11351390D01*
Y11351202D01*
X6945348Y11351014D01*
X6945912Y11349698D01*
X6946852Y11348194D01*
X6948355Y11346315D01*
X6950047Y11344247D01*
X6952303Y11342743D01*
X6954934Y11341428D01*
X6956438Y11341240D01*
X6958129Y11341052D01*
X6958505D01*
X6959257Y11341240D01*
X6960573Y11341428D01*
X6962452Y11341992D01*
X6964708Y11343119D01*
X6967339Y11344435D01*
X6970159Y11346503D01*
X6971850Y11347630D01*
X6973542Y11349134D01*
Y11333721D01*
X6973166Y11333533D01*
X6972038Y11332781D01*
X6970535Y11331842D01*
X6968279Y11330714D01*
X6965648Y11329398D01*
X6962828Y11328458D01*
X6959633Y11327707D01*
X6956250Y11327519D01*
X6955686D01*
X6954934Y11327707D01*
X6953806D01*
X6952679Y11327895D01*
X6951175Y11328270D01*
X6947979Y11329398D01*
X6946288Y11330150D01*
X6944408Y11331090D01*
X6942529Y11332218D01*
X6940649Y11333721D01*
X6938957Y11335413D01*
X6937078Y11337293D01*
X6935386Y11339548D01*
X6933882Y11342179D01*
Y11342367D01*
X6933507Y11342931D01*
X6933131Y11343683D01*
X6932567Y11344999D01*
X6932003Y11346503D01*
X6931439Y11348382D01*
X6930687Y11350450D01*
X6929935Y11353081D01*
X6929183Y11355901D01*
X6928432Y11359096D01*
X6927868Y11362479D01*
X6927304Y11366426D01*
X6926740Y11370561D01*
X6926364Y11374885D01*
X6926176Y11379584D01*
X6925988Y11384658D01*
Y11385034D01*
Y11385786D01*
Y11387290D01*
X6926176Y11389169D01*
Y11391425D01*
X6926364Y11394244D01*
X6926740Y11397064D01*
X6926928Y11400259D01*
X6927868Y11407214D01*
X6929371Y11414356D01*
X6931251Y11421311D01*
X6932567Y11424506D01*
X6933882Y11427513D01*
X6934070Y11427701D01*
X6934258Y11428265D01*
X6934634Y11429017D01*
X6935386Y11429957D01*
X6937078Y11432400D01*
X6939709Y11435408D01*
X6942905Y11438227D01*
X6946852Y11440671D01*
X6949107Y11441610D01*
X6951363Y11442362D01*
X6953994Y11442926D01*
X6956626Y11443114D01*
X6957941D01*
X6959257Y11442738D01*
D02*
G37*
G36*
X7365815Y11428077D02*
X7340252D01*
Y11394432D01*
X7363747D01*
Y11380899D01*
X7340252D01*
Y11342555D01*
X7367318D01*
Y11329022D01*
X7325779D01*
Y11441610D01*
X7365815D01*
Y11428077D01*
D02*
G37*
G36*
X7313750D02*
X7296457D01*
Y11329022D01*
X7281984D01*
Y11428077D01*
X7264692D01*
Y11441610D01*
X7313750D01*
Y11428077D01*
D02*
G37*
G36*
X7214507Y11329022D02*
X7200410D01*
X7196275Y11354021D01*
X7175411D01*
X7170900Y11329022D01*
X7156991D01*
X7178230Y11442362D01*
X7193267D01*
X7214507Y11329022D01*
D02*
G37*
G36*
X7121091Y11441422D02*
X7122406D01*
X7123910Y11441234D01*
X7127293Y11440483D01*
X7131240Y11439543D01*
X7135376Y11438039D01*
X7139323Y11435972D01*
X7141202Y11434656D01*
X7143082Y11433152D01*
X7143270D01*
X7143458Y11432776D01*
X7144586Y11431648D01*
X7146089Y11429769D01*
X7147781Y11427137D01*
X7149473Y11423942D01*
X7150788Y11419995D01*
X7151916Y11415484D01*
X7152104Y11413040D01*
X7152292Y11410409D01*
Y11410221D01*
Y11409845D01*
Y11408905D01*
X7152104Y11407966D01*
Y11406650D01*
X7151916Y11405334D01*
X7151164Y11401951D01*
X7150224Y11398192D01*
X7148721Y11394244D01*
X7146653Y11390485D01*
X7145337Y11388606D01*
X7143834Y11386914D01*
X7143458Y11386538D01*
X7142894Y11386162D01*
X7142330Y11385598D01*
X7140451Y11384283D01*
X7137819Y11382779D01*
X7134436Y11381087D01*
X7130489Y11379771D01*
X7125978Y11378832D01*
X7123346Y11378644D01*
X7120715Y11378456D01*
X7117707D01*
Y11329022D01*
X7103234D01*
Y11441610D01*
X7119963D01*
X7121091Y11441422D01*
D02*
G37*
G36*
X7014705Y11387854D02*
X7037073Y11329022D01*
X7021848D01*
X7001736Y11385974D01*
X7017713Y11441610D01*
X7032749D01*
X7014705Y11387854D01*
D02*
G37*
G36*
X7001172Y11329022D02*
X6986699D01*
Y11441610D01*
X7001172D01*
Y11329022D01*
D02*
G37*
G36*
X6919410D02*
X6905313D01*
X6901177Y11354021D01*
X6880314D01*
X6875803Y11329022D01*
X6861894D01*
X6883133Y11442362D01*
X6898170D01*
X6919410Y11329022D01*
D02*
G37*
G36*
X6825054Y11441422D02*
X6826181D01*
X6827497Y11441234D01*
X6830504Y11440671D01*
X6833888Y11439543D01*
X6837271Y11438039D01*
X6840842Y11436159D01*
X6842534Y11434844D01*
X6844226Y11433340D01*
X6844414D01*
X6844602Y11432964D01*
X6845541Y11431836D01*
X6846857Y11430145D01*
X6848549Y11427701D01*
X6850052Y11424882D01*
X6851368Y11421499D01*
X6852308Y11417739D01*
X6852684Y11415672D01*
Y11413604D01*
Y11413416D01*
Y11412852D01*
Y11412101D01*
X6852496Y11411161D01*
X6852308Y11409845D01*
X6851932Y11408341D01*
X6850804Y11404958D01*
X6850052Y11402891D01*
X6849113Y11401011D01*
X6847985Y11398943D01*
X6846481Y11396876D01*
X6844789Y11394996D01*
X6842910Y11392929D01*
X6840654Y11391049D01*
X6838023Y11389357D01*
X6838211D01*
X6838775Y11388982D01*
X6839715Y11388418D01*
X6840654Y11387854D01*
X6841970Y11386914D01*
X6843474Y11385786D01*
X6844977Y11384471D01*
X6846669Y11382779D01*
X6848361Y11381087D01*
X6849864Y11379020D01*
X6851368Y11376764D01*
X6852684Y11374133D01*
X6853812Y11371313D01*
X6854563Y11368306D01*
X6855127Y11364923D01*
X6855315Y11361351D01*
Y11361163D01*
Y11360788D01*
Y11360036D01*
X6855127Y11358908D01*
Y11357780D01*
X6854751Y11356276D01*
X6854187Y11353081D01*
X6853060Y11349322D01*
X6851368Y11345563D01*
X6850240Y11343495D01*
X6849113Y11341616D01*
X6847609Y11339736D01*
X6845917Y11338044D01*
X6845729Y11337856D01*
X6845541Y11337668D01*
X6844977Y11337293D01*
X6844226Y11336729D01*
X6843286Y11335977D01*
X6841970Y11335225D01*
X6840654Y11334473D01*
X6839151Y11333533D01*
X6837271Y11332781D01*
X6835391Y11331842D01*
X6833136Y11331090D01*
X6830692Y11330526D01*
X6828249Y11329774D01*
X6825430Y11329398D01*
X6822610Y11329210D01*
X6819415Y11329022D01*
X6805882D01*
Y11441610D01*
X6824302D01*
X6825054Y11441422D01*
D02*
G37*
%LPC*%
G36*
X7185749Y11414544D02*
X7185373D01*
X7177479Y11367554D01*
X7193643D01*
X7185749Y11414544D01*
D02*
G37*
G36*
X7117707Y11428077D02*
Y11391989D01*
X7120903D01*
X7121842Y11392177D01*
X7122970Y11392365D01*
X7124286Y11392553D01*
X7125790Y11392929D01*
X7127293Y11393681D01*
X7128985Y11394432D01*
X7130677Y11395372D01*
X7132180Y11396688D01*
X7133684Y11398192D01*
X7135000Y11400071D01*
X7136127Y11402327D01*
X7137067Y11404770D01*
X7137631Y11407778D01*
X7137819Y11411161D01*
Y11411349D01*
Y11411913D01*
X7137631Y11412852D01*
X7137443Y11413792D01*
X7137255Y11415108D01*
X7136691Y11416612D01*
X7136127Y11418115D01*
X7135376Y11419807D01*
X7134248Y11421311D01*
X7132932Y11422814D01*
X7131240Y11424318D01*
X7129361Y11425634D01*
X7127105Y11426574D01*
X7124286Y11427513D01*
X7121279Y11427889D01*
X7117707Y11428077D01*
D02*
G37*
G36*
X6890652Y11414544D02*
X6890276D01*
X6882381Y11367554D01*
X6898546D01*
X6890652Y11414544D01*
D02*
G37*
G36*
X6821670Y11428077D02*
X6820355D01*
Y11393868D01*
X6822986D01*
X6824302Y11394056D01*
X6825993Y11394432D01*
X6827873Y11394996D01*
X6829941Y11395936D01*
X6831820Y11397064D01*
X6833700Y11398568D01*
X6833888Y11398755D01*
X6834452Y11399507D01*
X6835204Y11400447D01*
X6835955Y11401951D01*
X6836707Y11403830D01*
X6837459Y11405898D01*
X6838023Y11408529D01*
X6838211Y11411349D01*
Y11411725D01*
Y11412664D01*
X6838023Y11414168D01*
X6837647Y11415860D01*
X6837083Y11417739D01*
X6836331Y11419807D01*
X6835391Y11421875D01*
X6833888Y11423566D01*
X6833700Y11423754D01*
X6833136Y11424318D01*
X6832196Y11425070D01*
X6830692Y11425822D01*
X6829001Y11426574D01*
X6826933Y11427325D01*
X6824490Y11427889D01*
X6821670Y11428077D01*
D02*
G37*
G36*
X6822798Y11380335D02*
X6820355D01*
Y11342555D01*
X6824114D01*
X6825805Y11342743D01*
X6827685Y11343119D01*
X6829753Y11343683D01*
X6832008Y11344623D01*
X6834076Y11345751D01*
X6835955Y11347254D01*
X6836143Y11347442D01*
X6836707Y11348194D01*
X6837459Y11349322D01*
X6838399Y11350826D01*
X6839339Y11352705D01*
X6840090Y11355149D01*
X6840654Y11357780D01*
X6840842Y11360976D01*
Y11361163D01*
Y11361351D01*
Y11362479D01*
X6840654Y11363983D01*
X6840278Y11365862D01*
X6839715Y11368118D01*
X6838775Y11370373D01*
X6837647Y11372817D01*
X6836143Y11374885D01*
X6835955Y11375073D01*
X6835204Y11375824D01*
X6834264Y11376576D01*
X6832760Y11377704D01*
X6830880Y11378644D01*
X6828625Y11379584D01*
X6825805Y11380147D01*
X6822798Y11380335D01*
D02*
G37*
%LPD*%
D15*
X9949180Y14635480D02*
D03*
X4089400Y12857480D02*
D03*
Y14635480D02*
D03*
D18*
X4937760Y13601360D02*
D03*
Y13505360D02*
D03*
X5336540Y14312640D02*
D03*
Y14216640D02*
D03*
X5034280Y13601360D02*
D03*
Y13505360D02*
D03*
X6129020Y14315179D02*
D03*
Y14219180D02*
D03*
D20*
X6128820Y13081000D02*
D03*
X6230820D02*
D03*
X5486600Y14592300D02*
D03*
X5384600D02*
D03*
X6197800D02*
D03*
X6095800D02*
D03*
X6199940Y12890500D02*
D03*
X6301940D02*
D03*
D21*
X6879340Y14320520D02*
D03*
X6689340D02*
D03*
X6003040Y13787120D02*
D03*
X5813040D02*
D03*
X4591300Y14320520D02*
D03*
X4781300D02*
D03*
X4591300Y14122400D02*
D03*
X4781300D02*
D03*
X6879340Y14518640D02*
D03*
X6689340D02*
D03*
X4591300D02*
D03*
X4781300D02*
D03*
X6879340Y14122400D02*
D03*
X6689340D02*
D03*
X5200900Y13350240D02*
D03*
X5390900D02*
D03*
X5462520Y13787120D02*
D03*
X5652520D02*
D03*
D33*
X6202940Y13911580D02*
D03*
X6298940D02*
D03*
X5946400Y14688820D02*
D03*
X6042400D02*
D03*
X4826260Y13936980D02*
D03*
X4922260D02*
D03*
X5671560Y14688820D02*
D03*
X5575560D02*
D03*
X5679700Y14594839D02*
D03*
X5775700D02*
D03*
X8320780Y13921741D02*
D03*
X8224780D02*
D03*
X5760980Y14688820D02*
D03*
X5856980D02*
D03*
X5877300Y13931900D02*
D03*
X5781300D02*
D03*
X5588260D02*
D03*
X5684260D02*
D03*
D34*
X5326380Y12999719D02*
D03*
X4711700D02*
D03*
D35*
X8405360Y14091000D02*
D03*
X8225360D02*
D03*
D36*
X8386480Y14286380D02*
D03*
Y14388380D02*
D03*
X4579620Y13850819D02*
D03*
Y13748820D02*
D03*
D38*
X8801930Y14293179D02*
D03*
Y14388181D02*
D03*
Y14483180D02*
D03*
X8504430D02*
D03*
Y14388181D02*
D03*
Y14293179D02*
D03*
D39*
X4831080Y13436600D02*
D03*
Y13629640D02*
D03*
D40*
X4577080D02*
D03*
D41*
Y13455650D02*
D03*
D42*
X5545050Y12956540D02*
D03*
X5732550Y12861540D02*
D03*
Y13051540D02*
D03*
D43*
X7241540Y13695120D02*
D03*
D44*
X7219040Y13625121D02*
D03*
X7264040D02*
D03*
D45*
X6519300Y14234160D02*
D03*
X6282300D02*
D03*
X4951340D02*
D03*
X5188340D02*
D03*
D46*
X6215380Y13726160D02*
D03*
D47*
X6280380Y13817160D02*
D03*
X6215380D02*
D03*
X6150380D02*
D03*
Y13635159D02*
D03*
X6215380D02*
D03*
X6280380D02*
D03*
D48*
X5214620Y13550819D02*
D03*
D49*
X5307120Y13485820D02*
D03*
Y13550819D02*
D03*
Y13615820D02*
D03*
X5122120D02*
D03*
Y13550819D02*
D03*
Y13485820D02*
D03*
D50*
X6878380Y13804900D02*
D03*
X6588380D02*
D03*
X8422860Y13769341D02*
D03*
X8132860D02*
D03*
D51*
X4909340Y13749820D02*
D03*
Y13799820D02*
D03*
Y13849820D02*
D03*
X4849340D02*
D03*
Y13799820D02*
D03*
D52*
X4851840Y13749820D02*
D03*
D53*
X6080760Y13395959D02*
D03*
D54*
X6220760Y13298460D02*
D03*
Y13363460D02*
D03*
Y13428461D02*
D03*
Y13493460D02*
D03*
D55*
X5932780Y14462100D02*
D03*
X5882780D02*
D03*
X5782780D02*
D03*
X5732780D02*
D03*
X5682780D02*
D03*
X5582780D02*
D03*
X5532780D02*
D03*
D56*
X5832780D02*
D03*
X5632780D02*
D03*
D57*
X5461530Y14352100D02*
D03*
X6004030D02*
D03*
D58*
X5491530Y14297099D02*
D03*
X5974030D02*
D03*
D59*
X5489030Y14234599D02*
D03*
X5976530D02*
D03*
D60*
X5471530Y14167101D02*
D03*
X5994030D02*
D03*
D61*
X5446280Y14104601D02*
D03*
X6019280D02*
D03*
D62*
X5705280Y14038350D02*
D03*
X5760280D02*
D03*
D82*
X5832780Y14415849D02*
G03*
X5832780Y14415849I-7500J0D01*
G01*
X5647780D02*
G03*
X5647780Y14415849I-7500J0D01*
G01*
D114*
X8690680Y14330679D02*
D03*
D115*
Y14445680D02*
D03*
D116*
X8615680Y14330679D02*
D03*
D117*
Y14445680D02*
D03*
%TF.MD5,21dee9387d1f9f606c7c44bf5ab35df5*%
M02*
