M48
;Layer_Color=9474304
;FILE_FORMAT=4:4
METRIC,LZ
;TYPE=PLATED
T01F00S00C0.1524
T02F00S00C0.8128
T03F00S00C1.4478
T04F00S00C2.2000
%
T01
X00810768Y0140208
X00809498Y01421664
Y01431264
X0083058Y01428496
X00832078Y01392174
X0084836Y01390142
X0084455Y01466088
X00905002Y01453896
X00908558Y01437386
X0091948Y01424914
Y01415314
X0094107Y01463548
X0093472Y01292098
X00762Y01288288
X00731774Y01372616
X00716534
X00692404Y01383538
X0070612Y01407668
Y01415288
Y01422908
Y01445768
X0070104
Y01450848
X0070612
X007112
Y01445768
X00733044Y01396746
X00749046Y01393444
X0075819Y01402334
X00752856Y01416558
X0077216Y01412748
X00779526Y0142113
X0078232Y01433068
X00776224Y01398016
X0076835Y01464818
X0065024Y01435608
X0065193Y01423416
X0065024Y01410208
X00666496Y01407668
Y01415288
X0067183Y0141224
X00640216Y01419352
X00639962Y01444244
X0061976Y01463548
X006096
X00588264Y0145288
X00598678Y01441196
X0058674Y01426718
X0058293Y01422908
X0058166Y01416558
Y01411478
X0058928Y01410208
X0058801Y01417828
X0058773Y01394206
X00573278Y01395374
X00559054Y0139319
X0055753Y01404874
Y01410208
X0055118
X00544628Y0141046
X0054356Y01404112
X00537464Y01404366
Y0139446
X00543814
X005461Y01383538
X00546252Y01378712
X005461Y01373378
X00565252Y01378712
X00581304
X00600304
X0059944Y01373378
X00597408Y01383792
X00621538Y01381716
X0062484Y01372108
X0061722
X00621538Y01363516
X00635Y01351788
Y01346708
Y01341628
Y01336548
Y01331468
Y01326388
X0064262
Y01331468
Y01336548
Y01341628
Y01346708
Y01351788
X00622076Y01329846
X00612882Y013081
X0061976Y01288288
X00573255Y01305154
X0057404Y01326388
Y01331468
Y01336548
Y01341628
Y01346708
Y01351788
Y01356868
X0058166
Y01351788
Y01346708
Y01341628
Y01336548
Y01331468
Y01326388
X0056642Y01336548
Y01341628
Y01346708
X0052009Y01335024
X0051054Y01323848
Y01318768
Y01313688
Y01308608
Y01303528
Y01298448
Y01293368
X0050292
Y01298448
Y01303528
Y01308608
Y01313688
Y01318768
Y01323848
X004953Y01313688
Y01308608
Y01303528
X0047117Y01299972
Y01312418
X0047244Y01334008
Y01339088
X0046736
Y01334008
X00489204Y01356868
X00490934Y01374982
Y01384982
X00484934
X0048006Y01379982
X00496062
X00502666Y01380744
X0050546Y01392428
X0051054
Y01397508
Y01402588
X0050546
Y01397508
X00492226Y01393698
X00482626
X004953Y01410208
Y01425448
Y01438148
X0050671Y01434592
X00506572Y01444244
X0053848Y01463548
X0054866
X00558546Y01453388
X0056007Y01426718
X0056388Y01422908
X0056515Y01416558
Y01411478
X005588Y01417828
X0054991Y01404366
X00532638Y01388364
X00457962Y01385082
X0045913Y0141224
Y01432052
Y01451864
X00573278Y01436878
X00576098Y01468882
X00608076Y01412494
X0055372Y01280668
X0047117Y01287018
T02
X008128Y01356868
X008382Y01345692
X008636Y01356868
X007874
X00762
X007366
X007112
X006858Y01345692
X006604Y01356868
T03
X008128Y01319276
X008382Y013081
X008636Y01319276
X007112
X006858Y013081
X006604Y01319276
T04
X00987425Y01374648
X00415925
M30
