%TF.GenerationSoftware,Altium Limited,Altium Designer,25.2.1 (25)*%
G04 Layer_Color=8388736*
%FSLAX45Y45*%
%MOMM*%
%TF.SameCoordinates,88257756-F906-492C-B469-FA58138B3ACC*%
%TF.FilePolarity,Negative*%
%TF.FileFunction,Soldermask,Top*%
%TF.Part,Single*%
G01*
G75*
%TA.AperFunction,SMDPad,CuDef*%
%ADD13R,0.90000X1.68000*%
G04:AMPARAMS|DCode=49|XSize=1.2032mm|YSize=1.2032mm|CornerRadius=0.2266mm|HoleSize=0mm|Usage=FLASHONLY|Rotation=270.000|XOffset=0mm|YOffset=0mm|HoleType=Round|Shape=RoundedRectangle|*
%AMROUNDEDRECTD49*
21,1,1.20320,0.75000,0,0,270.0*
21,1,0.75000,1.20320,0,0,270.0*
1,1,0.45320,-0.37500,-0.37500*
1,1,0.45320,-0.37500,0.37500*
1,1,0.45320,0.37500,0.37500*
1,1,0.45320,0.37500,-0.37500*
%
%ADD49ROUNDEDRECTD49*%
G04:AMPARAMS|DCode=50|XSize=1.2032mm|YSize=1.2032mm|CornerRadius=0.2266mm|HoleSize=0mm|Usage=FLASHONLY|Rotation=0.000|XOffset=0mm|YOffset=0mm|HoleType=Round|Shape=RoundedRectangle|*
%AMROUNDEDRECTD50*
21,1,1.20320,0.75000,0,0,0.0*
21,1,0.75000,1.20320,0,0,0.0*
1,1,0.45320,0.37500,-0.37500*
1,1,0.45320,-0.37500,-0.37500*
1,1,0.45320,-0.37500,0.37500*
1,1,0.45320,0.37500,0.37500*
%
%ADD50ROUNDEDRECTD50*%
%ADD51R,0.62160X0.52160*%
G04:AMPARAMS|DCode=52|XSize=1.6808mm|YSize=0.5008mm|CornerRadius=0.1379mm|HoleSize=0mm|Usage=FLASHONLY|Rotation=0.000|XOffset=0mm|YOffset=0mm|HoleType=Round|Shape=RoundedRectangle|*
%AMROUNDEDRECTD52*
21,1,1.68080,0.22500,0,0,0.0*
21,1,1.40500,0.50080,0,0,0.0*
1,1,0.27580,0.70250,-0.11250*
1,1,0.27580,-0.70250,-0.11250*
1,1,0.27580,-0.70250,0.11250*
1,1,0.27580,0.70250,0.11250*
%
%ADD52ROUNDEDRECTD52*%
G04:AMPARAMS|DCode=53|XSize=0.9508mm|YSize=0.3508mm|CornerRadius=0.1004mm|HoleSize=0mm|Usage=FLASHONLY|Rotation=0.000|XOffset=0mm|YOffset=0mm|HoleType=Round|Shape=RoundedRectangle|*
%AMROUNDEDRECTD53*
21,1,0.95080,0.15000,0,0,0.0*
21,1,0.75000,0.35080,0,0,0.0*
1,1,0.20080,0.37500,-0.07500*
1,1,0.20080,-0.37500,-0.07500*
1,1,0.20080,-0.37500,0.07500*
1,1,0.20080,0.37500,0.07500*
%
%ADD53ROUNDEDRECTD53*%
G04:AMPARAMS|DCode=54|XSize=1.0016mm|YSize=0.4016mm|CornerRadius=0.1258mm|HoleSize=0mm|Usage=FLASHONLY|Rotation=0.000|XOffset=0mm|YOffset=0mm|HoleType=Round|Shape=RoundedRectangle|*
%AMROUNDEDRECTD54*
21,1,1.00160,0.15000,0,0,0.0*
21,1,0.75000,0.40160,0,0,0.0*
1,1,0.25160,0.37500,-0.07500*
1,1,0.25160,-0.37500,-0.07500*
1,1,0.25160,-0.37500,0.07500*
1,1,0.25160,0.37500,0.07500*
%
%ADD54ROUNDEDRECTD54*%
G04:AMPARAMS|DCode=55|XSize=1.3016mm|YSize=0.6016mm|CornerRadius=0.1758mm|HoleSize=0mm|Usage=FLASHONLY|Rotation=90.000|XOffset=0mm|YOffset=0mm|HoleType=Round|Shape=RoundedRectangle|*
%AMROUNDEDRECTD55*
21,1,1.30160,0.25000,0,0,90.0*
21,1,0.95000,0.60160,0,0,90.0*
1,1,0.35160,0.12500,0.47500*
1,1,0.35160,0.12500,-0.47500*
1,1,0.35160,-0.12500,-0.47500*
1,1,0.35160,-0.12500,0.47500*
%
%ADD55ROUNDEDRECTD55*%
G04:AMPARAMS|DCode=56|XSize=0.7632mm|YSize=0.8232mm|CornerRadius=0.1716mm|HoleSize=0mm|Usage=FLASHONLY|Rotation=180.000|XOffset=0mm|YOffset=0mm|HoleType=Round|Shape=RoundedRectangle|*
%AMROUNDEDRECTD56*
21,1,0.76320,0.48000,0,0,180.0*
21,1,0.42000,0.82320,0,0,180.0*
1,1,0.34320,-0.21000,0.24000*
1,1,0.34320,0.21000,0.24000*
1,1,0.34320,0.21000,-0.24000*
1,1,0.34320,-0.21000,-0.24000*
%
%ADD56ROUNDEDRECTD56*%
G04:AMPARAMS|DCode=57|XSize=0.7432mm|YSize=0.8432mm|CornerRadius=0.1691mm|HoleSize=0mm|Usage=FLASHONLY|Rotation=0.000|XOffset=0mm|YOffset=0mm|HoleType=Round|Shape=RoundedRectangle|*
%AMROUNDEDRECTD57*
21,1,0.74320,0.50500,0,0,0.0*
21,1,0.40500,0.84320,0,0,0.0*
1,1,0.33820,0.20250,-0.25250*
1,1,0.33820,-0.20250,-0.25250*
1,1,0.33820,-0.20250,0.25250*
1,1,0.33820,0.20250,0.25250*
%
%ADD57ROUNDEDRECTD57*%
G04:AMPARAMS|DCode=58|XSize=1.2032mm|YSize=1.6532mm|CornerRadius=0.2266mm|HoleSize=0mm|Usage=FLASHONLY|Rotation=90.000|XOffset=0mm|YOffset=0mm|HoleType=Round|Shape=RoundedRectangle|*
%AMROUNDEDRECTD58*
21,1,1.20320,1.20000,0,0,90.0*
21,1,0.75000,1.65320,0,0,90.0*
1,1,0.45320,0.60000,0.37500*
1,1,0.45320,0.60000,-0.37500*
1,1,0.45320,-0.60000,-0.37500*
1,1,0.45320,-0.60000,0.37500*
%
%ADD58ROUNDEDRECTD58*%
G04:AMPARAMS|DCode=59|XSize=0.7632mm|YSize=0.8232mm|CornerRadius=0.1716mm|HoleSize=0mm|Usage=FLASHONLY|Rotation=90.000|XOffset=0mm|YOffset=0mm|HoleType=Round|Shape=RoundedRectangle|*
%AMROUNDEDRECTD59*
21,1,0.76320,0.48000,0,0,90.0*
21,1,0.42000,0.82320,0,0,90.0*
1,1,0.34320,0.24000,0.21000*
1,1,0.34320,0.24000,-0.21000*
1,1,0.34320,-0.24000,-0.21000*
1,1,0.34320,-0.24000,0.21000*
%
%ADD59ROUNDEDRECTD59*%
%ADD60R,2.50320X1.70320*%
G04:AMPARAMS|DCode=61|XSize=0.9782mm|YSize=0.6032mm|CornerRadius=0.1516mm|HoleSize=0mm|Usage=FLASHONLY|Rotation=270.000|XOffset=0mm|YOffset=0mm|HoleType=Round|Shape=RoundedRectangle|*
%AMROUNDEDRECTD61*
21,1,0.97820,0.30000,0,0,270.0*
21,1,0.67500,0.60320,0,0,270.0*
1,1,0.30320,-0.15000,-0.33750*
1,1,0.30320,-0.15000,0.33750*
1,1,0.30320,0.15000,0.33750*
1,1,0.30320,0.15000,-0.33750*
%
%ADD61ROUNDEDRECTD61*%
G04:AMPARAMS|DCode=62|XSize=1.4532mm|YSize=2.8532mm|CornerRadius=0.2266mm|HoleSize=0mm|Usage=FLASHONLY|Rotation=270.000|XOffset=0mm|YOffset=0mm|HoleType=Round|Shape=RoundedRectangle|*
%AMROUNDEDRECTD62*
21,1,1.45320,2.40000,0,0,270.0*
21,1,1.00000,2.85320,0,0,270.0*
1,1,0.45320,-1.20000,-0.50000*
1,1,0.45320,-1.20000,0.50000*
1,1,0.45320,1.20000,0.50000*
1,1,0.45320,1.20000,-0.50000*
%
%ADD62ROUNDEDRECTD62*%
%ADD63R,3.20160X3.20160*%
G04:AMPARAMS|DCode=64|XSize=0.3008mm|YSize=0.9258mm|CornerRadius=0.05665mm|HoleSize=0mm|Usage=FLASHONLY|Rotation=0.000|XOffset=0mm|YOffset=0mm|HoleType=Round|Shape=RoundedRectangle|*
%AMROUNDEDRECTD64*
21,1,0.30080,0.81250,0,0,0.0*
21,1,0.18750,0.92580,0,0,0.0*
1,1,0.11330,0.09375,-0.40625*
1,1,0.11330,-0.09375,-0.40625*
1,1,0.11330,-0.09375,0.40625*
1,1,0.11330,0.09375,0.40625*
%
%ADD64ROUNDEDRECTD64*%
G04:AMPARAMS|DCode=65|XSize=0.3516mm|YSize=0.9766mm|CornerRadius=0.08205mm|HoleSize=0mm|Usage=FLASHONLY|Rotation=0.000|XOffset=0mm|YOffset=0mm|HoleType=Round|Shape=RoundedRectangle|*
%AMROUNDEDRECTD65*
21,1,0.35160,0.81250,0,0,0.0*
21,1,0.18750,0.97660,0,0,0.0*
1,1,0.16410,0.09375,-0.40625*
1,1,0.16410,-0.09375,-0.40625*
1,1,0.16410,-0.09375,0.40625*
1,1,0.16410,0.09375,0.40625*
%
%ADD65ROUNDEDRECTD65*%
G04:AMPARAMS|DCode=66|XSize=0.9258mm|YSize=0.3008mm|CornerRadius=0.05665mm|HoleSize=0mm|Usage=FLASHONLY|Rotation=0.000|XOffset=0mm|YOffset=0mm|HoleType=Round|Shape=RoundedRectangle|*
%AMROUNDEDRECTD66*
21,1,0.92580,0.18750,0,0,0.0*
21,1,0.81250,0.30080,0,0,0.0*
1,1,0.11330,0.40625,-0.09375*
1,1,0.11330,-0.40625,-0.09375*
1,1,0.11330,-0.40625,0.09375*
1,1,0.11330,0.40625,0.09375*
%
%ADD66ROUNDEDRECTD66*%
G04:AMPARAMS|DCode=67|XSize=0.9766mm|YSize=0.3516mm|CornerRadius=0.08205mm|HoleSize=0mm|Usage=FLASHONLY|Rotation=0.000|XOffset=0mm|YOffset=0mm|HoleType=Round|Shape=RoundedRectangle|*
%AMROUNDEDRECTD67*
21,1,0.97660,0.18750,0,0,0.0*
21,1,0.81250,0.35160,0,0,0.0*
1,1,0.16410,0.40625,-0.09375*
1,1,0.16410,-0.40625,-0.09375*
1,1,0.16410,-0.40625,0.09375*
1,1,0.16410,0.40625,0.09375*
%
%ADD67ROUNDEDRECTD67*%
%ADD68R,1.30320X1.45320*%
%ADD69R,1.50320X1.60320*%
%ADD70R,2.80320X1.60320*%
G04:AMPARAMS|DCode=71|XSize=0.7432mm|YSize=0.8432mm|CornerRadius=0.1691mm|HoleSize=0mm|Usage=FLASHONLY|Rotation=270.000|XOffset=0mm|YOffset=0mm|HoleType=Round|Shape=RoundedRectangle|*
%AMROUNDEDRECTD71*
21,1,0.74320,0.50500,0,0,270.0*
21,1,0.40500,0.84320,0,0,270.0*
1,1,0.33820,-0.25250,-0.20250*
1,1,0.33820,-0.25250,0.20250*
1,1,0.33820,0.25250,0.20250*
1,1,0.33820,0.25250,-0.20250*
%
%ADD71ROUNDEDRECTD71*%
G04:AMPARAMS|DCode=72|XSize=0.8016mm|YSize=0.3516mm|CornerRadius=0.08205mm|HoleSize=0mm|Usage=FLASHONLY|Rotation=270.000|XOffset=0mm|YOffset=0mm|HoleType=Round|Shape=RoundedRectangle|*
%AMROUNDEDRECTD72*
21,1,0.80160,0.18750,0,0,270.0*
21,1,0.63750,0.35160,0,0,270.0*
1,1,0.16410,-0.09375,-0.31875*
1,1,0.16410,-0.09375,0.31875*
1,1,0.16410,0.09375,0.31875*
1,1,0.16410,0.09375,-0.31875*
%
%ADD72ROUNDEDRECTD72*%
G04:AMPARAMS|DCode=73|XSize=0.9016mm|YSize=0.3516mm|CornerRadius=0.08205mm|HoleSize=0mm|Usage=FLASHONLY|Rotation=270.000|XOffset=0mm|YOffset=0mm|HoleType=Round|Shape=RoundedRectangle|*
%AMROUNDEDRECTD73*
21,1,0.90160,0.18750,0,0,270.0*
21,1,0.73750,0.35160,0,0,270.0*
1,1,0.16410,-0.09375,-0.36875*
1,1,0.16410,-0.09375,0.36875*
1,1,0.16410,0.09375,0.36875*
1,1,0.16410,0.09375,-0.36875*
%
%ADD73ROUNDEDRECTD73*%
%ADD74R,0.91440X1.90500*%
%ADD75R,1.30320X1.00320*%
%TA.AperFunction,ComponentPad*%
%ADD76C,1.72720*%
%ADD77C,1.65100*%
D13*
X5352659Y851150D02*
D03*
D49*
X4749800Y1955800D02*
D03*
D50*
X4801339Y1739900D02*
D03*
X3835400Y889000D02*
D03*
D51*
X5266159Y786150D02*
D03*
Y851150D02*
D03*
Y916150D02*
D03*
X5439159D02*
D03*
Y851150D02*
D03*
Y786150D02*
D03*
D52*
X4409100Y1242860D02*
D03*
X4627100D02*
D03*
D53*
X4373100Y1185360D02*
D03*
X4663100D02*
D03*
D54*
X4373100Y1120360D02*
D03*
Y1057360D02*
D03*
X4663100D02*
D03*
Y1120360D02*
D03*
D55*
X4518100Y1102860D02*
D03*
D56*
X2717800Y1092200D02*
D03*
X2813800D02*
D03*
X3190500Y1358900D02*
D03*
X3286500D02*
D03*
X5399449Y679315D02*
D03*
X5303449D02*
D03*
X3007100Y1092200D02*
D03*
X2911100D02*
D03*
X3190500Y1257300D02*
D03*
X3286500D02*
D03*
X3190500Y1155700D02*
D03*
X3286500D02*
D03*
D57*
X4488020Y891490D02*
D03*
X4386020D02*
D03*
X3657200Y1599800D02*
D03*
X3759200D02*
D03*
X3009900Y990600D02*
D03*
X2907900D02*
D03*
X2717600D02*
D03*
X2819600D02*
D03*
X5474639Y1054100D02*
D03*
X5372639D02*
D03*
X868800Y831250D02*
D03*
X766800D02*
D03*
X3415900Y1599800D02*
D03*
X3517900D02*
D03*
D58*
X4140200Y1445760D02*
D03*
Y1255760D02*
D03*
Y902200D02*
D03*
Y1092200D02*
D03*
X5090899Y616450D02*
D03*
Y806450D02*
D03*
X5220439Y1415800D02*
D03*
Y1225800D02*
D03*
X4885159Y616450D02*
D03*
Y806450D02*
D03*
D59*
X5126459Y406650D02*
D03*
Y310650D02*
D03*
X5022319Y406130D02*
D03*
Y310130D02*
D03*
X2311400Y1785100D02*
D03*
Y1689100D02*
D03*
X4821659Y406650D02*
D03*
Y310650D02*
D03*
X4920719Y406390D02*
D03*
Y310390D02*
D03*
X589400Y1123350D02*
D03*
Y1027350D02*
D03*
D60*
X749300Y524350D02*
D03*
D61*
X844300Y375600D02*
D03*
X749300D02*
D03*
X654300D02*
D03*
Y673100D02*
D03*
X749300D02*
D03*
X844300D02*
D03*
D62*
X4943579Y975360D02*
D03*
Y1255360D02*
D03*
D63*
X2794000Y1511300D02*
D03*
D64*
X2619000Y1755050D02*
D03*
X2969000D02*
D03*
Y1267550D02*
D03*
X2619000D02*
D03*
D65*
X2669000Y1755050D02*
D03*
X2719000D02*
D03*
X2769000D02*
D03*
X2819000D02*
D03*
X2869000D02*
D03*
X2919000D02*
D03*
Y1267550D02*
D03*
X2869000D02*
D03*
X2819000D02*
D03*
X2769000D02*
D03*
X2719000D02*
D03*
X2669000D02*
D03*
D66*
X3037750Y1686300D02*
D03*
Y1336300D02*
D03*
X2550250D02*
D03*
Y1686300D02*
D03*
D67*
X3037750Y1636300D02*
D03*
Y1586300D02*
D03*
Y1536300D02*
D03*
Y1486300D02*
D03*
Y1436300D02*
D03*
Y1386300D02*
D03*
X2550250D02*
D03*
Y1436300D02*
D03*
Y1486300D02*
D03*
Y1536300D02*
D03*
Y1586300D02*
D03*
Y1636300D02*
D03*
D68*
X3733800Y1117600D02*
D03*
Y1462600D02*
D03*
X3505200Y1117600D02*
D03*
Y1462600D02*
D03*
D69*
X4415340Y1460500D02*
D03*
D70*
X4660340D02*
D03*
D71*
X5168900Y952300D02*
D03*
Y1054300D02*
D03*
X4661639Y774700D02*
D03*
Y876700D02*
D03*
X4547339Y775100D02*
D03*
Y673100D02*
D03*
X2400300Y1244600D02*
D03*
Y1142600D02*
D03*
D72*
X5416959Y433895D02*
D03*
X5366959D02*
D03*
X5316959D02*
D03*
Y553895D02*
D03*
X5366959D02*
D03*
D73*
X5416959Y548895D02*
D03*
D74*
X868800Y1009050D02*
D03*
X708780D02*
D03*
D75*
X1437700Y1117600D02*
D03*
X1127700D02*
D03*
X929155Y1278895D02*
D03*
X619155D02*
D03*
D76*
X2471000Y777000D02*
D03*
X2217000D02*
D03*
X1963000D02*
D03*
X1709000D02*
D03*
X1455000D02*
D03*
X2725000D02*
D03*
X2979000D02*
D03*
X3233000D02*
D03*
X3487000D02*
D03*
D77*
X1455000Y401080D02*
D03*
X3487000D02*
D03*
%TF.MD5,2fd913e209a6d641dfcc0cfa5d6e1418*%
M02*
