%TF.GenerationSoftware,Altium Limited,Altium Designer,25.2.1 (25)*%
G04 Layer_Physical_Order=1*
G04 Layer_Color=255*
%FSLAX45Y45*%
%MOMM*%
%TF.SameCoordinates,88257756-F906-492C-B469-FA58138B3ACC*%
%TF.FilePolarity,Positive*%
%TF.FileFunction,Copper,L1,Top,Signal*%
%TF.Part,Single*%
G01*
G75*
%TA.AperFunction,FiducialPad,Global*%
%ADD10C,1.01600*%
%TA.AperFunction,SMDPad,CuDef*%
G04:AMPARAMS|DCode=11|XSize=1mm|YSize=1mm|CornerRadius=0.125mm|HoleSize=0mm|Usage=FLASHONLY|Rotation=270.000|XOffset=0mm|YOffset=0mm|HoleType=Round|Shape=RoundedRectangle|*
%AMROUNDEDRECTD11*
21,1,1.00000,0.75000,0,0,270.0*
21,1,0.75000,1.00000,0,0,270.0*
1,1,0.25000,-0.37500,-0.37500*
1,1,0.25000,-0.37500,0.37500*
1,1,0.25000,0.37500,0.37500*
1,1,0.25000,0.37500,-0.37500*
%
%ADD11ROUNDEDRECTD11*%
G04:AMPARAMS|DCode=12|XSize=1mm|YSize=1mm|CornerRadius=0.125mm|HoleSize=0mm|Usage=FLASHONLY|Rotation=0.000|XOffset=0mm|YOffset=0mm|HoleType=Round|Shape=RoundedRectangle|*
%AMROUNDEDRECTD12*
21,1,1.00000,0.75000,0,0,0.0*
21,1,0.75000,1.00000,0,0,0.0*
1,1,0.25000,0.37500,-0.37500*
1,1,0.25000,-0.37500,-0.37500*
1,1,0.25000,-0.37500,0.37500*
1,1,0.25000,0.37500,0.37500*
%
%ADD12ROUNDEDRECTD12*%
%ADD13R,0.90000X1.68000*%
%ADD14R,0.52000X0.42000*%
G04:AMPARAMS|DCode=15|XSize=1.63mm|YSize=0.45mm|CornerRadius=0.1125mm|HoleSize=0mm|Usage=FLASHONLY|Rotation=0.000|XOffset=0mm|YOffset=0mm|HoleType=Round|Shape=RoundedRectangle|*
%AMROUNDEDRECTD15*
21,1,1.63000,0.22500,0,0,0.0*
21,1,1.40500,0.45000,0,0,0.0*
1,1,0.22500,0.70250,-0.11250*
1,1,0.22500,-0.70250,-0.11250*
1,1,0.22500,-0.70250,0.11250*
1,1,0.22500,0.70250,0.11250*
%
%ADD15ROUNDEDRECTD15*%
G04:AMPARAMS|DCode=16|XSize=0.9mm|YSize=0.3mm|CornerRadius=0.075mm|HoleSize=0mm|Usage=FLASHONLY|Rotation=0.000|XOffset=0mm|YOffset=0mm|HoleType=Round|Shape=RoundedRectangle|*
%AMROUNDEDRECTD16*
21,1,0.90000,0.15000,0,0,0.0*
21,1,0.75000,0.30000,0,0,0.0*
1,1,0.15000,0.37500,-0.07500*
1,1,0.15000,-0.37500,-0.07500*
1,1,0.15000,-0.37500,0.07500*
1,1,0.15000,0.37500,0.07500*
%
%ADD16ROUNDEDRECTD16*%
G04:AMPARAMS|DCode=17|XSize=1.2mm|YSize=0.5mm|CornerRadius=0.125mm|HoleSize=0mm|Usage=FLASHONLY|Rotation=90.000|XOffset=0mm|YOffset=0mm|HoleType=Round|Shape=RoundedRectangle|*
%AMROUNDEDRECTD17*
21,1,1.20000,0.25000,0,0,90.0*
21,1,0.95000,0.50000,0,0,90.0*
1,1,0.25000,0.12500,0.47500*
1,1,0.25000,0.12500,-0.47500*
1,1,0.25000,-0.12500,-0.47500*
1,1,0.25000,-0.12500,0.47500*
%
%ADD17ROUNDEDRECTD17*%
G04:AMPARAMS|DCode=18|XSize=0.56mm|YSize=0.62mm|CornerRadius=0.07mm|HoleSize=0mm|Usage=FLASHONLY|Rotation=180.000|XOffset=0mm|YOffset=0mm|HoleType=Round|Shape=RoundedRectangle|*
%AMROUNDEDRECTD18*
21,1,0.56000,0.48000,0,0,180.0*
21,1,0.42000,0.62000,0,0,180.0*
1,1,0.14000,-0.21000,0.24000*
1,1,0.14000,0.21000,0.24000*
1,1,0.14000,0.21000,-0.24000*
1,1,0.14000,-0.21000,-0.24000*
%
%ADD18ROUNDEDRECTD18*%
G04:AMPARAMS|DCode=19|XSize=0.54mm|YSize=0.64mm|CornerRadius=0.0675mm|HoleSize=0mm|Usage=FLASHONLY|Rotation=0.000|XOffset=0mm|YOffset=0mm|HoleType=Round|Shape=RoundedRectangle|*
%AMROUNDEDRECTD19*
21,1,0.54000,0.50500,0,0,0.0*
21,1,0.40500,0.64000,0,0,0.0*
1,1,0.13500,0.20250,-0.25250*
1,1,0.13500,-0.20250,-0.25250*
1,1,0.13500,-0.20250,0.25250*
1,1,0.13500,0.20250,0.25250*
%
%ADD19ROUNDEDRECTD19*%
G04:AMPARAMS|DCode=20|XSize=1mm|YSize=1.45mm|CornerRadius=0.125mm|HoleSize=0mm|Usage=FLASHONLY|Rotation=90.000|XOffset=0mm|YOffset=0mm|HoleType=Round|Shape=RoundedRectangle|*
%AMROUNDEDRECTD20*
21,1,1.00000,1.20000,0,0,90.0*
21,1,0.75000,1.45000,0,0,90.0*
1,1,0.25000,0.60000,0.37500*
1,1,0.25000,0.60000,-0.37500*
1,1,0.25000,-0.60000,-0.37500*
1,1,0.25000,-0.60000,0.37500*
%
%ADD20ROUNDEDRECTD20*%
G04:AMPARAMS|DCode=21|XSize=0.56mm|YSize=0.62mm|CornerRadius=0.07mm|HoleSize=0mm|Usage=FLASHONLY|Rotation=90.000|XOffset=0mm|YOffset=0mm|HoleType=Round|Shape=RoundedRectangle|*
%AMROUNDEDRECTD21*
21,1,0.56000,0.48000,0,0,90.0*
21,1,0.42000,0.62000,0,0,90.0*
1,1,0.14000,0.24000,0.21000*
1,1,0.14000,0.24000,-0.21000*
1,1,0.14000,-0.24000,-0.21000*
1,1,0.14000,-0.24000,0.21000*
%
%ADD21ROUNDEDRECTD21*%
%ADD22R,2.30000X1.50000*%
G04:AMPARAMS|DCode=23|XSize=0.775mm|YSize=0.4mm|CornerRadius=0.05mm|HoleSize=0mm|Usage=FLASHONLY|Rotation=270.000|XOffset=0mm|YOffset=0mm|HoleType=Round|Shape=RoundedRectangle|*
%AMROUNDEDRECTD23*
21,1,0.77500,0.30000,0,0,270.0*
21,1,0.67500,0.40000,0,0,270.0*
1,1,0.10000,-0.15000,-0.33750*
1,1,0.10000,-0.15000,0.33750*
1,1,0.10000,0.15000,0.33750*
1,1,0.10000,0.15000,-0.33750*
%
%ADD23ROUNDEDRECTD23*%
G04:AMPARAMS|DCode=24|XSize=1.25mm|YSize=2.65mm|CornerRadius=0.125mm|HoleSize=0mm|Usage=FLASHONLY|Rotation=270.000|XOffset=0mm|YOffset=0mm|HoleType=Round|Shape=RoundedRectangle|*
%AMROUNDEDRECTD24*
21,1,1.25000,2.40000,0,0,270.0*
21,1,1.00000,2.65000,0,0,270.0*
1,1,0.25000,-1.20000,-0.50000*
1,1,0.25000,-1.20000,0.50000*
1,1,0.25000,1.20000,0.50000*
1,1,0.25000,1.20000,-0.50000*
%
%ADD24ROUNDEDRECTD24*%
%ADD25R,3.10000X3.10000*%
G04:AMPARAMS|DCode=26|XSize=0.25mm|YSize=0.875mm|CornerRadius=0.03125mm|HoleSize=0mm|Usage=FLASHONLY|Rotation=0.000|XOffset=0mm|YOffset=0mm|HoleType=Round|Shape=RoundedRectangle|*
%AMROUNDEDRECTD26*
21,1,0.25000,0.81250,0,0,0.0*
21,1,0.18750,0.87500,0,0,0.0*
1,1,0.06250,0.09375,-0.40625*
1,1,0.06250,-0.09375,-0.40625*
1,1,0.06250,-0.09375,0.40625*
1,1,0.06250,0.09375,0.40625*
%
%ADD26ROUNDEDRECTD26*%
G04:AMPARAMS|DCode=27|XSize=0.875mm|YSize=0.25mm|CornerRadius=0.03125mm|HoleSize=0mm|Usage=FLASHONLY|Rotation=0.000|XOffset=0mm|YOffset=0mm|HoleType=Round|Shape=RoundedRectangle|*
%AMROUNDEDRECTD27*
21,1,0.87500,0.18750,0,0,0.0*
21,1,0.81250,0.25000,0,0,0.0*
1,1,0.06250,0.40625,-0.09375*
1,1,0.06250,-0.40625,-0.09375*
1,1,0.06250,-0.40625,0.09375*
1,1,0.06250,0.40625,0.09375*
%
%ADD27ROUNDEDRECTD27*%
%ADD28R,1.10000X1.25000*%
%ADD29R,1.30000X1.40000*%
%ADD30R,2.60000X1.40000*%
G04:AMPARAMS|DCode=31|XSize=0.54mm|YSize=0.64mm|CornerRadius=0.0675mm|HoleSize=0mm|Usage=FLASHONLY|Rotation=270.000|XOffset=0mm|YOffset=0mm|HoleType=Round|Shape=RoundedRectangle|*
%AMROUNDEDRECTD31*
21,1,0.54000,0.50500,0,0,270.0*
21,1,0.40500,0.64000,0,0,270.0*
1,1,0.13500,-0.25250,-0.20250*
1,1,0.13500,-0.25250,0.20250*
1,1,0.13500,0.25250,0.20250*
1,1,0.13500,0.25250,-0.20250*
%
%ADD31ROUNDEDRECTD31*%
G04:AMPARAMS|DCode=32|XSize=0.7mm|YSize=0.25mm|CornerRadius=0.03125mm|HoleSize=0mm|Usage=FLASHONLY|Rotation=270.000|XOffset=0mm|YOffset=0mm|HoleType=Round|Shape=RoundedRectangle|*
%AMROUNDEDRECTD32*
21,1,0.70000,0.18750,0,0,270.0*
21,1,0.63750,0.25000,0,0,270.0*
1,1,0.06250,-0.09375,-0.31875*
1,1,0.06250,-0.09375,0.31875*
1,1,0.06250,0.09375,0.31875*
1,1,0.06250,0.09375,-0.31875*
%
%ADD32ROUNDEDRECTD32*%
G04:AMPARAMS|DCode=33|XSize=0.8mm|YSize=0.25mm|CornerRadius=0.03125mm|HoleSize=0mm|Usage=FLASHONLY|Rotation=270.000|XOffset=0mm|YOffset=0mm|HoleType=Round|Shape=RoundedRectangle|*
%AMROUNDEDRECTD33*
21,1,0.80000,0.18750,0,0,270.0*
21,1,0.73750,0.25000,0,0,270.0*
1,1,0.06250,-0.09375,-0.36875*
1,1,0.06250,-0.09375,0.36875*
1,1,0.06250,0.09375,0.36875*
1,1,0.06250,0.09375,-0.36875*
%
%ADD33ROUNDEDRECTD33*%
%ADD34R,0.71120X1.70180*%
%ADD35R,1.10000X0.80000*%
%TA.AperFunction,Conductor*%
%ADD36C,0.50800*%
%ADD37C,0.25400*%
%ADD38C,0.17780*%
%ADD39C,0.38100*%
%TA.AperFunction,ComponentPad*%
%ADD40C,1.52400*%
%ADD41C,1.44780*%
%ADD42C,2.20000*%
%TA.AperFunction,ViaPad*%
%ADD43C,0.55880*%
G36*
X5911464Y2081806D02*
X5948077Y2074523D01*
X5968072Y2066241D01*
X5968725Y2063493D01*
X5966480Y2039407D01*
X5952106Y2033454D01*
X5933536Y2019204D01*
X5919286Y2000634D01*
X5910328Y1979007D01*
X5907273Y1955800D01*
X5910328Y1932593D01*
X5919286Y1910966D01*
X5933536Y1892396D01*
X5952106Y1878146D01*
X5973733Y1869188D01*
X5996940Y1866133D01*
X6020147Y1869188D01*
X6041774Y1878146D01*
X6056906Y1889757D01*
X6070293Y1886460D01*
X6082306Y1879292D01*
X6082306Y1137339D01*
X6056906Y1130976D01*
X6047016Y1149478D01*
X6028509Y1172029D01*
X6005958Y1190536D01*
X5980230Y1204289D01*
X5952313Y1212757D01*
X5923280Y1215617D01*
X5894247Y1212757D01*
X5866330Y1204289D01*
X5840602Y1190536D01*
X5818051Y1172029D01*
X5799544Y1149478D01*
X5785791Y1123750D01*
X5777323Y1095833D01*
X5774463Y1066800D01*
X5777323Y1037767D01*
X5785791Y1009850D01*
X5799544Y984122D01*
X5818051Y961571D01*
X5840602Y943064D01*
X5866330Y929311D01*
X5894247Y920843D01*
X5923280Y917983D01*
X5952313Y920843D01*
X5980230Y929311D01*
X6005958Y943064D01*
X6028509Y961571D01*
X6047016Y984122D01*
X6056906Y1002624D01*
X6082306Y996261D01*
X6082306Y254307D01*
X6070292Y247139D01*
X6056906Y243843D01*
X6041774Y255454D01*
X6020147Y264412D01*
X5996940Y267467D01*
X5973733Y264412D01*
X5952106Y255454D01*
X5933536Y241204D01*
X5919286Y222634D01*
X5910328Y201007D01*
X5907273Y177800D01*
X5910328Y154593D01*
X5919286Y132966D01*
X5933536Y114396D01*
X5952106Y100146D01*
X5966480Y94192D01*
X5968725Y70108D01*
X5968073Y67359D01*
X5948077Y59077D01*
X5911464Y51794D01*
X4075648D01*
X4075343Y52101D01*
X4074490Y56543D01*
X4073830Y58166D01*
X4073725Y59914D01*
X4071431Y68661D01*
X4070411Y70758D01*
X4070064Y73064D01*
X4067002Y81573D01*
X4065799Y83570D01*
X4065249Y85836D01*
X4061442Y94039D01*
X4060408Y95454D01*
X4059882Y97126D01*
X4057708Y101091D01*
X4056836Y102132D01*
X4056362Y103404D01*
X4048978Y115366D01*
X4044875Y119776D01*
X4041528Y124785D01*
X4022774Y143540D01*
X4017141Y147304D01*
X4012047Y151771D01*
X3989077Y165032D01*
X3982662Y167210D01*
X3976586Y170207D01*
X3950967Y177071D01*
X3945877Y177405D01*
X3940949Y178725D01*
X3927688Y179594D01*
X3925977Y179369D01*
X3924284Y179705D01*
X1003284Y178794D01*
X1001607Y178460D01*
X999912Y178683D01*
X986650Y177813D01*
X981724Y176493D01*
X976633Y176160D01*
X951014Y169295D01*
X944937Y166298D01*
X938522Y164121D01*
X915553Y150859D01*
X910460Y146393D01*
X904826Y142628D01*
X886071Y123874D01*
X883237Y119632D01*
X879630Y116025D01*
X872247Y104975D01*
X871367Y102852D01*
X869891Y101091D01*
X867718Y97126D01*
X867192Y95454D01*
X866158Y94039D01*
X862351Y85836D01*
X861800Y83570D01*
X860598Y81573D01*
X857535Y73064D01*
X857189Y70758D01*
X856168Y68662D01*
X853874Y59914D01*
X853769Y58166D01*
X853109Y56543D01*
X852256Y52101D01*
X851951Y51794D01*
X240914Y51794D01*
X222273Y51831D01*
X185722Y59170D01*
X151301Y73489D01*
X120330Y94240D01*
X93995Y120628D01*
X73306Y151643D01*
X59058Y186092D01*
X51794Y222659D01*
X51794Y241298D01*
Y991510D01*
X77194Y997872D01*
X84544Y984122D01*
X103051Y961571D01*
X125602Y943064D01*
X151330Y929311D01*
X179247Y920843D01*
X208280Y917983D01*
X237313Y920843D01*
X265230Y929311D01*
X290958Y943064D01*
X313509Y961571D01*
X332016Y984122D01*
X345769Y1009850D01*
X354237Y1037767D01*
X357097Y1066800D01*
X354237Y1095833D01*
X345769Y1123750D01*
X332016Y1149478D01*
X313509Y1172029D01*
X290958Y1190536D01*
X265230Y1204289D01*
X237313Y1212757D01*
X208280Y1215617D01*
X179247Y1212757D01*
X151330Y1204289D01*
X125602Y1190536D01*
X103051Y1172029D01*
X84544Y1149478D01*
X77194Y1135728D01*
X51794Y1142090D01*
Y1879293D01*
X63808Y1886461D01*
X77194Y1889757D01*
X92326Y1878146D01*
X113953Y1869188D01*
X137160Y1866133D01*
X160367Y1869188D01*
X181994Y1878146D01*
X200564Y1892396D01*
X214814Y1910966D01*
X223772Y1932593D01*
X226827Y1955800D01*
X223772Y1979007D01*
X214814Y2000634D01*
X200564Y2019204D01*
X181994Y2033454D01*
X167620Y2039408D01*
X165375Y2063493D01*
X166028Y2066241D01*
X186023Y2074523D01*
X222636Y2081806D01*
X241299Y2081806D01*
X5892799Y2081806D01*
X5911464Y2081806D01*
D02*
G37*
%LPC*%
G36*
X4838839Y1816042D02*
X4833089D01*
Y1771650D01*
X4877481D01*
Y1777400D01*
X4874540Y1792188D01*
X4866163Y1804724D01*
X4853627Y1813101D01*
X4838839Y1816042D01*
D02*
G37*
G36*
X4769589D02*
X4763839D01*
X4749051Y1813101D01*
X4736515Y1804724D01*
X4728138Y1792188D01*
X4725197Y1777400D01*
Y1771650D01*
X4769589D01*
Y1816042D01*
D02*
G37*
G36*
X4877481Y1708150D02*
X4833089D01*
Y1663758D01*
X4838839D01*
X4853627Y1666699D01*
X4866163Y1675076D01*
X4874540Y1687612D01*
X4877481Y1702400D01*
Y1708150D01*
D02*
G37*
G36*
X4769589D02*
X4725197D01*
Y1702400D01*
X4728138Y1687612D01*
X4736515Y1675076D01*
X4749051Y1666699D01*
X4763839Y1663758D01*
X4769589D01*
Y1708150D01*
D02*
G37*
G36*
X841216Y1787490D02*
X457200D01*
Y1616110D01*
X841216D01*
Y1787490D01*
D02*
G37*
G36*
X4383590Y1555900D02*
X4324940D01*
Y1492251D01*
X4383590D01*
Y1555900D01*
D02*
G37*
G36*
X4200200Y1521902D02*
X4171950D01*
Y1477510D01*
X4238842D01*
Y1483260D01*
X4235901Y1498048D01*
X4227524Y1510584D01*
X4214988Y1518961D01*
X4200200Y1521902D01*
D02*
G37*
G36*
X4108450D02*
X4080200D01*
X4065412Y1518961D01*
X4052876Y1510584D01*
X4044499Y1498048D01*
X4041558Y1483260D01*
Y1477510D01*
X4108450D01*
Y1521902D01*
D02*
G37*
G36*
X4383590Y1428751D02*
X4324940D01*
Y1365100D01*
X4383590D01*
Y1428751D01*
D02*
G37*
G36*
X4724400Y2045944D02*
X2247900D01*
X2223124Y2041016D01*
X2202119Y2026981D01*
X2087819Y1912681D01*
X2073784Y1891676D01*
X2068856Y1866900D01*
Y1601444D01*
X1309572D01*
X1295400Y1603310D01*
X1281228Y1601444D01*
X1246072D01*
X1231900Y1603310D01*
X1214660Y1601040D01*
X1198595Y1594386D01*
X1184800Y1583800D01*
X1174214Y1570005D01*
X1167560Y1553940D01*
X1165290Y1536700D01*
X1167560Y1519460D01*
X1174214Y1503395D01*
X1182952Y1485900D01*
X1174214Y1468405D01*
X1167560Y1452340D01*
X1165290Y1435100D01*
X1167560Y1417860D01*
X1174214Y1401795D01*
X1184800Y1388000D01*
X1188324Y1385295D01*
X1179702Y1359895D01*
X1054100D01*
X1047036Y1358490D01*
X1022255Y1356995D01*
X1022254Y1356996D01*
X1022254Y1356995D01*
X836055D01*
Y1225945D01*
X729100D01*
X724955Y1225121D01*
X699555Y1243729D01*
Y1247145D01*
X650905D01*
Y1211496D01*
X664801Y1190384D01*
X659227Y1174568D01*
X651179Y1172111D01*
X634189Y1169426D01*
X626042Y1174870D01*
X621150Y1175843D01*
Y1123350D01*
X589400D01*
Y1094339D01*
X565400D01*
X551630Y1091600D01*
X534504D01*
X534880Y1089708D01*
X538349Y1084516D01*
X532885Y1080866D01*
X522917Y1065947D01*
X519416Y1048350D01*
Y1006350D01*
X522917Y988753D01*
X532885Y973835D01*
X547803Y963867D01*
X565400Y960367D01*
X613400D01*
X635120Y938789D01*
Y885860D01*
X684004D01*
X701609Y860460D01*
X700822Y856500D01*
Y830425D01*
X697505Y813750D01*
Y755114D01*
X693568Y750387D01*
X686050Y745798D01*
Y673100D01*
X654300D01*
D01*
X686050D01*
Y610174D01*
X703227Y608276D01*
X717483Y598751D01*
X734300Y595406D01*
X764300D01*
X781117Y598751D01*
X796800Y607482D01*
X812484Y598751D01*
X829300Y595406D01*
X859300D01*
X876117Y598751D01*
X890373Y608277D01*
X899899Y622533D01*
X903244Y639350D01*
Y706850D01*
X899899Y723667D01*
X891792Y735800D01*
X894175Y748070D01*
X899527Y762356D01*
X906549Y763752D01*
X921385Y773665D01*
X931298Y788501D01*
X934778Y806000D01*
Y856500D01*
X933991Y860460D01*
X942460Y885860D01*
X942460D01*
Y1132240D01*
X942460Y1132240D01*
X942460D01*
X942460Y1132240D01*
X948456Y1155156D01*
X965780Y1172480D01*
X977007Y1189284D01*
X979297Y1200795D01*
X1022255D01*
Y1227100D01*
X1024895D01*
X1044716Y1231042D01*
X1061520Y1242270D01*
X1075554Y1256305D01*
X1680346D01*
X1906545Y1030106D01*
Y877333D01*
X1905357Y876841D01*
X1881480Y858520D01*
X1863159Y834643D01*
X1851642Y806838D01*
X1847714Y777000D01*
X1851642Y747162D01*
X1863159Y719357D01*
X1881480Y695480D01*
X1905357Y677159D01*
X1933161Y665642D01*
X1963000Y661714D01*
X1992838Y665642D01*
X2020643Y677159D01*
X2044520Y695480D01*
X2062841Y719357D01*
X2074358Y747162D01*
X2076098Y760376D01*
X2077191Y768676D01*
X2102809D01*
X2103902Y760377D01*
X2105642Y747162D01*
X2117159Y719357D01*
X2135480Y695480D01*
X2159357Y677159D01*
X2187161Y665642D01*
X2217000Y661714D01*
X2246838Y665642D01*
X2274643Y677159D01*
X2298520Y695480D01*
X2316841Y719357D01*
X2328358Y747162D01*
X2331190Y768676D01*
X2356810D01*
X2359642Y747162D01*
X2371159Y719357D01*
X2389480Y695480D01*
X2413357Y677159D01*
X2441161Y665642D01*
X2471000Y661714D01*
X2500838Y665642D01*
X2528643Y677159D01*
X2552520Y695480D01*
X2570841Y719357D01*
X2582358Y747162D01*
X2584098Y760376D01*
X2585191Y768676D01*
X2610809D01*
X2611902Y760377D01*
X2613642Y747162D01*
X2625159Y719357D01*
X2643480Y695480D01*
X2667357Y677159D01*
X2695161Y665642D01*
X2725000Y661714D01*
X2754838Y665642D01*
X2782643Y677159D01*
X2806520Y695480D01*
X2824841Y719357D01*
X2836358Y747162D01*
X2838098Y760376D01*
X2839191Y768676D01*
X2864809D01*
X2865902Y760377D01*
X2867642Y747162D01*
X2879159Y719357D01*
X2897480Y695480D01*
X2921357Y677159D01*
X2949161Y665642D01*
X2979000Y661714D01*
X3008838Y665642D01*
X3036643Y677159D01*
X3060520Y695480D01*
X3078841Y719357D01*
X3090358Y747162D01*
X3094286Y777000D01*
X3090358Y806838D01*
X3078841Y834643D01*
X3060520Y858520D01*
X3036643Y876841D01*
X3008838Y888358D01*
X2979000Y892286D01*
X2955164Y889148D01*
X2943152Y901958D01*
X2938892Y911597D01*
X2941413Y915889D01*
X2969582Y924819D01*
X2972151Y923102D01*
X2989650Y919621D01*
X3030150D01*
X3047649Y923102D01*
X3064501Y930957D01*
X3077100Y918099D01*
X3090895Y907514D01*
X3106960Y900860D01*
X3124200Y898590D01*
X3141440Y900860D01*
X3157505Y907514D01*
X3171300Y918100D01*
X3181886Y931895D01*
X3188540Y947960D01*
X3190810Y965200D01*
X3188540Y982440D01*
X3181886Y998505D01*
X3171300Y1012300D01*
X3157505Y1022886D01*
X3141440Y1029540D01*
X3129633Y1031095D01*
X3118621Y1038453D01*
X3098800Y1042395D01*
X3079928D01*
X3076387Y1044583D01*
X3064339Y1060450D01*
X3035850D01*
X3030150Y1061584D01*
X3007100D01*
Y1123950D01*
X3059593D01*
X3058620Y1128842D01*
X3051459Y1139559D01*
X3040742Y1146720D01*
X3028100Y1149235D01*
X2997396D01*
X2983002Y1173351D01*
X2989502Y1187106D01*
X2994460Y1188092D01*
X3003129Y1193884D01*
X3005360Y1192960D01*
X3022600Y1190690D01*
X3039840Y1192960D01*
X3055905Y1199614D01*
X3069700Y1210200D01*
X3080286Y1223995D01*
X3086940Y1240060D01*
X3089210Y1257300D01*
X3086940Y1274540D01*
X3089322Y1298236D01*
X3098941Y1306360D01*
X3105245Y1315795D01*
X3107322Y1326239D01*
X3107524Y1326971D01*
X3111571Y1329857D01*
X3136232Y1323020D01*
X3140815Y1319512D01*
X3146141Y1311541D01*
Y1304659D01*
X3138980Y1293942D01*
X3138007Y1289051D01*
X3190500D01*
Y1225551D01*
X3138007D01*
X3138980Y1220658D01*
X3146141Y1209941D01*
Y1203059D01*
X3138980Y1192342D01*
X3138007Y1187451D01*
X3190500D01*
Y1155701D01*
X3219511D01*
Y1131701D01*
X3222250Y1117931D01*
Y1100804D01*
X3224142Y1101180D01*
X3229334Y1104649D01*
X3232985Y1099185D01*
X3247903Y1089217D01*
X3265500Y1085716D01*
X3307500D01*
X3325097Y1089217D01*
X3340015Y1099185D01*
X3343169Y1103905D01*
X3412100D01*
Y1017000D01*
X3598300D01*
Y1052856D01*
X3640700D01*
Y1017000D01*
X3826900D01*
Y1053691D01*
X3847476Y1057784D01*
X3868481Y1071819D01*
X3906581Y1109919D01*
X3920616Y1130924D01*
X3925544Y1155700D01*
Y1332028D01*
X3927410Y1346200D01*
X3925544Y1360372D01*
Y1916456D01*
X4661076D01*
X4664636Y1898557D01*
X4675819Y1881819D01*
X4692557Y1870636D01*
X4712300Y1866709D01*
X4787300D01*
X4807043Y1870636D01*
X4823781Y1881819D01*
X4834278Y1897530D01*
X4865364D01*
X5234536Y1528358D01*
X5224816Y1504891D01*
X5160439D01*
X5140696Y1500964D01*
X5123959Y1489781D01*
X5112775Y1473043D01*
X5108848Y1453300D01*
Y1419354D01*
X5046446Y1356951D01*
X4828440D01*
Y1568600D01*
X4492240D01*
Y1555900D01*
X4447090D01*
Y1460501D01*
X4415340D01*
D01*
X4447090D01*
Y1365100D01*
X4492240D01*
Y1352400D01*
X4568830D01*
Y1304427D01*
X4556850D01*
X4537595Y1300597D01*
X4521271Y1289689D01*
X4514929D01*
X4498605Y1300597D01*
X4479350Y1304427D01*
X4338850D01*
X4319595Y1300597D01*
X4310703Y1294655D01*
X4251514D01*
X4247864Y1313003D01*
X4236681Y1329741D01*
X4219943Y1340924D01*
X4200200Y1344851D01*
Y1369618D01*
X4214988Y1372559D01*
X4227524Y1380936D01*
X4235901Y1393472D01*
X4238842Y1408260D01*
Y1414010D01*
X4140200D01*
X4041558D01*
Y1408260D01*
X4044499Y1393472D01*
X4052876Y1380936D01*
X4065412Y1372559D01*
X4080200Y1369618D01*
Y1344851D01*
X4060457Y1340924D01*
X4043719Y1329741D01*
X4032536Y1313003D01*
X4028609Y1293260D01*
Y1218260D01*
X4032536Y1198517D01*
X4036814Y1192115D01*
X4041642Y1173980D01*
X4036814Y1155845D01*
X4032536Y1149443D01*
X4032498Y1149256D01*
X4016301Y1146034D01*
X3997397Y1133403D01*
X3842086Y978091D01*
X3797900D01*
X3778157Y974164D01*
X3761419Y962981D01*
X3755248Y953744D01*
X3599000D01*
X3574223Y948816D01*
X3553219Y934781D01*
X3507964Y889526D01*
X3487000Y892286D01*
X3457161Y888358D01*
X3429357Y876841D01*
X3405480Y858520D01*
X3387159Y834643D01*
X3375642Y806838D01*
X3371714Y777000D01*
X3373904Y760366D01*
X3355452Y741913D01*
X3342960Y746472D01*
X3332575Y754958D01*
X3335477Y777000D01*
X3331985Y803523D01*
X3323913Y823012D01*
X3255450Y754549D01*
X3186988Y686087D01*
X3206477Y678015D01*
X3233000Y674523D01*
X3255042Y677425D01*
X3263528Y667040D01*
X3268086Y654548D01*
X3169282Y555744D01*
X1765938D01*
X1663157Y658524D01*
X1677546Y680058D01*
X1682477Y678015D01*
X1709000Y674523D01*
X1735523Y678015D01*
X1755011Y686087D01*
X1686549Y754549D01*
X1618087Y823011D01*
X1610015Y803523D01*
X1606523Y777000D01*
X1610015Y750477D01*
X1612057Y745546D01*
X1590524Y731158D01*
X1567308Y754374D01*
X1570286Y777000D01*
X1566358Y806838D01*
X1554841Y834643D01*
X1536520Y858520D01*
X1515084Y874968D01*
Y889000D01*
X1510156Y913776D01*
X1502135Y925780D01*
Y1039500D01*
X1530800D01*
Y1195700D01*
X1344600D01*
Y1039500D01*
X1398545D01*
Y925780D01*
X1390524Y913776D01*
X1385596Y889000D01*
Y867816D01*
X1373480Y858520D01*
X1355159Y834643D01*
X1343642Y806838D01*
X1339714Y777000D01*
X1343642Y747162D01*
X1355159Y719357D01*
X1373480Y695480D01*
X1397357Y677159D01*
X1425161Y665642D01*
X1455000Y661714D01*
X1474303Y664255D01*
X1693339Y445219D01*
X1714343Y431184D01*
X1739120Y426256D01*
X3196100D01*
X3220876Y431184D01*
X3241881Y445219D01*
X3461706Y665044D01*
X3487000Y661714D01*
X3516838Y665642D01*
X3544643Y677159D01*
X3568520Y695480D01*
X3586841Y719357D01*
X3598358Y747162D01*
X3602286Y777000D01*
X3599526Y797964D01*
X3625818Y824256D01*
X3755248D01*
X3761419Y815019D01*
X3778157Y803836D01*
X3797900Y799909D01*
X3872900D01*
X3892643Y803836D01*
X3909381Y815019D01*
X3920564Y831757D01*
X3924491Y851500D01*
Y895686D01*
X4045701Y1016895D01*
X4060457Y1007036D01*
X4080200Y1003109D01*
Y978342D01*
X4065412Y975401D01*
X4052876Y967024D01*
X4044499Y954488D01*
X4041558Y939700D01*
Y933950D01*
X4140200D01*
Y902200D01*
X4171950D01*
Y826058D01*
X4200200D01*
X4207225Y827455D01*
X4227755Y815416D01*
X4232625Y810235D01*
Y751790D01*
X4236567Y731969D01*
X4247795Y715165D01*
X4301085Y661875D01*
X4317889Y650647D01*
X4337710Y646705D01*
X4458439D01*
X4478260Y650647D01*
X4496958Y632593D01*
X4498910Y629671D01*
X4509545Y622565D01*
X4515589Y621363D01*
Y673100D01*
X4547339D01*
Y704850D01*
X4620534D01*
X4627872Y710416D01*
X4636389Y708721D01*
X4686889D01*
X4704389Y712202D01*
X4719224Y722115D01*
X4729137Y736951D01*
X4732618Y754450D01*
Y794950D01*
X4731712Y799505D01*
X4749037Y824905D01*
X4773568D01*
Y768950D01*
X4777495Y749207D01*
X4788679Y732469D01*
X4805416Y721286D01*
X4825159Y717359D01*
Y692592D01*
X4810371Y689651D01*
X4797835Y681274D01*
X4789458Y668738D01*
X4786517Y653950D01*
Y648201D01*
X4885159D01*
Y616451D01*
X4916909D01*
Y540308D01*
X4945159D01*
X4959947Y543249D01*
X4972484Y551626D01*
X4973471Y553104D01*
X5002587D01*
X5003575Y551626D01*
X5016111Y543249D01*
X5030899Y540308D01*
X5059149D01*
Y616451D01*
X5090899D01*
Y648201D01*
X5189542D01*
Y653950D01*
X5186600Y668738D01*
X5178224Y681274D01*
X5165687Y689651D01*
X5150900Y692592D01*
Y717359D01*
X5170642Y721286D01*
X5177225Y725684D01*
X5188964Y726330D01*
X5207780Y719126D01*
X5216176Y707497D01*
X5218307Y696784D01*
X5229534Y679980D01*
X5236466Y673049D01*
Y655315D01*
X5239966Y637718D01*
X5249934Y622800D01*
X5264852Y612832D01*
X5265164Y612770D01*
Y553895D01*
Y433895D01*
X5265552Y431945D01*
Y402020D01*
X5268441Y387495D01*
X5268266Y385168D01*
X5253899Y362445D01*
X5202804D01*
X5201724Y362968D01*
X5192134Y374900D01*
X5164229D01*
X5150460Y377639D01*
X5126460D01*
Y406650D01*
X5094710D01*
Y459143D01*
X5089817Y458170D01*
X5074778Y452434D01*
X5058961Y457650D01*
X5054070Y458623D01*
Y406129D01*
X4990570D01*
Y458623D01*
X4985677Y457650D01*
X4974960Y450489D01*
X4957361Y457910D01*
X4952470Y458883D01*
Y406390D01*
X4888970D01*
Y458883D01*
X4884077Y457910D01*
X4869018Y451009D01*
X4858301Y458170D01*
X4853410Y459143D01*
Y406650D01*
X4821660D01*
Y377639D01*
X4797660D01*
X4783890Y374900D01*
X4766763D01*
X4767139Y373008D01*
X4770608Y367816D01*
X4765144Y364165D01*
X4755176Y349247D01*
X4751676Y331650D01*
Y289650D01*
X4755176Y272053D01*
X4765144Y257135D01*
X4780062Y247167D01*
X4797659Y243667D01*
X4845659D01*
X4863256Y247167D01*
X4870995Y252337D01*
X4879122Y246907D01*
X4896719Y243406D01*
X4944719D01*
X4962316Y246907D01*
X4971325Y252926D01*
X4980722Y246647D01*
X4998319Y243147D01*
X5046319D01*
X5063916Y246647D01*
X5074778Y253905D01*
X5084862Y247167D01*
X5102459Y243667D01*
X5150459D01*
X5168056Y247167D01*
X5182974Y257135D01*
X5184123Y258855D01*
X5289050D01*
X5308871Y262797D01*
X5325675Y274025D01*
X5403584Y351935D01*
X5408965Y359988D01*
X5426334D01*
X5442419Y363187D01*
X5456056Y372299D01*
X5461205Y380005D01*
X5472809D01*
X5492631Y383947D01*
X5509434Y395175D01*
X5583841Y469582D01*
X5586525Y471375D01*
X5595646Y480497D01*
X5605240Y481760D01*
X5621305Y488414D01*
X5635100Y499000D01*
X5645686Y512795D01*
X5652340Y528860D01*
X5654610Y546100D01*
X5652340Y563340D01*
X5645686Y579405D01*
X5635100Y593200D01*
X5621305Y603786D01*
X5605240Y610440D01*
X5588000Y612710D01*
X5570760Y610440D01*
X5554695Y603786D01*
X5540900Y593200D01*
X5517726Y604724D01*
X5515305Y606581D01*
X5499240Y613235D01*
X5482000Y615505D01*
X5464760Y613235D01*
X5459123Y610900D01*
X5456056Y615491D01*
X5445086Y630239D01*
X5450969Y642674D01*
X5451942Y647565D01*
X5399449D01*
Y711065D01*
X5459458D01*
X5471190Y726284D01*
X5472689Y727050D01*
X5503259D01*
Y727880D01*
X5511289D01*
X5533588Y732316D01*
X5552492Y744947D01*
X5629942Y822397D01*
X5642573Y841301D01*
X5647009Y863600D01*
Y1256561D01*
X5642573Y1278860D01*
X5629942Y1297764D01*
X4930703Y1997003D01*
X4911799Y2009634D01*
X4889500Y2014070D01*
X4834278D01*
X4823781Y2029781D01*
X4807043Y2040964D01*
X4787300Y2044891D01*
X4729693D01*
X4724400Y2045944D01*
D02*
G37*
G36*
X699555Y1344295D02*
X650905D01*
Y1310645D01*
X699555D01*
Y1344295D01*
D02*
G37*
G36*
X587405D02*
X538755D01*
Y1310645D01*
X587405D01*
Y1344295D01*
D02*
G37*
G36*
Y1247145D02*
X538755D01*
Y1213495D01*
X587405D01*
Y1247145D01*
D02*
G37*
G36*
X557650Y1175843D02*
X552758Y1174870D01*
X542041Y1167709D01*
X534880Y1156992D01*
X534503Y1155100D01*
X557650D01*
Y1175843D01*
D02*
G37*
G36*
X1208100Y1183000D02*
X1159450D01*
Y1149350D01*
X1208100D01*
Y1183000D01*
D02*
G37*
G36*
X1095950D02*
X1047300D01*
Y1149350D01*
X1095950D01*
Y1183000D01*
D02*
G37*
G36*
X3158750Y1123951D02*
X3138007D01*
X3138980Y1119058D01*
X3146141Y1108341D01*
X3156858Y1101180D01*
X3158750Y1100804D01*
Y1123951D01*
D02*
G37*
G36*
X1208100Y1085850D02*
X1159450D01*
Y1052200D01*
X1208100D01*
Y1085850D01*
D02*
G37*
G36*
X1095950D02*
X1047300D01*
Y1052200D01*
X1095950D01*
Y1085850D01*
D02*
G37*
G36*
X4108450Y870450D02*
X4041558D01*
Y864700D01*
X4044499Y849912D01*
X4052876Y837376D01*
X4065412Y828999D01*
X4080200Y826058D01*
X4108450D01*
Y870450D01*
D02*
G37*
G36*
X1709000Y879477D02*
X1682477Y875985D01*
X1662988Y867913D01*
X1709000Y821901D01*
X1755011Y867913D01*
X1735523Y875985D01*
X1709000Y879477D01*
D02*
G37*
G36*
X3233000D02*
X3206477Y875985D01*
X3186988Y867913D01*
X3233000Y821901D01*
X3279011Y867913D01*
X3259523Y875985D01*
X3233000Y879477D01*
D02*
G37*
G36*
X3142087Y823011D02*
X3134015Y803523D01*
X3130523Y777000D01*
X3134015Y750477D01*
X3142087Y730988D01*
X3188099Y777000D01*
X3142087Y823011D01*
D02*
G37*
G36*
X1799913Y823012D02*
X1753901Y777000D01*
X1799913Y730988D01*
X1807985Y750477D01*
X1811477Y777000D01*
X1807985Y803523D01*
X1799913Y823012D01*
D02*
G37*
G36*
X622550Y732220D02*
X617383Y728767D01*
X610664Y718712D01*
X608304Y706850D01*
Y704850D01*
X622550D01*
Y732220D01*
D02*
G37*
G36*
X4603081Y641350D02*
X4579089D01*
Y621363D01*
X4585133Y622565D01*
X4595768Y629671D01*
X4602874Y640306D01*
X4603081Y641350D01*
D02*
G37*
G36*
X622550D02*
X608304D01*
Y639350D01*
X610664Y627488D01*
X617383Y617433D01*
X622550Y613980D01*
Y641350D01*
D02*
G37*
G36*
X5189542Y584701D02*
X5122649D01*
Y540308D01*
X5150899D01*
X5165687Y543249D01*
X5178224Y551626D01*
X5186600Y564162D01*
X5189542Y578950D01*
Y584701D01*
D02*
G37*
G36*
X4853409D02*
X4786517D01*
Y578950D01*
X4789458Y564162D01*
X4797835Y551626D01*
X4810371Y543249D01*
X4825159Y540308D01*
X4853409D01*
Y584701D01*
D02*
G37*
G36*
X859300Y453294D02*
X829300D01*
X812483Y449949D01*
X796800Y441218D01*
X781117Y449949D01*
X764300Y453294D01*
X734300D01*
X717483Y449949D01*
X701800Y441218D01*
X686116Y449949D01*
X669300Y453294D01*
X639300D01*
X622483Y449949D01*
X608227Y440423D01*
X598701Y426167D01*
X595356Y409350D01*
Y341850D01*
X598701Y325033D01*
X608227Y310777D01*
X622483Y301251D01*
X639300Y297906D01*
X669300D01*
X686117Y301251D01*
X701800Y309982D01*
X717483Y301251D01*
X734300Y297906D01*
X764300D01*
X781117Y301251D01*
X796800Y309982D01*
X812484Y301251D01*
X829300Y297906D01*
X859300D01*
X876117Y301251D01*
X890373Y310777D01*
X899899Y325033D01*
X903244Y341850D01*
Y409350D01*
X899899Y426167D01*
X890373Y440423D01*
X876117Y449949D01*
X859300Y453294D01*
D02*
G37*
G36*
X5158210Y459143D02*
Y438400D01*
X5181356D01*
X5180979Y440292D01*
X5173818Y451009D01*
X5163101Y458170D01*
X5158210Y459143D01*
D02*
G37*
G36*
X4789910Y459143D02*
X4785017Y458170D01*
X4774300Y451009D01*
X4767139Y440292D01*
X4766763Y438400D01*
X4789910D01*
Y459143D01*
D02*
G37*
G36*
X3487000Y512523D02*
X3458156Y508726D01*
X3431278Y497593D01*
X3408197Y479882D01*
X3390487Y456802D01*
X3379354Y429924D01*
X3375556Y401080D01*
X3379354Y372236D01*
X3390487Y345358D01*
X3408197Y322277D01*
X3431278Y304567D01*
X3458156Y293434D01*
X3487000Y289636D01*
X3515844Y293434D01*
X3542722Y304567D01*
X3565802Y322277D01*
X3583513Y345358D01*
X3594646Y372236D01*
X3598443Y401080D01*
X3594646Y429924D01*
X3583513Y456802D01*
X3565802Y479882D01*
X3542722Y497593D01*
X3515844Y508726D01*
X3487000Y512523D01*
D02*
G37*
G36*
X1455000D02*
X1426156Y508726D01*
X1399278Y497593D01*
X1376197Y479882D01*
X1358487Y456802D01*
X1347354Y429924D01*
X1343556Y401080D01*
X1347354Y372236D01*
X1358487Y345358D01*
X1376197Y322277D01*
X1399278Y304567D01*
X1426156Y293434D01*
X1455000Y289636D01*
X1483844Y293434D01*
X1510722Y304567D01*
X1533802Y322277D01*
X1551513Y345358D01*
X1562646Y372236D01*
X1566443Y401080D01*
X1562646Y429924D01*
X1551513Y456802D01*
X1533802Y479882D01*
X1510722Y497593D01*
X1483844Y508726D01*
X1455000Y512523D01*
D02*
G37*
%LPD*%
G36*
X504658Y1749320D02*
X505220Y1749249D01*
X505924Y1749109D01*
X506698Y1748898D01*
X507542Y1748616D01*
X508457Y1748264D01*
Y1743199D01*
X508387Y1743269D01*
X508105Y1743410D01*
X507683Y1743621D01*
X507120Y1743832D01*
X506557Y1744043D01*
X505854Y1744254D01*
X505220Y1744395D01*
X504587Y1744465D01*
X504235D01*
X503954Y1744395D01*
X503321Y1744254D01*
X502547Y1743973D01*
X501773Y1743480D01*
X501421Y1743128D01*
X501140Y1742777D01*
X500858Y1742284D01*
X500718Y1741721D01*
X500577Y1741088D01*
X500506Y1740384D01*
Y1740314D01*
Y1740103D01*
X500577Y1739822D01*
Y1739399D01*
X500647Y1738837D01*
X500788Y1738274D01*
X500929Y1737570D01*
X501140Y1736796D01*
X501210Y1736726D01*
X501280Y1736374D01*
X501492Y1735881D01*
X501843Y1735108D01*
X502336Y1734052D01*
X502617Y1733419D01*
X502969Y1732786D01*
X503391Y1732012D01*
X503813Y1731167D01*
X504306Y1730253D01*
X504798Y1729268D01*
X504869Y1729197D01*
X504939Y1729057D01*
X505080Y1728775D01*
X505291Y1728353D01*
X505502Y1727931D01*
X505783Y1727368D01*
X506417Y1726172D01*
X507120Y1724835D01*
X507753Y1723428D01*
X508316Y1722091D01*
X508738Y1720895D01*
X508809Y1720754D01*
X508879Y1720403D01*
X509020Y1719840D01*
X509231Y1719207D01*
X509372Y1718362D01*
X509512Y1717518D01*
X509583Y1716603D01*
X509653Y1715759D01*
Y1715689D01*
Y1715548D01*
Y1715337D01*
X509583Y1715055D01*
X509512Y1714282D01*
X509372Y1713297D01*
X509020Y1712171D01*
X508598Y1711045D01*
X508035Y1709849D01*
X507191Y1708794D01*
X507050Y1708653D01*
X506768Y1708371D01*
X506205Y1707949D01*
X505502Y1707457D01*
X504587Y1706964D01*
X503532Y1706542D01*
X502336Y1706261D01*
X500929Y1706120D01*
X500436D01*
X499873Y1706190D01*
X499240Y1706331D01*
X498396Y1706542D01*
X497481Y1706824D01*
X496566Y1707175D01*
X495581Y1707738D01*
Y1713367D01*
X495722Y1713297D01*
X496004Y1713015D01*
X496496Y1712663D01*
X497059Y1712241D01*
X497763Y1711749D01*
X498607Y1711397D01*
X499451Y1711115D01*
X500295Y1711045D01*
X500577D01*
X500929Y1711115D01*
X501280Y1711186D01*
X501773Y1711327D01*
X502195Y1711538D01*
X502688Y1711819D01*
X503180Y1712171D01*
X503250Y1712241D01*
X503391Y1712382D01*
X503602Y1712663D01*
X503813Y1713015D01*
X504024Y1713437D01*
X504235Y1713930D01*
X504376Y1714422D01*
X504447Y1715055D01*
Y1715126D01*
Y1715337D01*
Y1715618D01*
X504376Y1716041D01*
X504306Y1716533D01*
X504165Y1717166D01*
X503954Y1717870D01*
X503743Y1718573D01*
Y1718644D01*
X503602Y1718996D01*
X503391Y1719558D01*
X503039Y1720332D01*
X502547Y1721388D01*
X502195Y1722021D01*
X501843Y1722725D01*
X501492Y1723498D01*
X501069Y1724343D01*
X500577Y1725257D01*
X500014Y1726242D01*
Y1726313D01*
X499873Y1726524D01*
X499733Y1726805D01*
X499521Y1727157D01*
X499310Y1727650D01*
X499029Y1728142D01*
X498396Y1729409D01*
X497763Y1730745D01*
X497129Y1732152D01*
X496566Y1733419D01*
X496144Y1734615D01*
Y1734756D01*
X496004Y1735108D01*
X495863Y1735670D01*
X495722Y1736304D01*
X495581Y1737148D01*
X495441Y1737992D01*
X495370Y1738837D01*
X495300Y1739681D01*
Y1739751D01*
Y1739892D01*
Y1740103D01*
X495370Y1740384D01*
X495441Y1741158D01*
X495581Y1742143D01*
X495863Y1743269D01*
X496285Y1744465D01*
X496918Y1745591D01*
X497692Y1746646D01*
X497833Y1746787D01*
X498114Y1747068D01*
X498677Y1747491D01*
X499381Y1748053D01*
X500225Y1748546D01*
X501351Y1748968D01*
X502547Y1749249D01*
X503884Y1749390D01*
X504235D01*
X504658Y1749320D01*
D02*
G37*
G36*
X735784Y1706683D02*
X730507D01*
X730788Y1737148D01*
X730648Y1737218D01*
X725300Y1723358D01*
X724315D01*
X718968Y1737218D01*
X718827Y1737148D01*
X719179Y1706683D01*
X713902D01*
Y1748827D01*
X718476D01*
X724808Y1733349D01*
X731140Y1748827D01*
X735784D01*
Y1706683D01*
D02*
G37*
G36*
X619482D02*
X614205D01*
X614486Y1737148D01*
X614346Y1737218D01*
X608999Y1723358D01*
X608014D01*
X602666Y1737218D01*
X602526Y1737148D01*
X602877Y1706683D01*
X597601D01*
Y1748827D01*
X602174D01*
X608506Y1733349D01*
X614838Y1748827D01*
X619482D01*
Y1706683D01*
D02*
G37*
G36*
X707007Y1717518D02*
Y1717448D01*
Y1717307D01*
Y1716955D01*
X706937Y1716603D01*
Y1716111D01*
X706867Y1715618D01*
X706655Y1714352D01*
X706304Y1713015D01*
X705811Y1711608D01*
X705108Y1710201D01*
X704193Y1709005D01*
X704052Y1708864D01*
X703700Y1708583D01*
X703138Y1708090D01*
X702293Y1707598D01*
X701379Y1707035D01*
X700253Y1706542D01*
X698986Y1706261D01*
X697579Y1706120D01*
X697227D01*
X696946Y1706190D01*
X696172Y1706261D01*
X695257Y1706472D01*
X694202Y1706894D01*
X693076Y1707386D01*
X691951Y1708160D01*
X691388Y1708583D01*
X690895Y1709145D01*
Y1709216D01*
X690755Y1709286D01*
X690473Y1709708D01*
X690051Y1710342D01*
X689558Y1711256D01*
X689066Y1712382D01*
X688644Y1713719D01*
X688362Y1715267D01*
X688222Y1717026D01*
Y1748827D01*
X693639D01*
Y1717166D01*
Y1717096D01*
Y1716885D01*
Y1716603D01*
X693710Y1716252D01*
X693850Y1715267D01*
X694132Y1714211D01*
X694624Y1713085D01*
X695328Y1712100D01*
X695750Y1711749D01*
X696313Y1711467D01*
X696876Y1711256D01*
X697579Y1711186D01*
X697861D01*
X698212Y1711256D01*
X698635Y1711397D01*
X699057Y1711538D01*
X699549Y1711819D01*
X700042Y1712171D01*
X700464Y1712663D01*
X700534Y1712734D01*
X700675Y1712945D01*
X700816Y1713297D01*
X701027Y1713719D01*
X701238Y1714352D01*
X701449Y1715055D01*
X701519Y1715900D01*
X701590Y1716885D01*
Y1748827D01*
X707007D01*
Y1717518D01*
D02*
G37*
G36*
X533504D02*
Y1717448D01*
Y1717307D01*
Y1716955D01*
X533434Y1716603D01*
Y1716111D01*
X533364Y1715618D01*
X533153Y1714352D01*
X532801Y1713015D01*
X532308Y1711608D01*
X531605Y1710201D01*
X530690Y1709005D01*
X530549Y1708864D01*
X530198Y1708583D01*
X529635Y1708090D01*
X528790Y1707598D01*
X527876Y1707035D01*
X526750Y1706542D01*
X525484Y1706261D01*
X524076Y1706120D01*
X523725D01*
X523443Y1706190D01*
X522669Y1706261D01*
X521755Y1706472D01*
X520699Y1706894D01*
X519574Y1707386D01*
X518448Y1708160D01*
X517885Y1708583D01*
X517392Y1709145D01*
Y1709216D01*
X517252Y1709286D01*
X516970Y1709708D01*
X516548Y1710342D01*
X516056Y1711256D01*
X515563Y1712382D01*
X515141Y1713719D01*
X514860Y1715267D01*
X514719Y1717026D01*
Y1748827D01*
X520136D01*
Y1717166D01*
Y1717096D01*
Y1716885D01*
Y1716603D01*
X520207Y1716252D01*
X520347Y1715267D01*
X520629Y1714211D01*
X521121Y1713085D01*
X521825Y1712100D01*
X522247Y1711749D01*
X522810Y1711467D01*
X523373Y1711256D01*
X524076Y1711186D01*
X524358D01*
X524710Y1711256D01*
X525132Y1711397D01*
X525554Y1711538D01*
X526046Y1711819D01*
X526539Y1712171D01*
X526961Y1712663D01*
X527031Y1712734D01*
X527172Y1712945D01*
X527313Y1713297D01*
X527524Y1713719D01*
X527735Y1714352D01*
X527946Y1715055D01*
X528016Y1715900D01*
X528087Y1716885D01*
Y1748827D01*
X533504D01*
Y1717518D01*
D02*
G37*
G36*
X793266Y1749179D02*
X794110Y1749109D01*
X795095Y1748827D01*
X796221Y1748476D01*
X797417Y1747913D01*
X798543Y1747139D01*
X799106Y1746646D01*
X799598Y1746083D01*
X799739Y1745943D01*
X799809Y1745732D01*
X800020Y1745521D01*
X800443Y1744817D01*
X800935Y1743832D01*
X801357Y1742565D01*
X801779Y1741088D01*
X802061Y1739399D01*
X802202Y1737429D01*
Y1737359D01*
Y1737218D01*
Y1736937D01*
Y1736585D01*
X802131Y1736163D01*
Y1735600D01*
X802061Y1735037D01*
X801920Y1734334D01*
X801709Y1732786D01*
X801357Y1731027D01*
X800865Y1729127D01*
X800161Y1727087D01*
Y1727016D01*
X800091Y1726805D01*
X799950Y1726524D01*
X799739Y1726102D01*
X799528Y1725539D01*
X799247Y1724835D01*
X798895Y1724061D01*
X798543Y1723147D01*
X798050Y1722091D01*
X797558Y1720966D01*
X796995Y1719699D01*
X796362Y1718362D01*
X795658Y1716955D01*
X794884Y1715407D01*
X794110Y1713789D01*
X793196Y1712030D01*
X803116D01*
Y1706683D01*
X785597D01*
Y1707457D01*
Y1707527D01*
X785738Y1707668D01*
X785879Y1707949D01*
X786090Y1708301D01*
X786301Y1708723D01*
X786652Y1709216D01*
X786934Y1709849D01*
X787356Y1710482D01*
X788130Y1712030D01*
X789115Y1713859D01*
X790100Y1715829D01*
X791155Y1717940D01*
X792140Y1720262D01*
X793125Y1722584D01*
X794110Y1725046D01*
X794955Y1727439D01*
X795658Y1729831D01*
X796151Y1732152D01*
X796503Y1734404D01*
X796643Y1736444D01*
Y1736515D01*
Y1736585D01*
Y1737007D01*
X796573Y1737570D01*
X796432Y1738274D01*
X796292Y1739118D01*
X796010Y1739962D01*
X795588Y1740807D01*
X795095Y1741580D01*
X795025Y1741651D01*
X794814Y1741862D01*
X794533Y1742214D01*
X794040Y1742565D01*
X793477Y1742917D01*
X792844Y1743269D01*
X792000Y1743480D01*
X791155Y1743550D01*
X790804D01*
X790452Y1743480D01*
X789889Y1743410D01*
X789256Y1743199D01*
X788411Y1742988D01*
X787497Y1742636D01*
X786441Y1742143D01*
Y1747702D01*
X786512D01*
X786582Y1747772D01*
X787004Y1747913D01*
X787637Y1748194D01*
X788411Y1748476D01*
X789326Y1748757D01*
X790381Y1749038D01*
X791507Y1749179D01*
X792563Y1749249D01*
X792985D01*
X793266Y1749179D01*
D02*
G37*
G36*
X769485Y1748757D02*
X769907D01*
X770470Y1748687D01*
X771666Y1748405D01*
X773003Y1748053D01*
X774340Y1747491D01*
X775677Y1746646D01*
X776310Y1746154D01*
X776873Y1745591D01*
X777013Y1745450D01*
X777154Y1745239D01*
X777295Y1745028D01*
X777787Y1744324D01*
X778350Y1743339D01*
X778843Y1742143D01*
X779335Y1740666D01*
X779617Y1739048D01*
X779757Y1737148D01*
Y1737078D01*
Y1736866D01*
Y1736585D01*
X779687Y1736163D01*
X779617Y1735670D01*
X779546Y1735108D01*
X779195Y1733771D01*
X778702Y1732293D01*
X778350Y1731519D01*
X777858Y1730745D01*
X777365Y1730042D01*
X776802Y1729338D01*
X776099Y1728705D01*
X775325Y1728072D01*
X775395D01*
X775466Y1727931D01*
X775677Y1727790D01*
X775888Y1727509D01*
X776169Y1727227D01*
X776521Y1726805D01*
X776873Y1726242D01*
X777295Y1725609D01*
X777787Y1724835D01*
X778210Y1723921D01*
X778702Y1722865D01*
X779195Y1721669D01*
X779687Y1720332D01*
X780180Y1718855D01*
X780672Y1717166D01*
X781094Y1715337D01*
X783064Y1706683D01*
X777365D01*
X775677Y1713930D01*
Y1714000D01*
X775606Y1714282D01*
X775536Y1714633D01*
X775395Y1715126D01*
X775254Y1715759D01*
X775043Y1716463D01*
X774692Y1718011D01*
X774199Y1719629D01*
X773707Y1721247D01*
X773425Y1721951D01*
X773144Y1722584D01*
X772933Y1723217D01*
X772651Y1723639D01*
X772581Y1723710D01*
X772440Y1723991D01*
X772159Y1724272D01*
X771807Y1724695D01*
X771314Y1725046D01*
X770752Y1725328D01*
X770189Y1725539D01*
X769485D01*
Y1706683D01*
X764068D01*
Y1748827D01*
X769063D01*
X769485Y1748757D01*
D02*
G37*
G36*
X681186Y1706683D02*
X675768D01*
Y1748827D01*
X681186D01*
Y1706683D01*
D02*
G37*
G36*
X655998Y1748757D02*
X656701Y1748687D01*
X657616Y1748476D01*
X658742Y1748194D01*
X659938Y1747702D01*
X661275Y1747068D01*
X662611Y1746224D01*
X663948Y1745098D01*
X664652Y1744395D01*
X665285Y1743691D01*
X665918Y1742917D01*
X666481Y1742003D01*
X667044Y1741018D01*
X667607Y1739962D01*
X668099Y1738766D01*
X668521Y1737570D01*
X668944Y1736163D01*
X669225Y1734756D01*
X669506Y1733138D01*
X669717Y1731519D01*
X669788Y1729690D01*
X669858Y1727790D01*
Y1727650D01*
Y1727298D01*
Y1726805D01*
X669788Y1726102D01*
X669717Y1725187D01*
X669647Y1724202D01*
X669577Y1723076D01*
X669436Y1721880D01*
X669014Y1719347D01*
X668381Y1716674D01*
X667959Y1715407D01*
X667466Y1714211D01*
X666903Y1713015D01*
X666270Y1711960D01*
X666200Y1711889D01*
X666129Y1711749D01*
X665918Y1711467D01*
X665637Y1711115D01*
X665215Y1710764D01*
X664792Y1710271D01*
X664230Y1709849D01*
X663667Y1709356D01*
X662963Y1708864D01*
X662189Y1708371D01*
X661415Y1707879D01*
X660501Y1707527D01*
X659516Y1707175D01*
X658460Y1706894D01*
X657334Y1706753D01*
X656138Y1706683D01*
X649454D01*
Y1748827D01*
X655716D01*
X655998Y1748757D01*
D02*
G37*
G36*
X641715Y1743762D02*
X632146D01*
Y1731167D01*
X640941D01*
Y1726102D01*
X632146D01*
Y1711749D01*
X642278D01*
Y1706683D01*
X626729D01*
Y1748827D01*
X641715D01*
Y1743762D01*
D02*
G37*
G36*
X569457Y1706683D02*
X564040D01*
Y1748827D01*
X569457D01*
Y1706683D01*
D02*
G37*
G36*
X547506Y1748757D02*
X547998D01*
X548561Y1748687D01*
X549827Y1748405D01*
X551305Y1748053D01*
X552853Y1747491D01*
X554330Y1746717D01*
X555034Y1746224D01*
X555738Y1745661D01*
X555808D01*
X555878Y1745521D01*
X556300Y1745098D01*
X556863Y1744395D01*
X557496Y1743410D01*
X558130Y1742214D01*
X558622Y1740736D01*
X559044Y1739048D01*
X559115Y1738133D01*
X559185Y1737148D01*
Y1737078D01*
Y1736937D01*
Y1736585D01*
X559115Y1736233D01*
Y1735741D01*
X559044Y1735248D01*
X558763Y1733982D01*
X558411Y1732575D01*
X557848Y1731097D01*
X557074Y1729690D01*
X556582Y1728986D01*
X556019Y1728353D01*
X555878Y1728212D01*
X555667Y1728072D01*
X555456Y1727861D01*
X554753Y1727368D01*
X553767Y1726805D01*
X552501Y1726172D01*
X551024Y1725680D01*
X549335Y1725328D01*
X548350Y1725257D01*
X547365Y1725187D01*
X546239D01*
Y1706683D01*
X540822D01*
Y1748827D01*
X547083D01*
X547506Y1748757D01*
D02*
G37*
G36*
X504658Y1697621D02*
X505220Y1697550D01*
X505924Y1697410D01*
X506698Y1697199D01*
X507542Y1696917D01*
X508457Y1696565D01*
Y1691500D01*
X508387Y1691570D01*
X508105Y1691711D01*
X507683Y1691922D01*
X507120Y1692133D01*
X506557Y1692344D01*
X505854Y1692555D01*
X505220Y1692696D01*
X504587Y1692766D01*
X504235D01*
X503954Y1692696D01*
X503321Y1692555D01*
X502547Y1692273D01*
X501773Y1691781D01*
X501421Y1691429D01*
X501140Y1691077D01*
X500858Y1690585D01*
X500718Y1690022D01*
X500577Y1689389D01*
X500506Y1688685D01*
Y1688615D01*
Y1688404D01*
X500577Y1688122D01*
Y1687700D01*
X500647Y1687137D01*
X500788Y1686574D01*
X500929Y1685871D01*
X501140Y1685097D01*
X501210Y1685027D01*
X501280Y1684675D01*
X501492Y1684182D01*
X501843Y1683408D01*
X502336Y1682353D01*
X502617Y1681720D01*
X502969Y1681087D01*
X503391Y1680313D01*
X503813Y1679468D01*
X504306Y1678554D01*
X504798Y1677569D01*
X504869Y1677498D01*
X504939Y1677358D01*
X505080Y1677076D01*
X505291Y1676654D01*
X505502Y1676232D01*
X505783Y1675669D01*
X506417Y1674473D01*
X507120Y1673136D01*
X507753Y1671729D01*
X508316Y1670392D01*
X508738Y1669196D01*
X508809Y1669055D01*
X508879Y1668704D01*
X509020Y1668141D01*
X509231Y1667507D01*
X509372Y1666663D01*
X509512Y1665819D01*
X509583Y1664904D01*
X509653Y1664060D01*
Y1663990D01*
Y1663849D01*
Y1663638D01*
X509583Y1663356D01*
X509512Y1662582D01*
X509372Y1661597D01*
X509020Y1660472D01*
X508598Y1659346D01*
X508035Y1658150D01*
X507191Y1657094D01*
X507050Y1656954D01*
X506768Y1656672D01*
X506205Y1656250D01*
X505502Y1655758D01*
X504587Y1655265D01*
X503532Y1654843D01*
X502336Y1654562D01*
X500929Y1654421D01*
X500436D01*
X499873Y1654491D01*
X499240Y1654632D01*
X498396Y1654843D01*
X497481Y1655124D01*
X496566Y1655476D01*
X495581Y1656039D01*
Y1661668D01*
X495722Y1661597D01*
X496004Y1661316D01*
X496496Y1660964D01*
X497059Y1660542D01*
X497763Y1660050D01*
X498607Y1659698D01*
X499451Y1659416D01*
X500295Y1659346D01*
X500577D01*
X500929Y1659416D01*
X501280Y1659487D01*
X501773Y1659627D01*
X502195Y1659838D01*
X502688Y1660120D01*
X503180Y1660472D01*
X503250Y1660542D01*
X503391Y1660683D01*
X503602Y1660964D01*
X503813Y1661316D01*
X504024Y1661738D01*
X504235Y1662231D01*
X504376Y1662723D01*
X504447Y1663356D01*
Y1663427D01*
Y1663638D01*
Y1663919D01*
X504376Y1664341D01*
X504306Y1664834D01*
X504165Y1665467D01*
X503954Y1666171D01*
X503743Y1666874D01*
Y1666945D01*
X503602Y1667296D01*
X503391Y1667859D01*
X503039Y1668633D01*
X502547Y1669689D01*
X502195Y1670322D01*
X501843Y1671025D01*
X501492Y1671799D01*
X501069Y1672644D01*
X500577Y1673558D01*
X500014Y1674543D01*
Y1674614D01*
X499873Y1674825D01*
X499733Y1675106D01*
X499521Y1675458D01*
X499310Y1675950D01*
X499029Y1676443D01*
X498396Y1677709D01*
X497763Y1679046D01*
X497129Y1680453D01*
X496566Y1681720D01*
X496144Y1682916D01*
Y1683057D01*
X496004Y1683408D01*
X495863Y1683971D01*
X495722Y1684604D01*
X495581Y1685449D01*
X495441Y1686293D01*
X495370Y1687137D01*
X495300Y1687982D01*
Y1688052D01*
Y1688193D01*
Y1688404D01*
X495370Y1688685D01*
X495441Y1689459D01*
X495581Y1690444D01*
X495863Y1691570D01*
X496285Y1692766D01*
X496918Y1693892D01*
X497692Y1694947D01*
X497833Y1695088D01*
X498114Y1695369D01*
X498677Y1695791D01*
X499381Y1696354D01*
X500225Y1696847D01*
X501351Y1697269D01*
X502547Y1697550D01*
X503884Y1697691D01*
X504235D01*
X504658Y1697621D01*
D02*
G37*
G36*
X673095Y1697550D02*
X673798Y1697410D01*
X674713Y1697128D01*
X675698Y1696776D01*
X676753Y1696214D01*
X677949Y1695440D01*
Y1690022D01*
X677809Y1690163D01*
X677457Y1690444D01*
X676964Y1690866D01*
X676261Y1691359D01*
X675416Y1691781D01*
X674502Y1692203D01*
X673517Y1692485D01*
X672461Y1692625D01*
X672321D01*
X671969Y1692555D01*
X671336Y1692414D01*
X670632Y1692133D01*
X669858Y1691711D01*
X669084Y1691007D01*
X668732Y1690585D01*
X668381Y1690022D01*
X668029Y1689459D01*
X667747Y1688756D01*
Y1688685D01*
X667677Y1688545D01*
X667607Y1688333D01*
X667536Y1688052D01*
X667396Y1687630D01*
X667325Y1687067D01*
X667185Y1686434D01*
X667044Y1685730D01*
X666903Y1684886D01*
X666762Y1683971D01*
X666692Y1682916D01*
X666551Y1681790D01*
X666481Y1680524D01*
X666411Y1679117D01*
X666340Y1677639D01*
Y1676021D01*
Y1675950D01*
Y1675669D01*
Y1675176D01*
Y1674614D01*
X666411Y1673840D01*
Y1673066D01*
X666481Y1672151D01*
X666551Y1671166D01*
X666692Y1669055D01*
X666974Y1666945D01*
X667114Y1665960D01*
X667325Y1665045D01*
X667536Y1664130D01*
X667818Y1663356D01*
Y1663286D01*
X667888Y1663216D01*
X668099Y1662723D01*
X668451Y1662160D01*
X669014Y1661457D01*
X669647Y1660683D01*
X670491Y1660120D01*
X671476Y1659627D01*
X672039Y1659557D01*
X672673Y1659487D01*
X672813D01*
X673095Y1659557D01*
X673587Y1659627D01*
X674291Y1659838D01*
X675135Y1660261D01*
X676120Y1660753D01*
X677175Y1661527D01*
X677809Y1661949D01*
X678442Y1662512D01*
Y1656743D01*
X678301Y1656672D01*
X677879Y1656391D01*
X677316Y1656039D01*
X676472Y1655617D01*
X675487Y1655124D01*
X674431Y1654773D01*
X673235Y1654491D01*
X671969Y1654421D01*
X671758D01*
X671476Y1654491D01*
X671054D01*
X670632Y1654562D01*
X670069Y1654702D01*
X668873Y1655124D01*
X668240Y1655406D01*
X667536Y1655758D01*
X666833Y1656180D01*
X666129Y1656743D01*
X665496Y1657376D01*
X664792Y1658079D01*
X664159Y1658924D01*
X663596Y1659909D01*
Y1659979D01*
X663456Y1660190D01*
X663315Y1660472D01*
X663104Y1660964D01*
X662893Y1661527D01*
X662682Y1662231D01*
X662400Y1663005D01*
X662119Y1663990D01*
X661837Y1665045D01*
X661556Y1666241D01*
X661345Y1667507D01*
X661134Y1668985D01*
X660923Y1670533D01*
X660782Y1672151D01*
X660712Y1673910D01*
X660641Y1675810D01*
Y1675950D01*
Y1676232D01*
Y1676795D01*
X660712Y1677498D01*
Y1678343D01*
X660782Y1679398D01*
X660923Y1680453D01*
X660993Y1681649D01*
X661345Y1684253D01*
X661908Y1686926D01*
X662611Y1689530D01*
X663104Y1690726D01*
X663596Y1691851D01*
X663667Y1691922D01*
X663737Y1692133D01*
X663878Y1692414D01*
X664159Y1692766D01*
X664792Y1693681D01*
X665777Y1694806D01*
X666974Y1695862D01*
X668451Y1696776D01*
X669295Y1697128D01*
X670140Y1697410D01*
X671125Y1697621D01*
X672110Y1697691D01*
X672602D01*
X673095Y1697550D01*
D02*
G37*
G36*
X731984Y1654984D02*
X726707D01*
X726989Y1685449D01*
X726848Y1685519D01*
X721501Y1671659D01*
X720516D01*
X715169Y1685519D01*
X715028Y1685449D01*
X715380Y1654984D01*
X710103D01*
Y1697128D01*
X714676D01*
X721008Y1681649D01*
X727341Y1697128D01*
X731984D01*
Y1654984D01*
D02*
G37*
G36*
X606114Y1654421D02*
X602385D01*
X594645Y1697128D01*
X600344D01*
X604285Y1668704D01*
X608225Y1697128D01*
X613924D01*
X606114Y1654421D01*
D02*
G37*
G36*
X533504Y1665819D02*
Y1665749D01*
Y1665608D01*
Y1665256D01*
X533434Y1664904D01*
Y1664412D01*
X533364Y1663919D01*
X533153Y1662653D01*
X532801Y1661316D01*
X532308Y1659909D01*
X531605Y1658502D01*
X530690Y1657306D01*
X530549Y1657165D01*
X530198Y1656883D01*
X529635Y1656391D01*
X528790Y1655898D01*
X527876Y1655336D01*
X526750Y1654843D01*
X525484Y1654562D01*
X524076Y1654421D01*
X523725D01*
X523443Y1654491D01*
X522669Y1654562D01*
X521755Y1654773D01*
X520699Y1655195D01*
X519574Y1655687D01*
X518448Y1656461D01*
X517885Y1656883D01*
X517392Y1657446D01*
Y1657517D01*
X517252Y1657587D01*
X516970Y1658009D01*
X516548Y1658642D01*
X516056Y1659557D01*
X515563Y1660683D01*
X515141Y1662020D01*
X514860Y1663567D01*
X514719Y1665326D01*
Y1697128D01*
X520136D01*
Y1665467D01*
Y1665397D01*
Y1665186D01*
Y1664904D01*
X520207Y1664552D01*
X520347Y1663567D01*
X520629Y1662512D01*
X521121Y1661386D01*
X521825Y1660401D01*
X522247Y1660050D01*
X522810Y1659768D01*
X523373Y1659557D01*
X524076Y1659487D01*
X524358D01*
X524710Y1659557D01*
X525132Y1659698D01*
X525554Y1659838D01*
X526046Y1660120D01*
X526539Y1660472D01*
X526961Y1660964D01*
X527031Y1661035D01*
X527172Y1661246D01*
X527313Y1661597D01*
X527524Y1662020D01*
X527735Y1662653D01*
X527946Y1663356D01*
X528016Y1664201D01*
X528087Y1665186D01*
Y1697128D01*
X533504D01*
Y1665819D01*
D02*
G37*
G36*
X623844Y1697480D02*
X624548Y1697410D01*
X625533Y1697199D01*
X626588Y1696847D01*
X627714Y1696284D01*
X628839Y1695510D01*
X629402Y1695088D01*
X629895Y1694525D01*
X630036Y1694384D01*
X630317Y1693962D01*
X630739Y1693329D01*
X631302Y1692485D01*
X631795Y1691429D01*
X632217Y1690163D01*
X632498Y1688685D01*
X632639Y1687067D01*
Y1686997D01*
Y1686786D01*
X632568Y1686434D01*
Y1686012D01*
X632428Y1685519D01*
X632287Y1684886D01*
X632076Y1684182D01*
X631865Y1683479D01*
X631513Y1682705D01*
X631091Y1681931D01*
X630528Y1681157D01*
X629965Y1680313D01*
X629191Y1679539D01*
X628347Y1678835D01*
X627362Y1678132D01*
X626236Y1677498D01*
X626307D01*
X626518Y1677358D01*
X626869Y1677217D01*
X627292Y1677006D01*
X627854Y1676654D01*
X628417Y1676232D01*
X629051Y1675739D01*
X629684Y1675176D01*
X630317Y1674473D01*
X630950Y1673699D01*
X631513Y1672855D01*
X632076Y1671799D01*
X632498Y1670744D01*
X632850Y1669477D01*
X633061Y1668070D01*
X633131Y1666593D01*
Y1666522D01*
Y1666382D01*
Y1666100D01*
X633061Y1665749D01*
Y1665326D01*
X632991Y1664763D01*
X632780Y1663567D01*
X632428Y1662160D01*
X631865Y1660753D01*
X631091Y1659205D01*
X630669Y1658502D01*
X630106Y1657798D01*
Y1657728D01*
X629965Y1657657D01*
X629543Y1657235D01*
X628910Y1656672D01*
X628066Y1656039D01*
X627010Y1655336D01*
X625744Y1654773D01*
X624337Y1654351D01*
X623563Y1654280D01*
X622789Y1654210D01*
X622367D01*
X621944Y1654280D01*
X621241Y1654351D01*
X620467Y1654491D01*
X619552Y1654702D01*
X618497Y1654984D01*
X617371Y1655406D01*
Y1660823D01*
X617512Y1660753D01*
X617793Y1660612D01*
X618286Y1660401D01*
X618919Y1660120D01*
X619623Y1659838D01*
X620397Y1659627D01*
X621241Y1659487D01*
X622015Y1659416D01*
X622437D01*
X622859Y1659557D01*
X623422Y1659698D01*
X624055Y1659909D01*
X624759Y1660261D01*
X625392Y1660753D01*
X626025Y1661457D01*
X626096Y1661527D01*
X626236Y1661879D01*
X626518Y1662301D01*
X626799Y1662934D01*
X627081Y1663778D01*
X627362Y1664693D01*
X627503Y1665819D01*
X627573Y1667085D01*
Y1667156D01*
Y1667367D01*
Y1667719D01*
X627503Y1668141D01*
X627432Y1668633D01*
X627292Y1669266D01*
X626869Y1670533D01*
X626588Y1671236D01*
X626236Y1671870D01*
X625814Y1672503D01*
X625251Y1673136D01*
X624618Y1673629D01*
X623914Y1674121D01*
X623070Y1674473D01*
X622085Y1674684D01*
Y1680031D01*
X622155D01*
X622296Y1680102D01*
X622578D01*
X622859Y1680242D01*
X623633Y1680524D01*
X624618Y1681087D01*
X625040Y1681438D01*
X625533Y1681860D01*
X625955Y1682353D01*
X626307Y1682916D01*
X626588Y1683549D01*
X626869Y1684323D01*
X627010Y1685167D01*
X627081Y1686152D01*
Y1686293D01*
Y1686645D01*
X627010Y1687137D01*
X626940Y1687771D01*
X626729Y1688474D01*
X626518Y1689248D01*
X626166Y1689952D01*
X625673Y1690655D01*
X625603Y1690726D01*
X625462Y1690937D01*
X625111Y1691218D01*
X624688Y1691500D01*
X624196Y1691781D01*
X623563Y1692062D01*
X622859Y1692273D01*
X622015Y1692344D01*
X621733D01*
X621382Y1692273D01*
X620959Y1692203D01*
X620397Y1692062D01*
X619763Y1691851D01*
X619060Y1691570D01*
X618356Y1691218D01*
Y1696495D01*
X618426Y1696565D01*
X618708Y1696636D01*
X619200Y1696847D01*
X619763Y1697058D01*
X620467Y1697199D01*
X621311Y1697410D01*
X622155Y1697480D01*
X623140Y1697550D01*
X623563D01*
X623844Y1697480D01*
D02*
G37*
G36*
X800513Y1692062D02*
X794040D01*
Y1654984D01*
X788623D01*
Y1692062D01*
X782150D01*
Y1697128D01*
X800513D01*
Y1692062D01*
D02*
G37*
G36*
X781094Y1654984D02*
X775817D01*
X774269Y1664341D01*
X766460D01*
X764771Y1654984D01*
X759565D01*
X767515Y1697410D01*
X773144D01*
X781094Y1654984D01*
D02*
G37*
G36*
X746126Y1697058D02*
X746619D01*
X747182Y1696987D01*
X748448Y1696706D01*
X749926Y1696354D01*
X751473Y1695791D01*
X752951Y1695017D01*
X753655Y1694525D01*
X754358Y1693962D01*
X754429D01*
X754499Y1693821D01*
X754921Y1693399D01*
X755484Y1692696D01*
X756117Y1691711D01*
X756750Y1690515D01*
X757243Y1689037D01*
X757665Y1687348D01*
X757735Y1686434D01*
X757806Y1685449D01*
Y1685378D01*
Y1685238D01*
Y1684886D01*
X757735Y1684534D01*
Y1684042D01*
X757665Y1683549D01*
X757384Y1682283D01*
X757032Y1680875D01*
X756469Y1679398D01*
X755695Y1677991D01*
X755202Y1677287D01*
X754640Y1676654D01*
X754499Y1676513D01*
X754288Y1676373D01*
X754077Y1676161D01*
X753373Y1675669D01*
X752388Y1675106D01*
X751122Y1674473D01*
X749644Y1673980D01*
X747956Y1673629D01*
X746971Y1673558D01*
X745986Y1673488D01*
X744860D01*
Y1654984D01*
X739442D01*
Y1697128D01*
X745704D01*
X746126Y1697058D01*
D02*
G37*
G36*
X569457Y1654984D02*
X564040D01*
Y1697128D01*
X569457D01*
Y1654984D01*
D02*
G37*
G36*
X547506Y1697058D02*
X547998D01*
X548561Y1696987D01*
X549827Y1696706D01*
X551305Y1696354D01*
X552853Y1695791D01*
X554330Y1695017D01*
X555034Y1694525D01*
X555738Y1693962D01*
X555808D01*
X555878Y1693821D01*
X556300Y1693399D01*
X556863Y1692696D01*
X557496Y1691711D01*
X558130Y1690515D01*
X558622Y1689037D01*
X559044Y1687348D01*
X559115Y1686434D01*
X559185Y1685449D01*
Y1685378D01*
Y1685238D01*
Y1684886D01*
X559115Y1684534D01*
Y1684042D01*
X559044Y1683549D01*
X558763Y1682283D01*
X558411Y1680875D01*
X557848Y1679398D01*
X557074Y1677991D01*
X556582Y1677287D01*
X556019Y1676654D01*
X555878Y1676513D01*
X555667Y1676373D01*
X555456Y1676161D01*
X554753Y1675669D01*
X553767Y1675106D01*
X552501Y1674473D01*
X551024Y1673980D01*
X549335Y1673629D01*
X548350Y1673558D01*
X547365Y1673488D01*
X546239D01*
Y1654984D01*
X540822D01*
Y1697128D01*
X547083D01*
X547506Y1697058D01*
D02*
G37*
G36*
X693639Y1697621D02*
X693991D01*
X694413Y1697480D01*
X694906Y1697339D01*
X695469Y1697199D01*
X696102Y1696917D01*
X696735Y1696636D01*
X697439Y1696214D01*
X698072Y1695721D01*
X698775Y1695158D01*
X699479Y1694455D01*
X700112Y1693610D01*
X700745Y1692696D01*
X701379Y1691640D01*
X701449Y1691570D01*
X701519Y1691359D01*
X701660Y1691007D01*
X701871Y1690515D01*
X702082Y1689952D01*
X702364Y1689248D01*
X702645Y1688404D01*
X702926Y1687419D01*
X703208Y1686363D01*
X703489Y1685167D01*
X703771Y1683901D01*
X703982Y1682494D01*
X704193Y1681016D01*
X704334Y1679468D01*
X704474Y1677780D01*
Y1676021D01*
Y1675880D01*
Y1675599D01*
Y1675036D01*
X704404Y1674332D01*
Y1673488D01*
X704334Y1672503D01*
X704193Y1671377D01*
X704052Y1670181D01*
X703700Y1667648D01*
X703138Y1665045D01*
X702293Y1662442D01*
X701801Y1661246D01*
X701238Y1660120D01*
X701168Y1660050D01*
X701097Y1659909D01*
X700886Y1659627D01*
X700675Y1659205D01*
X699971Y1658291D01*
X698986Y1657306D01*
X697861Y1656250D01*
X696454Y1655336D01*
X695680Y1654984D01*
X694906Y1654702D01*
X694061Y1654491D01*
X693147Y1654421D01*
X692936D01*
X692654Y1654491D01*
X692302D01*
X691880Y1654632D01*
X691388Y1654702D01*
X690262Y1655124D01*
X689629Y1655476D01*
X688996Y1655828D01*
X688292Y1656321D01*
X687588Y1656883D01*
X686885Y1657517D01*
X686252Y1658291D01*
X685618Y1659205D01*
X684985Y1660190D01*
Y1660261D01*
X684844Y1660472D01*
X684704Y1660823D01*
X684493Y1661246D01*
X684282Y1661808D01*
X684000Y1662582D01*
X683719Y1663356D01*
X683437Y1664341D01*
X683156Y1665397D01*
X682874Y1666593D01*
X682593Y1667859D01*
X682382Y1669337D01*
X682171Y1670814D01*
X682030Y1672433D01*
X681960Y1674191D01*
X681889Y1676021D01*
Y1676161D01*
Y1676443D01*
Y1676935D01*
X681960Y1677569D01*
Y1678413D01*
X682030Y1679328D01*
X682171Y1680383D01*
X682241Y1681509D01*
X682452Y1682705D01*
X682593Y1683971D01*
X683156Y1686574D01*
X683859Y1689178D01*
X684352Y1690374D01*
X684844Y1691570D01*
X684915Y1691640D01*
X684985Y1691851D01*
X685126Y1692133D01*
X685407Y1692555D01*
X685689Y1692977D01*
X686041Y1693540D01*
X687026Y1694666D01*
X688151Y1695791D01*
X688855Y1696284D01*
X689629Y1696706D01*
X690403Y1697128D01*
X691247Y1697410D01*
X692162Y1697621D01*
X693147Y1697691D01*
X693358D01*
X693639Y1697621D01*
D02*
G37*
%LPC*%
G36*
X769485Y1743762D02*
Y1730605D01*
X769907D01*
X770118Y1730675D01*
X770400D01*
X771174Y1730956D01*
X771596Y1731167D01*
X772018Y1731379D01*
X772440Y1731730D01*
X772862Y1732152D01*
X773284Y1732645D01*
X773636Y1733278D01*
X773918Y1733982D01*
X774129Y1734826D01*
X774269Y1735811D01*
X774340Y1736937D01*
Y1737007D01*
Y1737218D01*
Y1737570D01*
X774269Y1737992D01*
X774199Y1738485D01*
X774058Y1739048D01*
X773707Y1740314D01*
X773496Y1740947D01*
X773144Y1741580D01*
X772792Y1742143D01*
X772299Y1742636D01*
X771737Y1743128D01*
X771103Y1743480D01*
X770329Y1743691D01*
X769485Y1743762D01*
D02*
G37*
G36*
X655787D02*
X654872D01*
Y1711749D01*
X656068D01*
X656420Y1711819D01*
X657264Y1711960D01*
X658319Y1712241D01*
X659375Y1712663D01*
X660501Y1713297D01*
X661063Y1713719D01*
X661556Y1714211D01*
X661978Y1714774D01*
X662400Y1715407D01*
Y1715478D01*
X662471Y1715618D01*
X662611Y1715829D01*
X662752Y1716111D01*
X662893Y1716533D01*
X663033Y1717026D01*
X663245Y1717588D01*
X663456Y1718292D01*
X663596Y1719066D01*
X663807Y1719981D01*
X663948Y1720966D01*
X664159Y1722091D01*
X664230Y1723287D01*
X664370Y1724554D01*
X664441Y1725961D01*
Y1727509D01*
Y1727579D01*
Y1727931D01*
Y1728353D01*
Y1728986D01*
X664370Y1729690D01*
Y1730534D01*
X664300Y1731449D01*
X664230Y1732434D01*
X663948Y1734474D01*
X663667Y1736515D01*
X663456Y1737500D01*
X663174Y1738414D01*
X662893Y1739259D01*
X662541Y1740033D01*
Y1740103D01*
X662471Y1740173D01*
X662189Y1740595D01*
X661697Y1741229D01*
X660993Y1741932D01*
X660078Y1742565D01*
X658882Y1743199D01*
X657475Y1743621D01*
X656631Y1743691D01*
X655787Y1743762D01*
D02*
G37*
G36*
X546239D02*
Y1730253D01*
X547435D01*
X547787Y1730323D01*
X548209Y1730394D01*
X548702Y1730464D01*
X549265Y1730605D01*
X549827Y1730886D01*
X550461Y1731167D01*
X551094Y1731519D01*
X551657Y1732012D01*
X552220Y1732575D01*
X552712Y1733278D01*
X553134Y1734123D01*
X553486Y1735037D01*
X553697Y1736163D01*
X553767Y1737429D01*
Y1737500D01*
Y1737711D01*
X553697Y1738063D01*
X553627Y1738414D01*
X553556Y1738907D01*
X553345Y1739470D01*
X553134Y1740033D01*
X552853Y1740666D01*
X552431Y1741229D01*
X551938Y1741792D01*
X551305Y1742354D01*
X550601Y1742847D01*
X549757Y1743199D01*
X548702Y1743550D01*
X547576Y1743691D01*
X546239Y1743762D01*
D02*
G37*
G36*
X770329Y1686997D02*
X770189D01*
X767234Y1669407D01*
X773284D01*
X770329Y1686997D01*
D02*
G37*
G36*
X744860Y1692062D02*
Y1678554D01*
X746056D01*
X746408Y1678624D01*
X746830Y1678694D01*
X747322Y1678765D01*
X747885Y1678905D01*
X748448Y1679187D01*
X749081Y1679468D01*
X749715Y1679820D01*
X750277Y1680313D01*
X750840Y1680875D01*
X751333Y1681579D01*
X751755Y1682423D01*
X752107Y1683338D01*
X752318Y1684464D01*
X752388Y1685730D01*
Y1685801D01*
Y1686012D01*
X752318Y1686363D01*
X752247Y1686715D01*
X752177Y1687208D01*
X751966Y1687771D01*
X751755Y1688333D01*
X751473Y1688967D01*
X751051Y1689530D01*
X750559Y1690092D01*
X749926Y1690655D01*
X749222Y1691148D01*
X748378Y1691500D01*
X747322Y1691851D01*
X746197Y1691992D01*
X744860Y1692062D01*
D02*
G37*
G36*
X546239D02*
Y1678554D01*
X547435D01*
X547787Y1678624D01*
X548209Y1678694D01*
X548702Y1678765D01*
X549265Y1678905D01*
X549827Y1679187D01*
X550461Y1679468D01*
X551094Y1679820D01*
X551657Y1680313D01*
X552220Y1680875D01*
X552712Y1681579D01*
X553134Y1682423D01*
X553486Y1683338D01*
X553697Y1684464D01*
X553767Y1685730D01*
Y1685801D01*
Y1686012D01*
X553697Y1686363D01*
X553627Y1686715D01*
X553556Y1687208D01*
X553345Y1687771D01*
X553134Y1688333D01*
X552853Y1688967D01*
X552431Y1689530D01*
X551938Y1690092D01*
X551305Y1690655D01*
X550601Y1691148D01*
X549757Y1691500D01*
X548702Y1691851D01*
X547576Y1691992D01*
X546239Y1692062D01*
D02*
G37*
G36*
X693076Y1692625D02*
X692936D01*
X692654Y1692555D01*
X692162Y1692414D01*
X691599Y1692062D01*
X690895Y1691570D01*
X690543Y1691218D01*
X690262Y1690726D01*
X689910Y1690233D01*
X689558Y1689670D01*
X689277Y1688967D01*
X688996Y1688193D01*
Y1688122D01*
X688925Y1687982D01*
X688855Y1687700D01*
X688784Y1687348D01*
X688644Y1686926D01*
X688573Y1686363D01*
X688433Y1685730D01*
X688292Y1685027D01*
X688151Y1684182D01*
X688011Y1683268D01*
X687940Y1682283D01*
X687799Y1681157D01*
X687729Y1680031D01*
X687659Y1678765D01*
X687588Y1677428D01*
Y1676021D01*
Y1675950D01*
Y1675669D01*
Y1675247D01*
Y1674684D01*
X687659Y1674051D01*
Y1673277D01*
X687729Y1672433D01*
X687799Y1671448D01*
X687940Y1669477D01*
X688151Y1667437D01*
X688503Y1665467D01*
X688784Y1664552D01*
X688996Y1663708D01*
Y1663638D01*
X689066Y1663497D01*
X689136Y1663286D01*
X689277Y1663075D01*
X689629Y1662371D01*
X690051Y1661597D01*
X690684Y1660823D01*
X691388Y1660120D01*
X691810Y1659909D01*
X692232Y1659698D01*
X692725Y1659557D01*
X693217Y1659487D01*
X693358D01*
X693639Y1659557D01*
X694132Y1659698D01*
X694695Y1660050D01*
X695328Y1660542D01*
X695680Y1660894D01*
X695961Y1661316D01*
X696313Y1661808D01*
X696665Y1662442D01*
X696946Y1663075D01*
X697227Y1663849D01*
Y1663919D01*
X697298Y1664060D01*
X697368Y1664271D01*
X697439Y1664623D01*
X697579Y1665115D01*
X697720Y1665678D01*
X697861Y1666311D01*
X698001Y1667015D01*
X698142Y1667859D01*
X698283Y1668774D01*
X698424Y1669759D01*
X698564Y1670814D01*
X698635Y1672010D01*
X698705Y1673277D01*
X698775Y1674614D01*
Y1676021D01*
Y1676091D01*
Y1676373D01*
Y1676795D01*
Y1677358D01*
X698705Y1677991D01*
Y1678765D01*
X698635Y1679609D01*
X698564Y1680524D01*
X698424Y1682494D01*
X698142Y1684534D01*
X697720Y1686504D01*
X697509Y1687419D01*
X697227Y1688263D01*
Y1688333D01*
X697157Y1688474D01*
X697087Y1688685D01*
X696946Y1688967D01*
X696594Y1689670D01*
X696172Y1690444D01*
X695539Y1691218D01*
X694835Y1691922D01*
X694483Y1692203D01*
X693991Y1692414D01*
X693569Y1692555D01*
X693076Y1692625D01*
D02*
G37*
%LPD*%
G36*
X2694106Y1891056D02*
X2682375Y1879325D01*
X2671147Y1862521D01*
X2667205Y1842700D01*
Y1838227D01*
X2663540Y1837708D01*
X2659625D01*
X2649905Y1835774D01*
X2643010Y1834796D01*
X2628375Y1837708D01*
X2609625D01*
X2593540Y1834508D01*
X2579904Y1825397D01*
X2570792Y1811760D01*
X2567593Y1795675D01*
Y1737707D01*
X2509625D01*
X2494861Y1734771D01*
X2491419Y1735455D01*
X2483602Y1737010D01*
X2483601Y1737010D01*
X2483600Y1737010D01*
X2386815D01*
X2382294Y1740136D01*
X2373014Y1753350D01*
X2349170D01*
X2335400Y1756089D01*
X2311400D01*
X2287400D01*
X2273631Y1753350D01*
X2256503D01*
X2256880Y1751458D01*
X2260349Y1746266D01*
X2254885Y1742615D01*
X2244917Y1727697D01*
X2241416Y1710100D01*
Y1668100D01*
X2244917Y1650503D01*
X2254885Y1635585D01*
X2259605Y1632431D01*
Y1387182D01*
X2253714Y1379505D01*
X2247060Y1363440D01*
X2244790Y1346200D01*
X2246121Y1336093D01*
X2230194Y1315703D01*
X2221037Y1315681D01*
X2198344Y1338325D01*
Y1536700D01*
Y1840082D01*
X2274718Y1916456D01*
X2683585D01*
X2694106Y1891056D01*
D02*
G37*
G36*
X2939009Y1678620D02*
X2957915Y1662090D01*
X2955680Y1648627D01*
X2955092Y1645675D01*
Y1626925D01*
X2958201Y1611300D01*
X2955092Y1595675D01*
Y1576925D01*
X2958201Y1561300D01*
X2955092Y1545675D01*
Y1526925D01*
X2958292Y1510840D01*
X2967404Y1497204D01*
Y1475396D01*
X2958292Y1461760D01*
X2955092Y1445675D01*
Y1426925D01*
X2958201Y1411300D01*
X2955092Y1395675D01*
Y1376925D01*
X2955680Y1373973D01*
X2956950Y1366322D01*
X2941731Y1351347D01*
X2936815Y1348529D01*
X2928375Y1350208D01*
X2909625D01*
X2894000Y1347099D01*
X2878375Y1350208D01*
X2859625D01*
X2844000Y1347099D01*
X2828375Y1350208D01*
X2809625D01*
X2794000Y1347099D01*
X2778375Y1350208D01*
X2759625D01*
X2744000Y1347099D01*
X2728375Y1350208D01*
X2709625D01*
X2694000Y1347099D01*
X2678375Y1350208D01*
X2659625D01*
X2644000Y1347099D01*
X2636763Y1348539D01*
X2630139Y1354550D01*
X2550250D01*
Y1304550D01*
X2491768D01*
X2498495Y1300055D01*
X2509625Y1297841D01*
X2567593D01*
Y1226925D01*
X2568931Y1220195D01*
X2555599Y1198546D01*
X2550964Y1194795D01*
X2487966D01*
X2470452Y1220195D01*
X2471279Y1224350D01*
Y1264850D01*
X2467798Y1282349D01*
X2457885Y1297185D01*
X2443049Y1307098D01*
X2425550Y1310579D01*
X2395619D01*
X2387789Y1317819D01*
X2376664Y1335979D01*
X2378010Y1346200D01*
X2375740Y1363440D01*
X2369086Y1379505D01*
X2363195Y1387182D01*
Y1500199D01*
X2387600Y1520890D01*
X2404840Y1523160D01*
X2420905Y1529814D01*
X2428582Y1535705D01*
X2438400D01*
X2455141Y1539035D01*
X2457922Y1538218D01*
X2468317Y1520418D01*
X2470792Y1511760D01*
X2467592Y1495675D01*
Y1476925D01*
X2470792Y1460840D01*
X2479903Y1447204D01*
X2480735Y1446648D01*
X2480541Y1445675D01*
Y1426925D01*
X2482306Y1418050D01*
X2618193D01*
X2619959Y1426925D01*
Y1445675D01*
X2619765Y1446648D01*
X2620596Y1447204D01*
X2629708Y1460840D01*
X2632908Y1476925D01*
Y1495675D01*
X2629708Y1511760D01*
X2620596Y1525396D01*
Y1547204D01*
X2629708Y1560840D01*
X2632908Y1576925D01*
Y1595675D01*
X2629799Y1611300D01*
X2632908Y1626925D01*
Y1645675D01*
X2630840Y1656071D01*
X2649229Y1674460D01*
X2659625Y1672392D01*
X2678375D01*
X2694000Y1675501D01*
X2709625Y1672392D01*
X2728375D01*
X2744000Y1675501D01*
X2759625Y1672392D01*
X2778375D01*
X2794000Y1675501D01*
X2809625Y1672392D01*
X2828375D01*
X2844000Y1675501D01*
X2859625Y1672392D01*
X2878375D01*
X2894460Y1675592D01*
X2905881Y1683223D01*
X2929904Y1684704D01*
X2939009Y1678620D01*
D02*
G37*
G36*
X3363316Y1542215D02*
X3378151Y1532302D01*
X3395650Y1528821D01*
X3412100D01*
Y1362000D01*
X3598300D01*
Y1510938D01*
X3619948Y1524944D01*
X3640700Y1515217D01*
Y1362000D01*
X3770651D01*
X3794190Y1346200D01*
X3796056Y1332028D01*
Y1218200D01*
X3640700D01*
Y1182344D01*
X3598300D01*
Y1218200D01*
X3412100D01*
Y1207495D01*
X3372722D01*
X3353403Y1232895D01*
X3353484Y1233300D01*
Y1281300D01*
X3349983Y1298897D01*
X3343834Y1308100D01*
X3349983Y1317303D01*
X3353484Y1334900D01*
Y1382900D01*
X3349983Y1400497D01*
X3340015Y1415415D01*
X3334450Y1419134D01*
X3334352Y1419621D01*
X3323125Y1436425D01*
X3323124Y1436425D01*
X3291784Y1467766D01*
X3290402Y1488320D01*
X3293065Y1499170D01*
X3293820Y1499675D01*
X3336620Y1542475D01*
X3363316Y1542215D01*
D02*
G37*
G36*
X5530470Y1232425D02*
Y1140065D01*
X5525222Y1134706D01*
X5505069Y1123054D01*
X5494889Y1125079D01*
X5454389D01*
X5436890Y1121598D01*
X5422054Y1111685D01*
X5415977Y1102590D01*
X5405433Y1109635D01*
X5404389Y1109842D01*
Y1054100D01*
X5340889D01*
Y1109842D01*
X5339845Y1109635D01*
X5329210Y1102529D01*
X5322105Y1091894D01*
X5321051Y1086596D01*
X5307551Y1074180D01*
X5294209Y1068461D01*
X5284519Y1069736D01*
X5266078Y1088178D01*
X5250535Y1098563D01*
X5241274Y1100405D01*
X5233386Y1111309D01*
X5246361Y1136709D01*
X5280439D01*
X5300182Y1140636D01*
X5316920Y1151819D01*
X5328103Y1168557D01*
X5332030Y1188300D01*
Y1263300D01*
X5328103Y1283043D01*
X5316920Y1299780D01*
X5306581Y1306689D01*
X5305089Y1312273D01*
Y1329327D01*
X5306581Y1334911D01*
X5316920Y1341820D01*
X5328103Y1358557D01*
X5332030Y1378300D01*
Y1397677D01*
X5355497Y1407397D01*
X5530470Y1232425D01*
D02*
G37*
G36*
X2068856Y1295400D02*
X2073784Y1270624D01*
X2087819Y1249619D01*
X2138619Y1198819D01*
X2159624Y1184784D01*
X2184400Y1179856D01*
X2315365D01*
X2329321Y1162850D01*
Y1122350D01*
X2332802Y1104851D01*
X2342715Y1090015D01*
X2357551Y1080102D01*
X2375050Y1076622D01*
X2425550D01*
X2443049Y1080102D01*
X2457885Y1090015D01*
X2458680Y1091205D01*
X2641600D01*
X2652169Y1080959D01*
X2645187Y1052350D01*
X2636805Y1048286D01*
X2620740Y1054940D01*
X2603500Y1057210D01*
X2586260Y1054940D01*
X2570195Y1048286D01*
X2556400Y1037700D01*
X2545814Y1023905D01*
X2539160Y1007840D01*
X2536890Y990600D01*
X2539160Y973360D01*
X2545814Y957295D01*
X2556400Y943500D01*
X2570195Y932914D01*
X2586260Y926260D01*
X2603500Y923990D01*
X2620740Y926260D01*
X2636805Y932914D01*
X2638182Y933970D01*
X2665015Y933015D01*
X2679851Y923102D01*
X2697350Y919621D01*
X2737850D01*
X2745847Y921212D01*
X2751097Y918634D01*
X2755338Y888256D01*
X2755258Y888184D01*
X2754838Y888358D01*
X2725000Y892286D01*
X2695161Y888358D01*
X2667357Y876841D01*
X2643480Y858520D01*
X2625159Y834643D01*
X2613642Y806838D01*
X2611902Y793624D01*
X2610809Y785324D01*
X2585191D01*
X2584098Y793623D01*
X2582358Y806838D01*
X2570841Y834643D01*
X2552520Y858520D01*
X2528643Y876841D01*
X2500838Y888358D01*
X2471000Y892286D01*
X2441161Y888358D01*
X2419616Y879434D01*
X2341675Y957375D01*
X2324871Y968603D01*
X2305050Y972545D01*
X2237604D01*
X1763594Y1446556D01*
X1774115Y1471956D01*
X2068856D01*
Y1295400D01*
D02*
G37*
G36*
X4549850Y1022641D02*
X4557924Y1028036D01*
X4566301Y1040572D01*
X4567153Y1044856D01*
X4593051D01*
X4594609Y1037023D01*
X4601880Y1026140D01*
X4612763Y1018869D01*
X4625600Y1016315D01*
X4631350D01*
Y1057360D01*
X4694850D01*
Y1016315D01*
X4700600D01*
X4713437Y1018869D01*
X4724319Y1026140D01*
X4749958Y1018792D01*
X4771988Y996763D01*
Y946337D01*
X4754146Y928495D01*
X4719752D01*
X4719224Y929285D01*
X4704389Y939198D01*
X4686889Y942678D01*
X4649900D01*
X4646849Y943285D01*
X4544474D01*
X4540605Y949075D01*
X4525769Y958988D01*
X4508270Y962468D01*
X4467770D01*
X4450271Y958988D01*
X4424895Y972581D01*
Y1006210D01*
X4428392Y1006906D01*
X4443475Y1016985D01*
X4449294Y1025692D01*
X4471817Y1029089D01*
X4478276Y1028036D01*
X4486350Y1022641D01*
Y1102860D01*
X4549850D01*
Y1022641D01*
D02*
G37*
%LPC*%
G36*
X2343150Y1837593D02*
Y1816850D01*
X2366296D01*
X2365920Y1818742D01*
X2358759Y1829459D01*
X2348042Y1836620D01*
X2343150Y1837593D01*
D02*
G37*
G36*
X2279650D02*
X2274758Y1836620D01*
X2264041Y1829459D01*
X2256880Y1818742D01*
X2256504Y1816850D01*
X2279650D01*
Y1837593D01*
D02*
G37*
%LPD*%
D10*
X5996940Y177800D02*
D03*
Y1955800D02*
D03*
X137160D02*
D03*
D11*
X4749800D02*
D03*
D12*
X4801339Y1739900D02*
D03*
X3835400Y889000D02*
D03*
D13*
X5352659Y851150D02*
D03*
D14*
X5266159Y786150D02*
D03*
Y851150D02*
D03*
Y916150D02*
D03*
X5439159D02*
D03*
Y851150D02*
D03*
Y786150D02*
D03*
D15*
X4409100Y1242860D02*
D03*
X4627100D02*
D03*
D16*
X4373100Y1185360D02*
D03*
Y1120360D02*
D03*
Y1057360D02*
D03*
X4663100D02*
D03*
Y1120360D02*
D03*
Y1185360D02*
D03*
D17*
X4518100Y1102860D02*
D03*
D18*
X2717800Y1092200D02*
D03*
X2813800D02*
D03*
X3190500Y1358900D02*
D03*
X3286500D02*
D03*
X5399449Y679315D02*
D03*
X5303449D02*
D03*
X3007100Y1092200D02*
D03*
X2911100D02*
D03*
X3190500Y1257300D02*
D03*
X3286500D02*
D03*
X3190500Y1155700D02*
D03*
X3286500D02*
D03*
D19*
X4488020Y891490D02*
D03*
X4386020D02*
D03*
X3657200Y1599800D02*
D03*
X3759200D02*
D03*
X3009900Y990600D02*
D03*
X2907900D02*
D03*
X2717600D02*
D03*
X2819600D02*
D03*
X5474639Y1054100D02*
D03*
X5372639D02*
D03*
X868800Y831250D02*
D03*
X766800D02*
D03*
X3415900Y1599800D02*
D03*
X3517900D02*
D03*
D20*
X4140200Y1445760D02*
D03*
Y1255760D02*
D03*
Y902200D02*
D03*
Y1092200D02*
D03*
X5090899Y616450D02*
D03*
Y806450D02*
D03*
X5220439Y1415800D02*
D03*
Y1225800D02*
D03*
X4885159Y616450D02*
D03*
Y806450D02*
D03*
D21*
X5126459Y406650D02*
D03*
Y310650D02*
D03*
X5022319Y406130D02*
D03*
Y310130D02*
D03*
X2311400Y1785100D02*
D03*
Y1689100D02*
D03*
X4821659Y406650D02*
D03*
Y310650D02*
D03*
X4920719Y406390D02*
D03*
Y310390D02*
D03*
X589400Y1123350D02*
D03*
Y1027350D02*
D03*
D22*
X749300Y524350D02*
D03*
D23*
X844300Y375600D02*
D03*
X749300D02*
D03*
X654300D02*
D03*
Y673100D02*
D03*
X749300D02*
D03*
X844300D02*
D03*
D24*
X4943579Y975360D02*
D03*
Y1255360D02*
D03*
D25*
X2794000Y1511300D02*
D03*
D26*
X2619000Y1755050D02*
D03*
X2669000D02*
D03*
X2719000D02*
D03*
X2769000D02*
D03*
X2819000D02*
D03*
X2869000D02*
D03*
X2919000D02*
D03*
X2969000D02*
D03*
Y1267550D02*
D03*
X2919000D02*
D03*
X2869000D02*
D03*
X2819000D02*
D03*
X2769000D02*
D03*
X2719000D02*
D03*
X2669000D02*
D03*
X2619000D02*
D03*
D27*
X3037750Y1686300D02*
D03*
Y1636300D02*
D03*
Y1586300D02*
D03*
Y1536300D02*
D03*
Y1486300D02*
D03*
Y1436300D02*
D03*
Y1386300D02*
D03*
Y1336300D02*
D03*
X2550250D02*
D03*
Y1386300D02*
D03*
Y1436300D02*
D03*
Y1486300D02*
D03*
Y1536300D02*
D03*
Y1586300D02*
D03*
Y1636300D02*
D03*
Y1686300D02*
D03*
D28*
X3733800Y1117600D02*
D03*
Y1462600D02*
D03*
X3505200Y1117600D02*
D03*
Y1462600D02*
D03*
D29*
X4415340Y1460500D02*
D03*
D30*
X4660340D02*
D03*
D31*
X5168900Y952300D02*
D03*
Y1054300D02*
D03*
X4661639Y774700D02*
D03*
Y876700D02*
D03*
X4547339Y775100D02*
D03*
Y673100D02*
D03*
X2400300Y1244600D02*
D03*
Y1142600D02*
D03*
D32*
X5416959Y433895D02*
D03*
X5366959D02*
D03*
X5316959D02*
D03*
Y553895D02*
D03*
X5366959D02*
D03*
D33*
X5416959Y548895D02*
D03*
D34*
X868800Y1009050D02*
D03*
X708780D02*
D03*
D35*
X1437700Y1117600D02*
D03*
X1127700D02*
D03*
X929155Y1278895D02*
D03*
X619155D02*
D03*
D36*
X3860800Y1155700D02*
Y1346200D01*
Y1955900D01*
X2247900Y1981200D02*
X4724400D01*
X3822700Y1117600D02*
X3860800Y1155700D01*
X3733800Y1117600D02*
X3822700D01*
X4724400Y1981200D02*
X4749800Y1955800D01*
X2133600Y1295400D02*
X2184400Y1244600D01*
X2400300D01*
X3505200Y1117600D02*
X3733800D01*
X2133600Y1295400D02*
Y1536700D01*
Y1866900D02*
X2247900Y1981200D01*
X1231900Y1536700D02*
X1295400D01*
X1231900D02*
X2133600D01*
Y1866900D01*
X1270000Y1536700D02*
X1295400D01*
X1739120Y491000D02*
X3196100D01*
X3487000Y777000D02*
X3599000Y889000D01*
X3835400D01*
X3196100Y491000D02*
X3482340Y777240D01*
X1450340Y779780D02*
Y889000D01*
Y779780D02*
X1739120Y491000D01*
X4140200Y1445760D02*
X4189160D01*
X4192980Y1449580D01*
D37*
X619155Y1278895D02*
X621755Y1281495D01*
X589400Y1123350D02*
X619155Y1153105D01*
Y1278895D01*
X4140200Y1255760D02*
X4196800D01*
X4209700Y1242860D01*
X4409100D01*
X2216150Y920750D02*
X2305050D01*
X1701800Y1435100D02*
X2216150Y920750D01*
X2305050D02*
X2448800Y777000D01*
X2471000D01*
X1231900Y1435100D02*
X1701800D01*
X5474639Y1054100D02*
X5499839Y1028900D01*
X5439159Y851150D02*
X5487389D01*
X5499839Y863600D01*
Y1028900D01*
X5126459Y310650D02*
X5289050D01*
X4821659D02*
X5126459D01*
X4915639Y305310D02*
X4920719Y310390D01*
X5366959Y388559D02*
Y433895D01*
X5289050Y310650D02*
X5366959Y388559D01*
X868800Y831250D02*
Y1009050D01*
X749300Y673100D02*
Y813750D01*
X766800Y831250D01*
X1958340Y781660D02*
X1963000Y777000D01*
X708780Y1153830D02*
X729100Y1174150D01*
X894200D02*
X929155Y1209105D01*
X1024895Y1278895D02*
X1054100Y1308100D01*
X589400Y1027350D02*
X690480D01*
X729100Y1174150D02*
X894200D01*
X929155Y1209105D02*
Y1278895D01*
X1701800Y1308100D02*
X1958340Y1051560D01*
X929155Y1278895D02*
X1024895D01*
X1054100Y1308100D02*
X1701800D01*
X708780Y1009050D02*
Y1153830D01*
X1958340Y781660D02*
Y1051560D01*
X690480Y1027350D02*
X708780Y1009050D01*
X3238500Y1676400D02*
X3581400D01*
X3657200Y1599800D02*
Y1600600D01*
X3148400Y1586300D02*
X3238500Y1676400D01*
X3581400D02*
X3657200Y1600600D01*
X3037750Y1586300D02*
X3148400D01*
X3320695Y1599800D02*
X3415900D01*
X3257195Y1536300D02*
X3320695Y1599800D01*
X3037750Y1536300D02*
X3257195D01*
X2400300Y1142600D02*
X2400700Y1143000D01*
X2641600D01*
X2719000Y1220400D01*
Y1267550D01*
X3012350D02*
X3022600Y1257300D01*
X2311400Y1346200D02*
Y1689100D01*
X2969000Y1267550D02*
X3012350D01*
X3286500Y1155700D02*
X3467100D01*
X3250000Y1436300D02*
X3286500Y1399800D01*
Y1155700D02*
Y1358900D01*
X3467100Y1155700D02*
X3505200Y1117600D01*
X3286500Y1358900D02*
Y1399800D01*
X3037750Y1436300D02*
X3250000D01*
X2719000Y1755050D02*
Y1842700D01*
X2743200Y1866900D02*
X3009900D01*
X2603500Y990600D02*
X2717600D01*
X2719000Y1842700D02*
X2743200Y1866900D01*
X2717800Y1756250D02*
X2719000Y1755050D01*
X3009900Y1866900D02*
X3048000Y1828800D01*
X2869000Y1192600D02*
Y1267550D01*
X2813800Y996400D02*
X2819600Y990600D01*
X2813800Y996400D02*
Y1092200D01*
Y1137400D02*
X2869000Y1192600D01*
X2813800Y1092200D02*
Y1137400D01*
X5283200Y965630D02*
Y1003300D01*
X5419054Y431800D02*
X5472809D01*
X5416959Y433895D02*
X5419054Y431800D01*
X5549009Y508000D02*
X5549900D01*
X5277179Y927170D02*
Y965630D01*
X5549900Y508000D02*
X5588000Y546100D01*
X5472809Y431800D02*
X5549009Y508000D01*
X5277179Y965630D02*
X5283200D01*
X5266159Y916150D02*
X5277179Y927170D01*
X4814039Y1117600D02*
X5105400D01*
X5213600Y1225800D01*
X5220439D01*
X4746279Y1185360D02*
X4814039Y1117600D01*
X4663100Y1185360D02*
X4746279D01*
X4373100Y904410D02*
X4386020Y891490D01*
X4373100Y904410D02*
Y1057360D01*
X5416959Y548895D02*
X5482000D01*
X4386020Y802590D02*
Y891490D01*
X4140200Y1092200D02*
Y1255760D01*
X4284160Y1185360D02*
X4373100D01*
X4140200Y1092200D02*
X4216400Y1168400D01*
X4383220Y1185360D02*
X4401820Y1203960D01*
Y1235580D02*
X4409100Y1242860D01*
X4216400Y1168400D02*
X4267200D01*
X4284160Y1185360D01*
X4401820Y1203960D02*
Y1235580D01*
X1450340Y889000D02*
Y1104960D01*
X4373100Y1185360D02*
X4383220D01*
X1437700Y1117600D02*
X1450340Y1104960D01*
X4547739Y774700D02*
X4661639D01*
X4284420Y751790D02*
X4337710Y698500D01*
X4535039Y775100D02*
X4547339D01*
X4284420Y751790D02*
Y1076680D01*
X4328100Y1120360D01*
X4458439Y698500D02*
X4535039Y775100D01*
X4328100Y1120360D02*
X4373100D01*
X4547339Y775100D02*
X4547739Y774700D01*
X4337710Y698500D02*
X4458439D01*
X5266159Y716605D02*
Y786150D01*
X4648739Y863800D02*
X4661639Y876700D01*
X4885159Y806450D02*
Y916940D01*
Y806450D02*
X5090899D01*
X4885159Y916940D02*
X4943579Y975360D01*
X4721640Y1120360D02*
X4866640Y975360D01*
X4874260D02*
X4943579D01*
X5019040D02*
X5090899Y903501D01*
X4775600Y876700D02*
X4874260Y975360D01*
X5111199Y786150D02*
X5266159D01*
X4661639Y876700D02*
X4775600D01*
X5266159Y716605D02*
X5303449Y679315D01*
X5316959Y665805D01*
X4488020Y891490D02*
X4646849D01*
X5316959Y433895D02*
Y553895D01*
X5090899Y806450D02*
X5111199Y786150D01*
X4646849Y891490D02*
X4661639Y876700D01*
X4663100Y1120360D02*
X4721640D01*
X4943579Y975360D02*
X5019040D01*
X4879259Y800550D02*
X4885159Y806450D01*
X4866640Y975360D02*
X4943579D01*
X5316959Y553895D02*
Y665805D01*
X5090899Y806450D02*
Y903501D01*
X654300Y619350D02*
X749300Y524350D01*
X2919000Y1636300D02*
Y1755050D01*
X3007100Y1092200D02*
X3045200Y1054100D01*
X2222500Y1612900D02*
Y1696200D01*
X2550250Y1336300D02*
Y1386300D01*
X5352659Y851150D02*
X5372639Y871130D01*
X2463800Y1054100D02*
X2501900Y1092200D01*
X2719000Y1436300D02*
X2794000Y1511300D01*
X4821659Y406650D02*
X5126459D01*
X3150400Y1485900D02*
X3314700D01*
X3064000Y609000D02*
X3065000D01*
X2669000Y1386300D02*
X2794000Y1511300D01*
X654300Y619350D02*
Y673100D01*
X5399449Y679315D02*
X5628494D01*
X1587500Y1219200D02*
X1704340Y1102360D01*
X1127700Y1117600D02*
Y1178500D01*
X2769000Y1536300D02*
X2794000Y1511300D01*
X5090899Y509270D02*
Y616450D01*
X4518100Y990600D02*
Y1102860D01*
X5372639Y871130D02*
Y1054100D01*
X2597000Y637000D02*
Y825500D01*
X4885159Y508250D02*
Y616450D01*
X4518100Y990600D02*
X4662880D01*
X5352659Y764650D02*
Y851150D01*
X2550250Y1386300D02*
X2669000D01*
X2222500Y1696200D02*
X2311400Y1785100D01*
X5200619Y616450D02*
X5228059Y589010D01*
X5372639Y1168200D02*
X5372839Y1168400D01*
X2794000Y1511300D02*
X2919000Y1636300D01*
X3150000Y1486300D02*
X3150400Y1485900D01*
X2963420Y1680720D02*
X3032170D01*
X3190500Y1090500D02*
X3233000Y1048000D01*
X2470000Y952500D02*
X2597000Y825500D01*
X2311400Y1785100D02*
X2317000Y1790700D01*
X2539550Y1397000D02*
X2550250Y1386300D01*
X3233000Y777000D02*
Y1048000D01*
X3045200Y1054100D02*
X3152400D01*
X1168400Y1219200D02*
X1587500D01*
X5088359Y506730D02*
X5090899Y509270D01*
X2463800Y952500D02*
Y1054100D01*
X3152400D02*
X3190500Y1092200D01*
Y1155700D01*
X5372639Y1054100D02*
Y1168200D01*
X2501900Y1092200D02*
X2717800D01*
X3167900Y1336300D02*
X3190500Y1358900D01*
X2794000Y1511300D02*
X2963420Y1680720D01*
X5366959Y658475D02*
X5387799Y679315D01*
X3037750Y1486300D02*
X3150000D01*
X2550250Y1436300D02*
X2719000D01*
X5399449Y679315D02*
Y717860D01*
X5628494Y679315D02*
X5634459Y673350D01*
X5090899Y616450D02*
X5200619D01*
X3037750Y1336300D02*
X3167900D01*
X3032170Y1680720D02*
X3037750Y1686300D01*
X2550250Y1536300D02*
X2769000D01*
X4663100Y990820D02*
Y1057360D01*
X5268559Y851150D02*
X5355059D01*
X2425700Y1397000D02*
X2539550D01*
X3190500Y1090500D02*
Y1092200D01*
X4662880Y990600D02*
X4663100Y990820D01*
X2597000Y637000D02*
X2629000Y605000D01*
X1704340Y777240D02*
Y1102360D01*
X5387799Y679315D02*
X5399449D01*
X5228059Y571750D02*
Y589010D01*
X2919000Y1755050D02*
X2921000Y1757050D01*
X2629000Y605000D02*
X3060000D01*
X5352659Y764650D02*
X5399449Y717860D01*
X3065000Y609000D02*
X3233000Y777000D01*
X2463800Y952500D02*
X2470000D01*
X3060000Y605000D02*
X3064000Y609000D01*
X5366959Y553895D02*
Y658475D01*
X3190500Y1155700D02*
Y1358900D01*
X1127700Y1178500D02*
X1168400Y1219200D01*
X2487200Y1636300D02*
X2550250D01*
X2387600Y1587500D02*
X2438400D01*
X2487200Y1636300D01*
X3098800Y990600D02*
X3124200Y965200D01*
X3009900Y990600D02*
X3098800D01*
X2917600Y1266150D02*
X2919000Y1267550D01*
X2917600Y1086260D02*
Y1266150D01*
X2911100Y963100D02*
Y1092200D01*
X2725000Y777000D02*
X2911100Y963100D01*
D38*
X3505200Y1462600D02*
X3517900Y1475300D01*
Y1599800D01*
X2486400Y1686300D02*
X2550250D01*
X2311400Y1689100D02*
X2483600D01*
X2486400Y1686300D01*
X3733800Y1462600D02*
X3759200Y1488000D01*
Y1599800D01*
X5168900Y1054300D02*
X5232200D01*
X5283200Y1003300D01*
X5130800Y977900D02*
X5156400Y952300D01*
X5168900D01*
X4943579Y975360D02*
X5128260D01*
X5130800Y977900D01*
D39*
X5439159Y786150D02*
X5511289D01*
X5588739Y863600D01*
Y1256561D01*
X4749800Y1955800D02*
X4889500D01*
X5588739Y1256561D01*
X4943579Y1255360D02*
X5027260D01*
X4931079Y1242860D02*
X4943579Y1255360D01*
X5187700Y1415800D02*
X5220439D01*
X4627100Y1427260D02*
X4660340Y1460500D01*
X4627100Y1242860D02*
X4931079D01*
X5027260Y1255360D02*
X5187700Y1415800D01*
X4627100Y1242860D02*
Y1427260D01*
X3835400Y889000D02*
X4038600Y1092200D01*
X4140200D01*
Y1445760D02*
X4196800D01*
X4211540Y1460500D01*
X4415340D01*
X4406340Y1346200D02*
Y1451500D01*
X4415340Y1460500D01*
D40*
X2471000Y777000D02*
D03*
X2217000D02*
D03*
X1963000D02*
D03*
X1709000D02*
D03*
X1455000D02*
D03*
X2725000D02*
D03*
X2979000D02*
D03*
X3233000D02*
D03*
X3487000D02*
D03*
D41*
X1455000Y401080D02*
D03*
X3487000D02*
D03*
D42*
X5923280Y1066800D02*
D03*
X208280D02*
D03*
D43*
X3860800Y1346200D02*
D03*
X4191000Y1562100D02*
D03*
X4356839Y1612900D02*
D03*
X3314700Y1485900D02*
D03*
X4662880Y990600D02*
D03*
X4885159Y508250D02*
D03*
X5372839Y1168400D02*
D03*
X4386020Y802590D02*
D03*
X5482000Y548895D02*
D03*
X5588000Y546100D02*
D03*
X5283200Y1003300D02*
D03*
X2821940Y990600D02*
D03*
X3048000Y1828800D02*
D03*
X2603500Y990600D02*
D03*
X1231900Y1536700D02*
D03*
X1295400D02*
D03*
X2311400Y1346200D02*
D03*
X3022600Y1257300D02*
D03*
X1231900Y1435100D02*
D03*
X2387600Y1587500D02*
D03*
X3124200Y965200D02*
D03*
X5088359Y506730D02*
D03*
X2794000Y1511300D02*
D03*
X4518100Y990600D02*
D03*
X5228059Y571750D02*
D03*
X4102100Y800100D02*
D03*
X2425700Y1397000D02*
D03*
X4406340Y1346200D02*
D03*
X4420339Y1612900D02*
D03*
X5634459Y673350D02*
D03*
X4589220Y990600D02*
D03*
X4483839Y1612900D02*
D03*
X2222500D02*
D03*
X4178300Y800100D02*
D03*
%TF.MD5,0ba7449e02a9357531a4c6231457e826*%
M02*
