%TF.GenerationSoftware,Altium Limited,Altium Designer,25.2.1 (25)*%
G04 Layer_Color=16711935*
%FSLAX45Y45*%
%MOMM*%
%TF.SameCoordinates,88257756-F906-492C-B469-FA58138B3ACC*%
%TF.FilePolarity,Negative*%
%TF.FileFunction,Soldermask,Bot*%
%TF.Part,Single*%
G01*
G75*
%TA.AperFunction,ComponentPad*%
%ADD76C,1.72720*%
%ADD77C,1.65100*%
%TA.AperFunction,SMDPad,CuDef*%
%ADD78R,2.00320X1.40320*%
%ADD79R,2.23520X0.83820*%
D76*
X2471000Y777000D02*
D03*
X2217000D02*
D03*
X1963000D02*
D03*
X1709000D02*
D03*
X1455000D02*
D03*
X2725000D02*
D03*
X2979000D02*
D03*
X3233000D02*
D03*
X3487000D02*
D03*
D77*
X1455000Y401080D02*
D03*
X3487000D02*
D03*
D78*
X1489150Y1205900D02*
D03*
Y1765900D02*
D03*
X3663800Y1766700D02*
D03*
Y1206700D02*
D03*
D79*
X1101650Y1335900D02*
D03*
Y1435900D02*
D03*
Y1535900D02*
D03*
Y1635900D02*
D03*
X4051300Y1636700D02*
D03*
Y1536700D02*
D03*
Y1436700D02*
D03*
Y1336700D02*
D03*
%TF.MD5,1a450783cebc5c0e98a9e24772431bdc*%
M02*
