%TF.GenerationSoftware,Altium Limited,Altium Designer,25.2.1 (25)*%
G04 Layer_Color=8421504*
%FSLAX45Y45*%
%MOMM*%
%TF.SameCoordinates,88257756-F906-492C-B469-FA58138B3ACC*%
%TF.FilePolarity,Positive*%
%TF.FileFunction,Paste,Top*%
%TF.Part,Single*%
G01*
G75*
%TA.AperFunction,SMDPad,CuDef*%
G04:AMPARAMS|DCode=11|XSize=1mm|YSize=1mm|CornerRadius=0.125mm|HoleSize=0mm|Usage=FLASHONLY|Rotation=270.000|XOffset=0mm|YOffset=0mm|HoleType=Round|Shape=RoundedRectangle|*
%AMROUNDEDRECTD11*
21,1,1.00000,0.75000,0,0,270.0*
21,1,0.75000,1.00000,0,0,270.0*
1,1,0.25000,-0.37500,-0.37500*
1,1,0.25000,-0.37500,0.37500*
1,1,0.25000,0.37500,0.37500*
1,1,0.25000,0.37500,-0.37500*
%
%ADD11ROUNDEDRECTD11*%
G04:AMPARAMS|DCode=12|XSize=1mm|YSize=1mm|CornerRadius=0.125mm|HoleSize=0mm|Usage=FLASHONLY|Rotation=0.000|XOffset=0mm|YOffset=0mm|HoleType=Round|Shape=RoundedRectangle|*
%AMROUNDEDRECTD12*
21,1,1.00000,0.75000,0,0,0.0*
21,1,0.75000,1.00000,0,0,0.0*
1,1,0.25000,0.37500,-0.37500*
1,1,0.25000,-0.37500,-0.37500*
1,1,0.25000,-0.37500,0.37500*
1,1,0.25000,0.37500,0.37500*
%
%ADD12ROUNDEDRECTD12*%
%ADD13R,0.90000X1.68000*%
%ADD14R,0.52000X0.42000*%
G04:AMPARAMS|DCode=15|XSize=1.63mm|YSize=0.45mm|CornerRadius=0.1125mm|HoleSize=0mm|Usage=FLASHONLY|Rotation=0.000|XOffset=0mm|YOffset=0mm|HoleType=Round|Shape=RoundedRectangle|*
%AMROUNDEDRECTD15*
21,1,1.63000,0.22500,0,0,0.0*
21,1,1.40500,0.45000,0,0,0.0*
1,1,0.22500,0.70250,-0.11250*
1,1,0.22500,-0.70250,-0.11250*
1,1,0.22500,-0.70250,0.11250*
1,1,0.22500,0.70250,0.11250*
%
%ADD15ROUNDEDRECTD15*%
G04:AMPARAMS|DCode=16|XSize=0.9mm|YSize=0.3mm|CornerRadius=0.075mm|HoleSize=0mm|Usage=FLASHONLY|Rotation=0.000|XOffset=0mm|YOffset=0mm|HoleType=Round|Shape=RoundedRectangle|*
%AMROUNDEDRECTD16*
21,1,0.90000,0.15000,0,0,0.0*
21,1,0.75000,0.30000,0,0,0.0*
1,1,0.15000,0.37500,-0.07500*
1,1,0.15000,-0.37500,-0.07500*
1,1,0.15000,-0.37500,0.07500*
1,1,0.15000,0.37500,0.07500*
%
%ADD16ROUNDEDRECTD16*%
G04:AMPARAMS|DCode=17|XSize=1.2mm|YSize=0.5mm|CornerRadius=0.125mm|HoleSize=0mm|Usage=FLASHONLY|Rotation=90.000|XOffset=0mm|YOffset=0mm|HoleType=Round|Shape=RoundedRectangle|*
%AMROUNDEDRECTD17*
21,1,1.20000,0.25000,0,0,90.0*
21,1,0.95000,0.50000,0,0,90.0*
1,1,0.25000,0.12500,0.47500*
1,1,0.25000,0.12500,-0.47500*
1,1,0.25000,-0.12500,-0.47500*
1,1,0.25000,-0.12500,0.47500*
%
%ADD17ROUNDEDRECTD17*%
G04:AMPARAMS|DCode=18|XSize=0.56mm|YSize=0.62mm|CornerRadius=0.07mm|HoleSize=0mm|Usage=FLASHONLY|Rotation=180.000|XOffset=0mm|YOffset=0mm|HoleType=Round|Shape=RoundedRectangle|*
%AMROUNDEDRECTD18*
21,1,0.56000,0.48000,0,0,180.0*
21,1,0.42000,0.62000,0,0,180.0*
1,1,0.14000,-0.21000,0.24000*
1,1,0.14000,0.21000,0.24000*
1,1,0.14000,0.21000,-0.24000*
1,1,0.14000,-0.21000,-0.24000*
%
%ADD18ROUNDEDRECTD18*%
G04:AMPARAMS|DCode=19|XSize=0.54mm|YSize=0.64mm|CornerRadius=0.0675mm|HoleSize=0mm|Usage=FLASHONLY|Rotation=0.000|XOffset=0mm|YOffset=0mm|HoleType=Round|Shape=RoundedRectangle|*
%AMROUNDEDRECTD19*
21,1,0.54000,0.50500,0,0,0.0*
21,1,0.40500,0.64000,0,0,0.0*
1,1,0.13500,0.20250,-0.25250*
1,1,0.13500,-0.20250,-0.25250*
1,1,0.13500,-0.20250,0.25250*
1,1,0.13500,0.20250,0.25250*
%
%ADD19ROUNDEDRECTD19*%
G04:AMPARAMS|DCode=20|XSize=1mm|YSize=1.45mm|CornerRadius=0.125mm|HoleSize=0mm|Usage=FLASHONLY|Rotation=90.000|XOffset=0mm|YOffset=0mm|HoleType=Round|Shape=RoundedRectangle|*
%AMROUNDEDRECTD20*
21,1,1.00000,1.20000,0,0,90.0*
21,1,0.75000,1.45000,0,0,90.0*
1,1,0.25000,0.60000,0.37500*
1,1,0.25000,0.60000,-0.37500*
1,1,0.25000,-0.60000,-0.37500*
1,1,0.25000,-0.60000,0.37500*
%
%ADD20ROUNDEDRECTD20*%
G04:AMPARAMS|DCode=21|XSize=0.56mm|YSize=0.62mm|CornerRadius=0.07mm|HoleSize=0mm|Usage=FLASHONLY|Rotation=90.000|XOffset=0mm|YOffset=0mm|HoleType=Round|Shape=RoundedRectangle|*
%AMROUNDEDRECTD21*
21,1,0.56000,0.48000,0,0,90.0*
21,1,0.42000,0.62000,0,0,90.0*
1,1,0.14000,0.24000,0.21000*
1,1,0.14000,0.24000,-0.21000*
1,1,0.14000,-0.24000,-0.21000*
1,1,0.14000,-0.24000,0.21000*
%
%ADD21ROUNDEDRECTD21*%
G04:AMPARAMS|DCode=23|XSize=0.775mm|YSize=0.4mm|CornerRadius=0.05mm|HoleSize=0mm|Usage=FLASHONLY|Rotation=270.000|XOffset=0mm|YOffset=0mm|HoleType=Round|Shape=RoundedRectangle|*
%AMROUNDEDRECTD23*
21,1,0.77500,0.30000,0,0,270.0*
21,1,0.67500,0.40000,0,0,270.0*
1,1,0.10000,-0.15000,-0.33750*
1,1,0.10000,-0.15000,0.33750*
1,1,0.10000,0.15000,0.33750*
1,1,0.10000,0.15000,-0.33750*
%
%ADD23ROUNDEDRECTD23*%
G04:AMPARAMS|DCode=24|XSize=1.25mm|YSize=2.65mm|CornerRadius=0.125mm|HoleSize=0mm|Usage=FLASHONLY|Rotation=270.000|XOffset=0mm|YOffset=0mm|HoleType=Round|Shape=RoundedRectangle|*
%AMROUNDEDRECTD24*
21,1,1.25000,2.40000,0,0,270.0*
21,1,1.00000,2.65000,0,0,270.0*
1,1,0.25000,-1.20000,-0.50000*
1,1,0.25000,-1.20000,0.50000*
1,1,0.25000,1.20000,0.50000*
1,1,0.25000,1.20000,-0.50000*
%
%ADD24ROUNDEDRECTD24*%
G04:AMPARAMS|DCode=26|XSize=0.25mm|YSize=0.875mm|CornerRadius=0.03125mm|HoleSize=0mm|Usage=FLASHONLY|Rotation=0.000|XOffset=0mm|YOffset=0mm|HoleType=Round|Shape=RoundedRectangle|*
%AMROUNDEDRECTD26*
21,1,0.25000,0.81250,0,0,0.0*
21,1,0.18750,0.87500,0,0,0.0*
1,1,0.06250,0.09375,-0.40625*
1,1,0.06250,-0.09375,-0.40625*
1,1,0.06250,-0.09375,0.40625*
1,1,0.06250,0.09375,0.40625*
%
%ADD26ROUNDEDRECTD26*%
G04:AMPARAMS|DCode=27|XSize=0.875mm|YSize=0.25mm|CornerRadius=0.03125mm|HoleSize=0mm|Usage=FLASHONLY|Rotation=0.000|XOffset=0mm|YOffset=0mm|HoleType=Round|Shape=RoundedRectangle|*
%AMROUNDEDRECTD27*
21,1,0.87500,0.18750,0,0,0.0*
21,1,0.81250,0.25000,0,0,0.0*
1,1,0.06250,0.40625,-0.09375*
1,1,0.06250,-0.40625,-0.09375*
1,1,0.06250,-0.40625,0.09375*
1,1,0.06250,0.40625,0.09375*
%
%ADD27ROUNDEDRECTD27*%
%ADD28R,1.10000X1.25000*%
%ADD29R,1.30000X1.40000*%
%ADD30R,2.60000X1.40000*%
G04:AMPARAMS|DCode=31|XSize=0.54mm|YSize=0.64mm|CornerRadius=0.0675mm|HoleSize=0mm|Usage=FLASHONLY|Rotation=270.000|XOffset=0mm|YOffset=0mm|HoleType=Round|Shape=RoundedRectangle|*
%AMROUNDEDRECTD31*
21,1,0.54000,0.50500,0,0,270.0*
21,1,0.40500,0.64000,0,0,270.0*
1,1,0.13500,-0.25250,-0.20250*
1,1,0.13500,-0.25250,0.20250*
1,1,0.13500,0.25250,0.20250*
1,1,0.13500,0.25250,-0.20250*
%
%ADD31ROUNDEDRECTD31*%
G04:AMPARAMS|DCode=32|XSize=0.7mm|YSize=0.25mm|CornerRadius=0.03125mm|HoleSize=0mm|Usage=FLASHONLY|Rotation=270.000|XOffset=0mm|YOffset=0mm|HoleType=Round|Shape=RoundedRectangle|*
%AMROUNDEDRECTD32*
21,1,0.70000,0.18750,0,0,270.0*
21,1,0.63750,0.25000,0,0,270.0*
1,1,0.06250,-0.09375,-0.31875*
1,1,0.06250,-0.09375,0.31875*
1,1,0.06250,0.09375,0.31875*
1,1,0.06250,0.09375,-0.31875*
%
%ADD32ROUNDEDRECTD32*%
G04:AMPARAMS|DCode=33|XSize=0.8mm|YSize=0.25mm|CornerRadius=0.03125mm|HoleSize=0mm|Usage=FLASHONLY|Rotation=270.000|XOffset=0mm|YOffset=0mm|HoleType=Round|Shape=RoundedRectangle|*
%AMROUNDEDRECTD33*
21,1,0.80000,0.18750,0,0,270.0*
21,1,0.73750,0.25000,0,0,270.0*
1,1,0.06250,-0.09375,-0.36875*
1,1,0.06250,-0.09375,0.36875*
1,1,0.06250,0.09375,0.36875*
1,1,0.06250,0.09375,-0.36875*
%
%ADD33ROUNDEDRECTD33*%
%ADD34R,0.71120X1.70180*%
%ADD35R,1.10000X0.80000*%
%TA.AperFunction,OtherPad,Pad U1-Un4 (6.918mm,4.868mm)*%
G04:AMPARAMS|DCode=80|XSize=0.6mm|YSize=0.93mm|CornerRadius=0.075mm|HoleSize=0mm|Usage=FLASHONLY|Rotation=270.000|XOffset=0mm|YOffset=0mm|HoleType=Round|Shape=RoundedRectangle|*
%AMROUNDEDRECTD80*
21,1,0.60000,0.78000,0,0,270.0*
21,1,0.45000,0.93000,0,0,270.0*
1,1,0.15000,-0.39000,-0.22500*
1,1,0.15000,-0.39000,0.22500*
1,1,0.15000,0.39000,0.22500*
1,1,0.15000,0.39000,-0.22500*
%
%ADD80ROUNDEDRECTD80*%
%TA.AperFunction,OtherPad,Pad U1-Un3 (8.068mm,4.868mm)*%
G04:AMPARAMS|DCode=81|XSize=0.6mm|YSize=0.93mm|CornerRadius=0.075mm|HoleSize=0mm|Usage=FLASHONLY|Rotation=270.000|XOffset=0mm|YOffset=0mm|HoleType=Round|Shape=RoundedRectangle|*
%AMROUNDEDRECTD81*
21,1,0.60000,0.78000,0,0,270.0*
21,1,0.45000,0.93000,0,0,270.0*
1,1,0.15000,-0.39000,-0.22500*
1,1,0.15000,-0.39000,0.22500*
1,1,0.15000,0.39000,0.22500*
1,1,0.15000,0.39000,-0.22500*
%
%ADD81ROUNDEDRECTD81*%
%TA.AperFunction,OtherPad,Pad U1-Un2 (6.918mm,5.619mm)*%
G04:AMPARAMS|DCode=82|XSize=0.6mm|YSize=0.93mm|CornerRadius=0.075mm|HoleSize=0mm|Usage=FLASHONLY|Rotation=270.000|XOffset=0mm|YOffset=0mm|HoleType=Round|Shape=RoundedRectangle|*
%AMROUNDEDRECTD82*
21,1,0.60000,0.78000,0,0,270.0*
21,1,0.45000,0.93000,0,0,270.0*
1,1,0.15000,-0.39000,-0.22500*
1,1,0.15000,-0.39000,0.22500*
1,1,0.15000,0.39000,0.22500*
1,1,0.15000,0.39000,-0.22500*
%
%ADD82ROUNDEDRECTD82*%
%TA.AperFunction,OtherPad,Pad U1-Un1 (8.068mm,5.619mm)*%
G04:AMPARAMS|DCode=83|XSize=0.6mm|YSize=0.93mm|CornerRadius=0.075mm|HoleSize=0mm|Usage=FLASHONLY|Rotation=270.000|XOffset=0mm|YOffset=0mm|HoleType=Round|Shape=RoundedRectangle|*
%AMROUNDEDRECTD83*
21,1,0.60000,0.78000,0,0,270.0*
21,1,0.45000,0.93000,0,0,270.0*
1,1,0.15000,-0.39000,-0.22500*
1,1,0.15000,-0.39000,0.22500*
1,1,0.15000,0.39000,0.22500*
1,1,0.15000,0.39000,-0.22500*
%
%ADD83ROUNDEDRECTD83*%
%TA.AperFunction,OtherPad,Pad U6-Un9 (28.97mm,14.083mm)*%
G04:AMPARAMS|DCode=84|XSize=0.83mm|YSize=0.83mm|CornerRadius=0.10375mm|HoleSize=0mm|Usage=FLASHONLY|Rotation=0.000|XOffset=0mm|YOffset=0mm|HoleType=Round|Shape=RoundedRectangle|*
%AMROUNDEDRECTD84*
21,1,0.83000,0.62250,0,0,0.0*
21,1,0.62250,0.83000,0,0,0.0*
1,1,0.20750,0.31125,-0.31125*
1,1,0.20750,-0.31125,-0.31125*
1,1,0.20750,-0.31125,0.31125*
1,1,0.20750,0.31125,0.31125*
%
%ADD84ROUNDEDRECTD84*%
%TA.AperFunction,OtherPad,Pad U6-Un8 (28.97mm,15.113mm)*%
G04:AMPARAMS|DCode=85|XSize=0.83mm|YSize=0.83mm|CornerRadius=0.10375mm|HoleSize=0mm|Usage=FLASHONLY|Rotation=0.000|XOffset=0mm|YOffset=0mm|HoleType=Round|Shape=RoundedRectangle|*
%AMROUNDEDRECTD85*
21,1,0.83000,0.62250,0,0,0.0*
21,1,0.62250,0.83000,0,0,0.0*
1,1,0.20750,0.31125,-0.31125*
1,1,0.20750,-0.31125,-0.31125*
1,1,0.20750,-0.31125,0.31125*
1,1,0.20750,0.31125,0.31125*
%
%ADD85ROUNDEDRECTD85*%
%TA.AperFunction,OtherPad,Pad U6-Un7 (28.97mm,16.143mm)*%
G04:AMPARAMS|DCode=86|XSize=0.83mm|YSize=0.83mm|CornerRadius=0.10375mm|HoleSize=0mm|Usage=FLASHONLY|Rotation=0.000|XOffset=0mm|YOffset=0mm|HoleType=Round|Shape=RoundedRectangle|*
%AMROUNDEDRECTD86*
21,1,0.83000,0.62250,0,0,0.0*
21,1,0.62250,0.83000,0,0,0.0*
1,1,0.20750,0.31125,-0.31125*
1,1,0.20750,-0.31125,-0.31125*
1,1,0.20750,-0.31125,0.31125*
1,1,0.20750,0.31125,0.31125*
%
%ADD86ROUNDEDRECTD86*%
%TA.AperFunction,OtherPad,Pad U6-Un6 (27.94mm,14.083mm)*%
G04:AMPARAMS|DCode=87|XSize=0.83mm|YSize=0.83mm|CornerRadius=0.10375mm|HoleSize=0mm|Usage=FLASHONLY|Rotation=0.000|XOffset=0mm|YOffset=0mm|HoleType=Round|Shape=RoundedRectangle|*
%AMROUNDEDRECTD87*
21,1,0.83000,0.62250,0,0,0.0*
21,1,0.62250,0.83000,0,0,0.0*
1,1,0.20750,0.31125,-0.31125*
1,1,0.20750,-0.31125,-0.31125*
1,1,0.20750,-0.31125,0.31125*
1,1,0.20750,0.31125,0.31125*
%
%ADD87ROUNDEDRECTD87*%
%TA.AperFunction,OtherPad,Pad U6-Un5 (27.94mm,15.113mm)*%
G04:AMPARAMS|DCode=88|XSize=0.83mm|YSize=0.83mm|CornerRadius=0.10375mm|HoleSize=0mm|Usage=FLASHONLY|Rotation=0.000|XOffset=0mm|YOffset=0mm|HoleType=Round|Shape=RoundedRectangle|*
%AMROUNDEDRECTD88*
21,1,0.83000,0.62250,0,0,0.0*
21,1,0.62250,0.83000,0,0,0.0*
1,1,0.20750,0.31125,-0.31125*
1,1,0.20750,-0.31125,-0.31125*
1,1,0.20750,-0.31125,0.31125*
1,1,0.20750,0.31125,0.31125*
%
%ADD88ROUNDEDRECTD88*%
%TA.AperFunction,OtherPad,Pad U6-Un4 (27.94mm,16.143mm)*%
G04:AMPARAMS|DCode=89|XSize=0.83mm|YSize=0.83mm|CornerRadius=0.10375mm|HoleSize=0mm|Usage=FLASHONLY|Rotation=0.000|XOffset=0mm|YOffset=0mm|HoleType=Round|Shape=RoundedRectangle|*
%AMROUNDEDRECTD89*
21,1,0.83000,0.62250,0,0,0.0*
21,1,0.62250,0.83000,0,0,0.0*
1,1,0.20750,0.31125,-0.31125*
1,1,0.20750,-0.31125,-0.31125*
1,1,0.20750,-0.31125,0.31125*
1,1,0.20750,0.31125,0.31125*
%
%ADD89ROUNDEDRECTD89*%
%TA.AperFunction,OtherPad,Pad U6-Un3 (26.91mm,14.083mm)*%
G04:AMPARAMS|DCode=90|XSize=0.83mm|YSize=0.83mm|CornerRadius=0.10375mm|HoleSize=0mm|Usage=FLASHONLY|Rotation=0.000|XOffset=0mm|YOffset=0mm|HoleType=Round|Shape=RoundedRectangle|*
%AMROUNDEDRECTD90*
21,1,0.83000,0.62250,0,0,0.0*
21,1,0.62250,0.83000,0,0,0.0*
1,1,0.20750,0.31125,-0.31125*
1,1,0.20750,-0.31125,-0.31125*
1,1,0.20750,-0.31125,0.31125*
1,1,0.20750,0.31125,0.31125*
%
%ADD90ROUNDEDRECTD90*%
%TA.AperFunction,OtherPad,Pad U6-Un2 (26.91mm,15.113mm)*%
G04:AMPARAMS|DCode=91|XSize=0.83mm|YSize=0.83mm|CornerRadius=0.10375mm|HoleSize=0mm|Usage=FLASHONLY|Rotation=0.000|XOffset=0mm|YOffset=0mm|HoleType=Round|Shape=RoundedRectangle|*
%AMROUNDEDRECTD91*
21,1,0.83000,0.62250,0,0,0.0*
21,1,0.62250,0.83000,0,0,0.0*
1,1,0.20750,0.31125,-0.31125*
1,1,0.20750,-0.31125,-0.31125*
1,1,0.20750,-0.31125,0.31125*
1,1,0.20750,0.31125,0.31125*
%
%ADD91ROUNDEDRECTD91*%
%TA.AperFunction,OtherPad,Pad U6-Un1 (26.91mm,16.143mm)*%
G04:AMPARAMS|DCode=92|XSize=0.83mm|YSize=0.83mm|CornerRadius=0.10375mm|HoleSize=0mm|Usage=FLASHONLY|Rotation=0.000|XOffset=0mm|YOffset=0mm|HoleType=Round|Shape=RoundedRectangle|*
%AMROUNDEDRECTD92*
21,1,0.83000,0.62250,0,0,0.0*
21,1,0.62250,0.83000,0,0,0.0*
1,1,0.20750,0.31125,-0.31125*
1,1,0.20750,-0.31125,-0.31125*
1,1,0.20750,-0.31125,0.31125*
1,1,0.20750,0.31125,0.31125*
%
%ADD92ROUNDEDRECTD92*%
D11*
X4749800Y1955800D02*
D03*
D12*
X4801339Y1739900D02*
D03*
X3835400Y889000D02*
D03*
D13*
X5352659Y851150D02*
D03*
D14*
X5266159Y786150D02*
D03*
Y851150D02*
D03*
Y916150D02*
D03*
X5439159D02*
D03*
Y851150D02*
D03*
Y786150D02*
D03*
D15*
X4409100Y1242860D02*
D03*
X4627100D02*
D03*
D16*
X4373100Y1185360D02*
D03*
Y1120360D02*
D03*
Y1057360D02*
D03*
X4663100D02*
D03*
Y1120360D02*
D03*
Y1185360D02*
D03*
D17*
X4518100Y1102860D02*
D03*
D18*
X2717800Y1092200D02*
D03*
X2813800D02*
D03*
X3190500Y1358900D02*
D03*
X3286500D02*
D03*
X5399449Y679315D02*
D03*
X5303449D02*
D03*
X3007100Y1092200D02*
D03*
X2911100D02*
D03*
X3190500Y1257300D02*
D03*
X3286500D02*
D03*
X3190500Y1155700D02*
D03*
X3286500D02*
D03*
D19*
X4488020Y891490D02*
D03*
X4386020D02*
D03*
X3657200Y1599800D02*
D03*
X3759200D02*
D03*
X3009900Y990600D02*
D03*
X2907900D02*
D03*
X2717600D02*
D03*
X2819600D02*
D03*
X5474639Y1054100D02*
D03*
X5372639D02*
D03*
X868800Y831250D02*
D03*
X766800D02*
D03*
X3415900Y1599800D02*
D03*
X3517900D02*
D03*
D20*
X4140200Y1445760D02*
D03*
Y1255760D02*
D03*
Y902200D02*
D03*
Y1092200D02*
D03*
X5090899Y616450D02*
D03*
Y806450D02*
D03*
X5220439Y1415800D02*
D03*
Y1225800D02*
D03*
X4885159Y616450D02*
D03*
Y806450D02*
D03*
D21*
X5126459Y406650D02*
D03*
Y310650D02*
D03*
X5022319Y406130D02*
D03*
Y310130D02*
D03*
X2311400Y1785100D02*
D03*
Y1689100D02*
D03*
X4821659Y406650D02*
D03*
Y310650D02*
D03*
X4920719Y406390D02*
D03*
Y310390D02*
D03*
X589400Y1123350D02*
D03*
Y1027350D02*
D03*
D23*
X844300Y375600D02*
D03*
X749300D02*
D03*
X654300D02*
D03*
Y673100D02*
D03*
X749300D02*
D03*
X844300D02*
D03*
D24*
X4943579Y975360D02*
D03*
Y1255360D02*
D03*
D26*
X2619000Y1755050D02*
D03*
X2669000D02*
D03*
X2719000D02*
D03*
X2769000D02*
D03*
X2819000D02*
D03*
X2869000D02*
D03*
X2919000D02*
D03*
X2969000D02*
D03*
Y1267550D02*
D03*
X2919000D02*
D03*
X2869000D02*
D03*
X2819000D02*
D03*
X2769000D02*
D03*
X2719000D02*
D03*
X2669000D02*
D03*
X2619000D02*
D03*
D27*
X3037750Y1686300D02*
D03*
Y1636300D02*
D03*
Y1586300D02*
D03*
Y1536300D02*
D03*
Y1486300D02*
D03*
Y1436300D02*
D03*
Y1386300D02*
D03*
Y1336300D02*
D03*
X2550250D02*
D03*
Y1386300D02*
D03*
Y1436300D02*
D03*
Y1486300D02*
D03*
Y1536300D02*
D03*
Y1586300D02*
D03*
Y1636300D02*
D03*
Y1686300D02*
D03*
D28*
X3733800Y1117600D02*
D03*
Y1462600D02*
D03*
X3505200Y1117600D02*
D03*
Y1462600D02*
D03*
D29*
X4415340Y1460500D02*
D03*
D30*
X4660340D02*
D03*
D31*
X5168900Y952300D02*
D03*
Y1054300D02*
D03*
X4661639Y774700D02*
D03*
Y876700D02*
D03*
X4547339Y775100D02*
D03*
Y673100D02*
D03*
X2400300Y1244600D02*
D03*
Y1142600D02*
D03*
D32*
X5416959Y433895D02*
D03*
X5366959D02*
D03*
X5316959D02*
D03*
Y553895D02*
D03*
X5366959D02*
D03*
D33*
X5416959Y548895D02*
D03*
D34*
X868800Y1009050D02*
D03*
X708780D02*
D03*
D35*
X1437700Y1117600D02*
D03*
X1127700D02*
D03*
X929155Y1278895D02*
D03*
X619155D02*
D03*
D80*
X691800Y486850D02*
D03*
D81*
X806800D02*
D03*
D82*
X691800Y561850D02*
D03*
D83*
X806800D02*
D03*
D84*
X2897000Y1408300D02*
D03*
D85*
Y1511300D02*
D03*
D86*
Y1614300D02*
D03*
D87*
X2794000Y1408300D02*
D03*
D88*
Y1511300D02*
D03*
D89*
Y1614300D02*
D03*
D90*
X2691000Y1408300D02*
D03*
D91*
Y1511300D02*
D03*
D92*
Y1614300D02*
D03*
%TF.MD5,8ec7ff15363ac62349cd92f45be0212b*%
M02*
