ISO-10303-21;
HEADER;
FILE_DESCRIPTION((''),'2;1');
FILE_NAME('19200_13122516','2026-08-03T14:42:47',(''),(''),
'CREO PARAMETRIC BY PTC INC','CREO PARAMETRIC BY PTC INC','');
FILE_SCHEMA(('CONFIG_CONTROL_DESIGN'));
ENDSEC;
DATA;
#1=DIRECTION('',(0.E0,0.E0,-1.E0));
#2=VECTOR('',#1,2.1E-1);
#3=CARTESIAN_POINT('',(2.494E0,0.E0,1.05E-1));
#4=LINE('',#3,#2);
#5=DIRECTION('',(-1.E0,0.E0,0.E0));
#6=VECTOR('',#5,2.9E-2);
#7=CARTESIAN_POINT('',(2.494E0,0.E0,-1.05E-1));
#8=LINE('',#7,#6);
#9=DIRECTION('',(0.E0,0.E0,-1.E0));
#10=VECTOR('',#9,2.1E-1);
#11=CARTESIAN_POINT('',(2.465E0,0.E0,1.05E-1));
#12=LINE('',#11,#10);
#13=DIRECTION('',(-1.E0,0.E0,0.E0));
#14=VECTOR('',#13,2.9E-2);
#15=CARTESIAN_POINT('',(2.494E0,0.E0,1.05E-1));
#16=LINE('',#15,#14);
#17=DIRECTION('',(0.E0,0.E0,-1.E0));
#18=VECTOR('',#17,2.1E-1);
#19=CARTESIAN_POINT('',(2.564E0,7.E-2,1.05E-1));
#20=LINE('',#19,#18);
#21=DIRECTION('',(0.E0,1.E0,0.E0));
#22=VECTOR('',#21,7.25E-2);
#23=CARTESIAN_POINT('',(2.605E0,7.E-2,1.05E-1));
#24=LINE('',#23,#22);
#25=DIRECTION('',(-1.E0,0.E0,0.E0));
#26=VECTOR('',#25,4.1E-2);
#27=CARTESIAN_POINT('',(2.605E0,7.E-2,1.05E-1));
#28=LINE('',#27,#26);
#29=DIRECTION('',(-7.071067811865E-1,-7.071067811865E-1,0.E0));
#30=VECTOR('',#29,9.899494936612E-2);
#31=CARTESIAN_POINT('',(2.564E0,7.E-2,1.05E-1));
#32=LINE('',#31,#30);
#33=DIRECTION('',(0.E0,1.E0,0.E0));
#34=VECTOR('',#33,7.37E-2);
#35=CARTESIAN_POINT('',(2.465E0,0.E0,1.05E-1));
#36=LINE('',#35,#34);
#37=DIRECTION('',(1.E0,0.E0,0.E0));
#38=VECTOR('',#37,3.75E-1);
#39=CARTESIAN_POINT('',(2.09E0,7.37E-2,1.05E-1));
#40=LINE('',#39,#38);
#41=CARTESIAN_POINT('',(2.329002512579E0,1.425E-1,2.5E-2));
#42=DIRECTION('',(1.194058893377E-14,1.E0,0.E0));
#43=DIRECTION('',(0.E0,0.E0,1.E0));
#44=AXIS2_PLACEMENT_3D('',#41,#42,#43);
#46=DIRECTION('',(1.E0,0.E0,0.E0));
#47=VECTOR('',#46,2.329002512579E0);
#48=CARTESIAN_POINT('',(0.E0,1.425E-1,2.6E-1));
#49=LINE('',#48,#47);
#50=DIRECTION('',(0.E0,0.E0,1.E0));
#51=VECTOR('',#50,5.2E-1);
#52=CARTESIAN_POINT('',(0.E0,1.425E-1,-2.6E-1));
#53=LINE('',#52,#51);
#54=DIRECTION('',(1.E0,0.E0,0.E0));
#55=VECTOR('',#54,2.329002512579E0);
#56=CARTESIAN_POINT('',(0.E0,1.425E-1,-2.6E-1));
#57=LINE('',#56,#55);
#58=CARTESIAN_POINT('',(2.329002512579E0,1.425E-1,-2.5E-2));
#59=DIRECTION('',(0.E0,1.E0,0.E0));
#60=DIRECTION('',(8.467978188141E-1,0.E0,-5.319148936170E-1));
#61=AXIS2_PLACEMENT_3D('',#58,#59,#60);
#63=DIRECTION('',(-1.E0,0.E0,0.E0));
#64=VECTOR('',#63,4.38E-1);
#65=CARTESIAN_POINT('',(2.528E0,1.425E-1,-1.5E-1));
#66=LINE('',#65,#64);
#67=DIRECTION('',(0.E0,0.E0,1.E0));
#68=VECTOR('',#67,4.5E-2);
#69=CARTESIAN_POINT('',(2.09E0,1.425E-1,-1.5E-1));
#70=LINE('',#69,#68);
#71=DIRECTION('',(-1.E0,0.E0,0.E0));
#72=VECTOR('',#71,5.15E-1);
#73=CARTESIAN_POINT('',(2.605E0,1.425E-1,-1.05E-1));
#74=LINE('',#73,#72);
#75=CARTESIAN_POINT('',(2.605E0,1.425E-1,-5.5E-2));
#76=DIRECTION('',(0.E0,1.E0,0.E0));
#77=DIRECTION('',(1.E0,0.E0,0.E0));
#78=AXIS2_PLACEMENT_3D('',#75,#76,#77);
#80=DIRECTION('',(0.E0,0.E0,-1.E0));
#81=VECTOR('',#80,1.1E-1);
#82=CARTESIAN_POINT('',(2.655E0,1.425E-1,5.5E-2));
#83=LINE('',#82,#81);
#84=CARTESIAN_POINT('',(2.605E0,1.425E-1,5.5E-2));
#85=DIRECTION('',(0.E0,1.E0,0.E0));
#86=DIRECTION('',(0.E0,0.E0,1.E0));
#87=AXIS2_PLACEMENT_3D('',#84,#85,#86);
#89=DIRECTION('',(-1.E0,0.E0,0.E0));
#90=VECTOR('',#89,5.15E-1);
#91=CARTESIAN_POINT('',(2.605E0,1.425E-1,1.05E-1));
#92=LINE('',#91,#90);
#93=DIRECTION('',(0.E0,0.E0,1.E0));
#94=VECTOR('',#93,4.5E-2);
#95=CARTESIAN_POINT('',(2.09E0,1.425E-1,1.05E-1));
#96=LINE('',#95,#94);
#97=DIRECTION('',(1.E0,0.E0,0.E0));
#98=VECTOR('',#97,4.38E-1);
#99=CARTESIAN_POINT('',(2.09E0,1.425E-1,1.5E-1));
#100=LINE('',#99,#98);
#101=DIRECTION('',(0.E0,1.E0,0.E0));
#102=VECTOR('',#101,5.5E-2);
#103=CARTESIAN_POINT('',(2.528E0,8.75E-2,1.5E-1));
#104=LINE('',#103,#102);
#105=DIRECTION('',(0.E0,-1.E0,0.E0));
#106=VECTOR('',#105,9.75E-2);
#107=CARTESIAN_POINT('',(2.09E0,1.425E-1,1.5E-1));
#108=LINE('',#107,#106);
#109=DIRECTION('',(1.E0,0.E0,0.E0));
#110=VECTOR('',#109,4.7E-1);
#111=CARTESIAN_POINT('',(2.09E0,4.5E-2,1.5E-1));
#112=LINE('',#111,#110);
#113=DIRECTION('',(0.E0,1.E0,0.E0));
#114=VECTOR('',#113,4.25E-2);
#115=CARTESIAN_POINT('',(2.56E0,4.5E-2,1.5E-1));
#116=LINE('',#115,#114);
#117=DIRECTION('',(-1.E0,0.E0,-6.852157730109E-14));
#118=VECTOR('',#117,3.2E-2);
#119=CARTESIAN_POINT('',(2.56E0,8.75E-2,1.5E-1));
#120=LINE('',#119,#118);
#121=DIRECTION('',(0.E0,0.E0,1.E0));
#122=VECTOR('',#121,3.E-1);
#123=CARTESIAN_POINT('',(2.09E0,4.5E-2,-1.5E-1));
#124=LINE('',#123,#122);
#125=DIRECTION('',(0.E0,-1.E0,0.E0));
#126=VECTOR('',#125,6.88E-2);
#127=CARTESIAN_POINT('',(2.09E0,1.425E-1,1.05E-1));
#128=LINE('',#127,#126);
#129=DIRECTION('',(0.E0,0.E0,-1.E0));
#130=VECTOR('',#129,2.1E-1);
#131=CARTESIAN_POINT('',(2.09E0,7.37E-2,1.05E-1));
#132=LINE('',#131,#130);
#133=DIRECTION('',(0.E0,-1.E0,0.E0));
#134=VECTOR('',#133,9.75E-2);
#135=CARTESIAN_POINT('',(2.09E0,1.425E-1,-1.5E-1));
#136=LINE('',#135,#134);
#137=CARTESIAN_POINT('',(2.321515199646E0,4.5E-2,7.500000000001E-2));
#138=DIRECTION('',(0.E0,-1.E0,0.E0));
#139=DIRECTION('',(9.539392014170E-1,0.E0,2.999999999999E-1));
#140=AXIS2_PLACEMENT_3D('',#137,#138,#139);
#142=CARTESIAN_POINT('',(2.321515199646E0,4.5E-2,-7.499999999999E-2));
#143=DIRECTION('',(0.E0,-1.E0,0.E0));
#144=DIRECTION('',(0.E0,0.E0,-1.E0));
#145=AXIS2_PLACEMENT_3D('',#142,#143,#144);
#147=DIRECTION('',(1.E0,0.E0,0.E0));
#148=VECTOR('',#147,2.321515199646E0);
#149=CARTESIAN_POINT('',(0.E0,8.75E-2,3.25E-1));
#150=LINE('',#149,#148);
#151=DIRECTION('',(0.E0,1.E0,0.E0));
#152=VECTOR('',#151,4.25E-2);
#153=CARTESIAN_POINT('',(2.321515199646E0,4.5E-2,3.25E-1));
#154=LINE('',#153,#152);
#155=DIRECTION('',(1.E0,0.E0,0.E0));
#156=VECTOR('',#155,2.321515199646E0);
#157=CARTESIAN_POINT('',(0.E0,4.5E-2,3.25E-1));
#158=LINE('',#157,#156);
#159=DIRECTION('',(0.E0,1.E0,0.E0));
#160=VECTOR('',#159,4.25E-2);
#161=CARTESIAN_POINT('',(0.E0,4.5E-2,3.25E-1));
#162=LINE('',#161,#160);
#163=DIRECTION('',(-1.E0,0.E0,0.E0));
#164=VECTOR('',#163,2.329002512579E0);
#165=CARTESIAN_POINT('',(2.329002512579E0,8.75E-2,2.6E-1));
#166=LINE('',#165,#164);
#167=CARTESIAN_POINT('',(2.329002512579E0,8.75E-2,2.5E-2));
#168=DIRECTION('',(-1.194058893377E-14,-1.E0,0.E0));
#169=DIRECTION('',(8.467978188141E-1,-1.009830517079E-14,5.319148936170E-1));
#170=AXIS2_PLACEMENT_3D('',#167,#168,#169);
#172=CARTESIAN_POINT('',(2.321515199646E0,8.75E-2,7.500000000001E-2));
#173=DIRECTION('',(0.E0,-1.E0,0.E0));
#174=DIRECTION('',(9.539392014170E-1,0.E0,3.E-1));
#175=AXIS2_PLACEMENT_3D('',#172,#173,#174);
#177=CARTESIAN_POINT('',(2.321515199646E0,8.75E-2,-7.499999999999E-2));
#178=DIRECTION('',(0.E0,-1.E0,0.E0));
#179=DIRECTION('',(0.E0,0.E0,-1.E0));
#180=AXIS2_PLACEMENT_3D('',#177,#178,#179);
#182=CARTESIAN_POINT('',(2.329002512579E0,8.75E-2,-2.5E-2));
#183=DIRECTION('',(0.E0,-1.E0,0.E0));
#184=DIRECTION('',(-1.511793054809E-14,0.E0,-1.E0));
#185=AXIS2_PLACEMENT_3D('',#182,#183,#184);
#187=DIRECTION('',(1.E0,0.E0,0.E0));
#188=VECTOR('',#187,2.329002512579E0);
#189=CARTESIAN_POINT('',(0.E0,8.75E-2,-2.6E-1));
#190=LINE('',#189,#188);
#191=DIRECTION('',(0.E0,1.E0,0.E0));
#192=VECTOR('',#191,5.5E-2);
#193=CARTESIAN_POINT('',(2.329002512579E0,8.75E-2,2.6E-1));
#194=LINE('',#193,#192);
#195=DIRECTION('',(0.E0,0.E0,1.E0));
#196=VECTOR('',#195,6.5E-1);
#197=CARTESIAN_POINT('',(0.E0,4.5E-2,-3.25E-1));
#198=LINE('',#197,#196);
#199=DIRECTION('',(0.E0,1.E0,0.E0));
#200=VECTOR('',#199,4.25E-2);
#201=CARTESIAN_POINT('',(0.E0,4.5E-2,-3.25E-1));
#202=LINE('',#201,#200);
#203=DIRECTION('',(0.E0,0.E0,1.E0));
#204=VECTOR('',#203,6.499999999999E-2);
#205=CARTESIAN_POINT('',(0.E0,8.75E-2,-3.25E-1));
#206=LINE('',#205,#204);
#207=DIRECTION('',(0.E0,-1.E0,0.E0));
#208=VECTOR('',#207,5.5E-2);
#209=CARTESIAN_POINT('',(0.E0,1.425E-1,-2.6E-1));
#210=LINE('',#209,#208);
#211=DIRECTION('',(0.E0,-1.E0,0.E0));
#212=VECTOR('',#211,5.5E-2);
#213=CARTESIAN_POINT('',(0.E0,1.425E-1,2.6E-1));
#214=LINE('',#213,#212);
#215=DIRECTION('',(0.E0,0.E0,1.E0));
#216=VECTOR('',#215,6.500000000001E-2);
#217=CARTESIAN_POINT('',(0.E0,8.75E-2,2.6E-1));
#218=LINE('',#217,#216);
#219=DIRECTION('',(-1.E0,0.E0,0.E0));
#220=VECTOR('',#219,2.321515199646E0);
#221=CARTESIAN_POINT('',(2.321515199646E0,8.75E-2,-3.25E-1));
#222=LINE('',#221,#220);
#223=DIRECTION('',(-1.E0,0.E0,0.E0));
#224=VECTOR('',#223,2.321515199646E0);
#225=CARTESIAN_POINT('',(2.321515199646E0,4.5E-2,-3.25E-1));
#226=LINE('',#225,#224);
#227=DIRECTION('',(1.044915787883E-14,-1.E0,0.E0));
#228=VECTOR('',#227,4.25E-2);
#229=CARTESIAN_POINT('',(2.321515199646E0,8.75E-2,-3.25E-1));
#230=LINE('',#229,#228);
#231=DIRECTION('',(1.614869854E-14,-1.E0,0.E0));
#232=VECTOR('',#231,5.5E-2);
#233=CARTESIAN_POINT('',(2.528E0,1.425E-1,-1.5E-1));
#234=LINE('',#233,#232);
#235=DIRECTION('',(-1.E0,0.E0,-4.163336342344E-14));
#236=VECTOR('',#235,3.2E-2);
#237=CARTESIAN_POINT('',(2.56E0,8.75E-2,-1.5E-1));
#238=LINE('',#237,#236);
#239=DIRECTION('',(0.E0,-1.E0,0.E0));
#240=VECTOR('',#239,4.25E-2);
#241=CARTESIAN_POINT('',(2.56E0,8.75E-2,-1.5E-1));
#242=LINE('',#241,#240);
#243=DIRECTION('',(-1.E0,0.E0,0.E0));
#244=VECTOR('',#243,4.7E-1);
#245=CARTESIAN_POINT('',(2.56E0,4.5E-2,-1.5E-1));
#246=LINE('',#245,#244);
#247=DIRECTION('',(0.E0,-1.E0,0.E0));
#248=VECTOR('',#247,5.5E-2);
#249=CARTESIAN_POINT('',(2.329002512579E0,1.425E-1,-2.6E-1));
#250=LINE('',#249,#248);
#251=DIRECTION('',(0.E0,0.E0,-1.E0));
#252=VECTOR('',#251,2.1E-1);
#253=CARTESIAN_POINT('',(2.465E0,7.37E-2,1.05E-1));
#254=LINE('',#253,#252);
#255=DIRECTION('',(0.E0,-1.E0,0.E0));
#256=VECTOR('',#255,7.25E-2);
#257=CARTESIAN_POINT('',(2.605E0,1.425E-1,-1.05E-1));
#258=LINE('',#257,#256);
#259=DIRECTION('',(0.E0,-1.E0,0.E0));
#260=VECTOR('',#259,6.88E-2);
#261=CARTESIAN_POINT('',(2.09E0,1.425E-1,-1.05E-1));
#262=LINE('',#261,#260);
#263=DIRECTION('',(1.E0,0.E0,0.E0));
#264=VECTOR('',#263,3.75E-1);
#265=CARTESIAN_POINT('',(2.09E0,7.37E-2,-1.05E-1));
#266=LINE('',#265,#264);
#267=DIRECTION('',(0.E0,1.E0,0.E0));
#268=VECTOR('',#267,7.37E-2);
#269=CARTESIAN_POINT('',(2.465E0,0.E0,-1.05E-1));
#270=LINE('',#269,#268);
#271=DIRECTION('',(-7.071067811865E-1,-7.071067811865E-1,0.E0));
#272=VECTOR('',#271,9.899494936612E-2);
#273=CARTESIAN_POINT('',(2.564E0,7.E-2,-1.05E-1));
#274=LINE('',#273,#272);
#275=DIRECTION('',(-1.E0,0.E0,0.E0));
#276=VECTOR('',#275,4.1E-2);
#277=CARTESIAN_POINT('',(2.605E0,7.E-2,-1.05E-1));
#278=LINE('',#277,#276);
#279=CARTESIAN_POINT('',(2.605E0,7.E-2,-5.5E-2));
#280=DIRECTION('',(0.E0,-1.E0,0.E0));
#281=DIRECTION('',(0.E0,0.E0,-1.E0));
#282=AXIS2_PLACEMENT_3D('',#279,#280,#281);
#284=CARTESIAN_POINT('',(2.605E0,7.E-2,5.5E-2));
#285=DIRECTION('',(0.E0,-1.E0,0.E0));
#286=DIRECTION('',(1.E0,0.E0,2.886579864025E-14));
#287=AXIS2_PLACEMENT_3D('',#284,#285,#286);
#289=DIRECTION('',(0.E0,-1.E0,0.E0));
#290=VECTOR('',#289,7.25E-2);
#291=CARTESIAN_POINT('',(2.655E0,1.425E-1,-5.5E-2));
#292=LINE('',#291,#290);
#293=DIRECTION('',(0.E0,0.E0,-1.E0));
#294=VECTOR('',#293,1.1E-1);
#295=CARTESIAN_POINT('',(2.655E0,7.E-2,5.5E-2));
#296=LINE('',#295,#294);
#297=DIRECTION('',(0.E0,1.E0,0.E0));
#298=VECTOR('',#297,7.25E-2);
#299=CARTESIAN_POINT('',(2.655E0,7.E-2,5.5E-2));
#300=LINE('',#299,#298);
#301=CARTESIAN_POINT('',(2.09E0,1.425E-1,-1.5E-1));
#302=CARTESIAN_POINT('',(2.09E0,1.425E-1,-1.05E-1));
#303=VERTEX_POINT('',#301);
#304=VERTEX_POINT('',#302);
#305=CARTESIAN_POINT('',(2.09E0,1.425E-1,1.05E-1));
#306=CARTESIAN_POINT('',(2.09E0,1.425E-1,1.5E-1));
#307=VERTEX_POINT('',#305);
#308=VERTEX_POINT('',#306);
#309=CARTESIAN_POINT('',(0.E0,8.75E-2,-3.25E-1));
#310=CARTESIAN_POINT('',(0.E0,8.75E-2,-2.6E-1));
#311=VERTEX_POINT('',#309);
#312=VERTEX_POINT('',#310);
#313=CARTESIAN_POINT('',(0.E0,8.75E-2,2.6E-1));
#314=CARTESIAN_POINT('',(0.E0,8.75E-2,3.25E-1));
#315=VERTEX_POINT('',#313);
#316=VERTEX_POINT('',#314);
#317=CARTESIAN_POINT('',(0.E0,1.425E-1,-2.6E-1));
#318=VERTEX_POINT('',#317);
#319=CARTESIAN_POINT('',(0.E0,1.425E-1,2.6E-1));
#320=VERTEX_POINT('',#319);
#321=CARTESIAN_POINT('',(0.E0,4.5E-2,-3.25E-1));
#322=CARTESIAN_POINT('',(0.E0,4.5E-2,3.25E-1));
#323=VERTEX_POINT('',#321);
#324=VERTEX_POINT('',#322);
#325=CARTESIAN_POINT('',(2.09E0,4.5E-2,-1.5E-1));
#326=VERTEX_POINT('',#325);
#327=CARTESIAN_POINT('',(2.09E0,4.5E-2,1.5E-1));
#328=VERTEX_POINT('',#327);
#329=CARTESIAN_POINT('',(2.494E0,0.E0,1.05E-1));
#330=CARTESIAN_POINT('',(2.494E0,0.E0,-1.05E-1));
#331=VERTEX_POINT('',#329);
#332=VERTEX_POINT('',#330);
#333=CARTESIAN_POINT('',(2.465E0,0.E0,1.05E-1));
#334=CARTESIAN_POINT('',(2.465E0,0.E0,-1.05E-1));
#335=VERTEX_POINT('',#333);
#336=VERTEX_POINT('',#334);
#337=CARTESIAN_POINT('',(2.564E0,7.E-2,-1.05E-1));
#338=VERTEX_POINT('',#337);
#339=CARTESIAN_POINT('',(2.465E0,7.37E-2,-1.05E-1));
#340=VERTEX_POINT('',#339);
#341=CARTESIAN_POINT('',(2.09E0,7.37E-2,-1.05E-1));
#342=VERTEX_POINT('',#341);
#343=CARTESIAN_POINT('',(2.564E0,7.E-2,1.05E-1));
#344=VERTEX_POINT('',#343);
#345=CARTESIAN_POINT('',(2.465E0,7.37E-2,1.05E-1));
#346=VERTEX_POINT('',#345);
#347=CARTESIAN_POINT('',(2.09E0,7.37E-2,1.05E-1));
#348=VERTEX_POINT('',#347);
#349=CARTESIAN_POINT('',(2.605E0,7.E-2,-1.05E-1));
#350=CARTESIAN_POINT('',(2.655E0,7.E-2,-5.5E-2));
#351=VERTEX_POINT('',#349);
#352=VERTEX_POINT('',#350);
#353=CARTESIAN_POINT('',(2.655E0,1.425E-1,-5.5E-2));
#354=VERTEX_POINT('',#353);
#355=CARTESIAN_POINT('',(2.605E0,1.425E-1,-1.05E-1));
#356=VERTEX_POINT('',#355);
#357=CARTESIAN_POINT('',(2.605E0,1.425E-1,1.05E-1));
#358=CARTESIAN_POINT('',(2.655E0,1.425E-1,5.5E-2));
#359=VERTEX_POINT('',#357);
#360=VERTEX_POINT('',#358);
#361=CARTESIAN_POINT('',(2.655E0,7.E-2,5.5E-2));
#362=VERTEX_POINT('',#361);
#363=CARTESIAN_POINT('',(2.605E0,7.E-2,1.05E-1));
#364=VERTEX_POINT('',#363);
#365=CARTESIAN_POINT('',(2.321515199646E0,8.75E-2,3.25E-1));
#366=VERTEX_POINT('',#365);
#367=CARTESIAN_POINT('',(2.321515199646E0,8.75E-2,-3.25E-1));
#368=VERTEX_POINT('',#367);
#369=CARTESIAN_POINT('',(2.321515199646E0,4.5E-2,3.25E-1));
#370=VERTEX_POINT('',#369);
#371=CARTESIAN_POINT('',(2.321515199646E0,4.5E-2,-3.25E-1));
#372=VERTEX_POINT('',#371);
#373=CARTESIAN_POINT('',(2.56E0,4.5E-2,-1.5E-1));
#374=VERTEX_POINT('',#373);
#375=CARTESIAN_POINT('',(2.56E0,4.5E-2,1.5E-1));
#376=VERTEX_POINT('',#375);
#377=CARTESIAN_POINT('',(2.56E0,8.75E-2,1.5E-1));
#378=VERTEX_POINT('',#377);
#379=CARTESIAN_POINT('',(2.56E0,8.75E-2,-1.5E-1));
#380=VERTEX_POINT('',#379);
#381=CARTESIAN_POINT('',(2.329002512579E0,1.425E-1,2.6E-1));
#382=CARTESIAN_POINT('',(2.528E0,1.425E-1,1.5E-1));
#383=VERTEX_POINT('',#381);
#384=VERTEX_POINT('',#382);
#385=CARTESIAN_POINT('',(2.528E0,8.75E-2,1.5E-1));
#386=VERTEX_POINT('',#385);
#387=CARTESIAN_POINT('',(2.329002512579E0,8.75E-2,2.6E-1));
#388=VERTEX_POINT('',#387);
#389=CARTESIAN_POINT('',(2.528E0,1.425E-1,-1.5E-1));
#390=CARTESIAN_POINT('',(2.528E0,8.75E-2,-1.5E-1));
#391=VERTEX_POINT('',#389);
#392=VERTEX_POINT('',#390);
#393=CARTESIAN_POINT('',(2.329002512579E0,1.425E-1,-2.6E-1));
#394=VERTEX_POINT('',#393);
#395=CARTESIAN_POINT('',(2.329002512579E0,8.75E-2,-2.6E-1));
#396=VERTEX_POINT('',#395);
#397=CARTESIAN_POINT('',(0.E0,0.E0,0.E0));
#398=DIRECTION('',(0.E0,1.E0,0.E0));
#399=DIRECTION('',(1.E0,0.E0,0.E0));
#400=AXIS2_PLACEMENT_3D('',#397,#398,#399);
#401=PLANE('',#400);
#403=ORIENTED_EDGE('',*,*,#402,.T.);
#405=ORIENTED_EDGE('',*,*,#404,.T.);
#407=ORIENTED_EDGE('',*,*,#406,.F.);
#409=ORIENTED_EDGE('',*,*,#408,.F.);
#410=EDGE_LOOP('',(#403,#405,#407,#409));
#411=FACE_OUTER_BOUND('',#410,.F.);
#412=ADVANCED_FACE('',(#411),#401,.F.);
#413=CARTESIAN_POINT('',(2.564E0,7.E-2,1.05E-1));
#414=DIRECTION('',(-7.071067811865E-1,7.071067811865E-1,0.E0));
#415=DIRECTION('',(-7.071067811865E-1,-7.071067811865E-1,0.E0));
#416=AXIS2_PLACEMENT_3D('',#413,#414,#415);
#417=PLANE('',#416);
#418=ORIENTED_EDGE('',*,*,#402,.F.);
#420=ORIENTED_EDGE('',*,*,#419,.F.);
#422=ORIENTED_EDGE('',*,*,#421,.T.);
#424=ORIENTED_EDGE('',*,*,#423,.T.);
#425=EDGE_LOOP('',(#418,#420,#422,#424));
#426=FACE_OUTER_BOUND('',#425,.F.);
#427=ADVANCED_FACE('',(#426),#417,.F.);
#428=CARTESIAN_POINT('',(2.655E0,1.425E-1,1.05E-1));
#429=DIRECTION('',(0.E0,0.E0,-1.E0));
#430=DIRECTION('',(-1.E0,0.E0,0.E0));
#431=AXIS2_PLACEMENT_3D('',#428,#429,#430);
#432=PLANE('',#431);
#434=ORIENTED_EDGE('',*,*,#433,.F.);
#436=ORIENTED_EDGE('',*,*,#435,.T.);
#437=ORIENTED_EDGE('',*,*,#419,.T.);
#438=ORIENTED_EDGE('',*,*,#408,.T.);
#440=ORIENTED_EDGE('',*,*,#439,.T.);
#442=ORIENTED_EDGE('',*,*,#441,.F.);
#444=ORIENTED_EDGE('',*,*,#443,.F.);
#446=ORIENTED_EDGE('',*,*,#445,.F.);
#447=EDGE_LOOP('',(#434,#436,#437,#438,#440,#442,#444,#446));
#448=FACE_OUTER_BOUND('',#447,.F.);
#449=ADVANCED_FACE('',(#448),#432,.F.);
#450=CARTESIAN_POINT('',(2.605E0,-1.85763E-1,5.5E-2));
#451=DIRECTION('',(0.E0,1.E0,0.E0));
#452=DIRECTION('',(0.E0,0.E0,1.E0));
#453=AXIS2_PLACEMENT_3D('',#450,#451,#452);
#454=CYLINDRICAL_SURFACE('',#453,5.E-2);
#456=ORIENTED_EDGE('',*,*,#455,.T.);
#458=ORIENTED_EDGE('',*,*,#457,.F.);
#460=ORIENTED_EDGE('',*,*,#459,.T.);
#461=ORIENTED_EDGE('',*,*,#433,.T.);
#462=EDGE_LOOP('',(#456,#458,#460,#461));
#463=FACE_OUTER_BOUND('',#462,.F.);
#464=ADVANCED_FACE('',(#463),#454,.T.);
#465=CARTESIAN_POINT('',(0.E0,1.425E-1,0.E0));
#466=DIRECTION('',(0.E0,1.E0,0.E0));
#467=DIRECTION('',(1.E0,0.E0,0.E0));
#468=AXIS2_PLACEMENT_3D('',#465,#466,#467);
#469=PLANE('',#468);
#471=ORIENTED_EDGE('',*,*,#470,.F.);
#473=ORIENTED_EDGE('',*,*,#472,.F.);
#475=ORIENTED_EDGE('',*,*,#474,.F.);
#477=ORIENTED_EDGE('',*,*,#476,.T.);
#479=ORIENTED_EDGE('',*,*,#478,.F.);
#481=ORIENTED_EDGE('',*,*,#480,.T.);
#483=ORIENTED_EDGE('',*,*,#482,.T.);
#485=ORIENTED_EDGE('',*,*,#484,.F.);
#487=ORIENTED_EDGE('',*,*,#486,.F.);
#489=ORIENTED_EDGE('',*,*,#488,.F.);
#490=ORIENTED_EDGE('',*,*,#455,.F.);
#491=ORIENTED_EDGE('',*,*,#445,.T.);
#493=ORIENTED_EDGE('',*,*,#492,.T.);
#495=ORIENTED_EDGE('',*,*,#494,.T.);
#496=EDGE_LOOP('',(#471,#473,#475,#477,#479,#481,#483,#485,#487,#489,#490,#491,
#493,#495));
#497=FACE_OUTER_BOUND('',#496,.F.);
#498=ADVANCED_FACE('',(#497),#469,.T.);
#499=CARTESIAN_POINT('',(2.329002512579E0,-2.970758358833E-1,2.5E-2));
#500=DIRECTION('',(1.194058893377E-14,1.E0,0.E0));
#501=DIRECTION('',(0.E0,0.E0,1.E0));
#502=AXIS2_PLACEMENT_3D('',#499,#500,#501);
#503=CYLINDRICAL_SURFACE('',#502,2.35E-1);
#504=ORIENTED_EDGE('',*,*,#470,.T.);
#506=ORIENTED_EDGE('',*,*,#505,.F.);
#508=ORIENTED_EDGE('',*,*,#507,.T.);
#510=ORIENTED_EDGE('',*,*,#509,.T.);
#511=EDGE_LOOP('',(#504,#506,#508,#510));
#512=FACE_OUTER_BOUND('',#511,.F.);
#513=ADVANCED_FACE('',(#512),#503,.T.);
#514=CARTESIAN_POINT('',(2.09E0,1.425E-1,1.5E-1));
#515=DIRECTION('',(0.E0,0.E0,1.E0));
#516=DIRECTION('',(1.E0,0.E0,0.E0));
#517=AXIS2_PLACEMENT_3D('',#514,#515,#516);
#518=PLANE('',#517);
#519=ORIENTED_EDGE('',*,*,#505,.T.);
#520=ORIENTED_EDGE('',*,*,#494,.F.);
#522=ORIENTED_EDGE('',*,*,#521,.T.);
#524=ORIENTED_EDGE('',*,*,#523,.T.);
#526=ORIENTED_EDGE('',*,*,#525,.T.);
#528=ORIENTED_EDGE('',*,*,#527,.T.);
#529=EDGE_LOOP('',(#519,#520,#522,#524,#526,#528));
#530=FACE_OUTER_BOUND('',#529,.F.);
#531=ADVANCED_FACE('',(#530),#518,.F.);
#532=CARTESIAN_POINT('',(2.09E0,1.425E-1,-1.5E-1));
#533=DIRECTION('',(-1.E0,0.E0,0.E0));
#534=DIRECTION('',(0.E0,0.E0,1.E0));
#535=AXIS2_PLACEMENT_3D('',#532,#533,#534);
#536=PLANE('',#535);
#538=ORIENTED_EDGE('',*,*,#537,.T.);
#539=ORIENTED_EDGE('',*,*,#521,.F.);
#540=ORIENTED_EDGE('',*,*,#492,.F.);
#541=ORIENTED_EDGE('',*,*,#443,.T.);
#543=ORIENTED_EDGE('',*,*,#542,.T.);
#545=ORIENTED_EDGE('',*,*,#544,.F.);
#546=ORIENTED_EDGE('',*,*,#482,.F.);
#548=ORIENTED_EDGE('',*,*,#547,.T.);
#549=EDGE_LOOP('',(#538,#539,#540,#541,#543,#545,#546,#548));
#550=FACE_OUTER_BOUND('',#549,.F.);
#551=ADVANCED_FACE('',(#550),#536,.F.);
#552=CARTESIAN_POINT('',(0.E0,4.5E-2,0.E0));
#553=DIRECTION('',(0.E0,-1.E0,0.E0));
#554=DIRECTION('',(1.E0,0.E0,0.E0));
#555=AXIS2_PLACEMENT_3D('',#552,#553,#554);
#556=PLANE('',#555);
#558=ORIENTED_EDGE('',*,*,#557,.T.);
#560=ORIENTED_EDGE('',*,*,#559,.F.);
#561=ORIENTED_EDGE('',*,*,#523,.F.);
#562=ORIENTED_EDGE('',*,*,#537,.F.);
#564=ORIENTED_EDGE('',*,*,#563,.F.);
#566=ORIENTED_EDGE('',*,*,#565,.F.);
#568=ORIENTED_EDGE('',*,*,#567,.T.);
#570=ORIENTED_EDGE('',*,*,#569,.T.);
#571=EDGE_LOOP('',(#558,#560,#561,#562,#564,#566,#568,#570));
#572=FACE_OUTER_BOUND('',#571,.F.);
#573=ADVANCED_FACE('',(#572),#556,.T.);
#574=CARTESIAN_POINT('',(0.E0,0.E0,3.25E-1));
#575=DIRECTION('',(0.E0,0.E0,1.E0));
#576=DIRECTION('',(1.E0,0.E0,0.E0));
#577=AXIS2_PLACEMENT_3D('',#574,#575,#576);
#578=PLANE('',#577);
#580=ORIENTED_EDGE('',*,*,#579,.T.);
#582=ORIENTED_EDGE('',*,*,#581,.F.);
#583=ORIENTED_EDGE('',*,*,#557,.F.);
#585=ORIENTED_EDGE('',*,*,#584,.T.);
#586=EDGE_LOOP('',(#580,#582,#583,#585));
#587=FACE_OUTER_BOUND('',#586,.F.);
#588=ADVANCED_FACE('',(#587),#578,.T.);
#589=CARTESIAN_POINT('',(0.E0,8.75E-2,0.E0));
#590=DIRECTION('',(0.E0,1.E0,0.E0));
#591=DIRECTION('',(1.E0,0.E0,0.E0));
#592=AXIS2_PLACEMENT_3D('',#589,#590,#591);
#593=PLANE('',#592);
#595=ORIENTED_EDGE('',*,*,#594,.F.);
#596=ORIENTED_EDGE('',*,*,#507,.F.);
#597=ORIENTED_EDGE('',*,*,#527,.F.);
#599=ORIENTED_EDGE('',*,*,#598,.T.);
#600=ORIENTED_EDGE('',*,*,#579,.F.);
#602=ORIENTED_EDGE('',*,*,#601,.F.);
#603=EDGE_LOOP('',(#595,#596,#597,#599,#600,#602));
#604=FACE_OUTER_BOUND('',#603,.F.);
#605=ADVANCED_FACE('',(#604),#593,.T.);
#606=CARTESIAN_POINT('',(0.E0,8.75E-2,0.E0));
#607=DIRECTION('',(0.E0,1.E0,0.E0));
#608=DIRECTION('',(1.E0,0.E0,0.E0));
#609=AXIS2_PLACEMENT_3D('',#606,#607,#608);
#610=PLANE('',#609);
#612=ORIENTED_EDGE('',*,*,#611,.T.);
#614=ORIENTED_EDGE('',*,*,#613,.T.);
#616=ORIENTED_EDGE('',*,*,#615,.F.);
#618=ORIENTED_EDGE('',*,*,#617,.F.);
#620=ORIENTED_EDGE('',*,*,#619,.F.);
#622=ORIENTED_EDGE('',*,*,#621,.F.);
#623=EDGE_LOOP('',(#612,#614,#616,#618,#620,#622));
#624=FACE_OUTER_BOUND('',#623,.F.);
#625=ADVANCED_FACE('',(#624),#610,.T.);
#626=CARTESIAN_POINT('',(2.56E0,1.425E-1,2.6E-1));
#627=DIRECTION('',(0.E0,0.E0,-1.E0));
#628=DIRECTION('',(-1.E0,0.E0,0.E0));
#629=AXIS2_PLACEMENT_3D('',#626,#627,#628);
#630=PLANE('',#629);
#631=ORIENTED_EDGE('',*,*,#509,.F.);
#632=ORIENTED_EDGE('',*,*,#594,.T.);
#634=ORIENTED_EDGE('',*,*,#633,.F.);
#635=ORIENTED_EDGE('',*,*,#472,.T.);
#636=EDGE_LOOP('',(#631,#632,#634,#635));
#637=FACE_OUTER_BOUND('',#636,.F.);
#638=ADVANCED_FACE('',(#637),#630,.F.);
#639=CARTESIAN_POINT('',(0.E0,0.E0,-3.25E-1));
#640=DIRECTION('',(-1.E0,0.E0,0.E0));
#641=DIRECTION('',(0.E0,0.E0,1.E0));
#642=AXIS2_PLACEMENT_3D('',#639,#640,#641);
#643=PLANE('',#642);
#644=ORIENTED_EDGE('',*,*,#569,.F.);
#646=ORIENTED_EDGE('',*,*,#645,.T.);
#647=ORIENTED_EDGE('',*,*,#619,.T.);
#649=ORIENTED_EDGE('',*,*,#648,.F.);
#650=ORIENTED_EDGE('',*,*,#474,.T.);
#651=ORIENTED_EDGE('',*,*,#633,.T.);
#652=ORIENTED_EDGE('',*,*,#601,.T.);
#653=ORIENTED_EDGE('',*,*,#584,.F.);
#654=EDGE_LOOP('',(#644,#646,#647,#649,#650,#651,#652,#653));
#655=FACE_OUTER_BOUND('',#654,.F.);
#656=ADVANCED_FACE('',(#655),#643,.T.);
#657=CARTESIAN_POINT('',(2.655E0,0.E0,-3.25E-1));
#658=DIRECTION('',(0.E0,0.E0,-1.E0));
#659=DIRECTION('',(-1.E0,0.E0,0.E0));
#660=AXIS2_PLACEMENT_3D('',#657,#658,#659);
#661=PLANE('',#660);
#662=ORIENTED_EDGE('',*,*,#621,.T.);
#663=ORIENTED_EDGE('',*,*,#645,.F.);
#664=ORIENTED_EDGE('',*,*,#567,.F.);
#666=ORIENTED_EDGE('',*,*,#665,.F.);
#667=EDGE_LOOP('',(#662,#663,#664,#666));
#668=FACE_OUTER_BOUND('',#667,.F.);
#669=ADVANCED_FACE('',(#668),#661,.T.);
#670=CARTESIAN_POINT('',(2.321515199646E0,4.585094236631E-1,
-7.499999999999E-2));
#671=DIRECTION('',(0.E0,-1.E0,0.E0));
#672=DIRECTION('',(0.E0,0.E0,-1.E0));
#673=AXIS2_PLACEMENT_3D('',#670,#671,#672);
#674=CYLINDRICAL_SURFACE('',#673,2.5E-1);
#675=ORIENTED_EDGE('',*,*,#611,.F.);
#676=ORIENTED_EDGE('',*,*,#665,.T.);
#677=ORIENTED_EDGE('',*,*,#565,.T.);
#679=ORIENTED_EDGE('',*,*,#678,.F.);
#680=EDGE_LOOP('',(#675,#676,#677,#679));
#681=FACE_OUTER_BOUND('',#680,.F.);
#682=ADVANCED_FACE('',(#681),#674,.T.);
#683=CARTESIAN_POINT('',(2.56E0,1.425E-1,-1.5E-1));
#684=DIRECTION('',(0.E0,0.E0,-1.E0));
#685=DIRECTION('',(-1.E0,0.E0,0.E0));
#686=AXIS2_PLACEMENT_3D('',#683,#684,#685);
#687=PLANE('',#686);
#689=ORIENTED_EDGE('',*,*,#688,.T.);
#690=ORIENTED_EDGE('',*,*,#613,.F.);
#691=ORIENTED_EDGE('',*,*,#678,.T.);
#692=ORIENTED_EDGE('',*,*,#563,.T.);
#693=ORIENTED_EDGE('',*,*,#547,.F.);
#694=ORIENTED_EDGE('',*,*,#480,.F.);
#695=EDGE_LOOP('',(#689,#690,#691,#692,#693,#694));
#696=FACE_OUTER_BOUND('',#695,.F.);
#697=ADVANCED_FACE('',(#696),#687,.F.);
#698=CARTESIAN_POINT('',(2.329002512579E0,4.404734236631E-1,-2.5E-2));
#699=DIRECTION('',(0.E0,-1.E0,0.E0));
#700=DIRECTION('',(0.E0,0.E0,-1.E0));
#701=AXIS2_PLACEMENT_3D('',#698,#699,#700);
#702=CYLINDRICAL_SURFACE('',#701,2.35E-1);
#703=ORIENTED_EDGE('',*,*,#688,.F.);
#704=ORIENTED_EDGE('',*,*,#478,.T.);
#706=ORIENTED_EDGE('',*,*,#705,.T.);
#707=ORIENTED_EDGE('',*,*,#615,.T.);
#708=EDGE_LOOP('',(#703,#704,#706,#707));
#709=FACE_OUTER_BOUND('',#708,.F.);
#710=ADVANCED_FACE('',(#709),#702,.T.);
#711=CARTESIAN_POINT('',(0.E0,1.425E-1,-2.6E-1));
#712=DIRECTION('',(0.E0,0.E0,1.E0));
#713=DIRECTION('',(1.E0,0.E0,0.E0));
#714=AXIS2_PLACEMENT_3D('',#711,#712,#713);
#715=PLANE('',#714);
#716=ORIENTED_EDGE('',*,*,#705,.F.);
#717=ORIENTED_EDGE('',*,*,#476,.F.);
#718=ORIENTED_EDGE('',*,*,#648,.T.);
#719=ORIENTED_EDGE('',*,*,#617,.T.);
#720=EDGE_LOOP('',(#716,#717,#718,#719));
#721=FACE_OUTER_BOUND('',#720,.F.);
#722=ADVANCED_FACE('',(#721),#715,.F.);
#723=CARTESIAN_POINT('',(2.321515199646E0,-3.151118358833E-1,
7.500000000001E-2));
#724=DIRECTION('',(0.E0,1.E0,0.E0));
#725=DIRECTION('',(0.E0,0.E0,1.E0));
#726=AXIS2_PLACEMENT_3D('',#723,#724,#725);
#727=CYLINDRICAL_SURFACE('',#726,2.5E-1);
#728=ORIENTED_EDGE('',*,*,#598,.F.);
#729=ORIENTED_EDGE('',*,*,#525,.F.);
#730=ORIENTED_EDGE('',*,*,#559,.T.);
#731=ORIENTED_EDGE('',*,*,#581,.T.);
#732=EDGE_LOOP('',(#728,#729,#730,#731));
#733=FACE_OUTER_BOUND('',#732,.F.);
#734=ADVANCED_FACE('',(#733),#727,.T.);
#735=CARTESIAN_POINT('',(2.465E0,7.37E-2,1.05E-1));
#736=DIRECTION('',(0.E0,1.E0,0.E0));
#737=DIRECTION('',(-1.E0,0.E0,0.E0));
#738=AXIS2_PLACEMENT_3D('',#735,#736,#737);
#739=PLANE('',#738);
#741=ORIENTED_EDGE('',*,*,#740,.F.);
#742=ORIENTED_EDGE('',*,*,#542,.F.);
#743=ORIENTED_EDGE('',*,*,#441,.T.);
#745=ORIENTED_EDGE('',*,*,#744,.T.);
#746=EDGE_LOOP('',(#741,#742,#743,#745));
#747=FACE_OUTER_BOUND('',#746,.F.);
#748=ADVANCED_FACE('',(#747),#739,.F.);
#749=CARTESIAN_POINT('',(2.09E0,1.425E-1,-1.05E-1));
#750=DIRECTION('',(0.E0,0.E0,1.E0));
#751=DIRECTION('',(1.E0,0.E0,0.E0));
#752=AXIS2_PLACEMENT_3D('',#749,#750,#751);
#753=PLANE('',#752);
#755=ORIENTED_EDGE('',*,*,#754,.F.);
#756=ORIENTED_EDGE('',*,*,#484,.T.);
#757=ORIENTED_EDGE('',*,*,#544,.T.);
#758=ORIENTED_EDGE('',*,*,#740,.T.);
#760=ORIENTED_EDGE('',*,*,#759,.F.);
#761=ORIENTED_EDGE('',*,*,#404,.F.);
#762=ORIENTED_EDGE('',*,*,#423,.F.);
#764=ORIENTED_EDGE('',*,*,#763,.F.);
#765=EDGE_LOOP('',(#755,#756,#757,#758,#760,#761,#762,#764));
#766=FACE_OUTER_BOUND('',#765,.F.);
#767=ADVANCED_FACE('',(#766),#753,.F.);
#768=CARTESIAN_POINT('',(2.605E0,3.28263E-1,-5.5E-2));
#769=DIRECTION('',(0.E0,-1.E0,0.E0));
#770=DIRECTION('',(0.E0,0.E0,-1.E0));
#771=AXIS2_PLACEMENT_3D('',#768,#769,#770);
#772=CYLINDRICAL_SURFACE('',#771,5.E-2);
#774=ORIENTED_EDGE('',*,*,#773,.T.);
#776=ORIENTED_EDGE('',*,*,#775,.F.);
#777=ORIENTED_EDGE('',*,*,#486,.T.);
#778=ORIENTED_EDGE('',*,*,#754,.T.);
#779=EDGE_LOOP('',(#774,#776,#777,#778));
#780=FACE_OUTER_BOUND('',#779,.F.);
#781=ADVANCED_FACE('',(#780),#772,.T.);
#782=CARTESIAN_POINT('',(2.655E0,7.E-2,1.05E-1));
#783=DIRECTION('',(0.E0,1.E0,0.E0));
#784=DIRECTION('',(-1.E0,0.E0,0.E0));
#785=AXIS2_PLACEMENT_3D('',#782,#783,#784);
#786=PLANE('',#785);
#787=ORIENTED_EDGE('',*,*,#773,.F.);
#788=ORIENTED_EDGE('',*,*,#763,.T.);
#789=ORIENTED_EDGE('',*,*,#421,.F.);
#790=ORIENTED_EDGE('',*,*,#435,.F.);
#791=ORIENTED_EDGE('',*,*,#459,.F.);
#793=ORIENTED_EDGE('',*,*,#792,.T.);
#794=EDGE_LOOP('',(#787,#788,#789,#790,#791,#793));
#795=FACE_OUTER_BOUND('',#794,.F.);
#796=ADVANCED_FACE('',(#795),#786,.F.);
#797=CARTESIAN_POINT('',(2.655E0,0.E0,3.25E-1));
#798=DIRECTION('',(1.E0,0.E0,0.E0));
#799=DIRECTION('',(0.E0,0.E0,-1.E0));
#800=AXIS2_PLACEMENT_3D('',#797,#798,#799);
#801=PLANE('',#800);
#802=ORIENTED_EDGE('',*,*,#775,.T.);
#803=ORIENTED_EDGE('',*,*,#792,.F.);
#804=ORIENTED_EDGE('',*,*,#457,.T.);
#805=ORIENTED_EDGE('',*,*,#488,.T.);
#806=EDGE_LOOP('',(#802,#803,#804,#805));
#807=FACE_OUTER_BOUND('',#806,.F.);
#808=ADVANCED_FACE('',(#807),#801,.T.);
#809=CARTESIAN_POINT('',(2.465E0,0.E0,1.05E-1));
#810=DIRECTION('',(1.E0,0.E0,0.E0));
#811=DIRECTION('',(0.E0,1.E0,0.E0));
#812=AXIS2_PLACEMENT_3D('',#809,#810,#811);
#813=PLANE('',#812);
#814=ORIENTED_EDGE('',*,*,#406,.T.);
#815=ORIENTED_EDGE('',*,*,#759,.T.);
#816=ORIENTED_EDGE('',*,*,#744,.F.);
#817=ORIENTED_EDGE('',*,*,#439,.F.);
#818=EDGE_LOOP('',(#814,#815,#816,#817));
#819=FACE_OUTER_BOUND('',#818,.F.);
#820=ADVANCED_FACE('',(#819),#813,.F.);
#823=DIMENSIONAL_EXPONENTS(1.E0,0.E0,0.E0,0.E0,0.E0,0.E0,0.E0);
#825=LENGTH_MEASURE_WITH_UNIT(LENGTH_MEASURE(2.54E1),#824);
#826=(CONVERSION_BASED_UNIT('INCH',#825)LENGTH_UNIT()NAMED_UNIT(#823));
#827=DIMENSIONAL_EXPONENTS(0.E0,0.E0,0.E0,0.E0,0.E0,0.E0,0.E0);
#829=PLANE_ANGLE_MEASURE_WITH_UNIT(PLANE_ANGLE_MEASURE(1.745329251994E-2),#828);
#830=(CONVERSION_BASED_UNIT('DEGREE',#829)NAMED_UNIT(*)PLANE_ANGLE_UNIT());
#832=UNCERTAINTY_MEASURE_WITH_UNIT(LENGTH_MEASURE(7.479598969323E-5),#826,
'closure',
'Maximum model space distance between geometric entities at asserted connectivities');
#833=(GEOMETRIC_REPRESENTATION_CONTEXT(3)GLOBAL_UNCERTAINTY_ASSIGNED_CONTEXT((
#832))GLOBAL_UNIT_ASSIGNED_CONTEXT((#826,#830,#831))REPRESENTATION_CONTEXT
('ID1','3'));
#835=APPLICATION_CONTEXT(
'CONFIGURATION CONTROLLED 3D DESIGNS OF MECHANICAL PARTS AND ASSEMBLIES');
#836=APPLICATION_PROTOCOL_DEFINITION('international standard',
'config_control_design',1994,#835);
#837=DESIGN_CONTEXT('',#835,'design');
#838=MECHANICAL_CONTEXT('',#835,'mechanical');
#839=PRODUCT('19200_13122516','19200_13122516','NOT SPECIFIED',(#838));
#840=PRODUCT_DEFINITION_FORMATION_WITH_SPECIFIED_SOURCE('1','LAST_VERSION',#839,
.MADE.);
#844=PRODUCT_CATEGORY('part','');
#845=PRODUCT_RELATED_PRODUCT_CATEGORY('detail','',(#839));
#846=PRODUCT_CATEGORY_RELATIONSHIP('','',#844,#845);
#847=SECURITY_CLASSIFICATION_LEVEL('unclassified');
#848=SECURITY_CLASSIFICATION('','',#847);
#849=CC_DESIGN_SECURITY_CLASSIFICATION(#848,(#840));
#850=APPROVAL_STATUS('approved');
#851=APPROVAL(#850,'');
#852=CC_DESIGN_APPROVAL(#851,(#848,#840,#841));
#853=CALENDAR_DATE(126,3,8);
#854=COORDINATED_UNIVERSAL_TIME_OFFSET(4,0,.BEHIND.);
#855=LOCAL_TIME(14,42,4.7E1,#854);
#856=DATE_AND_TIME(#853,#855);
#857=APPROVAL_DATE_TIME(#856,#851);
#858=DATE_TIME_ROLE('creation_date');
#859=CC_DESIGN_DATE_AND_TIME_ASSIGNMENT(#856,#858,(#841));
#860=DATE_TIME_ROLE('classification_date');
#861=CC_DESIGN_DATE_AND_TIME_ASSIGNMENT(#856,#860,(#848));
#862=PERSON('UNSPECIFIED','UNSPECIFIED',$,$,$,$);
#863=ORGANIZATION('UNSPECIFIED','UNSPECIFIED','UNSPECIFIED');
#864=PERSON_AND_ORGANIZATION(#862,#863);
#865=APPROVAL_ROLE('approver');
#866=APPROVAL_PERSON_ORGANIZATION(#864,#851,#865);
#867=PERSON_AND_ORGANIZATION_ROLE('creator');
#868=CC_DESIGN_PERSON_AND_ORGANIZATION_ASSIGNMENT(#864,#867,(#840,#841));
#869=PERSON_AND_ORGANIZATION_ROLE('design_supplier');
#870=CC_DESIGN_PERSON_AND_ORGANIZATION_ASSIGNMENT(#864,#869,(#840));
#871=PERSON_AND_ORGANIZATION_ROLE('classification_officer');
#872=CC_DESIGN_PERSON_AND_ORGANIZATION_ASSIGNMENT(#864,#871,(#848));
#873=PERSON_AND_ORGANIZATION_ROLE('design_owner');
#874=CC_DESIGN_PERSON_AND_ORGANIZATION_ASSIGNMENT(#864,#873,(#839));
#45=CIRCLE('',#44,2.35E-1);
#62=CIRCLE('',#61,2.35E-1);
#79=CIRCLE('',#78,5.E-2);
#88=CIRCLE('',#87,5.E-2);
#141=CIRCLE('',#140,2.5E-1);
#146=CIRCLE('',#145,2.5E-1);
#171=CIRCLE('',#170,2.35E-1);
#176=CIRCLE('',#175,2.5E-1);
#181=CIRCLE('',#180,2.5E-1);
#186=CIRCLE('',#185,2.35E-1);
#283=CIRCLE('',#282,5.E-2);
#288=CIRCLE('',#287,5.E-2);
#402=EDGE_CURVE('',#331,#332,#4,.T.);
#404=EDGE_CURVE('',#332,#336,#8,.T.);
#406=EDGE_CURVE('',#335,#336,#12,.T.);
#408=EDGE_CURVE('',#331,#335,#16,.T.);
#419=EDGE_CURVE('',#344,#331,#32,.T.);
#421=EDGE_CURVE('',#344,#338,#20,.T.);
#423=EDGE_CURVE('',#338,#332,#274,.T.);
#433=EDGE_CURVE('',#364,#359,#24,.T.);
#435=EDGE_CURVE('',#364,#344,#28,.T.);
#439=EDGE_CURVE('',#335,#346,#36,.T.);
#441=EDGE_CURVE('',#348,#346,#40,.T.);
#443=EDGE_CURVE('',#307,#348,#128,.T.);
#445=EDGE_CURVE('',#359,#307,#92,.T.);
#455=EDGE_CURVE('',#359,#360,#88,.T.);
#457=EDGE_CURVE('',#362,#360,#300,.T.);
#459=EDGE_CURVE('',#362,#364,#288,.T.);
#470=EDGE_CURVE('',#383,#384,#45,.T.);
#472=EDGE_CURVE('',#320,#383,#49,.T.);
#474=EDGE_CURVE('',#318,#320,#53,.T.);
#476=EDGE_CURVE('',#318,#394,#57,.T.);
#478=EDGE_CURVE('',#391,#394,#62,.T.);
#480=EDGE_CURVE('',#391,#303,#66,.T.);
#482=EDGE_CURVE('',#303,#304,#70,.T.);
#484=EDGE_CURVE('',#356,#304,#74,.T.);
#486=EDGE_CURVE('',#354,#356,#79,.T.);
#488=EDGE_CURVE('',#360,#354,#83,.T.);
#492=EDGE_CURVE('',#307,#308,#96,.T.);
#494=EDGE_CURVE('',#308,#384,#100,.T.);
#505=EDGE_CURVE('',#386,#384,#104,.T.);
#507=EDGE_CURVE('',#386,#388,#171,.T.);
#509=EDGE_CURVE('',#388,#383,#194,.T.);
#521=EDGE_CURVE('',#308,#328,#108,.T.);
#523=EDGE_CURVE('',#328,#376,#112,.T.);
#525=EDGE_CURVE('',#376,#378,#116,.T.);
#527=EDGE_CURVE('',#378,#386,#120,.T.);
#537=EDGE_CURVE('',#326,#328,#124,.T.);
#542=EDGE_CURVE('',#348,#342,#132,.T.);
#544=EDGE_CURVE('',#304,#342,#262,.T.);
#547=EDGE_CURVE('',#303,#326,#136,.T.);
#557=EDGE_CURVE('',#324,#370,#158,.T.);
#559=EDGE_CURVE('',#376,#370,#141,.T.);
#563=EDGE_CURVE('',#374,#326,#246,.T.);
#565=EDGE_CURVE('',#372,#374,#146,.T.);
#567=EDGE_CURVE('',#372,#323,#226,.T.);
#569=EDGE_CURVE('',#323,#324,#198,.T.);
#579=EDGE_CURVE('',#316,#366,#150,.T.);
#581=EDGE_CURVE('',#370,#366,#154,.T.);
#584=EDGE_CURVE('',#324,#316,#162,.T.);
#594=EDGE_CURVE('',#388,#315,#166,.T.);
#598=EDGE_CURVE('',#378,#366,#176,.T.);
#601=EDGE_CURVE('',#315,#316,#218,.T.);
#611=EDGE_CURVE('',#368,#380,#181,.T.);
#613=EDGE_CURVE('',#380,#392,#238,.T.);
#615=EDGE_CURVE('',#396,#392,#186,.T.);
#617=EDGE_CURVE('',#312,#396,#190,.T.);
#619=EDGE_CURVE('',#311,#312,#206,.T.);
#621=EDGE_CURVE('',#368,#311,#222,.T.);
#633=EDGE_CURVE('',#320,#315,#214,.T.);
#645=EDGE_CURVE('',#323,#311,#202,.T.);
#648=EDGE_CURVE('',#318,#312,#210,.T.);
#665=EDGE_CURVE('',#368,#372,#230,.T.);
#678=EDGE_CURVE('',#380,#374,#242,.T.);
#688=EDGE_CURVE('',#391,#392,#234,.T.);
#705=EDGE_CURVE('',#394,#396,#250,.T.);
#740=EDGE_CURVE('',#342,#340,#266,.T.);
#744=EDGE_CURVE('',#346,#340,#254,.T.);
#754=EDGE_CURVE('',#356,#351,#258,.T.);
#759=EDGE_CURVE('',#336,#340,#270,.T.);
#763=EDGE_CURVE('',#351,#338,#278,.T.);
#773=EDGE_CURVE('',#351,#352,#283,.T.);
#775=EDGE_CURVE('',#354,#352,#292,.T.);
#792=EDGE_CURVE('',#362,#352,#296,.T.);
#821=CLOSED_SHELL('',(#412,#427,#449,#464,#498,#513,#531,#551,#573,#588,#605,
#625,#638,#656,#669,#682,#697,#710,#722,#734,#748,#767,#781,#796,#808,#820));
#822=MANIFOLD_SOLID_BREP('',#821);
#824=(LENGTH_UNIT()NAMED_UNIT(*)SI_UNIT(.MILLI.,.METRE.));
#828=(NAMED_UNIT(*)PLANE_ANGLE_UNIT()SI_UNIT($,.RADIAN.));
#831=(NAMED_UNIT(*)SI_UNIT($,.STERADIAN.)SOLID_ANGLE_UNIT());
#834=ADVANCED_BREP_SHAPE_REPRESENTATION('',(#822),#833);
#841=PRODUCT_DEFINITION('design','',#840,#837);
#842=PRODUCT_DEFINITION_SHAPE('','SHAPE FOR 19200_13122516.',#841);
#843=SHAPE_DEFINITION_REPRESENTATION(#842,#834);
ENDSEC;
END-ISO-10303-21;
