ISO-10303-21;
HEADER;
FILE_DESCRIPTION((''),'2;1');
FILE_NAME('19200_13122515','2026-08-03T14:35:49',(''),(''),
'CREO PARAMETRIC BY PTC INC','CREO PARAMETRIC BY PTC INC','');
FILE_SCHEMA(('CONFIG_CONTROL_DESIGN'));
ENDSEC;
DATA;
#1=DIRECTION('',(-1.E0,-4.676955938501E-13,-4.673262827369E-13));
#2=VECTOR('',#1,1.878874925370E-1);
#3=CARTESIAN_POINT('',(1.878874925370E-1,3.090000000001E-1,-1.149999999999E-1));
#4=LINE('',#3,#2);
#5=DIRECTION('',(0.E0,-1.E0,0.E0));
#6=VECTOR('',#5,2.99E-1);
#7=CARTESIAN_POINT('',(0.E0,3.09E-1,-1.15E-1));
#8=LINE('',#7,#6);
#9=DIRECTION('',(-1.E0,1.805426494130E-13,-1.805558597320E-13));
#10=VECTOR('',#9,2.494999999989E0);
#11=CARTESIAN_POINT('',(2.494999999989E0,9.999999999550E-3,-1.149999999995E-1));
#12=LINE('',#11,#10);
#13=DIRECTION('',(8.013906998242E-11,1.E0,1.528935708183E-12));
#14=VECTOR('',#13,1.050000000011E-1);
#15=CARTESIAN_POINT('',(2.494999999989E0,9.999999999550E-3,-1.149999999995E-1));
#16=LINE('',#15,#14);
#17=DIRECTION('',(-1.E0,-3.329790147425E-12,-3.329928925303E-12));
#18=VECTOR('',#17,2.999999999901E-1);
#19=CARTESIAN_POINT('',(2.494999999998E0,1.150000000006E-1,-1.149999999994E-1));
#20=LINE('',#19,#18);
#21=CARTESIAN_POINT('',(2.195E0,1.E-1,-1.15E-1));
#22=DIRECTION('',(0.E0,0.E0,1.E0));
#23=DIRECTION('',(0.E0,1.E0,0.E0));
#24=AXIS2_PLACEMENT_3D('',#21,#22,#23);
#26=CARTESIAN_POINT('',(2.145E0,1.E-1,-1.15E-1));
#27=DIRECTION('',(0.E0,0.E0,-1.E0));
#28=DIRECTION('',(1.E0,0.E0,0.E0));
#29=AXIS2_PLACEMENT_3D('',#26,#27,#28);
#31=DIRECTION('',(-1.E0,-1.857372899274E-12,-1.857317229065E-12));
#32=VECTOR('',#31,1.744999999956E0);
#33=CARTESIAN_POINT('',(2.144999999956E0,6.500000000324E-2,-1.149999999968E-1));
#34=LINE('',#33,#32);
#35=DIRECTION('',(-1.E0,-5.120935416671E-13,-5.122243947504E-13));
#36=VECTOR('',#35,2.121125074496E-1);
#37=CARTESIAN_POINT('',(3.999999999925E-1,1.050000000001E-1,
-1.149999999999E-1));
#38=LINE('',#37,#36);
#39=DIRECTION('',(2.787306637277E-11,-7.071067811865E-1,-7.071067811865E-1));
#40=VECTOR('',#39,1.414213562374E-2);
#41=CARTESIAN_POINT('',(1.878874925366E-1,3.190000000001E-1,
-1.049999999999E-1));
#42=LINE('',#41,#40);
#43=CARTESIAN_POINT('',(0.E0,1.33E-1,0.E0));
#44=DIRECTION('',(-1.E0,0.E0,0.E0));
#45=DIRECTION('',(0.E0,0.E0,1.E0));
#46=AXIS2_PLACEMENT_3D('',#43,#44,#45);
#48=CARTESIAN_POINT('',(0.E0,1.33E-1,0.E0));
#49=DIRECTION('',(-1.E0,0.E0,0.E0));
#50=DIRECTION('',(0.E0,0.E0,-1.E0));
#51=AXIS2_PLACEMENT_3D('',#48,#49,#50);
#53=DIRECTION('',(0.E0,-7.071067811865E-1,-7.071067811865E-1));
#54=VECTOR('',#53,1.414213562373E-2);
#55=CARTESIAN_POINT('',(0.E0,3.19E-1,-1.05E-1));
#56=LINE('',#55,#54);
#57=DIRECTION('',(0.E0,0.E0,1.E0));
#58=VECTOR('',#57,2.1E-1);
#59=CARTESIAN_POINT('',(0.E0,3.19E-1,-1.05E-1));
#60=LINE('',#59,#58);
#61=DIRECTION('',(0.E0,7.071067811865E-1,-7.071067811865E-1));
#62=VECTOR('',#61,1.414213562373E-2);
#63=CARTESIAN_POINT('',(0.E0,3.09E-1,1.15E-1));
#64=LINE('',#63,#62);
#65=DIRECTION('',(0.E0,7.071067811865E-1,7.071067811865E-1));
#66=VECTOR('',#65,1.414213562373E-2);
#67=CARTESIAN_POINT('',(0.E0,0.E0,1.05E-1));
#68=LINE('',#67,#66);
#69=DIRECTION('',(0.E0,-7.071067811865E-1,7.071067811865E-1));
#70=VECTOR('',#69,1.414213562373E-2);
#71=CARTESIAN_POINT('',(0.E0,1.E-2,-1.15E-1));
#72=LINE('',#71,#70);
#73=DIRECTION('',(1.E0,0.E0,0.E0));
#74=VECTOR('',#73,1.5E-1);
#75=CARTESIAN_POINT('',(0.E0,1.33E-1,1.E-1));
#76=LINE('',#75,#74);
#77=DIRECTION('',(1.E0,0.E0,0.E0));
#78=VECTOR('',#77,1.5E-1);
#79=CARTESIAN_POINT('',(0.E0,1.33E-1,-1.E-1));
#80=LINE('',#79,#78);
#81=CARTESIAN_POINT('',(1.5E-1,1.33E-1,0.E0));
#82=DIRECTION('',(-1.E0,0.E0,0.E0));
#83=DIRECTION('',(0.E0,0.E0,1.E0));
#84=AXIS2_PLACEMENT_3D('',#81,#82,#83);
#86=CARTESIAN_POINT('',(1.5E-1,1.33E-1,0.E0));
#87=DIRECTION('',(-1.E0,0.E0,0.E0));
#88=DIRECTION('',(0.E0,0.E0,-1.E0));
#89=AXIS2_PLACEMENT_3D('',#86,#87,#88);
#91=DIRECTION('',(-1.E0,-4.987177273662E-13,-4.984222784756E-13));
#92=VECTOR('',#91,1.878874925366E-1);
#93=CARTESIAN_POINT('',(1.878874925366E-1,3.190000000001E-1,
-1.049999999999E-1));
#94=LINE('',#93,#92);
#95=CARTESIAN_POINT('',(1.878874925429E-1,3.19E-1,-6.5E-2));
#96=DIRECTION('',(0.E0,1.E0,0.E0));
#97=DIRECTION('',(4.576434318174E-1,0.E0,-8.891358103881E-1));
#98=AXIS2_PLACEMENT_3D('',#95,#96,#97);
#100=DIRECTION('',(-8.891358103881E-1,8.735611928876E-14,-4.576434318173E-1));
#101=VECTOR('',#100,1.868246734730E-1);
#102=CARTESIAN_POINT('',(3.723057372688E-1,3.190000000001E-1,
-1.506634769680E-2));
#103=LINE('',#102,#101);
#104=CARTESIAN_POINT('',(3.54E-1,3.19E-1,2.049908472058E-2));
#105=DIRECTION('',(0.E0,1.E0,0.E0));
#106=DIRECTION('',(1.E0,0.E0,0.E0));
#107=AXIS2_PLACEMENT_3D('',#104,#105,#106);
#109=DIRECTION('',(3.287345531918E-12,-3.287345531918E-12,-1.E0));
#110=VECTOR('',#109,1.719026838060E-2);
#111=CARTESIAN_POINT('',(3.939999999999E-1,3.190000000001E-1,
3.768935310674E-2));
#112=LINE('',#111,#110);
#113=CARTESIAN_POINT('',(3.54E-1,3.19E-1,3.768935311172E-2));
#114=DIRECTION('',(0.E0,1.E0,0.E0));
#115=DIRECTION('',(3.094273529929E-1,0.E0,9.509230848075E-1));
#116=AXIS2_PLACEMENT_3D('',#113,#114,#115);
#118=DIRECTION('',(9.509230848074E-1,3.490598778467E-13,-3.094273529932E-1));
#119=VECTOR('',#118,8.826190258073E-2);
#120=CARTESIAN_POINT('',(2.824468134407E-1,3.190000000001E-1,
1.030369233916E-1));
#121=LINE('',#120,#119);
#122=CARTESIAN_POINT('',(2.700697193190E-1,3.19E-1,6.5E-2));
#123=DIRECTION('',(0.E0,1.E0,0.E0));
#124=DIRECTION('',(0.E0,0.E0,1.E0));
#125=AXIS2_PLACEMENT_3D('',#122,#123,#124);
#127=DIRECTION('',(1.E0,1.518968541300E-13,-1.518454681847E-13));
#128=VECTOR('',#127,2.700697193162E-1);
#129=CARTESIAN_POINT('',(0.E0,3.19E-1,1.05E-1));
#130=LINE('',#129,#128);
#131=DIRECTION('',(3.236027739841E-1,-7.071067811865E-1,-6.287139609312E-1));
#132=VECTOR('',#131,1.414213562374E-2);
#133=CARTESIAN_POINT('',(2.061932298199E-1,3.190000000001E-1,
-1.005654324131E-1));
#134=LINE('',#133,#132);
#135=DIRECTION('',(2.898389589335E-11,-1.E0,-4.303474787853E-13));
#136=VECTOR('',#135,2.040000000001E-1);
#137=CARTESIAN_POINT('',(1.878874925370E-1,3.090000000001E-1,
-1.149999999999E-1));
#138=LINE('',#137,#136);
#139=DIRECTION('',(2.054779359665E-11,1.E0,1.132534188585E-11));
#140=VECTOR('',#139,1.984567905195E-1);
#141=CARTESIAN_POINT('',(2.107696641337E-1,1.105432094806E-1,
-1.094567905194E-1));
#142=LINE('',#141,#140);
#143=CARTESIAN_POINT('',(1.878874925429E-1,3.09E-1,-6.5E-2));
#144=DIRECTION('',(0.E0,1.E0,0.E0));
#145=DIRECTION('',(4.576434318174E-1,0.E0,-8.891358103880E-1));
#146=AXIS2_PLACEMENT_3D('',#143,#144,#145);
#148=DIRECTION('',(3.537810832527E-11,-7.071067811865E-1,-7.071067811865E-1));
#149=VECTOR('',#148,1.414213562374E-2);
#150=CARTESIAN_POINT('',(3.999999999920E-1,1.150000000001E-1,
-1.049999999999E-1));
#151=LINE('',#150,#149);
#152=DIRECTION('',(-8.084932250073E-1,-4.161362187538E-1,-4.161362187537E-1));
#153=VECTOR('',#152,1.070993179289E-2);
#154=CARTESIAN_POINT('',(2.194285714286E-1,1.15E-1,-1.05E-1));
#155=LINE('',#154,#153);
#156=CARTESIAN_POINT('',(2.107696641337E-1,1.105432094806E-1,
-1.094567905194E-1));
#157=CARTESIAN_POINT('',(2.073425734086E-1,1.087792657250E-1,
-1.112207342750E-1));
#158=CARTESIAN_POINT('',(2.001196350850E-1,1.060526714891E-1,
-1.139473285109E-1));
#159=CARTESIAN_POINT('',(1.921263539447E-1,1.05E-1,-1.15E-1));
#160=CARTESIAN_POINT('',(1.878874925429E-1,1.05E-1,-1.15E-1));
#162=DIRECTION('',(7.071067811865E-1,-7.071067811865E-1,-2.906829925692E-11));
#163=VECTOR('',#162,1.414213562375E-2);
#164=CARTESIAN_POINT('',(4.399999999998E-1,1.150000000002E-1,
-6.499999999342E-2));
#165=LINE('',#164,#163);
#166=DIRECTION('',(-1.E0,-6.418916031899E-13,-6.418147483524E-13));
#167=VECTOR('',#166,1.805714285634E-1);
#168=CARTESIAN_POINT('',(3.999999999920E-1,1.150000000001E-1,
-1.049999999999E-1));
#169=LINE('',#168,#167);
#170=CARTESIAN_POINT('',(4.E-1,1.15E-1,-6.5E-2));
#171=DIRECTION('',(0.E0,1.E0,0.E0));
#172=DIRECTION('',(1.E0,0.E0,0.E0));
#173=AXIS2_PLACEMENT_3D('',#170,#171,#172);
#175=DIRECTION('',(0.E0,0.E0,-1.E0));
#176=VECTOR('',#175,1.299999999868E-1);
#177=CARTESIAN_POINT('',(4.399999999998E-1,1.150000000002E-1,
6.499999999342E-2));
#178=LINE('',#177,#176);
#179=CARTESIAN_POINT('',(4.E-1,1.15E-1,6.5E-2));
#180=DIRECTION('',(0.E0,1.E0,0.E0));
#181=DIRECTION('',(0.E0,0.E0,1.E0));
#182=AXIS2_PLACEMENT_3D('',#179,#180,#181);
#184=DIRECTION('',(1.E0,1.269810167216E-12,-1.269810167216E-12));
#185=VECTOR('',#184,9.126829267492E-2);
#186=CARTESIAN_POINT('',(3.087317073171E-1,1.15E-1,1.05E-1));
#187=LINE('',#186,#185);
#188=DIRECTION('',(-9.509230848075E-1,0.E0,3.094273529929E-1));
#189=VECTOR('',#188,6.387441981690E-2);
#190=CARTESIAN_POINT('',(3.694713676496E-1,1.15E-1,8.523550735210E-2));
#191=LINE('',#190,#189);
#192=DIRECTION('',(8.891358103880E-1,0.E0,4.576434318174E-1));
#193=VECTOR('',#192,1.770861080194E-1);
#194=CARTESIAN_POINT('',(2.194285714286E-1,1.15E-1,-1.05E-1));
#195=LINE('',#194,#193);
#196=DIRECTION('',(7.071067811865E-1,-7.071067811865E-1,2.906928056471E-11));
#197=VECTOR('',#196,1.414213562375E-2);
#198=CARTESIAN_POINT('',(4.399999999998E-1,1.150000000002E-1,
6.499999999342E-2));
#199=LINE('',#198,#197);
#200=DIRECTION('',(0.E0,0.E0,-1.E0));
#201=VECTOR('',#200,1.299999999877E-1);
#202=CARTESIAN_POINT('',(4.499999999998E-1,1.050000000002E-1,
6.499999999383E-2));
#203=LINE('',#202,#201);
#204=DIRECTION('',(5.538162521141E-12,-1.E0,-2.055416022558E-10));
#205=VECTOR('',#204,3.000000000017E-2);
#206=CARTESIAN_POINT('',(4.499999999998E-1,1.050000000002E-1,
-6.499999999383E-2));
#207=LINE('',#206,#205);
#208=DIRECTION('',(-5.540012892849E-12,1.E0,-2.055416022558E-10));
#209=VECTOR('',#208,3.000000000017E-2);
#210=CARTESIAN_POINT('',(4.5E-1,7.5E-2,6.5E-2));
#211=LINE('',#210,#209);
#212=DIRECTION('',(1.876332422763E-10,-1.E0,-2.715883073982E-12));
#213=VECTOR('',#212,4.000000000011E-2);
#214=CARTESIAN_POINT('',(3.999999999925E-1,1.050000000001E-1,
-1.149999999999E-1));
#215=LINE('',#214,#213);
#216=CARTESIAN_POINT('',(4.E-1,7.5E-2,-6.5E-2));
#217=DIRECTION('',(0.E0,-1.E0,0.E0));
#218=DIRECTION('',(6.E-1,0.E0,-8.E-1));
#219=AXIS2_PLACEMENT_3D('',#216,#217,#218);
#221=CARTESIAN_POINT('',(4.E-1,1.05E-1,-6.5E-2));
#222=DIRECTION('',(0.E0,1.E0,0.E0));
#223=DIRECTION('',(1.E0,0.E0,0.E0));
#224=AXIS2_PLACEMENT_3D('',#221,#222,#223);
#226=DIRECTION('',(-1.444547865905E-9,-7.071067811865E-1,-7.071067811865E-1));
#227=VECTOR('',#226,1.414213562160E-2);
#228=CARTESIAN_POINT('',(2.144999999976E0,7.500000000174E-2,
-1.049999999983E-1));
#229=LINE('',#228,#227);
#230=CARTESIAN_POINT('',(4.3E-1,7.5E-2,-1.05E-1));
#231=CARTESIAN_POINT('',(4.258722379429E-1,7.190417845715E-2,
-1.080958215429E-1));
#232=CARTESIAN_POINT('',(4.167948376373E-1,6.705917292143E-2,
-1.129408270786E-1));
#233=CARTESIAN_POINT('',(4.060171954971E-1,6.5E-2,-1.15E-1));
#234=CARTESIAN_POINT('',(4.E-1,6.5E-2,-1.15E-1));
#236=DIRECTION('',(7.071067811865E-1,2.041322346002E-9,-7.071067811866E-1));
#237=VECTOR('',#236,1.414213562159E-2);
#238=CARTESIAN_POINT('',(2.169999999999E0,1.000000000199E-1,
-1.049999999988E-1));
#239=LINE('',#238,#237);
#240=CARTESIAN_POINT('',(2.145E0,1.E-1,1.05E-1));
#241=DIRECTION('',(0.E0,0.E0,1.E0));
#242=DIRECTION('',(0.E0,-1.E0,0.E0));
#243=AXIS2_PLACEMENT_3D('',#240,#241,#242);
#245=CARTESIAN_POINT('',(2.145E0,1.E-1,-1.05E-1));
#246=DIRECTION('',(0.E0,0.E0,-1.E0));
#247=DIRECTION('',(1.E0,0.E0,0.E0));
#248=AXIS2_PLACEMENT_3D('',#245,#246,#247);
#250=DIRECTION('',(0.E0,0.E0,1.E0));
#251=VECTOR('',#250,2.099999999976E-1);
#252=CARTESIAN_POINT('',(2.169999999999E0,1.000000000199E-1,
-1.049999999988E-1));
#253=LINE('',#252,#251);
#254=DIRECTION('',(-1.444579267754E-9,-7.071067811865E-1,7.071067811865E-1));
#255=VECTOR('',#254,1.414213562160E-2);
#256=CARTESIAN_POINT('',(2.144999999976E0,7.500000000174E-2,1.049999999983E-1));
#257=LINE('',#256,#255);
#258=DIRECTION('',(7.071067811865E-1,2.041322346002E-9,7.071067811866E-1));
#259=VECTOR('',#258,1.414213562159E-2);
#260=CARTESIAN_POINT('',(2.169999999999E0,1.000000000199E-1,1.049999999988E-1));
#261=LINE('',#260,#259);
#262=CARTESIAN_POINT('',(2.195E0,1.E-1,1.05E-1));
#263=DIRECTION('',(0.E0,0.E0,-1.E0));
#264=DIRECTION('',(-1.E0,0.E0,0.E0));
#265=AXIS2_PLACEMENT_3D('',#262,#263,#264);
#267=CARTESIAN_POINT('',(2.195E0,1.E-1,-1.05E-1));
#268=DIRECTION('',(0.E0,0.E0,1.E0));
#269=DIRECTION('',(0.E0,1.E0,0.E0));
#270=AXIS2_PLACEMENT_3D('',#267,#268,#269);
#272=DIRECTION('',(-1.318563646815E-10,-7.071067811865E-1,-7.071067811865E-1));
#273=VECTOR('',#272,1.414213562359E-2);
#274=CARTESIAN_POINT('',(2.195000000009E0,1.249999999995E-1,
-1.050000000005E-1));
#275=LINE('',#274,#273);
#276=DIRECTION('',(-3.504446367825E-11,-7.071067811865E-1,-7.071067811865E-1));
#277=VECTOR('',#276,1.414213562356E-2);
#278=CARTESIAN_POINT('',(2.494999999998E0,1.250000000005E-1,
-1.049999999995E-1));
#279=LINE('',#278,#277);
#280=DIRECTION('',(1.E0,3.245922049785E-12,-3.245829531199E-12));
#281=VECTOR('',#280,2.999999999887E-1);
#282=CARTESIAN_POINT('',(2.195000000009E0,1.249999999995E-1,1.050000000005E-1));
#283=LINE('',#282,#281);
#284=DIRECTION('',(0.E0,0.E0,1.E0));
#285=VECTOR('',#284,2.100000000010E-1);
#286=CARTESIAN_POINT('',(2.195000000009E0,1.249999999995E-1,
-1.050000000005E-1));
#287=LINE('',#286,#285);
#288=DIRECTION('',(-1.E0,-3.245922049785E-12,-3.245875790492E-12));
#289=VECTOR('',#288,2.999999999887E-1);
#290=CARTESIAN_POINT('',(2.494999999998E0,1.250000000005E-1,
-1.049999999995E-1));
#291=LINE('',#290,#289);
#292=CARTESIAN_POINT('',(2.495E0,1.25E-1,-9.E-2));
#293=DIRECTION('',(0.E0,1.E0,0.E0));
#294=DIRECTION('',(1.E0,0.E0,0.E0));
#295=AXIS2_PLACEMENT_3D('',#292,#293,#294);
#297=DIRECTION('',(0.E0,0.E0,-1.E0));
#298=VECTOR('',#297,1.799999999823E-1);
#299=CARTESIAN_POINT('',(2.51E0,1.250000000004E-1,8.999999999113E-2));
#300=LINE('',#299,#298);
#301=CARTESIAN_POINT('',(2.495E0,1.25E-1,9.E-2));
#302=DIRECTION('',(0.E0,1.E0,0.E0));
#303=DIRECTION('',(0.E0,0.E0,1.E0));
#304=AXIS2_PLACEMENT_3D('',#301,#302,#303);
#306=DIRECTION('',(-1.318563646815E-10,-7.071067811865E-1,7.071067811865E-1));
#307=VECTOR('',#306,1.414213562359E-2);
#308=CARTESIAN_POINT('',(2.195000000009E0,1.249999999995E-1,1.050000000005E-1));
#309=LINE('',#308,#307);
#310=DIRECTION('',(1.E0,1.426473839867E-13,-1.422362964247E-13));
#311=VECTOR('',#310,2.700697193164E-1);
#312=CARTESIAN_POINT('',(0.E0,3.09E-1,1.15E-1));
#313=LINE('',#312,#311);
#314=DIRECTION('',(1.E0,8.362115450237E-13,-8.362115450237E-13));
#315=VECTOR('',#314,1.299302806735E-1);
#316=CARTESIAN_POINT('',(2.700697193190E-1,1.05E-1,1.15E-1));
#317=LINE('',#316,#315);
#318=DIRECTION('',(1.E0,1.857380852161E-12,-1.857333134839E-12));
#319=VECTOR('',#318,1.744999999956E0);
#320=CARTESIAN_POINT('',(4.E-1,6.5E-2,1.15E-1));
#321=LINE('',#320,#319);
#322=CARTESIAN_POINT('',(2.145E0,1.E-1,1.15E-1));
#323=DIRECTION('',(0.E0,0.E0,1.E0));
#324=DIRECTION('',(0.E0,-1.E0,0.E0));
#325=AXIS2_PLACEMENT_3D('',#322,#323,#324);
#327=CARTESIAN_POINT('',(2.195E0,1.E-1,1.15E-1));
#328=DIRECTION('',(0.E0,0.E0,-1.E0));
#329=DIRECTION('',(-1.E0,0.E0,0.E0));
#330=AXIS2_PLACEMENT_3D('',#327,#328,#329);
#332=DIRECTION('',(1.E0,3.329743888132E-12,-3.329928925303E-12));
#333=VECTOR('',#332,2.999999999901E-1);
#334=CARTESIAN_POINT('',(2.195000000007E0,1.149999999996E-1,1.150000000004E-1));
#335=LINE('',#334,#333);
#336=DIRECTION('',(-8.013906998242E-11,-1.E0,1.528803538775E-12));
#337=VECTOR('',#336,1.050000000011E-1);
#338=CARTESIAN_POINT('',(2.494999999998E0,1.150000000006E-1,1.149999999994E-1));
#339=LINE('',#338,#337);
#340=DIRECTION('',(1.E0,-1.805454305328E-13,-1.805558597320E-13));
#341=VECTOR('',#340,2.494999999989E0);
#342=CARTESIAN_POINT('',(0.E0,1.E-2,1.15E-1));
#343=LINE('',#342,#341);
#344=DIRECTION('',(0.E0,-1.E0,0.E0));
#345=VECTOR('',#344,2.99E-1);
#346=CARTESIAN_POINT('',(0.E0,3.09E-1,1.15E-1));
#347=LINE('',#346,#345);
#348=DIRECTION('',(1.216429132365E-11,-7.071067811865E-1,7.071067811865E-1));
#349=VECTOR('',#348,1.414213562373E-2);
#350=CARTESIAN_POINT('',(2.700697193162E-1,3.19E-1,1.05E-1));
#351=LINE('',#350,#349);
#352=DIRECTION('',(2.187981795769E-1,-7.071067811865E-1,6.724041616571E-1));
#353=VECTOR('',#352,1.414213562374E-2);
#354=CARTESIAN_POINT('',(2.824468134407E-1,3.190000000001E-1,
1.030369233916E-1));
#355=LINE('',#354,#353);
#356=DIRECTION('',(2.187981796122E-1,-7.071067811865E-1,6.724041616456E-1));
#357=VECTOR('',#356,1.414213562374E-2);
#358=CARTESIAN_POINT('',(3.663770941137E-1,3.190000000001E-1,
7.572627650587E-2));
#359=LINE('',#358,#357);
#360=DIRECTION('',(7.071067811865E-1,-7.071067811865E-1,2.202839719531E-11));
#361=VECTOR('',#360,1.414213562374E-2);
#362=CARTESIAN_POINT('',(3.939999999999E-1,3.190000000001E-1,
3.768935310674E-2));
#363=LINE('',#362,#361);
#364=DIRECTION('',(7.071067811866E-1,-7.071067811865E-1,-2.457022968976E-11));
#365=VECTOR('',#364,1.414213562374E-2);
#366=CARTESIAN_POINT('',(3.939999999999E-1,3.190000000001E-1,
2.049908472614E-2));
#367=LINE('',#366,#365);
#368=DIRECTION('',(3.236027740205E-1,-7.071067811865E-1,-6.287139609125E-1));
#369=VECTOR('',#368,1.414213562374E-2);
#370=CARTESIAN_POINT('',(3.723057372688E-1,3.190000000001E-1,
-1.506634769680E-2));
#371=LINE('',#370,#369);
#372=DIRECTION('',(-1.879309995136E-11,1.E0,-8.994988316614E-12));
#373=VECTOR('',#372,1.940000000001E-1);
#374=CARTESIAN_POINT('',(3.768821715909E-1,1.15E-1,-2.395770579882E-2));
#375=LINE('',#374,#373);
#376=DIRECTION('',(-8.891358103881E-1,8.171065579705E-14,-4.576434318173E-1));
#377=VECTOR('',#376,1.868246734736E-1);
#378=CARTESIAN_POINT('',(3.768821715872E-1,3.090000000001E-1,
-2.395770580056E-2));
#379=LINE('',#378,#377);
#380=CARTESIAN_POINT('',(3.54E-1,3.09E-1,2.049908472058E-2));
#381=DIRECTION('',(0.E0,1.E0,0.E0));
#382=DIRECTION('',(1.E0,0.E0,0.E0));
#383=AXIS2_PLACEMENT_3D('',#380,#381,#382);
#385=CARTESIAN_POINT('',(3.54E-1,1.15E-1,2.049908472058E-2));
#386=DIRECTION('',(0.E0,-1.E0,0.E0));
#387=DIRECTION('',(4.576434318174E-1,0.E0,-8.891358103880E-1));
#388=AXIS2_PLACEMENT_3D('',#385,#386,#387);
#390=DIRECTION('',(3.080675478713E-12,-3.080675478713E-12,-1.E0));
#391=VECTOR('',#390,1.719026838125E-2);
#392=CARTESIAN_POINT('',(4.039999999999E-1,3.090000000001E-1,
3.768935310705E-2));
#393=LINE('',#392,#391);
#394=DIRECTION('',(-4.023127764491E-13,1.E0,2.686728989343E-11));
#395=VECTOR('',#394,1.940000000001E-1);
#396=CARTESIAN_POINT('',(4.04E-1,1.15E-1,2.049908472058E-2));
#397=LINE('',#396,#395);
#398=DIRECTION('',(0.E0,0.E0,1.E0));
#399=VECTOR('',#398,1.719026839114E-2);
#400=CARTESIAN_POINT('',(4.04E-1,1.15E-1,2.049908472058E-2));
#401=LINE('',#400,#399);
#402=DIRECTION('',(-6.752902933282E-13,1.E0,-2.408761907002E-11));
#403=VECTOR('',#402,1.940000000001E-1);
#404=CARTESIAN_POINT('',(4.04E-1,1.15E-1,3.768935311172E-2));
#405=LINE('',#404,#403);
#406=CARTESIAN_POINT('',(3.54E-1,3.09E-1,3.768935311172E-2));
#407=DIRECTION('',(0.E0,1.E0,0.E0));
#408=DIRECTION('',(3.094273529929E-1,0.E0,9.509230848075E-1));
#409=AXIS2_PLACEMENT_3D('',#406,#407,#408);
#411=CARTESIAN_POINT('',(3.54E-1,1.15E-1,3.768935311172E-2));
#412=DIRECTION('',(0.E0,-1.E0,0.E0));
#413=DIRECTION('',(1.E0,0.E0,0.E0));
#414=AXIS2_PLACEMENT_3D('',#411,#412,#413);
#416=DIRECTION('',(9.372488263879E-12,1.E0,-3.349668198984E-12));
#417=VECTOR('',#416,2.015461542404E-1);
#418=CARTESIAN_POINT('',(2.855410869686E-1,1.074538457596E-1,
1.125461542404E-1));
#419=LINE('',#418,#417);
#420=DIRECTION('',(9.509230848074E-1,3.270470927553E-13,-3.094273529932E-1));
#421=VECTOR('',#420,8.826190258126E-2);
#422=CARTESIAN_POINT('',(2.855410869705E-1,3.090000000001E-1,
1.125461542397E-1));
#423=LINE('',#422,#421);
#424=DIRECTION('',(-2.892274049125E-11,1.E0,8.942016657483E-12));
#425=VECTOR('',#424,1.940000000001E-1);
#426=CARTESIAN_POINT('',(3.694713676496E-1,1.15E-1,8.523550735210E-2));
#427=LINE('',#426,#425);
#428=CARTESIAN_POINT('',(2.700697193190E-1,1.05E-1,1.15E-1));
#429=CARTESIAN_POINT('',(2.754802287254E-1,1.05E-1,1.15E-1));
#430=CARTESIAN_POINT('',(2.806260279019E-1,1.058545011427E-1,
1.141454988573E-1));
#431=CARTESIAN_POINT('',(2.855410869686E-1,1.074538457596E-1,
1.125461542404E-1));
#433=DIRECTION('',(9.084281529749E-1,2.955996370791E-1,-2.955996370791E-1));
#434=VECTOR('',#433,2.552829331910E-2);
#435=CARTESIAN_POINT('',(2.855410869686E-1,1.074538457596E-1,
1.125461542404E-1));
#436=LINE('',#435,#434);
#437=DIRECTION('',(3.538203355641E-11,-7.071067811865E-1,7.071067811865E-1));
#438=VECTOR('',#437,1.414213562374E-2);
#439=CARTESIAN_POINT('',(3.999999999920E-1,1.150000000001E-1,
1.049999999999E-1));
#440=LINE('',#439,#438);
#441=CARTESIAN_POINT('',(4.E-1,7.5E-2,6.5E-2));
#442=DIRECTION('',(0.E0,-1.E0,0.E0));
#443=DIRECTION('',(1.E0,0.E0,0.E0));
#444=AXIS2_PLACEMENT_3D('',#441,#442,#443);
#446=DIRECTION('',(-1.876429567277E-10,1.E0,-2.716230018677E-12));
#447=VECTOR('',#446,4.000000000011E-2);
#448=CARTESIAN_POINT('',(4.E-1,6.5E-2,1.15E-1));
#449=LINE('',#448,#447);
#450=CARTESIAN_POINT('',(4.E-1,1.05E-1,6.5E-2));
#451=DIRECTION('',(0.E0,1.E0,0.E0));
#452=DIRECTION('',(0.E0,0.E0,1.E0));
#453=AXIS2_PLACEMENT_3D('',#450,#451,#452);
#455=DIRECTION('',(1.E0,1.012431149620E-12,-1.012406873606E-12));
#456=VECTOR('',#455,1.714999999976E0);
#457=CARTESIAN_POINT('',(4.3E-1,7.5E-2,1.05E-1));
#458=LINE('',#457,#456);
#459=DIRECTION('',(0.E0,0.E0,1.E0));
#460=VECTOR('',#459,1.3E-1);
#461=CARTESIAN_POINT('',(4.5E-1,7.5E-2,-6.5E-2));
#462=LINE('',#461,#460);
#463=DIRECTION('',(-1.E0,-1.012439241625E-12,-1.012406873606E-12));
#464=VECTOR('',#463,1.714999999976E0);
#465=CARTESIAN_POINT('',(2.144999999976E0,7.500000000174E-2,
-1.049999999983E-1));
#466=LINE('',#465,#464);
#467=DIRECTION('',(0.E0,0.E0,1.E0));
#468=VECTOR('',#467,2.099999999965E-1);
#469=CARTESIAN_POINT('',(2.144999999976E0,7.500000000174E-2,
-1.049999999983E-1));
#470=LINE('',#469,#468);
#471=CARTESIAN_POINT('',(4.E-1,6.5E-2,1.15E-1));
#472=CARTESIAN_POINT('',(4.060171954971E-1,6.5E-2,1.15E-1));
#473=CARTESIAN_POINT('',(4.167948376373E-1,6.705917292143E-2,
1.129408270786E-1));
#474=CARTESIAN_POINT('',(4.258722379429E-1,7.190417845715E-2,
1.080958215429E-1));
#475=CARTESIAN_POINT('',(4.3E-1,7.5E-2,1.05E-1));
#477=DIRECTION('',(-1.264212046594E-11,1.E0,-1.883705609796E-13));
#478=VECTOR('',#477,2.04E-1);
#479=CARTESIAN_POINT('',(2.700697193190E-1,1.05E-1,1.15E-1));
#480=LINE('',#479,#478);
#481=CARTESIAN_POINT('',(2.700697193190E-1,3.09E-1,6.5E-2));
#482=DIRECTION('',(0.E0,1.E0,0.E0));
#483=DIRECTION('',(0.E0,0.E0,1.E0));
#484=AXIS2_PLACEMENT_3D('',#481,#482,#483);
#486=CARTESIAN_POINT('',(2.495E0,1.15E-1,9.E-2));
#487=DIRECTION('',(0.E0,1.E0,0.E0));
#488=DIRECTION('',(0.E0,0.E0,1.E0));
#489=AXIS2_PLACEMENT_3D('',#486,#487,#488);
#491=CARTESIAN_POINT('',(2.495E0,1.E-2,9.E-2));
#492=DIRECTION('',(0.E0,1.E0,0.E0));
#493=DIRECTION('',(0.E0,0.E0,1.E0));
#494=AXIS2_PLACEMENT_3D('',#491,#492,#493);
#496=DIRECTION('',(-3.504446367825E-11,-7.071067811865E-1,7.071067811865E-1));
#497=VECTOR('',#496,1.414213562356E-2);
#498=CARTESIAN_POINT('',(2.494999999998E0,1.250000000005E-1,1.049999999995E-1));
#499=LINE('',#498,#497);
#500=DIRECTION('',(7.071067811865E-1,-7.071067811865E-1,-1.567148535339E-10));
#501=VECTOR('',#500,1.414213562359E-2);
#502=CARTESIAN_POINT('',(2.51E0,1.250000000004E-1,8.999999999113E-2));
#503=LINE('',#502,#501);
#504=DIRECTION('',(7.071067811866E-1,-7.071067811865E-1,1.567138722261E-10));
#505=VECTOR('',#504,1.414213562359E-2);
#506=CARTESIAN_POINT('',(2.51E0,1.250000000004E-1,-8.999999999113E-2));
#507=LINE('',#506,#505);
#508=CARTESIAN_POINT('',(2.495E0,1.15E-1,-9.E-2));
#509=DIRECTION('',(0.E0,1.E0,0.E0));
#510=DIRECTION('',(1.E0,0.E0,0.E0));
#511=AXIS2_PLACEMENT_3D('',#508,#509,#510);
#513=CARTESIAN_POINT('',(2.495E0,1.E-2,-9.E-2));
#514=DIRECTION('',(0.E0,1.E0,0.E0));
#515=DIRECTION('',(1.E0,0.E0,0.E0));
#516=AXIS2_PLACEMENT_3D('',#513,#514,#515);
#518=DIRECTION('',(-7.071067811866E-1,-7.071067811865E-1,-1.318406637570E-10));
#519=VECTOR('',#518,1.414213562359E-2);
#520=CARTESIAN_POINT('',(2.52E0,9.999999999515E-3,-8.999999999068E-2));
#521=LINE('',#520,#519);
#522=DIRECTION('',(1.540260701983E-10,-7.071067811865E-1,7.071067811865E-1));
#523=VECTOR('',#522,1.414213562360E-2);
#524=CARTESIAN_POINT('',(2.494999999989E0,9.999999999550E-3,
-1.149999999995E-1));
#525=LINE('',#524,#523);
#526=DIRECTION('',(1.E0,-1.444404697538E-13,-1.444402379938E-13));
#527=VECTOR('',#526,2.494999999991E0);
#528=CARTESIAN_POINT('',(0.E0,0.E0,1.05E-1));
#529=LINE('',#528,#527);
#530=CARTESIAN_POINT('',(2.495E0,0.E0,9.E-2));
#531=DIRECTION('',(0.E0,1.E0,0.E0));
#532=DIRECTION('',(0.E0,0.E0,1.E0));
#533=AXIS2_PLACEMENT_3D('',#530,#531,#532);
#535=DIRECTION('',(0.E0,0.E0,-1.E0));
#536=VECTOR('',#535,1.799999999851E-1);
#537=CARTESIAN_POINT('',(2.51E0,-3.879607861819E-13,8.999999999254E-2));
#538=LINE('',#537,#536);
#539=CARTESIAN_POINT('',(2.495E0,0.E0,-9.E-2));
#540=DIRECTION('',(0.E0,1.E0,0.E0));
#541=DIRECTION('',(1.E0,0.E0,0.E0));
#542=AXIS2_PLACEMENT_3D('',#539,#540,#541);
#544=DIRECTION('',(-1.E0,1.444415126737E-13,-1.444402379938E-13));
#545=VECTOR('',#544,2.494999999991E0);
#546=CARTESIAN_POINT('',(2.494999999991E0,-3.603801285168E-13,
-1.049999999996E-1));
#547=LINE('',#546,#545);
#548=DIRECTION('',(0.E0,0.E0,1.E0));
#549=VECTOR('',#548,2.1E-1);
#550=CARTESIAN_POINT('',(0.E0,0.E0,-1.05E-1));
#551=LINE('',#550,#549);
#552=DIRECTION('',(1.540574720474E-10,-7.071067811865E-1,-7.071067811865E-1));
#553=VECTOR('',#552,1.414213562360E-2);
#554=CARTESIAN_POINT('',(2.494999999989E0,9.999999999550E-3,1.149999999995E-1));
#555=LINE('',#554,#553);
#556=DIRECTION('',(-7.071067811866E-1,-7.071067811865E-1,1.318416450647E-10));
#557=VECTOR('',#556,1.414213562359E-2);
#558=CARTESIAN_POINT('',(2.52E0,9.999999999515E-3,8.999999999068E-2));
#559=LINE('',#558,#557);
#560=DIRECTION('',(0.E0,0.E0,-1.E0));
#561=VECTOR('',#560,1.799999999778E-1);
#562=CARTESIAN_POINT('',(2.52E0,1.150000000005E-1,8.999999998892E-2));
#563=LINE('',#562,#561);
#564=DIRECTION('',(-1.268826313845E-13,1.E0,1.674996120624E-11));
#565=VECTOR('',#564,1.050000000010E-1);
#566=CARTESIAN_POINT('',(2.52E0,9.999999999515E-3,-8.999999999068E-2));
#567=LINE('',#566,#565);
#568=DIRECTION('',(0.E0,0.E0,-1.E0));
#569=VECTOR('',#568,1.799999999814E-1);
#570=CARTESIAN_POINT('',(2.52E0,9.999999999515E-3,8.999999999068E-2));
#571=LINE('',#570,#569);
#572=DIRECTION('',(1.268826313845E-13,-1.E0,1.675009337565E-11));
#573=VECTOR('',#572,1.050000000010E-1);
#574=CARTESIAN_POINT('',(2.52E0,1.150000000005E-1,8.999999998892E-2));
#575=LINE('',#574,#573);
#576=CARTESIAN_POINT('',(4.5E-1,7.5E-2,-6.5E-2));
#577=CARTESIAN_POINT('',(4.5E-1,7.5E-2,6.5E-2));
#578=VERTEX_POINT('',#576);
#579=VERTEX_POINT('',#577);
#580=CARTESIAN_POINT('',(1.5E-1,1.33E-1,1.E-1));
#581=CARTESIAN_POINT('',(1.5E-1,1.33E-1,-1.E-1));
#582=VERTEX_POINT('',#580);
#583=VERTEX_POINT('',#581);
#584=CARTESIAN_POINT('',(0.E0,1.33E-1,1.E-1));
#585=CARTESIAN_POINT('',(0.E0,1.33E-1,-1.E-1));
#586=VERTEX_POINT('',#584);
#587=VERTEX_POINT('',#585);
#588=CARTESIAN_POINT('',(4.04E-1,1.15E-1,2.049908472058E-2));
#589=CARTESIAN_POINT('',(4.04E-1,1.15E-1,3.768935311172E-2));
#590=VERTEX_POINT('',#588);
#591=VERTEX_POINT('',#589);
#592=CARTESIAN_POINT('',(3.694713676496E-1,1.15E-1,8.523550735210E-2));
#593=VERTEX_POINT('',#592);
#594=CARTESIAN_POINT('',(3.768821715909E-1,1.15E-1,-2.395770579882E-2));
#595=VERTEX_POINT('',#594);
#596=CARTESIAN_POINT('',(0.E0,3.19E-1,-1.05E-1));
#597=CARTESIAN_POINT('',(0.E0,3.09E-1,-1.15E-1));
#598=VERTEX_POINT('',#596);
#599=VERTEX_POINT('',#597);
#600=CARTESIAN_POINT('',(1.878874925370E-1,3.090000000001E-1,
-1.149999999999E-1));
#601=VERTEX_POINT('',#600);
#602=CARTESIAN_POINT('',(1.878874925366E-1,3.190000000001E-1,
-1.049999999999E-1));
#603=VERTEX_POINT('',#602);
#604=CARTESIAN_POINT('',(2.061932298156E-1,3.19E-1,-1.005654324155E-1));
#605=VERTEX_POINT('',#604);
#606=CARTESIAN_POINT('',(2.107696641337E-1,3.09E-1,-1.094567905194E-1));
#607=VERTEX_POINT('',#606);
#608=CARTESIAN_POINT('',(3.723057372688E-1,3.190000000001E-1,
-1.506634769680E-2));
#609=VERTEX_POINT('',#608);
#610=CARTESIAN_POINT('',(3.768821715872E-1,3.090000000001E-1,
-2.395770580056E-2));
#611=VERTEX_POINT('',#610);
#612=CARTESIAN_POINT('',(3.94E-1,3.19E-1,2.049908472058E-2));
#613=VERTEX_POINT('',#612);
#614=CARTESIAN_POINT('',(4.04E-1,3.09E-1,2.049908472058E-2));
#615=VERTEX_POINT('',#614);
#616=CARTESIAN_POINT('',(3.939999999999E-1,3.190000000001E-1,
3.768935310674E-2));
#617=VERTEX_POINT('',#616);
#618=CARTESIAN_POINT('',(4.039999999999E-1,3.090000000001E-1,
3.768935310705E-2));
#619=VERTEX_POINT('',#618);
#620=CARTESIAN_POINT('',(3.663770941197E-1,3.19E-1,7.572627650402E-2));
#621=VERTEX_POINT('',#620);
#622=CARTESIAN_POINT('',(3.694713676496E-1,3.09E-1,8.523550735210E-2));
#623=VERTEX_POINT('',#622);
#624=CARTESIAN_POINT('',(2.824468134407E-1,3.190000000001E-1,
1.030369233916E-1));
#625=VERTEX_POINT('',#624);
#626=CARTESIAN_POINT('',(2.855410869705E-1,3.090000000001E-1,
1.125461542397E-1));
#627=VERTEX_POINT('',#626);
#628=CARTESIAN_POINT('',(2.700697193190E-1,3.19E-1,1.05E-1));
#629=VERTEX_POINT('',#628);
#630=CARTESIAN_POINT('',(2.700697193190E-1,3.09E-1,1.15E-1));
#631=VERTEX_POINT('',#630);
#632=CARTESIAN_POINT('',(0.E0,3.09E-1,1.15E-1));
#633=CARTESIAN_POINT('',(0.E0,3.19E-1,1.05E-1));
#634=VERTEX_POINT('',#632);
#635=VERTEX_POINT('',#633);
#636=CARTESIAN_POINT('',(3.999999999925E-1,1.050000000001E-1,
-1.149999999999E-1));
#637=CARTESIAN_POINT('',(1.878874925429E-1,1.05E-1,-1.15E-1));
#638=VERTEX_POINT('',#636);
#639=VERTEX_POINT('',#637);
#640=CARTESIAN_POINT('',(3.999999999920E-1,1.150000000001E-1,
-1.049999999999E-1));
#641=CARTESIAN_POINT('',(2.194285714286E-1,1.15E-1,-1.05E-1));
#642=VERTEX_POINT('',#640);
#643=VERTEX_POINT('',#641);
#644=CARTESIAN_POINT('',(4.4E-1,1.15E-1,-6.5E-2));
#645=VERTEX_POINT('',#644);
#646=CARTESIAN_POINT('',(4.5E-1,1.05E-1,-6.5E-2));
#647=VERTEX_POINT('',#646);
#648=CARTESIAN_POINT('',(4.399999999998E-1,1.150000000002E-1,
6.499999999342E-2));
#649=VERTEX_POINT('',#648);
#650=CARTESIAN_POINT('',(4.499999999998E-1,1.050000000002E-1,
6.499999999383E-2));
#651=VERTEX_POINT('',#650);
#652=CARTESIAN_POINT('',(4.E-1,1.15E-1,1.05E-1));
#653=VERTEX_POINT('',#652);
#654=CARTESIAN_POINT('',(4.E-1,1.05E-1,1.15E-1));
#655=VERTEX_POINT('',#654);
#656=CARTESIAN_POINT('',(3.087317073171E-1,1.15E-1,1.05E-1));
#657=VERTEX_POINT('',#656);
#658=CARTESIAN_POINT('',(2.700697193190E-1,1.05E-1,1.15E-1));
#659=VERTEX_POINT('',#658);
#660=CARTESIAN_POINT('',(2.195000000007E0,1.149999999996E-1,1.150000000004E-1));
#661=CARTESIAN_POINT('',(2.494999999998E0,1.150000000006E-1,1.149999999994E-1));
#662=VERTEX_POINT('',#660);
#663=VERTEX_POINT('',#661);
#664=CARTESIAN_POINT('',(2.195000000009E0,1.249999999995E-1,1.050000000005E-1));
#665=CARTESIAN_POINT('',(2.494999999998E0,1.250000000005E-1,1.049999999995E-1));
#666=VERTEX_POINT('',#664);
#667=VERTEX_POINT('',#665);
#668=CARTESIAN_POINT('',(2.17E0,1.E-1,1.05E-1));
#669=VERTEX_POINT('',#668);
#670=CARTESIAN_POINT('',(2.18E0,1.E-1,1.15E-1));
#671=VERTEX_POINT('',#670);
#672=CARTESIAN_POINT('',(2.145E0,7.5E-2,1.05E-1));
#673=VERTEX_POINT('',#672);
#674=CARTESIAN_POINT('',(2.145E0,6.5E-2,1.15E-1));
#675=VERTEX_POINT('',#674);
#676=CARTESIAN_POINT('',(4.3E-1,7.5E-2,1.05E-1));
#677=VERTEX_POINT('',#676);
#678=CARTESIAN_POINT('',(4.E-1,6.5E-2,1.15E-1));
#679=VERTEX_POINT('',#678);
#680=CARTESIAN_POINT('',(2.144999999956E0,6.500000000324E-2,
-1.149999999968E-1));
#681=CARTESIAN_POINT('',(4.E-1,6.5E-2,-1.15E-1));
#682=VERTEX_POINT('',#680);
#683=VERTEX_POINT('',#681);
#684=CARTESIAN_POINT('',(2.144999999976E0,7.500000000174E-2,
-1.049999999983E-1));
#685=CARTESIAN_POINT('',(4.3E-1,7.5E-2,-1.05E-1));
#686=VERTEX_POINT('',#684);
#687=VERTEX_POINT('',#685);
#688=CARTESIAN_POINT('',(2.17E0,1.E-1,-1.05E-1));
#689=VERTEX_POINT('',#688);
#690=CARTESIAN_POINT('',(2.18E0,1.E-1,-1.15E-1));
#691=VERTEX_POINT('',#690);
#692=CARTESIAN_POINT('',(2.195E0,1.25E-1,-1.05E-1));
#693=VERTEX_POINT('',#692);
#694=CARTESIAN_POINT('',(2.195E0,1.15E-1,-1.15E-1));
#695=VERTEX_POINT('',#694);
#696=CARTESIAN_POINT('',(2.494999999998E0,1.250000000005E-1,
-1.049999999995E-1));
#697=VERTEX_POINT('',#696);
#698=CARTESIAN_POINT('',(2.494999999998E0,1.150000000006E-1,
-1.149999999994E-1));
#699=VERTEX_POINT('',#698);
#700=CARTESIAN_POINT('',(0.E0,0.E0,1.05E-1));
#701=CARTESIAN_POINT('',(2.494999999991E0,-3.603786829139E-13,
1.049999999996E-1));
#702=VERTEX_POINT('',#700);
#703=VERTEX_POINT('',#701);
#704=CARTESIAN_POINT('',(0.E0,1.E-2,1.15E-1));
#705=VERTEX_POINT('',#704);
#706=CARTESIAN_POINT('',(2.494999999989E0,9.999999999550E-3,1.149999999995E-1));
#707=VERTEX_POINT('',#706);
#708=CARTESIAN_POINT('',(0.E0,1.E-2,-1.15E-1));
#709=CARTESIAN_POINT('',(0.E0,0.E0,-1.05E-1));
#710=VERTEX_POINT('',#708);
#711=VERTEX_POINT('',#709);
#712=CARTESIAN_POINT('',(2.494999999991E0,-3.603801285168E-13,
-1.049999999996E-1));
#713=VERTEX_POINT('',#712);
#714=CARTESIAN_POINT('',(2.494999999989E0,9.999999999550E-3,
-1.149999999995E-1));
#715=VERTEX_POINT('',#714);
#716=VERTEX_POINT('',#431);
#717=CARTESIAN_POINT('',(2.107696641337E-1,1.105432094806E-1,
-1.094567905194E-1));
#718=VERTEX_POINT('',#717);
#719=CARTESIAN_POINT('',(2.51E0,1.25E-1,9.E-2));
#720=VERTEX_POINT('',#719);
#721=CARTESIAN_POINT('',(2.52E0,1.15E-1,9.E-2));
#722=VERTEX_POINT('',#721);
#723=CARTESIAN_POINT('',(2.51E0,1.250000000004E-1,-8.999999999113E-2));
#724=VERTEX_POINT('',#723);
#725=CARTESIAN_POINT('',(2.52E0,1.150000000005E-1,-8.999999998892E-2));
#726=VERTEX_POINT('',#725);
#727=CARTESIAN_POINT('',(2.52E0,1.E-2,9.E-2));
#728=VERTEX_POINT('',#727);
#729=CARTESIAN_POINT('',(2.51E0,0.E0,9.E-2));
#730=VERTEX_POINT('',#729);
#731=CARTESIAN_POINT('',(2.52E0,9.999999999515E-3,-8.999999999068E-2));
#732=VERTEX_POINT('',#731);
#733=CARTESIAN_POINT('',(2.51E0,-3.880330663268E-13,-8.999999999254E-2));
#734=VERTEX_POINT('',#733);
#735=CARTESIAN_POINT('',(0.E0,0.E0,-1.15E-1));
#736=DIRECTION('',(0.E0,0.E0,1.E0));
#737=DIRECTION('',(1.E0,0.E0,0.E0));
#738=AXIS2_PLACEMENT_3D('',#735,#736,#737);
#739=PLANE('',#738);
#741=ORIENTED_EDGE('',*,*,#740,.T.);
#743=ORIENTED_EDGE('',*,*,#742,.T.);
#745=ORIENTED_EDGE('',*,*,#744,.F.);
#747=ORIENTED_EDGE('',*,*,#746,.T.);
#749=ORIENTED_EDGE('',*,*,#748,.T.);
#751=ORIENTED_EDGE('',*,*,#750,.T.);
#753=ORIENTED_EDGE('',*,*,#752,.T.);
#755=ORIENTED_EDGE('',*,*,#754,.T.);
#757=ORIENTED_EDGE('',*,*,#756,.F.);
#759=ORIENTED_EDGE('',*,*,#758,.T.);
#761=ORIENTED_EDGE('',*,*,#760,.F.);
#762=EDGE_LOOP('',(#741,#743,#745,#747,#749,#751,#753,#755,#757,#759,#761));
#763=FACE_OUTER_BOUND('',#762,.F.);
#764=ADVANCED_FACE('',(#763),#739,.F.);
#765=CARTESIAN_POINT('',(9.394374627143E-2,3.14E-1,-1.1E-1));
#766=DIRECTION('',(0.E0,7.071067811865E-1,-7.071067811865E-1));
#767=DIRECTION('',(0.E0,-7.071067811865E-1,-7.071067811865E-1));
#768=AXIS2_PLACEMENT_3D('',#765,#766,#767);
#769=PLANE('',#768);
#771=ORIENTED_EDGE('',*,*,#770,.T.);
#772=ORIENTED_EDGE('',*,*,#740,.F.);
#774=ORIENTED_EDGE('',*,*,#773,.F.);
#776=ORIENTED_EDGE('',*,*,#775,.T.);
#777=EDGE_LOOP('',(#771,#772,#774,#776));
#778=FACE_OUTER_BOUND('',#777,.F.);
#779=ADVANCED_FACE('',(#778),#769,.T.);
#780=CARTESIAN_POINT('',(0.E0,3.75E-1,-1.15E-1));
#781=DIRECTION('',(-1.E0,0.E0,0.E0));
#782=DIRECTION('',(0.E0,-1.E0,0.E0));
#783=AXIS2_PLACEMENT_3D('',#780,#781,#782);
#784=PLANE('',#783);
#785=ORIENTED_EDGE('',*,*,#770,.F.);
#787=ORIENTED_EDGE('',*,*,#786,.T.);
#789=ORIENTED_EDGE('',*,*,#788,.F.);
#791=ORIENTED_EDGE('',*,*,#790,.T.);
#793=ORIENTED_EDGE('',*,*,#792,.F.);
#795=ORIENTED_EDGE('',*,*,#794,.F.);
#797=ORIENTED_EDGE('',*,*,#796,.F.);
#798=ORIENTED_EDGE('',*,*,#742,.F.);
#799=EDGE_LOOP('',(#785,#787,#789,#791,#793,#795,#797,#798));
#800=FACE_OUTER_BOUND('',#799,.F.);
#802=ORIENTED_EDGE('',*,*,#801,.T.);
#804=ORIENTED_EDGE('',*,*,#803,.T.);
#805=EDGE_LOOP('',(#802,#804));
#806=FACE_BOUND('',#805,.F.);
#807=ADVANCED_FACE('',(#800,#806),#784,.T.);
#808=CARTESIAN_POINT('',(0.E0,1.33E-1,0.E0));
#809=DIRECTION('',(-1.E0,0.E0,0.E0));
#810=DIRECTION('',(0.E0,0.E0,1.E0));
#811=AXIS2_PLACEMENT_3D('',#808,#809,#810);
#812=CYLINDRICAL_SURFACE('',#811,1.E-1);
#813=ORIENTED_EDGE('',*,*,#801,.F.);
#815=ORIENTED_EDGE('',*,*,#814,.T.);
#817=ORIENTED_EDGE('',*,*,#816,.T.);
#819=ORIENTED_EDGE('',*,*,#818,.F.);
#820=EDGE_LOOP('',(#813,#815,#817,#819));
#821=FACE_OUTER_BOUND('',#820,.F.);
#822=ADVANCED_FACE('',(#821),#812,.F.);
#823=CARTESIAN_POINT('',(0.E0,1.33E-1,0.E0));
#824=DIRECTION('',(-1.E0,0.E0,0.E0));
#825=DIRECTION('',(0.E0,0.E0,1.E0));
#826=AXIS2_PLACEMENT_3D('',#823,#824,#825);
#827=CYLINDRICAL_SURFACE('',#826,1.E-1);
#828=ORIENTED_EDGE('',*,*,#803,.F.);
#829=ORIENTED_EDGE('',*,*,#818,.T.);
#831=ORIENTED_EDGE('',*,*,#830,.T.);
#832=ORIENTED_EDGE('',*,*,#814,.F.);
#833=EDGE_LOOP('',(#828,#829,#831,#832));
#834=FACE_OUTER_BOUND('',#833,.F.);
#835=ADVANCED_FACE('',(#834),#827,.F.);
#836=CARTESIAN_POINT('',(1.5E-1,0.E0,-1.15E-1));
#837=DIRECTION('',(-1.E0,0.E0,0.E0));
#838=DIRECTION('',(0.E0,0.E0,1.E0));
#839=AXIS2_PLACEMENT_3D('',#836,#837,#838);
#840=PLANE('',#839);
#841=ORIENTED_EDGE('',*,*,#816,.F.);
#842=ORIENTED_EDGE('',*,*,#830,.F.);
#843=EDGE_LOOP('',(#841,#842));
#844=FACE_OUTER_BOUND('',#843,.F.);
#845=ADVANCED_FACE('',(#844),#840,.T.);
#846=CARTESIAN_POINT('',(0.E0,3.19E-1,-1.15E-1));
#847=DIRECTION('',(0.E0,-1.E0,0.E0));
#848=DIRECTION('',(1.E0,0.E0,0.E0));
#849=AXIS2_PLACEMENT_3D('',#846,#847,#848);
#850=PLANE('',#849);
#851=ORIENTED_EDGE('',*,*,#775,.F.);
#853=ORIENTED_EDGE('',*,*,#852,.F.);
#855=ORIENTED_EDGE('',*,*,#854,.F.);
#857=ORIENTED_EDGE('',*,*,#856,.F.);
#859=ORIENTED_EDGE('',*,*,#858,.F.);
#861=ORIENTED_EDGE('',*,*,#860,.F.);
#863=ORIENTED_EDGE('',*,*,#862,.F.);
#865=ORIENTED_EDGE('',*,*,#864,.F.);
#867=ORIENTED_EDGE('',*,*,#866,.F.);
#868=ORIENTED_EDGE('',*,*,#786,.F.);
#869=EDGE_LOOP('',(#851,#853,#855,#857,#859,#861,#863,#865,#867,#868));
#870=FACE_OUTER_BOUND('',#869,.F.);
#871=ADVANCED_FACE('',(#870),#850,.F.);
#872=CARTESIAN_POINT('',(1.878874925429E-1,3.140000000002E-1,-6.5E-2));
#873=DIRECTION('',(0.E0,-1.E0,0.E0));
#874=DIRECTION('',(0.E0,0.E0,-1.E0));
#875=AXIS2_PLACEMENT_3D('',#872,#873,#874);
#876=CONICAL_SURFACE('',#875,4.499999999979E-2,4.5E1);
#877=ORIENTED_EDGE('',*,*,#852,.T.);
#878=ORIENTED_EDGE('',*,*,#773,.T.);
#880=ORIENTED_EDGE('',*,*,#879,.F.);
#882=ORIENTED_EDGE('',*,*,#881,.F.);
#883=EDGE_LOOP('',(#877,#878,#880,#882));
#884=FACE_OUTER_BOUND('',#883,.F.);
#885=ADVANCED_FACE('',(#884),#876,.T.);
#886=CARTESIAN_POINT('',(1.878874925429E-1,7.348484E-1,-6.5E-2));
#887=DIRECTION('',(0.E0,-1.E0,0.E0));
#888=DIRECTION('',(0.E0,0.E0,-1.E0));
#889=AXIS2_PLACEMENT_3D('',#886,#887,#888);
#890=CYLINDRICAL_SURFACE('',#889,5.E-2);
#891=ORIENTED_EDGE('',*,*,#760,.T.);
#893=ORIENTED_EDGE('',*,*,#892,.F.);
#895=ORIENTED_EDGE('',*,*,#894,.T.);
#896=ORIENTED_EDGE('',*,*,#879,.T.);
#897=EDGE_LOOP('',(#891,#893,#895,#896));
#898=FACE_OUTER_BOUND('',#897,.F.);
#899=ADVANCED_FACE('',(#898),#890,.T.);
#900=CARTESIAN_POINT('',(3.097142857143E-1,1.1E-1,-1.1E-1));
#901=DIRECTION('',(0.E0,7.071067811865E-1,-7.071067811865E-1));
#902=DIRECTION('',(0.E0,-7.071067811865E-1,-7.071067811865E-1));
#903=AXIS2_PLACEMENT_3D('',#900,#901,#902);
#904=PLANE('',#903);
#905=ORIENTED_EDGE('',*,*,#758,.F.);
#907=ORIENTED_EDGE('',*,*,#906,.F.);
#909=ORIENTED_EDGE('',*,*,#908,.T.);
#911=ORIENTED_EDGE('',*,*,#910,.T.);
#912=ORIENTED_EDGE('',*,*,#892,.T.);
#913=EDGE_LOOP('',(#905,#907,#909,#911,#912));
#914=FACE_OUTER_BOUND('',#913,.F.);
#915=ADVANCED_FACE('',(#914),#904,.T.);
#916=CARTESIAN_POINT('',(4.E-1,1.100000000003E-1,-6.5E-2));
#917=DIRECTION('',(0.E0,-1.E0,0.E0));
#918=DIRECTION('',(0.E0,0.E0,-1.E0));
#919=AXIS2_PLACEMENT_3D('',#916,#917,#918);
#920=CONICAL_SURFACE('',#919,4.499999999973E-2,4.5E1);
#922=ORIENTED_EDGE('',*,*,#921,.T.);
#923=ORIENTED_EDGE('',*,*,#906,.T.);
#925=ORIENTED_EDGE('',*,*,#924,.F.);
#927=ORIENTED_EDGE('',*,*,#926,.F.);
#928=EDGE_LOOP('',(#922,#923,#925,#927));
#929=FACE_OUTER_BOUND('',#928,.F.);
#930=ADVANCED_FACE('',(#929),#920,.T.);
#931=CARTESIAN_POINT('',(0.E0,1.15E-1,-1.15E-1));
#932=DIRECTION('',(0.E0,1.E0,0.E0));
#933=DIRECTION('',(1.E0,0.E0,0.E0));
#934=AXIS2_PLACEMENT_3D('',#931,#932,#933);
#935=PLANE('',#934);
#936=ORIENTED_EDGE('',*,*,#908,.F.);
#937=ORIENTED_EDGE('',*,*,#921,.F.);
#939=ORIENTED_EDGE('',*,*,#938,.F.);
#941=ORIENTED_EDGE('',*,*,#940,.F.);
#943=ORIENTED_EDGE('',*,*,#942,.F.);
#945=ORIENTED_EDGE('',*,*,#944,.F.);
#947=ORIENTED_EDGE('',*,*,#946,.F.);
#949=ORIENTED_EDGE('',*,*,#948,.F.);
#951=ORIENTED_EDGE('',*,*,#950,.F.);
#953=ORIENTED_EDGE('',*,*,#952,.F.);
#954=EDGE_LOOP('',(#936,#937,#939,#941,#943,#945,#947,#949,#951,#953));
#955=FACE_OUTER_BOUND('',#954,.F.);
#956=ADVANCED_FACE('',(#955),#935,.T.);
#957=CARTESIAN_POINT('',(4.45E-1,1.1E-1,0.E0));
#958=DIRECTION('',(7.071067811865E-1,7.071067811865E-1,0.E0));
#959=DIRECTION('',(7.071067811865E-1,-7.071067811865E-1,0.E0));
#960=AXIS2_PLACEMENT_3D('',#957,#958,#959);
#961=PLANE('',#960);
#962=ORIENTED_EDGE('',*,*,#938,.T.);
#963=ORIENTED_EDGE('',*,*,#926,.T.);
#965=ORIENTED_EDGE('',*,*,#964,.F.);
#967=ORIENTED_EDGE('',*,*,#966,.F.);
#968=EDGE_LOOP('',(#962,#963,#965,#967));
#969=FACE_OUTER_BOUND('',#968,.F.);
#970=ADVANCED_FACE('',(#969),#961,.T.);
#971=CARTESIAN_POINT('',(4.5E-1,3.19E-1,-1.15E-1));
#972=DIRECTION('',(-1.E0,0.E0,0.E0));
#973=DIRECTION('',(0.E0,-1.E0,0.E0));
#974=AXIS2_PLACEMENT_3D('',#971,#972,#973);
#975=PLANE('',#974);
#976=ORIENTED_EDGE('',*,*,#964,.T.);
#978=ORIENTED_EDGE('',*,*,#977,.T.);
#980=ORIENTED_EDGE('',*,*,#979,.T.);
#982=ORIENTED_EDGE('',*,*,#981,.T.);
#983=EDGE_LOOP('',(#976,#978,#980,#982));
#984=FACE_OUTER_BOUND('',#983,.F.);
#985=ADVANCED_FACE('',(#984),#975,.F.);
#986=CARTESIAN_POINT('',(4.E-1,7.348484E-1,-6.5E-2));
#987=DIRECTION('',(0.E0,-1.E0,0.E0));
#988=DIRECTION('',(0.E0,0.E0,-1.E0));
#989=AXIS2_PLACEMENT_3D('',#986,#987,#988);
#990=CYLINDRICAL_SURFACE('',#989,5.E-2);
#991=ORIENTED_EDGE('',*,*,#756,.T.);
#993=ORIENTED_EDGE('',*,*,#992,.F.);
#995=ORIENTED_EDGE('',*,*,#994,.T.);
#996=ORIENTED_EDGE('',*,*,#977,.F.);
#997=ORIENTED_EDGE('',*,*,#924,.T.);
#998=EDGE_LOOP('',(#991,#993,#995,#996,#997));
#999=FACE_OUTER_BOUND('',#998,.F.);
#1000=ADVANCED_FACE('',(#999),#990,.T.);
#1001=CARTESIAN_POINT('',(1.2875E0,7.E-2,-1.1E-1));
#1002=DIRECTION('',(0.E0,7.071067811865E-1,-7.071067811865E-1));
#1003=DIRECTION('',(0.E0,-7.071067811865E-1,-7.071067811865E-1));
#1004=AXIS2_PLACEMENT_3D('',#1001,#1002,#1003);
#1005=PLANE('',#1004);
#1006=ORIENTED_EDGE('',*,*,#754,.F.);
#1008=ORIENTED_EDGE('',*,*,#1007,.F.);
#1010=ORIENTED_EDGE('',*,*,#1009,.T.);
#1011=ORIENTED_EDGE('',*,*,#992,.T.);
#1012=EDGE_LOOP('',(#1006,#1008,#1010,#1011));
#1013=FACE_OUTER_BOUND('',#1012,.F.);
#1014=ADVANCED_FACE('',(#1013),#1005,.T.);
#1015=CARTESIAN_POINT('',(2.145E0,1.E-1,-1.099999999965E-1));
#1016=DIRECTION('',(0.E0,0.E0,-1.E0));
#1017=DIRECTION('',(0.E0,-1.E0,0.E0));
#1018=AXIS2_PLACEMENT_3D('',#1015,#1016,#1017);
#1019=CONICAL_SURFACE('',#1018,2.999999999653E-2,4.5E1);
#1021=ORIENTED_EDGE('',*,*,#1020,.T.);
#1022=ORIENTED_EDGE('',*,*,#1007,.T.);
#1023=ORIENTED_EDGE('',*,*,#752,.F.);
#1025=ORIENTED_EDGE('',*,*,#1024,.F.);
#1026=EDGE_LOOP('',(#1021,#1022,#1023,#1025));
#1027=FACE_OUTER_BOUND('',#1026,.F.);
#1028=ADVANCED_FACE('',(#1027),#1019,.F.);
#1029=CARTESIAN_POINT('',(2.145E0,1.E-1,-4.14828E-1));
#1030=DIRECTION('',(0.E0,0.E0,1.E0));
#1031=DIRECTION('',(-1.776356839400E-14,-1.E0,0.E0));
#1032=AXIS2_PLACEMENT_3D('',#1029,#1030,#1031);
#1033=CYLINDRICAL_SURFACE('',#1032,2.5E-2);
#1035=ORIENTED_EDGE('',*,*,#1034,.F.);
#1037=ORIENTED_EDGE('',*,*,#1036,.F.);
#1038=ORIENTED_EDGE('',*,*,#1020,.F.);
#1040=ORIENTED_EDGE('',*,*,#1039,.T.);
#1041=EDGE_LOOP('',(#1035,#1037,#1038,#1040));
#1042=FACE_OUTER_BOUND('',#1041,.F.);
#1043=ADVANCED_FACE('',(#1042),#1033,.F.);
#1044=CARTESIAN_POINT('',(2.145E0,1.E-1,1.099999999965E-1));
#1045=DIRECTION('',(0.E0,0.E0,1.E0));
#1046=DIRECTION('',(0.E0,-1.E0,0.E0));
#1047=AXIS2_PLACEMENT_3D('',#1044,#1045,#1046);
#1048=CONICAL_SURFACE('',#1047,2.999999999653E-2,4.5E1);
#1049=ORIENTED_EDGE('',*,*,#1034,.T.);
#1051=ORIENTED_EDGE('',*,*,#1050,.T.);
#1053=ORIENTED_EDGE('',*,*,#1052,.F.);
#1055=ORIENTED_EDGE('',*,*,#1054,.F.);
#1056=EDGE_LOOP('',(#1049,#1051,#1053,#1055));
#1057=FACE_OUTER_BOUND('',#1056,.F.);
#1058=ADVANCED_FACE('',(#1057),#1048,.F.);
#1059=CARTESIAN_POINT('',(2.195E0,1.E-1,1.100000000006E-1));
#1060=DIRECTION('',(0.E0,0.E0,-1.E0));
#1061=DIRECTION('',(0.E0,-1.E0,0.E0));
#1062=AXIS2_PLACEMENT_3D('',#1059,#1060,#1061);
#1063=CONICAL_SURFACE('',#1062,1.999999999942E-2,4.5E1);
#1065=ORIENTED_EDGE('',*,*,#1064,.T.);
#1067=ORIENTED_EDGE('',*,*,#1066,.T.);
#1069=ORIENTED_EDGE('',*,*,#1068,.F.);
#1070=ORIENTED_EDGE('',*,*,#1050,.F.);
#1071=EDGE_LOOP('',(#1065,#1067,#1069,#1070));
#1072=FACE_OUTER_BOUND('',#1071,.F.);
#1073=ADVANCED_FACE('',(#1072),#1063,.T.);
#1074=CARTESIAN_POINT('',(2.195E0,1.E-1,-4.14828E-1));
#1075=DIRECTION('',(0.E0,0.E0,1.E0));
#1076=DIRECTION('',(0.E0,1.E0,0.E0));
#1077=AXIS2_PLACEMENT_3D('',#1074,#1075,#1076);
#1078=CYLINDRICAL_SURFACE('',#1077,2.5E-2);
#1079=ORIENTED_EDGE('',*,*,#1064,.F.);
#1080=ORIENTED_EDGE('',*,*,#1039,.F.);
#1082=ORIENTED_EDGE('',*,*,#1081,.F.);
#1084=ORIENTED_EDGE('',*,*,#1083,.T.);
#1085=EDGE_LOOP('',(#1079,#1080,#1082,#1084));
#1086=FACE_OUTER_BOUND('',#1085,.F.);
#1087=ADVANCED_FACE('',(#1086),#1078,.T.);
#1088=CARTESIAN_POINT('',(2.195E0,1.E-1,-1.100000000006E-1));
#1089=DIRECTION('',(0.E0,0.E0,1.E0));
#1090=DIRECTION('',(0.E0,-1.E0,0.E0));
#1091=AXIS2_PLACEMENT_3D('',#1088,#1089,#1090);
#1092=CONICAL_SURFACE('',#1091,1.999999999942E-2,4.5E1);
#1093=ORIENTED_EDGE('',*,*,#1081,.T.);
#1094=ORIENTED_EDGE('',*,*,#1024,.T.);
#1095=ORIENTED_EDGE('',*,*,#750,.F.);
#1097=ORIENTED_EDGE('',*,*,#1096,.F.);
#1098=EDGE_LOOP('',(#1093,#1094,#1095,#1097));
#1099=FACE_OUTER_BOUND('',#1098,.F.);
#1100=ADVANCED_FACE('',(#1099),#1092,.T.);
#1101=CARTESIAN_POINT('',(2.345E0,1.2E-1,-1.1E-1));
#1102=DIRECTION('',(0.E0,7.071067811865E-1,-7.071067811865E-1));
#1103=DIRECTION('',(0.E0,-7.071067811865E-1,-7.071067811865E-1));
#1104=AXIS2_PLACEMENT_3D('',#1101,#1102,#1103);
#1105=PLANE('',#1104);
#1107=ORIENTED_EDGE('',*,*,#1106,.T.);
#1108=ORIENTED_EDGE('',*,*,#1096,.T.);
#1109=ORIENTED_EDGE('',*,*,#748,.F.);
#1111=ORIENTED_EDGE('',*,*,#1110,.F.);
#1112=EDGE_LOOP('',(#1107,#1108,#1109,#1111));
#1113=FACE_OUTER_BOUND('',#1112,.F.);
#1114=ADVANCED_FACE('',(#1113),#1105,.T.);
#1115=CARTESIAN_POINT('',(0.E0,1.25E-1,-1.15E-1));
#1116=DIRECTION('',(0.E0,1.E0,0.E0));
#1117=DIRECTION('',(1.E0,0.E0,0.E0));
#1118=AXIS2_PLACEMENT_3D('',#1115,#1116,#1117);
#1119=PLANE('',#1118);
#1121=ORIENTED_EDGE('',*,*,#1120,.F.);
#1122=ORIENTED_EDGE('',*,*,#1083,.F.);
#1123=ORIENTED_EDGE('',*,*,#1106,.F.);
#1125=ORIENTED_EDGE('',*,*,#1124,.F.);
#1127=ORIENTED_EDGE('',*,*,#1126,.F.);
#1129=ORIENTED_EDGE('',*,*,#1128,.F.);
#1130=EDGE_LOOP('',(#1121,#1122,#1123,#1125,#1127,#1129));
#1131=FACE_OUTER_BOUND('',#1130,.F.);
#1132=ADVANCED_FACE('',(#1131),#1119,.T.);
#1133=CARTESIAN_POINT('',(2.345E0,1.2E-1,1.1E-1));
#1134=DIRECTION('',(0.E0,7.071067811865E-1,7.071067811865E-1));
#1135=DIRECTION('',(0.E0,-7.071067811865E-1,7.071067811865E-1));
#1136=AXIS2_PLACEMENT_3D('',#1133,#1134,#1135);
#1137=PLANE('',#1136);
#1139=ORIENTED_EDGE('',*,*,#1138,.F.);
#1140=ORIENTED_EDGE('',*,*,#1066,.F.);
#1141=ORIENTED_EDGE('',*,*,#1120,.T.);
#1143=ORIENTED_EDGE('',*,*,#1142,.T.);
#1144=EDGE_LOOP('',(#1139,#1140,#1141,#1143));
#1145=FACE_OUTER_BOUND('',#1144,.F.);
#1146=ADVANCED_FACE('',(#1145),#1137,.T.);
#1147=CARTESIAN_POINT('',(0.E0,0.E0,1.15E-1));
#1148=DIRECTION('',(0.E0,0.E0,1.E0));
#1149=DIRECTION('',(1.E0,0.E0,0.E0));
#1150=AXIS2_PLACEMENT_3D('',#1147,#1148,#1149);
#1151=PLANE('',#1150);
#1153=ORIENTED_EDGE('',*,*,#1152,.T.);
#1155=ORIENTED_EDGE('',*,*,#1154,.F.);
#1157=ORIENTED_EDGE('',*,*,#1156,.T.);
#1159=ORIENTED_EDGE('',*,*,#1158,.F.);
#1161=ORIENTED_EDGE('',*,*,#1160,.T.);
#1162=ORIENTED_EDGE('',*,*,#1052,.T.);
#1163=ORIENTED_EDGE('',*,*,#1068,.T.);
#1164=ORIENTED_EDGE('',*,*,#1138,.T.);
#1166=ORIENTED_EDGE('',*,*,#1165,.T.);
#1168=ORIENTED_EDGE('',*,*,#1167,.F.);
#1169=ORIENTED_EDGE('',*,*,#790,.F.);
#1170=EDGE_LOOP('',(#1153,#1155,#1157,#1159,#1161,#1162,#1163,#1164,#1166,#1168,
#1169));
#1171=FACE_OUTER_BOUND('',#1170,.F.);
#1172=ADVANCED_FACE('',(#1171),#1151,.T.);
#1173=CARTESIAN_POINT('',(1.350348596595E-1,3.14E-1,1.1E-1));
#1174=DIRECTION('',(0.E0,7.071067811865E-1,7.071067811865E-1));
#1175=DIRECTION('',(0.E0,-7.071067811865E-1,7.071067811865E-1));
#1176=AXIS2_PLACEMENT_3D('',#1173,#1174,#1175);
#1177=PLANE('',#1176);
#1178=ORIENTED_EDGE('',*,*,#788,.T.);
#1179=ORIENTED_EDGE('',*,*,#866,.T.);
#1181=ORIENTED_EDGE('',*,*,#1180,.T.);
#1182=ORIENTED_EDGE('',*,*,#1152,.F.);
#1183=EDGE_LOOP('',(#1178,#1179,#1181,#1182));
#1184=FACE_OUTER_BOUND('',#1183,.F.);
#1185=ADVANCED_FACE('',(#1184),#1177,.T.);
#1186=CARTESIAN_POINT('',(2.700697193190E-1,3.140000000001E-1,6.5E-2));
#1187=DIRECTION('',(0.E0,-1.E0,0.E0));
#1188=DIRECTION('',(0.E0,0.E0,-1.E0));
#1189=AXIS2_PLACEMENT_3D('',#1186,#1187,#1188);
#1190=CONICAL_SURFACE('',#1189,4.499999999991E-2,4.5E1);
#1191=ORIENTED_EDGE('',*,*,#864,.T.);
#1193=ORIENTED_EDGE('',*,*,#1192,.T.);
#1195=ORIENTED_EDGE('',*,*,#1194,.F.);
#1196=ORIENTED_EDGE('',*,*,#1180,.F.);
#1197=EDGE_LOOP('',(#1191,#1193,#1195,#1196));
#1198=FACE_OUTER_BOUND('',#1197,.F.);
#1199=ADVANCED_FACE('',(#1198),#1190,.T.);
#1200=CARTESIAN_POINT('',(3.259590905442E-1,3.14E-1,9.413621537220E-2));
#1201=DIRECTION('',(2.187981795859E-1,7.071067811865E-1,6.724041616542E-1));
#1202=DIRECTION('',(2.187981795859E-1,-7.071067811865E-1,6.724041616542E-1));
#1203=AXIS2_PLACEMENT_3D('',#1200,#1201,#1202);
#1204=PLANE('',#1203);
#1205=ORIENTED_EDGE('',*,*,#862,.T.);
#1207=ORIENTED_EDGE('',*,*,#1206,.T.);
#1209=ORIENTED_EDGE('',*,*,#1208,.F.);
#1210=ORIENTED_EDGE('',*,*,#1192,.F.);
#1211=EDGE_LOOP('',(#1205,#1207,#1209,#1210));
#1212=FACE_OUTER_BOUND('',#1211,.F.);
#1213=ADVANCED_FACE('',(#1212),#1204,.T.);
#1214=CARTESIAN_POINT('',(3.54E-1,3.140000000002E-1,3.768935311172E-2));
#1215=DIRECTION('',(0.E0,-1.E0,0.E0));
#1216=DIRECTION('',(0.E0,0.E0,-1.E0));
#1217=AXIS2_PLACEMENT_3D('',#1214,#1215,#1216);
#1218=CONICAL_SURFACE('',#1217,4.499999999979E-2,4.5E1);
#1219=ORIENTED_EDGE('',*,*,#860,.T.);
#1221=ORIENTED_EDGE('',*,*,#1220,.T.);
#1223=ORIENTED_EDGE('',*,*,#1222,.F.);
#1224=ORIENTED_EDGE('',*,*,#1206,.F.);
#1225=EDGE_LOOP('',(#1219,#1221,#1223,#1224));
#1226=FACE_OUTER_BOUND('',#1225,.F.);
#1227=ADVANCED_FACE('',(#1226),#1218,.T.);
#1228=CARTESIAN_POINT('',(3.99E-1,3.14E-1,2.909421891615E-2));
#1229=DIRECTION('',(7.071067811865E-1,7.071067811865E-1,0.E0));
#1230=DIRECTION('',(7.071067811865E-1,-7.071067811865E-1,0.E0));
#1231=AXIS2_PLACEMENT_3D('',#1228,#1229,#1230);
#1232=PLANE('',#1231);
#1233=ORIENTED_EDGE('',*,*,#858,.T.);
#1235=ORIENTED_EDGE('',*,*,#1234,.T.);
#1237=ORIENTED_EDGE('',*,*,#1236,.F.);
#1238=ORIENTED_EDGE('',*,*,#1220,.F.);
#1239=EDGE_LOOP('',(#1233,#1235,#1237,#1238));
#1240=FACE_OUTER_BOUND('',#1239,.F.);
#1241=ADVANCED_FACE('',(#1240),#1232,.T.);
#1242=CARTESIAN_POINT('',(3.54E-1,3.140000000002E-1,2.049908472058E-2));
#1243=DIRECTION('',(0.E0,-1.E0,0.E0));
#1244=DIRECTION('',(0.E0,0.E0,-1.E0));
#1245=AXIS2_PLACEMENT_3D('',#1242,#1243,#1244);
#1246=CONICAL_SURFACE('',#1245,4.499999999981E-2,4.5E1);
#1247=ORIENTED_EDGE('',*,*,#856,.T.);
#1249=ORIENTED_EDGE('',*,*,#1248,.T.);
#1251=ORIENTED_EDGE('',*,*,#1250,.F.);
#1252=ORIENTED_EDGE('',*,*,#1234,.F.);
#1253=EDGE_LOOP('',(#1247,#1249,#1251,#1252));
#1254=FACE_OUTER_BOUND('',#1253,.F.);
#1255=ADVANCED_FACE('',(#1254),#1246,.T.);
#1256=CARTESIAN_POINT('',(2.915377007032E-1,3.14E-1,-6.226156910717E-2));
#1257=DIRECTION('',(3.236027740036E-1,7.071067811865E-1,-6.287139609212E-1));
#1258=DIRECTION('',(3.236027740036E-1,-7.071067811865E-1,-6.287139609212E-1));
#1259=AXIS2_PLACEMENT_3D('',#1256,#1257,#1258);
#1260=PLANE('',#1259);
#1261=ORIENTED_EDGE('',*,*,#854,.T.);
#1262=ORIENTED_EDGE('',*,*,#881,.T.);
#1264=ORIENTED_EDGE('',*,*,#1263,.F.);
#1265=ORIENTED_EDGE('',*,*,#1248,.F.);
#1266=EDGE_LOOP('',(#1261,#1262,#1264,#1265));
#1267=FACE_OUTER_BOUND('',#1266,.F.);
#1268=ADVANCED_FACE('',(#1267),#1260,.T.);
#1269=CARTESIAN_POINT('',(2.E-1,3.19E-1,-1.15E-1));
#1270=DIRECTION('',(-4.576434318174E-1,0.E0,8.891358103880E-1));
#1271=DIRECTION('',(8.891358103880E-1,0.E0,4.576434318174E-1));
#1272=AXIS2_PLACEMENT_3D('',#1269,#1270,#1271);
#1273=PLANE('',#1272);
#1274=ORIENTED_EDGE('',*,*,#894,.F.);
#1275=ORIENTED_EDGE('',*,*,#910,.F.);
#1276=ORIENTED_EDGE('',*,*,#952,.T.);
#1278=ORIENTED_EDGE('',*,*,#1277,.T.);
#1279=ORIENTED_EDGE('',*,*,#1263,.T.);
#1280=EDGE_LOOP('',(#1274,#1275,#1276,#1278,#1279));
#1281=FACE_OUTER_BOUND('',#1280,.F.);
#1282=ADVANCED_FACE('',(#1281),#1273,.F.);
#1283=CARTESIAN_POINT('',(3.54E-1,-4.158484E-1,2.049908472058E-2));
#1284=DIRECTION('',(0.E0,1.E0,0.E0));
#1285=DIRECTION('',(1.E0,0.E0,0.E0));
#1286=AXIS2_PLACEMENT_3D('',#1283,#1284,#1285);
#1287=CYLINDRICAL_SURFACE('',#1286,5.E-2);
#1288=ORIENTED_EDGE('',*,*,#1250,.T.);
#1289=ORIENTED_EDGE('',*,*,#1277,.F.);
#1290=ORIENTED_EDGE('',*,*,#950,.T.);
#1292=ORIENTED_EDGE('',*,*,#1291,.T.);
#1293=EDGE_LOOP('',(#1288,#1289,#1290,#1292));
#1294=FACE_OUTER_BOUND('',#1293,.F.);
#1295=ADVANCED_FACE('',(#1294),#1287,.T.);
#1296=CARTESIAN_POINT('',(4.04E-1,3.19E-1,-1.E-2));
#1297=DIRECTION('',(-1.E0,0.E0,0.E0));
#1298=DIRECTION('',(0.E0,0.E0,1.E0));
#1299=AXIS2_PLACEMENT_3D('',#1296,#1297,#1298);
#1300=PLANE('',#1299);
#1301=ORIENTED_EDGE('',*,*,#1236,.T.);
#1302=ORIENTED_EDGE('',*,*,#1291,.F.);
#1303=ORIENTED_EDGE('',*,*,#948,.T.);
#1305=ORIENTED_EDGE('',*,*,#1304,.T.);
#1306=EDGE_LOOP('',(#1301,#1302,#1303,#1305));
#1307=FACE_OUTER_BOUND('',#1306,.F.);
#1308=ADVANCED_FACE('',(#1307),#1300,.F.);
#1309=CARTESIAN_POINT('',(3.54E-1,-4.158484E-1,3.768935311172E-2));
#1310=DIRECTION('',(0.E0,1.E0,0.E0));
#1311=DIRECTION('',(3.094273529929E-1,0.E0,9.509230848075E-1));
#1312=AXIS2_PLACEMENT_3D('',#1309,#1310,#1311);
#1313=CYLINDRICAL_SURFACE('',#1312,5.E-2);
#1314=ORIENTED_EDGE('',*,*,#1222,.T.);
#1315=ORIENTED_EDGE('',*,*,#1304,.F.);
#1316=ORIENTED_EDGE('',*,*,#946,.T.);
#1318=ORIENTED_EDGE('',*,*,#1317,.T.);
#1319=EDGE_LOOP('',(#1314,#1315,#1316,#1318));
#1320=FACE_OUTER_BOUND('',#1319,.F.);
#1321=ADVANCED_FACE('',(#1320),#1313,.T.);
#1322=CARTESIAN_POINT('',(4.04E-1,3.19E-1,7.4E-2));
#1323=DIRECTION('',(-3.094273529929E-1,0.E0,-9.509230848075E-1));
#1324=DIRECTION('',(-9.509230848075E-1,0.E0,3.094273529929E-1));
#1325=AXIS2_PLACEMENT_3D('',#1322,#1323,#1324);
#1326=PLANE('',#1325);
#1327=ORIENTED_EDGE('',*,*,#944,.T.);
#1329=ORIENTED_EDGE('',*,*,#1328,.F.);
#1331=ORIENTED_EDGE('',*,*,#1330,.T.);
#1332=ORIENTED_EDGE('',*,*,#1208,.T.);
#1333=ORIENTED_EDGE('',*,*,#1317,.F.);
#1334=EDGE_LOOP('',(#1327,#1329,#1331,#1332,#1333));
#1335=FACE_OUTER_BOUND('',#1334,.F.);
#1336=ADVANCED_FACE('',(#1335),#1326,.F.);
#1337=CARTESIAN_POINT('',(3.543658536585E-1,1.1E-1,1.1E-1));
#1338=DIRECTION('',(0.E0,7.071067811865E-1,7.071067811865E-1));
#1339=DIRECTION('',(0.E0,-7.071067811865E-1,7.071067811865E-1));
#1340=AXIS2_PLACEMENT_3D('',#1337,#1338,#1339);
#1341=PLANE('',#1340);
#1342=ORIENTED_EDGE('',*,*,#942,.T.);
#1344=ORIENTED_EDGE('',*,*,#1343,.T.);
#1345=ORIENTED_EDGE('',*,*,#1156,.F.);
#1347=ORIENTED_EDGE('',*,*,#1346,.T.);
#1348=ORIENTED_EDGE('',*,*,#1328,.T.);
#1349=EDGE_LOOP('',(#1342,#1344,#1345,#1347,#1348));
#1350=FACE_OUTER_BOUND('',#1349,.F.);
#1351=ADVANCED_FACE('',(#1350),#1341,.T.);
#1352=CARTESIAN_POINT('',(4.E-1,1.100000000003E-1,6.5E-2));
#1353=DIRECTION('',(0.E0,-1.E0,0.E0));
#1354=DIRECTION('',(0.E0,0.E0,-1.E0));
#1355=AXIS2_PLACEMENT_3D('',#1352,#1353,#1354);
#1356=CONICAL_SURFACE('',#1355,4.499999999973E-2,4.5E1);
#1357=ORIENTED_EDGE('',*,*,#940,.T.);
#1358=ORIENTED_EDGE('',*,*,#966,.T.);
#1360=ORIENTED_EDGE('',*,*,#1359,.F.);
#1361=ORIENTED_EDGE('',*,*,#1343,.F.);
#1362=EDGE_LOOP('',(#1357,#1358,#1360,#1361));
#1363=FACE_OUTER_BOUND('',#1362,.F.);
#1364=ADVANCED_FACE('',(#1363),#1356,.T.);
#1365=CARTESIAN_POINT('',(4.E-1,-4.158484E-1,6.5E-2));
#1366=DIRECTION('',(0.E0,1.E0,0.E0));
#1367=DIRECTION('',(0.E0,0.E0,1.E0));
#1368=AXIS2_PLACEMENT_3D('',#1365,#1366,#1367);
#1369=CYLINDRICAL_SURFACE('',#1368,5.E-2);
#1371=ORIENTED_EDGE('',*,*,#1370,.T.);
#1373=ORIENTED_EDGE('',*,*,#1372,.F.);
#1374=ORIENTED_EDGE('',*,*,#1158,.T.);
#1375=ORIENTED_EDGE('',*,*,#1359,.T.);
#1376=ORIENTED_EDGE('',*,*,#981,.F.);
#1377=EDGE_LOOP('',(#1371,#1373,#1374,#1375,#1376));
#1378=FACE_OUTER_BOUND('',#1377,.F.);
#1379=ADVANCED_FACE('',(#1378),#1369,.T.);
#1380=CARTESIAN_POINT('',(4.5E-1,7.5E-2,-1.15E-1));
#1381=DIRECTION('',(0.E0,-1.E0,0.E0));
#1382=DIRECTION('',(1.E0,0.E0,0.E0));
#1383=AXIS2_PLACEMENT_3D('',#1380,#1381,#1382);
#1384=PLANE('',#1383);
#1386=ORIENTED_EDGE('',*,*,#1385,.F.);
#1387=ORIENTED_EDGE('',*,*,#1370,.F.);
#1388=ORIENTED_EDGE('',*,*,#979,.F.);
#1389=ORIENTED_EDGE('',*,*,#994,.F.);
#1390=ORIENTED_EDGE('',*,*,#1009,.F.);
#1391=ORIENTED_EDGE('',*,*,#1036,.T.);
#1392=EDGE_LOOP('',(#1386,#1387,#1388,#1389,#1390,#1391));
#1393=FACE_OUTER_BOUND('',#1392,.F.);
#1394=ADVANCED_FACE('',(#1393),#1384,.F.);
#1395=CARTESIAN_POINT('',(1.2875E0,7.E-2,1.1E-1));
#1396=DIRECTION('',(0.E0,7.071067811865E-1,7.071067811865E-1));
#1397=DIRECTION('',(0.E0,-7.071067811865E-1,7.071067811865E-1));
#1398=AXIS2_PLACEMENT_3D('',#1395,#1396,#1397);
#1399=PLANE('',#1398);
#1400=ORIENTED_EDGE('',*,*,#1385,.T.);
#1401=ORIENTED_EDGE('',*,*,#1054,.T.);
#1402=ORIENTED_EDGE('',*,*,#1160,.F.);
#1403=ORIENTED_EDGE('',*,*,#1372,.T.);
#1404=EDGE_LOOP('',(#1400,#1401,#1402,#1403));
#1405=FACE_OUTER_BOUND('',#1404,.F.);
#1406=ADVANCED_FACE('',(#1405),#1399,.T.);
#1407=CARTESIAN_POINT('',(2.700697193190E-1,-4.158484E-1,6.5E-2));
#1408=DIRECTION('',(0.E0,1.E0,0.E0));
#1409=DIRECTION('',(0.E0,0.E0,1.E0));
#1410=AXIS2_PLACEMENT_3D('',#1407,#1408,#1409);
#1411=CYLINDRICAL_SURFACE('',#1410,5.E-2);
#1412=ORIENTED_EDGE('',*,*,#1330,.F.);
#1413=ORIENTED_EDGE('',*,*,#1346,.F.);
#1414=ORIENTED_EDGE('',*,*,#1154,.T.);
#1415=ORIENTED_EDGE('',*,*,#1194,.T.);
#1416=EDGE_LOOP('',(#1412,#1413,#1414,#1415));
#1417=FACE_OUTER_BOUND('',#1416,.F.);
#1418=ADVANCED_FACE('',(#1417),#1411,.T.);
#1419=CARTESIAN_POINT('',(2.495E0,7.348484E-1,9.E-2));
#1420=DIRECTION('',(0.E0,-1.E0,0.E0));
#1421=DIRECTION('',(1.E0,0.E0,0.E0));
#1422=AXIS2_PLACEMENT_3D('',#1419,#1420,#1421);
#1423=CYLINDRICAL_SURFACE('',#1422,2.5E-2);
#1425=ORIENTED_EDGE('',*,*,#1424,.T.);
#1427=ORIENTED_EDGE('',*,*,#1426,.T.);
#1429=ORIENTED_EDGE('',*,*,#1428,.F.);
#1430=ORIENTED_EDGE('',*,*,#1165,.F.);
#1431=EDGE_LOOP('',(#1425,#1427,#1429,#1430));
#1432=FACE_OUTER_BOUND('',#1431,.F.);
#1433=ADVANCED_FACE('',(#1432),#1423,.T.);
#1434=CARTESIAN_POINT('',(2.495E0,1.200000000007E-1,9.E-2));
#1435=DIRECTION('',(0.E0,-1.E0,0.E0));
#1436=DIRECTION('',(0.E0,0.E0,-1.E0));
#1437=AXIS2_PLACEMENT_3D('',#1434,#1435,#1436);
#1438=CONICAL_SURFACE('',#1437,1.999999999927E-2,4.5E1);
#1439=ORIENTED_EDGE('',*,*,#1128,.T.);
#1441=ORIENTED_EDGE('',*,*,#1440,.T.);
#1442=ORIENTED_EDGE('',*,*,#1424,.F.);
#1443=ORIENTED_EDGE('',*,*,#1142,.F.);
#1444=EDGE_LOOP('',(#1439,#1441,#1442,#1443));
#1445=FACE_OUTER_BOUND('',#1444,.F.);
#1446=ADVANCED_FACE('',(#1445),#1438,.T.);
#1447=CARTESIAN_POINT('',(2.515E0,1.2E-1,0.E0));
#1448=DIRECTION('',(7.071067811866E-1,7.071067811865E-1,0.E0));
#1449=DIRECTION('',(7.071067811865E-1,-7.071067811866E-1,0.E0));
#1450=AXIS2_PLACEMENT_3D('',#1447,#1448,#1449);
#1451=PLANE('',#1450);
#1452=ORIENTED_EDGE('',*,*,#1126,.T.);
#1454=ORIENTED_EDGE('',*,*,#1453,.T.);
#1456=ORIENTED_EDGE('',*,*,#1455,.F.);
#1457=ORIENTED_EDGE('',*,*,#1440,.F.);
#1458=EDGE_LOOP('',(#1452,#1454,#1456,#1457));
#1459=FACE_OUTER_BOUND('',#1458,.F.);
#1460=ADVANCED_FACE('',(#1459),#1451,.T.);
#1461=CARTESIAN_POINT('',(2.495E0,1.200000000007E-1,-9.E-2));
#1462=DIRECTION('',(0.E0,-1.E0,0.E0));
#1463=DIRECTION('',(0.E0,0.E0,-1.E0));
#1464=AXIS2_PLACEMENT_3D('',#1461,#1462,#1463);
#1465=CONICAL_SURFACE('',#1464,1.999999999927E-2,4.5E1);
#1466=ORIENTED_EDGE('',*,*,#1124,.T.);
#1467=ORIENTED_EDGE('',*,*,#1110,.T.);
#1469=ORIENTED_EDGE('',*,*,#1468,.F.);
#1470=ORIENTED_EDGE('',*,*,#1453,.F.);
#1471=EDGE_LOOP('',(#1466,#1467,#1469,#1470));
#1472=FACE_OUTER_BOUND('',#1471,.F.);
#1473=ADVANCED_FACE('',(#1472),#1465,.T.);
#1474=CARTESIAN_POINT('',(2.495E0,-4.158484E-1,-9.E-2));
#1475=DIRECTION('',(0.E0,1.E0,0.E0));
#1476=DIRECTION('',(1.E0,0.E0,0.E0));
#1477=AXIS2_PLACEMENT_3D('',#1474,#1475,#1476);
#1478=CYLINDRICAL_SURFACE('',#1477,2.5E-2);
#1479=ORIENTED_EDGE('',*,*,#1468,.T.);
#1480=ORIENTED_EDGE('',*,*,#746,.F.);
#1482=ORIENTED_EDGE('',*,*,#1481,.F.);
#1484=ORIENTED_EDGE('',*,*,#1483,.T.);
#1485=EDGE_LOOP('',(#1479,#1480,#1482,#1484));
#1486=FACE_OUTER_BOUND('',#1485,.F.);
#1487=ADVANCED_FACE('',(#1486),#1478,.T.);
#1488=CARTESIAN_POINT('',(2.495E0,4.999999999418E-3,-9.E-2));
#1489=DIRECTION('',(0.E0,1.E0,0.E0));
#1490=DIRECTION('',(0.E0,0.E0,-1.E0));
#1491=AXIS2_PLACEMENT_3D('',#1488,#1489,#1490);
#1492=CONICAL_SURFACE('',#1491,1.999999999942E-2,4.5E1);
#1493=ORIENTED_EDGE('',*,*,#1481,.T.);
#1495=ORIENTED_EDGE('',*,*,#1494,.T.);
#1497=ORIENTED_EDGE('',*,*,#1496,.F.);
#1499=ORIENTED_EDGE('',*,*,#1498,.F.);
#1500=EDGE_LOOP('',(#1493,#1495,#1497,#1499));
#1501=FACE_OUTER_BOUND('',#1500,.F.);
#1502=ADVANCED_FACE('',(#1501),#1492,.T.);
#1503=CARTESIAN_POINT('',(1.2475E0,5.E-3,-1.1E-1));
#1504=DIRECTION('',(0.E0,-7.071067811865E-1,-7.071067811865E-1));
#1505=DIRECTION('',(0.E0,-7.071067811865E-1,7.071067811865E-1));
#1506=AXIS2_PLACEMENT_3D('',#1503,#1504,#1505);
#1507=PLANE('',#1506);
#1508=ORIENTED_EDGE('',*,*,#796,.T.);
#1510=ORIENTED_EDGE('',*,*,#1509,.F.);
#1511=ORIENTED_EDGE('',*,*,#1494,.F.);
#1512=ORIENTED_EDGE('',*,*,#744,.T.);
#1513=EDGE_LOOP('',(#1508,#1510,#1511,#1512));
#1514=FACE_OUTER_BOUND('',#1513,.F.);
#1515=ADVANCED_FACE('',(#1514),#1507,.T.);
#1516=CARTESIAN_POINT('',(0.E0,0.E0,-1.15E-1));
#1517=DIRECTION('',(0.E0,-1.E0,0.E0));
#1518=DIRECTION('',(1.E0,0.E0,0.E0));
#1519=AXIS2_PLACEMENT_3D('',#1516,#1517,#1518);
#1520=PLANE('',#1519);
#1522=ORIENTED_EDGE('',*,*,#1521,.T.);
#1524=ORIENTED_EDGE('',*,*,#1523,.T.);
#1526=ORIENTED_EDGE('',*,*,#1525,.T.);
#1527=ORIENTED_EDGE('',*,*,#1496,.T.);
#1528=ORIENTED_EDGE('',*,*,#1509,.T.);
#1529=ORIENTED_EDGE('',*,*,#794,.T.);
#1530=EDGE_LOOP('',(#1522,#1524,#1526,#1527,#1528,#1529));
#1531=FACE_OUTER_BOUND('',#1530,.F.);
#1532=ADVANCED_FACE('',(#1531),#1520,.T.);
#1533=CARTESIAN_POINT('',(1.2475E0,5.E-3,1.1E-1));
#1534=DIRECTION('',(0.E0,-7.071067811865E-1,7.071067811865E-1));
#1535=DIRECTION('',(0.E0,-7.071067811865E-1,-7.071067811865E-1));
#1536=AXIS2_PLACEMENT_3D('',#1533,#1534,#1535);
#1537=PLANE('',#1536);
#1538=ORIENTED_EDGE('',*,*,#1521,.F.);
#1539=ORIENTED_EDGE('',*,*,#792,.T.);
#1540=ORIENTED_EDGE('',*,*,#1167,.T.);
#1542=ORIENTED_EDGE('',*,*,#1541,.T.);
#1543=EDGE_LOOP('',(#1538,#1539,#1540,#1542));
#1544=FACE_OUTER_BOUND('',#1543,.F.);
#1545=ADVANCED_FACE('',(#1544),#1537,.T.);
#1546=CARTESIAN_POINT('',(2.495E0,4.999999999418E-3,9.E-2));
#1547=DIRECTION('',(0.E0,1.E0,0.E0));
#1548=DIRECTION('',(0.E0,0.E0,-1.E0));
#1549=AXIS2_PLACEMENT_3D('',#1546,#1547,#1548);
#1550=CONICAL_SURFACE('',#1549,1.999999999942E-2,4.5E1);
#1551=ORIENTED_EDGE('',*,*,#1428,.T.);
#1553=ORIENTED_EDGE('',*,*,#1552,.T.);
#1554=ORIENTED_EDGE('',*,*,#1523,.F.);
#1555=ORIENTED_EDGE('',*,*,#1541,.F.);
#1556=EDGE_LOOP('',(#1551,#1553,#1554,#1555));
#1557=FACE_OUTER_BOUND('',#1556,.F.);
#1558=ADVANCED_FACE('',(#1557),#1550,.T.);
#1559=CARTESIAN_POINT('',(2.515E0,5.E-3,0.E0));
#1560=DIRECTION('',(7.071067811866E-1,-7.071067811865E-1,0.E0));
#1561=DIRECTION('',(-7.071067811865E-1,-7.071067811866E-1,0.E0));
#1562=AXIS2_PLACEMENT_3D('',#1559,#1560,#1561);
#1563=PLANE('',#1562);
#1565=ORIENTED_EDGE('',*,*,#1564,.T.);
#1566=ORIENTED_EDGE('',*,*,#1498,.T.);
#1567=ORIENTED_EDGE('',*,*,#1525,.F.);
#1568=ORIENTED_EDGE('',*,*,#1552,.F.);
#1569=EDGE_LOOP('',(#1565,#1566,#1567,#1568));
#1570=FACE_OUTER_BOUND('',#1569,.F.);
#1571=ADVANCED_FACE('',(#1570),#1563,.T.);
#1572=CARTESIAN_POINT('',(2.52E0,0.E0,-1.15E-1));
#1573=DIRECTION('',(1.E0,0.E0,0.E0));
#1574=DIRECTION('',(0.E0,1.E0,0.E0));
#1575=AXIS2_PLACEMENT_3D('',#1572,#1573,#1574);
#1576=PLANE('',#1575);
#1577=ORIENTED_EDGE('',*,*,#1455,.T.);
#1578=ORIENTED_EDGE('',*,*,#1483,.F.);
#1579=ORIENTED_EDGE('',*,*,#1564,.F.);
#1580=ORIENTED_EDGE('',*,*,#1426,.F.);
#1581=EDGE_LOOP('',(#1577,#1578,#1579,#1580));
#1582=FACE_OUTER_BOUND('',#1581,.F.);
#1583=ADVANCED_FACE('',(#1582),#1576,.T.);
#1586=DIMENSIONAL_EXPONENTS(1.E0,0.E0,0.E0,0.E0,0.E0,0.E0,0.E0);
#1588=LENGTH_MEASURE_WITH_UNIT(LENGTH_MEASURE(2.54E1),#1587);
#1589=(CONVERSION_BASED_UNIT('INCH',#1588)LENGTH_UNIT()NAMED_UNIT(#1586));
#1590=DIMENSIONAL_EXPONENTS(0.E0,0.E0,0.E0,0.E0,0.E0,0.E0,0.E0);
#1592=PLANE_ANGLE_MEASURE_WITH_UNIT(PLANE_ANGLE_MEASURE(1.745329251994E-2),
#1591);
#1593=(CONVERSION_BASED_UNIT('DEGREE',#1592)NAMED_UNIT(*)PLANE_ANGLE_UNIT());
#1595=UNCERTAINTY_MEASURE_WITH_UNIT(LENGTH_MEASURE(6.395018323112E-5),#1589,
'closure',
'Maximum model space distance between geometric entities at asserted connectivities');
#1596=(GEOMETRIC_REPRESENTATION_CONTEXT(3)GLOBAL_UNCERTAINTY_ASSIGNED_CONTEXT((
#1595))GLOBAL_UNIT_ASSIGNED_CONTEXT((#1589,#1593,#1594))REPRESENTATION_CONTEXT(
'ID1','3'));
#1598=APPLICATION_CONTEXT(
'CONFIGURATION CONTROLLED 3D DESIGNS OF MECHANICAL PARTS AND ASSEMBLIES');
#1599=APPLICATION_PROTOCOL_DEFINITION('international standard',
'config_control_design',1994,#1598);
#1600=DESIGN_CONTEXT('',#1598,'design');
#1601=MECHANICAL_CONTEXT('',#1598,'mechanical');
#1602=PRODUCT('19200_13122515','19200_13122515','NOT SPECIFIED',(#1601));
#1603=PRODUCT_DEFINITION_FORMATION_WITH_SPECIFIED_SOURCE('1','LAST_VERSION',
#1602,.MADE.);
#1607=PRODUCT_CATEGORY('part','');
#1608=PRODUCT_RELATED_PRODUCT_CATEGORY('detail','',(#1602));
#1609=PRODUCT_CATEGORY_RELATIONSHIP('','',#1607,#1608);
#1610=SECURITY_CLASSIFICATION_LEVEL('unclassified');
#1611=SECURITY_CLASSIFICATION('','',#1610);
#1612=CC_DESIGN_SECURITY_CLASSIFICATION(#1611,(#1603));
#1613=APPROVAL_STATUS('approved');
#1614=APPROVAL(#1613,'');
#1615=CC_DESIGN_APPROVAL(#1614,(#1611,#1603,#1604));
#1616=CALENDAR_DATE(126,3,8);
#1617=COORDINATED_UNIVERSAL_TIME_OFFSET(4,0,.BEHIND.);
#1618=LOCAL_TIME(14,35,4.9E1,#1617);
#1619=DATE_AND_TIME(#1616,#1618);
#1620=APPROVAL_DATE_TIME(#1619,#1614);
#1621=DATE_TIME_ROLE('creation_date');
#1622=CC_DESIGN_DATE_AND_TIME_ASSIGNMENT(#1619,#1621,(#1604));
#1623=DATE_TIME_ROLE('classification_date');
#1624=CC_DESIGN_DATE_AND_TIME_ASSIGNMENT(#1619,#1623,(#1611));
#1625=PERSON('UNSPECIFIED','UNSPECIFIED',$,$,$,$);
#1626=ORGANIZATION('UNSPECIFIED','UNSPECIFIED','UNSPECIFIED');
#1627=PERSON_AND_ORGANIZATION(#1625,#1626);
#1628=APPROVAL_ROLE('approver');
#1629=APPROVAL_PERSON_ORGANIZATION(#1627,#1614,#1628);
#1630=PERSON_AND_ORGANIZATION_ROLE('creator');
#1631=CC_DESIGN_PERSON_AND_ORGANIZATION_ASSIGNMENT(#1627,#1630,(#1603,#1604));
#1632=PERSON_AND_ORGANIZATION_ROLE('design_supplier');
#1633=CC_DESIGN_PERSON_AND_ORGANIZATION_ASSIGNMENT(#1627,#1632,(#1603));
#1634=PERSON_AND_ORGANIZATION_ROLE('classification_officer');
#1635=CC_DESIGN_PERSON_AND_ORGANIZATION_ASSIGNMENT(#1627,#1634,(#1611));
#1636=PERSON_AND_ORGANIZATION_ROLE('design_owner');
#1637=CC_DESIGN_PERSON_AND_ORGANIZATION_ASSIGNMENT(#1627,#1636,(#1602));
#25=CIRCLE('',#24,1.5E-2);
#30=CIRCLE('',#29,3.5E-2);
#47=CIRCLE('',#46,1.E-1);
#52=CIRCLE('',#51,1.E-1);
#85=CIRCLE('',#84,1.E-1);
#90=CIRCLE('',#89,1.E-1);
#99=CIRCLE('',#98,4.E-2);
#108=CIRCLE('',#107,4.E-2);
#117=CIRCLE('',#116,4.E-2);
#126=CIRCLE('',#125,4.E-2);
#147=CIRCLE('',#146,5.E-2);
#161=B_SPLINE_CURVE_WITH_KNOTS('',3,(#156,#157,#158,#159,#160),.UNSPECIFIED.,
.F.,.F.,(4,1,4),(0.E0,5.E-1,1.E0),.UNSPECIFIED.);
#174=CIRCLE('',#173,4.E-2);
#183=CIRCLE('',#182,4.E-2);
#220=CIRCLE('',#219,5.E-2);
#225=CIRCLE('',#224,5.E-2);
#235=B_SPLINE_CURVE_WITH_KNOTS('',3,(#230,#231,#232,#233,#234),.UNSPECIFIED.,
.F.,.F.,(4,1,4),(0.E0,5.E-1,1.E0),.UNSPECIFIED.);
#244=CIRCLE('',#243,2.5E-2);
#249=CIRCLE('',#248,2.5E-2);
#266=CIRCLE('',#265,2.5E-2);
#271=CIRCLE('',#270,2.5E-2);
#296=CIRCLE('',#295,1.5E-2);
#305=CIRCLE('',#304,1.5E-2);
#326=CIRCLE('',#325,3.5E-2);
#331=CIRCLE('',#330,1.5E-2);
#384=CIRCLE('',#383,5.E-2);
#389=CIRCLE('',#388,5.E-2);
#410=CIRCLE('',#409,5.E-2);
#415=CIRCLE('',#414,5.E-2);
#432=B_SPLINE_CURVE_WITH_KNOTS('',3,(#428,#429,#430,#431),.UNSPECIFIED.,.F.,.F.,
(4,4),(0.E0,1.E0),.UNSPECIFIED.);
#445=CIRCLE('',#444,5.E-2);
#454=CIRCLE('',#453,5.E-2);
#476=B_SPLINE_CURVE_WITH_KNOTS('',3,(#471,#472,#473,#474,#475),.UNSPECIFIED.,
.F.,.F.,(4,1,4),(0.E0,5.E-1,1.E0),.UNSPECIFIED.);
#485=CIRCLE('',#484,5.E-2);
#490=CIRCLE('',#489,2.5E-2);
#495=CIRCLE('',#494,2.5E-2);
#512=CIRCLE('',#511,2.5E-2);
#517=CIRCLE('',#516,2.5E-2);
#534=CIRCLE('',#533,1.5E-2);
#543=CIRCLE('',#542,1.5E-2);
#740=EDGE_CURVE('',#601,#599,#4,.T.);
#742=EDGE_CURVE('',#599,#710,#8,.T.);
#744=EDGE_CURVE('',#715,#710,#12,.T.);
#746=EDGE_CURVE('',#715,#699,#16,.T.);
#748=EDGE_CURVE('',#699,#695,#20,.T.);
#750=EDGE_CURVE('',#695,#691,#25,.T.);
#752=EDGE_CURVE('',#691,#682,#30,.T.);
#754=EDGE_CURVE('',#682,#683,#34,.T.);
#756=EDGE_CURVE('',#638,#683,#215,.T.);
#758=EDGE_CURVE('',#638,#639,#38,.T.);
#760=EDGE_CURVE('',#601,#639,#138,.T.);
#770=EDGE_CURVE('',#598,#599,#56,.T.);
#773=EDGE_CURVE('',#603,#601,#42,.T.);
#775=EDGE_CURVE('',#603,#598,#94,.T.);
#786=EDGE_CURVE('',#598,#635,#60,.T.);
#788=EDGE_CURVE('',#634,#635,#64,.T.);
#790=EDGE_CURVE('',#634,#705,#347,.T.);
#792=EDGE_CURVE('',#702,#705,#68,.T.);
#794=EDGE_CURVE('',#711,#702,#551,.T.);
#796=EDGE_CURVE('',#710,#711,#72,.T.);
#801=EDGE_CURVE('',#586,#587,#47,.T.);
#803=EDGE_CURVE('',#587,#586,#52,.T.);
#814=EDGE_CURVE('',#586,#582,#76,.T.);
#816=EDGE_CURVE('',#582,#583,#85,.T.);
#818=EDGE_CURVE('',#587,#583,#80,.T.);
#830=EDGE_CURVE('',#583,#582,#90,.T.);
#852=EDGE_CURVE('',#605,#603,#99,.T.);
#854=EDGE_CURVE('',#609,#605,#103,.T.);
#856=EDGE_CURVE('',#613,#609,#108,.T.);
#858=EDGE_CURVE('',#617,#613,#112,.T.);
#860=EDGE_CURVE('',#621,#617,#117,.T.);
#862=EDGE_CURVE('',#625,#621,#121,.T.);
#864=EDGE_CURVE('',#629,#625,#126,.T.);
#866=EDGE_CURVE('',#635,#629,#130,.T.);
#879=EDGE_CURVE('',#607,#601,#147,.T.);
#881=EDGE_CURVE('',#605,#607,#134,.T.);
#892=EDGE_CURVE('',#718,#639,#161,.T.);
#894=EDGE_CURVE('',#718,#607,#142,.T.);
#906=EDGE_CURVE('',#642,#638,#151,.T.);
#908=EDGE_CURVE('',#642,#643,#169,.T.);
#910=EDGE_CURVE('',#643,#718,#155,.T.);
#921=EDGE_CURVE('',#645,#642,#174,.T.);
#924=EDGE_CURVE('',#647,#638,#225,.T.);
#926=EDGE_CURVE('',#645,#647,#165,.T.);
#938=EDGE_CURVE('',#649,#645,#178,.T.);
#940=EDGE_CURVE('',#653,#649,#183,.T.);
#942=EDGE_CURVE('',#657,#653,#187,.T.);
#944=EDGE_CURVE('',#593,#657,#191,.T.);
#946=EDGE_CURVE('',#591,#593,#415,.T.);
#948=EDGE_CURVE('',#590,#591,#401,.T.);
#950=EDGE_CURVE('',#595,#590,#389,.T.);
#952=EDGE_CURVE('',#643,#595,#195,.T.);
#964=EDGE_CURVE('',#651,#647,#203,.T.);
#966=EDGE_CURVE('',#649,#651,#199,.T.);
#977=EDGE_CURVE('',#647,#578,#207,.T.);
#979=EDGE_CURVE('',#578,#579,#462,.T.);
#981=EDGE_CURVE('',#579,#651,#211,.T.);
#992=EDGE_CURVE('',#687,#683,#235,.T.);
#994=EDGE_CURVE('',#687,#578,#220,.T.);
#1007=EDGE_CURVE('',#686,#682,#229,.T.);
#1009=EDGE_CURVE('',#686,#687,#466,.T.);
#1020=EDGE_CURVE('',#689,#686,#249,.T.);
#1024=EDGE_CURVE('',#689,#691,#239,.T.);
#1034=EDGE_CURVE('',#673,#669,#244,.T.);
#1036=EDGE_CURVE('',#686,#673,#470,.T.);
#1039=EDGE_CURVE('',#689,#669,#253,.T.);
#1050=EDGE_CURVE('',#669,#671,#261,.T.);
#1052=EDGE_CURVE('',#675,#671,#326,.T.);
#1054=EDGE_CURVE('',#673,#675,#257,.T.);
#1064=EDGE_CURVE('',#669,#666,#266,.T.);
#1066=EDGE_CURVE('',#666,#662,#309,.T.);
#1068=EDGE_CURVE('',#671,#662,#331,.T.);
#1081=EDGE_CURVE('',#693,#689,#271,.T.);
#1083=EDGE_CURVE('',#693,#666,#287,.T.);
#1096=EDGE_CURVE('',#693,#695,#275,.T.);
#1106=EDGE_CURVE('',#697,#693,#291,.T.);
#1110=EDGE_CURVE('',#697,#699,#279,.T.);
#1120=EDGE_CURVE('',#666,#667,#283,.T.);
#1124=EDGE_CURVE('',#724,#697,#296,.T.);
#1126=EDGE_CURVE('',#720,#724,#300,.T.);
#1128=EDGE_CURVE('',#667,#720,#305,.T.);
#1138=EDGE_CURVE('',#662,#663,#335,.T.);
#1142=EDGE_CURVE('',#667,#663,#499,.T.);
#1152=EDGE_CURVE('',#634,#631,#313,.T.);
#1154=EDGE_CURVE('',#659,#631,#480,.T.);
#1156=EDGE_CURVE('',#659,#655,#317,.T.);
#1158=EDGE_CURVE('',#679,#655,#449,.T.);
#1160=EDGE_CURVE('',#679,#675,#321,.T.);
#1165=EDGE_CURVE('',#663,#707,#339,.T.);
#1167=EDGE_CURVE('',#705,#707,#343,.T.);
#1180=EDGE_CURVE('',#629,#631,#351,.T.);
#1192=EDGE_CURVE('',#625,#627,#355,.T.);
#1194=EDGE_CURVE('',#631,#627,#485,.T.);
#1206=EDGE_CURVE('',#621,#623,#359,.T.);
#1208=EDGE_CURVE('',#627,#623,#423,.T.);
#1220=EDGE_CURVE('',#617,#619,#363,.T.);
#1222=EDGE_CURVE('',#623,#619,#410,.T.);
#1234=EDGE_CURVE('',#613,#615,#367,.T.);
#1236=EDGE_CURVE('',#619,#615,#393,.T.);
#1248=EDGE_CURVE('',#609,#611,#371,.T.);
#1250=EDGE_CURVE('',#615,#611,#384,.T.);
#1263=EDGE_CURVE('',#611,#607,#379,.T.);
#1277=EDGE_CURVE('',#595,#611,#375,.T.);
#1291=EDGE_CURVE('',#590,#615,#397,.T.);
#1304=EDGE_CURVE('',#591,#619,#405,.T.);
#1317=EDGE_CURVE('',#593,#623,#427,.T.);
#1328=EDGE_CURVE('',#716,#657,#436,.T.);
#1330=EDGE_CURVE('',#716,#627,#419,.T.);
#1343=EDGE_CURVE('',#653,#655,#440,.T.);
#1346=EDGE_CURVE('',#659,#716,#432,.T.);
#1359=EDGE_CURVE('',#655,#651,#454,.T.);
#1370=EDGE_CURVE('',#579,#677,#445,.T.);
#1372=EDGE_CURVE('',#679,#677,#476,.T.);
#1385=EDGE_CURVE('',#677,#673,#458,.T.);
#1424=EDGE_CURVE('',#663,#722,#490,.T.);
#1426=EDGE_CURVE('',#722,#728,#575,.T.);
#1428=EDGE_CURVE('',#707,#728,#495,.T.);
#1440=EDGE_CURVE('',#720,#722,#503,.T.);
#1453=EDGE_CURVE('',#724,#726,#507,.T.);
#1455=EDGE_CURVE('',#722,#726,#563,.T.);
#1468=EDGE_CURVE('',#726,#699,#512,.T.);
#1481=EDGE_CURVE('',#732,#715,#517,.T.);
#1483=EDGE_CURVE('',#732,#726,#567,.T.);
#1494=EDGE_CURVE('',#715,#713,#525,.T.);
#1496=EDGE_CURVE('',#734,#713,#543,.T.);
#1498=EDGE_CURVE('',#732,#734,#521,.T.);
#1509=EDGE_CURVE('',#713,#711,#547,.T.);
#1521=EDGE_CURVE('',#702,#703,#529,.T.);
#1523=EDGE_CURVE('',#703,#730,#534,.T.);
#1525=EDGE_CURVE('',#730,#734,#538,.T.);
#1541=EDGE_CURVE('',#707,#703,#555,.T.);
#1552=EDGE_CURVE('',#728,#730,#559,.T.);
#1564=EDGE_CURVE('',#728,#732,#571,.T.);
#1584=CLOSED_SHELL('',(#764,#779,#807,#822,#835,#845,#871,#885,#899,#915,#930,
#956,#970,#985,#1000,#1014,#1028,#1043,#1058,#1073,#1087,#1100,#1114,#1132,
#1146,#1172,#1185,#1199,#1213,#1227,#1241,#1255,#1268,#1282,#1295,#1308,#1321,
#1336,#1351,#1364,#1379,#1394,#1406,#1418,#1433,#1446,#1460,#1473,#1487,#1502,
#1515,#1532,#1545,#1558,#1571,#1583));
#1585=MANIFOLD_SOLID_BREP('',#1584);
#1587=(LENGTH_UNIT()NAMED_UNIT(*)SI_UNIT(.MILLI.,.METRE.));
#1591=(NAMED_UNIT(*)PLANE_ANGLE_UNIT()SI_UNIT($,.RADIAN.));
#1594=(NAMED_UNIT(*)SI_UNIT($,.STERADIAN.)SOLID_ANGLE_UNIT());
#1597=ADVANCED_BREP_SHAPE_REPRESENTATION('',(#1585),#1596);
#1604=PRODUCT_DEFINITION('design','',#1603,#1600);
#1605=PRODUCT_DEFINITION_SHAPE('','SHAPE FOR 19200_13122515.',#1604);
#1606=SHAPE_DEFINITION_REPRESENTATION(#1605,#1597);
ENDSEC;
END-ISO-10303-21;
