ISO-10303-21;
HEADER;
FILE_DESCRIPTION((''),'2;1');
FILE_NAME('19200_13122517','2026-08-03T14:50:22',(''),(''),
'CREO PARAMETRIC BY PTC INC','CREO PARAMETRIC BY PTC INC','');
FILE_SCHEMA(('CONFIG_CONTROL_DESIGN'));
ENDSEC;
DATA;
#1=CARTESIAN_POINT('',(-1.1675E0,0.E0,1.405E-1));
#2=DIRECTION('',(0.E0,-1.E0,0.E0));
#3=DIRECTION('',(-1.E0,0.E0,0.E0));
#4=AXIS2_PLACEMENT_3D('',#1,#2,#3);
#6=DIRECTION('',(0.E0,0.E0,1.E0));
#7=VECTOR('',#6,1.845E-1);
#8=CARTESIAN_POINT('',(-1.2175E0,0.E0,1.405E-1));
#9=LINE('',#8,#7);
#10=CARTESIAN_POINT('',(-1.1125E0,0.E0,3.25E-1));
#11=DIRECTION('',(0.E0,-1.E0,0.E0));
#12=DIRECTION('',(0.E0,0.E0,1.E0));
#13=AXIS2_PLACEMENT_3D('',#10,#11,#12);
#15=DIRECTION('',(1.E0,0.E0,0.E0));
#16=VECTOR('',#15,2.225E0);
#17=CARTESIAN_POINT('',(-1.1125E0,0.E0,4.3E-1));
#18=LINE('',#17,#16);
#19=CARTESIAN_POINT('',(1.1125E0,0.E0,3.25E-1));
#20=DIRECTION('',(0.E0,-1.E0,0.E0));
#21=DIRECTION('',(1.E0,0.E0,0.E0));
#22=AXIS2_PLACEMENT_3D('',#19,#20,#21);
#24=DIRECTION('',(0.E0,0.E0,-1.E0));
#25=VECTOR('',#24,1.845E-1);
#26=CARTESIAN_POINT('',(1.2175E0,0.E0,3.25E-1));
#27=LINE('',#26,#25);
#28=CARTESIAN_POINT('',(1.1675E0,0.E0,1.405E-1));
#29=DIRECTION('',(0.E0,-1.E0,0.E0));
#30=DIRECTION('',(0.E0,0.E0,-1.E0));
#31=AXIS2_PLACEMENT_3D('',#28,#29,#30);
#33=DIRECTION('',(-1.E0,0.E0,0.E0));
#34=VECTOR('',#33,4.25E-2);
#35=CARTESIAN_POINT('',(1.1675E0,0.E0,9.05E-2));
#36=LINE('',#35,#34);
#37=DIRECTION('',(-1.E0,0.E0,0.E0));
#38=VECTOR('',#37,4.25E-2);
#39=CARTESIAN_POINT('',(1.1675E0,0.E0,-9.05E-2));
#40=LINE('',#39,#38);
#41=CARTESIAN_POINT('',(1.1675E0,0.E0,-1.405E-1));
#42=DIRECTION('',(0.E0,-1.E0,0.E0));
#43=DIRECTION('',(1.E0,0.E0,0.E0));
#44=AXIS2_PLACEMENT_3D('',#41,#42,#43);
#46=DIRECTION('',(0.E0,0.E0,-1.E0));
#47=VECTOR('',#46,1.845E-1);
#48=CARTESIAN_POINT('',(1.2175E0,0.E0,-1.405E-1));
#49=LINE('',#48,#47);
#50=CARTESIAN_POINT('',(1.1125E0,0.E0,-3.25E-1));
#51=DIRECTION('',(0.E0,-1.E0,0.E0));
#52=DIRECTION('',(0.E0,0.E0,-1.E0));
#53=AXIS2_PLACEMENT_3D('',#50,#51,#52);
#55=DIRECTION('',(-1.E0,0.E0,0.E0));
#56=VECTOR('',#55,7.16E-1);
#57=CARTESIAN_POINT('',(1.1125E0,0.E0,-4.3E-1));
#58=LINE('',#57,#56);
#59=CARTESIAN_POINT('',(3.965E-1,0.E0,-4.1E-1));
#60=DIRECTION('',(0.E0,-1.E0,0.E0));
#61=DIRECTION('',(-1.E0,0.E0,0.E0));
#62=AXIS2_PLACEMENT_3D('',#59,#60,#61);
#64=DIRECTION('',(1.E0,0.E0,0.E0));
#65=VECTOR('',#64,1.149E0);
#66=CARTESIAN_POINT('',(-8.125E-1,0.E0,-3.7E-1));
#67=LINE('',#66,#65);
#68=CARTESIAN_POINT('',(-8.725E-1,0.E0,-4.1E-1));
#69=DIRECTION('',(0.E0,-1.E0,0.E0));
#70=DIRECTION('',(1.110223024625E-14,0.E0,-1.E0));
#71=AXIS2_PLACEMENT_3D('',#68,#69,#70);
#73=DIRECTION('',(-1.E0,0.E0,0.E0));
#74=VECTOR('',#73,2.4E-1);
#75=CARTESIAN_POINT('',(-8.725E-1,0.E0,-4.3E-1));
#76=LINE('',#75,#74);
#77=CARTESIAN_POINT('',(-1.1125E0,0.E0,-3.25E-1));
#78=DIRECTION('',(0.E0,-1.E0,0.E0));
#79=DIRECTION('',(-1.E0,0.E0,0.E0));
#80=AXIS2_PLACEMENT_3D('',#77,#78,#79);
#82=DIRECTION('',(0.E0,0.E0,1.E0));
#83=VECTOR('',#82,1.845E-1);
#84=CARTESIAN_POINT('',(-1.2175E0,0.E0,-3.25E-1));
#85=LINE('',#84,#83);
#86=CARTESIAN_POINT('',(-1.1675E0,0.E0,-1.405E-1));
#87=DIRECTION('',(0.E0,-1.E0,0.E0));
#88=DIRECTION('',(0.E0,0.E0,1.E0));
#89=AXIS2_PLACEMENT_3D('',#86,#87,#88);
#91=DIRECTION('',(1.E0,0.E0,0.E0));
#92=VECTOR('',#91,4.25E-2);
#93=CARTESIAN_POINT('',(-1.1675E0,0.E0,-9.05E-2));
#94=LINE('',#93,#92);
#95=DIRECTION('',(1.E0,0.E0,0.E0));
#96=VECTOR('',#95,4.25E-2);
#97=CARTESIAN_POINT('',(-1.1675E0,0.E0,9.05E-2));
#98=LINE('',#97,#96);
#99=CARTESIAN_POINT('',(-1.1675E0,1.4E-1,1.405E-1));
#100=DIRECTION('',(0.E0,1.E0,0.E0));
#101=DIRECTION('',(0.E0,0.E0,-1.E0));
#102=AXIS2_PLACEMENT_3D('',#99,#100,#101);
#104=DIRECTION('',(0.E0,-1.E0,0.E0));
#105=VECTOR('',#104,1.4E-1);
#106=CARTESIAN_POINT('',(-1.1675E0,1.4E-1,9.05E-2));
#107=LINE('',#106,#105);
#108=DIRECTION('',(0.E0,-1.E0,0.E0));
#109=VECTOR('',#108,1.4E-1);
#110=CARTESIAN_POINT('',(-1.125E0,1.4E-1,9.05E-2));
#111=LINE('',#110,#109);
#112=CARTESIAN_POINT('',(-1.125E0,0.E0,0.E0));
#113=DIRECTION('',(0.E0,1.E0,0.E0));
#114=DIRECTION('',(0.E0,0.E0,1.E0));
#115=AXIS2_PLACEMENT_3D('',#112,#113,#114);
#117=CARTESIAN_POINT('',(-1.125E0,1.4E-1,0.E0));
#118=DIRECTION('',(0.E0,-1.E0,0.E0));
#119=DIRECTION('',(0.E0,0.E0,-1.E0));
#120=AXIS2_PLACEMENT_3D('',#117,#118,#119);
#122=DIRECTION('',(0.E0,1.E0,0.E0));
#123=VECTOR('',#122,1.4E-1);
#124=CARTESIAN_POINT('',(-1.1675E0,0.E0,-9.05E-2));
#125=LINE('',#124,#123);
#126=DIRECTION('',(0.E0,-1.E0,0.E0));
#127=VECTOR('',#126,1.4E-1);
#128=CARTESIAN_POINT('',(-1.125E0,1.4E-1,-9.05E-2));
#129=LINE('',#128,#127);
#130=CARTESIAN_POINT('',(-1.1675E0,1.4E-1,-1.405E-1));
#131=DIRECTION('',(0.E0,1.E0,0.E0));
#132=DIRECTION('',(-1.E0,0.E0,0.E0));
#133=AXIS2_PLACEMENT_3D('',#130,#131,#132);
#135=DIRECTION('',(0.E0,-1.E0,0.E0));
#136=VECTOR('',#135,1.4E-1);
#137=CARTESIAN_POINT('',(-1.2175E0,1.4E-1,1.405E-1));
#138=LINE('',#137,#136);
#139=DIRECTION('',(0.E0,1.E0,0.E0));
#140=VECTOR('',#139,1.4E-1);
#141=CARTESIAN_POINT('',(-1.2175E0,0.E0,-1.405E-1));
#142=LINE('',#141,#140);
#143=DIRECTION('',(0.E0,-1.E0,0.E0));
#144=VECTOR('',#143,2.04E-1);
#145=CARTESIAN_POINT('',(-1.2175E0,2.04E-1,-3.25E-1));
#146=LINE('',#145,#144);
#147=DIRECTION('',(0.E0,-1.E0,0.E0));
#148=VECTOR('',#147,2.04E-1);
#149=CARTESIAN_POINT('',(-1.2175E0,2.04E-1,3.25E-1));
#150=LINE('',#149,#148);
#151=CARTESIAN_POINT('',(-1.125E0,1.4E-1,0.E0));
#152=DIRECTION('',(0.E0,-1.E0,0.E0));
#153=DIRECTION('',(-1.E0,0.E0,0.E0));
#154=AXIS2_PLACEMENT_3D('',#151,#152,#153);
#156=CARTESIAN_POINT('',(-1.125E0,1.4E-1,0.E0));
#157=DIRECTION('',(0.E0,-1.E0,0.E0));
#158=DIRECTION('',(1.E0,0.E0,0.E0));
#159=AXIS2_PLACEMENT_3D('',#156,#157,#158);
#161=DIRECTION('',(1.E0,0.E0,0.E0));
#162=VECTOR('',#161,4.25E-2);
#163=CARTESIAN_POINT('',(-1.1675E0,1.4E-1,-9.05E-2));
#164=LINE('',#163,#162);
#165=DIRECTION('',(0.E0,0.E0,1.E0));
#166=VECTOR('',#165,2.81E-1);
#167=CARTESIAN_POINT('',(-1.2175E0,1.4E-1,-1.405E-1));
#168=LINE('',#167,#166);
#169=DIRECTION('',(-1.E0,0.E0,0.E0));
#170=VECTOR('',#169,4.25E-2);
#171=CARTESIAN_POINT('',(-1.125E0,1.4E-1,9.05E-2));
#172=LINE('',#171,#170);
#173=CARTESIAN_POINT('',(-1.125E0,1.825E-1,0.E0));
#174=DIRECTION('',(0.E0,-1.E0,0.E0));
#175=DIRECTION('',(-1.E0,0.E0,0.E0));
#176=AXIS2_PLACEMENT_3D('',#173,#174,#175);
#178=DIRECTION('',(7.071067811866E-1,-7.071067811865E-1,0.E0));
#179=VECTOR('',#178,6.010407640086E-2);
#180=CARTESIAN_POINT('',(-1.0815E0,1.825E-1,0.E0));
#181=LINE('',#180,#179);
#182=CARTESIAN_POINT('',(-1.125E0,1.825E-1,0.E0));
#183=DIRECTION('',(0.E0,1.E0,0.E0));
#184=DIRECTION('',(-1.E0,0.E0,0.E0));
#185=AXIS2_PLACEMENT_3D('',#182,#183,#184);
#187=DIRECTION('',(-7.071067811865E-1,-7.071067811866E-1,0.E0));
#188=VECTOR('',#187,6.010407640086E-2);
#189=CARTESIAN_POINT('',(-1.1685E0,1.825E-1,0.E0));
#190=LINE('',#189,#188);
#191=DIRECTION('',(-4.131062417210E-14,-1.E0,0.E0));
#192=VECTOR('',#191,2.15E-2);
#193=CARTESIAN_POINT('',(-1.1685E0,2.04E-1,0.E0));
#194=LINE('',#193,#192);
#195=DIRECTION('',(-5.163828021512E-14,-1.E0,0.E0));
#196=VECTOR('',#195,2.15E-2);
#197=CARTESIAN_POINT('',(-1.0815E0,2.04E-1,0.E0));
#198=LINE('',#197,#196);
#199=DIRECTION('',(0.E0,0.E0,-1.E0));
#200=VECTOR('',#199,2.699218940642E-1);
#201=CARTESIAN_POINT('',(1.11E0,2.04E-1,4.3E-1));
#202=LINE('',#201,#200);
#203=CARTESIAN_POINT('',(1.11E0,2.04E-1,0.E0));
#204=DIRECTION('',(0.E0,1.E0,0.E0));
#205=DIRECTION('',(-2.424242424242E-1,0.E0,-9.701703390050E-1));
#206=AXIS2_PLACEMENT_3D('',#203,#204,#205);
#208=DIRECTION('',(0.E0,0.E0,1.E0));
#209=VECTOR('',#208,2.699218940642E-1);
#210=CARTESIAN_POINT('',(1.11E0,2.04E-1,-4.3E-1));
#211=LINE('',#210,#209);
#212=DIRECTION('',(-1.E0,0.E0,0.E0));
#213=VECTOR('',#212,2.5E-3);
#214=CARTESIAN_POINT('',(1.1125E0,2.04E-1,-4.3E-1));
#215=LINE('',#214,#213);
#216=CARTESIAN_POINT('',(1.1125E0,2.04E-1,-3.25E-1));
#217=DIRECTION('',(0.E0,1.E0,0.E0));
#218=DIRECTION('',(1.E0,0.E0,0.E0));
#219=AXIS2_PLACEMENT_3D('',#216,#217,#218);
#221=DIRECTION('',(0.E0,0.E0,-1.E0));
#222=VECTOR('',#221,6.5E-1);
#223=CARTESIAN_POINT('',(1.2175E0,2.04E-1,3.25E-1));
#224=LINE('',#223,#222);
#225=CARTESIAN_POINT('',(1.1125E0,2.04E-1,3.25E-1));
#226=DIRECTION('',(0.E0,1.E0,0.E0));
#227=DIRECTION('',(0.E0,0.E0,1.E0));
#228=AXIS2_PLACEMENT_3D('',#225,#226,#227);
#230=DIRECTION('',(1.E0,0.E0,0.E0));
#231=VECTOR('',#230,2.5E-3);
#232=CARTESIAN_POINT('',(1.11E0,2.04E-1,4.3E-1));
#233=LINE('',#232,#231);
#234=DIRECTION('',(0.E0,0.E0,1.E0));
#235=VECTOR('',#234,2.699218940642E-1);
#236=CARTESIAN_POINT('',(-1.11E0,2.04E-1,-4.3E-1));
#237=LINE('',#236,#235);
#238=CARTESIAN_POINT('',(-1.11E0,2.04E-1,0.E0));
#239=DIRECTION('',(0.E0,1.E0,0.E0));
#240=DIRECTION('',(2.424242424242E-1,0.E0,9.701703390050E-1));
#241=AXIS2_PLACEMENT_3D('',#238,#239,#240);
#243=DIRECTION('',(0.E0,0.E0,-1.E0));
#244=VECTOR('',#243,2.699218940642E-1);
#245=CARTESIAN_POINT('',(-1.11E0,2.04E-1,4.3E-1));
#246=LINE('',#245,#244);
#247=DIRECTION('',(1.E0,0.E0,0.E0));
#248=VECTOR('',#247,2.5E-3);
#249=CARTESIAN_POINT('',(-1.1125E0,2.04E-1,4.3E-1));
#250=LINE('',#249,#248);
#251=CARTESIAN_POINT('',(-1.1125E0,2.04E-1,3.25E-1));
#252=DIRECTION('',(0.E0,1.E0,0.E0));
#253=DIRECTION('',(-1.E0,0.E0,0.E0));
#254=AXIS2_PLACEMENT_3D('',#251,#252,#253);
#256=DIRECTION('',(0.E0,0.E0,1.E0));
#257=VECTOR('',#256,6.5E-1);
#258=CARTESIAN_POINT('',(-1.2175E0,2.04E-1,-3.25E-1));
#259=LINE('',#258,#257);
#260=CARTESIAN_POINT('',(-1.1125E0,2.04E-1,-3.25E-1));
#261=DIRECTION('',(0.E0,1.E0,0.E0));
#262=DIRECTION('',(0.E0,0.E0,-1.E0));
#263=AXIS2_PLACEMENT_3D('',#260,#261,#262);
#265=DIRECTION('',(-1.E0,0.E0,0.E0));
#266=VECTOR('',#265,2.5E-3);
#267=CARTESIAN_POINT('',(-1.11E0,2.04E-1,-4.3E-1));
#268=LINE('',#267,#266);
#269=CARTESIAN_POINT('',(-1.125E0,2.04E-1,0.E0));
#270=DIRECTION('',(0.E0,1.E0,0.E0));
#271=DIRECTION('',(1.E0,0.E0,0.E0));
#272=AXIS2_PLACEMENT_3D('',#269,#270,#271);
#274=CARTESIAN_POINT('',(-1.125E0,2.04E-1,0.E0));
#275=DIRECTION('',(0.E0,1.E0,0.E0));
#276=DIRECTION('',(-1.E0,0.E0,0.E0));
#277=AXIS2_PLACEMENT_3D('',#274,#275,#276);
#279=CARTESIAN_POINT('',(1.125E0,2.04E-1,0.E0));
#280=DIRECTION('',(0.E0,1.E0,0.E0));
#281=DIRECTION('',(1.E0,0.E0,0.E0));
#282=AXIS2_PLACEMENT_3D('',#279,#280,#281);
#284=CARTESIAN_POINT('',(1.125E0,2.04E-1,0.E0));
#285=DIRECTION('',(0.E0,1.E0,0.E0));
#286=DIRECTION('',(-1.E0,0.E0,0.E0));
#287=AXIS2_PLACEMENT_3D('',#284,#285,#286);
#289=DIRECTION('',(0.E0,-1.E0,0.E0));
#290=VECTOR('',#289,1.67E-1);
#291=CARTESIAN_POINT('',(1.11E0,2.04E-1,1.600781059358E-1));
#292=LINE('',#291,#290);
#293=CARTESIAN_POINT('',(1.07E0,2.04E-1,1.600781059358E-1));
#294=DIRECTION('',(0.E0,-1.E0,0.E0));
#295=DIRECTION('',(2.424242424242E-1,0.E0,-9.701703390050E-1));
#296=AXIS2_PLACEMENT_3D('',#293,#294,#295);
#298=DIRECTION('',(0.E0,0.E0,1.E0));
#299=VECTOR('',#298,1.57E-1);
#300=CARTESIAN_POINT('',(8.453E-1,3.7E-2,1.13E-1));
#301=LINE('',#300,#299);
#302=DIRECTION('',(1.E0,0.E0,0.E0));
#303=VECTOR('',#302,1.57E-1);
#304=CARTESIAN_POINT('',(6.883E-1,3.7E-2,1.13E-1));
#305=LINE('',#304,#303);
#306=DIRECTION('',(0.E0,0.E0,-1.E0));
#307=VECTOR('',#306,1.57E-1);
#308=CARTESIAN_POINT('',(6.883E-1,3.7E-2,2.7E-1));
#309=LINE('',#308,#307);
#310=DIRECTION('',(-1.E0,0.E0,0.E0));
#311=VECTOR('',#310,1.57E-1);
#312=CARTESIAN_POINT('',(8.453E-1,3.7E-2,2.7E-1));
#313=LINE('',#312,#311);
#314=DIRECTION('',(0.E0,0.E0,1.E0));
#315=VECTOR('',#314,1.77E-1);
#316=CARTESIAN_POINT('',(6.193E-1,3.7E-2,1.14E-1));
#317=LINE('',#316,#315);
#318=DIRECTION('',(1.E0,0.E0,0.E0));
#319=VECTOR('',#318,2.26E-1);
#320=CARTESIAN_POINT('',(3.933E-1,3.7E-2,1.14E-1));
#321=LINE('',#320,#319);
#322=DIRECTION('',(0.E0,0.E0,-1.E0));
#323=VECTOR('',#322,1.77E-1);
#324=CARTESIAN_POINT('',(3.933E-1,3.7E-2,2.91E-1));
#325=LINE('',#324,#323);
#326=DIRECTION('',(-1.E0,0.E0,0.E0));
#327=VECTOR('',#326,2.26E-1);
#328=CARTESIAN_POINT('',(6.193E-1,3.7E-2,2.91E-1));
#329=LINE('',#328,#327);
#330=DIRECTION('',(0.E0,0.E0,1.E0));
#331=VECTOR('',#330,1.57E-1);
#332=CARTESIAN_POINT('',(3.223E-1,3.7E-2,1.13E-1));
#333=LINE('',#332,#331);
#334=DIRECTION('',(1.E0,0.E0,0.E0));
#335=VECTOR('',#334,1.57E-1);
#336=CARTESIAN_POINT('',(1.653E-1,3.7E-2,1.13E-1));
#337=LINE('',#336,#335);
#338=DIRECTION('',(0.E0,0.E0,-1.E0));
#339=VECTOR('',#338,1.57E-1);
#340=CARTESIAN_POINT('',(1.653E-1,3.7E-2,2.7E-1));
#341=LINE('',#340,#339);
#342=DIRECTION('',(-1.E0,0.E0,0.E0));
#343=VECTOR('',#342,1.57E-1);
#344=CARTESIAN_POINT('',(3.223E-1,3.7E-2,2.7E-1));
#345=LINE('',#344,#343);
#346=CARTESIAN_POINT('',(3.965E-1,3.7E-2,-4.1E-1));
#347=DIRECTION('',(0.E0,1.E0,0.E0));
#348=DIRECTION('',(0.E0,0.E0,-1.E0));
#349=AXIS2_PLACEMENT_3D('',#346,#347,#348);
#351=DIRECTION('',(0.E0,0.E0,-1.E0));
#352=VECTOR('',#351,2.699218940642E-1);
#353=CARTESIAN_POINT('',(1.11E0,3.7E-2,-1.600781059358E-1));
#354=LINE('',#353,#352);
#355=CARTESIAN_POINT('',(1.07E0,3.7E-2,-1.600781059358E-1));
#356=DIRECTION('',(0.E0,1.E0,0.E0));
#357=DIRECTION('',(2.424242424243E-1,0.E0,9.701703390050E-1));
#358=AXIS2_PLACEMENT_3D('',#355,#356,#357);
#360=CARTESIAN_POINT('',(1.11E0,3.7E-2,0.E0));
#361=DIRECTION('',(0.E0,-1.E0,0.E0));
#362=DIRECTION('',(-2.424242424242E-1,0.E0,9.701703390050E-1));
#363=AXIS2_PLACEMENT_3D('',#360,#361,#362);
#365=CARTESIAN_POINT('',(1.07E0,3.7E-2,1.600781059358E-1));
#366=DIRECTION('',(0.E0,1.E0,0.E0));
#367=DIRECTION('',(1.E0,0.E0,0.E0));
#368=AXIS2_PLACEMENT_3D('',#365,#366,#367);
#370=DIRECTION('',(0.E0,0.E0,-1.E0));
#371=VECTOR('',#370,2.699218940642E-1);
#372=CARTESIAN_POINT('',(1.11E0,3.7E-2,4.3E-1));
#373=LINE('',#372,#371);
#374=DIRECTION('',(0.E0,0.E0,1.E0));
#375=VECTOR('',#374,2.699218940642E-1);
#376=CARTESIAN_POINT('',(-1.11E0,3.7E-2,1.600781059358E-1));
#377=LINE('',#376,#375);
#378=CARTESIAN_POINT('',(-1.07E0,3.7E-2,1.600781059358E-1));
#379=DIRECTION('',(0.E0,1.E0,0.E0));
#380=DIRECTION('',(-2.424242424242E-1,0.E0,-9.701703390050E-1));
#381=AXIS2_PLACEMENT_3D('',#378,#379,#380);
#383=CARTESIAN_POINT('',(-1.11E0,3.7E-2,0.E0));
#384=DIRECTION('',(0.E0,-1.E0,0.E0));
#385=DIRECTION('',(2.424242424243E-1,0.E0,-9.701703390050E-1));
#386=AXIS2_PLACEMENT_3D('',#383,#384,#385);
#388=CARTESIAN_POINT('',(-1.07E0,3.7E-2,-1.600781059358E-1));
#389=DIRECTION('',(0.E0,1.E0,0.E0));
#390=DIRECTION('',(-1.E0,0.E0,0.E0));
#391=AXIS2_PLACEMENT_3D('',#388,#389,#390);
#393=DIRECTION('',(0.E0,0.E0,1.E0));
#394=VECTOR('',#393,2.699218940642E-1);
#395=CARTESIAN_POINT('',(-1.11E0,3.7E-2,-4.3E-1));
#396=LINE('',#395,#394);
#397=CARTESIAN_POINT('',(-8.725E-1,3.7E-2,-4.1E-1));
#398=DIRECTION('',(0.E0,1.E0,0.E0));
#399=DIRECTION('',(1.E0,0.E0,0.E0));
#400=AXIS2_PLACEMENT_3D('',#397,#398,#399);
#402=DIRECTION('',(1.E0,0.E0,0.E0));
#403=VECTOR('',#402,1.149E0);
#404=CARTESIAN_POINT('',(-8.125E-1,3.7E-2,-3.7E-1));
#405=LINE('',#404,#403);
#406=DIRECTION('',(0.E0,0.E0,1.E0));
#407=VECTOR('',#406,1.57E-1);
#408=CARTESIAN_POINT('',(8.453E-1,7.9E-2,1.13E-1));
#409=LINE('',#408,#407);
#410=DIRECTION('',(0.E0,-1.E0,0.E0));
#411=VECTOR('',#410,4.2E-2);
#412=CARTESIAN_POINT('',(8.453E-1,7.9E-2,1.13E-1));
#413=LINE('',#412,#411);
#414=DIRECTION('',(-1.E0,0.E0,0.E0));
#415=VECTOR('',#414,1.57E-1);
#416=CARTESIAN_POINT('',(8.453E-1,7.9E-2,2.7E-1));
#417=LINE('',#416,#415);
#418=DIRECTION('',(0.E0,-1.E0,0.E0));
#419=VECTOR('',#418,4.2E-2);
#420=CARTESIAN_POINT('',(8.453E-1,7.9E-2,2.7E-1));
#421=LINE('',#420,#419);
#422=DIRECTION('',(0.E0,0.E0,-1.E0));
#423=VECTOR('',#422,1.57E-1);
#424=CARTESIAN_POINT('',(6.883E-1,7.9E-2,2.7E-1));
#425=LINE('',#424,#423);
#426=DIRECTION('',(0.E0,-1.E0,0.E0));
#427=VECTOR('',#426,4.2E-2);
#428=CARTESIAN_POINT('',(6.883E-1,7.9E-2,2.7E-1));
#429=LINE('',#428,#427);
#430=DIRECTION('',(1.E0,0.E0,0.E0));
#431=VECTOR('',#430,1.57E-1);
#432=CARTESIAN_POINT('',(6.883E-1,7.9E-2,1.13E-1));
#433=LINE('',#432,#431);
#434=DIRECTION('',(0.E0,-1.E0,0.E0));
#435=VECTOR('',#434,4.2E-2);
#436=CARTESIAN_POINT('',(6.883E-1,7.9E-2,1.13E-1));
#437=LINE('',#436,#435);
#438=DIRECTION('',(0.E0,0.E0,1.E0));
#439=VECTOR('',#438,1.57E-1);
#440=CARTESIAN_POINT('',(3.223E-1,7.9E-2,1.13E-1));
#441=LINE('',#440,#439);
#442=DIRECTION('',(0.E0,-1.E0,0.E0));
#443=VECTOR('',#442,4.2E-2);
#444=CARTESIAN_POINT('',(3.223E-1,7.9E-2,1.13E-1));
#445=LINE('',#444,#443);
#446=DIRECTION('',(1.E0,0.E0,0.E0));
#447=VECTOR('',#446,1.57E-1);
#448=CARTESIAN_POINT('',(1.653E-1,7.9E-2,1.13E-1));
#449=LINE('',#448,#447);
#450=DIRECTION('',(0.E0,-1.E0,0.E0));
#451=VECTOR('',#450,4.2E-2);
#452=CARTESIAN_POINT('',(1.653E-1,7.9E-2,1.13E-1));
#453=LINE('',#452,#451);
#454=DIRECTION('',(0.E0,0.E0,-1.E0));
#455=VECTOR('',#454,1.57E-1);
#456=CARTESIAN_POINT('',(1.653E-1,7.9E-2,2.7E-1));
#457=LINE('',#456,#455);
#458=DIRECTION('',(0.E0,-1.E0,0.E0));
#459=VECTOR('',#458,4.2E-2);
#460=CARTESIAN_POINT('',(1.653E-1,7.9E-2,2.7E-1));
#461=LINE('',#460,#459);
#462=DIRECTION('',(-1.E0,0.E0,0.E0));
#463=VECTOR('',#462,1.57E-1);
#464=CARTESIAN_POINT('',(3.223E-1,7.9E-2,2.7E-1));
#465=LINE('',#464,#463);
#466=DIRECTION('',(0.E0,-1.E0,0.E0));
#467=VECTOR('',#466,4.2E-2);
#468=CARTESIAN_POINT('',(3.223E-1,7.9E-2,2.7E-1));
#469=LINE('',#468,#467);
#470=DIRECTION('',(0.E0,0.E0,1.E0));
#471=VECTOR('',#470,1.77E-1);
#472=CARTESIAN_POINT('',(6.193E-1,1.67E-1,1.14E-1));
#473=LINE('',#472,#471);
#474=DIRECTION('',(0.E0,-1.E0,0.E0));
#475=VECTOR('',#474,1.3E-1);
#476=CARTESIAN_POINT('',(6.193E-1,1.67E-1,1.14E-1));
#477=LINE('',#476,#475);
#478=DIRECTION('',(-1.E0,0.E0,0.E0));
#479=VECTOR('',#478,2.26E-1);
#480=CARTESIAN_POINT('',(6.193E-1,1.67E-1,2.91E-1));
#481=LINE('',#480,#479);
#482=DIRECTION('',(0.E0,-1.E0,0.E0));
#483=VECTOR('',#482,1.3E-1);
#484=CARTESIAN_POINT('',(6.193E-1,1.67E-1,2.91E-1));
#485=LINE('',#484,#483);
#486=DIRECTION('',(0.E0,0.E0,-1.E0));
#487=VECTOR('',#486,1.77E-1);
#488=CARTESIAN_POINT('',(3.933E-1,1.67E-1,2.91E-1));
#489=LINE('',#488,#487);
#490=DIRECTION('',(0.E0,-1.E0,0.E0));
#491=VECTOR('',#490,1.3E-1);
#492=CARTESIAN_POINT('',(3.933E-1,1.67E-1,2.91E-1));
#493=LINE('',#492,#491);
#494=DIRECTION('',(1.E0,0.E0,0.E0));
#495=VECTOR('',#494,2.26E-1);
#496=CARTESIAN_POINT('',(3.933E-1,1.67E-1,1.14E-1));
#497=LINE('',#496,#495);
#498=DIRECTION('',(0.E0,-1.E0,0.E0));
#499=VECTOR('',#498,1.3E-1);
#500=CARTESIAN_POINT('',(3.933E-1,1.67E-1,1.14E-1));
#501=LINE('',#500,#499);
#502=DIRECTION('',(0.E0,1.E0,0.E0));
#503=VECTOR('',#502,3.7E-2);
#504=CARTESIAN_POINT('',(3.765E-1,0.E0,-4.1E-1));
#505=LINE('',#504,#503);
#506=CARTESIAN_POINT('',(3.365E-1,3.7E-2,-4.1E-1));
#507=DIRECTION('',(0.E0,-1.E0,0.E0));
#508=DIRECTION('',(1.E0,0.E0,0.E0));
#509=AXIS2_PLACEMENT_3D('',#506,#507,#508);
#511=CARTESIAN_POINT('',(3.365E-1,0.E0,-4.1E-1));
#512=DIRECTION('',(0.E0,1.E0,0.E0));
#513=DIRECTION('',(0.E0,0.E0,1.E0));
#514=AXIS2_PLACEMENT_3D('',#511,#512,#513);
#516=DIRECTION('',(0.E0,-1.E0,0.E0));
#517=VECTOR('',#516,3.7E-2);
#518=CARTESIAN_POINT('',(-8.125E-1,3.7E-2,-3.7E-1));
#519=LINE('',#518,#517);
#520=DIRECTION('',(0.E0,-1.E0,0.E0));
#521=VECTOR('',#520,3.7E-2);
#522=CARTESIAN_POINT('',(3.365E-1,3.7E-2,-3.7E-1));
#523=LINE('',#522,#521);
#524=DIRECTION('',(0.E0,-1.E0,0.E0));
#525=VECTOR('',#524,3.7E-2);
#526=CARTESIAN_POINT('',(-8.525E-1,3.7E-2,-4.1E-1));
#527=LINE('',#526,#525);
#528=CARTESIAN_POINT('',(-8.125E-1,0.E0,-4.1E-1));
#529=DIRECTION('',(0.E0,1.E0,0.E0));
#530=DIRECTION('',(-1.E0,0.E0,0.E0));
#531=AXIS2_PLACEMENT_3D('',#528,#529,#530);
#533=CARTESIAN_POINT('',(-8.125E-1,3.7E-2,-4.1E-1));
#534=DIRECTION('',(0.E0,-1.E0,0.E0));
#535=DIRECTION('',(0.E0,0.E0,1.E0));
#536=AXIS2_PLACEMENT_3D('',#533,#534,#535);
#538=DIRECTION('',(0.E0,1.E0,0.E0));
#539=VECTOR('',#538,3.7E-2);
#540=CARTESIAN_POINT('',(3.965E-1,0.E0,-4.3E-1));
#541=LINE('',#540,#539);
#542=DIRECTION('',(0.E0,-1.E0,0.E0));
#543=VECTOR('',#542,2.04E-1);
#544=CARTESIAN_POINT('',(1.1125E0,2.04E-1,-4.3E-1));
#545=LINE('',#544,#543);
#546=DIRECTION('',(0.E0,-1.E0,0.E0));
#547=VECTOR('',#546,1.67E-1);
#548=CARTESIAN_POINT('',(1.11E0,2.04E-1,-4.3E-1));
#549=LINE('',#548,#547);
#550=DIRECTION('',(1.E0,0.E0,0.E0));
#551=VECTOR('',#550,7.135E-1);
#552=CARTESIAN_POINT('',(3.965E-1,3.7E-2,-4.3E-1));
#553=LINE('',#552,#551);
#554=DIRECTION('',(0.E0,-1.E0,0.E0));
#555=VECTOR('',#554,3.7E-2);
#556=CARTESIAN_POINT('',(-8.725E-1,3.7E-2,-4.3E-1));
#557=LINE('',#556,#555);
#558=DIRECTION('',(1.E0,0.E0,0.E0));
#559=VECTOR('',#558,2.375E-1);
#560=CARTESIAN_POINT('',(-1.11E0,3.7E-2,-4.3E-1));
#561=LINE('',#560,#559);
#562=DIRECTION('',(0.E0,-1.E0,0.E0));
#563=VECTOR('',#562,1.67E-1);
#564=CARTESIAN_POINT('',(-1.11E0,2.04E-1,-4.3E-1));
#565=LINE('',#564,#563);
#566=DIRECTION('',(0.E0,-1.E0,0.E0));
#567=VECTOR('',#566,2.04E-1);
#568=CARTESIAN_POINT('',(-1.1125E0,2.04E-1,-4.3E-1));
#569=LINE('',#568,#567);
#570=DIRECTION('',(0.E0,1.E0,0.E0));
#571=VECTOR('',#570,1.4E-1);
#572=CARTESIAN_POINT('',(1.2175E0,0.E0,1.405E-1));
#573=LINE('',#572,#571);
#574=DIRECTION('',(0.E0,-1.E0,0.E0));
#575=VECTOR('',#574,2.04E-1);
#576=CARTESIAN_POINT('',(1.2175E0,2.04E-1,3.25E-1));
#577=LINE('',#576,#575);
#578=DIRECTION('',(0.E0,-1.E0,0.E0));
#579=VECTOR('',#578,2.04E-1);
#580=CARTESIAN_POINT('',(1.2175E0,2.04E-1,-3.25E-1));
#581=LINE('',#580,#579);
#582=DIRECTION('',(0.E0,-1.E0,0.E0));
#583=VECTOR('',#582,1.4E-1);
#584=CARTESIAN_POINT('',(1.2175E0,1.4E-1,-1.405E-1));
#585=LINE('',#584,#583);
#586=CARTESIAN_POINT('',(1.1675E0,1.4E-1,1.405E-1));
#587=DIRECTION('',(0.E0,1.E0,0.E0));
#588=DIRECTION('',(1.E0,0.E0,0.E0));
#589=AXIS2_PLACEMENT_3D('',#586,#587,#588);
#591=DIRECTION('',(0.E0,1.E0,0.E0));
#592=VECTOR('',#591,1.4E-1);
#593=CARTESIAN_POINT('',(1.1675E0,0.E0,9.05E-2));
#594=LINE('',#593,#592);
#595=DIRECTION('',(0.E0,1.E0,0.E0));
#596=VECTOR('',#595,1.4E-1);
#597=CARTESIAN_POINT('',(1.125E0,0.E0,9.05E-2));
#598=LINE('',#597,#596);
#599=CARTESIAN_POINT('',(1.125E0,1.4E-1,0.E0));
#600=DIRECTION('',(0.E0,-1.E0,0.E0));
#601=DIRECTION('',(1.E0,0.E0,0.E0));
#602=AXIS2_PLACEMENT_3D('',#599,#600,#601);
#604=CARTESIAN_POINT('',(1.125E0,1.4E-1,0.E0));
#605=DIRECTION('',(0.E0,-1.E0,0.E0));
#606=DIRECTION('',(-1.E0,0.E0,0.E0));
#607=AXIS2_PLACEMENT_3D('',#604,#605,#606);
#609=DIRECTION('',(0.E0,0.E0,-1.E0));
#610=VECTOR('',#609,2.81E-1);
#611=CARTESIAN_POINT('',(1.2175E0,1.4E-1,1.405E-1));
#612=LINE('',#611,#610);
#613=DIRECTION('',(-1.E0,0.E0,0.E0));
#614=VECTOR('',#613,4.25E-2);
#615=CARTESIAN_POINT('',(1.1675E0,1.4E-1,-9.05E-2));
#616=LINE('',#615,#614);
#617=DIRECTION('',(1.E0,0.E0,0.E0));
#618=VECTOR('',#617,4.25E-2);
#619=CARTESIAN_POINT('',(1.125E0,1.4E-1,9.05E-2));
#620=LINE('',#619,#618);
#621=DIRECTION('',(7.071067811866E-1,-7.071067811865E-1,0.E0));
#622=VECTOR('',#621,6.010407640086E-2);
#623=CARTESIAN_POINT('',(1.1685E0,1.825E-1,0.E0));
#624=LINE('',#623,#622);
#625=CARTESIAN_POINT('',(1.125E0,1.825E-1,0.E0));
#626=DIRECTION('',(0.E0,1.E0,0.E0));
#627=DIRECTION('',(-1.E0,0.E0,0.E0));
#628=AXIS2_PLACEMENT_3D('',#625,#626,#627);
#630=DIRECTION('',(-7.071067811865E-1,-7.071067811866E-1,0.E0));
#631=VECTOR('',#630,6.010407640086E-2);
#632=CARTESIAN_POINT('',(1.0815E0,1.825E-1,0.E0));
#633=LINE('',#632,#631);
#634=CARTESIAN_POINT('',(1.125E0,1.825E-1,0.E0));
#635=DIRECTION('',(0.E0,-1.E0,0.E0));
#636=DIRECTION('',(-1.E0,0.E0,0.E0));
#637=AXIS2_PLACEMENT_3D('',#634,#635,#636);
#639=DIRECTION('',(-4.131062417210E-14,-1.E0,0.E0));
#640=VECTOR('',#639,2.15E-2);
#641=CARTESIAN_POINT('',(1.0815E0,2.04E-1,0.E0));
#642=LINE('',#641,#640);
#643=DIRECTION('',(-4.131062417210E-14,-1.E0,0.E0));
#644=VECTOR('',#643,2.15E-2);
#645=CARTESIAN_POINT('',(1.1685E0,2.04E-1,0.E0));
#646=LINE('',#645,#644);
#647=CARTESIAN_POINT('',(1.1675E0,1.4E-1,-1.405E-1));
#648=DIRECTION('',(0.E0,1.E0,0.E0));
#649=DIRECTION('',(0.E0,0.E0,1.E0));
#650=AXIS2_PLACEMENT_3D('',#647,#648,#649);
#652=DIRECTION('',(0.E0,-1.E0,0.E0));
#653=VECTOR('',#652,1.4E-1);
#654=CARTESIAN_POINT('',(1.1675E0,1.4E-1,-9.05E-2));
#655=LINE('',#654,#653);
#656=DIRECTION('',(0.E0,1.E0,0.E0));
#657=VECTOR('',#656,1.4E-1);
#658=CARTESIAN_POINT('',(1.125E0,0.E0,-9.05E-2));
#659=LINE('',#658,#657);
#660=CARTESIAN_POINT('',(1.125E0,1.4E-1,0.E0));
#661=DIRECTION('',(0.E0,-1.E0,0.E0));
#662=DIRECTION('',(0.E0,0.E0,1.E0));
#663=AXIS2_PLACEMENT_3D('',#660,#661,#662);
#665=CARTESIAN_POINT('',(1.125E0,0.E0,0.E0));
#666=DIRECTION('',(0.E0,1.E0,0.E0));
#667=DIRECTION('',(0.E0,0.E0,-1.E0));
#668=AXIS2_PLACEMENT_3D('',#665,#666,#667);
#670=DIRECTION('',(0.E0,-1.E0,0.E0));
#671=VECTOR('',#670,2.04E-1);
#672=CARTESIAN_POINT('',(1.1125E0,2.04E-1,4.3E-1));
#673=LINE('',#672,#671);
#674=DIRECTION('',(0.E0,-1.E0,0.E0));
#675=VECTOR('',#674,2.04E-1);
#676=CARTESIAN_POINT('',(-1.1125E0,2.04E-1,4.3E-1));
#677=LINE('',#676,#675);
#678=DIRECTION('',(0.E0,-1.E0,0.E0));
#679=VECTOR('',#678,1.67E-1);
#680=CARTESIAN_POINT('',(-1.11E0,2.04E-1,4.3E-1));
#681=LINE('',#680,#679);
#682=DIRECTION('',(1.E0,0.E0,0.E0));
#683=VECTOR('',#682,2.22E0);
#684=CARTESIAN_POINT('',(-1.11E0,3.7E-2,4.3E-1));
#685=LINE('',#684,#683);
#686=DIRECTION('',(0.E0,-1.E0,0.E0));
#687=VECTOR('',#686,1.67E-1);
#688=CARTESIAN_POINT('',(1.11E0,2.04E-1,4.3E-1));
#689=LINE('',#688,#687);
#690=DIRECTION('',(0.E0,-1.E0,0.E0));
#691=VECTOR('',#690,1.67E-1);
#692=CARTESIAN_POINT('',(-1.11E0,2.04E-1,1.600781059358E-1));
#693=LINE('',#692,#691);
#694=CARTESIAN_POINT('',(-1.07E0,2.04E-1,1.600781059358E-1));
#695=DIRECTION('',(0.E0,-1.E0,0.E0));
#696=DIRECTION('',(-1.E0,0.E0,0.E0));
#697=AXIS2_PLACEMENT_3D('',#694,#695,#696);
#699=DIRECTION('',(0.E0,-1.E0,0.E0));
#700=VECTOR('',#699,1.67E-1);
#701=CARTESIAN_POINT('',(-1.079696969697E0,2.04E-1,-1.212712923756E-1));
#702=LINE('',#701,#700);
#703=DIRECTION('',(0.E0,-1.E0,0.E0));
#704=VECTOR('',#703,1.67E-1);
#705=CARTESIAN_POINT('',(-1.079696969697E0,2.04E-1,1.212712923756E-1));
#706=LINE('',#705,#704);
#707=CARTESIAN_POINT('',(-1.07E0,2.04E-1,-1.600781059358E-1));
#708=DIRECTION('',(0.E0,-1.E0,0.E0));
#709=DIRECTION('',(-2.424242424242E-1,0.E0,9.701703390050E-1));
#710=AXIS2_PLACEMENT_3D('',#707,#708,#709);
#712=DIRECTION('',(0.E0,-1.E0,0.E0));
#713=VECTOR('',#712,1.67E-1);
#714=CARTESIAN_POINT('',(-1.11E0,2.04E-1,-1.600781059358E-1));
#715=LINE('',#714,#713);
#716=DIRECTION('',(0.E0,-1.E0,0.E0));
#717=VECTOR('',#716,1.67E-1);
#718=CARTESIAN_POINT('',(1.11E0,2.04E-1,-1.600781059358E-1));
#719=LINE('',#718,#717);
#720=CARTESIAN_POINT('',(1.07E0,2.04E-1,-1.600781059358E-1));
#721=DIRECTION('',(0.E0,-1.E0,0.E0));
#722=DIRECTION('',(1.E0,0.E0,0.E0));
#723=AXIS2_PLACEMENT_3D('',#720,#721,#722);
#725=DIRECTION('',(0.E0,-1.E0,0.E0));
#726=VECTOR('',#725,1.67E-1);
#727=CARTESIAN_POINT('',(1.079696969697E0,2.04E-1,-1.212712923756E-1));
#728=LINE('',#727,#726);
#729=DIRECTION('',(0.E0,-1.E0,0.E0));
#730=VECTOR('',#729,1.67E-1);
#731=CARTESIAN_POINT('',(1.079696969697E0,2.04E-1,1.212712923756E-1));
#732=LINE('',#731,#730);
#733=CARTESIAN_POINT('',(8.453E-1,3.7E-2,1.13E-1));
#734=CARTESIAN_POINT('',(8.453E-1,3.7E-2,2.7E-1));
#735=VERTEX_POINT('',#733);
#736=VERTEX_POINT('',#734);
#737=CARTESIAN_POINT('',(6.883E-1,3.7E-2,2.7E-1));
#738=VERTEX_POINT('',#737);
#739=CARTESIAN_POINT('',(6.883E-1,3.7E-2,1.13E-1));
#740=VERTEX_POINT('',#739);
#741=CARTESIAN_POINT('',(6.193E-1,3.7E-2,1.14E-1));
#742=CARTESIAN_POINT('',(6.193E-1,3.7E-2,2.91E-1));
#743=VERTEX_POINT('',#741);
#744=VERTEX_POINT('',#742);
#745=CARTESIAN_POINT('',(3.933E-1,3.7E-2,2.91E-1));
#746=VERTEX_POINT('',#745);
#747=CARTESIAN_POINT('',(3.933E-1,3.7E-2,1.14E-1));
#748=VERTEX_POINT('',#747);
#749=CARTESIAN_POINT('',(3.223E-1,3.7E-2,1.13E-1));
#750=CARTESIAN_POINT('',(3.223E-1,3.7E-2,2.7E-1));
#751=VERTEX_POINT('',#749);
#752=VERTEX_POINT('',#750);
#753=CARTESIAN_POINT('',(1.653E-1,3.7E-2,2.7E-1));
#754=VERTEX_POINT('',#753);
#755=CARTESIAN_POINT('',(1.653E-1,3.7E-2,1.13E-1));
#756=VERTEX_POINT('',#755);
#757=CARTESIAN_POINT('',(-1.11E0,3.7E-2,4.3E-1));
#758=CARTESIAN_POINT('',(1.11E0,3.7E-2,4.3E-1));
#759=VERTEX_POINT('',#757);
#760=VERTEX_POINT('',#758);
#761=CARTESIAN_POINT('',(-1.11E0,2.04E-1,4.3E-1));
#762=VERTEX_POINT('',#761);
#763=CARTESIAN_POINT('',(1.11E0,2.04E-1,4.3E-1));
#764=VERTEX_POINT('',#763);
#765=CARTESIAN_POINT('',(-1.11E0,2.04E-1,-4.3E-1));
#766=CARTESIAN_POINT('',(-1.11E0,3.7E-2,-4.3E-1));
#767=VERTEX_POINT('',#765);
#768=VERTEX_POINT('',#766);
#769=CARTESIAN_POINT('',(1.11E0,2.04E-1,-4.3E-1));
#770=CARTESIAN_POINT('',(1.11E0,3.7E-2,-4.3E-1));
#771=VERTEX_POINT('',#769);
#772=VERTEX_POINT('',#770);
#773=CARTESIAN_POINT('',(8.453E-1,7.9E-2,1.13E-1));
#774=CARTESIAN_POINT('',(8.453E-1,7.9E-2,2.7E-1));
#775=VERTEX_POINT('',#773);
#776=VERTEX_POINT('',#774);
#777=CARTESIAN_POINT('',(6.883E-1,7.9E-2,2.7E-1));
#778=VERTEX_POINT('',#777);
#779=CARTESIAN_POINT('',(6.883E-1,7.9E-2,1.13E-1));
#780=VERTEX_POINT('',#779);
#781=CARTESIAN_POINT('',(3.223E-1,7.9E-2,1.13E-1));
#782=CARTESIAN_POINT('',(3.223E-1,7.9E-2,2.7E-1));
#783=VERTEX_POINT('',#781);
#784=VERTEX_POINT('',#782);
#785=CARTESIAN_POINT('',(1.653E-1,7.9E-2,2.7E-1));
#786=VERTEX_POINT('',#785);
#787=CARTESIAN_POINT('',(1.653E-1,7.9E-2,1.13E-1));
#788=VERTEX_POINT('',#787);
#789=CARTESIAN_POINT('',(6.193E-1,1.67E-1,1.14E-1));
#790=CARTESIAN_POINT('',(6.193E-1,1.67E-1,2.91E-1));
#791=VERTEX_POINT('',#789);
#792=VERTEX_POINT('',#790);
#793=CARTESIAN_POINT('',(3.933E-1,1.67E-1,2.91E-1));
#794=VERTEX_POINT('',#793);
#795=CARTESIAN_POINT('',(3.933E-1,1.67E-1,1.14E-1));
#796=VERTEX_POINT('',#795);
#797=CARTESIAN_POINT('',(1.1125E0,0.E0,-4.3E-1));
#798=CARTESIAN_POINT('',(1.2175E0,0.E0,-3.25E-1));
#799=VERTEX_POINT('',#797);
#800=VERTEX_POINT('',#798);
#801=CARTESIAN_POINT('',(1.2175E0,2.04E-1,-3.25E-1));
#802=VERTEX_POINT('',#801);
#803=CARTESIAN_POINT('',(1.1125E0,2.04E-1,-4.3E-1));
#804=VERTEX_POINT('',#803);
#805=CARTESIAN_POINT('',(1.2175E0,0.E0,3.25E-1));
#806=CARTESIAN_POINT('',(1.1125E0,0.E0,4.3E-1));
#807=VERTEX_POINT('',#805);
#808=VERTEX_POINT('',#806);
#809=CARTESIAN_POINT('',(1.1125E0,2.04E-1,4.3E-1));
#810=VERTEX_POINT('',#809);
#811=CARTESIAN_POINT('',(1.2175E0,2.04E-1,3.25E-1));
#812=VERTEX_POINT('',#811);
#813=CARTESIAN_POINT('',(-1.1125E0,0.E0,4.3E-1));
#814=CARTESIAN_POINT('',(-1.2175E0,0.E0,3.25E-1));
#815=VERTEX_POINT('',#813);
#816=VERTEX_POINT('',#814);
#817=CARTESIAN_POINT('',(-1.2175E0,2.04E-1,3.25E-1));
#818=VERTEX_POINT('',#817);
#819=CARTESIAN_POINT('',(-1.1125E0,2.04E-1,4.3E-1));
#820=VERTEX_POINT('',#819);
#821=CARTESIAN_POINT('',(-1.2175E0,0.E0,-3.25E-1));
#822=CARTESIAN_POINT('',(-1.1125E0,0.E0,-4.3E-1));
#823=VERTEX_POINT('',#821);
#824=VERTEX_POINT('',#822);
#825=CARTESIAN_POINT('',(-1.1125E0,2.04E-1,-4.3E-1));
#826=VERTEX_POINT('',#825);
#827=CARTESIAN_POINT('',(-1.2175E0,2.04E-1,-3.25E-1));
#828=VERTEX_POINT('',#827);
#829=CARTESIAN_POINT('',(1.079696969697E0,3.7E-2,-1.212712923756E-1));
#830=CARTESIAN_POINT('',(1.11E0,3.7E-2,-1.600781059358E-1));
#831=VERTEX_POINT('',#829);
#832=VERTEX_POINT('',#830);
#833=CARTESIAN_POINT('',(1.11E0,2.04E-1,-1.600781059358E-1));
#834=VERTEX_POINT('',#833);
#835=CARTESIAN_POINT('',(1.079696969697E0,2.04E-1,-1.212712923756E-1));
#836=VERTEX_POINT('',#835);
#837=CARTESIAN_POINT('',(1.11E0,3.7E-2,1.600781059358E-1));
#838=CARTESIAN_POINT('',(1.079696969697E0,3.7E-2,1.212712923756E-1));
#839=VERTEX_POINT('',#837);
#840=VERTEX_POINT('',#838);
#841=CARTESIAN_POINT('',(1.079696969697E0,2.04E-1,1.212712923756E-1));
#842=VERTEX_POINT('',#841);
#843=CARTESIAN_POINT('',(1.11E0,2.04E-1,1.600781059358E-1));
#844=VERTEX_POINT('',#843);
#845=CARTESIAN_POINT('',(-1.11E0,3.7E-2,-1.600781059358E-1));
#846=CARTESIAN_POINT('',(-1.079696969697E0,3.7E-2,-1.212712923756E-1));
#847=VERTEX_POINT('',#845);
#848=VERTEX_POINT('',#846);
#849=CARTESIAN_POINT('',(-1.079696969697E0,2.04E-1,-1.212712923756E-1));
#850=VERTEX_POINT('',#849);
#851=CARTESIAN_POINT('',(-1.11E0,2.04E-1,-1.600781059358E-1));
#852=VERTEX_POINT('',#851);
#853=CARTESIAN_POINT('',(-1.079696969697E0,3.7E-2,1.212712923756E-1));
#854=CARTESIAN_POINT('',(-1.11E0,3.7E-2,1.600781059358E-1));
#855=VERTEX_POINT('',#853);
#856=VERTEX_POINT('',#854);
#857=CARTESIAN_POINT('',(-1.11E0,2.04E-1,1.600781059358E-1));
#858=VERTEX_POINT('',#857);
#859=CARTESIAN_POINT('',(-1.079696969697E0,2.04E-1,1.212712923756E-1));
#860=VERTEX_POINT('',#859);
#861=CARTESIAN_POINT('',(-8.125E-1,3.7E-2,-3.7E-1));
#862=CARTESIAN_POINT('',(-8.125E-1,0.E0,-3.7E-1));
#863=VERTEX_POINT('',#861);
#864=VERTEX_POINT('',#862);
#865=CARTESIAN_POINT('',(3.365E-1,3.7E-2,-3.7E-1));
#866=CARTESIAN_POINT('',(3.365E-1,0.E0,-3.7E-1));
#867=VERTEX_POINT('',#865);
#868=VERTEX_POINT('',#866);
#869=CARTESIAN_POINT('',(3.965E-1,3.7E-2,-4.3E-1));
#870=CARTESIAN_POINT('',(3.765E-1,3.7E-2,-4.1E-1));
#871=VERTEX_POINT('',#869);
#872=VERTEX_POINT('',#870);
#873=CARTESIAN_POINT('',(3.765E-1,0.E0,-4.1E-1));
#874=VERTEX_POINT('',#873);
#875=CARTESIAN_POINT('',(3.965E-1,0.E0,-4.3E-1));
#876=VERTEX_POINT('',#875);
#877=CARTESIAN_POINT('',(-8.725E-1,0.E0,-4.3E-1));
#878=CARTESIAN_POINT('',(-8.525E-1,0.E0,-4.1E-1));
#879=VERTEX_POINT('',#877);
#880=VERTEX_POINT('',#878);
#881=CARTESIAN_POINT('',(-8.525E-1,3.7E-2,-4.1E-1));
#882=VERTEX_POINT('',#881);
#883=CARTESIAN_POINT('',(-8.725E-1,3.7E-2,-4.3E-1));
#884=VERTEX_POINT('',#883);
#885=CARTESIAN_POINT('',(-1.0815E0,2.04E-1,0.E0));
#886=CARTESIAN_POINT('',(-1.1685E0,2.04E-1,0.E0));
#887=VERTEX_POINT('',#885);
#888=VERTEX_POINT('',#886);
#889=CARTESIAN_POINT('',(-1.1685E0,1.825E-1,0.E0));
#890=VERTEX_POINT('',#889);
#891=CARTESIAN_POINT('',(-1.0815E0,1.825E-1,0.E0));
#892=VERTEX_POINT('',#891);
#893=CARTESIAN_POINT('',(1.1685E0,2.04E-1,0.E0));
#894=CARTESIAN_POINT('',(1.0815E0,2.04E-1,0.E0));
#895=VERTEX_POINT('',#893);
#896=VERTEX_POINT('',#894);
#897=CARTESIAN_POINT('',(1.0815E0,1.825E-1,0.E0));
#898=VERTEX_POINT('',#897);
#899=CARTESIAN_POINT('',(1.1685E0,1.825E-1,0.E0));
#900=VERTEX_POINT('',#899);
#901=CARTESIAN_POINT('',(-1.211E0,1.4E-1,0.E0));
#902=VERTEX_POINT('',#901);
#903=CARTESIAN_POINT('',(-1.125E0,1.4E-1,9.05E-2));
#904=CARTESIAN_POINT('',(-1.125E0,0.E0,9.05E-2));
#905=VERTEX_POINT('',#903);
#906=VERTEX_POINT('',#904);
#907=CARTESIAN_POINT('',(-1.125E0,1.4E-1,-9.05E-2));
#908=CARTESIAN_POINT('',(-1.125E0,0.E0,-9.05E-2));
#909=VERTEX_POINT('',#907);
#910=VERTEX_POINT('',#908);
#911=CARTESIAN_POINT('',(-1.039E0,1.4E-1,0.E0));
#912=VERTEX_POINT('',#911);
#913=CARTESIAN_POINT('',(1.125E0,1.4E-1,9.05E-2));
#914=CARTESIAN_POINT('',(1.125E0,1.4E-1,-9.05E-2));
#915=VERTEX_POINT('',#913);
#916=VERTEX_POINT('',#914);
#917=CARTESIAN_POINT('',(1.211E0,1.4E-1,0.E0));
#918=VERTEX_POINT('',#917);
#919=CARTESIAN_POINT('',(1.125E0,0.E0,9.05E-2));
#920=VERTEX_POINT('',#919);
#921=CARTESIAN_POINT('',(1.125E0,0.E0,-9.05E-2));
#922=VERTEX_POINT('',#921);
#923=CARTESIAN_POINT('',(1.039E0,1.4E-1,0.E0));
#924=VERTEX_POINT('',#923);
#925=CARTESIAN_POINT('',(-1.2175E0,0.E0,1.405E-1));
#926=CARTESIAN_POINT('',(-1.1675E0,0.E0,9.05E-2));
#927=VERTEX_POINT('',#925);
#928=VERTEX_POINT('',#926);
#929=CARTESIAN_POINT('',(-1.1675E0,1.4E-1,9.05E-2));
#930=VERTEX_POINT('',#929);
#931=CARTESIAN_POINT('',(-1.2175E0,1.4E-1,1.405E-1));
#932=VERTEX_POINT('',#931);
#933=CARTESIAN_POINT('',(-1.1675E0,0.E0,-9.05E-2));
#934=CARTESIAN_POINT('',(-1.1675E0,1.4E-1,-9.05E-2));
#935=VERTEX_POINT('',#933);
#936=VERTEX_POINT('',#934);
#937=CARTESIAN_POINT('',(-1.2175E0,0.E0,-1.405E-1));
#938=VERTEX_POINT('',#937);
#939=CARTESIAN_POINT('',(-1.2175E0,1.4E-1,-1.405E-1));
#940=VERTEX_POINT('',#939);
#941=CARTESIAN_POINT('',(1.1675E0,0.E0,9.05E-2));
#942=CARTESIAN_POINT('',(1.1675E0,1.4E-1,9.05E-2));
#943=VERTEX_POINT('',#941);
#944=VERTEX_POINT('',#942);
#945=CARTESIAN_POINT('',(1.2175E0,0.E0,1.405E-1));
#946=VERTEX_POINT('',#945);
#947=CARTESIAN_POINT('',(1.2175E0,1.4E-1,1.405E-1));
#948=VERTEX_POINT('',#947);
#949=CARTESIAN_POINT('',(1.2175E0,0.E0,-1.405E-1));
#950=CARTESIAN_POINT('',(1.1675E0,0.E0,-9.05E-2));
#951=VERTEX_POINT('',#949);
#952=VERTEX_POINT('',#950);
#953=CARTESIAN_POINT('',(1.1675E0,1.4E-1,-9.05E-2));
#954=VERTEX_POINT('',#953);
#955=CARTESIAN_POINT('',(1.2175E0,1.4E-1,-1.405E-1));
#956=VERTEX_POINT('',#955);
#957=CARTESIAN_POINT('',(0.E0,0.E0,0.E0));
#958=DIRECTION('',(0.E0,1.E0,0.E0));
#959=DIRECTION('',(1.E0,0.E0,0.E0));
#960=AXIS2_PLACEMENT_3D('',#957,#958,#959);
#961=PLANE('',#960);
#963=ORIENTED_EDGE('',*,*,#962,.F.);
#965=ORIENTED_EDGE('',*,*,#964,.T.);
#967=ORIENTED_EDGE('',*,*,#966,.F.);
#969=ORIENTED_EDGE('',*,*,#968,.T.);
#971=ORIENTED_EDGE('',*,*,#970,.F.);
#973=ORIENTED_EDGE('',*,*,#972,.T.);
#975=ORIENTED_EDGE('',*,*,#974,.F.);
#977=ORIENTED_EDGE('',*,*,#976,.T.);
#979=ORIENTED_EDGE('',*,*,#978,.F.);
#981=ORIENTED_EDGE('',*,*,#980,.F.);
#983=ORIENTED_EDGE('',*,*,#982,.F.);
#985=ORIENTED_EDGE('',*,*,#984,.T.);
#987=ORIENTED_EDGE('',*,*,#986,.F.);
#989=ORIENTED_EDGE('',*,*,#988,.T.);
#991=ORIENTED_EDGE('',*,*,#990,.F.);
#993=ORIENTED_EDGE('',*,*,#992,.F.);
#995=ORIENTED_EDGE('',*,*,#994,.F.);
#997=ORIENTED_EDGE('',*,*,#996,.F.);
#999=ORIENTED_EDGE('',*,*,#998,.F.);
#1001=ORIENTED_EDGE('',*,*,#1000,.T.);
#1003=ORIENTED_EDGE('',*,*,#1002,.F.);
#1005=ORIENTED_EDGE('',*,*,#1004,.T.);
#1007=ORIENTED_EDGE('',*,*,#1006,.F.);
#1009=ORIENTED_EDGE('',*,*,#1008,.T.);
#1011=ORIENTED_EDGE('',*,*,#1010,.F.);
#1013=ORIENTED_EDGE('',*,*,#1012,.F.);
#1014=EDGE_LOOP('',(#963,#965,#967,#969,#971,#973,#975,#977,#979,#981,#983,#985,
#987,#989,#991,#993,#995,#997,#999,#1001,#1003,#1005,#1007,#1009,#1011,#1013));
#1015=FACE_OUTER_BOUND('',#1014,.F.);
#1016=ADVANCED_FACE('',(#1015),#961,.F.);
#1017=CARTESIAN_POINT('',(-1.1675E0,4.699344E-1,1.405E-1));
#1018=DIRECTION('',(0.E0,-1.E0,0.E0));
#1019=DIRECTION('',(-1.E0,0.E0,0.E0));
#1020=AXIS2_PLACEMENT_3D('',#1017,#1018,#1019);
#1021=CYLINDRICAL_SURFACE('',#1020,5.E-2);
#1022=ORIENTED_EDGE('',*,*,#962,.T.);
#1024=ORIENTED_EDGE('',*,*,#1023,.F.);
#1026=ORIENTED_EDGE('',*,*,#1025,.T.);
#1028=ORIENTED_EDGE('',*,*,#1027,.T.);
#1029=EDGE_LOOP('',(#1022,#1024,#1026,#1028));
#1030=FACE_OUTER_BOUND('',#1029,.F.);
#1031=ADVANCED_FACE('',(#1030),#1021,.T.);
#1032=CARTESIAN_POINT('',(-1.125E0,1.4E-1,9.05E-2));
#1033=DIRECTION('',(0.E0,0.E0,1.E0));
#1034=DIRECTION('',(-1.E0,0.E0,0.E0));
#1035=AXIS2_PLACEMENT_3D('',#1032,#1033,#1034);
#1036=PLANE('',#1035);
#1037=ORIENTED_EDGE('',*,*,#1023,.T.);
#1038=ORIENTED_EDGE('',*,*,#1012,.T.);
#1040=ORIENTED_EDGE('',*,*,#1039,.F.);
#1042=ORIENTED_EDGE('',*,*,#1041,.T.);
#1043=EDGE_LOOP('',(#1037,#1038,#1040,#1042));
#1044=FACE_OUTER_BOUND('',#1043,.F.);
#1045=ADVANCED_FACE('',(#1044),#1036,.F.);
#1046=CARTESIAN_POINT('',(-1.125E0,1.4E-1,0.E0));
#1047=DIRECTION('',(0.E0,-1.E0,0.E0));
#1048=DIRECTION('',(1.E0,0.E0,0.E0));
#1049=AXIS2_PLACEMENT_3D('',#1046,#1047,#1048);
#1050=CYLINDRICAL_SURFACE('',#1049,9.05E-2);
#1051=ORIENTED_EDGE('',*,*,#1010,.T.);
#1053=ORIENTED_EDGE('',*,*,#1052,.F.);
#1055=ORIENTED_EDGE('',*,*,#1054,.T.);
#1056=ORIENTED_EDGE('',*,*,#1039,.T.);
#1057=EDGE_LOOP('',(#1051,#1053,#1055,#1056));
#1058=FACE_OUTER_BOUND('',#1057,.F.);
#1059=ADVANCED_FACE('',(#1058),#1050,.F.);
#1060=CARTESIAN_POINT('',(-1.2175E0,1.4E-1,-9.05E-2));
#1061=DIRECTION('',(0.E0,0.E0,-1.E0));
#1062=DIRECTION('',(1.E0,0.E0,0.E0));
#1063=AXIS2_PLACEMENT_3D('',#1060,#1061,#1062);
#1064=PLANE('',#1063);
#1066=ORIENTED_EDGE('',*,*,#1065,.T.);
#1068=ORIENTED_EDGE('',*,*,#1067,.T.);
#1069=ORIENTED_EDGE('',*,*,#1052,.T.);
#1070=ORIENTED_EDGE('',*,*,#1008,.F.);
#1071=EDGE_LOOP('',(#1066,#1068,#1069,#1070));
#1072=FACE_OUTER_BOUND('',#1071,.F.);
#1073=ADVANCED_FACE('',(#1072),#1064,.F.);
#1074=CARTESIAN_POINT('',(-1.1675E0,-2.659344E-1,-1.405E-1));
#1075=DIRECTION('',(0.E0,1.E0,0.E0));
#1076=DIRECTION('',(-1.E0,0.E0,0.E0));
#1077=AXIS2_PLACEMENT_3D('',#1074,#1075,#1076);
#1078=CYLINDRICAL_SURFACE('',#1077,5.E-2);
#1079=ORIENTED_EDGE('',*,*,#1065,.F.);
#1080=ORIENTED_EDGE('',*,*,#1006,.T.);
#1082=ORIENTED_EDGE('',*,*,#1081,.T.);
#1084=ORIENTED_EDGE('',*,*,#1083,.T.);
#1085=EDGE_LOOP('',(#1079,#1080,#1082,#1084));
#1086=FACE_OUTER_BOUND('',#1085,.F.);
#1087=ADVANCED_FACE('',(#1086),#1078,.T.);
#1088=CARTESIAN_POINT('',(-1.2175E0,0.E0,-4.3E-1));
#1089=DIRECTION('',(-1.E0,0.E0,0.E0));
#1090=DIRECTION('',(0.E0,0.E0,1.E0));
#1091=AXIS2_PLACEMENT_3D('',#1088,#1089,#1090);
#1092=PLANE('',#1091);
#1093=ORIENTED_EDGE('',*,*,#1027,.F.);
#1095=ORIENTED_EDGE('',*,*,#1094,.F.);
#1096=ORIENTED_EDGE('',*,*,#1081,.F.);
#1097=ORIENTED_EDGE('',*,*,#1004,.F.);
#1099=ORIENTED_EDGE('',*,*,#1098,.F.);
#1101=ORIENTED_EDGE('',*,*,#1100,.T.);
#1103=ORIENTED_EDGE('',*,*,#1102,.T.);
#1104=ORIENTED_EDGE('',*,*,#964,.F.);
#1105=EDGE_LOOP('',(#1093,#1095,#1096,#1097,#1099,#1101,#1103,#1104));
#1106=FACE_OUTER_BOUND('',#1105,.F.);
#1107=ADVANCED_FACE('',(#1106),#1092,.T.);
#1108=CARTESIAN_POINT('',(0.E0,1.4E-1,0.E0));
#1109=DIRECTION('',(0.E0,-1.E0,0.E0));
#1110=DIRECTION('',(1.E0,0.E0,0.E0));
#1111=AXIS2_PLACEMENT_3D('',#1108,#1109,#1110);
#1112=PLANE('',#1111);
#1113=ORIENTED_EDGE('',*,*,#1067,.F.);
#1114=ORIENTED_EDGE('',*,*,#1083,.F.);
#1115=ORIENTED_EDGE('',*,*,#1094,.T.);
#1116=ORIENTED_EDGE('',*,*,#1025,.F.);
#1117=ORIENTED_EDGE('',*,*,#1041,.F.);
#1118=ORIENTED_EDGE('',*,*,#1054,.F.);
#1119=EDGE_LOOP('',(#1113,#1114,#1115,#1116,#1117,#1118));
#1120=FACE_OUTER_BOUND('',#1119,.F.);
#1122=ORIENTED_EDGE('',*,*,#1121,.T.);
#1124=ORIENTED_EDGE('',*,*,#1123,.T.);
#1125=EDGE_LOOP('',(#1122,#1124));
#1126=FACE_BOUND('',#1125,.F.);
#1127=ADVANCED_FACE('',(#1120,#1126),#1112,.T.);
#1128=CARTESIAN_POINT('',(-1.125E0,1.6125E-1,0.E0));
#1129=DIRECTION('',(0.E0,-1.E0,0.E0));
#1130=DIRECTION('',(-1.E0,0.E0,0.E0));
#1131=AXIS2_PLACEMENT_3D('',#1128,#1129,#1130);
#1132=CONICAL_SURFACE('',#1131,6.475E-2,4.5E1);
#1133=ORIENTED_EDGE('',*,*,#1121,.F.);
#1135=ORIENTED_EDGE('',*,*,#1134,.F.);
#1137=ORIENTED_EDGE('',*,*,#1136,.T.);
#1139=ORIENTED_EDGE('',*,*,#1138,.T.);
#1140=EDGE_LOOP('',(#1133,#1135,#1137,#1139));
#1141=FACE_OUTER_BOUND('',#1140,.F.);
#1142=ADVANCED_FACE('',(#1141),#1132,.F.);
#1143=CARTESIAN_POINT('',(-1.125E0,1.6125E-1,0.E0));
#1144=DIRECTION('',(0.E0,-1.E0,0.E0));
#1145=DIRECTION('',(-1.E0,0.E0,0.E0));
#1146=AXIS2_PLACEMENT_3D('',#1143,#1144,#1145);
#1147=CONICAL_SURFACE('',#1146,6.475E-2,4.5E1);
#1148=ORIENTED_EDGE('',*,*,#1123,.F.);
#1149=ORIENTED_EDGE('',*,*,#1138,.F.);
#1151=ORIENTED_EDGE('',*,*,#1150,.F.);
#1152=ORIENTED_EDGE('',*,*,#1134,.T.);
#1153=EDGE_LOOP('',(#1148,#1149,#1151,#1152));
#1154=FACE_OUTER_BOUND('',#1153,.F.);
#1155=ADVANCED_FACE('',(#1154),#1147,.F.);
#1156=CARTESIAN_POINT('',(-1.125E0,2.2862E-1,0.E0));
#1157=DIRECTION('',(0.E0,-1.E0,0.E0));
#1158=DIRECTION('',(-1.E0,0.E0,0.E0));
#1159=AXIS2_PLACEMENT_3D('',#1156,#1157,#1158);
#1160=CYLINDRICAL_SURFACE('',#1159,4.35E-2);
#1162=ORIENTED_EDGE('',*,*,#1161,.F.);
#1164=ORIENTED_EDGE('',*,*,#1163,.T.);
#1165=ORIENTED_EDGE('',*,*,#1150,.T.);
#1167=ORIENTED_EDGE('',*,*,#1166,.F.);
#1168=EDGE_LOOP('',(#1162,#1164,#1165,#1167));
#1169=FACE_OUTER_BOUND('',#1168,.F.);
#1170=ADVANCED_FACE('',(#1169),#1160,.F.);
#1171=CARTESIAN_POINT('',(0.E0,2.04E-1,0.E0));
#1172=DIRECTION('',(0.E0,1.E0,0.E0));
#1173=DIRECTION('',(1.E0,0.E0,0.E0));
#1174=AXIS2_PLACEMENT_3D('',#1171,#1172,#1173);
#1175=PLANE('',#1174);
#1177=ORIENTED_EDGE('',*,*,#1176,.T.);
#1179=ORIENTED_EDGE('',*,*,#1178,.F.);
#1181=ORIENTED_EDGE('',*,*,#1180,.F.);
#1183=ORIENTED_EDGE('',*,*,#1182,.F.);
#1185=ORIENTED_EDGE('',*,*,#1184,.F.);
#1187=ORIENTED_EDGE('',*,*,#1186,.F.);
#1189=ORIENTED_EDGE('',*,*,#1188,.F.);
#1191=ORIENTED_EDGE('',*,*,#1190,.F.);
#1193=ORIENTED_EDGE('',*,*,#1192,.F.);
#1195=ORIENTED_EDGE('',*,*,#1194,.F.);
#1196=EDGE_LOOP('',(#1177,#1179,#1181,#1183,#1185,#1187,#1189,#1191,#1193,
#1195));
#1197=FACE_OUTER_BOUND('',#1196,.F.);
#1199=ORIENTED_EDGE('',*,*,#1198,.T.);
#1201=ORIENTED_EDGE('',*,*,#1200,.T.);
#1202=EDGE_LOOP('',(#1199,#1201));
#1203=FACE_BOUND('',#1202,.F.);
#1204=ADVANCED_FACE('',(#1197,#1203),#1175,.T.);
#1205=CARTESIAN_POINT('',(0.E0,2.04E-1,0.E0));
#1206=DIRECTION('',(0.E0,1.E0,0.E0));
#1207=DIRECTION('',(1.E0,0.E0,0.E0));
#1208=AXIS2_PLACEMENT_3D('',#1205,#1206,#1207);
#1209=PLANE('',#1208);
#1211=ORIENTED_EDGE('',*,*,#1210,.T.);
#1213=ORIENTED_EDGE('',*,*,#1212,.F.);
#1215=ORIENTED_EDGE('',*,*,#1214,.F.);
#1217=ORIENTED_EDGE('',*,*,#1216,.F.);
#1219=ORIENTED_EDGE('',*,*,#1218,.F.);
#1221=ORIENTED_EDGE('',*,*,#1220,.F.);
#1223=ORIENTED_EDGE('',*,*,#1222,.F.);
#1224=ORIENTED_EDGE('',*,*,#1100,.F.);
#1226=ORIENTED_EDGE('',*,*,#1225,.F.);
#1228=ORIENTED_EDGE('',*,*,#1227,.F.);
#1229=EDGE_LOOP('',(#1211,#1213,#1215,#1217,#1219,#1221,#1223,#1224,#1226,
#1228));
#1230=FACE_OUTER_BOUND('',#1229,.F.);
#1232=ORIENTED_EDGE('',*,*,#1231,.T.);
#1233=ORIENTED_EDGE('',*,*,#1161,.T.);
#1234=EDGE_LOOP('',(#1232,#1233));
#1235=FACE_BOUND('',#1234,.F.);
#1236=ADVANCED_FACE('',(#1230,#1235),#1209,.T.);
#1237=CARTESIAN_POINT('',(1.11E0,2.04E-1,4.3E-1));
#1238=DIRECTION('',(1.E0,0.E0,0.E0));
#1239=DIRECTION('',(0.E0,0.E0,-1.E0));
#1240=AXIS2_PLACEMENT_3D('',#1237,#1238,#1239);
#1241=PLANE('',#1240);
#1243=ORIENTED_EDGE('',*,*,#1242,.F.);
#1244=ORIENTED_EDGE('',*,*,#1176,.F.);
#1246=ORIENTED_EDGE('',*,*,#1245,.T.);
#1248=ORIENTED_EDGE('',*,*,#1247,.T.);
#1249=EDGE_LOOP('',(#1243,#1244,#1246,#1248));
#1250=FACE_OUTER_BOUND('',#1249,.F.);
#1251=ADVANCED_FACE('',(#1250),#1241,.F.);
#1252=CARTESIAN_POINT('',(1.07E0,4.699344E-1,1.600781059358E-1));
#1253=DIRECTION('',(0.E0,-1.E0,0.E0));
#1254=DIRECTION('',(2.424242424242E-1,0.E0,-9.701703390050E-1));
#1255=AXIS2_PLACEMENT_3D('',#1252,#1253,#1254);
#1256=CYLINDRICAL_SURFACE('',#1255,4.E-2);
#1258=ORIENTED_EDGE('',*,*,#1257,.T.);
#1260=ORIENTED_EDGE('',*,*,#1259,.F.);
#1261=ORIENTED_EDGE('',*,*,#1178,.T.);
#1262=ORIENTED_EDGE('',*,*,#1242,.T.);
#1263=EDGE_LOOP('',(#1258,#1260,#1261,#1262));
#1264=FACE_OUTER_BOUND('',#1263,.F.);
#1265=ADVANCED_FACE('',(#1264),#1256,.F.);
#1266=CARTESIAN_POINT('',(0.E0,3.7E-2,0.E0));
#1267=DIRECTION('',(0.E0,1.E0,0.E0));
#1268=DIRECTION('',(1.E0,0.E0,0.E0));
#1269=AXIS2_PLACEMENT_3D('',#1266,#1267,#1268);
#1270=PLANE('',#1269);
#1272=ORIENTED_EDGE('',*,*,#1271,.F.);
#1274=ORIENTED_EDGE('',*,*,#1273,.T.);
#1276=ORIENTED_EDGE('',*,*,#1275,.F.);
#1278=ORIENTED_EDGE('',*,*,#1277,.F.);
#1280=ORIENTED_EDGE('',*,*,#1279,.F.);
#1281=ORIENTED_EDGE('',*,*,#1257,.F.);
#1282=ORIENTED_EDGE('',*,*,#1247,.F.);
#1284=ORIENTED_EDGE('',*,*,#1283,.F.);
#1286=ORIENTED_EDGE('',*,*,#1285,.F.);
#1288=ORIENTED_EDGE('',*,*,#1287,.F.);
#1290=ORIENTED_EDGE('',*,*,#1289,.F.);
#1292=ORIENTED_EDGE('',*,*,#1291,.F.);
#1294=ORIENTED_EDGE('',*,*,#1293,.F.);
#1296=ORIENTED_EDGE('',*,*,#1295,.T.);
#1298=ORIENTED_EDGE('',*,*,#1297,.F.);
#1300=ORIENTED_EDGE('',*,*,#1299,.F.);
#1302=ORIENTED_EDGE('',*,*,#1301,.T.);
#1304=ORIENTED_EDGE('',*,*,#1303,.F.);
#1305=EDGE_LOOP('',(#1272,#1274,#1276,#1278,#1280,#1281,#1282,#1284,#1286,#1288,
#1290,#1292,#1294,#1296,#1298,#1300,#1302,#1304));
#1306=FACE_OUTER_BOUND('',#1305,.F.);
#1308=ORIENTED_EDGE('',*,*,#1307,.F.);
#1310=ORIENTED_EDGE('',*,*,#1309,.F.);
#1312=ORIENTED_EDGE('',*,*,#1311,.F.);
#1314=ORIENTED_EDGE('',*,*,#1313,.F.);
#1315=EDGE_LOOP('',(#1308,#1310,#1312,#1314));
#1316=FACE_BOUND('',#1315,.F.);
#1318=ORIENTED_EDGE('',*,*,#1317,.F.);
#1320=ORIENTED_EDGE('',*,*,#1319,.F.);
#1322=ORIENTED_EDGE('',*,*,#1321,.F.);
#1324=ORIENTED_EDGE('',*,*,#1323,.F.);
#1325=EDGE_LOOP('',(#1318,#1320,#1322,#1324));
#1326=FACE_BOUND('',#1325,.F.);
#1328=ORIENTED_EDGE('',*,*,#1327,.F.);
#1330=ORIENTED_EDGE('',*,*,#1329,.F.);
#1332=ORIENTED_EDGE('',*,*,#1331,.F.);
#1334=ORIENTED_EDGE('',*,*,#1333,.F.);
#1335=EDGE_LOOP('',(#1328,#1330,#1332,#1334));
#1336=FACE_BOUND('',#1335,.F.);
#1337=ADVANCED_FACE('',(#1306,#1316,#1326,#1336),#1270,.T.);
#1338=CARTESIAN_POINT('',(8.453E-1,2.04E-1,1.13E-1));
#1339=DIRECTION('',(-1.E0,0.E0,0.E0));
#1340=DIRECTION('',(0.E0,0.E0,1.E0));
#1341=AXIS2_PLACEMENT_3D('',#1338,#1339,#1340);
#1342=PLANE('',#1341);
#1344=ORIENTED_EDGE('',*,*,#1343,.F.);
#1346=ORIENTED_EDGE('',*,*,#1345,.T.);
#1347=ORIENTED_EDGE('',*,*,#1327,.T.);
#1349=ORIENTED_EDGE('',*,*,#1348,.F.);
#1350=EDGE_LOOP('',(#1344,#1346,#1347,#1349));
#1351=FACE_OUTER_BOUND('',#1350,.F.);
#1352=ADVANCED_FACE('',(#1351),#1342,.F.);
#1353=CARTESIAN_POINT('',(0.E0,7.9E-2,0.E0));
#1354=DIRECTION('',(0.E0,1.E0,0.E0));
#1355=DIRECTION('',(0.E0,0.E0,1.E0));
#1356=AXIS2_PLACEMENT_3D('',#1353,#1354,#1355);
#1357=PLANE('',#1356);
#1358=ORIENTED_EDGE('',*,*,#1343,.T.);
#1360=ORIENTED_EDGE('',*,*,#1359,.T.);
#1362=ORIENTED_EDGE('',*,*,#1361,.T.);
#1364=ORIENTED_EDGE('',*,*,#1363,.T.);
#1365=EDGE_LOOP('',(#1358,#1360,#1362,#1364));
#1366=FACE_OUTER_BOUND('',#1365,.F.);
#1367=ADVANCED_FACE('',(#1366),#1357,.T.);
#1368=CARTESIAN_POINT('',(0.E0,7.9E-2,0.E0));
#1369=DIRECTION('',(0.E0,1.E0,0.E0));
#1370=DIRECTION('',(0.E0,0.E0,1.E0));
#1371=AXIS2_PLACEMENT_3D('',#1368,#1369,#1370);
#1372=PLANE('',#1371);
#1374=ORIENTED_EDGE('',*,*,#1373,.T.);
#1376=ORIENTED_EDGE('',*,*,#1375,.T.);
#1378=ORIENTED_EDGE('',*,*,#1377,.T.);
#1380=ORIENTED_EDGE('',*,*,#1379,.T.);
#1381=EDGE_LOOP('',(#1374,#1376,#1378,#1380));
#1382=FACE_OUTER_BOUND('',#1381,.F.);
#1383=ADVANCED_FACE('',(#1382),#1372,.T.);
#1384=CARTESIAN_POINT('',(8.453E-1,2.04E-1,2.7E-1));
#1385=DIRECTION('',(0.E0,0.E0,-1.E0));
#1386=DIRECTION('',(-1.E0,0.E0,0.E0));
#1387=AXIS2_PLACEMENT_3D('',#1384,#1385,#1386);
#1388=PLANE('',#1387);
#1389=ORIENTED_EDGE('',*,*,#1359,.F.);
#1390=ORIENTED_EDGE('',*,*,#1348,.T.);
#1391=ORIENTED_EDGE('',*,*,#1333,.T.);
#1393=ORIENTED_EDGE('',*,*,#1392,.F.);
#1394=EDGE_LOOP('',(#1389,#1390,#1391,#1393));
#1395=FACE_OUTER_BOUND('',#1394,.F.);
#1396=ADVANCED_FACE('',(#1395),#1388,.F.);
#1397=CARTESIAN_POINT('',(6.883E-1,2.04E-1,2.7E-1));
#1398=DIRECTION('',(1.E0,0.E0,0.E0));
#1399=DIRECTION('',(0.E0,0.E0,-1.E0));
#1400=AXIS2_PLACEMENT_3D('',#1397,#1398,#1399);
#1401=PLANE('',#1400);
#1402=ORIENTED_EDGE('',*,*,#1361,.F.);
#1403=ORIENTED_EDGE('',*,*,#1392,.T.);
#1404=ORIENTED_EDGE('',*,*,#1331,.T.);
#1406=ORIENTED_EDGE('',*,*,#1405,.F.);
#1407=EDGE_LOOP('',(#1402,#1403,#1404,#1406));
#1408=FACE_OUTER_BOUND('',#1407,.F.);
#1409=ADVANCED_FACE('',(#1408),#1401,.F.);
#1410=CARTESIAN_POINT('',(6.883E-1,2.04E-1,1.13E-1));
#1411=DIRECTION('',(0.E0,0.E0,1.E0));
#1412=DIRECTION('',(1.E0,0.E0,0.E0));
#1413=AXIS2_PLACEMENT_3D('',#1410,#1411,#1412);
#1414=PLANE('',#1413);
#1415=ORIENTED_EDGE('',*,*,#1363,.F.);
#1416=ORIENTED_EDGE('',*,*,#1405,.T.);
#1417=ORIENTED_EDGE('',*,*,#1329,.T.);
#1418=ORIENTED_EDGE('',*,*,#1345,.F.);
#1419=EDGE_LOOP('',(#1415,#1416,#1417,#1418));
#1420=FACE_OUTER_BOUND('',#1419,.F.);
#1421=ADVANCED_FACE('',(#1420),#1414,.F.);
#1422=CARTESIAN_POINT('',(3.223E-1,2.04E-1,1.13E-1));
#1423=DIRECTION('',(-1.E0,0.E0,0.E0));
#1424=DIRECTION('',(0.E0,0.E0,1.E0));
#1425=AXIS2_PLACEMENT_3D('',#1422,#1423,#1424);
#1426=PLANE('',#1425);
#1427=ORIENTED_EDGE('',*,*,#1373,.F.);
#1429=ORIENTED_EDGE('',*,*,#1428,.T.);
#1430=ORIENTED_EDGE('',*,*,#1317,.T.);
#1432=ORIENTED_EDGE('',*,*,#1431,.F.);
#1433=EDGE_LOOP('',(#1427,#1429,#1430,#1432));
#1434=FACE_OUTER_BOUND('',#1433,.F.);
#1435=ADVANCED_FACE('',(#1434),#1426,.F.);
#1436=CARTESIAN_POINT('',(1.653E-1,2.04E-1,1.13E-1));
#1437=DIRECTION('',(0.E0,0.E0,1.E0));
#1438=DIRECTION('',(1.E0,0.E0,0.E0));
#1439=AXIS2_PLACEMENT_3D('',#1436,#1437,#1438);
#1440=PLANE('',#1439);
#1441=ORIENTED_EDGE('',*,*,#1379,.F.);
#1443=ORIENTED_EDGE('',*,*,#1442,.T.);
#1444=ORIENTED_EDGE('',*,*,#1319,.T.);
#1445=ORIENTED_EDGE('',*,*,#1428,.F.);
#1446=EDGE_LOOP('',(#1441,#1443,#1444,#1445));
#1447=FACE_OUTER_BOUND('',#1446,.F.);
#1448=ADVANCED_FACE('',(#1447),#1440,.F.);
#1449=CARTESIAN_POINT('',(1.653E-1,2.04E-1,2.7E-1));
#1450=DIRECTION('',(1.E0,0.E0,0.E0));
#1451=DIRECTION('',(0.E0,0.E0,-1.E0));
#1452=AXIS2_PLACEMENT_3D('',#1449,#1450,#1451);
#1453=PLANE('',#1452);
#1454=ORIENTED_EDGE('',*,*,#1377,.F.);
#1456=ORIENTED_EDGE('',*,*,#1455,.T.);
#1457=ORIENTED_EDGE('',*,*,#1321,.T.);
#1458=ORIENTED_EDGE('',*,*,#1442,.F.);
#1459=EDGE_LOOP('',(#1454,#1456,#1457,#1458));
#1460=FACE_OUTER_BOUND('',#1459,.F.);
#1461=ADVANCED_FACE('',(#1460),#1453,.F.);
#1462=CARTESIAN_POINT('',(3.223E-1,2.04E-1,2.7E-1));
#1463=DIRECTION('',(0.E0,0.E0,-1.E0));
#1464=DIRECTION('',(-1.E0,0.E0,0.E0));
#1465=AXIS2_PLACEMENT_3D('',#1462,#1463,#1464);
#1466=PLANE('',#1465);
#1467=ORIENTED_EDGE('',*,*,#1375,.F.);
#1468=ORIENTED_EDGE('',*,*,#1431,.T.);
#1469=ORIENTED_EDGE('',*,*,#1323,.T.);
#1470=ORIENTED_EDGE('',*,*,#1455,.F.);
#1471=EDGE_LOOP('',(#1467,#1468,#1469,#1470));
#1472=FACE_OUTER_BOUND('',#1471,.F.);
#1473=ADVANCED_FACE('',(#1472),#1466,.F.);
#1474=CARTESIAN_POINT('',(6.193E-1,2.04E-1,1.14E-1));
#1475=DIRECTION('',(-1.E0,0.E0,0.E0));
#1476=DIRECTION('',(0.E0,0.E0,1.E0));
#1477=AXIS2_PLACEMENT_3D('',#1474,#1475,#1476);
#1478=PLANE('',#1477);
#1480=ORIENTED_EDGE('',*,*,#1479,.F.);
#1482=ORIENTED_EDGE('',*,*,#1481,.T.);
#1483=ORIENTED_EDGE('',*,*,#1307,.T.);
#1485=ORIENTED_EDGE('',*,*,#1484,.F.);
#1486=EDGE_LOOP('',(#1480,#1482,#1483,#1485));
#1487=FACE_OUTER_BOUND('',#1486,.F.);
#1488=ADVANCED_FACE('',(#1487),#1478,.F.);
#1489=CARTESIAN_POINT('',(0.E0,1.67E-1,0.E0));
#1490=DIRECTION('',(0.E0,1.E0,0.E0));
#1491=DIRECTION('',(0.E0,0.E0,1.E0));
#1492=AXIS2_PLACEMENT_3D('',#1489,#1490,#1491);
#1493=PLANE('',#1492);
#1494=ORIENTED_EDGE('',*,*,#1479,.T.);
#1496=ORIENTED_EDGE('',*,*,#1495,.T.);
#1498=ORIENTED_EDGE('',*,*,#1497,.T.);
#1500=ORIENTED_EDGE('',*,*,#1499,.T.);
#1501=EDGE_LOOP('',(#1494,#1496,#1498,#1500));
#1502=FACE_OUTER_BOUND('',#1501,.F.);
#1503=ADVANCED_FACE('',(#1502),#1493,.T.);
#1504=CARTESIAN_POINT('',(6.193E-1,2.04E-1,2.91E-1));
#1505=DIRECTION('',(0.E0,0.E0,-1.E0));
#1506=DIRECTION('',(-1.E0,0.E0,0.E0));
#1507=AXIS2_PLACEMENT_3D('',#1504,#1505,#1506);
#1508=PLANE('',#1507);
#1509=ORIENTED_EDGE('',*,*,#1495,.F.);
#1510=ORIENTED_EDGE('',*,*,#1484,.T.);
#1511=ORIENTED_EDGE('',*,*,#1313,.T.);
#1513=ORIENTED_EDGE('',*,*,#1512,.F.);
#1514=EDGE_LOOP('',(#1509,#1510,#1511,#1513));
#1515=FACE_OUTER_BOUND('',#1514,.F.);
#1516=ADVANCED_FACE('',(#1515),#1508,.F.);
#1517=CARTESIAN_POINT('',(3.933E-1,2.04E-1,2.91E-1));
#1518=DIRECTION('',(1.E0,0.E0,0.E0));
#1519=DIRECTION('',(0.E0,0.E0,-1.E0));
#1520=AXIS2_PLACEMENT_3D('',#1517,#1518,#1519);
#1521=PLANE('',#1520);
#1522=ORIENTED_EDGE('',*,*,#1497,.F.);
#1523=ORIENTED_EDGE('',*,*,#1512,.T.);
#1524=ORIENTED_EDGE('',*,*,#1311,.T.);
#1526=ORIENTED_EDGE('',*,*,#1525,.F.);
#1527=EDGE_LOOP('',(#1522,#1523,#1524,#1526));
#1528=FACE_OUTER_BOUND('',#1527,.F.);
#1529=ADVANCED_FACE('',(#1528),#1521,.F.);
#1530=CARTESIAN_POINT('',(3.933E-1,2.04E-1,1.14E-1));
#1531=DIRECTION('',(0.E0,0.E0,1.E0));
#1532=DIRECTION('',(1.E0,0.E0,0.E0));
#1533=AXIS2_PLACEMENT_3D('',#1530,#1531,#1532);
#1534=PLANE('',#1533);
#1535=ORIENTED_EDGE('',*,*,#1499,.F.);
#1536=ORIENTED_EDGE('',*,*,#1525,.T.);
#1537=ORIENTED_EDGE('',*,*,#1309,.T.);
#1538=ORIENTED_EDGE('',*,*,#1481,.F.);
#1539=EDGE_LOOP('',(#1535,#1536,#1537,#1538));
#1540=FACE_OUTER_BOUND('',#1539,.F.);
#1541=ADVANCED_FACE('',(#1540),#1534,.F.);
#1542=CARTESIAN_POINT('',(3.965E-1,-2.659344E-1,-4.1E-1));
#1543=DIRECTION('',(0.E0,1.E0,0.E0));
#1544=DIRECTION('',(0.E0,0.E0,-1.E0));
#1545=AXIS2_PLACEMENT_3D('',#1542,#1543,#1544);
#1546=CYLINDRICAL_SURFACE('',#1545,2.E-2);
#1547=ORIENTED_EDGE('',*,*,#1271,.T.);
#1549=ORIENTED_EDGE('',*,*,#1548,.F.);
#1550=ORIENTED_EDGE('',*,*,#990,.T.);
#1552=ORIENTED_EDGE('',*,*,#1551,.T.);
#1553=EDGE_LOOP('',(#1547,#1549,#1550,#1552));
#1554=FACE_OUTER_BOUND('',#1553,.F.);
#1555=ADVANCED_FACE('',(#1554),#1546,.T.);
#1556=CARTESIAN_POINT('',(3.365E-1,4.699344E-1,-4.1E-1));
#1557=DIRECTION('',(0.E0,-1.E0,0.E0));
#1558=DIRECTION('',(1.E0,0.E0,0.E0));
#1559=AXIS2_PLACEMENT_3D('',#1556,#1557,#1558);
#1560=CYLINDRICAL_SURFACE('',#1559,4.E-2);
#1561=ORIENTED_EDGE('',*,*,#1548,.T.);
#1562=ORIENTED_EDGE('',*,*,#1303,.T.);
#1564=ORIENTED_EDGE('',*,*,#1563,.T.);
#1565=ORIENTED_EDGE('',*,*,#992,.T.);
#1566=EDGE_LOOP('',(#1561,#1562,#1564,#1565));
#1567=FACE_OUTER_BOUND('',#1566,.F.);
#1568=ADVANCED_FACE('',(#1567),#1560,.F.);
#1569=CARTESIAN_POINT('',(-8.525E-1,3.7E-2,-3.7E-1));
#1570=DIRECTION('',(0.E0,0.E0,1.E0));
#1571=DIRECTION('',(1.E0,0.E0,0.E0));
#1572=AXIS2_PLACEMENT_3D('',#1569,#1570,#1571);
#1573=PLANE('',#1572);
#1575=ORIENTED_EDGE('',*,*,#1574,.T.);
#1576=ORIENTED_EDGE('',*,*,#994,.T.);
#1577=ORIENTED_EDGE('',*,*,#1563,.F.);
#1578=ORIENTED_EDGE('',*,*,#1301,.F.);
#1579=EDGE_LOOP('',(#1575,#1576,#1577,#1578));
#1580=FACE_OUTER_BOUND('',#1579,.F.);
#1581=ADVANCED_FACE('',(#1580),#1573,.F.);
#1582=CARTESIAN_POINT('',(-8.125E-1,4.699344E-1,-4.1E-1));
#1583=DIRECTION('',(0.E0,-1.E0,0.E0));
#1584=DIRECTION('',(0.E0,0.E0,1.E0));
#1585=AXIS2_PLACEMENT_3D('',#1582,#1583,#1584);
#1586=CYLINDRICAL_SURFACE('',#1585,4.E-2);
#1588=ORIENTED_EDGE('',*,*,#1587,.T.);
#1589=ORIENTED_EDGE('',*,*,#996,.T.);
#1590=ORIENTED_EDGE('',*,*,#1574,.F.);
#1591=ORIENTED_EDGE('',*,*,#1299,.T.);
#1592=EDGE_LOOP('',(#1588,#1589,#1590,#1591));
#1593=FACE_OUTER_BOUND('',#1592,.F.);
#1594=ADVANCED_FACE('',(#1593),#1586,.F.);
#1595=CARTESIAN_POINT('',(-8.725E-1,4.699344E-1,-4.1E-1));
#1596=DIRECTION('',(0.E0,-1.E0,0.E0));
#1597=DIRECTION('',(1.110223024625E-14,0.E0,-1.E0));
#1598=AXIS2_PLACEMENT_3D('',#1595,#1596,#1597);
#1599=CYLINDRICAL_SURFACE('',#1598,2.E-2);
#1600=ORIENTED_EDGE('',*,*,#998,.T.);
#1601=ORIENTED_EDGE('',*,*,#1587,.F.);
#1602=ORIENTED_EDGE('',*,*,#1297,.T.);
#1604=ORIENTED_EDGE('',*,*,#1603,.T.);
#1605=EDGE_LOOP('',(#1600,#1601,#1602,#1604));
#1606=FACE_OUTER_BOUND('',#1605,.F.);
#1607=ADVANCED_FACE('',(#1606),#1599,.T.);
#1608=CARTESIAN_POINT('',(1.2175E0,0.E0,-4.3E-1));
#1609=DIRECTION('',(0.E0,0.E0,-1.E0));
#1610=DIRECTION('',(-1.E0,0.E0,0.E0));
#1611=AXIS2_PLACEMENT_3D('',#1608,#1609,#1610);
#1612=PLANE('',#1611);
#1613=ORIENTED_EDGE('',*,*,#1551,.F.);
#1614=ORIENTED_EDGE('',*,*,#988,.F.);
#1616=ORIENTED_EDGE('',*,*,#1615,.F.);
#1617=ORIENTED_EDGE('',*,*,#1186,.T.);
#1619=ORIENTED_EDGE('',*,*,#1618,.T.);
#1620=ORIENTED_EDGE('',*,*,#1273,.F.);
#1621=EDGE_LOOP('',(#1613,#1614,#1616,#1617,#1619,#1620));
#1622=FACE_OUTER_BOUND('',#1621,.F.);
#1623=ADVANCED_FACE('',(#1622),#1612,.T.);
#1624=CARTESIAN_POINT('',(1.2175E0,0.E0,-4.3E-1));
#1625=DIRECTION('',(0.E0,0.E0,-1.E0));
#1626=DIRECTION('',(-1.E0,0.E0,0.E0));
#1627=AXIS2_PLACEMENT_3D('',#1624,#1625,#1626);
#1628=PLANE('',#1627);
#1629=ORIENTED_EDGE('',*,*,#1603,.F.);
#1630=ORIENTED_EDGE('',*,*,#1295,.F.);
#1632=ORIENTED_EDGE('',*,*,#1631,.F.);
#1633=ORIENTED_EDGE('',*,*,#1227,.T.);
#1635=ORIENTED_EDGE('',*,*,#1634,.T.);
#1636=ORIENTED_EDGE('',*,*,#1000,.F.);
#1637=EDGE_LOOP('',(#1629,#1630,#1632,#1633,#1635,#1636));
#1638=FACE_OUTER_BOUND('',#1637,.F.);
#1639=ADVANCED_FACE('',(#1638),#1628,.T.);
#1640=CARTESIAN_POINT('',(1.1125E0,4.699344E-1,-3.25E-1));
#1641=DIRECTION('',(0.E0,-1.E0,0.E0));
#1642=DIRECTION('',(0.E0,0.E0,-1.E0));
#1643=AXIS2_PLACEMENT_3D('',#1640,#1641,#1642);
#1644=CYLINDRICAL_SURFACE('',#1643,1.05E-1);
#1645=ORIENTED_EDGE('',*,*,#986,.T.);
#1647=ORIENTED_EDGE('',*,*,#1646,.F.);
#1648=ORIENTED_EDGE('',*,*,#1188,.T.);
#1649=ORIENTED_EDGE('',*,*,#1615,.T.);
#1650=EDGE_LOOP('',(#1645,#1647,#1648,#1649));
#1651=FACE_OUTER_BOUND('',#1650,.F.);
#1652=ADVANCED_FACE('',(#1651),#1644,.T.);
#1653=CARTESIAN_POINT('',(1.2175E0,0.E0,4.3E-1));
#1654=DIRECTION('',(1.E0,0.E0,0.E0));
#1655=DIRECTION('',(0.E0,0.E0,-1.E0));
#1656=AXIS2_PLACEMENT_3D('',#1653,#1654,#1655);
#1657=PLANE('',#1656);
#1659=ORIENTED_EDGE('',*,*,#1658,.F.);
#1660=ORIENTED_EDGE('',*,*,#972,.F.);
#1662=ORIENTED_EDGE('',*,*,#1661,.F.);
#1663=ORIENTED_EDGE('',*,*,#1190,.T.);
#1664=ORIENTED_EDGE('',*,*,#1646,.T.);
#1665=ORIENTED_EDGE('',*,*,#984,.F.);
#1667=ORIENTED_EDGE('',*,*,#1666,.F.);
#1669=ORIENTED_EDGE('',*,*,#1668,.F.);
#1670=EDGE_LOOP('',(#1659,#1660,#1662,#1663,#1664,#1665,#1667,#1669));
#1671=FACE_OUTER_BOUND('',#1670,.F.);
#1672=ADVANCED_FACE('',(#1671),#1657,.T.);
#1673=CARTESIAN_POINT('',(1.1675E0,-2.659344E-1,1.405E-1));
#1674=DIRECTION('',(0.E0,1.E0,0.E0));
#1675=DIRECTION('',(1.E0,0.E0,0.E0));
#1676=AXIS2_PLACEMENT_3D('',#1673,#1674,#1675);
#1677=CYLINDRICAL_SURFACE('',#1676,5.E-2);
#1679=ORIENTED_EDGE('',*,*,#1678,.F.);
#1680=ORIENTED_EDGE('',*,*,#974,.T.);
#1681=ORIENTED_EDGE('',*,*,#1658,.T.);
#1683=ORIENTED_EDGE('',*,*,#1682,.T.);
#1684=EDGE_LOOP('',(#1679,#1680,#1681,#1683));
#1685=FACE_OUTER_BOUND('',#1684,.F.);
#1686=ADVANCED_FACE('',(#1685),#1677,.T.);
#1687=CARTESIAN_POINT('',(1.125E0,1.4E-1,9.05E-2));
#1688=DIRECTION('',(0.E0,0.E0,-1.E0));
#1689=DIRECTION('',(1.E0,0.E0,0.E0));
#1690=AXIS2_PLACEMENT_3D('',#1687,#1688,#1689);
#1691=PLANE('',#1690);
#1692=ORIENTED_EDGE('',*,*,#1678,.T.);
#1694=ORIENTED_EDGE('',*,*,#1693,.F.);
#1696=ORIENTED_EDGE('',*,*,#1695,.F.);
#1697=ORIENTED_EDGE('',*,*,#976,.F.);
#1698=EDGE_LOOP('',(#1692,#1694,#1696,#1697));
#1699=FACE_OUTER_BOUND('',#1698,.F.);
#1700=ADVANCED_FACE('',(#1699),#1691,.T.);
#1701=CARTESIAN_POINT('',(0.E0,1.4E-1,0.E0));
#1702=DIRECTION('',(0.E0,1.E0,0.E0));
#1703=DIRECTION('',(-1.E0,0.E0,0.E0));
#1704=AXIS2_PLACEMENT_3D('',#1701,#1702,#1703);
#1705=PLANE('',#1704);
#1706=ORIENTED_EDGE('',*,*,#1668,.T.);
#1708=ORIENTED_EDGE('',*,*,#1707,.F.);
#1710=ORIENTED_EDGE('',*,*,#1709,.T.);
#1712=ORIENTED_EDGE('',*,*,#1711,.F.);
#1713=ORIENTED_EDGE('',*,*,#1693,.T.);
#1714=ORIENTED_EDGE('',*,*,#1682,.F.);
#1715=EDGE_LOOP('',(#1706,#1708,#1710,#1712,#1713,#1714));
#1716=FACE_OUTER_BOUND('',#1715,.F.);
#1718=ORIENTED_EDGE('',*,*,#1717,.T.);
#1720=ORIENTED_EDGE('',*,*,#1719,.T.);
#1721=EDGE_LOOP('',(#1718,#1720));
#1722=FACE_BOUND('',#1721,.F.);
#1723=ADVANCED_FACE('',(#1716,#1722),#1705,.F.);
#1724=CARTESIAN_POINT('',(1.125E0,1.6125E-1,0.E0));
#1725=DIRECTION('',(0.E0,-1.E0,0.E0));
#1726=DIRECTION('',(-1.E0,0.E0,0.E0));
#1727=AXIS2_PLACEMENT_3D('',#1724,#1725,#1726);
#1728=CONICAL_SURFACE('',#1727,6.475E-2,4.5E1);
#1729=ORIENTED_EDGE('',*,*,#1717,.F.);
#1731=ORIENTED_EDGE('',*,*,#1730,.F.);
#1733=ORIENTED_EDGE('',*,*,#1732,.F.);
#1735=ORIENTED_EDGE('',*,*,#1734,.T.);
#1736=EDGE_LOOP('',(#1729,#1731,#1733,#1735));
#1737=FACE_OUTER_BOUND('',#1736,.F.);
#1738=ADVANCED_FACE('',(#1737),#1728,.F.);
#1739=CARTESIAN_POINT('',(1.125E0,1.6125E-1,0.E0));
#1740=DIRECTION('',(0.E0,-1.E0,0.E0));
#1741=DIRECTION('',(-1.E0,0.E0,0.E0));
#1742=AXIS2_PLACEMENT_3D('',#1739,#1740,#1741);
#1743=CONICAL_SURFACE('',#1742,6.475E-2,4.5E1);
#1744=ORIENTED_EDGE('',*,*,#1719,.F.);
#1745=ORIENTED_EDGE('',*,*,#1734,.F.);
#1747=ORIENTED_EDGE('',*,*,#1746,.T.);
#1748=ORIENTED_EDGE('',*,*,#1730,.T.);
#1749=EDGE_LOOP('',(#1744,#1745,#1747,#1748));
#1750=FACE_OUTER_BOUND('',#1749,.F.);
#1751=ADVANCED_FACE('',(#1750),#1743,.F.);
#1752=CARTESIAN_POINT('',(1.125E0,2.2862E-1,0.E0));
#1753=DIRECTION('',(0.E0,-1.E0,0.E0));
#1754=DIRECTION('',(-1.E0,0.E0,0.E0));
#1755=AXIS2_PLACEMENT_3D('',#1752,#1753,#1754);
#1756=CYLINDRICAL_SURFACE('',#1755,4.35E-2);
#1757=ORIENTED_EDGE('',*,*,#1198,.F.);
#1759=ORIENTED_EDGE('',*,*,#1758,.T.);
#1760=ORIENTED_EDGE('',*,*,#1746,.F.);
#1762=ORIENTED_EDGE('',*,*,#1761,.F.);
#1763=EDGE_LOOP('',(#1757,#1759,#1760,#1762));
#1764=FACE_OUTER_BOUND('',#1763,.F.);
#1765=ADVANCED_FACE('',(#1764),#1756,.F.);
#1766=CARTESIAN_POINT('',(1.125E0,2.2862E-1,0.E0));
#1767=DIRECTION('',(0.E0,-1.E0,0.E0));
#1768=DIRECTION('',(-1.E0,0.E0,0.E0));
#1769=AXIS2_PLACEMENT_3D('',#1766,#1767,#1768);
#1770=CYLINDRICAL_SURFACE('',#1769,4.35E-2);
#1771=ORIENTED_EDGE('',*,*,#1200,.F.);
#1772=ORIENTED_EDGE('',*,*,#1761,.T.);
#1773=ORIENTED_EDGE('',*,*,#1732,.T.);
#1774=ORIENTED_EDGE('',*,*,#1758,.F.);
#1775=EDGE_LOOP('',(#1771,#1772,#1773,#1774));
#1776=FACE_OUTER_BOUND('',#1775,.F.);
#1777=ADVANCED_FACE('',(#1776),#1770,.F.);
#1778=CARTESIAN_POINT('',(1.1675E0,4.699344E-1,-1.405E-1));
#1779=DIRECTION('',(0.E0,-1.E0,0.E0));
#1780=DIRECTION('',(1.E0,0.E0,0.E0));
#1781=AXIS2_PLACEMENT_3D('',#1778,#1779,#1780);
#1782=CYLINDRICAL_SURFACE('',#1781,5.E-2);
#1783=ORIENTED_EDGE('',*,*,#982,.T.);
#1785=ORIENTED_EDGE('',*,*,#1784,.F.);
#1786=ORIENTED_EDGE('',*,*,#1707,.T.);
#1787=ORIENTED_EDGE('',*,*,#1666,.T.);
#1788=EDGE_LOOP('',(#1783,#1785,#1786,#1787));
#1789=FACE_OUTER_BOUND('',#1788,.F.);
#1790=ADVANCED_FACE('',(#1789),#1782,.T.);
#1791=CARTESIAN_POINT('',(1.2175E0,1.4E-1,-9.05E-2));
#1792=DIRECTION('',(0.E0,0.E0,1.E0));
#1793=DIRECTION('',(-1.E0,0.E0,0.E0));
#1794=AXIS2_PLACEMENT_3D('',#1791,#1792,#1793);
#1795=PLANE('',#1794);
#1796=ORIENTED_EDGE('',*,*,#1784,.T.);
#1797=ORIENTED_EDGE('',*,*,#980,.T.);
#1799=ORIENTED_EDGE('',*,*,#1798,.T.);
#1800=ORIENTED_EDGE('',*,*,#1709,.F.);
#1801=EDGE_LOOP('',(#1796,#1797,#1799,#1800));
#1802=FACE_OUTER_BOUND('',#1801,.F.);
#1803=ADVANCED_FACE('',(#1802),#1795,.T.);
#1804=CARTESIAN_POINT('',(1.125E0,1.4E-1,0.E0));
#1805=DIRECTION('',(0.E0,1.E0,0.E0));
#1806=DIRECTION('',(-1.E0,0.E0,0.E0));
#1807=AXIS2_PLACEMENT_3D('',#1804,#1805,#1806);
#1808=CYLINDRICAL_SURFACE('',#1807,9.05E-2);
#1809=ORIENTED_EDGE('',*,*,#1711,.T.);
#1810=ORIENTED_EDGE('',*,*,#1798,.F.);
#1811=ORIENTED_EDGE('',*,*,#978,.T.);
#1812=ORIENTED_EDGE('',*,*,#1695,.T.);
#1813=EDGE_LOOP('',(#1809,#1810,#1811,#1812));
#1814=FACE_OUTER_BOUND('',#1813,.F.);
#1815=ADVANCED_FACE('',(#1814),#1808,.F.);
#1816=CARTESIAN_POINT('',(1.1125E0,4.699344E-1,3.25E-1));
#1817=DIRECTION('',(0.E0,-1.E0,0.E0));
#1818=DIRECTION('',(1.E0,0.E0,0.E0));
#1819=AXIS2_PLACEMENT_3D('',#1816,#1817,#1818);
#1820=CYLINDRICAL_SURFACE('',#1819,1.05E-1);
#1821=ORIENTED_EDGE('',*,*,#970,.T.);
#1823=ORIENTED_EDGE('',*,*,#1822,.F.);
#1824=ORIENTED_EDGE('',*,*,#1192,.T.);
#1825=ORIENTED_EDGE('',*,*,#1661,.T.);
#1826=EDGE_LOOP('',(#1821,#1823,#1824,#1825));
#1827=FACE_OUTER_BOUND('',#1826,.F.);
#1828=ADVANCED_FACE('',(#1827),#1820,.T.);
#1829=CARTESIAN_POINT('',(-1.2175E0,0.E0,4.3E-1));
#1830=DIRECTION('',(0.E0,0.E0,1.E0));
#1831=DIRECTION('',(1.E0,0.E0,0.E0));
#1832=AXIS2_PLACEMENT_3D('',#1829,#1830,#1831);
#1833=PLANE('',#1832);
#1834=ORIENTED_EDGE('',*,*,#1822,.T.);
#1835=ORIENTED_EDGE('',*,*,#968,.F.);
#1837=ORIENTED_EDGE('',*,*,#1836,.F.);
#1838=ORIENTED_EDGE('',*,*,#1220,.T.);
#1840=ORIENTED_EDGE('',*,*,#1839,.T.);
#1841=ORIENTED_EDGE('',*,*,#1283,.T.);
#1842=ORIENTED_EDGE('',*,*,#1245,.F.);
#1843=ORIENTED_EDGE('',*,*,#1194,.T.);
#1844=EDGE_LOOP('',(#1834,#1835,#1837,#1838,#1840,#1841,#1842,#1843));
#1845=FACE_OUTER_BOUND('',#1844,.F.);
#1846=ADVANCED_FACE('',(#1845),#1833,.T.);
#1847=CARTESIAN_POINT('',(-1.1125E0,4.699344E-1,3.25E-1));
#1848=DIRECTION('',(0.E0,-1.E0,0.E0));
#1849=DIRECTION('',(0.E0,0.E0,1.E0));
#1850=AXIS2_PLACEMENT_3D('',#1847,#1848,#1849);
#1851=CYLINDRICAL_SURFACE('',#1850,1.05E-1);
#1852=ORIENTED_EDGE('',*,*,#966,.T.);
#1853=ORIENTED_EDGE('',*,*,#1102,.F.);
#1854=ORIENTED_EDGE('',*,*,#1222,.T.);
#1855=ORIENTED_EDGE('',*,*,#1836,.T.);
#1856=EDGE_LOOP('',(#1852,#1853,#1854,#1855));
#1857=FACE_OUTER_BOUND('',#1856,.F.);
#1858=ADVANCED_FACE('',(#1857),#1851,.T.);
#1859=CARTESIAN_POINT('',(-1.11E0,2.04E-1,1.25E-1));
#1860=DIRECTION('',(-1.E0,0.E0,0.E0));
#1861=DIRECTION('',(0.E0,0.E0,1.E0));
#1862=AXIS2_PLACEMENT_3D('',#1859,#1860,#1861);
#1863=PLANE('',#1862);
#1865=ORIENTED_EDGE('',*,*,#1864,.T.);
#1866=ORIENTED_EDGE('',*,*,#1285,.T.);
#1867=ORIENTED_EDGE('',*,*,#1839,.F.);
#1868=ORIENTED_EDGE('',*,*,#1218,.T.);
#1869=EDGE_LOOP('',(#1865,#1866,#1867,#1868));
#1870=FACE_OUTER_BOUND('',#1869,.F.);
#1871=ADVANCED_FACE('',(#1870),#1863,.F.);
#1872=CARTESIAN_POINT('',(-1.07E0,4.699344E-1,1.600781059358E-1));
#1873=DIRECTION('',(0.E0,-1.E0,0.E0));
#1874=DIRECTION('',(-1.E0,0.E0,0.E0));
#1875=AXIS2_PLACEMENT_3D('',#1872,#1873,#1874);
#1876=CYLINDRICAL_SURFACE('',#1875,4.E-2);
#1877=ORIENTED_EDGE('',*,*,#1287,.T.);
#1878=ORIENTED_EDGE('',*,*,#1864,.F.);
#1879=ORIENTED_EDGE('',*,*,#1216,.T.);
#1881=ORIENTED_EDGE('',*,*,#1880,.T.);
#1882=EDGE_LOOP('',(#1877,#1878,#1879,#1881));
#1883=FACE_OUTER_BOUND('',#1882,.F.);
#1884=ADVANCED_FACE('',(#1883),#1876,.F.);
#1885=CARTESIAN_POINT('',(-1.11E0,2.04E-1,0.E0));
#1886=DIRECTION('',(0.E0,1.E0,0.E0));
#1887=DIRECTION('',(1.E0,0.E0,0.E0));
#1888=AXIS2_PLACEMENT_3D('',#1885,#1886,#1887);
#1889=CYLINDRICAL_SURFACE('',#1888,1.25E-1);
#1891=ORIENTED_EDGE('',*,*,#1890,.T.);
#1892=ORIENTED_EDGE('',*,*,#1289,.T.);
#1893=ORIENTED_EDGE('',*,*,#1880,.F.);
#1894=ORIENTED_EDGE('',*,*,#1214,.T.);
#1895=EDGE_LOOP('',(#1891,#1892,#1893,#1894));
#1896=FACE_OUTER_BOUND('',#1895,.F.);
#1897=ADVANCED_FACE('',(#1896),#1889,.T.);
#1898=CARTESIAN_POINT('',(-1.07E0,4.699344E-1,-1.600781059358E-1));
#1899=DIRECTION('',(0.E0,-1.E0,0.E0));
#1900=DIRECTION('',(-2.424242424242E-1,0.E0,9.701703390050E-1));
#1901=AXIS2_PLACEMENT_3D('',#1898,#1899,#1900);
#1902=CYLINDRICAL_SURFACE('',#1901,4.E-2);
#1903=ORIENTED_EDGE('',*,*,#1291,.T.);
#1904=ORIENTED_EDGE('',*,*,#1890,.F.);
#1905=ORIENTED_EDGE('',*,*,#1212,.T.);
#1907=ORIENTED_EDGE('',*,*,#1906,.T.);
#1908=EDGE_LOOP('',(#1903,#1904,#1905,#1907));
#1909=FACE_OUTER_BOUND('',#1908,.F.);
#1910=ADVANCED_FACE('',(#1909),#1902,.F.);
#1911=CARTESIAN_POINT('',(-1.11E0,2.04E-1,-4.3E-1));
#1912=DIRECTION('',(-1.E0,0.E0,0.E0));
#1913=DIRECTION('',(0.E0,0.E0,1.E0));
#1914=AXIS2_PLACEMENT_3D('',#1911,#1912,#1913);
#1915=PLANE('',#1914);
#1916=ORIENTED_EDGE('',*,*,#1906,.F.);
#1917=ORIENTED_EDGE('',*,*,#1210,.F.);
#1918=ORIENTED_EDGE('',*,*,#1631,.T.);
#1919=ORIENTED_EDGE('',*,*,#1293,.T.);
#1920=EDGE_LOOP('',(#1916,#1917,#1918,#1919));
#1921=FACE_OUTER_BOUND('',#1920,.F.);
#1922=ADVANCED_FACE('',(#1921),#1915,.F.);
#1923=CARTESIAN_POINT('',(1.11E0,2.04E-1,-1.25E-1));
#1924=DIRECTION('',(1.E0,0.E0,0.E0));
#1925=DIRECTION('',(0.E0,0.E0,-1.E0));
#1926=AXIS2_PLACEMENT_3D('',#1923,#1924,#1925);
#1927=PLANE('',#1926);
#1929=ORIENTED_EDGE('',*,*,#1928,.T.);
#1930=ORIENTED_EDGE('',*,*,#1275,.T.);
#1931=ORIENTED_EDGE('',*,*,#1618,.F.);
#1932=ORIENTED_EDGE('',*,*,#1184,.T.);
#1933=EDGE_LOOP('',(#1929,#1930,#1931,#1932));
#1934=FACE_OUTER_BOUND('',#1933,.F.);
#1935=ADVANCED_FACE('',(#1934),#1927,.F.);
#1936=CARTESIAN_POINT('',(1.07E0,4.699344E-1,-1.600781059358E-1));
#1937=DIRECTION('',(0.E0,-1.E0,0.E0));
#1938=DIRECTION('',(1.E0,0.E0,0.E0));
#1939=AXIS2_PLACEMENT_3D('',#1936,#1937,#1938);
#1940=CYLINDRICAL_SURFACE('',#1939,4.E-2);
#1941=ORIENTED_EDGE('',*,*,#1277,.T.);
#1942=ORIENTED_EDGE('',*,*,#1928,.F.);
#1943=ORIENTED_EDGE('',*,*,#1182,.T.);
#1945=ORIENTED_EDGE('',*,*,#1944,.T.);
#1946=EDGE_LOOP('',(#1941,#1942,#1943,#1945));
#1947=FACE_OUTER_BOUND('',#1946,.F.);
#1948=ADVANCED_FACE('',(#1947),#1940,.F.);
#1949=CARTESIAN_POINT('',(1.11E0,2.04E-1,0.E0));
#1950=DIRECTION('',(0.E0,1.E0,0.E0));
#1951=DIRECTION('',(1.E0,0.E0,0.E0));
#1952=AXIS2_PLACEMENT_3D('',#1949,#1950,#1951);
#1953=CYLINDRICAL_SURFACE('',#1952,1.25E-1);
#1954=ORIENTED_EDGE('',*,*,#1944,.F.);
#1955=ORIENTED_EDGE('',*,*,#1180,.T.);
#1956=ORIENTED_EDGE('',*,*,#1259,.T.);
#1957=ORIENTED_EDGE('',*,*,#1279,.T.);
#1958=EDGE_LOOP('',(#1954,#1955,#1956,#1957));
#1959=FACE_OUTER_BOUND('',#1958,.F.);
#1960=ADVANCED_FACE('',(#1959),#1953,.T.);
#1961=CARTESIAN_POINT('',(-1.1125E0,4.699344E-1,-3.25E-1));
#1962=DIRECTION('',(0.E0,-1.E0,0.E0));
#1963=DIRECTION('',(-1.E0,0.E0,0.E0));
#1964=AXIS2_PLACEMENT_3D('',#1961,#1962,#1963);
#1965=CYLINDRICAL_SURFACE('',#1964,1.05E-1);
#1966=ORIENTED_EDGE('',*,*,#1002,.T.);
#1967=ORIENTED_EDGE('',*,*,#1634,.F.);
#1968=ORIENTED_EDGE('',*,*,#1225,.T.);
#1969=ORIENTED_EDGE('',*,*,#1098,.T.);
#1970=EDGE_LOOP('',(#1966,#1967,#1968,#1969));
#1971=FACE_OUTER_BOUND('',#1970,.F.);
#1972=ADVANCED_FACE('',(#1971),#1965,.T.);
#1973=CARTESIAN_POINT('',(-1.125E0,2.2862E-1,0.E0));
#1974=DIRECTION('',(0.E0,-1.E0,0.E0));
#1975=DIRECTION('',(-1.E0,0.E0,0.E0));
#1976=AXIS2_PLACEMENT_3D('',#1973,#1974,#1975);
#1977=CYLINDRICAL_SURFACE('',#1976,4.35E-2);
#1978=ORIENTED_EDGE('',*,*,#1231,.F.);
#1979=ORIENTED_EDGE('',*,*,#1166,.T.);
#1980=ORIENTED_EDGE('',*,*,#1136,.F.);
#1981=ORIENTED_EDGE('',*,*,#1163,.F.);
#1982=EDGE_LOOP('',(#1978,#1979,#1980,#1981));
#1983=FACE_OUTER_BOUND('',#1982,.F.);
#1984=ADVANCED_FACE('',(#1983),#1977,.F.);
#1987=DIMENSIONAL_EXPONENTS(1.E0,0.E0,0.E0,0.E0,0.E0,0.E0,0.E0);
#1989=LENGTH_MEASURE_WITH_UNIT(LENGTH_MEASURE(2.54E1),#1988);
#1990=(CONVERSION_BASED_UNIT('INCH',#1989)LENGTH_UNIT()NAMED_UNIT(#1987));
#1991=DIMENSIONAL_EXPONENTS(0.E0,0.E0,0.E0,0.E0,0.E0,0.E0,0.E0);
#1993=PLANE_ANGLE_MEASURE_WITH_UNIT(PLANE_ANGLE_MEASURE(1.745329251994E-2),
#1992);
#1994=(CONVERSION_BASED_UNIT('DEGREE',#1993)NAMED_UNIT(*)PLANE_ANGLE_UNIT());
#1996=UNCERTAINTY_MEASURE_WITH_UNIT(LENGTH_MEASURE(7.101334698778E-5),#1990,
'closure',
'Maximum model space distance between geometric entities at asserted connectivities');
#1997=(GEOMETRIC_REPRESENTATION_CONTEXT(3)GLOBAL_UNCERTAINTY_ASSIGNED_CONTEXT((
#1996))GLOBAL_UNIT_ASSIGNED_CONTEXT((#1990,#1994,#1995))REPRESENTATION_CONTEXT(
'ID1','3'));
#1999=APPLICATION_CONTEXT(
'CONFIGURATION CONTROLLED 3D DESIGNS OF MECHANICAL PARTS AND ASSEMBLIES');
#2000=APPLICATION_PROTOCOL_DEFINITION('international standard',
'config_control_design',1994,#1999);
#2001=DESIGN_CONTEXT('',#1999,'design');
#2002=MECHANICAL_CONTEXT('',#1999,'mechanical');
#2003=PRODUCT('19200_13122517','19200_13122517','NOT SPECIFIED',(#2002));
#2004=PRODUCT_DEFINITION_FORMATION_WITH_SPECIFIED_SOURCE('1','LAST_VERSION',
#2003,.MADE.);
#2008=PRODUCT_CATEGORY('part','');
#2009=PRODUCT_RELATED_PRODUCT_CATEGORY('detail','',(#2003));
#2010=PRODUCT_CATEGORY_RELATIONSHIP('','',#2008,#2009);
#2011=SECURITY_CLASSIFICATION_LEVEL('unclassified');
#2012=SECURITY_CLASSIFICATION('','',#2011);
#2013=CC_DESIGN_SECURITY_CLASSIFICATION(#2012,(#2004));
#2014=APPROVAL_STATUS('approved');
#2015=APPROVAL(#2014,'');
#2016=CC_DESIGN_APPROVAL(#2015,(#2012,#2004,#2005));
#2017=CALENDAR_DATE(126,3,8);
#2018=COORDINATED_UNIVERSAL_TIME_OFFSET(4,0,.BEHIND.);
#2019=LOCAL_TIME(14,50,2.2E1,#2018);
#2020=DATE_AND_TIME(#2017,#2019);
#2021=APPROVAL_DATE_TIME(#2020,#2015);
#2022=DATE_TIME_ROLE('creation_date');
#2023=CC_DESIGN_DATE_AND_TIME_ASSIGNMENT(#2020,#2022,(#2005));
#2024=DATE_TIME_ROLE('classification_date');
#2025=CC_DESIGN_DATE_AND_TIME_ASSIGNMENT(#2020,#2024,(#2012));
#2026=PERSON('UNSPECIFIED','UNSPECIFIED',$,$,$,$);
#2027=ORGANIZATION('UNSPECIFIED','UNSPECIFIED','UNSPECIFIED');
#2028=PERSON_AND_ORGANIZATION(#2026,#2027);
#2029=APPROVAL_ROLE('approver');
#2030=APPROVAL_PERSON_ORGANIZATION(#2028,#2015,#2029);
#2031=PERSON_AND_ORGANIZATION_ROLE('creator');
#2032=CC_DESIGN_PERSON_AND_ORGANIZATION_ASSIGNMENT(#2028,#2031,(#2004,#2005));
#2033=PERSON_AND_ORGANIZATION_ROLE('design_supplier');
#2034=CC_DESIGN_PERSON_AND_ORGANIZATION_ASSIGNMENT(#2028,#2033,(#2004));
#2035=PERSON_AND_ORGANIZATION_ROLE('classification_officer');
#2036=CC_DESIGN_PERSON_AND_ORGANIZATION_ASSIGNMENT(#2028,#2035,(#2012));
#2037=PERSON_AND_ORGANIZATION_ROLE('design_owner');
#2038=CC_DESIGN_PERSON_AND_ORGANIZATION_ASSIGNMENT(#2028,#2037,(#2003));
#5=CIRCLE('',#4,5.E-2);
#14=CIRCLE('',#13,1.05E-1);
#23=CIRCLE('',#22,1.05E-1);
#32=CIRCLE('',#31,5.E-2);
#45=CIRCLE('',#44,5.E-2);
#54=CIRCLE('',#53,1.05E-1);
#63=CIRCLE('',#62,2.E-2);
#72=CIRCLE('',#71,2.E-2);
#81=CIRCLE('',#80,1.05E-1);
#90=CIRCLE('',#89,5.E-2);
#103=CIRCLE('',#102,5.E-2);
#116=CIRCLE('',#115,9.05E-2);
#121=CIRCLE('',#120,9.05E-2);
#134=CIRCLE('',#133,5.E-2);
#155=CIRCLE('',#154,8.6E-2);
#160=CIRCLE('',#159,8.6E-2);
#177=CIRCLE('',#176,4.35E-2);
#186=CIRCLE('',#185,4.35E-2);
#207=CIRCLE('',#206,1.25E-1);
#220=CIRCLE('',#219,1.05E-1);
#229=CIRCLE('',#228,1.05E-1);
#242=CIRCLE('',#241,1.25E-1);
#255=CIRCLE('',#254,1.05E-1);
#264=CIRCLE('',#263,1.05E-1);
#273=CIRCLE('',#272,4.35E-2);
#278=CIRCLE('',#277,4.35E-2);
#283=CIRCLE('',#282,4.35E-2);
#288=CIRCLE('',#287,4.35E-2);
#297=CIRCLE('',#296,4.E-2);
#350=CIRCLE('',#349,2.E-2);
#359=CIRCLE('',#358,4.E-2);
#364=CIRCLE('',#363,1.25E-1);
#369=CIRCLE('',#368,4.E-2);
#382=CIRCLE('',#381,4.E-2);
#387=CIRCLE('',#386,1.25E-1);
#392=CIRCLE('',#391,4.E-2);
#401=CIRCLE('',#400,2.E-2);
#510=CIRCLE('',#509,4.E-2);
#515=CIRCLE('',#514,4.E-2);
#532=CIRCLE('',#531,4.E-2);
#537=CIRCLE('',#536,4.E-2);
#590=CIRCLE('',#589,5.E-2);
#603=CIRCLE('',#602,8.6E-2);
#608=CIRCLE('',#607,8.6E-2);
#629=CIRCLE('',#628,4.35E-2);
#638=CIRCLE('',#637,4.35E-2);
#651=CIRCLE('',#650,5.E-2);
#664=CIRCLE('',#663,9.05E-2);
#669=CIRCLE('',#668,9.05E-2);
#698=CIRCLE('',#697,4.E-2);
#711=CIRCLE('',#710,4.E-2);
#724=CIRCLE('',#723,4.E-2);
#962=EDGE_CURVE('',#927,#928,#5,.T.);
#964=EDGE_CURVE('',#927,#816,#9,.T.);
#966=EDGE_CURVE('',#815,#816,#14,.T.);
#968=EDGE_CURVE('',#815,#808,#18,.T.);
#970=EDGE_CURVE('',#807,#808,#23,.T.);
#972=EDGE_CURVE('',#807,#946,#27,.T.);
#974=EDGE_CURVE('',#943,#946,#32,.T.);
#976=EDGE_CURVE('',#943,#920,#36,.T.);
#978=EDGE_CURVE('',#922,#920,#669,.T.);
#980=EDGE_CURVE('',#952,#922,#40,.T.);
#982=EDGE_CURVE('',#951,#952,#45,.T.);
#984=EDGE_CURVE('',#951,#800,#49,.T.);
#986=EDGE_CURVE('',#799,#800,#54,.T.);
#988=EDGE_CURVE('',#799,#876,#58,.T.);
#990=EDGE_CURVE('',#874,#876,#63,.T.);
#992=EDGE_CURVE('',#868,#874,#515,.T.);
#994=EDGE_CURVE('',#864,#868,#67,.T.);
#996=EDGE_CURVE('',#880,#864,#532,.T.);
#998=EDGE_CURVE('',#879,#880,#72,.T.);
#1000=EDGE_CURVE('',#879,#824,#76,.T.);
#1002=EDGE_CURVE('',#823,#824,#81,.T.);
#1004=EDGE_CURVE('',#823,#938,#85,.T.);
#1006=EDGE_CURVE('',#935,#938,#90,.T.);
#1008=EDGE_CURVE('',#935,#910,#94,.T.);
#1010=EDGE_CURVE('',#906,#910,#116,.T.);
#1012=EDGE_CURVE('',#928,#906,#98,.T.);
#1023=EDGE_CURVE('',#930,#928,#107,.T.);
#1025=EDGE_CURVE('',#930,#932,#103,.T.);
#1027=EDGE_CURVE('',#932,#927,#138,.T.);
#1039=EDGE_CURVE('',#905,#906,#111,.T.);
#1041=EDGE_CURVE('',#905,#930,#172,.T.);
#1052=EDGE_CURVE('',#909,#910,#129,.T.);
#1054=EDGE_CURVE('',#909,#905,#121,.T.);
#1065=EDGE_CURVE('',#935,#936,#125,.T.);
#1067=EDGE_CURVE('',#936,#909,#164,.T.);
#1081=EDGE_CURVE('',#938,#940,#142,.T.);
#1083=EDGE_CURVE('',#940,#936,#134,.T.);
#1094=EDGE_CURVE('',#940,#932,#168,.T.);
#1098=EDGE_CURVE('',#828,#823,#146,.T.);
#1100=EDGE_CURVE('',#828,#818,#259,.T.);
#1102=EDGE_CURVE('',#818,#816,#150,.T.);
#1121=EDGE_CURVE('',#902,#912,#155,.T.);
#1123=EDGE_CURVE('',#912,#902,#160,.T.);
#1134=EDGE_CURVE('',#890,#902,#190,.T.);
#1136=EDGE_CURVE('',#890,#892,#177,.T.);
#1138=EDGE_CURVE('',#892,#912,#181,.T.);
#1150=EDGE_CURVE('',#890,#892,#186,.T.);
#1161=EDGE_CURVE('',#888,#887,#278,.T.);
#1163=EDGE_CURVE('',#888,#890,#194,.T.);
#1166=EDGE_CURVE('',#887,#892,#198,.T.);
#1176=EDGE_CURVE('',#764,#844,#202,.T.);
#1178=EDGE_CURVE('',#842,#844,#297,.T.);
#1180=EDGE_CURVE('',#836,#842,#207,.T.);
#1182=EDGE_CURVE('',#834,#836,#724,.T.);
#1184=EDGE_CURVE('',#771,#834,#211,.T.);
#1186=EDGE_CURVE('',#804,#771,#215,.T.);
#1188=EDGE_CURVE('',#802,#804,#220,.T.);
#1190=EDGE_CURVE('',#812,#802,#224,.T.);
#1192=EDGE_CURVE('',#810,#812,#229,.T.);
#1194=EDGE_CURVE('',#764,#810,#233,.T.);
#1198=EDGE_CURVE('',#895,#896,#283,.T.);
#1200=EDGE_CURVE('',#896,#895,#288,.T.);
#1210=EDGE_CURVE('',#767,#852,#237,.T.);
#1212=EDGE_CURVE('',#850,#852,#711,.T.);
#1214=EDGE_CURVE('',#860,#850,#242,.T.);
#1216=EDGE_CURVE('',#858,#860,#698,.T.);
#1218=EDGE_CURVE('',#762,#858,#246,.T.);
#1220=EDGE_CURVE('',#820,#762,#250,.T.);
#1222=EDGE_CURVE('',#818,#820,#255,.T.);
#1225=EDGE_CURVE('',#826,#828,#264,.T.);
#1227=EDGE_CURVE('',#767,#826,#268,.T.);
#1231=EDGE_CURVE('',#887,#888,#273,.T.);
#1242=EDGE_CURVE('',#844,#839,#292,.T.);
#1245=EDGE_CURVE('',#764,#760,#689,.T.);
#1247=EDGE_CURVE('',#760,#839,#373,.T.);
#1257=EDGE_CURVE('',#839,#840,#369,.T.);
#1259=EDGE_CURVE('',#842,#840,#732,.T.);
#1271=EDGE_CURVE('',#871,#872,#350,.T.);
#1273=EDGE_CURVE('',#871,#772,#553,.T.);
#1275=EDGE_CURVE('',#832,#772,#354,.T.);
#1277=EDGE_CURVE('',#831,#832,#359,.T.);
#1279=EDGE_CURVE('',#840,#831,#364,.T.);
#1283=EDGE_CURVE('',#759,#760,#685,.T.);
#1285=EDGE_CURVE('',#856,#759,#377,.T.);
#1287=EDGE_CURVE('',#855,#856,#382,.T.);
#1289=EDGE_CURVE('',#848,#855,#387,.T.);
#1291=EDGE_CURVE('',#847,#848,#392,.T.);
#1293=EDGE_CURVE('',#768,#847,#396,.T.);
#1295=EDGE_CURVE('',#768,#884,#561,.T.);
#1297=EDGE_CURVE('',#882,#884,#401,.T.);
#1299=EDGE_CURVE('',#863,#882,#537,.T.);
#1301=EDGE_CURVE('',#863,#867,#405,.T.);
#1303=EDGE_CURVE('',#872,#867,#510,.T.);
#1307=EDGE_CURVE('',#743,#744,#317,.T.);
#1309=EDGE_CURVE('',#748,#743,#321,.T.);
#1311=EDGE_CURVE('',#746,#748,#325,.T.);
#1313=EDGE_CURVE('',#744,#746,#329,.T.);
#1317=EDGE_CURVE('',#751,#752,#333,.T.);
#1319=EDGE_CURVE('',#756,#751,#337,.T.);
#1321=EDGE_CURVE('',#754,#756,#341,.T.);
#1323=EDGE_CURVE('',#752,#754,#345,.T.);
#1327=EDGE_CURVE('',#735,#736,#301,.T.);
#1329=EDGE_CURVE('',#740,#735,#305,.T.);
#1331=EDGE_CURVE('',#738,#740,#309,.T.);
#1333=EDGE_CURVE('',#736,#738,#313,.T.);
#1343=EDGE_CURVE('',#775,#776,#409,.T.);
#1345=EDGE_CURVE('',#775,#735,#413,.T.);
#1348=EDGE_CURVE('',#776,#736,#421,.T.);
#1359=EDGE_CURVE('',#776,#778,#417,.T.);
#1361=EDGE_CURVE('',#778,#780,#425,.T.);
#1363=EDGE_CURVE('',#780,#775,#433,.T.);
#1373=EDGE_CURVE('',#783,#784,#441,.T.);
#1375=EDGE_CURVE('',#784,#786,#465,.T.);
#1377=EDGE_CURVE('',#786,#788,#457,.T.);
#1379=EDGE_CURVE('',#788,#783,#449,.T.);
#1392=EDGE_CURVE('',#778,#738,#429,.T.);
#1405=EDGE_CURVE('',#780,#740,#437,.T.);
#1428=EDGE_CURVE('',#783,#751,#445,.T.);
#1431=EDGE_CURVE('',#784,#752,#469,.T.);
#1442=EDGE_CURVE('',#788,#756,#453,.T.);
#1455=EDGE_CURVE('',#786,#754,#461,.T.);
#1479=EDGE_CURVE('',#791,#792,#473,.T.);
#1481=EDGE_CURVE('',#791,#743,#477,.T.);
#1484=EDGE_CURVE('',#792,#744,#485,.T.);
#1495=EDGE_CURVE('',#792,#794,#481,.T.);
#1497=EDGE_CURVE('',#794,#796,#489,.T.);
#1499=EDGE_CURVE('',#796,#791,#497,.T.);
#1512=EDGE_CURVE('',#794,#746,#493,.T.);
#1525=EDGE_CURVE('',#796,#748,#501,.T.);
#1548=EDGE_CURVE('',#874,#872,#505,.T.);
#1551=EDGE_CURVE('',#876,#871,#541,.T.);
#1563=EDGE_CURVE('',#867,#868,#523,.T.);
#1574=EDGE_CURVE('',#863,#864,#519,.T.);
#1587=EDGE_CURVE('',#882,#880,#527,.T.);
#1603=EDGE_CURVE('',#884,#879,#557,.T.);
#1615=EDGE_CURVE('',#804,#799,#545,.T.);
#1618=EDGE_CURVE('',#771,#772,#549,.T.);
#1631=EDGE_CURVE('',#767,#768,#565,.T.);
#1634=EDGE_CURVE('',#826,#824,#569,.T.);
#1646=EDGE_CURVE('',#802,#800,#581,.T.);
#1658=EDGE_CURVE('',#946,#948,#573,.T.);
#1661=EDGE_CURVE('',#812,#807,#577,.T.);
#1666=EDGE_CURVE('',#956,#951,#585,.T.);
#1668=EDGE_CURVE('',#948,#956,#612,.T.);
#1678=EDGE_CURVE('',#943,#944,#594,.T.);
#1682=EDGE_CURVE('',#948,#944,#590,.T.);
#1693=EDGE_CURVE('',#915,#944,#620,.T.);
#1695=EDGE_CURVE('',#920,#915,#598,.T.);
#1707=EDGE_CURVE('',#954,#956,#651,.T.);
#1709=EDGE_CURVE('',#954,#916,#616,.T.);
#1711=EDGE_CURVE('',#915,#916,#664,.T.);
#1717=EDGE_CURVE('',#918,#924,#603,.T.);
#1719=EDGE_CURVE('',#924,#918,#608,.T.);
#1730=EDGE_CURVE('',#900,#918,#624,.T.);
#1732=EDGE_CURVE('',#898,#900,#629,.T.);
#1734=EDGE_CURVE('',#898,#924,#633,.T.);
#1746=EDGE_CURVE('',#898,#900,#638,.T.);
#1758=EDGE_CURVE('',#895,#900,#646,.T.);
#1761=EDGE_CURVE('',#896,#898,#642,.T.);
#1784=EDGE_CURVE('',#954,#952,#655,.T.);
#1798=EDGE_CURVE('',#922,#916,#659,.T.);
#1822=EDGE_CURVE('',#810,#808,#673,.T.);
#1836=EDGE_CURVE('',#820,#815,#677,.T.);
#1839=EDGE_CURVE('',#762,#759,#681,.T.);
#1864=EDGE_CURVE('',#858,#856,#693,.T.);
#1880=EDGE_CURVE('',#860,#855,#706,.T.);
#1890=EDGE_CURVE('',#850,#848,#702,.T.);
#1906=EDGE_CURVE('',#852,#847,#715,.T.);
#1928=EDGE_CURVE('',#834,#832,#719,.T.);
#1944=EDGE_CURVE('',#836,#831,#728,.T.);
#1985=CLOSED_SHELL('',(#1016,#1031,#1045,#1059,#1073,#1087,#1107,#1127,#1142,
#1155,#1170,#1204,#1236,#1251,#1265,#1337,#1352,#1367,#1383,#1396,#1409,#1421,
#1435,#1448,#1461,#1473,#1488,#1503,#1516,#1529,#1541,#1555,#1568,#1581,#1594,
#1607,#1623,#1639,#1652,#1672,#1686,#1700,#1723,#1738,#1751,#1765,#1777,#1790,
#1803,#1815,#1828,#1846,#1858,#1871,#1884,#1897,#1910,#1922,#1935,#1948,#1960,
#1972,#1984));
#1986=MANIFOLD_SOLID_BREP('',#1985);
#1988=(LENGTH_UNIT()NAMED_UNIT(*)SI_UNIT(.MILLI.,.METRE.));
#1992=(NAMED_UNIT(*)PLANE_ANGLE_UNIT()SI_UNIT($,.RADIAN.));
#1995=(NAMED_UNIT(*)SI_UNIT($,.STERADIAN.)SOLID_ANGLE_UNIT());
#1998=ADVANCED_BREP_SHAPE_REPRESENTATION('',(#1986),#1997);
#2005=PRODUCT_DEFINITION('design','',#2004,#2001);
#2006=PRODUCT_DEFINITION_SHAPE('','SHAPE FOR 19200_13122517.',#2005);
#2007=SHAPE_DEFINITION_REPRESENTATION(#2006,#1998);
ENDSEC;
END-ISO-10303-21;
