M48
;Layer_Color=9474304
;FILE_FORMAT=4:4
METRIC,LZ
;TYPE=PLATED
T01F00S00C0.2540
T02F00S00C0.8128
T03F00S00C2.2000
;TYPE=NON_PLATED
T04F00S00C1.4478
%
T01
X0041021Y0008001
X0041783
X00438602Y00080259
X0045181Y0009906
X00458922
X00466288
X00440634Y0013462
X00442034Y0016129
X00435684
X00448384
X004191Y0015621
X00537284Y0011684
X0052832Y0010033
X00522806Y00057175
X00508836Y00050673
X00488516Y00050825
X005482Y00054889
X005588Y0005461
X00563446Y00067335
X0038608Y0013462
X0033147Y0014859
X0030226Y0012573
X0031242Y0009652
X00282194Y0009906
X0026035
X0024257Y001397
X0023114Y0013462
X0023876Y0015875
X0022225Y0016129
X002794Y0015113
X003048Y0018288
X0012954Y0015367
X0012319
Y0014351
T02
X001455Y000777
X001709
X001963
X002217
X002471
X002725
X002979
X003233
X003487
T03
X00592328Y0010668
X00020828
T04
X001455Y00040108
X003487
M30
