M48
;Layer_Color=9474304
;FILE_FORMAT=4:4
METRIC,LZ
;TYPE=PLATED
T01F00S00C0.1524
T02F00S00C0.2540
T03F00S00C0.6350
T04F00S00C1.2700
T05F00S00C1.8034
;TYPE=NON_PLATED
T06F00S00C0.9906
%
T01
X00544148Y01962866
X00549228Y01961088
X00555578Y01959564
X0056142Y01960072
X0057412Y01967184
X00573104Y01972518
X00578866Y01977644
X00550926Y01977156
X0054356Y0197358
X00538988Y01977644
X00541528Y01983486
X0063879Y0195453
X0063909Y0194437
X0064643Y01959864
X00679196Y01961134
X0067421Y019672
X0068421
X0069723Y0196596
Y0197614
X0068961Y019431
X0067945Y0194338
X0067818Y019333
X0067168
X00672084Y0192151
X0067338Y0190754
X00652018Y01892808
X00702056Y0188214
X00752856Y01969516
X0075819Y01971294
X0076327Y01969516
X00766826Y0199009
X00772414
X00779272Y0199517
X00757936Y01996948
X00749046Y01989836
X00743204Y01989582
X0069723Y0198626
X0069342Y0202922
X0068354Y02029206
X00666242Y02034286
X0071374Y02035556
Y0204599
X0070612Y0207518
X0070104
Y0208026
X0070612
Y020955
Y0210058
X0070104
Y020955
X006985Y02171644
X00652653Y02132711
X0064516Y02132584
X00621284Y02137156
X0061595Y02131822
X00601726Y0213106
X00597662Y02135632
X00576834Y02137156
X00551434Y0215646
X00556086Y02073102
X00578866Y02069084
X00583438Y02074164
X00589026Y02069084
X00578946Y02054318
X00595122Y02044954
X0061468Y0207518
X0061976
Y0208026
X0061468
X0059436Y020955
Y0210058
X0058928
Y020955
X00617982Y02015744
X0063119Y0200759
X0057785Y01989582
X00538734Y01988058
X00549736Y02003252
T02
X00625512Y01824142
X00625531Y01829834
X00625588Y01835565
X00631376Y01835507
X00631433Y01829796
X00631395Y01824065
X00630936Y0185547
X0062865Y018923
X00635
Y0189865
X0062865
X006223
Y018923
X00669312Y01880865
X0062738Y0197485
Y019812
X0062103
Y0197485
Y0198755
X0062738
X0069342Y0201422
X0067945Y0213614
X0067183
X0066421
X00635Y0215138
X0056388Y0214884
Y0214122
X00721258Y0215265
X007366Y0213614
X0074422
X0075184
X0075946
X0076708
X0077531Y0215265
T03
X00622554Y01767078
X00640588
X00658622Y01759458
X00658368Y01777238
X00680212Y01767078
X00698246
X00696976Y01828038
X006858Y02171954
X006604
X00635
X006096
X005842
X005588
X007112
X007366
X00762
T04
X00631952Y01792732
X00688848
T05
X006604Y01822704
X0056515Y02095754
X0075565
T06
X0054237Y02010872
X0056269
X0055253Y02061672
M30
