%TF.GenerationSoftware,Altium Limited,Altium Designer,25.2.1 (25)*%
G04 Layer_Physical_Order=1*
G04 Layer_Color=255*
%FSLAX45Y45*%
%MOMM*%
%TF.SameCoordinates,1405630C-4DB4-4800-89E6-4DE4E69AA207*%
%TF.FilePolarity,Positive*%
%TF.FileFunction,Copper,L1,Top,Signal*%
%TF.Part,Single*%
G01*
G75*
%TA.AperFunction,SMDPad,CuDef*%
G04:AMPARAMS|DCode=10|XSize=0.67mm|YSize=0.3mm|CornerRadius=0.0255mm|HoleSize=0mm|Usage=FLASHONLY|Rotation=270.000|XOffset=0mm|YOffset=0mm|HoleType=Round|Shape=RoundedRectangle|*
%AMROUNDEDRECTD10*
21,1,0.67000,0.24900,0,0,270.0*
21,1,0.61900,0.30000,0,0,270.0*
1,1,0.05100,-0.12450,-0.30950*
1,1,0.05100,-0.12450,0.30950*
1,1,0.05100,0.12450,0.30950*
1,1,0.05100,0.12450,-0.30950*
%
%ADD10ROUNDEDRECTD10*%
%ADD11R,0.42000X0.70000*%
%ADD12R,0.10000X0.10000*%
G04:AMPARAMS|DCode=13|XSize=0.56mm|YSize=0.62mm|CornerRadius=0.07mm|HoleSize=0mm|Usage=FLASHONLY|Rotation=90.000|XOffset=0mm|YOffset=0mm|HoleType=Round|Shape=RoundedRectangle|*
%AMROUNDEDRECTD13*
21,1,0.56000,0.48000,0,0,90.0*
21,1,0.42000,0.62000,0,0,90.0*
1,1,0.14000,0.24000,0.21000*
1,1,0.14000,0.24000,-0.21000*
1,1,0.14000,-0.24000,-0.21000*
1,1,0.14000,-0.24000,0.21000*
%
%ADD13ROUNDEDRECTD13*%
G04:AMPARAMS|DCode=14|XSize=0.54mm|YSize=0.64mm|CornerRadius=0.0675mm|HoleSize=0mm|Usage=FLASHONLY|Rotation=0.000|XOffset=0mm|YOffset=0mm|HoleType=Round|Shape=RoundedRectangle|*
%AMROUNDEDRECTD14*
21,1,0.54000,0.50500,0,0,0.0*
21,1,0.40500,0.64000,0,0,0.0*
1,1,0.13500,0.20250,-0.25250*
1,1,0.13500,-0.20250,-0.25250*
1,1,0.13500,-0.20250,0.25250*
1,1,0.13500,0.20250,0.25250*
%
%ADD14ROUNDEDRECTD14*%
%ADD15R,0.40000X0.45000*%
%ADD16R,1.72000X1.12000*%
G04:AMPARAMS|DCode=17|XSize=0.54mm|YSize=0.64mm|CornerRadius=0.0675mm|HoleSize=0mm|Usage=FLASHONLY|Rotation=270.000|XOffset=0mm|YOffset=0mm|HoleType=Round|Shape=RoundedRectangle|*
%AMROUNDEDRECTD17*
21,1,0.54000,0.50500,0,0,270.0*
21,1,0.40500,0.64000,0,0,270.0*
1,1,0.13500,-0.25250,-0.20250*
1,1,0.13500,-0.25250,0.20250*
1,1,0.13500,0.25250,0.20250*
1,1,0.13500,0.25250,-0.20250*
%
%ADD17ROUNDEDRECTD17*%
G04:AMPARAMS|DCode=18|XSize=0.56mm|YSize=0.62mm|CornerRadius=0.07mm|HoleSize=0mm|Usage=FLASHONLY|Rotation=180.000|XOffset=0mm|YOffset=0mm|HoleType=Round|Shape=RoundedRectangle|*
%AMROUNDEDRECTD18*
21,1,0.56000,0.48000,0,0,180.0*
21,1,0.42000,0.62000,0,0,180.0*
1,1,0.14000,-0.21000,0.24000*
1,1,0.14000,0.21000,0.24000*
1,1,0.14000,0.21000,-0.24000*
1,1,0.14000,-0.21000,-0.24000*
%
%ADD18ROUNDEDRECTD18*%
%TA.AperFunction,BGAPad,CuDef*%
%ADD19C,0.78740*%
%TA.AperFunction,SMDPad,CuDef*%
%ADD20R,0.35000X0.30000*%
%ADD21R,0.70000X0.30000*%
%ADD22R,0.30000X0.35000*%
%ADD23R,0.30000X0.70000*%
%ADD24C,1.27000*%
%ADD25R,0.85000X0.30000*%
%ADD26R,0.30000X0.85000*%
%ADD27R,0.60000X0.20000*%
%ADD28P,0.39994X4X180.0*%
%ADD29R,0.80000X1.07000*%
%ADD30C,1.01600*%
%ADD31R,1.66000X2.38000*%
%ADD32R,0.70000X0.25000*%
%ADD33R,0.27500X0.71300*%
G04:AMPARAMS|DCode=34|XSize=2.54mm|YSize=2.54mm|CornerRadius=0.127mm|HoleSize=0mm|Usage=FLASHONLY|Rotation=90.000|XOffset=0mm|YOffset=0mm|HoleType=Round|Shape=RoundedRectangle|*
%AMROUNDEDRECTD34*
21,1,2.54000,2.28600,0,0,90.0*
21,1,2.28600,2.54000,0,0,90.0*
1,1,0.25400,1.14300,1.14300*
1,1,0.25400,1.14300,-1.14300*
1,1,0.25400,-1.14300,-1.14300*
1,1,0.25400,-1.14300,1.14300*
%
%ADD34ROUNDEDRECTD34*%
%ADD35R,0.25000X1.25000*%
%ADD36R,0.85000X0.25000*%
%ADD37R,0.25000X0.80000*%
%ADD38R,0.80000X0.25000*%
G04:AMPARAMS|DCode=39|XSize=0.85mm|YSize=0.25mm|CornerRadius=0mm|HoleSize=0mm|Usage=FLASHONLY|Rotation=90.000|XOffset=0mm|YOffset=0mm|HoleType=Round|Shape=RoundedRectangle|*
%AMROUNDEDRECTD39*
21,1,0.85000,0.25000,0,0,90.0*
21,1,0.85000,0.25000,0,0,90.0*
1,1,0.00000,0.12500,0.42500*
1,1,0.00000,0.12500,-0.42500*
1,1,0.00000,-0.12500,-0.42500*
1,1,0.00000,-0.12500,0.42500*
%
%ADD39ROUNDEDRECTD39*%
%ADD40R,0.30000X0.30000*%
G04:AMPARAMS|DCode=41|XSize=1.6256mm|YSize=3.048mm|CornerRadius=0.08128mm|HoleSize=0mm|Usage=FLASHONLY|Rotation=180.000|XOffset=0mm|YOffset=0mm|HoleType=Round|Shape=RoundedRectangle|*
%AMROUNDEDRECTD41*
21,1,1.62560,2.88544,0,0,180.0*
21,1,1.46304,3.04800,0,0,180.0*
1,1,0.16256,-0.73152,1.44272*
1,1,0.16256,0.73152,1.44272*
1,1,0.16256,0.73152,-1.44272*
1,1,0.16256,-0.73152,-1.44272*
%
%ADD41ROUNDEDRECTD41*%
%ADD42R,0.22500X0.56300*%
%ADD43R,0.71300X0.22500*%
G04:AMPARAMS|DCode=44|XSize=0.3mm|YSize=0.2mm|CornerRadius=0.025mm|HoleSize=0mm|Usage=FLASHONLY|Rotation=0.000|XOffset=0mm|YOffset=0mm|HoleType=Round|Shape=RoundedRectangle|*
%AMROUNDEDRECTD44*
21,1,0.30000,0.15000,0,0,0.0*
21,1,0.25000,0.20000,0,0,0.0*
1,1,0.05000,0.12500,-0.07500*
1,1,0.05000,-0.12500,-0.07500*
1,1,0.05000,-0.12500,0.07500*
1,1,0.05000,0.12500,0.07500*
%
%ADD44ROUNDEDRECTD44*%
G04:AMPARAMS|DCode=45|XSize=0.35mm|YSize=0.2mm|CornerRadius=0.025mm|HoleSize=0mm|Usage=FLASHONLY|Rotation=0.000|XOffset=0mm|YOffset=0mm|HoleType=Round|Shape=RoundedRectangle|*
%AMROUNDEDRECTD45*
21,1,0.35000,0.15000,0,0,0.0*
21,1,0.30000,0.20000,0,0,0.0*
1,1,0.05000,0.15000,-0.07500*
1,1,0.05000,-0.15000,-0.07500*
1,1,0.05000,-0.15000,0.07500*
1,1,0.05000,0.15000,0.07500*
%
%ADD45ROUNDEDRECTD45*%
%ADD46R,0.70000X0.40000*%
%ADD47R,0.25000X0.40000*%
%TA.AperFunction,Conductor*%
%ADD48C,0.25400*%
%ADD49C,0.17780*%
%ADD50C,0.12700*%
%TA.AperFunction,ComponentPad*%
%ADD51C,0.99060*%
%ADD52C,2.54000*%
%ADD53C,1.01600*%
%ADD54C,1.27000*%
%ADD55R,1.27000X1.27000*%
%ADD56C,3.17500*%
%TA.AperFunction,ViaPad*%
%ADD57C,0.35560*%
%ADD58C,0.50800*%
G36*
X7550145Y22113356D02*
X7548359Y22111029D01*
X7540681Y22092493D01*
X7538062Y22072600D01*
X7540681Y22052708D01*
X7548359Y22034171D01*
X7560573Y22018253D01*
X7576491Y22006039D01*
X7595028Y21998361D01*
X7614920Y21995741D01*
X7634812Y21998361D01*
X7653349Y22006039D01*
X7661374Y22012196D01*
X7685964Y22001863D01*
X7686374Y22001460D01*
Y21853944D01*
X7686321Y21853404D01*
X7689508Y21821037D01*
X7693963Y21806354D01*
X7672371Y21791409D01*
X7664834Y21797194D01*
X7643207Y21806152D01*
X7620000Y21809207D01*
X7601103Y21806718D01*
X7600217Y21807767D01*
X7590439Y21829662D01*
X7597600Y21840378D01*
X7600115Y21853020D01*
Y21864320D01*
X7571347D01*
Y21889720D01*
X7600115D01*
Y21901019D01*
X7597600Y21913663D01*
X7590439Y21924379D01*
X7579722Y21931540D01*
X7567080Y21934055D01*
X7558780D01*
Y21905287D01*
X7533380D01*
Y21934055D01*
X7525080D01*
X7512438Y21931540D01*
X7498080Y21925829D01*
X7483722Y21931540D01*
X7471080Y21934055D01*
X7429080D01*
X7416438Y21931540D01*
X7405721Y21924379D01*
X7398560Y21913663D01*
X7396045Y21901019D01*
Y21853020D01*
X7398560Y21840378D01*
X7405721Y21829662D01*
X7404263Y21825629D01*
X7389207Y21806152D01*
X7366000Y21809207D01*
X7342793Y21806152D01*
X7321166Y21797194D01*
X7302596Y21782944D01*
X7288346Y21764374D01*
X7279388Y21742747D01*
X7276333Y21719540D01*
X7279388Y21696333D01*
X7288346Y21674706D01*
X7302596Y21656136D01*
X7321166Y21641885D01*
X7342793Y21632928D01*
X7366000Y21629874D01*
X7389207Y21632928D01*
X7410834Y21641885D01*
X7429404Y21656136D01*
X7443654Y21674706D01*
X7452612Y21696333D01*
X7455667Y21719540D01*
X7452612Y21742747D01*
X7450132Y21748735D01*
X7477549Y21776152D01*
X7485970Y21788754D01*
X7488927Y21803619D01*
Y21808144D01*
X7511967Y21822212D01*
X7513927Y21822205D01*
X7525080Y21819984D01*
X7533380D01*
Y21848753D01*
X7558780D01*
Y21819984D01*
X7567080D01*
X7572365Y21805087D01*
X7568080Y21798401D01*
X7592791Y21773689D01*
X7565850Y21746748D01*
X7544899Y21767700D01*
X7542346Y21764374D01*
X7533388Y21742747D01*
X7530333Y21719540D01*
X7533388Y21696333D01*
X7542346Y21674706D01*
X7544899Y21671381D01*
X7565850Y21692331D01*
X7592791Y21665390D01*
X7571840Y21644440D01*
X7575166Y21641885D01*
X7596793Y21632928D01*
X7620000Y21629874D01*
X7643207Y21632928D01*
X7664834Y21641885D01*
X7668160Y21644440D01*
X7647209Y21665390D01*
X7674150Y21692331D01*
X7695101Y21671381D01*
X7697654Y21674706D01*
X7706612Y21696333D01*
X7709667Y21719540D01*
X7708427Y21728958D01*
X7732281Y21739299D01*
X7734912Y21736093D01*
X7760053Y21715462D01*
X7767511Y21711475D01*
X7797800Y21640800D01*
X7805997Y21580345D01*
X7782444Y21567990D01*
X7772921Y21574353D01*
X7753100Y21578294D01*
X7733279Y21574353D01*
X7716475Y21563126D01*
X7705247Y21546321D01*
X7701305Y21526500D01*
X7705247Y21506679D01*
X7716475Y21489874D01*
X7733279Y21478647D01*
X7753100Y21474706D01*
X7772921Y21478647D01*
X7789725Y21489874D01*
X7792477Y21493994D01*
X7818522Y21487975D01*
X7998447Y20161028D01*
X7982000Y20142200D01*
X7518400D01*
X7416800Y20040601D01*
X6903724D01*
X6886100Y20058299D01*
Y20165300D01*
Y20236099D01*
X6886100D01*
X6885333Y20254874D01*
X6903069Y20261069D01*
X6917352Y20251524D01*
X6934200Y20248174D01*
X6951048Y20251524D01*
X6951459Y20251801D01*
X7083600D01*
Y20290582D01*
X7105719Y20305141D01*
X7108600Y20305576D01*
X7112150Y20304871D01*
X7162650D01*
X7175194Y20307365D01*
X7185829Y20314471D01*
X7192935Y20325105D01*
X7195430Y20337650D01*
Y20378149D01*
X7192935Y20390694D01*
X7185829Y20401329D01*
X7185829Y20416470D01*
X7192935Y20427106D01*
X7195430Y20439650D01*
Y20480150D01*
X7192935Y20492694D01*
X7185829Y20503329D01*
X7175194Y20510434D01*
X7162650Y20512930D01*
X7112150D01*
X7099606Y20510434D01*
X7088971Y20503329D01*
X7081865Y20492694D01*
X7079370Y20480150D01*
Y20439650D01*
X7081865Y20427106D01*
X7088971Y20416470D01*
X7088971Y20401329D01*
X7081865Y20390694D01*
X7080255Y20382600D01*
X6986100D01*
Y20480099D01*
X6755300D01*
Y20382600D01*
X6680667D01*
X6679268Y20383534D01*
X6662420Y20386887D01*
X6645572Y20383534D01*
X6631289Y20373991D01*
X6621745Y20359708D01*
X6618394Y20342860D01*
X6621745Y20326012D01*
X6631289Y20311729D01*
X6645572Y20302185D01*
X6657800Y20299753D01*
Y20251801D01*
X6750816D01*
X6760273Y20239001D01*
X6760159Y20223747D01*
X6755300Y20216100D01*
X6732931Y20209749D01*
X6125732Y20205843D01*
X6107998Y20223463D01*
Y20252000D01*
X6106026Y20261909D01*
X6103455Y20265759D01*
X6100824Y21221741D01*
X6125787Y21235129D01*
X6125801Y21235120D01*
X6139180Y21232458D01*
X6197600D01*
X6210979Y21235120D01*
X6222322Y21242699D01*
X6222846Y21243481D01*
X6284449Y21305086D01*
X6313040D01*
X6325682Y21307600D01*
X6336399Y21314761D01*
X6340260Y21320540D01*
X6407655Y21325433D01*
X6410925Y21308992D01*
X6420469Y21294708D01*
X6434752Y21285165D01*
X6451600Y21281815D01*
X6468448Y21285165D01*
X6471289Y21287064D01*
X6495399Y21295979D01*
X6509682Y21286435D01*
X6526530Y21283084D01*
X6543378Y21286435D01*
X6557661Y21295979D01*
X6567205Y21310262D01*
X6570556Y21327110D01*
X6567205Y21343958D01*
X6558022Y21357700D01*
X6604000Y21564600D01*
X6540750D01*
Y21580949D01*
X6539329D01*
X6536191Y21605949D01*
X6568331Y21638091D01*
X6580793Y21632928D01*
X6604000Y21629874D01*
X6627207Y21632928D01*
X6648834Y21641885D01*
X6667404Y21656136D01*
X6681654Y21674706D01*
X6690612Y21696333D01*
X6693667Y21719540D01*
X6690612Y21742747D01*
X6681654Y21764374D01*
X6667404Y21782944D01*
X6648834Y21797194D01*
X6627207Y21806152D01*
X6604000Y21809207D01*
X6580793Y21806152D01*
X6559166Y21797194D01*
X6540596Y21782944D01*
X6526346Y21764374D01*
X6517388Y21742747D01*
X6514333Y21719540D01*
X6517388Y21696333D01*
X6522550Y21683871D01*
X6494151Y21655472D01*
X6476186Y21642093D01*
X6460008Y21655313D01*
X6431450Y21683871D01*
X6436612Y21696333D01*
X6439667Y21719540D01*
X6436612Y21742747D01*
X6427654Y21764374D01*
X6413404Y21782944D01*
X6394834Y21797194D01*
X6373207Y21806152D01*
X6350000Y21809207D01*
X6326793Y21806152D01*
X6305166Y21797194D01*
X6286596Y21782944D01*
X6272346Y21764374D01*
X6263388Y21742747D01*
X6260333Y21719540D01*
X6263388Y21696333D01*
X6272346Y21674706D01*
X6286596Y21656136D01*
X6305166Y21641885D01*
X6326793Y21632928D01*
X6350000Y21629874D01*
X6373207Y21632928D01*
X6385669Y21638091D01*
X6417809Y21605949D01*
X6415803Y21580949D01*
X6362450D01*
X6344997Y21564600D01*
X6096260D01*
X6073575Y21578700D01*
Y21607610D01*
X6095981Y21629854D01*
X6097803Y21630110D01*
X6119207Y21632928D01*
X6140834Y21641885D01*
X6159404Y21656136D01*
X6173654Y21674706D01*
X6182612Y21696333D01*
X6185667Y21719540D01*
X6182612Y21742747D01*
X6173654Y21764374D01*
X6159404Y21782944D01*
X6140834Y21797194D01*
X6119207Y21806152D01*
X6096000Y21809207D01*
X6072793Y21806152D01*
X6051166Y21797194D01*
X6032596Y21782944D01*
X6018346Y21764374D01*
X6009388Y21742747D01*
X6006333Y21719540D01*
X6009388Y21696333D01*
X6013477Y21686461D01*
X5994818Y21667802D01*
X5990465Y21661285D01*
X5984578Y21658357D01*
X5966182Y21653639D01*
X5957182Y21657220D01*
X5951134Y21658423D01*
X5948262Y21662721D01*
X5948261Y21662721D01*
X5924523Y21686461D01*
X5928612Y21696333D01*
X5931667Y21719540D01*
X5928612Y21742747D01*
X5919654Y21764374D01*
X5905404Y21782944D01*
X5886834Y21797194D01*
X5865207Y21806152D01*
X5865171Y21806157D01*
X5842435Y21820000D01*
Y21867999D01*
X5839920Y21880643D01*
X5832759Y21891359D01*
X5822042Y21898520D01*
X5809400Y21901035D01*
X5767400D01*
X5754758Y21898520D01*
X5740400Y21892809D01*
X5726042Y21898520D01*
X5713400Y21901035D01*
X5705100D01*
Y21872267D01*
X5679700D01*
Y21901035D01*
X5671400D01*
X5658758Y21898520D01*
X5648041Y21891359D01*
X5640880Y21880643D01*
X5638365Y21867999D01*
Y21856700D01*
X5667133D01*
Y21831300D01*
X5638365D01*
Y21820000D01*
X5628878Y21808440D01*
X5607050D01*
Y21779990D01*
X5568950D01*
Y21808440D01*
X5537946D01*
X5519712Y21833440D01*
X5521679Y21853404D01*
X5521678Y21853416D01*
X5521626D01*
Y22138356D01*
X5561150D01*
X5565371Y22133234D01*
X5572252Y22113356D01*
X5564619Y22103409D01*
X5556941Y22084872D01*
X5554322Y22064980D01*
X5556941Y22045088D01*
X5564619Y22026550D01*
X5576833Y22010632D01*
X5592751Y21998419D01*
X5611288Y21990741D01*
X5631180Y21988123D01*
X5651072Y21990741D01*
X5669609Y21998419D01*
X5685527Y22010632D01*
X5697741Y22026550D01*
X5705419Y22045088D01*
X5708038Y22064980D01*
X5705419Y22084872D01*
X5697741Y22103409D01*
X5690108Y22113356D01*
X5696989Y22133234D01*
X5701210Y22138356D01*
X7537816D01*
X7550145Y22113356D01*
D02*
G37*
G36*
X7451071Y21814905D02*
X7450980Y21812663D01*
X7450080Y21808144D01*
Y21807446D01*
X7449377Y21803911D01*
X7447375Y21800916D01*
X7431404Y21784944D01*
X7428449Y21786176D01*
X7427174Y21791750D01*
X7434998Y21801871D01*
X7437681Y21807263D01*
X7440795Y21812421D01*
X7442253Y21816454D01*
X7442647Y21819051D01*
X7445164Y21819414D01*
X7447646Y21819463D01*
X7451071Y21814905D01*
D02*
G37*
G36*
X5705100Y21786964D02*
X5713400D01*
X5724553Y21789185D01*
X5726513Y21789192D01*
X5749553Y21775124D01*
Y21773140D01*
X5752510Y21758273D01*
X5758257Y21749673D01*
X5755388Y21742747D01*
X5752333Y21719540D01*
X5755388Y21696333D01*
X5764346Y21674706D01*
X5778596Y21656136D01*
X5797166Y21641885D01*
X5818793Y21632928D01*
X5842000Y21629874D01*
X5845240Y21630299D01*
X5846329Y21630138D01*
X5869505Y21608740D01*
Y21578700D01*
X5846820Y21564600D01*
X5558366D01*
X5555015Y21581448D01*
X5545471Y21595731D01*
X5531188Y21605275D01*
X5529351Y21605640D01*
X5531813Y21630640D01*
X5568950D01*
Y21659090D01*
X5607050D01*
Y21630640D01*
X5676900D01*
Y21700490D01*
X5648450D01*
Y21738589D01*
X5676900D01*
Y21786964D01*
X5679700D01*
Y21815733D01*
X5705100D01*
Y21786964D01*
D02*
G37*
G36*
X5486400Y21725139D02*
Y21617940D01*
X5486400D01*
X5486144Y21612965D01*
X5474053Y21604887D01*
X5461702Y21586403D01*
X5457365Y21564600D01*
X5461702Y21542796D01*
X5474053Y21524313D01*
X5492537Y21511961D01*
X5514340Y21507625D01*
X5536143Y21511961D01*
X5554627Y21524313D01*
X5555915Y21526241D01*
X5558366Y21525752D01*
X5582000D01*
X5584394Y21521272D01*
X5578984Y21513176D01*
X5574056Y21488400D01*
X5578984Y21463625D01*
X5587887Y21450301D01*
X5578984Y21436977D01*
X5574056Y21412199D01*
X5578984Y21387424D01*
X5593019Y21366418D01*
X5614024Y21352383D01*
X5638800Y21347456D01*
X5663576Y21352383D01*
X5684581Y21366418D01*
X5698616Y21387424D01*
X5703544Y21412199D01*
X5698616Y21436977D01*
X5689713Y21450301D01*
X5698616Y21463625D01*
X5703544Y21488400D01*
X5698616Y21513176D01*
X5693206Y21521272D01*
X5695600Y21525752D01*
X5846820D01*
X5849950Y21526376D01*
X5853140Y21526271D01*
X5857314Y21527841D01*
X5861686Y21528711D01*
X5864339Y21530482D01*
X5867327Y21531607D01*
X5890012Y21545708D01*
X5892170Y21547728D01*
X5898140Y21546541D01*
Y21552968D01*
X5898751Y21553882D01*
X5901081Y21556064D01*
X5902922Y21560126D01*
X5905400Y21563832D01*
X5906022Y21566965D01*
X5907340Y21569870D01*
X5907487Y21574327D01*
X5908357Y21578700D01*
Y21602699D01*
X5948940D01*
Y21546541D01*
X5957182Y21548180D01*
X5962374Y21551649D01*
X5966025Y21546185D01*
X5980943Y21536217D01*
X5998540Y21532716D01*
X6040540D01*
X6058137Y21536217D01*
X6063053Y21539500D01*
X6075753Y21531607D01*
X6078740Y21530484D01*
X6081394Y21528711D01*
X6085767Y21527841D01*
X6089940Y21526271D01*
X6093130Y21526376D01*
X6096260Y21525752D01*
X6344997D01*
X6351823Y21527110D01*
X6357370Y21528027D01*
X6362003Y21525320D01*
X6362450Y21524796D01*
Y21479849D01*
X6349751D01*
X6349750Y21479849D01*
Y21479851D01*
X6349750Y21479849D01*
X6345118Y21480931D01*
X6343560Y21488762D01*
X6336399Y21499480D01*
X6325682Y21506641D01*
X6314440Y21508876D01*
Y21455119D01*
X6289040D01*
Y21429720D01*
X6232881D01*
X6233060Y21428819D01*
X6229467Y21425227D01*
X6226298Y21425858D01*
X6219578Y21432578D01*
X6204035Y21442963D01*
X6185700Y21446609D01*
X6136881D01*
X6136321Y21446983D01*
X6120480Y21450134D01*
X6095480D01*
X6080480Y21447151D01*
X6065480Y21450134D01*
X6035480D01*
X6034552Y21449950D01*
X5978885D01*
X5973939Y21454897D01*
Y21478371D01*
X5970458Y21495869D01*
X5960545Y21510706D01*
X5945709Y21520618D01*
X5928210Y21524098D01*
X5877710D01*
X5860211Y21520618D01*
X5845375Y21510706D01*
X5840313Y21503130D01*
X5836565Y21502383D01*
X5821022Y21491998D01*
X5754882Y21425858D01*
X5746537Y21424197D01*
X5728053Y21411847D01*
X5715702Y21393362D01*
X5711365Y21371561D01*
X5715702Y21349757D01*
X5728053Y21331273D01*
X5746537Y21318922D01*
X5768340Y21314584D01*
X5790143Y21318922D01*
X5808627Y21331273D01*
X5820978Y21349757D01*
X5822638Y21358102D01*
X5839850Y21375314D01*
X5844930Y21373210D01*
Y21368822D01*
X5902959D01*
Y21356120D01*
X5915659D01*
Y21303090D01*
X5928210D01*
X5940754Y21305586D01*
X5951389Y21312691D01*
X5957274Y21321498D01*
X5962059Y21319516D01*
X5960285Y21310600D01*
X5964622Y21288797D01*
X5976973Y21270312D01*
X5995457Y21257962D01*
X6017260Y21253625D01*
X6021197Y21254408D01*
X6026620Y21253329D01*
X6030529D01*
X6035480Y21252345D01*
X6060480D01*
X6072511Y21254738D01*
X6074500Y21249954D01*
X6073280Y21249133D01*
X6072229Y21247551D01*
X6070761Y21246342D01*
X6068066Y21241284D01*
X6064894Y21236508D01*
X6064528Y21234644D01*
X6063635Y21232967D01*
X6063081Y21227260D01*
X6061978Y21221634D01*
X6063462Y20682350D01*
X6058386Y20680801D01*
X6054459Y20686679D01*
X6043742Y20693840D01*
X6031100Y20696355D01*
X6019800D01*
Y20642320D01*
X6000232D01*
Y20652740D01*
X5997274Y20667609D01*
X5994400Y20671909D01*
Y20696355D01*
X5983100D01*
X5970458Y20693840D01*
X5965777Y20690712D01*
X5961380Y20691586D01*
X5947086D01*
X5943356Y20710339D01*
Y20722130D01*
X5940201Y20737991D01*
X5931217Y20751437D01*
X5917771Y20760422D01*
X5901910Y20763576D01*
X5886929D01*
X5874667Y20781927D01*
X5856183Y20794278D01*
X5834380Y20798615D01*
X5812577Y20794278D01*
X5794093Y20781927D01*
X5781742Y20763443D01*
X5779193Y20750629D01*
X5777010D01*
X5766105Y20748459D01*
X5756859Y20742281D01*
X5750682Y20733035D01*
X5748513Y20722130D01*
Y20719440D01*
X5777193D01*
Y20694040D01*
X5748513D01*
Y20684583D01*
X5743314Y20683549D01*
X5730711Y20675130D01*
X5722291Y20662526D01*
X5719333Y20647659D01*
Y20607021D01*
X5722291Y20592154D01*
X5730711Y20579552D01*
X5735946Y20576054D01*
X5735564Y20574130D01*
Y20558656D01*
X5732485Y20543179D01*
X5735564Y20527704D01*
Y20512230D01*
X5738719Y20496368D01*
X5747703Y20482922D01*
X5761149Y20473938D01*
X5777010Y20470784D01*
X5801910D01*
X5817771Y20473938D01*
X5831217Y20482922D01*
X5836920Y20491458D01*
X5842000D01*
X5847703Y20482922D01*
X5861149Y20473938D01*
X5877010Y20470784D01*
X5892955D01*
X5896763Y20466806D01*
X5896499Y20462575D01*
X5788269Y20354346D01*
X5665305Y20477309D01*
X5666939Y20489720D01*
X5664276Y20509944D01*
X5656470Y20528789D01*
X5644052Y20544972D01*
X5627869Y20557390D01*
X5609024Y20565196D01*
X5602431Y20566064D01*
X5600487Y20570757D01*
X5601845Y20572527D01*
X5610675Y20593845D01*
X5613686Y20616721D01*
X5610675Y20639597D01*
X5601845Y20660913D01*
X5589581Y20676895D01*
X5590066Y20683328D01*
X5601147Y20690733D01*
X5613498Y20709216D01*
X5617835Y20731020D01*
X5613498Y20752823D01*
X5608856Y20759770D01*
X5611883Y20763850D01*
X5612911Y20763538D01*
X5651500Y20759737D01*
X5690089Y20763538D01*
X5727196Y20774794D01*
X5761393Y20793073D01*
X5791367Y20817673D01*
X5815967Y20847647D01*
X5834246Y20881844D01*
X5845502Y20918951D01*
X5849303Y20957539D01*
X5845502Y20996129D01*
X5834246Y21033237D01*
X5815967Y21067433D01*
X5791367Y21097408D01*
X5761393Y21122008D01*
X5727196Y21140286D01*
X5690089Y21151543D01*
X5651500Y21155344D01*
X5612911Y21151543D01*
X5575804Y21140286D01*
X5541607Y21122008D01*
X5511633Y21097408D01*
X5487033Y21067433D01*
X5468754Y21033237D01*
X5457498Y20996129D01*
X5453697Y20957539D01*
X5457498Y20918951D01*
X5468754Y20881844D01*
X5487033Y20847647D01*
X5511633Y20817673D01*
X5541607Y20793073D01*
X5547103Y20790135D01*
X5546358Y20785110D01*
X5539057Y20783658D01*
X5531982Y20778931D01*
X5459260D01*
X5440925Y20775284D01*
X5425382Y20764899D01*
X5407602Y20747118D01*
X5397217Y20731575D01*
X5393570Y20713240D01*
Y20536638D01*
X5380225Y20533984D01*
X5364682Y20523598D01*
X5275608Y20434525D01*
X5254460D01*
X5249836Y20438550D01*
X5402484Y21681773D01*
X5424152Y21688345D01*
X5455039Y21704855D01*
X5481320Y21726424D01*
X5486400Y21725139D01*
D02*
G37*
G36*
X7757764Y21537759D02*
X7760862Y21535690D01*
X7765997Y21533563D01*
X7769855Y21531462D01*
X7770423Y21530206D01*
X7770574Y21528951D01*
X7770640Y21528131D01*
X7770444Y21525842D01*
X7765951Y21521350D01*
X7763600Y21519141D01*
X7757764Y21515240D01*
X7753100Y21514313D01*
X7748436Y21515240D01*
X7744482Y21517882D01*
X7741840Y21521835D01*
X7740912Y21526500D01*
X7741840Y21531165D01*
X7744482Y21535118D01*
X7748436Y21537759D01*
X7753100Y21538689D01*
X7757764Y21537759D01*
D02*
G37*
G36*
X5975745Y21349049D02*
X5965843Y21334232D01*
X5961353Y21335748D01*
X5960990Y21336111D01*
Y21354131D01*
X5973377D01*
X5975745Y21349049D01*
D02*
G37*
G36*
X6935100Y20292783D02*
X6934874Y20292377D01*
X6930020Y20289781D01*
X6924651Y20293369D01*
X6922125Y20294415D01*
X6919942Y20296060D01*
X6915187Y20297289D01*
X6910648Y20299168D01*
X6907914D01*
X6905267Y20299854D01*
X6900402Y20299168D01*
X6895491D01*
X6890366Y20302161D01*
X6888038Y20313863D01*
X6879180Y20327119D01*
X6881575Y20331599D01*
X6935100D01*
Y20292783D01*
D02*
G37*
G36*
X5413986Y20428760D02*
Y20423680D01*
X5406548Y20417972D01*
X5394130Y20401788D01*
X5386324Y20382944D01*
X5383662Y20362720D01*
X5386324Y20342496D01*
X5394130Y20323651D01*
X5397284Y20319540D01*
X5412754D01*
X5415103Y20316023D01*
X5417752Y20314255D01*
Y20298871D01*
X5422731Y20295050D01*
X5424716Y20294228D01*
X5425214Y20289172D01*
X5417752Y20284186D01*
X5415103Y20282417D01*
X5400788Y20260992D01*
X5398287Y20248421D01*
X5461799D01*
Y20223021D01*
X5398287D01*
X5400788Y20210448D01*
X5408162Y20199413D01*
X5406065Y20194785D01*
X5400824Y20194093D01*
X5399924Y20193723D01*
X5392999Y20177107D01*
X5385912Y20174171D01*
X5370259Y20162161D01*
X5358249Y20146507D01*
X5350699Y20128281D01*
X5348123Y20108720D01*
X5350699Y20089159D01*
X5358249Y20070932D01*
X5370259Y20055280D01*
X5384020Y20044720D01*
X5384080Y20041968D01*
X5368453Y20019720D01*
X5346800D01*
Y20017281D01*
X5334100D01*
Y19963074D01*
X5333354Y19959320D01*
X5334100Y19955566D01*
Y19932420D01*
X5332260D01*
Y19919720D01*
X5305090D01*
X5295242Y19926300D01*
X5282600Y19928815D01*
X5234600D01*
X5221958Y19926300D01*
X5211241Y19919139D01*
X5204080Y19908421D01*
X5201565Y19895779D01*
Y19853780D01*
X5204080Y19841138D01*
X5209792Y19826781D01*
X5206440Y19818355D01*
X5207549Y19817615D01*
X5204080Y19812422D01*
X5201565Y19799780D01*
Y19791481D01*
X5258599D01*
Y19778781D01*
X5271299D01*
Y19724745D01*
X5282600D01*
X5284100Y19723514D01*
Y19676221D01*
X5291790D01*
Y19603127D01*
X5284802Y19592670D01*
X5281322Y19575169D01*
Y19524670D01*
X5284802Y19507172D01*
X5291414Y19497275D01*
X5288699Y19492195D01*
X5189933D01*
X5188184Y19491847D01*
X5170606Y19495345D01*
X5154221Y19506293D01*
X5143273Y19522676D01*
X5139429Y19542004D01*
X5140557Y19547675D01*
X5140557D01*
X5140464Y19547794D01*
X5159523Y19703015D01*
X5148067Y19715964D01*
X5209063Y20212738D01*
X5214305Y20216531D01*
X5222890Y20219093D01*
X5223791Y20226436D01*
X5228734Y20227611D01*
X5229021Y20227180D01*
X5235494Y20222856D01*
D01*
X5239738Y20220020D01*
X5252380Y20217505D01*
X5263681D01*
Y20271541D01*
X5276381D01*
Y20284241D01*
X5333415D01*
Y20292540D01*
X5333017Y20294540D01*
X5330900Y20305182D01*
X5327431Y20310374D01*
X5332895Y20314024D01*
X5342863Y20328943D01*
X5346364Y20346539D01*
Y20369768D01*
X5409103Y20432507D01*
X5413986Y20428760D01*
D02*
G37*
G36*
X6082100Y20137000D02*
X6007100Y20187000D01*
X5932100Y20137000D01*
Y20252000D01*
X6082100D01*
Y20137000D01*
D02*
G37*
G36*
X7999175Y20102547D02*
X7999482Y20102046D01*
X8067501Y19548074D01*
X8067498Y19548071D01*
X8067364Y19548055D01*
X8068568Y19541998D01*
X8064724Y19522673D01*
X8053777Y19506290D01*
X8037394Y19495343D01*
X8020017Y19491887D01*
X8018466Y19492195D01*
X7366000D01*
X7365882Y19492172D01*
X7326165Y19488260D01*
X7287862Y19476640D01*
X7252561Y19457771D01*
X7221620Y19432381D01*
X7196228Y19401439D01*
X7177359Y19366138D01*
X7165740Y19327835D01*
X7161829Y19288124D01*
X7161805Y19288005D01*
X7161804D01*
X7161804Y19288004D01*
X7161804Y19288004D01*
X7161805Y19282986D01*
Y19244702D01*
X7157325Y19242307D01*
X7151066Y19246489D01*
X7136200Y19249446D01*
X7040109D01*
X6922678Y19366878D01*
X6913979Y19372690D01*
X6915520Y19377769D01*
X6921350D01*
X6933894Y19380266D01*
X6944529Y19387370D01*
X6951635Y19398006D01*
X6954130Y19410550D01*
Y19418102D01*
X6896099D01*
Y19443501D01*
X6954130D01*
Y19451050D01*
X6951635Y19463594D01*
X6944590Y19474138D01*
X6953685Y19480215D01*
X6963598Y19495050D01*
X6967079Y19512550D01*
Y19553050D01*
X6963598Y19570549D01*
X6953685Y19585385D01*
X6949260Y19588342D01*
X6950801Y19593422D01*
X6997550D01*
X7015049Y19596902D01*
X7029885Y19606815D01*
X7039798Y19621651D01*
X7043279Y19639149D01*
Y19679649D01*
X7039798Y19697150D01*
X7030944Y19710400D01*
X7039798Y19723650D01*
X7043279Y19741150D01*
Y19781650D01*
X7039798Y19799149D01*
X7031211Y19812000D01*
X7039798Y19824850D01*
X7043279Y19842349D01*
Y19882851D01*
X7039798Y19900349D01*
X7030944Y19913600D01*
X7039798Y19926849D01*
X7043279Y19944350D01*
Y19984850D01*
X7040697Y19997826D01*
X7043920Y20001753D01*
X7416800D01*
X7431666Y20004710D01*
X7444269Y20013132D01*
X7534491Y20103352D01*
X7982000D01*
X7983301Y20103612D01*
X7984616Y20103442D01*
X7990691Y20105083D01*
X7993912Y20105724D01*
X7999175Y20102547D01*
D02*
G37*
G36*
X6855300Y20210706D02*
Y20165300D01*
Y20058299D01*
X6860202D01*
X6861181Y20053380D01*
X6861537Y20051572D01*
X6863080Y19992340D01*
X6908349Y19992104D01*
X6914270Y19984850D01*
Y19977299D01*
X6943033D01*
Y19951900D01*
X6914270D01*
Y19944350D01*
X6916765Y19931805D01*
X6921041Y19925406D01*
X6915551Y19912743D01*
X6915456Y19912646D01*
X6854600Y19912000D01*
X6819202D01*
X6816700Y19912498D01*
X6430098D01*
Y19947241D01*
X6429600Y19949744D01*
Y19954257D01*
X6430098Y19956760D01*
Y19989799D01*
X6429653Y19992033D01*
X6494228Y20032437D01*
X6493609Y20055685D01*
X6506129Y20062593D01*
X6506598Y20062280D01*
X6519240Y20059766D01*
X6527540D01*
Y20088533D01*
X6552940D01*
Y20059766D01*
X6561240D01*
X6573882Y20062280D01*
X6584599Y20069441D01*
X6591760Y20080157D01*
X6594275Y20092799D01*
Y20104100D01*
X6565507D01*
Y20129500D01*
X6594275D01*
Y20140800D01*
X6591760Y20153442D01*
X6587391Y20159979D01*
X6592925Y20172588D01*
X6593017Y20172681D01*
X6682484D01*
X6710493Y20183707D01*
X6733097Y20183852D01*
X6736520Y20184557D01*
X6740004Y20184836D01*
X6762373Y20191187D01*
X6766224Y20193156D01*
X6770179Y20194904D01*
X6770699Y20195447D01*
X6771368Y20195790D01*
X6774172Y20199084D01*
X6777158Y20202213D01*
X6782017Y20209859D01*
X6782373Y20210777D01*
X6855300Y20210706D01*
D02*
G37*
G36*
X6399559Y20163676D02*
X6392720Y20153442D01*
X6390205Y20140800D01*
Y20129500D01*
X6444240D01*
Y20104100D01*
X6390205D01*
Y20092799D01*
X6392720Y20080157D01*
X6399881Y20069441D01*
X6410598Y20062280D01*
X6423240Y20059766D01*
X6448685D01*
X6452710Y20055099D01*
X6452265Y20052005D01*
X6417256Y20030099D01*
X6391500D01*
Y20028647D01*
X6371602D01*
X6368415Y20033415D01*
X6362951Y20037067D01*
X6366420Y20042258D01*
X6368935Y20054900D01*
Y20063200D01*
X6311900D01*
X6254865D01*
Y20054900D01*
X6257380Y20042258D01*
X6260849Y20037067D01*
X6255385Y20033415D01*
X6252198Y20028647D01*
X6134100D01*
X6130419Y20027914D01*
X6128024Y20032394D01*
X6200136Y20104506D01*
X6201623Y20104802D01*
X6220107Y20117152D01*
X6232458Y20135637D01*
X6236795Y20157440D01*
X6235533Y20163785D01*
X6238743Y20167722D01*
X6398302Y20168748D01*
X6399559Y20163676D01*
D02*
G37*
G36*
X6082100Y20107001D02*
Y20007001D01*
X5932100D01*
Y20107001D01*
X6007100Y20157001D01*
X6082100Y20107001D01*
D02*
G37*
G36*
X5587200Y19944321D02*
X5572200D01*
Y19959320D01*
X5602200D01*
X5587200Y19944321D01*
D02*
G37*
G36*
X5402200D02*
X5387200D01*
X5372200Y19959320D01*
X5402200D01*
Y19944321D01*
D02*
G37*
G36*
X6404200Y19956760D02*
X6403253Y19952000D01*
X6404200Y19947241D01*
Y19886600D01*
X6816700D01*
Y19824101D01*
X6816700D01*
Y19799899D01*
X6816700D01*
Y19737399D01*
X6480000D01*
Y19739900D01*
X6404200D01*
Y19611572D01*
X6390581Y19592986D01*
X6385516Y19588852D01*
X6371052Y19585976D01*
X6356769Y19576431D01*
X6347226Y19562148D01*
X6343874Y19545300D01*
X6347226Y19528452D01*
X6356769Y19514169D01*
X6366919Y19507387D01*
X6368146Y19503429D01*
X6368959Y19490741D01*
X6367322Y19479878D01*
X6359769Y19474831D01*
X6350226Y19460548D01*
X6346874Y19443700D01*
X6350226Y19426852D01*
X6359769Y19412569D01*
X6374052Y19403024D01*
X6390900Y19399673D01*
X6413500Y19379089D01*
Y19220180D01*
X6456201D01*
X6462271Y19213271D01*
X6472173Y19195180D01*
X6470765Y19188100D01*
Y19179800D01*
X6527800D01*
Y19154401D01*
X6470765D01*
Y19146100D01*
X6469250Y19133430D01*
X6456711Y19130936D01*
X6456706Y19130936D01*
X6446071Y19123830D01*
X6438966Y19113194D01*
X6436470Y19100650D01*
Y19088100D01*
X6489500D01*
Y19062700D01*
X6436470D01*
Y19050150D01*
X6418180Y19027139D01*
X6413500D01*
Y19027000D01*
X6401106Y19024535D01*
X6390471Y19017429D01*
X6383365Y19006795D01*
X6380870Y18994250D01*
Y18953751D01*
X6383365Y18941206D01*
X6390471Y18930571D01*
X6390471Y18915430D01*
X6383365Y18904794D01*
X6380870Y18892250D01*
Y18851750D01*
X6376807Y18846800D01*
X6328800D01*
Y18654401D01*
X6091800D01*
Y18846800D01*
X6033247D01*
Y19263072D01*
X6033422Y19287999D01*
X6033423Y19288004D01*
X6029744Y19325346D01*
X6019800Y19358127D01*
Y19558000D01*
X6134100D01*
Y19989799D01*
X6254865D01*
Y19958900D01*
X6257380Y19946259D01*
X6264541Y19935541D01*
X6275258Y19928380D01*
X6287900Y19925865D01*
X6299200D01*
Y19979900D01*
X6324600D01*
Y19925865D01*
X6335900D01*
X6348542Y19928380D01*
X6359259Y19935541D01*
X6366420Y19946259D01*
X6368935Y19958900D01*
Y19989799D01*
X6404200D01*
Y19956760D01*
D02*
G37*
G36*
X5617200Y19914320D02*
X5602200D01*
Y19929320D01*
X5617200Y19944321D01*
Y19914320D01*
D02*
G37*
G36*
X5372200Y19929320D02*
Y19914320D01*
X5357200D01*
Y19944321D01*
X5372200Y19929320D01*
D02*
G37*
G36*
X5544100Y19820876D02*
X5539620Y19818480D01*
X5531063Y19824197D01*
X5509260Y19828535D01*
X5487457Y19824197D01*
X5468973Y19811847D01*
X5456622Y19793362D01*
X5455709Y19788774D01*
X5443935Y19791116D01*
X5442518Y19798244D01*
X5430300Y19816528D01*
Y19844293D01*
X5439978Y19858777D01*
X5444315Y19880580D01*
X5443974Y19882294D01*
X5447197Y19886220D01*
X5544100D01*
Y19820876D01*
D02*
G37*
G36*
X6082100Y19730600D02*
X6007100Y19780600D01*
X5932100Y19730600D01*
Y19845599D01*
X6082100D01*
Y19730600D01*
D02*
G37*
G36*
X5617200Y19714320D02*
X5602200Y19729320D01*
Y19744321D01*
X5617200D01*
Y19714320D01*
D02*
G37*
G36*
X5372200Y19729320D02*
X5357200Y19714320D01*
Y19744321D01*
X5372200D01*
Y19729320D01*
D02*
G37*
G36*
X5602200Y19699319D02*
X5572200D01*
Y19714320D01*
X5587200D01*
X5602200Y19699319D01*
D02*
G37*
G36*
X5402200D02*
X5372200D01*
X5387200Y19714320D01*
X5402200D01*
Y19699319D01*
D02*
G37*
G36*
X6082100Y19700600D02*
Y19600600D01*
X5932100D01*
Y19700600D01*
X6007100Y19750600D01*
X6082100Y19700600D01*
D02*
G37*
G36*
X6422267Y19495976D02*
X6423217Y19491203D01*
X6433185Y19476285D01*
X6438649Y19472633D01*
X6435180Y19467442D01*
X6432665Y19454800D01*
Y19446500D01*
X6489700D01*
Y19433800D01*
X6502400D01*
Y19379765D01*
X6513700D01*
X6526342Y19382280D01*
X6535897Y19388664D01*
X6541995Y19388683D01*
X6542871Y19387370D01*
X6553506Y19380266D01*
X6566050Y19377769D01*
X6578599D01*
Y19430801D01*
X6603999D01*
Y19377769D01*
X6616550D01*
X6629094Y19380266D01*
X6639729Y19387370D01*
X6640605Y19388683D01*
X6646703Y19388664D01*
X6656258Y19382280D01*
X6658700Y19381795D01*
Y19320084D01*
X6654773Y19316862D01*
X6653400Y19317136D01*
X6642100D01*
Y19263100D01*
X6616700D01*
Y19317136D01*
X6605400D01*
X6592758Y19314619D01*
X6582041Y19307458D01*
X6581140Y19306111D01*
X6576060D01*
X6575159Y19307458D01*
X6564442Y19314619D01*
X6551800Y19317136D01*
X6540500D01*
Y19263100D01*
X6515100D01*
Y19317136D01*
X6503800D01*
X6491158Y19314619D01*
X6480441Y19307458D01*
X6473280Y19296742D01*
X6470765Y19284100D01*
Y19260133D01*
X6466838Y19256911D01*
X6464839Y19257307D01*
X6458705Y19258946D01*
X6457446Y19258778D01*
X6456201Y19259027D01*
X6452347D01*
Y19377242D01*
X6455816Y19381007D01*
X6456324Y19381290D01*
X6456757Y19381424D01*
X6457136Y19381470D01*
X6465700Y19379765D01*
X6477000D01*
Y19421100D01*
X6432665D01*
Y19420464D01*
X6428018Y19418411D01*
X6417058Y19428394D01*
X6414552Y19429904D01*
X6412482Y19431973D01*
X6408119Y19433781D01*
X6404076Y19436218D01*
X6401183Y19436655D01*
X6398479Y19437775D01*
X6389377Y19439584D01*
X6387553Y19442313D01*
X6386913Y19445534D01*
X6387776Y19446825D01*
X6388904Y19447578D01*
X6389556Y19448230D01*
X6390389Y19448622D01*
X6394891Y19453566D01*
X6399622Y19458296D01*
X6399974Y19459148D01*
X6400595Y19459828D01*
X6402863Y19466122D01*
X6405422Y19472301D01*
Y19473221D01*
X6405734Y19474088D01*
X6407372Y19484950D01*
X6407177Y19489104D01*
X6407596Y19492242D01*
X6409703Y19492662D01*
X6417574Y19497922D01*
X6422267Y19495976D01*
D02*
G37*
G36*
X7136200Y19095599D02*
X7061200Y19145599D01*
X6986200Y19095599D01*
Y19210600D01*
X7136200D01*
Y19095599D01*
D02*
G37*
G36*
X6947353Y19206691D02*
Y19095599D01*
X6948096Y19091867D01*
X6948092Y19088062D01*
X6949560Y19084506D01*
X6950310Y19080734D01*
X6950400Y19080600D01*
X6950310Y19080466D01*
X6949568Y19076733D01*
X6948108Y19073218D01*
X6948104Y19069373D01*
X6947353Y19065601D01*
Y18976132D01*
X6944100Y18972400D01*
X6839400D01*
Y18991200D01*
X6743700D01*
Y18846800D01*
Y18702400D01*
X6839400D01*
Y18733900D01*
X6931400D01*
Y18771201D01*
X6944100D01*
Y18773891D01*
X6991083D01*
X6998757Y18768762D01*
X7020560Y18764426D01*
X7042363Y18768762D01*
X7060847Y18781113D01*
X7073198Y18799597D01*
X7077535Y18821400D01*
X7073198Y18843204D01*
X7060847Y18861687D01*
X7042363Y18874039D01*
X7020560Y18878375D01*
X6998757Y18874039D01*
X6992281Y18869711D01*
X6972430D01*
X6971930Y18874791D01*
X6985735Y18877538D01*
X7001278Y18887923D01*
X7040109Y18926755D01*
X7136200D01*
X7151066Y18929710D01*
X7157325Y18933893D01*
X7161805Y18931499D01*
Y18434697D01*
X7157878Y18431474D01*
X7147560Y18433527D01*
X7058660D01*
Y18404012D01*
X7007860D01*
Y18433527D01*
X6918960D01*
X6904094Y18430569D01*
X6891491Y18422150D01*
X6883071Y18409546D01*
X6880113Y18394679D01*
Y18305780D01*
X6909628D01*
Y18254980D01*
X6880113D01*
Y18166080D01*
X6883071Y18151215D01*
X6891491Y18138611D01*
X6904094Y18130191D01*
X6918960Y18127232D01*
X7007860D01*
Y18156747D01*
X7058660D01*
Y18127232D01*
X7147560D01*
X7157878Y18129286D01*
X7161805Y18126064D01*
Y18070993D01*
X7157249Y18068745D01*
X7154294Y18071014D01*
X7132667Y18079971D01*
X7109460Y18083028D01*
X7086253Y18079971D01*
X7064626Y18071014D01*
X7046056Y18056764D01*
X7031806Y18038194D01*
X7022848Y18016566D01*
X7022101Y18010889D01*
X7017103Y18009979D01*
X7015809Y18012399D01*
X6996765Y18035605D01*
X6977489Y18051424D01*
X6964510Y18024899D01*
X6918880Y18047227D01*
X6931718Y18073460D01*
X6918356Y18077515D01*
X6888480Y18080457D01*
X6858604Y18077515D01*
X6829877Y18068800D01*
X6803401Y18054649D01*
X6799925Y18051796D01*
X6820834Y18030887D01*
X6784913Y17994966D01*
X6764004Y18015875D01*
X6761151Y18012399D01*
X6746999Y17985922D01*
X6738285Y17957196D01*
X6735343Y17927319D01*
X6738285Y17897444D01*
X6746999Y17868716D01*
X6761151Y17842241D01*
X6764004Y17838765D01*
X6784913Y17859674D01*
X6820834Y17823753D01*
X6799925Y17802844D01*
X6803401Y17799991D01*
X6829877Y17785838D01*
X6858604Y17777126D01*
X6888480Y17774184D01*
X6918356Y17777126D01*
X6947083Y17785838D01*
X6973559Y17799991D01*
X6977035Y17802844D01*
X6956126Y17823753D01*
X6992047Y17859674D01*
X7012956Y17838765D01*
X7015809Y17842241D01*
X7029961Y17868716D01*
X7038675Y17897444D01*
X7041617Y17927319D01*
X7041534Y17928169D01*
X7043318Y17928874D01*
X7046496Y17929617D01*
X7064626Y17915706D01*
X7086253Y17906747D01*
X7109460Y17903693D01*
X7132667Y17906747D01*
X7154294Y17915706D01*
X7157249Y17917973D01*
X7161805Y17915727D01*
Y17774394D01*
X7160260Y17773128D01*
X7040600D01*
X7039610Y17773257D01*
X7038620Y17773128D01*
X6982460D01*
X6980946Y17772826D01*
X6979412Y17773007D01*
X6969478Y17772224D01*
X6965651Y17771146D01*
X6961689Y17770802D01*
X6946403Y17766362D01*
X6942071Y17764111D01*
X6937467Y17762494D01*
X6923766Y17754391D01*
X6920130Y17751135D01*
X6916072Y17748422D01*
X6904817Y17737167D01*
X6902105Y17733110D01*
X6898848Y17729474D01*
X6896837Y17726074D01*
X6890877Y17725975D01*
X6885977Y17733667D01*
X6883042Y17736732D01*
X6880683Y17740263D01*
X6871605Y17749342D01*
X6868075Y17751701D01*
X6865008Y17754637D01*
X6854180Y17761536D01*
X6850224Y17763074D01*
X6846594Y17765276D01*
X6834530Y17769667D01*
X6830333Y17770312D01*
X6826314Y17771677D01*
X6813586Y17773354D01*
X6809350Y17773074D01*
X6805129Y17773538D01*
X6802113Y17773274D01*
X6799110Y17773537D01*
X6794890Y17773074D01*
X6790653Y17773352D01*
X6777925Y17771677D01*
X6773905Y17770312D01*
X6769709Y17769666D01*
X6757644Y17765276D01*
X6754015Y17763072D01*
X6750059Y17761534D01*
X6739231Y17754636D01*
X6736165Y17751701D01*
X6732634Y17749342D01*
X6726826Y17743533D01*
X6721746Y17745638D01*
Y18005553D01*
X6718158Y18023589D01*
X6707941Y18038881D01*
X6695676Y18047076D01*
X6695967Y18052991D01*
X6713893Y18062573D01*
X6743867Y18087173D01*
X6768467Y18117146D01*
X6786746Y18151344D01*
X6798002Y18188451D01*
X6801802Y18227040D01*
X6798002Y18265630D01*
X6786746Y18302736D01*
X6768467Y18336932D01*
X6743867Y18366907D01*
X6713893Y18391507D01*
X6679696Y18409785D01*
X6642589Y18421042D01*
X6604000Y18424841D01*
X6565411Y18421042D01*
X6528304Y18409785D01*
X6494107Y18391507D01*
X6464133Y18366907D01*
X6439533Y18336932D01*
X6421921Y18303983D01*
X6416610Y18303461D01*
X6399827Y18342162D01*
X6399254Y18342989D01*
X6398992Y18343961D01*
X6333043Y18476984D01*
X6335721Y18481300D01*
X6366900D01*
Y18526517D01*
X6369176Y18529924D01*
X6370888Y18538530D01*
X6375968D01*
X6376202Y18537350D01*
X6386115Y18522514D01*
X6400951Y18512602D01*
X6418450Y18509122D01*
X6458950D01*
X6476450Y18512602D01*
X6491285Y18522514D01*
X6497362Y18531610D01*
X6507906Y18524565D01*
X6520450Y18522070D01*
X6528000D01*
Y18580099D01*
X6540700D01*
Y18592799D01*
X6593730D01*
Y18605350D01*
X6591234Y18617894D01*
X6584129Y18628529D01*
X6573494Y18635635D01*
X6560950Y18638130D01*
X6540782D01*
X6539307Y18642992D01*
X6546238Y18647623D01*
X6617520Y18718906D01*
X6622600Y18716800D01*
Y18702400D01*
X6718300D01*
Y18846800D01*
Y18991200D01*
X6638911D01*
Y19014359D01*
X6644085Y19017815D01*
X6653998Y19032651D01*
X6657478Y19050150D01*
Y19082826D01*
X6658700Y19087399D01*
X6666816D01*
Y19051401D01*
X6670317Y19033803D01*
X6680285Y19018884D01*
X6695203Y19008917D01*
X6712800Y19005415D01*
X6754800D01*
X6772397Y19008917D01*
X6787315Y19018884D01*
X6790966Y19024348D01*
X6796158Y19020880D01*
X6808800Y19018365D01*
X6817100D01*
Y19075400D01*
X6829800D01*
Y19087395D01*
X6839905D01*
Y19088100D01*
X6883835D01*
Y19099400D01*
X6884409Y19100101D01*
X6892200D01*
Y19122600D01*
X6846800D01*
Y19173399D01*
X6893200D01*
Y19227800D01*
X6781800D01*
Y19253200D01*
X6893200D01*
Y19254207D01*
X6897893Y19256151D01*
X6947353Y19206691D01*
D02*
G37*
G36*
X7136200Y19065601D02*
Y18965601D01*
X6986200D01*
Y19065601D01*
X7061200Y19115601D01*
X7136200Y19065601D01*
D02*
G37*
G36*
X6041800Y18579401D02*
X6112800D01*
Y18554401D01*
X6137800D01*
Y18469400D01*
X6152800D01*
Y18554401D01*
X6202800D01*
Y18469400D01*
X6217800D01*
Y18554401D01*
X6257619D01*
X6261395Y18535419D01*
Y18493996D01*
X6267800D01*
Y18469400D01*
X6293444D01*
X6364188Y18326706D01*
X6406421Y18229314D01*
X6406198Y18227040D01*
X6409998Y18188451D01*
X6421254Y18151344D01*
X6439533Y18117146D01*
X6464133Y18087173D01*
X6470230Y18082169D01*
X6484337Y18049638D01*
X6462578Y17980722D01*
X6461001Y17985922D01*
X6446849Y18012399D01*
X6443996Y18015875D01*
X6355441Y17927319D01*
X6443996Y17838765D01*
X6446520Y17841840D01*
Y17750171D01*
X6429087Y17757391D01*
X6405880Y17760448D01*
X6382673Y17757391D01*
X6361046Y17748434D01*
X6359152Y17746980D01*
X6272268D01*
X6270374Y17748434D01*
X6248747Y17757391D01*
X6225540Y17760448D01*
X6223493Y17760178D01*
X6047740D01*
X6037829Y17758206D01*
X6033247Y17755144D01*
Y18638519D01*
X6041800D01*
Y18579401D01*
D02*
G37*
G36*
X6821243Y17733163D02*
X6833308Y17728772D01*
X6844136Y17721873D01*
X6853214Y17712794D01*
X6860112Y17701967D01*
X6864503Y17689903D01*
X6866178Y17677174D01*
X6865618Y17670779D01*
X6865620Y17670779D01*
X6870243Y17579433D01*
X6880781Y17578081D01*
X6899219Y17567514D01*
X6912208Y17550696D01*
X6917773Y17530188D01*
X6916419Y17519649D01*
X6916419Y17519649D01*
X6916420Y17353281D01*
X6738620D01*
Y17670779D01*
X6738060Y17677174D01*
X6739736Y17689903D01*
X6744127Y17701967D01*
X6751025Y17712794D01*
X6760103Y17721873D01*
X6770931Y17728770D01*
X6782995Y17733162D01*
X6795724Y17734837D01*
X6802119Y17734277D01*
X6802120Y17734279D01*
X6808515Y17734839D01*
X6821243Y17733163D01*
D02*
G37*
G36*
X6469380Y17670779D02*
Y17353281D01*
X6291580D01*
X6291580Y17519650D01*
X6290934Y17530550D01*
X6297632Y17551335D01*
X6311407Y17568279D01*
X6330387Y17579079D01*
X6341189Y17580672D01*
X6341190Y17580673D01*
X6342380Y17670779D01*
X6405880Y17734280D01*
X6469380Y17670779D01*
D02*
G37*
G36*
X6225540Y17607280D02*
Y17353281D01*
X6162040D01*
X6111240Y17353281D01*
X6104845Y17352721D01*
X6092116Y17354396D01*
X6080052Y17358788D01*
X6069224Y17365685D01*
X6060145Y17374763D01*
X6053247Y17385593D01*
X6048856Y17397656D01*
X6047180Y17410385D01*
X6047740Y17416780D01*
X6047740D01*
Y17734280D01*
X6225540D01*
Y17607280D01*
D02*
G37*
G36*
X7160260Y17670782D02*
X7160260Y17670779D01*
X7160260Y17670778D01*
X7160259Y17409160D01*
X7159733Y17397488D01*
X7149829Y17376328D01*
X7132581Y17360567D01*
X7110614Y17352606D01*
X7098944Y17353133D01*
X7098944Y17353133D01*
X6982460Y17353281D01*
Y17607280D01*
X6972526Y17608063D01*
X6957241Y17612502D01*
X6943540Y17620605D01*
X6932285Y17631860D01*
X6924182Y17645561D01*
X6919742Y17660846D01*
X6918960Y17670779D01*
X6919742Y17680714D01*
X6924182Y17695999D01*
X6932285Y17709700D01*
X6943540Y17720955D01*
X6957241Y17729057D01*
X6972526Y17733498D01*
X6982460Y17734280D01*
X7160260D01*
X7160260Y17670782D01*
D02*
G37*
G36*
X6615636Y15267978D02*
X6617515Y15267603D01*
X6619959Y15266850D01*
X6622590Y15265910D01*
X6625410Y15264407D01*
X6628605Y15262338D01*
Y15247865D01*
X6628229Y15248242D01*
X6627289Y15248994D01*
X6625974Y15250122D01*
X6624094Y15251437D01*
X6621838Y15252565D01*
X6619395Y15253693D01*
X6616764Y15254445D01*
X6613944Y15254820D01*
X6613568D01*
X6612628Y15254633D01*
X6610937Y15254257D01*
X6609057Y15253505D01*
X6606990Y15252377D01*
X6604922Y15250497D01*
X6603982Y15249370D01*
X6603042Y15247865D01*
X6602103Y15246362D01*
X6601351Y15244482D01*
Y15244295D01*
X6601163Y15243919D01*
X6600975Y15243355D01*
X6600787Y15242603D01*
X6600411Y15241476D01*
X6600223Y15239972D01*
X6599847Y15238280D01*
X6599471Y15236401D01*
X6599095Y15234145D01*
X6598719Y15231702D01*
X6598531Y15228882D01*
X6598155Y15225874D01*
X6597968Y15222491D01*
X6597780Y15218733D01*
X6597592Y15214784D01*
Y15210461D01*
Y15210274D01*
Y15209523D01*
Y15208208D01*
Y15206703D01*
X6597780Y15204636D01*
Y15202568D01*
X6597968Y15200125D01*
X6598155Y15197493D01*
X6598531Y15191853D01*
X6599283Y15186217D01*
X6599659Y15183585D01*
X6600223Y15181142D01*
X6600787Y15178697D01*
X6601539Y15176630D01*
Y15176442D01*
X6601727Y15176254D01*
X6602291Y15174937D01*
X6603230Y15173434D01*
X6604734Y15171555D01*
X6606426Y15169487D01*
X6608681Y15167982D01*
X6611313Y15166669D01*
X6612816Y15166479D01*
X6614508Y15166292D01*
X6614884D01*
X6615636Y15166479D01*
X6616951Y15166669D01*
X6618831Y15167232D01*
X6621087Y15168359D01*
X6623718Y15169675D01*
X6626537Y15171742D01*
X6628229Y15172870D01*
X6629921Y15174374D01*
Y15158961D01*
X6629545Y15158772D01*
X6628417Y15158022D01*
X6626913Y15157082D01*
X6624658Y15155954D01*
X6622026Y15154639D01*
X6619207Y15153699D01*
X6616012Y15152946D01*
X6612628Y15152759D01*
X6612064D01*
X6611313Y15152946D01*
X6610185D01*
X6609057Y15153136D01*
X6607553Y15153510D01*
X6604358Y15154639D01*
X6602667Y15155389D01*
X6600787Y15156329D01*
X6598907Y15157458D01*
X6597028Y15158961D01*
X6595336Y15160654D01*
X6593456Y15162534D01*
X6591765Y15164787D01*
X6590261Y15167419D01*
Y15167607D01*
X6589885Y15168172D01*
X6589509Y15168922D01*
X6588945Y15170239D01*
X6588382Y15171742D01*
X6587818Y15173622D01*
X6587066Y15175690D01*
X6586314Y15178320D01*
X6585562Y15181142D01*
X6584810Y15184335D01*
X6584246Y15187720D01*
X6583683Y15191666D01*
X6583119Y15195801D01*
X6582743Y15200125D01*
X6582555Y15204823D01*
X6582367Y15209898D01*
Y15210274D01*
Y15211026D01*
Y15212531D01*
X6582555Y15214409D01*
Y15216666D01*
X6582743Y15219484D01*
X6583119Y15222304D01*
X6583307Y15225499D01*
X6584246Y15232454D01*
X6585750Y15239597D01*
X6587630Y15246552D01*
X6588945Y15249747D01*
X6590261Y15252753D01*
X6590449Y15252940D01*
X6590637Y15253505D01*
X6591013Y15254257D01*
X6591765Y15255197D01*
X6593456Y15257640D01*
X6596088Y15260648D01*
X6599283Y15263467D01*
X6603230Y15265910D01*
X6605486Y15266850D01*
X6607741Y15267603D01*
X6610373Y15268166D01*
X6613004Y15268353D01*
X6614320D01*
X6615636Y15267978D01*
D02*
G37*
G36*
X6457937Y15154262D02*
X6446284D01*
X6420909Y15224371D01*
X6420721D01*
Y15154262D01*
X6407564D01*
Y15266850D01*
X6419030D01*
X6444404Y15196928D01*
X6444780Y15197305D01*
Y15266850D01*
X6457937D01*
Y15154262D01*
D02*
G37*
G36*
X6917124Y15266663D02*
X6918251D01*
X6919755Y15266473D01*
X6922950Y15265723D01*
X6926522Y15264783D01*
X6930093Y15263280D01*
X6933664Y15261024D01*
X6935356Y15259708D01*
X6936859Y15258205D01*
X6937235Y15257828D01*
X6937611Y15257265D01*
X6937987Y15256700D01*
X6939303Y15254820D01*
X6940807Y15252190D01*
X6942122Y15248994D01*
X6943438Y15245047D01*
X6944190Y15240724D01*
X6944566Y15235649D01*
Y15235461D01*
Y15234897D01*
Y15234145D01*
X6944378Y15233018D01*
X6944190Y15231702D01*
X6944002Y15230199D01*
X6943062Y15226627D01*
X6941746Y15222681D01*
X6940807Y15220612D01*
X6939491Y15218546D01*
X6938175Y15216666D01*
X6936671Y15214784D01*
X6934792Y15213094D01*
X6932724Y15211401D01*
X6932912D01*
X6933100Y15211026D01*
X6933664Y15210651D01*
X6934228Y15209898D01*
X6934980Y15209148D01*
X6935920Y15208018D01*
X6936859Y15206516D01*
X6937987Y15204823D01*
X6939303Y15202756D01*
X6940431Y15200313D01*
X6941746Y15197493D01*
X6943062Y15194298D01*
X6944378Y15190727D01*
X6945694Y15186778D01*
X6947009Y15182268D01*
X6948137Y15177380D01*
X6953400Y15154262D01*
X6938175D01*
X6933664Y15173622D01*
Y15173810D01*
X6933476Y15174562D01*
X6933288Y15175502D01*
X6932912Y15176817D01*
X6932536Y15178510D01*
X6931972Y15180389D01*
X6931033Y15184525D01*
X6929717Y15188847D01*
X6928401Y15193170D01*
X6927649Y15195050D01*
X6926897Y15196741D01*
X6926334Y15198433D01*
X6925582Y15199561D01*
X6925394Y15199750D01*
X6925018Y15200500D01*
X6924266Y15201253D01*
X6923326Y15202380D01*
X6922011Y15203320D01*
X6920507Y15204073D01*
X6919003Y15204636D01*
X6917124D01*
Y15154262D01*
X6902651D01*
Y15266850D01*
X6915996D01*
X6917124Y15266663D01*
D02*
G37*
G36*
X6881411Y15253317D02*
X6855849D01*
Y15219672D01*
X6879344D01*
Y15206139D01*
X6855849D01*
Y15167795D01*
X6882915D01*
Y15154262D01*
X6841376D01*
Y15266850D01*
X6881411D01*
Y15253317D01*
D02*
G37*
G36*
X6796641Y15266663D02*
X6797957D01*
X6799461Y15266473D01*
X6802844Y15265723D01*
X6806791Y15264783D01*
X6810926Y15263280D01*
X6814873Y15261212D01*
X6816753Y15259895D01*
X6818633Y15258392D01*
X6818820D01*
X6819008Y15258015D01*
X6820136Y15256888D01*
X6821640Y15255009D01*
X6823332Y15252377D01*
X6825023Y15249182D01*
X6826339Y15245235D01*
X6827467Y15240724D01*
X6827655Y15238280D01*
X6827843Y15235649D01*
Y15235461D01*
Y15235085D01*
Y15234145D01*
X6827655Y15233205D01*
Y15231889D01*
X6827467Y15230574D01*
X6826715Y15227191D01*
X6825775Y15223431D01*
X6824271Y15219484D01*
X6822204Y15215726D01*
X6820888Y15213846D01*
X6819384Y15212154D01*
X6819008Y15211778D01*
X6818445Y15211401D01*
X6817881Y15210838D01*
X6816001Y15209523D01*
X6813370Y15208018D01*
X6809986Y15206326D01*
X6806039Y15205011D01*
X6801528Y15204073D01*
X6798897Y15203883D01*
X6796265Y15203696D01*
X6793258D01*
Y15154262D01*
X6778785D01*
Y15266850D01*
X6795513D01*
X6796641Y15266663D01*
D02*
G37*
G36*
X6733487D02*
X6734802D01*
X6736306Y15266473D01*
X6739689Y15265723D01*
X6743637Y15264783D01*
X6747772Y15263280D01*
X6751719Y15261212D01*
X6753598Y15259895D01*
X6755478Y15258392D01*
X6755666D01*
X6755854Y15258015D01*
X6756982Y15256888D01*
X6758485Y15255009D01*
X6760177Y15252377D01*
X6761869Y15249182D01*
X6763184Y15245235D01*
X6764312Y15240724D01*
X6764500Y15238280D01*
X6764688Y15235649D01*
Y15235461D01*
Y15235085D01*
Y15234145D01*
X6764500Y15233205D01*
Y15231889D01*
X6764312Y15230574D01*
X6763560Y15227191D01*
X6762620Y15223431D01*
X6761117Y15219484D01*
X6759049Y15215726D01*
X6757733Y15213846D01*
X6756230Y15212154D01*
X6755854Y15211778D01*
X6755290Y15211401D01*
X6754726Y15210838D01*
X6752847Y15209523D01*
X6750215Y15208018D01*
X6746832Y15206326D01*
X6742885Y15205011D01*
X6738374Y15204073D01*
X6735742Y15203883D01*
X6733111Y15203696D01*
X6730103D01*
Y15154262D01*
X6715630D01*
Y15266850D01*
X6732359D01*
X6733487Y15266663D01*
D02*
G37*
G36*
X6518648Y15253317D02*
X6501356D01*
Y15154262D01*
X6486883D01*
Y15253317D01*
X6469591D01*
Y15266850D01*
X6518648D01*
Y15253317D01*
D02*
G37*
G36*
X6288397Y15266663D02*
X6289525D01*
X6291029Y15266473D01*
X6294224Y15265723D01*
X6297795Y15264783D01*
X6301367Y15263280D01*
X6304938Y15261024D01*
X6306629Y15259708D01*
X6308133Y15258205D01*
X6308509Y15257828D01*
X6308885Y15257265D01*
X6309261Y15256700D01*
X6310577Y15254820D01*
X6312080Y15252190D01*
X6313396Y15248994D01*
X6314712Y15245047D01*
X6315464Y15240724D01*
X6315840Y15235649D01*
Y15235461D01*
Y15234897D01*
Y15234145D01*
X6315652Y15233018D01*
X6315464Y15231702D01*
X6315276Y15230199D01*
X6314336Y15226627D01*
X6313020Y15222681D01*
X6312080Y15220612D01*
X6310765Y15218546D01*
X6309449Y15216666D01*
X6307945Y15214784D01*
X6306066Y15213094D01*
X6303998Y15211401D01*
X6304186D01*
X6304374Y15211026D01*
X6304938Y15210651D01*
X6305502Y15209898D01*
X6306254Y15209148D01*
X6307193Y15208018D01*
X6308133Y15206516D01*
X6309261Y15204823D01*
X6310577Y15202756D01*
X6311704Y15200313D01*
X6313020Y15197493D01*
X6314336Y15194298D01*
X6315652Y15190727D01*
X6316967Y15186778D01*
X6318283Y15182268D01*
X6319411Y15177380D01*
X6324674Y15154262D01*
X6309449D01*
X6304938Y15173622D01*
Y15173810D01*
X6304750Y15174562D01*
X6304562Y15175502D01*
X6304186Y15176817D01*
X6303810Y15178510D01*
X6303246Y15180389D01*
X6302306Y15184525D01*
X6300991Y15188847D01*
X6299675Y15193170D01*
X6298923Y15195050D01*
X6298171Y15196741D01*
X6297607Y15198433D01*
X6296856Y15199561D01*
X6296668Y15199750D01*
X6296292Y15200500D01*
X6295540Y15201253D01*
X6294600Y15202380D01*
X6293284Y15203320D01*
X6291781Y15204073D01*
X6290277Y15204636D01*
X6288397D01*
Y15154262D01*
X6273924D01*
Y15266850D01*
X6287270D01*
X6288397Y15266663D01*
D02*
G37*
G36*
X6254189Y15253317D02*
X6233513D01*
Y15219859D01*
X6252685D01*
Y15206326D01*
X6233513D01*
Y15154262D01*
X6219040D01*
Y15266850D01*
X6254189D01*
Y15253317D01*
D02*
G37*
G36*
X6670520Y15268166D02*
X6671460D01*
X6672588Y15267790D01*
X6673903Y15267413D01*
X6675407Y15267038D01*
X6677099Y15266286D01*
X6678790Y15265535D01*
X6680670Y15264407D01*
X6682362Y15263091D01*
X6684241Y15261588D01*
X6686121Y15259708D01*
X6687812Y15257452D01*
X6689504Y15255009D01*
X6691196Y15252190D01*
X6691384Y15252002D01*
X6691572Y15251437D01*
X6691948Y15250497D01*
X6692511Y15249182D01*
X6693075Y15247678D01*
X6693827Y15245799D01*
X6694579Y15243542D01*
X6695331Y15240912D01*
X6696083Y15238092D01*
X6696834Y15234897D01*
X6697586Y15231514D01*
X6698150Y15227756D01*
X6698714Y15223808D01*
X6699090Y15219672D01*
X6699466Y15215161D01*
Y15210461D01*
Y15210086D01*
Y15209335D01*
Y15207831D01*
X6699278Y15205951D01*
Y15203696D01*
X6699090Y15201064D01*
X6698714Y15198058D01*
X6698338Y15194862D01*
X6697398Y15188095D01*
X6695895Y15181142D01*
X6693639Y15174187D01*
X6692323Y15170992D01*
X6690820Y15167982D01*
X6690632Y15167795D01*
X6690444Y15167419D01*
X6689880Y15166669D01*
X6689316Y15165540D01*
X6687436Y15163097D01*
X6684805Y15160464D01*
X6681798Y15157646D01*
X6678038Y15155202D01*
X6675971Y15154262D01*
X6673903Y15153510D01*
X6671648Y15152946D01*
X6669204Y15152759D01*
X6668640D01*
X6667889Y15152946D01*
X6666949D01*
X6665821Y15153322D01*
X6664505Y15153510D01*
X6661498Y15154639D01*
X6659806Y15155579D01*
X6658115Y15156519D01*
X6656235Y15157834D01*
X6654355Y15159337D01*
X6652476Y15161029D01*
X6650784Y15163097D01*
X6649093Y15165540D01*
X6647401Y15168172D01*
Y15168359D01*
X6647025Y15168922D01*
X6646649Y15169862D01*
X6646085Y15170992D01*
X6645521Y15172495D01*
X6644770Y15174562D01*
X6644018Y15176630D01*
X6643266Y15179260D01*
X6642514Y15182080D01*
X6641762Y15185275D01*
X6641010Y15188660D01*
X6640446Y15192606D01*
X6639883Y15196553D01*
X6639507Y15200876D01*
X6639319Y15205576D01*
X6639131Y15210461D01*
Y15210838D01*
Y15211591D01*
Y15212906D01*
X6639319Y15214597D01*
Y15216853D01*
X6639507Y15219296D01*
X6639883Y15222116D01*
X6640071Y15225124D01*
X6640634Y15228319D01*
X6641010Y15231702D01*
X6642514Y15238657D01*
X6644394Y15245612D01*
X6645709Y15248807D01*
X6647025Y15252002D01*
X6647213Y15252190D01*
X6647401Y15252753D01*
X6647777Y15253505D01*
X6648529Y15254633D01*
X6649281Y15255762D01*
X6650220Y15257265D01*
X6652852Y15260272D01*
X6655859Y15263280D01*
X6657739Y15264595D01*
X6659806Y15265723D01*
X6661874Y15266850D01*
X6664129Y15267603D01*
X6666573Y15268166D01*
X6669204Y15268353D01*
X6669768D01*
X6670520Y15268166D01*
D02*
G37*
G36*
X6363018D02*
X6363957D01*
X6365085Y15267790D01*
X6366401Y15267413D01*
X6367904Y15267038D01*
X6369596Y15266286D01*
X6371288Y15265535D01*
X6373167Y15264407D01*
X6374859Y15263091D01*
X6376739Y15261588D01*
X6378618Y15259708D01*
X6380310Y15257452D01*
X6382001Y15255009D01*
X6383693Y15252190D01*
X6383881Y15252002D01*
X6384069Y15251437D01*
X6384445Y15250497D01*
X6385009Y15249182D01*
X6385573Y15247678D01*
X6386325Y15245799D01*
X6387076Y15243542D01*
X6387828Y15240912D01*
X6388580Y15238092D01*
X6389332Y15234897D01*
X6390084Y15231514D01*
X6390648Y15227756D01*
X6391212Y15223808D01*
X6391587Y15219672D01*
X6391963Y15215161D01*
Y15210461D01*
Y15210086D01*
Y15209335D01*
Y15207831D01*
X6391775Y15205951D01*
Y15203696D01*
X6391587Y15201064D01*
X6391212Y15198058D01*
X6390836Y15194862D01*
X6389896Y15188095D01*
X6388392Y15181142D01*
X6386137Y15174187D01*
X6384821Y15170992D01*
X6383317Y15167982D01*
X6383129Y15167795D01*
X6382941Y15167419D01*
X6382377Y15166669D01*
X6381813Y15165540D01*
X6379934Y15163097D01*
X6377302Y15160464D01*
X6374295Y15157646D01*
X6370536Y15155202D01*
X6368468Y15154262D01*
X6366401Y15153510D01*
X6364145Y15152946D01*
X6361702Y15152759D01*
X6361138D01*
X6360386Y15152946D01*
X6359446D01*
X6358319Y15153322D01*
X6357003Y15153510D01*
X6353995Y15154639D01*
X6352304Y15155579D01*
X6350612Y15156519D01*
X6348733Y15157834D01*
X6346853Y15159337D01*
X6344973Y15161029D01*
X6343282Y15163097D01*
X6341590Y15165540D01*
X6339898Y15168172D01*
Y15168359D01*
X6339523Y15168922D01*
X6339147Y15169862D01*
X6338583Y15170992D01*
X6338019Y15172495D01*
X6337267Y15174562D01*
X6336515Y15176630D01*
X6335763Y15179260D01*
X6335011Y15182080D01*
X6334260Y15185275D01*
X6333508Y15188660D01*
X6332944Y15192606D01*
X6332380Y15196553D01*
X6332004Y15200876D01*
X6331816Y15205576D01*
X6331628Y15210461D01*
Y15210838D01*
Y15211591D01*
Y15212906D01*
X6331816Y15214597D01*
Y15216853D01*
X6332004Y15219296D01*
X6332380Y15222116D01*
X6332568Y15225124D01*
X6333132Y15228319D01*
X6333508Y15231702D01*
X6335011Y15238657D01*
X6336891Y15245612D01*
X6338207Y15248807D01*
X6339523Y15252002D01*
X6339710Y15252190D01*
X6339898Y15252753D01*
X6340274Y15253505D01*
X6341026Y15254633D01*
X6341778Y15255762D01*
X6342718Y15257265D01*
X6345349Y15260272D01*
X6348357Y15263280D01*
X6350236Y15264595D01*
X6352304Y15265723D01*
X6354371Y15266850D01*
X6356627Y15267603D01*
X6359070Y15268166D01*
X6361702Y15268353D01*
X6362266D01*
X6363018Y15268166D01*
D02*
G37*
%LPC*%
G36*
X7112000Y21809207D02*
X7088793Y21806152D01*
X7067166Y21797194D01*
X7048596Y21782944D01*
X7034346Y21764374D01*
X7033297Y21761839D01*
X6936703D01*
X6935654Y21764374D01*
X6921404Y21782944D01*
X6902834Y21797194D01*
X6881207Y21806152D01*
X6858000Y21809207D01*
X6834793Y21806152D01*
X6813166Y21797194D01*
X6794596Y21782944D01*
X6780346Y21764374D01*
X6771388Y21742747D01*
X6768333Y21719540D01*
X6771388Y21696333D01*
X6780346Y21674706D01*
X6794596Y21656136D01*
X6813166Y21641885D01*
X6834793Y21632928D01*
X6858000Y21629874D01*
X6881207Y21632928D01*
X6893669Y21638091D01*
X6908209Y21623550D01*
X6918712Y21616531D01*
X6924600Y21615361D01*
Y21601041D01*
X7045400D01*
Y21615361D01*
X7051288Y21616531D01*
X7061791Y21623550D01*
X7076331Y21638091D01*
X7088793Y21632928D01*
X7112000Y21629874D01*
X7135207Y21632928D01*
X7156834Y21641885D01*
X7175404Y21656136D01*
X7189654Y21674706D01*
X7198612Y21696333D01*
X7201667Y21719540D01*
X7198612Y21742747D01*
X7189654Y21764374D01*
X7175404Y21782944D01*
X7156834Y21797194D01*
X7135207Y21806152D01*
X7112000Y21809207D01*
D02*
G37*
G36*
X7212580Y21578294D02*
X7192759Y21574353D01*
X7175955Y21563126D01*
X7164727Y21546321D01*
X7160785Y21526500D01*
X7164727Y21506679D01*
X7175955Y21489874D01*
X7192759Y21478647D01*
X7212580Y21474706D01*
X7232401Y21478647D01*
X7249205Y21489874D01*
X7260433Y21506679D01*
X7264375Y21526500D01*
X7260433Y21546321D01*
X7249205Y21563126D01*
X7232401Y21574353D01*
X7212580Y21578294D01*
D02*
G37*
G36*
X7061200Y21049826D02*
X7044352Y21046475D01*
X7035800Y21040759D01*
X7027248Y21046475D01*
X7010400Y21049826D01*
X6993552Y21046475D01*
X6979269Y21036931D01*
X6969725Y21022649D01*
X6966374Y21005800D01*
X6969725Y20988953D01*
X6975440Y20980400D01*
X6969725Y20971848D01*
X6966374Y20955000D01*
X6969725Y20938152D01*
X6979269Y20923869D01*
X6993552Y20914325D01*
X7010400Y20910974D01*
X7027248Y20914325D01*
X7035800Y20920039D01*
X7044352Y20914325D01*
X7061200Y20910974D01*
X7078048Y20914325D01*
X7092331Y20923869D01*
X7101875Y20938152D01*
X7105226Y20955000D01*
X7101875Y20971848D01*
X7096160Y20980400D01*
X7101875Y20988953D01*
X7105226Y21005800D01*
X7101875Y21022649D01*
X7092331Y21036931D01*
X7078048Y21046475D01*
X7061200Y21049826D01*
D02*
G37*
G36*
X7556500Y21155344D02*
X7517911Y21151543D01*
X7480804Y21140286D01*
X7446607Y21122008D01*
X7416633Y21097408D01*
X7392033Y21067433D01*
X7373754Y21033237D01*
X7362498Y20996129D01*
X7358697Y20957539D01*
X7362498Y20918951D01*
X7373754Y20881844D01*
X7392033Y20847647D01*
X7416633Y20817673D01*
X7446607Y20793073D01*
X7480804Y20774794D01*
X7517911Y20763538D01*
X7556500Y20759737D01*
X7595089Y20763538D01*
X7632196Y20774794D01*
X7666393Y20793073D01*
X7696367Y20817673D01*
X7720967Y20847647D01*
X7739246Y20881844D01*
X7750502Y20918951D01*
X7754303Y20957539D01*
X7750502Y20996129D01*
X7739246Y21033237D01*
X7720967Y21067433D01*
X7696367Y21097408D01*
X7666393Y21122008D01*
X7632196Y21140286D01*
X7595089Y21151543D01*
X7556500Y21155344D01*
D02*
G37*
G36*
X6604000Y21159221D02*
X6552186Y21155144D01*
X6501647Y21143010D01*
X6453629Y21123120D01*
X6409313Y21095963D01*
X6369791Y21062209D01*
X6336037Y21022687D01*
X6308880Y20978371D01*
X6288990Y20930353D01*
X6276857Y20879814D01*
X6272779Y20828000D01*
X6276857Y20776186D01*
X6288990Y20725647D01*
X6308880Y20677629D01*
X6336037Y20633313D01*
X6369791Y20593791D01*
X6409313Y20560037D01*
X6453629Y20532880D01*
X6501647Y20512990D01*
X6552186Y20500858D01*
X6604000Y20496779D01*
X6655814Y20500858D01*
X6706353Y20512990D01*
X6754371Y20532880D01*
X6798687Y20560037D01*
X6838209Y20593791D01*
X6871963Y20633313D01*
X6899120Y20677629D01*
X6919010Y20725647D01*
X6931143Y20776186D01*
X6935221Y20828000D01*
X6931143Y20879814D01*
X6919010Y20930353D01*
X6899120Y20978371D01*
X6871963Y21022687D01*
X6838209Y21062209D01*
X6798687Y21095963D01*
X6754371Y21123120D01*
X6706353Y21143010D01*
X6655814Y21155144D01*
X6604000Y21159221D01*
D02*
G37*
%LPD*%
G36*
X7217244Y21537759D02*
X7221198Y21535118D01*
X7223840Y21531165D01*
X7224768Y21526500D01*
X7223840Y21521835D01*
X7221198Y21517882D01*
X7217244Y21515240D01*
X7212580Y21514313D01*
X7207916Y21515240D01*
X7203962Y21517882D01*
X7201320Y21521835D01*
X7200392Y21526500D01*
X7201320Y21531165D01*
X7203962Y21535118D01*
X7207916Y21537759D01*
X7212580Y21538689D01*
X7217244Y21537759D01*
D02*
G37*
G36*
X7063681Y21007796D02*
X7064613Y21003108D01*
X7063861Y21001982D01*
X7058060Y20987979D01*
Y20972821D01*
X7063861Y20958818D01*
X7064910Y20957248D01*
X7063195Y20952519D01*
X7058508Y20951587D01*
X7057382Y20952339D01*
X7043379Y20958141D01*
X7028221D01*
X7014218Y20952339D01*
X7012648Y20951289D01*
X7007919Y20953004D01*
X7006987Y20957692D01*
X7007739Y20958818D01*
X7013540Y20972821D01*
Y20987979D01*
X7007739Y21001982D01*
X7006690Y21003552D01*
X7008405Y21008281D01*
X7013092Y21009213D01*
X7014218Y21008461D01*
X7028221Y21002660D01*
X7043379D01*
X7057382Y21008461D01*
X7058952Y21009509D01*
X7063681Y21007796D01*
D02*
G37*
%LPC*%
G36*
X6263640Y21508876D02*
X6252398Y21506641D01*
X6241681Y21499480D01*
X6234520Y21488762D01*
X6232881Y21480521D01*
X6263640D01*
Y21508876D01*
D02*
G37*
G36*
X5890259Y21343420D02*
X5844930D01*
Y21335870D01*
X5847425Y21323326D01*
X5854531Y21312691D01*
X5865166Y21305586D01*
X5877710Y21303090D01*
X5890259D01*
Y21343420D01*
D02*
G37*
G36*
X5333415Y20258841D02*
X5289081D01*
Y20217505D01*
X5300380D01*
X5313022Y20220020D01*
X5323739Y20227180D01*
X5330900Y20237898D01*
X5333415Y20250540D01*
Y20258841D01*
D02*
G37*
G36*
X5245899Y19766081D02*
X5201565D01*
Y19757780D01*
X5204080Y19745139D01*
X5211241Y19734421D01*
X5221958Y19727260D01*
X5234600Y19724745D01*
X5245899D01*
Y19766081D01*
D02*
G37*
G36*
X7579360Y20026456D02*
X7557557Y20022118D01*
X7539073Y20009767D01*
X7526722Y19991283D01*
X7523062Y19972881D01*
X7502710D01*
Y19956902D01*
X7498783Y19953679D01*
X7490460Y19955334D01*
X7468657Y19950998D01*
X7450173Y19938647D01*
X7437822Y19920163D01*
X7433485Y19898360D01*
X7437822Y19876556D01*
X7444973Y19865854D01*
X7446196Y19859705D01*
X7456260Y19844644D01*
Y19773129D01*
X7481700D01*
X7485869Y19768050D01*
X7483239Y19754829D01*
Y19727914D01*
X7475922Y19716963D01*
X7471585Y19695160D01*
X7475922Y19673357D01*
X7488273Y19654874D01*
X7506757Y19642522D01*
X7528560Y19638185D01*
X7550363Y19642522D01*
X7568847Y19654874D01*
X7578090Y19668706D01*
X7583170D01*
X7592413Y19654874D01*
X7610897Y19642522D01*
X7632700Y19638185D01*
X7654503Y19642522D01*
X7672987Y19654874D01*
X7685338Y19673357D01*
X7689675Y19695160D01*
X7685338Y19716963D01*
X7678021Y19727914D01*
Y19752290D01*
X7674886Y19768050D01*
X7677879Y19773129D01*
X7702460D01*
Y19847185D01*
X7712524Y19862247D01*
X7713747Y19868394D01*
X7720898Y19879097D01*
X7725235Y19900900D01*
X7727606Y19903790D01*
X7763842D01*
X7770917Y19899062D01*
X7792720Y19894725D01*
X7814523Y19899062D01*
X7833007Y19911414D01*
X7845358Y19929897D01*
X7849695Y19951700D01*
X7845358Y19973503D01*
X7833007Y19991988D01*
X7814523Y20004338D01*
X7792720Y20008675D01*
X7770917Y20004338D01*
X7763842Y19999609D01*
X7651730D01*
X7633395Y19995964D01*
X7633254Y19995869D01*
X7628272Y19996860D01*
X7619647Y20009767D01*
X7601163Y20022118D01*
X7579360Y20026456D01*
D02*
G37*
G36*
X6335900Y20129935D02*
X6324600D01*
Y20088600D01*
X6368935D01*
Y20096899D01*
X6366420Y20109541D01*
X6359259Y20120259D01*
X6348542Y20127420D01*
X6335900Y20129935D01*
D02*
G37*
G36*
X6299200D02*
X6287900D01*
X6275258Y20127420D01*
X6264541Y20120259D01*
X6257380Y20109541D01*
X6254865Y20096899D01*
Y20088600D01*
X6299200D01*
Y20129935D01*
D02*
G37*
G36*
X6286800Y18846800D02*
X6263800D01*
Y18824400D01*
X6286800D01*
Y18846800D01*
D02*
G37*
G36*
X6221800D02*
X6198800D01*
Y18824400D01*
X6221800D01*
Y18846800D01*
D02*
G37*
G36*
X6156800D02*
X6133800D01*
Y18824400D01*
X6156800D01*
Y18846800D01*
D02*
G37*
G36*
X6883835Y19062700D02*
X6842500D01*
Y19018365D01*
X6850800D01*
X6863442Y19020880D01*
X6874159Y19028041D01*
X6881320Y19038757D01*
X6883835Y19051401D01*
Y19062700D01*
D02*
G37*
G36*
X6593730Y18567400D02*
X6553400D01*
Y18522070D01*
X6560950D01*
X6573494Y18524565D01*
X6584129Y18531671D01*
X6591234Y18542307D01*
X6593730Y18554849D01*
Y18567400D01*
D02*
G37*
G36*
X6087800Y18529401D02*
X6041800D01*
Y18469400D01*
X6087800D01*
Y18529401D01*
D02*
G37*
G36*
X6319520Y18080457D02*
X6289644Y18077515D01*
X6260917Y18068800D01*
X6234441Y18054649D01*
X6230965Y18051796D01*
X6319520Y17963242D01*
X6408075Y18051796D01*
X6404599Y18054649D01*
X6378123Y18068800D01*
X6349396Y18077515D01*
X6319520Y18080457D01*
D02*
G37*
G36*
X6195044Y18015875D02*
X6192191Y18012399D01*
X6178039Y17985922D01*
X6169325Y17957196D01*
X6166383Y17927319D01*
X6169325Y17897444D01*
X6178039Y17868716D01*
X6192191Y17842241D01*
X6195044Y17838765D01*
X6283599Y17927319D01*
X6195044Y18015875D01*
D02*
G37*
G36*
X6319520Y17891399D02*
X6230965Y17802844D01*
X6234441Y17799991D01*
X6260917Y17785838D01*
X6289644Y17777126D01*
X6319520Y17774184D01*
X6349396Y17777126D01*
X6378123Y17785838D01*
X6404599Y17799991D01*
X6408075Y17802844D01*
X6319520Y17891399D01*
D02*
G37*
G36*
X6917124Y15253317D02*
Y15218169D01*
X6918251D01*
X6918815Y15218356D01*
X6919567D01*
X6921635Y15219109D01*
X6922762Y15219672D01*
X6923890Y15220236D01*
X6925018Y15221176D01*
X6926146Y15222304D01*
X6927273Y15223621D01*
X6928213Y15225311D01*
X6928965Y15227191D01*
X6929529Y15229446D01*
X6929905Y15232079D01*
X6930093Y15235085D01*
Y15235274D01*
Y15235837D01*
Y15236777D01*
X6929905Y15237904D01*
X6929717Y15239220D01*
X6929341Y15240724D01*
X6928401Y15244107D01*
X6927837Y15245799D01*
X6926897Y15247490D01*
X6925958Y15248994D01*
X6924642Y15250310D01*
X6923138Y15251627D01*
X6921447Y15252565D01*
X6919379Y15253130D01*
X6917124Y15253317D01*
D02*
G37*
G36*
X6793258D02*
Y15217229D01*
X6796453D01*
X6797393Y15217416D01*
X6798521Y15217606D01*
X6799837Y15217793D01*
X6801340Y15218169D01*
X6802844Y15218921D01*
X6804536Y15219672D01*
X6806227Y15220612D01*
X6807731Y15221928D01*
X6809235Y15223431D01*
X6810550Y15225311D01*
X6811678Y15227567D01*
X6812618Y15230009D01*
X6813182Y15233018D01*
X6813370Y15236401D01*
Y15236589D01*
Y15237154D01*
X6813182Y15238092D01*
X6812994Y15239032D01*
X6812806Y15240347D01*
X6812242Y15241852D01*
X6811678Y15243355D01*
X6810926Y15245047D01*
X6809798Y15246552D01*
X6808483Y15248055D01*
X6806791Y15249557D01*
X6804911Y15250874D01*
X6802656Y15251814D01*
X6799837Y15252753D01*
X6796829Y15253130D01*
X6793258Y15253317D01*
D02*
G37*
G36*
X6730103D02*
Y15217229D01*
X6733299D01*
X6734238Y15217416D01*
X6735366Y15217606D01*
X6736682Y15217793D01*
X6738186Y15218169D01*
X6739689Y15218921D01*
X6741381Y15219672D01*
X6743073Y15220612D01*
X6744576Y15221928D01*
X6746080Y15223431D01*
X6747396Y15225311D01*
X6748523Y15227567D01*
X6749463Y15230009D01*
X6750027Y15233018D01*
X6750215Y15236401D01*
Y15236589D01*
Y15237154D01*
X6750027Y15238092D01*
X6749839Y15239032D01*
X6749651Y15240347D01*
X6749087Y15241852D01*
X6748523Y15243355D01*
X6747772Y15245047D01*
X6746644Y15246552D01*
X6745328Y15248055D01*
X6743637Y15249557D01*
X6741757Y15250874D01*
X6739501Y15251814D01*
X6736682Y15252753D01*
X6733675Y15253130D01*
X6730103Y15253317D01*
D02*
G37*
G36*
X6288397D02*
Y15218169D01*
X6289525D01*
X6290089Y15218356D01*
X6290841D01*
X6292908Y15219109D01*
X6294036Y15219672D01*
X6295164Y15220236D01*
X6296292Y15221176D01*
X6297419Y15222304D01*
X6298547Y15223621D01*
X6299487Y15225311D01*
X6300239Y15227191D01*
X6300803Y15229446D01*
X6301179Y15232079D01*
X6301367Y15235085D01*
Y15235274D01*
Y15235837D01*
Y15236777D01*
X6301179Y15237904D01*
X6300991Y15239220D01*
X6300615Y15240724D01*
X6299675Y15244107D01*
X6299111Y15245799D01*
X6298171Y15247490D01*
X6297232Y15248994D01*
X6295916Y15250310D01*
X6294412Y15251627D01*
X6292720Y15252565D01*
X6290653Y15253130D01*
X6288397Y15253317D01*
D02*
G37*
G36*
X6669016Y15254820D02*
X6668640D01*
X6667889Y15254633D01*
X6666573Y15254257D01*
X6665069Y15253317D01*
X6663190Y15252002D01*
X6662250Y15251062D01*
X6661498Y15249747D01*
X6660558Y15248430D01*
X6659618Y15246927D01*
X6658867Y15245047D01*
X6658115Y15242979D01*
Y15242792D01*
X6657927Y15242416D01*
X6657739Y15241664D01*
X6657551Y15240724D01*
X6657175Y15239597D01*
X6656987Y15238092D01*
X6656611Y15236401D01*
X6656235Y15234521D01*
X6655859Y15232266D01*
X6655483Y15229822D01*
X6655295Y15227191D01*
X6654919Y15224184D01*
X6654731Y15221176D01*
X6654543Y15217793D01*
X6654355Y15214223D01*
Y15210461D01*
Y15210274D01*
Y15209523D01*
Y15208395D01*
Y15206891D01*
X6654543Y15205199D01*
Y15203133D01*
X6654731Y15200876D01*
X6654919Y15198245D01*
X6655295Y15192982D01*
X6655859Y15187531D01*
X6656799Y15182268D01*
X6657551Y15179825D01*
X6658115Y15177570D01*
Y15177380D01*
X6658303Y15177005D01*
X6658491Y15176442D01*
X6658867Y15175877D01*
X6659806Y15173997D01*
X6660934Y15171931D01*
X6662626Y15169862D01*
X6664505Y15167982D01*
X6665633Y15167419D01*
X6666761Y15166856D01*
X6668077Y15166479D01*
X6669392Y15166292D01*
X6669768D01*
X6670520Y15166479D01*
X6671836Y15166856D01*
X6673339Y15167795D01*
X6675031Y15169112D01*
X6675971Y15170052D01*
X6676723Y15171179D01*
X6677663Y15172495D01*
X6678602Y15174187D01*
X6679354Y15175877D01*
X6680106Y15177945D01*
Y15178133D01*
X6680294Y15178510D01*
X6680482Y15179073D01*
X6680670Y15180013D01*
X6681046Y15181329D01*
X6681422Y15182832D01*
X6681798Y15184525D01*
X6682174Y15186403D01*
X6682549Y15188660D01*
X6682925Y15191103D01*
X6683301Y15193735D01*
X6683677Y15196553D01*
X6683865Y15199750D01*
X6684053Y15203133D01*
X6684241Y15206703D01*
Y15210461D01*
Y15210651D01*
Y15211401D01*
Y15212531D01*
Y15214034D01*
X6684053Y15215726D01*
Y15217793D01*
X6683865Y15220049D01*
X6683677Y15222491D01*
X6683301Y15227756D01*
X6682549Y15233205D01*
X6681422Y15238467D01*
X6680858Y15240912D01*
X6680106Y15243167D01*
Y15243355D01*
X6679918Y15243732D01*
X6679730Y15244295D01*
X6679354Y15245047D01*
X6678414Y15246927D01*
X6677287Y15248994D01*
X6675595Y15251062D01*
X6673715Y15252940D01*
X6672776Y15253693D01*
X6671460Y15254257D01*
X6670332Y15254633D01*
X6669016Y15254820D01*
D02*
G37*
G36*
X6361514D02*
X6361138D01*
X6360386Y15254633D01*
X6359070Y15254257D01*
X6357567Y15253317D01*
X6355687Y15252002D01*
X6354747Y15251062D01*
X6353995Y15249747D01*
X6353056Y15248430D01*
X6352116Y15246927D01*
X6351364Y15245047D01*
X6350612Y15242979D01*
Y15242792D01*
X6350424Y15242416D01*
X6350236Y15241664D01*
X6350048Y15240724D01*
X6349672Y15239597D01*
X6349484Y15238092D01*
X6349108Y15236401D01*
X6348733Y15234521D01*
X6348357Y15232266D01*
X6347981Y15229822D01*
X6347793Y15227191D01*
X6347417Y15224184D01*
X6347229Y15221176D01*
X6347041Y15217793D01*
X6346853Y15214223D01*
Y15210461D01*
Y15210274D01*
Y15209523D01*
Y15208395D01*
Y15206891D01*
X6347041Y15205199D01*
Y15203133D01*
X6347229Y15200876D01*
X6347417Y15198245D01*
X6347793Y15192982D01*
X6348357Y15187531D01*
X6349296Y15182268D01*
X6350048Y15179825D01*
X6350612Y15177570D01*
Y15177380D01*
X6350800Y15177005D01*
X6350988Y15176442D01*
X6351364Y15175877D01*
X6352304Y15173997D01*
X6353432Y15171931D01*
X6355123Y15169862D01*
X6357003Y15167982D01*
X6358131Y15167419D01*
X6359258Y15166856D01*
X6360574Y15166479D01*
X6361890Y15166292D01*
X6362266D01*
X6363018Y15166479D01*
X6364333Y15166856D01*
X6365837Y15167795D01*
X6367529Y15169112D01*
X6368468Y15170052D01*
X6369220Y15171179D01*
X6370160Y15172495D01*
X6371100Y15174187D01*
X6371852Y15175877D01*
X6372603Y15177945D01*
Y15178133D01*
X6372791Y15178510D01*
X6372979Y15179073D01*
X6373167Y15180013D01*
X6373543Y15181329D01*
X6373919Y15182832D01*
X6374295Y15184525D01*
X6374671Y15186403D01*
X6375047Y15188660D01*
X6375423Y15191103D01*
X6375799Y15193735D01*
X6376175Y15196553D01*
X6376363Y15199750D01*
X6376551Y15203133D01*
X6376739Y15206703D01*
Y15210461D01*
Y15210651D01*
Y15211401D01*
Y15212531D01*
Y15214034D01*
X6376551Y15215726D01*
Y15217793D01*
X6376363Y15220049D01*
X6376175Y15222491D01*
X6375799Y15227756D01*
X6375047Y15233205D01*
X6373919Y15238467D01*
X6373355Y15240912D01*
X6372603Y15243167D01*
Y15243355D01*
X6372415Y15243732D01*
X6372228Y15244295D01*
X6371852Y15245047D01*
X6370912Y15246927D01*
X6369784Y15248994D01*
X6368092Y15251062D01*
X6366213Y15252940D01*
X6365273Y15253693D01*
X6363957Y15254257D01*
X6362830Y15254633D01*
X6361514Y15254820D01*
D02*
G37*
%LPD*%
D10*
X5889460Y20543179D02*
D03*
X5789460D02*
D03*
Y20691180D02*
D03*
X5839460D02*
D03*
X5889460D02*
D03*
D11*
X6112800Y18554401D02*
D03*
X6177800D02*
D03*
X6242800D02*
D03*
X6307800D02*
D03*
D12*
X6210300Y18694400D02*
D03*
D13*
X6527800Y19167101D02*
D03*
Y19263100D02*
D03*
X6629400Y19167101D02*
D03*
Y19263100D02*
D03*
X6794500Y19433800D02*
D03*
Y19529800D02*
D03*
X6489700D02*
D03*
Y19433800D02*
D03*
X6692900Y19529800D02*
D03*
Y19433800D02*
D03*
X6007100Y20546320D02*
D03*
Y20642320D02*
D03*
X5276380Y20271539D02*
D03*
Y20367540D02*
D03*
X5258600Y19778780D02*
D03*
Y19874780D02*
D03*
X6289040Y21455119D02*
D03*
Y21359120D02*
D03*
X6311900Y20075900D02*
D03*
Y19979900D02*
D03*
D14*
X6489500Y19075400D02*
D03*
X6591500D02*
D03*
X6540700Y18580099D02*
D03*
X6438700D02*
D03*
X5449300Y19549921D02*
D03*
X5347300D02*
D03*
X5715600Y19829320D02*
D03*
X5817600D02*
D03*
X5715600Y19930920D02*
D03*
X5817600D02*
D03*
D15*
X6716800Y19148000D02*
D03*
X6781800D02*
D03*
X6846800D02*
D03*
Y19333000D02*
D03*
X6781800D02*
D03*
X6716800D02*
D03*
D16*
X6781800Y19240500D02*
D03*
D17*
X6896100Y19532800D02*
D03*
Y19430800D02*
D03*
X6591300Y19532800D02*
D03*
Y19430800D02*
D03*
X5902960Y21458121D02*
D03*
Y21356120D02*
D03*
X6972300Y19761400D02*
D03*
Y19659399D02*
D03*
X5814860Y20144080D02*
D03*
Y20246080D02*
D03*
X6972300Y19862601D02*
D03*
Y19964600D02*
D03*
X6438900Y18872000D02*
D03*
Y18974001D02*
D03*
X7137400Y20357899D02*
D03*
Y20459900D02*
D03*
X6438900Y18681500D02*
D03*
Y18783501D02*
D03*
D18*
X6540240Y20116800D02*
D03*
X6444240D02*
D03*
X5692400Y21844000D02*
D03*
X5788400D02*
D03*
X7450080Y21877020D02*
D03*
X7546080D02*
D03*
X5923540Y21602699D02*
D03*
X6019540D02*
D03*
X6829800Y19075400D02*
D03*
X6733800D02*
D03*
D19*
X5461800Y20489720D02*
D03*
X5588800D02*
D03*
X5461800Y20362720D02*
D03*
X5588800D02*
D03*
X5461800Y20235719D02*
D03*
X5588800D02*
D03*
D20*
X5339700Y19929320D02*
D03*
Y19729320D02*
D03*
X5634700D02*
D03*
Y19929320D02*
D03*
D21*
X5357200Y19879320D02*
D03*
Y19829320D02*
D03*
Y19779320D02*
D03*
X5617200D02*
D03*
Y19829320D02*
D03*
Y19879320D02*
D03*
D22*
X5387200Y19681821D02*
D03*
X5587200D02*
D03*
Y19976820D02*
D03*
X5387200D02*
D03*
D23*
X5437200Y19699319D02*
D03*
X5487200D02*
D03*
X5537200D02*
D03*
Y19959320D02*
D03*
X5487200D02*
D03*
X5437200D02*
D03*
D24*
X6225540Y17670779D02*
D03*
X6405880D02*
D03*
X6802120D02*
D03*
X7039610D02*
D03*
D25*
X6725700Y20292200D02*
D03*
Y20342200D02*
D03*
X7015700D02*
D03*
Y20292200D02*
D03*
D26*
X6795700Y20412199D02*
D03*
X6845700D02*
D03*
X6895700D02*
D03*
X6945700D02*
D03*
D27*
X6910700Y20200700D02*
D03*
X6830700D02*
D03*
D28*
X6940700Y20190700D02*
D03*
X6800700D02*
D03*
D29*
X6920700Y20137199D02*
D03*
X6820700D02*
D03*
D30*
X7109460Y17993359D02*
D03*
X5631180Y22064980D02*
D03*
X7614920Y22072600D02*
D03*
D31*
X6731000Y18846800D02*
D03*
D32*
X6871000Y18921800D02*
D03*
Y18871800D02*
D03*
Y18821800D02*
D03*
Y18771800D02*
D03*
X6591000D02*
D03*
Y18821800D02*
D03*
Y18871800D02*
D03*
Y18921800D02*
D03*
D33*
X6501600Y21406100D02*
D03*
X6451600D02*
D03*
X6401600D02*
D03*
Y21519901D02*
D03*
X6451600D02*
D03*
X6501600D02*
D03*
D34*
X7033260Y18280380D02*
D03*
D35*
X6802100Y19812000D02*
D03*
X6712100D02*
D03*
X6622100D02*
D03*
X6532100D02*
D03*
X6442100D02*
D03*
D36*
X6404600Y19762000D02*
D03*
Y19862000D02*
D03*
D37*
X6442100Y19952000D02*
D03*
X6492100D02*
D03*
X6542100D02*
D03*
X6592100D02*
D03*
X6642100D02*
D03*
X6692100D02*
D03*
X6742100D02*
D03*
X6792100D02*
D03*
X6842100D02*
D03*
Y19672000D02*
D03*
X6792100D02*
D03*
X6742100D02*
D03*
X6692100D02*
D03*
X6642100D02*
D03*
X6592100D02*
D03*
X6542100D02*
D03*
X6492100D02*
D03*
D38*
X6882100Y19862000D02*
D03*
Y19762000D02*
D03*
D39*
X6442100Y19672000D02*
D03*
D40*
X7061200Y19160600D02*
D03*
Y19015601D02*
D03*
X6007100Y20202000D02*
D03*
Y20057001D02*
D03*
Y19795599D02*
D03*
Y19650600D02*
D03*
D41*
X6601460Y17861279D02*
D03*
X6604000Y17505679D02*
D03*
D42*
X7539360Y19919330D02*
D03*
X7579360D02*
D03*
X7619360D02*
D03*
Y19765630D02*
D03*
X7579360D02*
D03*
X7539360D02*
D03*
D43*
X7628710Y19862480D02*
D03*
Y19822479D02*
D03*
X7530010D02*
D03*
Y19862480D02*
D03*
D44*
X6107980Y21401241D02*
D03*
Y21351241D02*
D03*
Y21301241D02*
D03*
X6047980D02*
D03*
Y21351241D02*
D03*
D45*
X6050480Y21401241D02*
D03*
D46*
X6985000Y21716440D02*
D03*
D47*
X7007500Y21646440D02*
D03*
X6962500D02*
D03*
D48*
X6177800Y18554401D02*
X6242800D01*
X6112800D02*
X6177800D01*
X6527800Y19263100D02*
X6629400D01*
X6894800Y19432300D02*
X6896100Y19431000D01*
X6796000Y19432300D02*
X6894800D01*
X6794500Y19433800D02*
X6796000Y19432300D01*
X6591300Y19430800D02*
X6592800Y19432300D01*
X6691400D01*
X6692900Y19433800D01*
X6589800Y19432300D02*
X6591300Y19430800D01*
X6491200Y19432300D02*
X6589800D01*
X6489700Y19433800D02*
X6491200Y19432300D01*
X6442100Y19952000D02*
X6492100D01*
X6542100D01*
X6692900Y19433800D02*
X6794500D01*
X6079380Y20057001D02*
X6179820Y20157440D01*
X6007100Y19795599D02*
Y20057001D01*
X6079380D01*
X7450080Y21803619D02*
Y21877020D01*
X6806000Y18771800D02*
X6871000D01*
X6935540D01*
X7366000Y21719540D02*
X7450080Y21803619D01*
X6731000Y18846800D02*
X6806000Y18771800D01*
X5788400Y21773140D02*
X5842000Y21719540D01*
X6756000Y18871800D02*
X6871000D01*
X6731000Y18846800D02*
X6756000Y18871800D01*
X5788400Y21773140D02*
Y21844000D01*
X6935540Y18771800D02*
X6954520Y18752820D01*
D49*
X6107980Y21398700D02*
X6185700D01*
X7651730Y19951700D02*
X7792720D01*
X7619360Y19919330D02*
X7651730Y19951700D01*
X6185700Y21398700D02*
X6212840Y21371561D01*
X6026620Y21301241D02*
X6047980D01*
X6017260Y21310600D02*
X6026620Y21301241D01*
X5854900Y21458121D02*
X5902960D01*
X5959040Y21402040D01*
X5768340Y21371561D02*
X5854900Y21458121D01*
X5959040Y21402040D02*
X6047140D01*
X7628710Y19862480D02*
X7650160D01*
X7668260Y19880580D02*
Y19900900D01*
X7650160Y19862480D02*
X7668260Y19880580D01*
X7490460Y19878040D02*
X7506020Y19862480D01*
X7490460Y19878040D02*
Y19898360D01*
X7506020Y19862480D02*
X7530010D01*
X6289040Y21359120D02*
X6354620D01*
X6197600Y21267680D02*
X6289040Y21359120D01*
X6107980Y21298621D02*
X6139180Y21267419D01*
X6197600D02*
Y21267680D01*
X6354620Y21359120D02*
X6401600Y21406100D01*
X6139180Y21267419D02*
X6197600D01*
X6107980Y21298621D02*
Y21298700D01*
X6882100Y19862000D02*
X6971700D01*
X6972300Y19862601D01*
X6591300Y19545300D02*
X6642100Y19596100D01*
Y19672000D01*
X6591300Y19532800D02*
Y19545300D01*
X5339700Y19557520D02*
Y19729320D01*
Y19557520D02*
X5347300Y19549921D01*
X5665600Y19879320D02*
X5715600Y19829320D01*
X5617200Y19879320D02*
X5665600D01*
X5634700Y19929320D02*
X5714000D01*
X5715600Y19930920D01*
X6591000Y18921800D02*
Y19074899D01*
X6591500Y19075400D01*
X6438900Y18681500D02*
X6512360D01*
X6591000Y18760139D02*
Y18771800D01*
X6512360Y18681500D02*
X6591000Y18760139D01*
X6438900Y18580299D02*
Y18681500D01*
X6438700Y18580099D02*
X6438900Y18580299D01*
X6487360Y18783501D02*
X6525660Y18821800D01*
X6438900Y18783501D02*
Y18872000D01*
X6525660Y18821800D02*
X6591000D01*
X6438900Y18783501D02*
X6487360D01*
X6692100Y19530600D02*
X6692900Y19529800D01*
X6692100Y19530600D02*
Y19672000D01*
X6489700Y19529800D02*
Y19555460D01*
X6527800Y19593559D01*
X6576060D01*
X6592100Y19609599D02*
Y19672000D01*
X6576060Y19593559D02*
X6592100Y19609599D01*
X6442100Y19620840D02*
Y19672000D01*
Y19620840D02*
X6464300Y19598640D01*
X6725040Y20342860D02*
X6725700Y20342200D01*
X5634700Y19729320D02*
X5663400D01*
X6662420Y20342860D02*
X6725040D01*
X5720880Y19671840D02*
X5741200D01*
X5663400Y19729320D02*
X5720880Y19671840D01*
X5839460Y20691180D02*
Y20736560D01*
X5834380Y20741640D02*
X5839460Y20736560D01*
X5449300Y19549921D02*
X5906420D01*
X6007100Y19650600D01*
X5487200Y19615961D02*
Y19699319D01*
Y19615961D02*
X5492280Y19610880D01*
X5676900Y19779320D02*
X5731040Y19725180D01*
X7015700Y20342200D02*
X7121700D01*
X5617200Y19779320D02*
X5676900D01*
X7121700Y20342200D02*
X7137400Y20357899D01*
X5537200Y19614220D02*
X5555780Y19595641D01*
X5537200Y19614220D02*
Y19699319D01*
X5587200Y19627721D02*
X5614200Y19600720D01*
X6882700Y19761400D02*
X6972300D01*
X5587200Y19627721D02*
Y19681821D01*
X5889920Y20691180D02*
X5890260Y20690840D01*
X6882100Y19762000D02*
X6882700Y19761400D01*
X5889460Y20691180D02*
X5889920D01*
X6871000Y18921800D02*
X6967400D01*
X7061200Y19015601D01*
X5437200Y19699319D02*
Y19734200D01*
X5435600Y19735800D02*
X5437200Y19734200D01*
X6548520Y18871800D02*
X6591000D01*
X6520180Y18900140D02*
X6548520Y18871800D01*
X6520180Y18900140D02*
Y18928081D01*
X6517640Y18925540D02*
X6520180Y18928081D01*
X6871000Y18821800D02*
X7020160D01*
X6507480Y18925540D02*
X6517640D01*
X6459020Y18974001D02*
X6507480Y18925540D01*
X6438900Y18974001D02*
X6459020D01*
X7020160Y18821800D02*
X7020560Y18821400D01*
X5872780Y20202000D02*
X6007100D01*
X5814860Y20144080D02*
X5872780Y20202000D01*
X6888800Y19333000D02*
X7061200Y19160600D01*
X6846800Y19333000D02*
X6888800D01*
X5357200Y19779320D02*
X5387000D01*
X5389880Y19776440D01*
X6451600Y21325841D02*
Y21406100D01*
X6501600Y21352040D02*
X6526530Y21327110D01*
X6501600Y21352040D02*
Y21406100D01*
X5788660Y19776440D02*
X5817600Y19805380D01*
X5782500Y19895821D02*
X5817600Y19930920D01*
X6791960Y19611340D02*
Y19671860D01*
Y19532339D02*
Y19611340D01*
X5407190Y19628661D02*
X5441480D01*
X6791960Y19671860D02*
X6792100Y19672000D01*
X6791960Y19532339D02*
X6794500Y19529800D01*
X6893100D02*
X6896100Y19532800D01*
X5387200Y19648650D02*
Y19681821D01*
Y19648650D02*
X5407190Y19628661D01*
X6794500Y19529800D02*
X6893100D01*
X6019540Y21643080D02*
X6096000Y21719540D01*
X6019540Y21602699D02*
Y21643080D01*
X6629400Y19167101D02*
X6648500Y19148000D01*
X6725840Y20292059D02*
X6835400D01*
X5951220Y20449541D02*
Y20481419D01*
X6129020Y21348700D02*
X6159500Y21318221D01*
X6648500Y19148000D02*
X6716800D01*
X5951220Y20490440D02*
X6007100Y20546320D01*
X5951220Y20449541D02*
Y20490440D01*
X5441480Y20713240D02*
X5459260Y20731020D01*
X5441480Y20510040D02*
X5461800Y20489720D01*
X5814860Y20246080D02*
Y20313181D01*
X5258600Y19874780D02*
X5263140Y19879320D01*
X5441480Y20510040D02*
Y20713240D01*
X5263140Y19879320D02*
X5357200D01*
X6716800Y19092400D02*
Y19148000D01*
X6107980Y21348700D02*
X6129020D01*
X6716800Y19092400D02*
X6733800Y19075400D01*
X5814860Y20313181D02*
X5951220Y20449541D01*
X5386080Y19879320D02*
X5387340Y19880580D01*
X5459260Y20731020D02*
X5560860D01*
X5276380Y20367540D02*
X5398560Y20489720D01*
X5357200Y19879320D02*
X5386080D01*
X5398560Y20489720D02*
X5461800D01*
X7579360Y19919330D02*
Y19969479D01*
X5889460Y20543179D02*
X5951220Y20481419D01*
X6725700Y20292200D02*
X6725840Y20292059D01*
X7432040Y19939000D02*
X7459980Y19966940D01*
X5276380Y20271539D02*
X5312200Y20235719D01*
X5409740Y19829320D02*
X5415280Y19834860D01*
X5357200Y19829320D02*
X5409740D01*
X5902960Y21356120D02*
X6043100D01*
X5789000Y20691180D02*
X5789460D01*
X6846800Y19092400D02*
Y19148000D01*
X5923540Y21602699D02*
Y21638000D01*
X5196840Y19822501D02*
Y19930119D01*
X7459980Y19966940D02*
X7520940D01*
X6672840Y19263100D02*
X6720840Y19215100D01*
X7520940Y19966940D02*
X7539360Y19948520D01*
X6629400Y19263100D02*
X6672840D01*
X5240560Y19778780D02*
X5258600D01*
X6934200Y20292200D02*
X7015700D01*
X5301780Y19946159D02*
X5318620Y19929320D01*
X6350000Y21513800D02*
X6356100Y21519901D01*
X6043100Y21356120D02*
X6047980Y21351241D01*
X6479800Y19443700D02*
X6489700Y19433800D01*
X5318620Y19929320D02*
X5339700D01*
X6289040Y21455119D02*
X6291320D01*
X5309140Y19829320D02*
X5357200D01*
X6390900Y19443700D02*
X6479800D01*
X5196840Y19822501D02*
X5240560Y19778780D01*
X5212880Y19946159D02*
X5301780D01*
X6829800Y19075400D02*
X6846800Y19092400D01*
X5258600Y19778780D02*
X5309140Y19829320D01*
X7432040Y19895821D02*
Y19939000D01*
X6356100Y21519901D02*
X6401600D01*
X5312200Y20235719D02*
X5461800D01*
X7539360Y19919330D02*
Y19948520D01*
X6291320Y21455119D02*
X6350000Y21513800D01*
X5196840Y19930119D02*
X5212880Y19946159D01*
X5788660Y20690840D02*
X5789000Y20691180D01*
X5842000Y21719540D02*
X5923540Y21638000D01*
D50*
X7038900Y21646440D02*
X7112000Y21719540D01*
X7007500Y21646440D02*
X7038900D01*
X6931100D02*
X6962500D01*
X6858000Y21719540D02*
X6931100Y21646440D01*
X6350000Y21719540D02*
X6451600Y21617940D01*
Y21519901D02*
Y21617940D01*
X6501600Y21617140D02*
X6604000Y21719540D01*
X6501600Y21519901D02*
Y21617140D01*
X5504980Y20032520D02*
X5525300Y20052840D01*
Y20299220D01*
X5497360Y20032520D02*
X5504980D01*
X5461800Y20362720D02*
X5525300Y20299220D01*
X5662460Y19989340D02*
X5728500D01*
X5649760Y19976640D02*
X5662460Y19989340D01*
X5587380Y19976640D02*
X5649760D01*
X5756440Y20017281D02*
Y20322079D01*
X5728500Y19989340D02*
X5756440Y20017281D01*
X5588800Y20489720D02*
X5756440Y20322079D01*
X5587200Y19976820D02*
X5587380Y19976640D01*
X5550700Y20027440D02*
X5700560D01*
X5537200Y19959320D02*
Y20013940D01*
X5588800Y20362720D02*
X5639600D01*
X5700560Y20027440D02*
X5720880Y20047760D01*
X5537200Y20013940D02*
X5550700Y20027440D01*
X5720880Y20047760D02*
Y20281441D01*
X5639600Y20362720D02*
X5720880Y20281441D01*
X7632700Y19695160D02*
Y19752290D01*
X7619360Y19765630D02*
X7632700Y19752290D01*
X7528560Y19754829D02*
X7539360Y19765630D01*
X7528560Y19695160D02*
Y19754829D01*
X5817600Y19805380D02*
Y19829320D01*
X5778500Y19895821D02*
X5782500D01*
X7579360Y19715480D02*
Y19765630D01*
X7581900Y19657060D02*
Y19712939D01*
X7579360Y19715480D02*
X7581900Y19712939D01*
D51*
X5525300Y20616721D02*
D03*
X5626900Y20108720D02*
D03*
X5423700D02*
D03*
D52*
X6888480Y17927319D02*
D03*
X6319520D02*
D03*
D53*
X6225540Y17670779D02*
D03*
X6982460D02*
D03*
D54*
X6405880D02*
D03*
X6802120D02*
D03*
X7620000Y21719540D02*
D03*
X7366000D02*
D03*
X7112000D02*
D03*
X6858000D02*
D03*
X6604000D02*
D03*
X6350000D02*
D03*
X6096000D02*
D03*
X5842000D02*
D03*
X6969760Y18280380D02*
D03*
X6583680Y17772380D02*
D03*
X6586220Y17594580D02*
D03*
D55*
X5588000Y21719540D02*
D03*
D56*
X6604000Y18227040D02*
D03*
X7556500Y20957539D02*
D03*
X5651500D02*
D03*
D57*
X5514340Y21564600D02*
D03*
X5789460Y20543179D02*
D03*
X7792720Y19951700D02*
D03*
X6212840Y21371561D02*
D03*
X6017260Y21310600D02*
D03*
X5768340Y21371561D02*
D03*
X7668260Y19900900D02*
D03*
X7490460Y19898360D02*
D03*
X6972300Y19862601D02*
D03*
X6464300Y19598640D02*
D03*
X5741200Y19671840D02*
D03*
X6662420Y20342860D02*
D03*
X6387900Y19545300D02*
D03*
X6179820Y20157440D02*
D03*
X5834380Y20741640D02*
D03*
X5492280Y19610880D02*
D03*
X5731040Y19725180D02*
D03*
X7137400Y20355560D02*
D03*
X5555780Y19595641D02*
D03*
X6842100Y19672000D02*
D03*
X5890260Y20690840D02*
D03*
X6972300Y19761400D02*
D03*
X5614200Y19600720D02*
D03*
X5435600Y19735800D02*
D03*
X6520180Y18928081D02*
D03*
X7020560Y18821400D02*
D03*
X5497360Y20032520D02*
D03*
X6781800Y19333000D02*
D03*
X5389880Y19776440D02*
D03*
X7632700Y19695160D02*
D03*
X7528560D02*
D03*
X6451600Y21325841D02*
D03*
X6526530Y21327110D02*
D03*
X5788660Y19776440D02*
D03*
X5778500Y19895821D02*
D03*
X6791960Y19611340D02*
D03*
X5441480Y19628661D02*
D03*
X5509260Y19771561D02*
D03*
X6146800Y20751801D02*
D03*
X6197600D02*
D03*
X7010400D02*
D03*
X7061200D02*
D03*
X7010400Y20802600D02*
D03*
X6146800D02*
D03*
X6197600D02*
D03*
X7061200D02*
D03*
X5951220Y20449541D02*
D03*
X5387340Y19880580D02*
D03*
X6733800Y19075400D02*
D03*
X6835400Y20292059D02*
D03*
X5560860Y20731020D02*
D03*
X7579360Y19969479D02*
D03*
X6972300Y19659599D02*
D03*
X7137400Y20459900D02*
D03*
X6159500Y21318221D02*
D03*
X6716800Y19333000D02*
D03*
X6311900Y20075900D02*
D03*
X6390900Y19443700D02*
D03*
X7432040Y19895821D02*
D03*
X6934200Y20292200D02*
D03*
X5892800Y21005800D02*
D03*
X5788660Y20690840D02*
D03*
X7724140Y19900900D02*
D03*
X5976620Y21356320D02*
D03*
X5943600Y21005800D02*
D03*
X5892800Y20955000D02*
D03*
X6985000Y21716440D02*
D03*
X7010400Y21005800D02*
D03*
X7061200D02*
D03*
X6794500Y19433800D02*
D03*
X7010400Y20955000D02*
D03*
X5415280Y19834860D02*
D03*
X6720840Y19215100D02*
D03*
X6896100Y19431000D02*
D03*
X5943600Y20955000D02*
D03*
X7581900Y19712939D02*
D03*
X6742100Y19672000D02*
D03*
X7061200Y20955000D02*
D03*
D58*
X7366000Y21361400D02*
D03*
X5638800Y21488400D02*
D03*
X6934200Y20142200D02*
D03*
X6642100Y21361400D02*
D03*
X6794500D02*
D03*
X7670800D02*
D03*
X7594600D02*
D03*
X6718300D02*
D03*
X7442200D02*
D03*
X5638800Y21412199D02*
D03*
X7518400Y21361400D02*
D03*
X6309360Y18554700D02*
D03*
X6350000Y18923000D02*
D03*
X6273800Y19748500D02*
D03*
X6350000Y18986501D02*
D03*
X6223000D02*
D03*
X6210300Y19812000D02*
D03*
X6273800D02*
D03*
X6210300Y19875500D02*
D03*
X6286500Y18986501D02*
D03*
X6273800Y19875500D02*
D03*
X6210300Y19748500D02*
D03*
X6286500Y18923000D02*
D03*
X6223000D02*
D03*
X6350000Y21513800D02*
D03*
X7753100Y21526500D02*
D03*
X6693117Y18808655D02*
D03*
X7212580Y21526500D02*
D03*
X6314333Y18297958D02*
D03*
X6313951Y18240652D02*
D03*
X6255309Y18298340D02*
D03*
X6313760Y18355072D02*
D03*
X6255882Y18355646D02*
D03*
X6255118Y18241417D02*
D03*
%TF.MD5,cfc1a160487875cf9dbc5cb519e45a0e*%
M02*
