%TF.GenerationSoftware,Altium Limited,Altium Designer,25.2.1 (25)*%
G04 Layer_Physical_Order=5*
G04 Layer_Color=16737945*
%FSLAX45Y45*%
%MOMM*%
%TF.SameCoordinates,1405630C-4DB4-4800-89E6-4DE4E69AA207*%
%TF.FilePolarity,Positive*%
%TF.FileFunction,Copper,L5,Inr,Signal*%
%TF.Part,Single*%
G01*
G75*
%TA.AperFunction,Conductor*%
%ADD49C,0.17780*%
%ADD50C,0.12700*%
%TA.AperFunction,ComponentPad*%
%ADD51C,0.99060*%
%ADD52C,2.54000*%
%ADD53C,1.01600*%
%ADD54C,1.27000*%
%ADD55R,1.27000X1.27000*%
%ADD56C,3.17500*%
%TA.AperFunction,ViaPad*%
%ADD57C,0.35560*%
%ADD58C,0.50800*%
%TA.AperFunction,Conductor*%
%ADD59C,0.13716*%
G36*
X7673425Y21853932D02*
X7673587Y21853117D01*
X7676929Y21819191D01*
X7675276Y21817249D01*
X7666200Y21810374D01*
X7646523Y21818526D01*
X7620000Y21822017D01*
X7593477Y21818526D01*
X7568762Y21808289D01*
X7547538Y21792001D01*
X7531252Y21770778D01*
X7521015Y21746063D01*
X7517523Y21719540D01*
X7521015Y21693018D01*
X7531252Y21668301D01*
X7547538Y21647078D01*
X7568762Y21630792D01*
X7593477Y21620555D01*
X7620000Y21617062D01*
X7646523Y21620555D01*
X7671238Y21630792D01*
X7692462Y21647078D01*
X7708748Y21668301D01*
X7718985Y21693018D01*
X7721752Y21714035D01*
X7734114Y21719821D01*
X7734703Y21719835D01*
X7752963Y21704849D01*
X7783851Y21688341D01*
X7805517Y21681767D01*
X8067501Y19548074D01*
X8067498Y19548071D01*
X8067364Y19548055D01*
X8068568Y19541998D01*
X8064724Y19522673D01*
X8053777Y19506290D01*
X8037394Y19495343D01*
X8020017Y19491887D01*
X8018466Y19492195D01*
X7366000D01*
X7365882Y19492172D01*
X7326165Y19488260D01*
X7287862Y19476640D01*
X7252561Y19457771D01*
X7221620Y19432381D01*
X7196228Y19401439D01*
X7177359Y19366138D01*
X7165740Y19327835D01*
X7161829Y19288124D01*
X7161805Y19288005D01*
X7161804D01*
X7161804Y19288004D01*
X7161804Y19288004D01*
X7161805Y19275458D01*
Y17402014D01*
X7162153Y17400264D01*
X7158655Y17382681D01*
X7147705Y17366292D01*
X7131315Y17355341D01*
X7114149Y17351927D01*
X7112799Y17352196D01*
X6844744D01*
X6839884Y17363928D01*
X7016338Y17540382D01*
X7026724Y17555927D01*
X7030370Y17574260D01*
Y17595486D01*
X7045864Y17607376D01*
X7060114Y17625946D01*
X7069072Y17647572D01*
X7072127Y17670779D01*
X7069072Y17693987D01*
X7060114Y17715614D01*
X7045864Y17734184D01*
X7027294Y17748434D01*
X7005667Y17757391D01*
X6982460Y17760448D01*
X6959253Y17757391D01*
X6937626Y17748434D01*
X6919056Y17734184D01*
X6906404Y17717696D01*
X6892997Y17716878D01*
X6890868Y17722018D01*
X6874582Y17743242D01*
X6853358Y17759528D01*
X6828643Y17769765D01*
X6802120Y17773257D01*
X6786641Y17771219D01*
X6777093Y17779593D01*
Y17805151D01*
X6789793Y17811159D01*
X6803401Y17799991D01*
X6829877Y17785838D01*
X6858604Y17777126D01*
X6888480Y17774184D01*
X6918356Y17777126D01*
X6947083Y17785838D01*
X6973559Y17799991D01*
X6977035Y17802844D01*
X6956126Y17823753D01*
X6992047Y17859674D01*
X7012956Y17838765D01*
X7015809Y17842241D01*
X7029961Y17868716D01*
X7038675Y17897444D01*
X7041617Y17927319D01*
X7038675Y17957196D01*
X7029961Y17985922D01*
X7015809Y18012399D01*
X6996765Y18035605D01*
X6977489Y18051424D01*
X6964510Y18024899D01*
X6918880Y18047227D01*
X6931718Y18073460D01*
X6918356Y18077515D01*
X6902329Y18079092D01*
X6895650Y18091533D01*
X6895672Y18092511D01*
X6899013Y18109309D01*
Y18206602D01*
X6911713Y18212865D01*
X6924926Y18202727D01*
X6946553Y18193768D01*
X6969760Y18190714D01*
X6992967Y18193768D01*
X7012401Y18201817D01*
X6951799Y18262419D01*
X6969760Y18280380D01*
X6951799Y18298341D01*
X7012401Y18358942D01*
X6992967Y18366992D01*
X6969760Y18370047D01*
X6946553Y18366992D01*
X6924926Y18358034D01*
X6911713Y18347894D01*
X6899013Y18354158D01*
Y18856955D01*
X7037987Y18995929D01*
X7047924Y19010800D01*
X7051413Y19028342D01*
Y19385275D01*
X7216145Y19550008D01*
X7560378D01*
X7577920Y19553496D01*
X7592791Y19563432D01*
X7595713Y19567805D01*
X7627663Y19599756D01*
X7637487Y19614459D01*
X7640937Y19631802D01*
Y19639304D01*
X7641586Y19639954D01*
X7654503Y19642522D01*
X7672987Y19654874D01*
X7685338Y19673357D01*
X7689675Y19695160D01*
X7685338Y19716963D01*
X7672987Y19735448D01*
X7654503Y19747798D01*
X7632700Y19752135D01*
X7610897Y19747798D01*
X7592413Y19735448D01*
X7586980Y19727316D01*
X7574280D01*
X7568847Y19735448D01*
X7550363Y19747798D01*
X7528560Y19752135D01*
X7506757Y19747798D01*
X7488273Y19735448D01*
X7475922Y19716963D01*
X7471585Y19695160D01*
X7473532Y19685373D01*
X7463109Y19672673D01*
X7184322D01*
X7166780Y19669183D01*
X7151909Y19659247D01*
X6942173Y19449512D01*
X6932236Y19434641D01*
X6928747Y19417097D01*
Y19060165D01*
X6793777Y18925195D01*
X6783840Y18910324D01*
X6780351Y18892783D01*
Y18339909D01*
X6772839Y18338029D01*
X6767651Y18337927D01*
X6743867Y18366907D01*
X6713893Y18391507D01*
X6679696Y18409785D01*
X6642589Y18421042D01*
X6604000Y18424841D01*
X6565411Y18421042D01*
X6528304Y18409785D01*
X6494107Y18391507D01*
X6474110Y18375096D01*
X6461410Y18381104D01*
Y18892593D01*
X6474110Y18896448D01*
X6479893Y18887793D01*
X6498377Y18875443D01*
X6520180Y18871104D01*
X6541983Y18875443D01*
X6560467Y18887793D01*
X6572818Y18906277D01*
X6577155Y18928081D01*
X6572818Y18949883D01*
X6560467Y18968367D01*
X6541983Y18980717D01*
X6520180Y18985056D01*
X6498377Y18980717D01*
X6479893Y18968367D01*
X6474110Y18959714D01*
X6461410Y18963567D01*
Y19327335D01*
X6571838Y19437762D01*
X6582224Y19453307D01*
X6585870Y19471640D01*
Y19982179D01*
X6582224Y20000514D01*
X6571838Y20016058D01*
X6128670Y20459225D01*
Y20688422D01*
X6138488Y20696478D01*
X6146800Y20694826D01*
X6168603Y20699162D01*
X6172200Y20701566D01*
X6175797Y20699162D01*
X6197600Y20694826D01*
X6219403Y20699162D01*
X6237887Y20711513D01*
X6250238Y20729997D01*
X6254575Y20751801D01*
X6250780Y20770877D01*
X6251856Y20772720D01*
X6254161Y20772995D01*
X6265191Y20770377D01*
X6276874Y20721710D01*
X6297529Y20671844D01*
X6325730Y20625826D01*
X6360783Y20584782D01*
X6401825Y20549730D01*
X6447845Y20521529D01*
X6497710Y20500874D01*
X6550193Y20488274D01*
X6604000Y20484039D01*
X6657807Y20488274D01*
X6710290Y20500874D01*
X6760155Y20521529D01*
X6806175Y20549730D01*
X6847217Y20584782D01*
X6882270Y20625826D01*
X6910471Y20671844D01*
X6931126Y20721710D01*
X6942809Y20770377D01*
X6953839Y20772995D01*
X6956144Y20772720D01*
X6957220Y20770877D01*
X6953425Y20751801D01*
X6957762Y20729997D01*
X6970113Y20711513D01*
X6988597Y20699162D01*
X7010400Y20694826D01*
X7032203Y20699162D01*
X7035800Y20701566D01*
X7039397Y20699162D01*
X7061200Y20694826D01*
X7083003Y20699162D01*
X7101487Y20711513D01*
X7113838Y20729997D01*
X7118175Y20751801D01*
X7113838Y20773602D01*
X7111435Y20777200D01*
X7113838Y20780797D01*
X7118175Y20802600D01*
X7113838Y20824403D01*
X7101487Y20842886D01*
X7083003Y20855238D01*
X7061200Y20859575D01*
X7039397Y20855238D01*
X7035800Y20852835D01*
X7032203Y20855238D01*
X7010400Y20859575D01*
X6988597Y20855238D01*
X6970113Y20842886D01*
X6960422Y20828384D01*
X6947637Y20832109D01*
X6943726Y20881807D01*
X6931126Y20934290D01*
X6910471Y20984155D01*
X6882270Y21030174D01*
X6847217Y21071217D01*
X6806175Y21106270D01*
X6760155Y21134471D01*
X6710290Y21155125D01*
X6657807Y21167726D01*
X6604000Y21171960D01*
X6550193Y21167726D01*
X6497710Y21155125D01*
X6447845Y21134471D01*
X6401825Y21106270D01*
X6360783Y21071217D01*
X6325730Y21030174D01*
X6297529Y20984155D01*
X6276874Y20934290D01*
X6264274Y20881807D01*
X6260363Y20832109D01*
X6247578Y20828384D01*
X6237887Y20842886D01*
X6219403Y20855238D01*
X6197600Y20859575D01*
X6175797Y20855238D01*
X6172200Y20852835D01*
X6168603Y20855238D01*
X6146800Y20859575D01*
X6138488Y20857921D01*
X6128670Y20865977D01*
Y21008815D01*
X6265705Y21145850D01*
X6431280D01*
X6449615Y21149496D01*
X6465158Y21159882D01*
X6561678Y21256403D01*
X6572064Y21271945D01*
X6575710Y21290280D01*
Y21300133D01*
X6579168Y21305307D01*
X6581179Y21315417D01*
X6594661Y21318100D01*
X6596319Y21315619D01*
X6617324Y21301584D01*
X6642100Y21296655D01*
X6666876Y21301584D01*
X6680200Y21310487D01*
X6693524Y21301584D01*
X6718300Y21296655D01*
X6743076Y21301584D01*
X6756400Y21310487D01*
X6769724Y21301584D01*
X6794500Y21296655D01*
X6819276Y21301584D01*
X6840281Y21315619D01*
X6854316Y21336624D01*
X6859244Y21361400D01*
X6854316Y21386176D01*
X6840281Y21407181D01*
X6819276Y21421216D01*
X6794500Y21426144D01*
X6769724Y21421216D01*
X6756400Y21412312D01*
X6743076Y21421216D01*
X6718300Y21426144D01*
X6693524Y21421216D01*
X6680200Y21412312D01*
X6666876Y21421216D01*
X6642100Y21426144D01*
X6617324Y21421216D01*
X6596319Y21407181D01*
X6582284Y21386176D01*
X6579361Y21371483D01*
X6571883Y21369048D01*
X6565743Y21368115D01*
X6548333Y21379749D01*
X6526530Y21384085D01*
X6504727Y21379749D01*
X6488115Y21368648D01*
X6473403Y21378477D01*
X6451600Y21382816D01*
X6429797Y21378477D01*
X6422722Y21373750D01*
X6269379D01*
X6265478Y21393362D01*
X6253127Y21411847D01*
X6234643Y21424197D01*
X6212840Y21428535D01*
X6191037Y21424197D01*
X6172553Y21411847D01*
X6160202Y21393362D01*
X6156468Y21374593D01*
X6137697Y21370857D01*
X6119213Y21358507D01*
X6106862Y21340022D01*
X6102525Y21318221D01*
X6106862Y21296417D01*
X6119213Y21277933D01*
X6120425Y21265620D01*
X5970682Y21115878D01*
X5960296Y21100336D01*
X5956650Y21082001D01*
Y20708607D01*
X5943950Y20707356D01*
X5942898Y20712643D01*
X5930547Y20731126D01*
X5912063Y20743478D01*
X5890260Y20747815D01*
X5890131Y20747789D01*
X5887018Y20763443D01*
X5874667Y20781927D01*
X5856183Y20794278D01*
X5834380Y20798615D01*
X5812577Y20794278D01*
X5794093Y20781927D01*
X5781742Y20763443D01*
X5777405Y20741640D01*
X5781742Y20719836D01*
X5794093Y20701353D01*
X5812577Y20689001D01*
X5834380Y20684665D01*
X5834509Y20684691D01*
X5837622Y20669037D01*
X5849973Y20650552D01*
X5868457Y20638202D01*
X5890260Y20633865D01*
X5912063Y20638202D01*
X5930547Y20650552D01*
X5942898Y20669037D01*
X5943950Y20674324D01*
X5956650Y20673073D01*
Y20510971D01*
X5951220Y20506516D01*
X5929417Y20502177D01*
X5910933Y20489827D01*
X5898582Y20471342D01*
X5894245Y20449541D01*
X5898582Y20427737D01*
X5910933Y20409253D01*
X5929417Y20396902D01*
X5951220Y20392564D01*
X5956650Y20388109D01*
Y19674840D01*
X5960296Y19656505D01*
X5970682Y19640962D01*
X6055710Y19555936D01*
Y19542940D01*
X6043976Y19538078D01*
X6015578Y19566478D01*
X6000035Y19576865D01*
X5981700Y19580510D01*
X5829460D01*
X5781212Y19628758D01*
X5781488Y19631554D01*
X5793838Y19650037D01*
X5798175Y19671840D01*
X5793838Y19693643D01*
X5784712Y19707301D01*
X5787533Y19719688D01*
X5788660Y19719466D01*
X5810463Y19723802D01*
X5828947Y19736153D01*
X5841298Y19754637D01*
X5845635Y19776440D01*
X5841298Y19798244D01*
X5828947Y19816727D01*
X5810463Y19829079D01*
X5802478Y19830666D01*
X5800888Y19839818D01*
X5801301Y19843849D01*
X5818787Y19855533D01*
X5831138Y19874017D01*
X5835475Y19895821D01*
X5831138Y19917622D01*
X5818787Y19936107D01*
X5800303Y19948457D01*
X5778500Y19952795D01*
X5756697Y19948457D01*
X5738213Y19936107D01*
X5725862Y19917622D01*
X5724202Y19909277D01*
X5648102Y19833179D01*
X5637716Y19817635D01*
X5634070Y19799300D01*
Y19666692D01*
X5623160Y19655911D01*
X5614200Y19657695D01*
X5592397Y19653358D01*
X5581189Y19645869D01*
X5577583Y19648277D01*
X5555780Y19652615D01*
X5534437Y19648369D01*
X5532567Y19651167D01*
X5514083Y19663518D01*
X5492280Y19667854D01*
X5483645Y19666138D01*
X5481767Y19668947D01*
X5470378Y19676556D01*
Y19691832D01*
X5475887Y19695512D01*
X5488238Y19713997D01*
X5489151Y19718585D01*
X5509260Y19714584D01*
X5531063Y19718922D01*
X5549547Y19731273D01*
X5561898Y19749757D01*
X5566235Y19771561D01*
X5564264Y19781468D01*
X5794598Y20011803D01*
X5804984Y20027345D01*
X5808630Y20045680D01*
Y20147279D01*
X5804984Y20165614D01*
X5794598Y20181158D01*
X5450490Y20525266D01*
Y20550511D01*
X5458563Y20553252D01*
X5463190Y20553923D01*
X5481107Y20540175D01*
X5502424Y20531346D01*
X5525300Y20528334D01*
X5548176Y20531346D01*
X5569493Y20540175D01*
X5587799Y20554222D01*
X5601845Y20572527D01*
X5610675Y20593845D01*
X5613686Y20616721D01*
X5610675Y20639597D01*
X5601845Y20660913D01*
X5594230Y20670836D01*
X5596593Y20687691D01*
X5601147Y20690733D01*
X5613498Y20709216D01*
X5617835Y20731020D01*
X5613925Y20750677D01*
X5618394Y20758321D01*
X5622226Y20762621D01*
X5651500Y20759737D01*
X5690089Y20763538D01*
X5727196Y20774794D01*
X5761393Y20793073D01*
X5791367Y20817673D01*
X5815967Y20847647D01*
X5834246Y20881844D01*
X5845502Y20918951D01*
X5849303Y20957539D01*
X5845502Y20996129D01*
X5834246Y21033237D01*
X5815967Y21067433D01*
X5791367Y21097408D01*
X5761393Y21122008D01*
X5727196Y21140286D01*
X5708855Y21145850D01*
X5710739Y21158549D01*
X5732780D01*
X5751115Y21162196D01*
X5766658Y21172581D01*
X6129878Y21535802D01*
X6140264Y21551346D01*
X6143910Y21569679D01*
Y21629414D01*
X6147238Y21630792D01*
X6168462Y21647078D01*
X6184748Y21668301D01*
X6194985Y21693018D01*
X6198477Y21719540D01*
X6194985Y21746063D01*
X6184748Y21770778D01*
X6168462Y21792001D01*
X6147238Y21808289D01*
X6122523Y21818526D01*
X6096000Y21822017D01*
X6069477Y21818526D01*
X6044762Y21808289D01*
X6023538Y21792001D01*
X6007252Y21770778D01*
X5997015Y21746063D01*
X5993523Y21719540D01*
X5997015Y21693018D01*
X6007252Y21668301D01*
X6023538Y21647078D01*
X6044762Y21630792D01*
X6048090Y21629414D01*
Y21589525D01*
X5836913Y21378349D01*
X5823133Y21382529D01*
X5820978Y21393362D01*
X5808627Y21411847D01*
X5790143Y21424197D01*
X5768340Y21428535D01*
X5746537Y21424197D01*
X5728053Y21411847D01*
X5715702Y21393362D01*
X5711365Y21371561D01*
X5715702Y21349757D01*
X5728053Y21331273D01*
X5746537Y21318922D01*
X5757371Y21316766D01*
X5761551Y21302988D01*
X5712935Y21254370D01*
X5572760D01*
X5554425Y21250723D01*
X5538882Y21240338D01*
X5368702Y21070158D01*
X5358316Y21054614D01*
X5354670Y21036279D01*
Y20505420D01*
X5358316Y20487085D01*
X5368702Y20471542D01*
X5632263Y20207980D01*
X5631128Y20205681D01*
X5625378Y20196906D01*
X5604024Y20194093D01*
X5582707Y20185265D01*
X5564402Y20171217D01*
X5550355Y20152913D01*
X5541526Y20131596D01*
X5538514Y20108720D01*
X5541526Y20085844D01*
X5541728Y20085355D01*
X5531469Y20076935D01*
X5519163Y20085158D01*
X5509244Y20087131D01*
X5512086Y20108720D01*
X5509075Y20131596D01*
X5500245Y20152913D01*
X5486199Y20171217D01*
X5467893Y20185265D01*
X5446576Y20194093D01*
X5423700Y20197105D01*
X5400824Y20194093D01*
X5379507Y20185265D01*
X5361202Y20171217D01*
X5347155Y20152913D01*
X5338326Y20131596D01*
X5335314Y20108720D01*
X5338326Y20085844D01*
X5347155Y20064526D01*
X5361202Y20046222D01*
X5379507Y20032175D01*
X5382258Y20031036D01*
X5384320Y20016435D01*
X5305202Y19937318D01*
X5294816Y19921774D01*
X5291170Y19903439D01*
Y19801840D01*
X5294816Y19783505D01*
X5305202Y19767963D01*
X5330602Y19742561D01*
X5346145Y19732176D01*
X5359528Y19729515D01*
X5368077Y19723802D01*
X5381545Y19721123D01*
X5382962Y19713997D01*
X5395313Y19695512D01*
X5406702Y19687903D01*
Y19672627D01*
X5401193Y19668947D01*
X5388842Y19650462D01*
X5384505Y19628661D01*
X5388842Y19606857D01*
X5401193Y19588373D01*
X5419677Y19576022D01*
X5441480Y19571684D01*
X5450115Y19573402D01*
X5451993Y19570593D01*
X5470477Y19558241D01*
X5492280Y19553905D01*
X5513623Y19558151D01*
X5515493Y19555353D01*
X5533977Y19543002D01*
X5555780Y19538664D01*
X5577583Y19543002D01*
X5588791Y19550491D01*
X5592397Y19548082D01*
X5614200Y19543745D01*
X5636003Y19548082D01*
X5654487Y19560432D01*
X5666838Y19578917D01*
X5668620Y19587878D01*
X5682401Y19592059D01*
X5769564Y19504895D01*
X5764303Y19492195D01*
X5189933D01*
X5188184Y19491847D01*
X5170606Y19495345D01*
X5154221Y19506293D01*
X5143273Y19522676D01*
X5140719Y19535516D01*
X5140558Y19547675D01*
D01*
X5141958Y19559956D01*
X5402484Y21681773D01*
X5424152Y21688345D01*
X5455039Y21704855D01*
X5473700Y21720171D01*
X5486400Y21714163D01*
Y21617940D01*
X5479104Y21608263D01*
X5474053Y21604887D01*
X5461702Y21586403D01*
X5457365Y21564600D01*
X5461702Y21542796D01*
X5474053Y21524313D01*
X5492537Y21511961D01*
X5514340Y21507625D01*
X5536143Y21511961D01*
X5554627Y21524313D01*
X5566978Y21542796D01*
X5571315Y21564600D01*
X5566978Y21586403D01*
X5554627Y21604887D01*
X5554099Y21605240D01*
X5557952Y21617940D01*
X5689600D01*
Y21821140D01*
X5540718D01*
X5532189Y21830550D01*
X5534309Y21852081D01*
X5534575Y21853413D01*
Y22125407D01*
X7673425D01*
Y21853932D01*
D02*
G37*
G36*
X5582707Y20032175D02*
X5604024Y20023346D01*
X5626900Y20020334D01*
X5649776Y20023346D01*
X5654715Y20025391D01*
X5661909Y20014626D01*
X5475382Y19828098D01*
X5464996Y19812555D01*
X5463110Y19803075D01*
X5456622Y19793362D01*
X5455709Y19788774D01*
X5443935Y19791116D01*
X5442518Y19798244D01*
X5430167Y19816727D01*
X5422693Y19821721D01*
Y19836996D01*
X5427627Y19840292D01*
X5439978Y19858777D01*
X5444315Y19880580D01*
X5439978Y19902383D01*
X5427627Y19920866D01*
X5427326Y19923930D01*
X5442745Y19939349D01*
X5452100D01*
X5470435Y19942996D01*
X5485978Y19953381D01*
X5510818Y19978223D01*
X5519163Y19979881D01*
X5537647Y19992233D01*
X5549998Y20010716D01*
X5554335Y20032520D01*
X5552735Y20040564D01*
X5563901Y20045978D01*
X5564587Y20046080D01*
X5582707Y20032175D01*
D02*
G37*
G36*
X6490050Y19962335D02*
Y19662753D01*
X6477349Y19653020D01*
X6464300Y19655615D01*
X6448511Y19652473D01*
X6435811Y19660922D01*
Y19911259D01*
X6432164Y19929594D01*
X6421778Y19945139D01*
X6231986Y20134930D01*
X6232458Y20135637D01*
X6236795Y20157440D01*
X6232458Y20179243D01*
X6220107Y20197726D01*
X6201623Y20210078D01*
X6179820Y20214415D01*
X6158017Y20210078D01*
X6139533Y20197726D01*
X6127182Y20179243D01*
X6122845Y20157440D01*
X6127182Y20135637D01*
X6131910Y20128561D01*
Y20119341D01*
X6135556Y20101006D01*
X6145942Y20085461D01*
X6267225Y19964180D01*
X6262364Y19952448D01*
X6172200D01*
X6157334Y19949489D01*
X6144731Y19941069D01*
X6136311Y19928465D01*
X6133353Y19913600D01*
Y19630396D01*
X6121620Y19625536D01*
X6052470Y19694685D01*
Y20383321D01*
X6064204Y20388181D01*
X6490050Y19962335D01*
D02*
G37*
G36*
Y19534528D02*
Y19491486D01*
X6388131Y19389568D01*
X6373294Y19389404D01*
X6363447Y19399174D01*
Y19480321D01*
X6376147Y19490663D01*
X6387900Y19488326D01*
X6409703Y19492662D01*
X6428187Y19505013D01*
X6440538Y19523497D01*
X6442441Y19533064D01*
X6457284Y19543060D01*
X6464300Y19541666D01*
X6477349Y19544261D01*
X6490050Y19534528D01*
D02*
G37*
G36*
X6324600Y19906804D02*
Y19380200D01*
X6365590Y19339211D01*
Y18623567D01*
X6340590Y18610204D01*
X6334136Y18614516D01*
X6309360Y18619444D01*
X6284584Y18614516D01*
X6263579Y18600481D01*
X6249544Y18579475D01*
X6244616Y18554700D01*
X6249544Y18529924D01*
X6263579Y18508919D01*
X6284584Y18494884D01*
X6305117Y18490800D01*
X6302654Y18465800D01*
X6172200D01*
Y19913600D01*
X6317804D01*
X6324600Y19906804D01*
D02*
G37*
G36*
X6667513Y15267978D02*
X6669392Y15267603D01*
X6671836Y15266850D01*
X6674467Y15265910D01*
X6677287Y15264407D01*
X6680482Y15262338D01*
Y15247865D01*
X6680106Y15248242D01*
X6679166Y15248994D01*
X6677850Y15250122D01*
X6675971Y15251437D01*
X6673715Y15252565D01*
X6671272Y15253693D01*
X6668640Y15254445D01*
X6665821Y15254820D01*
X6665445D01*
X6664505Y15254633D01*
X6662814Y15254257D01*
X6660934Y15253505D01*
X6658867Y15252377D01*
X6656799Y15250497D01*
X6655859Y15249370D01*
X6654919Y15247865D01*
X6653980Y15246362D01*
X6653228Y15244482D01*
Y15244295D01*
X6653040Y15243919D01*
X6652852Y15243355D01*
X6652664Y15242603D01*
X6652288Y15241476D01*
X6652100Y15239972D01*
X6651724Y15238280D01*
X6651348Y15236401D01*
X6650972Y15234145D01*
X6650596Y15231702D01*
X6650408Y15228882D01*
X6650032Y15225874D01*
X6649844Y15222491D01*
X6649657Y15218733D01*
X6649469Y15214784D01*
Y15210461D01*
Y15210274D01*
Y15209523D01*
Y15208208D01*
Y15206703D01*
X6649657Y15204636D01*
Y15202568D01*
X6649844Y15200125D01*
X6650032Y15197493D01*
X6650408Y15191853D01*
X6651160Y15186217D01*
X6651536Y15183585D01*
X6652100Y15181142D01*
X6652664Y15178697D01*
X6653416Y15176630D01*
Y15176442D01*
X6653604Y15176254D01*
X6654168Y15174937D01*
X6655107Y15173434D01*
X6656611Y15171555D01*
X6658303Y15169487D01*
X6660558Y15167982D01*
X6663190Y15166669D01*
X6664693Y15166479D01*
X6666385Y15166292D01*
X6666761D01*
X6667513Y15166479D01*
X6668828Y15166669D01*
X6670708Y15167232D01*
X6672964Y15168359D01*
X6675595Y15169675D01*
X6678414Y15171742D01*
X6680106Y15172870D01*
X6681798Y15174374D01*
Y15158961D01*
X6681422Y15158772D01*
X6680294Y15158022D01*
X6678790Y15157082D01*
X6676535Y15155954D01*
X6673903Y15154639D01*
X6671084Y15153699D01*
X6667889Y15152946D01*
X6664505Y15152759D01*
X6663941D01*
X6663190Y15152946D01*
X6662062D01*
X6660934Y15153136D01*
X6659430Y15153510D01*
X6656235Y15154639D01*
X6654543Y15155389D01*
X6652664Y15156329D01*
X6650784Y15157458D01*
X6648905Y15158961D01*
X6647213Y15160654D01*
X6645333Y15162534D01*
X6643642Y15164787D01*
X6642138Y15167419D01*
Y15167607D01*
X6641762Y15168172D01*
X6641386Y15168922D01*
X6640822Y15170239D01*
X6640259Y15171742D01*
X6639695Y15173622D01*
X6638943Y15175690D01*
X6638191Y15178320D01*
X6637439Y15181142D01*
X6636687Y15184335D01*
X6636123Y15187720D01*
X6635559Y15191666D01*
X6634996Y15195801D01*
X6634620Y15200125D01*
X6634432Y15204823D01*
X6634244Y15209898D01*
Y15210274D01*
Y15211026D01*
Y15212531D01*
X6634432Y15214409D01*
Y15216666D01*
X6634620Y15219484D01*
X6634996Y15222304D01*
X6635184Y15225499D01*
X6636123Y15232454D01*
X6637627Y15239597D01*
X6639507Y15246552D01*
X6640822Y15249747D01*
X6642138Y15252753D01*
X6642326Y15252940D01*
X6642514Y15253505D01*
X6642890Y15254257D01*
X6643642Y15255197D01*
X6645333Y15257640D01*
X6647965Y15260648D01*
X6651160Y15263467D01*
X6655107Y15265910D01*
X6657363Y15266850D01*
X6659618Y15267603D01*
X6662250Y15268166D01*
X6664881Y15268353D01*
X6666197D01*
X6667513Y15267978D01*
D02*
G37*
G36*
X6321854Y15154262D02*
X6310201D01*
X6284826Y15224371D01*
X6284638D01*
Y15154262D01*
X6271481D01*
Y15266850D01*
X6282947D01*
X6308321Y15196928D01*
X6308697Y15197305D01*
Y15266850D01*
X6321854D01*
Y15154262D01*
D02*
G37*
G36*
X6251557D02*
X6239904D01*
X6214529Y15224371D01*
X6214341D01*
Y15154262D01*
X6201184D01*
Y15266850D01*
X6212649D01*
X6238024Y15196928D01*
X6238400Y15197305D01*
Y15266850D01*
X6251557D01*
Y15154262D01*
D02*
G37*
G36*
X6969001Y15266663D02*
X6970128D01*
X6971632Y15266473D01*
X6974827Y15265723D01*
X6978399Y15264783D01*
X6981970Y15263280D01*
X6985541Y15261024D01*
X6987233Y15259708D01*
X6988736Y15258205D01*
X6989112Y15257828D01*
X6989488Y15257265D01*
X6989864Y15256700D01*
X6991180Y15254820D01*
X6992683Y15252190D01*
X6993999Y15248994D01*
X6995315Y15245047D01*
X6996067Y15240724D01*
X6996443Y15235649D01*
Y15235461D01*
Y15234897D01*
Y15234145D01*
X6996255Y15233018D01*
X6996067Y15231702D01*
X6995879Y15230199D01*
X6994939Y15226627D01*
X6993623Y15222681D01*
X6992683Y15220612D01*
X6991368Y15218546D01*
X6990052Y15216666D01*
X6988548Y15214784D01*
X6986669Y15213094D01*
X6984601Y15211401D01*
X6984789D01*
X6984977Y15211026D01*
X6985541Y15210651D01*
X6986105Y15209898D01*
X6986857Y15209148D01*
X6987797Y15208018D01*
X6988736Y15206516D01*
X6989864Y15204823D01*
X6991180Y15202756D01*
X6992308Y15200313D01*
X6993623Y15197493D01*
X6994939Y15194298D01*
X6996255Y15190727D01*
X6997570Y15186778D01*
X6998886Y15182268D01*
X7000014Y15177380D01*
X7005277Y15154262D01*
X6990052D01*
X6985541Y15173622D01*
Y15173810D01*
X6985353Y15174562D01*
X6985165Y15175502D01*
X6984789Y15176817D01*
X6984413Y15178510D01*
X6983849Y15180389D01*
X6982910Y15184525D01*
X6981594Y15188847D01*
X6980278Y15193170D01*
X6979526Y15195050D01*
X6978774Y15196741D01*
X6978211Y15198433D01*
X6977459Y15199561D01*
X6977271Y15199750D01*
X6976895Y15200500D01*
X6976143Y15201253D01*
X6975203Y15202380D01*
X6973887Y15203320D01*
X6972384Y15204073D01*
X6970880Y15204636D01*
X6969001D01*
Y15154262D01*
X6954528D01*
Y15266850D01*
X6967873D01*
X6969001Y15266663D01*
D02*
G37*
G36*
X6933288Y15253317D02*
X6907726D01*
Y15219672D01*
X6931221D01*
Y15206139D01*
X6907726D01*
Y15167795D01*
X6934792D01*
Y15154262D01*
X6893253D01*
Y15266850D01*
X6933288D01*
Y15253317D01*
D02*
G37*
G36*
X6848518Y15266663D02*
X6849834D01*
X6851338Y15266473D01*
X6854721Y15265723D01*
X6858668Y15264783D01*
X6862803Y15263280D01*
X6866750Y15261212D01*
X6868630Y15259895D01*
X6870510Y15258392D01*
X6870697D01*
X6870885Y15258015D01*
X6872013Y15256888D01*
X6873517Y15255009D01*
X6875208Y15252377D01*
X6876900Y15249182D01*
X6878216Y15245235D01*
X6879344Y15240724D01*
X6879532Y15238280D01*
X6879720Y15235649D01*
Y15235461D01*
Y15235085D01*
Y15234145D01*
X6879532Y15233205D01*
Y15231889D01*
X6879344Y15230574D01*
X6878592Y15227191D01*
X6877652Y15223431D01*
X6876148Y15219484D01*
X6874081Y15215726D01*
X6872765Y15213846D01*
X6871261Y15212154D01*
X6870885Y15211778D01*
X6870322Y15211401D01*
X6869758Y15210838D01*
X6867878Y15209523D01*
X6865247Y15208018D01*
X6861863Y15206326D01*
X6857916Y15205011D01*
X6853405Y15204073D01*
X6850774Y15203883D01*
X6848142Y15203696D01*
X6845135D01*
Y15154262D01*
X6830662D01*
Y15266850D01*
X6847390D01*
X6848518Y15266663D01*
D02*
G37*
G36*
X6785364D02*
X6786679D01*
X6788183Y15266473D01*
X6791566Y15265723D01*
X6795513Y15264783D01*
X6799649Y15263280D01*
X6803596Y15261212D01*
X6805475Y15259895D01*
X6807355Y15258392D01*
X6807543D01*
X6807731Y15258015D01*
X6808859Y15256888D01*
X6810362Y15255009D01*
X6812054Y15252377D01*
X6813746Y15249182D01*
X6815061Y15245235D01*
X6816189Y15240724D01*
X6816377Y15238280D01*
X6816565Y15235649D01*
Y15235461D01*
Y15235085D01*
Y15234145D01*
X6816377Y15233205D01*
Y15231889D01*
X6816189Y15230574D01*
X6815437Y15227191D01*
X6814497Y15223431D01*
X6812994Y15219484D01*
X6810926Y15215726D01*
X6809610Y15213846D01*
X6808107Y15212154D01*
X6807731Y15211778D01*
X6807167Y15211401D01*
X6806603Y15210838D01*
X6804724Y15209523D01*
X6802092Y15208018D01*
X6798709Y15206326D01*
X6794762Y15205011D01*
X6790251Y15204073D01*
X6787619Y15203883D01*
X6784988Y15203696D01*
X6781980D01*
Y15154262D01*
X6767507D01*
Y15266850D01*
X6784236D01*
X6785364Y15266663D01*
D02*
G37*
G36*
X6559436Y15195425D02*
X6565638D01*
Y15185088D01*
X6559436D01*
Y15154262D01*
X6544963D01*
Y15185088D01*
X6515453D01*
Y15198058D01*
X6545903Y15267978D01*
X6559436D01*
Y15195425D01*
D02*
G37*
G36*
X6417526Y15266663D02*
X6418654D01*
X6420157Y15266473D01*
X6423353Y15265723D01*
X6426924Y15264783D01*
X6430495Y15263280D01*
X6434066Y15261024D01*
X6435758Y15259708D01*
X6437262Y15258205D01*
X6437638Y15257828D01*
X6438014Y15257265D01*
X6438389Y15256700D01*
X6439705Y15254820D01*
X6441209Y15252190D01*
X6442525Y15248994D01*
X6443840Y15245047D01*
X6444592Y15240724D01*
X6444968Y15235649D01*
Y15235461D01*
Y15234897D01*
Y15234145D01*
X6444780Y15233018D01*
X6444592Y15231702D01*
X6444404Y15230199D01*
X6443464Y15226627D01*
X6442149Y15222681D01*
X6441209Y15220612D01*
X6439893Y15218546D01*
X6438577Y15216666D01*
X6437074Y15214784D01*
X6435194Y15213094D01*
X6433127Y15211401D01*
X6433315D01*
X6433503Y15211026D01*
X6434066Y15210651D01*
X6434630Y15209898D01*
X6435382Y15209148D01*
X6436322Y15208018D01*
X6437262Y15206516D01*
X6438389Y15204823D01*
X6439705Y15202756D01*
X6440833Y15200313D01*
X6442149Y15197493D01*
X6443464Y15194298D01*
X6444780Y15190727D01*
X6446096Y15186778D01*
X6447412Y15182268D01*
X6448539Y15177380D01*
X6453802Y15154262D01*
X6438577D01*
X6434066Y15173622D01*
Y15173810D01*
X6433878Y15174562D01*
X6433690Y15175502D01*
X6433315Y15176817D01*
X6432939Y15178510D01*
X6432375Y15180389D01*
X6431435Y15184525D01*
X6430119Y15188847D01*
X6428803Y15193170D01*
X6428052Y15195050D01*
X6427300Y15196741D01*
X6426736Y15198433D01*
X6425984Y15199561D01*
X6425796Y15199750D01*
X6425420Y15200500D01*
X6424668Y15201253D01*
X6423729Y15202380D01*
X6422413Y15203320D01*
X6420909Y15204073D01*
X6419405Y15204636D01*
X6417526D01*
Y15154262D01*
X6403053D01*
Y15266850D01*
X6416398D01*
X6417526Y15266663D01*
D02*
G37*
G36*
X6381813Y15253317D02*
X6356251D01*
Y15219672D01*
X6379746D01*
Y15206139D01*
X6356251D01*
Y15167795D01*
X6383317D01*
Y15154262D01*
X6341778D01*
Y15266850D01*
X6381813D01*
Y15253317D01*
D02*
G37*
G36*
X6181636Y15154262D02*
X6167163D01*
Y15266850D01*
X6181636D01*
Y15154262D01*
D02*
G37*
G36*
X6722397Y15268166D02*
X6723337D01*
X6724465Y15267790D01*
X6725780Y15267413D01*
X6727284Y15267038D01*
X6728976Y15266286D01*
X6730667Y15265535D01*
X6732547Y15264407D01*
X6734238Y15263091D01*
X6736118Y15261588D01*
X6737998Y15259708D01*
X6739689Y15257452D01*
X6741381Y15255009D01*
X6743073Y15252190D01*
X6743261Y15252002D01*
X6743449Y15251437D01*
X6743824Y15250497D01*
X6744388Y15249182D01*
X6744952Y15247678D01*
X6745704Y15245799D01*
X6746456Y15243542D01*
X6747208Y15240912D01*
X6747960Y15238092D01*
X6748711Y15234897D01*
X6749463Y15231514D01*
X6750027Y15227756D01*
X6750591Y15223808D01*
X6750967Y15219672D01*
X6751343Y15215161D01*
Y15210461D01*
Y15210086D01*
Y15209335D01*
Y15207831D01*
X6751155Y15205951D01*
Y15203696D01*
X6750967Y15201064D01*
X6750591Y15198058D01*
X6750215Y15194862D01*
X6749275Y15188095D01*
X6747772Y15181142D01*
X6745516Y15174187D01*
X6744200Y15170992D01*
X6742697Y15167982D01*
X6742509Y15167795D01*
X6742321Y15167419D01*
X6741757Y15166669D01*
X6741193Y15165540D01*
X6739313Y15163097D01*
X6736682Y15160464D01*
X6733675Y15157646D01*
X6729915Y15155202D01*
X6727848Y15154262D01*
X6725780Y15153510D01*
X6723525Y15152946D01*
X6721081Y15152759D01*
X6720517D01*
X6719766Y15152946D01*
X6718826D01*
X6717698Y15153322D01*
X6716382Y15153510D01*
X6713375Y15154639D01*
X6711683Y15155579D01*
X6709992Y15156519D01*
X6708112Y15157834D01*
X6706232Y15159337D01*
X6704353Y15161029D01*
X6702661Y15163097D01*
X6700970Y15165540D01*
X6699278Y15168172D01*
Y15168359D01*
X6698902Y15168922D01*
X6698526Y15169862D01*
X6697962Y15170992D01*
X6697398Y15172495D01*
X6696646Y15174562D01*
X6695895Y15176630D01*
X6695143Y15179260D01*
X6694391Y15182080D01*
X6693639Y15185275D01*
X6692887Y15188660D01*
X6692323Y15192606D01*
X6691760Y15196553D01*
X6691384Y15200876D01*
X6691196Y15205576D01*
X6691008Y15210461D01*
Y15210838D01*
Y15211591D01*
Y15212906D01*
X6691196Y15214597D01*
Y15216853D01*
X6691384Y15219296D01*
X6691760Y15222116D01*
X6691948Y15225124D01*
X6692511Y15228319D01*
X6692887Y15231702D01*
X6694391Y15238657D01*
X6696271Y15245612D01*
X6697586Y15248807D01*
X6698902Y15252002D01*
X6699090Y15252190D01*
X6699278Y15252753D01*
X6699654Y15253505D01*
X6700406Y15254633D01*
X6701158Y15255762D01*
X6702097Y15257265D01*
X6704729Y15260272D01*
X6707736Y15263280D01*
X6709616Y15264595D01*
X6711683Y15265723D01*
X6713751Y15266850D01*
X6716006Y15267603D01*
X6718450Y15268166D01*
X6721081Y15268353D01*
X6721645D01*
X6722397Y15268166D01*
D02*
G37*
%LPC*%
G36*
X7366000Y21809207D02*
X7342793Y21806152D01*
X7323359Y21798102D01*
X7366000Y21755461D01*
X7408641Y21798102D01*
X7389207Y21806152D01*
X7366000Y21809207D01*
D02*
G37*
G36*
X5842000D02*
X5818793Y21806152D01*
X5799359Y21798102D01*
X5842000Y21755461D01*
X5884641Y21798102D01*
X5865207Y21806152D01*
X5842000Y21809207D01*
D02*
G37*
G36*
X7444562Y21762181D02*
X7401921Y21719540D01*
X7444562Y21676900D01*
X7452612Y21696333D01*
X7455667Y21719540D01*
X7452612Y21742747D01*
X7444562Y21762181D01*
D02*
G37*
G36*
X5920562D02*
X5877921Y21719540D01*
X5920562Y21676900D01*
X5928612Y21696333D01*
X5931667Y21719540D01*
X5928612Y21742747D01*
X5920562Y21762181D01*
D02*
G37*
G36*
X7287438D02*
X7279388Y21742747D01*
X7276333Y21719540D01*
X7279388Y21696333D01*
X7287438Y21676900D01*
X7330079Y21719540D01*
X7287438Y21762181D01*
D02*
G37*
G36*
X5763438D02*
X5755388Y21742747D01*
X5752333Y21719540D01*
X5755388Y21696333D01*
X5763438Y21676900D01*
X5806079Y21719540D01*
X5763438Y21762181D01*
D02*
G37*
G36*
X7112000Y21822017D02*
X7085477Y21818526D01*
X7060762Y21808289D01*
X7039538Y21792001D01*
X7023252Y21770778D01*
X7013015Y21746063D01*
X7009523Y21719540D01*
X7013015Y21693018D01*
X7015252Y21687617D01*
X6985000Y21657365D01*
X6954748Y21687617D01*
X6956985Y21693018D01*
X6960477Y21719540D01*
X6956985Y21746063D01*
X6946748Y21770778D01*
X6930462Y21792001D01*
X6909238Y21808289D01*
X6884523Y21818526D01*
X6858000Y21822017D01*
X6831477Y21818526D01*
X6806762Y21808289D01*
X6785538Y21792001D01*
X6769252Y21770778D01*
X6759015Y21746063D01*
X6755523Y21719540D01*
X6759015Y21693018D01*
X6769252Y21668301D01*
X6785538Y21647078D01*
X6806762Y21630792D01*
X6831477Y21620555D01*
X6858000Y21617062D01*
X6884523Y21620555D01*
X6889922Y21622792D01*
X6923667Y21589047D01*
Y21400702D01*
X6927156Y21383160D01*
X6937093Y21368289D01*
X7190367Y21115015D01*
Y20788562D01*
X7193856Y20771021D01*
X7203793Y20756149D01*
X7520567Y20439375D01*
Y20041553D01*
X7501227Y20022214D01*
X7491290Y20007343D01*
X7487801Y19989799D01*
Y19960527D01*
X7480659Y19953384D01*
X7468657Y19950998D01*
X7450173Y19938647D01*
X7437822Y19920163D01*
X7433485Y19898360D01*
X7437822Y19876556D01*
X7450173Y19858073D01*
X7468657Y19845721D01*
X7490460Y19841385D01*
X7512263Y19845721D01*
X7530747Y19858073D01*
X7543098Y19876556D01*
X7545485Y19888559D01*
X7566053Y19909126D01*
X7569607Y19914445D01*
X7579360Y19912505D01*
X7589867Y19914595D01*
X7590127Y19914207D01*
X7613235Y19891100D01*
X7615622Y19879097D01*
X7627973Y19860612D01*
X7646457Y19848262D01*
X7668260Y19843925D01*
X7690063Y19848262D01*
X7708547Y19860612D01*
X7720898Y19879097D01*
X7725235Y19900900D01*
X7720898Y19922704D01*
X7708547Y19941187D01*
X7690063Y19953539D01*
X7678061Y19955925D01*
X7668379Y19965607D01*
Y19997420D01*
X7664890Y20014961D01*
X7654953Y20029832D01*
X7643233Y20041553D01*
Y20471198D01*
X7639744Y20488741D01*
X7629807Y20503612D01*
X7313033Y20820386D01*
Y21146838D01*
X7309544Y21164380D01*
X7299607Y21179251D01*
X7046333Y21432526D01*
Y21589047D01*
X7080078Y21622792D01*
X7085477Y21620555D01*
X7112000Y21617062D01*
X7138523Y21620555D01*
X7163238Y21630792D01*
X7184462Y21647078D01*
X7200748Y21668301D01*
X7210985Y21693018D01*
X7214477Y21719540D01*
X7210985Y21746063D01*
X7200748Y21770778D01*
X7184462Y21792001D01*
X7163238Y21808289D01*
X7138523Y21818526D01*
X7112000Y21822017D01*
D02*
G37*
G36*
X7366000Y21683620D02*
X7323359Y21640977D01*
X7342793Y21632928D01*
X7366000Y21629874D01*
X7389207Y21632928D01*
X7408641Y21640977D01*
X7366000Y21683620D01*
D02*
G37*
G36*
X5842000D02*
X5799359Y21640977D01*
X5818793Y21632928D01*
X5842000Y21629874D01*
X5865207Y21632928D01*
X5884641Y21640977D01*
X5842000Y21683620D01*
D02*
G37*
G36*
X6604000Y21822017D02*
X6577477Y21818526D01*
X6552762Y21808289D01*
X6531538Y21792001D01*
X6515252Y21770778D01*
X6505015Y21746063D01*
X6501523Y21719540D01*
X6505015Y21693018D01*
X6515252Y21668301D01*
X6531538Y21647078D01*
X6552762Y21630792D01*
X6577477Y21620555D01*
X6604000Y21617062D01*
X6630523Y21620555D01*
X6655238Y21630792D01*
X6676462Y21647078D01*
X6692748Y21668301D01*
X6702985Y21693018D01*
X6706477Y21719540D01*
X6702985Y21746063D01*
X6692748Y21770778D01*
X6676462Y21792001D01*
X6655238Y21808289D01*
X6630523Y21818526D01*
X6604000Y21822017D01*
D02*
G37*
G36*
X6350000D02*
X6323477Y21818526D01*
X6298762Y21808289D01*
X6277538Y21792001D01*
X6261252Y21770778D01*
X6251015Y21746063D01*
X6247523Y21719540D01*
X6251015Y21693018D01*
X6261252Y21668301D01*
X6277538Y21647078D01*
X6298762Y21630792D01*
X6323477Y21620555D01*
X6350000Y21617062D01*
X6376523Y21620555D01*
X6401238Y21630792D01*
X6422462Y21647078D01*
X6438748Y21668301D01*
X6448985Y21693018D01*
X6452477Y21719540D01*
X6448985Y21746063D01*
X6438748Y21770778D01*
X6422462Y21792001D01*
X6401238Y21808289D01*
X6376523Y21818526D01*
X6350000Y21822017D01*
D02*
G37*
G36*
X7670800Y21426144D02*
X7646024Y21421216D01*
X7632700Y21412312D01*
X7619376Y21421216D01*
X7594600Y21426144D01*
X7569824Y21421216D01*
X7556500Y21412312D01*
X7543176Y21421216D01*
X7518400Y21426144D01*
X7493624Y21421216D01*
X7480300Y21412312D01*
X7466976Y21421216D01*
X7442200Y21426144D01*
X7417424Y21421216D01*
X7404100Y21412312D01*
X7390776Y21421216D01*
X7366000Y21426144D01*
X7341224Y21421216D01*
X7320219Y21407181D01*
X7306184Y21386176D01*
X7301256Y21361400D01*
X7306184Y21336624D01*
X7320219Y21315619D01*
X7341224Y21301584D01*
X7366000Y21296655D01*
X7390776Y21301584D01*
X7404100Y21310487D01*
X7417424Y21301584D01*
X7442200Y21296655D01*
X7466976Y21301584D01*
X7480300Y21310487D01*
X7493624Y21301584D01*
X7518400Y21296655D01*
X7543176Y21301584D01*
X7556500Y21310487D01*
X7569824Y21301584D01*
X7594600Y21296655D01*
X7619376Y21301584D01*
X7632700Y21310487D01*
X7646024Y21301584D01*
X7670800Y21296655D01*
X7695576Y21301584D01*
X7716581Y21315619D01*
X7730616Y21336624D01*
X7735544Y21361400D01*
X7730616Y21386176D01*
X7716581Y21407181D01*
X7695576Y21421216D01*
X7670800Y21426144D01*
D02*
G37*
G36*
X5638800Y21553143D02*
X5614024Y21548216D01*
X5593019Y21534181D01*
X5578984Y21513176D01*
X5574056Y21488400D01*
X5578984Y21463625D01*
X5587887Y21450301D01*
X5578984Y21436977D01*
X5574056Y21412199D01*
X5578984Y21387424D01*
X5593019Y21366418D01*
X5614024Y21352383D01*
X5638800Y21347456D01*
X5663576Y21352383D01*
X5684581Y21366418D01*
X5698616Y21387424D01*
X5703544Y21412199D01*
X5698616Y21436977D01*
X5689713Y21450301D01*
X5698616Y21463625D01*
X5703544Y21488400D01*
X5698616Y21513176D01*
X5684581Y21534181D01*
X5663576Y21548216D01*
X5638800Y21553143D01*
D02*
G37*
G36*
X6017260Y21367575D02*
X5995457Y21363239D01*
X5976973Y21350887D01*
X5964622Y21332404D01*
X5960285Y21310600D01*
X5964622Y21288797D01*
X5976973Y21270312D01*
X5995457Y21257962D01*
X6017260Y21253625D01*
X6039063Y21257962D01*
X6057547Y21270312D01*
X6069898Y21288797D01*
X6074235Y21310600D01*
X6069898Y21332404D01*
X6057547Y21350887D01*
X6039063Y21363239D01*
X6017260Y21367575D01*
D02*
G37*
G36*
X7556500Y21155344D02*
X7517911Y21151543D01*
X7480804Y21140286D01*
X7446607Y21122008D01*
X7416633Y21097408D01*
X7392033Y21067433D01*
X7373754Y21033237D01*
X7362498Y20996129D01*
X7358697Y20957539D01*
X7362498Y20918951D01*
X7373754Y20881844D01*
X7392033Y20847647D01*
X7416633Y20817673D01*
X7446607Y20793073D01*
X7480804Y20774794D01*
X7517911Y20763538D01*
X7556500Y20759737D01*
X7595089Y20763538D01*
X7632196Y20774794D01*
X7666393Y20793073D01*
X7696367Y20817673D01*
X7720967Y20847647D01*
X7739246Y20881844D01*
X7750502Y20918951D01*
X7754303Y20957539D01*
X7750502Y20996129D01*
X7739246Y21033237D01*
X7720967Y21067433D01*
X7696367Y21097408D01*
X7666393Y21122008D01*
X7632196Y21140286D01*
X7595089Y21151543D01*
X7556500Y21155344D01*
D02*
G37*
G36*
X5789460Y20600156D02*
X5767657Y20595818D01*
X5749173Y20583467D01*
X5736822Y20564983D01*
X5732485Y20543179D01*
X5736822Y20521378D01*
X5749173Y20502893D01*
X5767657Y20490543D01*
X5789460Y20486205D01*
X5811263Y20490543D01*
X5829747Y20502893D01*
X5842098Y20521378D01*
X5846435Y20543179D01*
X5842098Y20564983D01*
X5829747Y20583467D01*
X5811263Y20595818D01*
X5789460Y20600156D01*
D02*
G37*
G36*
X7137400Y20516875D02*
X7115597Y20512538D01*
X7097113Y20500188D01*
X7084762Y20481703D01*
X7080425Y20459900D01*
X7084762Y20438097D01*
X7097113Y20419614D01*
X7105393Y20414079D01*
Y20401379D01*
X7097113Y20395847D01*
X7084762Y20377364D01*
X7080425Y20355560D01*
X7084762Y20333757D01*
X7097113Y20315273D01*
X7115597Y20302922D01*
X7137400Y20298586D01*
X7159203Y20302922D01*
X7177687Y20315273D01*
X7190038Y20333757D01*
X7194375Y20355560D01*
X7190038Y20377364D01*
X7177687Y20395847D01*
X7169407Y20401379D01*
Y20414079D01*
X7177687Y20419614D01*
X7190038Y20438097D01*
X7194375Y20459900D01*
X7190038Y20481703D01*
X7177687Y20500188D01*
X7159203Y20512538D01*
X7137400Y20516875D01*
D02*
G37*
G36*
X6662420Y20399835D02*
X6640617Y20395499D01*
X6622133Y20383147D01*
X6609782Y20364664D01*
X6605445Y20342860D01*
X6609782Y20321057D01*
X6622133Y20302573D01*
X6640617Y20290222D01*
X6662420Y20285886D01*
X6684223Y20290222D01*
X6702707Y20302573D01*
X6715058Y20321057D01*
X6719395Y20342860D01*
X6715058Y20364664D01*
X6702707Y20383147D01*
X6684223Y20395499D01*
X6662420Y20399835D01*
D02*
G37*
G36*
X6835400Y20349036D02*
X6813597Y20344698D01*
X6795113Y20332347D01*
X6782762Y20313863D01*
X6778425Y20292059D01*
X6782762Y20270258D01*
X6795113Y20251773D01*
X6813597Y20239423D01*
X6835400Y20235085D01*
X6857203Y20239423D01*
X6875687Y20251773D01*
X6888038Y20270258D01*
X6892375Y20292059D01*
X6888038Y20313863D01*
X6875687Y20332347D01*
X6857203Y20344698D01*
X6835400Y20349036D01*
D02*
G37*
G36*
X6934200Y20206944D02*
X6909424Y20202016D01*
X6888419Y20187981D01*
X6874384Y20166975D01*
X6869456Y20142200D01*
X6874384Y20117424D01*
X6888419Y20096419D01*
X6909424Y20082384D01*
X6934200Y20077457D01*
X6958976Y20082384D01*
X6979981Y20096419D01*
X6994016Y20117424D01*
X6998944Y20142200D01*
X6994016Y20166975D01*
X6979981Y20187981D01*
X6958976Y20202016D01*
X6934200Y20206944D01*
D02*
G37*
G36*
X7792720Y20008675D02*
X7770917Y20004338D01*
X7752433Y19991988D01*
X7740082Y19973503D01*
X7735745Y19951700D01*
X7740082Y19929897D01*
X7752433Y19911414D01*
X7770917Y19899062D01*
X7792720Y19894725D01*
X7814523Y19899062D01*
X7833007Y19911414D01*
X7845358Y19929897D01*
X7849695Y19951700D01*
X7845358Y19973503D01*
X7833007Y19991988D01*
X7814523Y20004338D01*
X7792720Y20008675D01*
D02*
G37*
G36*
X6972300Y19919576D02*
X6950497Y19915237D01*
X6932013Y19902887D01*
X6919662Y19884402D01*
X6915325Y19862601D01*
X6919662Y19840797D01*
X6932013Y19822313D01*
X6937944Y19818350D01*
Y19805650D01*
X6932013Y19801688D01*
X6919662Y19783203D01*
X6915325Y19761400D01*
X6919662Y19739597D01*
X6932013Y19721114D01*
X6938392Y19716850D01*
Y19704150D01*
X6932013Y19699887D01*
X6919662Y19681403D01*
X6915325Y19659599D01*
X6919662Y19637798D01*
X6932013Y19619313D01*
X6950497Y19606963D01*
X6972300Y19602625D01*
X6994103Y19606963D01*
X7012587Y19619313D01*
X7024938Y19637798D01*
X7029275Y19659599D01*
X7024938Y19681403D01*
X7012587Y19699887D01*
X7006208Y19704150D01*
Y19716850D01*
X7012587Y19721114D01*
X7024938Y19739597D01*
X7029275Y19761400D01*
X7024938Y19783203D01*
X7012587Y19801688D01*
X7006656Y19805650D01*
Y19818350D01*
X7012587Y19822313D01*
X7024938Y19840797D01*
X7029275Y19862601D01*
X7024938Y19884402D01*
X7012587Y19902887D01*
X6994103Y19915237D01*
X6972300Y19919576D01*
D02*
G37*
G36*
X6842100Y19728975D02*
X6820297Y19724638D01*
X6801813Y19712286D01*
X6789462Y19693803D01*
X6785125Y19672000D01*
X6786091Y19667146D01*
X6770157Y19663979D01*
X6751673Y19651627D01*
X6739322Y19633144D01*
X6734985Y19611340D01*
X6739322Y19589537D01*
X6751673Y19571053D01*
X6770157Y19558702D01*
X6791960Y19554366D01*
X6813763Y19558702D01*
X6832247Y19571053D01*
X6844598Y19589537D01*
X6848935Y19611340D01*
X6847970Y19616193D01*
X6863903Y19619362D01*
X6882387Y19631712D01*
X6894738Y19650197D01*
X6899075Y19672000D01*
X6894738Y19693803D01*
X6882387Y19712286D01*
X6863903Y19724638D01*
X6842100Y19728975D01*
D02*
G37*
G36*
X6781800Y19389975D02*
X6759997Y19385638D01*
X6749300Y19378490D01*
X6738603Y19385638D01*
X6716800Y19389975D01*
X6694997Y19385638D01*
X6676513Y19373286D01*
X6664162Y19354803D01*
X6659825Y19333000D01*
X6664162Y19311197D01*
X6676513Y19292712D01*
X6694997Y19280362D01*
X6716800Y19276025D01*
X6738603Y19280362D01*
X6749300Y19287511D01*
X6759997Y19280362D01*
X6781800Y19276025D01*
X6803603Y19280362D01*
X6822087Y19292712D01*
X6834438Y19311197D01*
X6838775Y19333000D01*
X6834438Y19354803D01*
X6822087Y19373286D01*
X6803603Y19385638D01*
X6781800Y19389975D01*
D02*
G37*
G36*
X6733800Y19132375D02*
X6711997Y19128038D01*
X6693513Y19115688D01*
X6681162Y19097203D01*
X6676825Y19075400D01*
X6681162Y19053596D01*
X6693513Y19035114D01*
X6711997Y19022762D01*
X6733800Y19018425D01*
X6755603Y19022762D01*
X6774087Y19035114D01*
X6786438Y19053596D01*
X6790775Y19075400D01*
X6786438Y19097203D01*
X6774087Y19115688D01*
X6755603Y19128038D01*
X6733800Y19132375D01*
D02*
G37*
G36*
X7020560Y18878375D02*
X6998757Y18874039D01*
X6980273Y18861687D01*
X6967922Y18843204D01*
X6963585Y18821400D01*
X6967922Y18799597D01*
X6980273Y18781113D01*
X6998757Y18768762D01*
X7020560Y18764426D01*
X7042363Y18768762D01*
X7060847Y18781113D01*
X7073198Y18799597D01*
X7077535Y18821400D01*
X7073198Y18843204D01*
X7060847Y18861687D01*
X7042363Y18874039D01*
X7020560Y18878375D01*
D02*
G37*
G36*
X7048322Y18323021D02*
X7005681Y18280380D01*
X7048322Y18237740D01*
X7056372Y18257173D01*
X7059427Y18280380D01*
X7056372Y18303587D01*
X7048322Y18323021D01*
D02*
G37*
G36*
X6969001Y15253317D02*
Y15218169D01*
X6970128D01*
X6970692Y15218356D01*
X6971444D01*
X6973512Y15219109D01*
X6974639Y15219672D01*
X6975767Y15220236D01*
X6976895Y15221176D01*
X6978023Y15222304D01*
X6979150Y15223621D01*
X6980090Y15225311D01*
X6980842Y15227191D01*
X6981406Y15229446D01*
X6981782Y15232079D01*
X6981970Y15235085D01*
Y15235274D01*
Y15235837D01*
Y15236777D01*
X6981782Y15237904D01*
X6981594Y15239220D01*
X6981218Y15240724D01*
X6980278Y15244107D01*
X6979714Y15245799D01*
X6978774Y15247490D01*
X6977835Y15248994D01*
X6976519Y15250310D01*
X6975015Y15251627D01*
X6973324Y15252565D01*
X6971256Y15253130D01*
X6969001Y15253317D01*
D02*
G37*
G36*
X6845135D02*
Y15217229D01*
X6848330D01*
X6849270Y15217416D01*
X6850398Y15217606D01*
X6851713Y15217793D01*
X6853217Y15218169D01*
X6854721Y15218921D01*
X6856413Y15219672D01*
X6858104Y15220612D01*
X6859608Y15221928D01*
X6861111Y15223431D01*
X6862427Y15225311D01*
X6863555Y15227567D01*
X6864495Y15230009D01*
X6865059Y15233018D01*
X6865247Y15236401D01*
Y15236589D01*
Y15237154D01*
X6865059Y15238092D01*
X6864871Y15239032D01*
X6864683Y15240347D01*
X6864119Y15241852D01*
X6863555Y15243355D01*
X6862803Y15245047D01*
X6861675Y15246552D01*
X6860360Y15248055D01*
X6858668Y15249557D01*
X6856788Y15250874D01*
X6854533Y15251814D01*
X6851713Y15252753D01*
X6848706Y15253130D01*
X6845135Y15253317D01*
D02*
G37*
G36*
X6781980D02*
Y15217229D01*
X6785176D01*
X6786115Y15217416D01*
X6787243Y15217606D01*
X6788559Y15217793D01*
X6790063Y15218169D01*
X6791566Y15218921D01*
X6793258Y15219672D01*
X6794950Y15220612D01*
X6796453Y15221928D01*
X6797957Y15223431D01*
X6799273Y15225311D01*
X6800400Y15227567D01*
X6801340Y15230009D01*
X6801904Y15233018D01*
X6802092Y15236401D01*
Y15236589D01*
Y15237154D01*
X6801904Y15238092D01*
X6801716Y15239032D01*
X6801528Y15240347D01*
X6800964Y15241852D01*
X6800400Y15243355D01*
X6799649Y15245047D01*
X6798521Y15246552D01*
X6797205Y15248055D01*
X6795513Y15249557D01*
X6793634Y15250874D01*
X6791378Y15251814D01*
X6788559Y15252753D01*
X6785552Y15253130D01*
X6781980Y15253317D01*
D02*
G37*
G36*
X6544963Y15240347D02*
X6544587D01*
X6525415Y15195425D01*
X6544963D01*
Y15240347D01*
D02*
G37*
G36*
X6417526Y15253317D02*
Y15218169D01*
X6418654D01*
X6419218Y15218356D01*
X6419969D01*
X6422037Y15219109D01*
X6423165Y15219672D01*
X6424292Y15220236D01*
X6425420Y15221176D01*
X6426548Y15222304D01*
X6427676Y15223621D01*
X6428616Y15225311D01*
X6429367Y15227191D01*
X6429931Y15229446D01*
X6430307Y15232079D01*
X6430495Y15235085D01*
Y15235274D01*
Y15235837D01*
Y15236777D01*
X6430307Y15237904D01*
X6430119Y15239220D01*
X6429743Y15240724D01*
X6428803Y15244107D01*
X6428240Y15245799D01*
X6427300Y15247490D01*
X6426360Y15248994D01*
X6425044Y15250310D01*
X6423541Y15251627D01*
X6421849Y15252565D01*
X6419781Y15253130D01*
X6417526Y15253317D01*
D02*
G37*
G36*
X6720893Y15254820D02*
X6720517D01*
X6719766Y15254633D01*
X6718450Y15254257D01*
X6716946Y15253317D01*
X6715067Y15252002D01*
X6714127Y15251062D01*
X6713375Y15249747D01*
X6712435Y15248430D01*
X6711495Y15246927D01*
X6710743Y15245047D01*
X6709992Y15242979D01*
Y15242792D01*
X6709804Y15242416D01*
X6709616Y15241664D01*
X6709428Y15240724D01*
X6709052Y15239597D01*
X6708864Y15238092D01*
X6708488Y15236401D01*
X6708112Y15234521D01*
X6707736Y15232266D01*
X6707360Y15229822D01*
X6707172Y15227191D01*
X6706796Y15224184D01*
X6706608Y15221176D01*
X6706420Y15217793D01*
X6706232Y15214223D01*
Y15210461D01*
Y15210274D01*
Y15209523D01*
Y15208395D01*
Y15206891D01*
X6706420Y15205199D01*
Y15203133D01*
X6706608Y15200876D01*
X6706796Y15198245D01*
X6707172Y15192982D01*
X6707736Y15187531D01*
X6708676Y15182268D01*
X6709428Y15179825D01*
X6709992Y15177570D01*
Y15177380D01*
X6710180Y15177005D01*
X6710368Y15176442D01*
X6710743Y15175877D01*
X6711683Y15173997D01*
X6712811Y15171931D01*
X6714503Y15169862D01*
X6716382Y15167982D01*
X6717510Y15167419D01*
X6718638Y15166856D01*
X6719954Y15166479D01*
X6721269Y15166292D01*
X6721645D01*
X6722397Y15166479D01*
X6723713Y15166856D01*
X6725216Y15167795D01*
X6726908Y15169112D01*
X6727848Y15170052D01*
X6728600Y15171179D01*
X6729539Y15172495D01*
X6730479Y15174187D01*
X6731231Y15175877D01*
X6731983Y15177945D01*
Y15178133D01*
X6732171Y15178510D01*
X6732359Y15179073D01*
X6732547Y15180013D01*
X6732923Y15181329D01*
X6733299Y15182832D01*
X6733675Y15184525D01*
X6734051Y15186403D01*
X6734426Y15188660D01*
X6734802Y15191103D01*
X6735178Y15193735D01*
X6735554Y15196553D01*
X6735742Y15199750D01*
X6735930Y15203133D01*
X6736118Y15206703D01*
Y15210461D01*
Y15210651D01*
Y15211401D01*
Y15212531D01*
Y15214034D01*
X6735930Y15215726D01*
Y15217793D01*
X6735742Y15220049D01*
X6735554Y15222491D01*
X6735178Y15227756D01*
X6734426Y15233205D01*
X6733299Y15238467D01*
X6732735Y15240912D01*
X6731983Y15243167D01*
Y15243355D01*
X6731795Y15243732D01*
X6731607Y15244295D01*
X6731231Y15245047D01*
X6730291Y15246927D01*
X6729164Y15248994D01*
X6727472Y15251062D01*
X6725592Y15252940D01*
X6724653Y15253693D01*
X6723337Y15254257D01*
X6722209Y15254633D01*
X6720893Y15254820D01*
D02*
G37*
%LPD*%
D49*
X6475802Y17850845D02*
G03*
X6491086Y17956264I-156282J76475D01*
G01*
X6475802Y18047897D02*
G03*
X6475810Y18047852I17545J2880D01*
G01*
X6413500Y18304750D02*
G03*
X6398259Y18227040I190503J-77710D01*
G01*
X6398260D02*
G03*
X6413500Y18149332I205740J0D01*
G01*
X6405880Y17767300D02*
X6470594Y17832014D01*
X6475802Y17837222D01*
Y17850845D01*
X6470594Y18053107D02*
X6475802Y18047897D01*
X6443980Y18079720D02*
X6470594Y18053107D01*
X6475809Y18047852D02*
X6491086Y17956264D01*
X6413500Y19347180D02*
X6537960Y19471640D01*
X6413500Y18304750D02*
Y19347180D01*
X6405880Y17670779D02*
Y17767300D01*
X6413500Y18149332D02*
Y18149332D01*
Y18112743D02*
Y18149332D01*
X6418708Y18107532D02*
X6443980Y18082260D01*
X6413500Y18112743D02*
X6418708Y18107532D01*
X6443980Y18079720D02*
Y18082260D01*
X6179820Y20119341D02*
Y20157440D01*
Y20119341D02*
X6387900Y19911259D01*
Y19545300D02*
Y19911259D01*
X5339080Y19801840D02*
X5364480Y19776440D01*
X5422900Y19987260D02*
X5452100D01*
X5497360Y20032520D01*
X5339080Y19801840D02*
Y19903439D01*
X5364480Y19776440D02*
X5389880D01*
X5339080Y19903439D02*
X5422900Y19987260D01*
X6103620Y17746980D02*
X6179820Y17670779D01*
X6248400Y21325841D02*
X6451600D01*
X6004560Y19674840D02*
Y21082001D01*
X6103620Y17746980D02*
Y19575780D01*
X6004560Y19674840D02*
X6103620Y19575780D01*
X6004560Y21082001D02*
X6248400Y21325841D01*
X6537960Y19471640D02*
Y19982179D01*
X6080760Y20439380D02*
Y21028661D01*
X6431280Y21193761D02*
X6527800Y21290280D01*
X6526530Y21327110D02*
X6527800Y21325841D01*
X6080760Y20439380D02*
X6537960Y19982179D01*
X6527800Y21290280D02*
Y21325841D01*
X6080760Y21028661D02*
X6245860Y21193761D01*
X6431280D01*
X5681980Y19660236D02*
Y19799300D01*
X5809615Y19532600D02*
X5981700D01*
X5681980Y19799300D02*
X5778500Y19895821D01*
X6159500Y17373599D02*
X6781800D01*
X6982460Y17574260D02*
Y17670779D01*
X5681980Y19660236D02*
X5809615Y19532600D01*
X5981700D02*
X6057900Y19456400D01*
X6781800Y17373599D02*
X6982460Y17574260D01*
X6057900Y17475200D02*
Y19456400D01*
Y17475200D02*
X6159500Y17373599D01*
X5402580Y20505420D02*
Y21036279D01*
Y20505420D02*
X5760720Y20147279D01*
X5509260Y19771561D02*
Y19794220D01*
X5572760Y21206461D02*
X5732780D01*
X6096000Y21569679D01*
X5509260Y19794220D02*
X5760720Y20045680D01*
X6096000Y21569679D02*
Y21719540D01*
X5402580Y21036279D02*
X5572760Y21206461D01*
X5760720Y20045680D02*
Y20147279D01*
D50*
X7595616Y19631802D02*
Y19658076D01*
X7632700Y19695160D01*
X7560168Y19596355D02*
X7595616Y19631802D01*
X7547752Y19626326D02*
X7565644Y19644218D01*
X7528560Y19695160D02*
X7565644Y19658076D01*
Y19644218D02*
Y19658076D01*
D51*
X5525300Y20616721D02*
D03*
X5626900Y20108720D02*
D03*
X5423700D02*
D03*
D52*
X6888480Y17927319D02*
D03*
X6319520D02*
D03*
D53*
X6225540Y17670779D02*
D03*
X6982460D02*
D03*
D54*
X6405880D02*
D03*
X6802120D02*
D03*
X7620000Y21719540D02*
D03*
X7366000D02*
D03*
X7112000D02*
D03*
X6858000D02*
D03*
X6604000D02*
D03*
X6350000D02*
D03*
X6096000D02*
D03*
X5842000D02*
D03*
X6969760Y18280380D02*
D03*
X6583680Y17772380D02*
D03*
X6586220Y17594580D02*
D03*
D55*
X5588000Y21719540D02*
D03*
D56*
X6604000Y18227040D02*
D03*
X7556500Y20957539D02*
D03*
X5651500D02*
D03*
D57*
X5514340Y21564600D02*
D03*
X5789460Y20543179D02*
D03*
X7792720Y19951700D02*
D03*
X6212840Y21371561D02*
D03*
X6017260Y21310600D02*
D03*
X5768340Y21371561D02*
D03*
X7668260Y19900900D02*
D03*
X7490460Y19898360D02*
D03*
X6972300Y19862601D02*
D03*
X6464300Y19598640D02*
D03*
X5741200Y19671840D02*
D03*
X6662420Y20342860D02*
D03*
X6387900Y19545300D02*
D03*
X6179820Y20157440D02*
D03*
X5834380Y20741640D02*
D03*
X5492280Y19610880D02*
D03*
X5731040Y19725180D02*
D03*
X7137400Y20355560D02*
D03*
X5555780Y19595641D02*
D03*
X6842100Y19672000D02*
D03*
X5890260Y20690840D02*
D03*
X6972300Y19761400D02*
D03*
X5614200Y19600720D02*
D03*
X5435600Y19735800D02*
D03*
X6520180Y18928081D02*
D03*
X7020560Y18821400D02*
D03*
X5497360Y20032520D02*
D03*
X6781800Y19333000D02*
D03*
X5389880Y19776440D02*
D03*
X7632700Y19695160D02*
D03*
X7528560D02*
D03*
X6451600Y21325841D02*
D03*
X6526530Y21327110D02*
D03*
X5788660Y19776440D02*
D03*
X5778500Y19895821D02*
D03*
X6791960Y19611340D02*
D03*
X5441480Y19628661D02*
D03*
X5509260Y19771561D02*
D03*
X6146800Y20751801D02*
D03*
X6197600D02*
D03*
X7010400D02*
D03*
X7061200D02*
D03*
X7010400Y20802600D02*
D03*
X6146800D02*
D03*
X6197600D02*
D03*
X7061200D02*
D03*
X5951220Y20449541D02*
D03*
X5387340Y19880580D02*
D03*
X6733800Y19075400D02*
D03*
X6835400Y20292059D02*
D03*
X5560860Y20731020D02*
D03*
X7579360Y19969479D02*
D03*
X6972300Y19659599D02*
D03*
X7137400Y20459900D02*
D03*
X6159500Y21318221D02*
D03*
X6716800Y19333000D02*
D03*
X6311900Y20075900D02*
D03*
X6390900Y19443700D02*
D03*
X7432040Y19895821D02*
D03*
X6934200Y20292200D02*
D03*
X5892800Y21005800D02*
D03*
X5788660Y20690840D02*
D03*
X7724140Y19900900D02*
D03*
X5976620Y21356320D02*
D03*
X5943600Y21005800D02*
D03*
X5892800Y20955000D02*
D03*
X6985000Y21716440D02*
D03*
X7010400Y21005800D02*
D03*
X7061200D02*
D03*
X6794500Y19433800D02*
D03*
X7010400Y20955000D02*
D03*
X5415280Y19834860D02*
D03*
X6720840Y19215100D02*
D03*
X6896100Y19431000D02*
D03*
X5943600Y20955000D02*
D03*
X7581900Y19712939D02*
D03*
X6742100Y19672000D02*
D03*
X7061200Y20955000D02*
D03*
D58*
X7366000Y21361400D02*
D03*
X5638800Y21488400D02*
D03*
X6934200Y20142200D02*
D03*
X6642100Y21361400D02*
D03*
X6794500D02*
D03*
X7670800D02*
D03*
X7594600D02*
D03*
X6718300D02*
D03*
X7442200D02*
D03*
X5638800Y21412199D02*
D03*
X7518400Y21361400D02*
D03*
X6309360Y18554700D02*
D03*
X6350000Y18923000D02*
D03*
X6273800Y19748500D02*
D03*
X6350000Y18986501D02*
D03*
X6223000D02*
D03*
X6210300Y19812000D02*
D03*
X6273800D02*
D03*
X6210300Y19875500D02*
D03*
X6286500Y18986501D02*
D03*
X6273800Y19875500D02*
D03*
X6210300Y19748500D02*
D03*
X6286500Y18923000D02*
D03*
X6223000D02*
D03*
X6350000Y21513800D02*
D03*
X7753100Y21526500D02*
D03*
X6693117Y18808655D02*
D03*
X7212580Y21526500D02*
D03*
X6314333Y18297958D02*
D03*
X6313951Y18240652D02*
D03*
X6255309Y18298340D02*
D03*
X6313760Y18355072D02*
D03*
X6255882Y18355646D02*
D03*
X6255118Y18241417D02*
D03*
D59*
X6731254Y17710081D02*
Y17987389D01*
X6853174Y18109309D02*
Y18875941D01*
X6731254Y17987389D02*
X6853174Y18109309D01*
X6703670Y17726321D02*
Y17997449D01*
X6826190Y18119971D02*
Y18892783D01*
X6703670Y17997449D02*
X6826190Y18119971D01*
X6675052Y17697704D02*
X6703670Y17726321D01*
X6826190Y18892783D02*
X6974586Y19041177D01*
X7236206Y20788562D02*
X7566406Y20458362D01*
X7000494Y21413538D02*
X7267194Y21146838D01*
X7622540Y19946620D02*
X7668260Y19900900D01*
X7622540Y19946620D02*
Y19997420D01*
X7000494Y21413538D02*
Y21608034D01*
X7267194Y20801398D02*
Y21146838D01*
X7597394Y20022566D02*
X7622540Y19997420D01*
X7267194Y20801398D02*
X7597394Y20471198D01*
Y20022566D02*
Y20471198D01*
X7000494Y21608034D02*
X7112000Y21719540D01*
X6858000D02*
X6969506Y21608034D01*
X7490460Y19898360D02*
X7533640Y19941541D01*
Y19989799D02*
X7566406Y20022566D01*
X7533640Y19941541D02*
Y19989799D01*
X7566406Y20022566D02*
Y20458362D01*
X6969506Y21400702D02*
Y21608034D01*
X7236206Y20788562D02*
Y21134003D01*
X6969506Y21400702D02*
X7236206Y21134003D01*
X6586220Y17594580D02*
X6658356Y17666716D01*
X7005574Y19404262D02*
X7197158Y19595847D01*
X6687888Y17666716D02*
X6731254Y17710081D01*
X6853174Y18875941D02*
X7005574Y19028342D01*
X6658356Y17666716D02*
X6687888D01*
X7005574Y19028342D02*
Y19404262D01*
X7197158Y19595847D02*
X7560378D01*
X6974586Y19417097D02*
X7184322Y19626834D01*
X6583680Y17772380D02*
X6658356Y17697704D01*
X6974586Y19041177D02*
Y19417097D01*
X7184322Y19626834D02*
X7547542D01*
X6658356Y17697704D02*
X6675052D01*
%TF.MD5,17c9fd6d9ea20b42489acc66757403a3*%
M02*
