%TF.GenerationSoftware,Altium Limited,Altium Designer,25.2.1 (25)*%
G04 Layer_Color=32896*
%FSLAX45Y45*%
%MOMM*%
%TF.SameCoordinates,1405630C-4DB4-4800-89E6-4DE4E69AA207*%
%TF.FilePolarity,Positive*%
%TF.FileFunction,Legend,Bot*%
%TF.Part,Single*%
G01*
G75*
%TA.AperFunction,NonConductor*%
%ADD75C,0.25400*%
G36*
X6876120Y17623241D02*
X6904120Y17595239D01*
X6876120D01*
Y17623241D01*
D02*
G37*
G36*
X6474280Y18708420D02*
X6484000Y18712447D01*
X6493720Y18708420D01*
X6497746Y18698700D01*
X6493720Y18688980D01*
X6484000Y18684953D01*
X6474280Y18688980D01*
X6470254Y18698700D01*
X6474280Y18708420D01*
D02*
G37*
G36*
X5717340Y21652080D02*
X5765340D01*
X5741340Y21619080D01*
X5717340Y21652080D01*
D02*
G37*
G36*
X6662344Y15268166D02*
X6663847Y15267978D01*
X6665727Y15267603D01*
X6667795Y15267038D01*
X6670050Y15266286D01*
X6672494Y15265347D01*
Y15251814D01*
X6672306Y15252002D01*
X6671554Y15252377D01*
X6670426Y15252940D01*
X6668922Y15253505D01*
X6667419Y15254070D01*
X6665539Y15254633D01*
X6663847Y15255009D01*
X6662156Y15255197D01*
X6661216D01*
X6660464Y15255009D01*
X6658773Y15254633D01*
X6656705Y15253880D01*
X6654637Y15252565D01*
X6653698Y15251627D01*
X6652946Y15250687D01*
X6652194Y15249370D01*
X6651818Y15247865D01*
X6651442Y15246175D01*
X6651254Y15244295D01*
Y15244107D01*
Y15243542D01*
X6651442Y15242792D01*
Y15241664D01*
X6651630Y15240160D01*
X6652006Y15238657D01*
X6652382Y15236777D01*
X6652946Y15234709D01*
X6653134Y15234521D01*
X6653322Y15233582D01*
X6653886Y15232266D01*
X6654825Y15230199D01*
X6656141Y15227379D01*
X6656893Y15225687D01*
X6657833Y15223994D01*
X6658961Y15221928D01*
X6660088Y15219672D01*
X6661404Y15217229D01*
X6662720Y15214597D01*
X6662908Y15214409D01*
X6663096Y15214034D01*
X6663472Y15213281D01*
X6664035Y15212154D01*
X6664599Y15211026D01*
X6665351Y15209523D01*
X6667043Y15206326D01*
X6668922Y15202756D01*
X6670614Y15198997D01*
X6672118Y15195425D01*
X6673245Y15192230D01*
X6673433Y15191853D01*
X6673621Y15190913D01*
X6673997Y15189410D01*
X6674561Y15187720D01*
X6674937Y15185464D01*
X6675313Y15183208D01*
X6675501Y15180765D01*
X6675689Y15178510D01*
Y15178320D01*
Y15177945D01*
Y15177380D01*
X6675501Y15176630D01*
X6675313Y15174562D01*
X6674937Y15171931D01*
X6673997Y15168922D01*
X6672870Y15165916D01*
X6671366Y15162721D01*
X6669110Y15159901D01*
X6668734Y15159525D01*
X6667983Y15158772D01*
X6666479Y15157646D01*
X6664599Y15156329D01*
X6662156Y15155014D01*
X6659336Y15153886D01*
X6656141Y15153136D01*
X6652382Y15152759D01*
X6651066D01*
X6649563Y15152946D01*
X6647871Y15153322D01*
X6645615Y15153886D01*
X6643172Y15154639D01*
X6640728Y15155579D01*
X6638097Y15157082D01*
Y15172118D01*
X6638473Y15171931D01*
X6639225Y15171179D01*
X6640540Y15170239D01*
X6642044Y15169112D01*
X6643924Y15167795D01*
X6646179Y15166856D01*
X6648435Y15166104D01*
X6650690Y15165916D01*
X6651442D01*
X6652382Y15166104D01*
X6653322Y15166292D01*
X6654637Y15166669D01*
X6655765Y15167232D01*
X6657081Y15167982D01*
X6658397Y15168922D01*
X6658585Y15169112D01*
X6658961Y15169487D01*
X6659524Y15170239D01*
X6660088Y15171179D01*
X6660652Y15172305D01*
X6661216Y15173622D01*
X6661592Y15174937D01*
X6661780Y15176630D01*
Y15176817D01*
Y15177380D01*
Y15178133D01*
X6661592Y15179260D01*
X6661404Y15180577D01*
X6661028Y15182268D01*
X6660464Y15184148D01*
X6659900Y15186028D01*
Y15186217D01*
X6659524Y15187155D01*
X6658961Y15188660D01*
X6658021Y15190727D01*
X6656705Y15193546D01*
X6655765Y15195238D01*
X6654825Y15197118D01*
X6653886Y15199185D01*
X6652758Y15201440D01*
X6651442Y15203883D01*
X6649938Y15206516D01*
Y15206703D01*
X6649563Y15207268D01*
X6649187Y15208018D01*
X6648623Y15208958D01*
X6648059Y15210274D01*
X6647307Y15211591D01*
X6645615Y15214973D01*
X6643924Y15218546D01*
X6642232Y15222304D01*
X6640728Y15225687D01*
X6639601Y15228882D01*
Y15229259D01*
X6639225Y15230199D01*
X6638849Y15231702D01*
X6638473Y15233392D01*
X6638097Y15235649D01*
X6637721Y15237904D01*
X6637533Y15240160D01*
X6637345Y15242416D01*
Y15242603D01*
Y15242979D01*
Y15243542D01*
X6637533Y15244295D01*
X6637721Y15246362D01*
X6638097Y15248994D01*
X6638849Y15252002D01*
X6639977Y15255197D01*
X6641668Y15258205D01*
X6643736Y15261024D01*
X6644112Y15261398D01*
X6644864Y15262151D01*
X6646367Y15263280D01*
X6648247Y15264783D01*
X6650502Y15266098D01*
X6653510Y15267226D01*
X6656705Y15267978D01*
X6660276Y15268353D01*
X6661216D01*
X6662344Y15268166D01*
D02*
G37*
G36*
X6499195Y15267978D02*
X6501074Y15267603D01*
X6503518Y15266850D01*
X6506149Y15265910D01*
X6508968Y15264407D01*
X6512164Y15262338D01*
Y15247865D01*
X6511788Y15248242D01*
X6510848Y15248994D01*
X6509532Y15250122D01*
X6507653Y15251437D01*
X6505397Y15252565D01*
X6502954Y15253693D01*
X6500322Y15254445D01*
X6497503Y15254820D01*
X6497127D01*
X6496187Y15254633D01*
X6494496Y15254257D01*
X6492616Y15253505D01*
X6490548Y15252377D01*
X6488481Y15250497D01*
X6487541Y15249370D01*
X6486601Y15247865D01*
X6485661Y15246362D01*
X6484910Y15244482D01*
Y15244295D01*
X6484722Y15243919D01*
X6484534Y15243355D01*
X6484346Y15242603D01*
X6483970Y15241476D01*
X6483782Y15239972D01*
X6483406Y15238280D01*
X6483030Y15236401D01*
X6482654Y15234145D01*
X6482278Y15231702D01*
X6482090Y15228882D01*
X6481714Y15225874D01*
X6481526Y15222491D01*
X6481338Y15218733D01*
X6481150Y15214784D01*
Y15210461D01*
Y15210274D01*
Y15209523D01*
Y15208208D01*
Y15206703D01*
X6481338Y15204636D01*
Y15202568D01*
X6481526Y15200125D01*
X6481714Y15197493D01*
X6482090Y15191853D01*
X6482842Y15186217D01*
X6483218Y15183585D01*
X6483782Y15181142D01*
X6484346Y15178697D01*
X6485098Y15176630D01*
Y15176442D01*
X6485285Y15176254D01*
X6485849Y15174937D01*
X6486789Y15173434D01*
X6488293Y15171555D01*
X6489984Y15169487D01*
X6492240Y15167982D01*
X6494871Y15166669D01*
X6496375Y15166479D01*
X6498067Y15166292D01*
X6498443D01*
X6499195Y15166479D01*
X6500510Y15166669D01*
X6502390Y15167232D01*
X6504645Y15168359D01*
X6507277Y15169675D01*
X6510096Y15171742D01*
X6511788Y15172870D01*
X6513479Y15174374D01*
Y15158961D01*
X6513104Y15158772D01*
X6511976Y15158022D01*
X6510472Y15157082D01*
X6508217Y15155954D01*
X6505585Y15154639D01*
X6502766Y15153699D01*
X6499570Y15152946D01*
X6496187Y15152759D01*
X6495623D01*
X6494871Y15152946D01*
X6493744D01*
X6492616Y15153136D01*
X6491112Y15153510D01*
X6487917Y15154639D01*
X6486225Y15155389D01*
X6484346Y15156329D01*
X6482466Y15157458D01*
X6480586Y15158961D01*
X6478895Y15160654D01*
X6477015Y15162534D01*
X6475324Y15164787D01*
X6473820Y15167419D01*
Y15167607D01*
X6473444Y15168172D01*
X6473068Y15168922D01*
X6472504Y15170239D01*
X6471940Y15171742D01*
X6471376Y15173622D01*
X6470625Y15175690D01*
X6469873Y15178320D01*
X6469121Y15181142D01*
X6468369Y15184335D01*
X6467805Y15187720D01*
X6467241Y15191666D01*
X6466677Y15195801D01*
X6466302Y15200125D01*
X6466114Y15204823D01*
X6465926Y15209898D01*
Y15210274D01*
Y15211026D01*
Y15212531D01*
X6466114Y15214409D01*
Y15216666D01*
X6466302Y15219484D01*
X6466677Y15222304D01*
X6466865Y15225499D01*
X6467805Y15232454D01*
X6469309Y15239597D01*
X6471188Y15246552D01*
X6472504Y15249747D01*
X6473820Y15252753D01*
X6474008Y15252940D01*
X6474196Y15253505D01*
X6474572Y15254257D01*
X6475324Y15255197D01*
X6477015Y15257640D01*
X6479647Y15260648D01*
X6482842Y15263467D01*
X6486789Y15265910D01*
X6489045Y15266850D01*
X6491300Y15267603D01*
X6493932Y15268166D01*
X6496563Y15268353D01*
X6497879D01*
X6499195Y15267978D01*
D02*
G37*
G36*
X6804254Y15213094D02*
X6826621Y15154262D01*
X6811396D01*
X6791284Y15211214D01*
X6807261Y15266850D01*
X6822298D01*
X6804254Y15213094D01*
D02*
G37*
G36*
X6790720Y15154262D02*
X6776248D01*
Y15266850D01*
X6790720D01*
Y15154262D01*
D02*
G37*
G36*
X6737904Y15167795D02*
X6765722D01*
Y15154262D01*
X6723431D01*
Y15266850D01*
X6737904D01*
Y15167795D01*
D02*
G37*
G36*
X6703883Y15154262D02*
X6689410D01*
Y15266850D01*
X6703883D01*
Y15154262D01*
D02*
G37*
G36*
X6554643Y15213094D02*
X6577010Y15154262D01*
X6561785D01*
X6541673Y15211214D01*
X6557650Y15266850D01*
X6572687D01*
X6554643Y15213094D01*
D02*
G37*
G36*
X6541110Y15154262D02*
X6526637D01*
Y15266850D01*
X6541110D01*
Y15154262D01*
D02*
G37*
G36*
X6459347D02*
X6445250D01*
X6441115Y15179260D01*
X6420251D01*
X6415740Y15154262D01*
X6401831D01*
X6423071Y15267603D01*
X6438108D01*
X6459347Y15154262D01*
D02*
G37*
G36*
X6364991Y15266663D02*
X6366119D01*
X6367435Y15266473D01*
X6370442Y15265910D01*
X6373825Y15264783D01*
X6377208Y15263280D01*
X6380780Y15261398D01*
X6382471Y15260085D01*
X6384163Y15258580D01*
X6384351D01*
X6384539Y15258205D01*
X6385479Y15257076D01*
X6386794Y15255385D01*
X6388486Y15252940D01*
X6389990Y15250122D01*
X6391305Y15246739D01*
X6392245Y15242979D01*
X6392621Y15240912D01*
Y15238844D01*
Y15238657D01*
Y15238092D01*
Y15237341D01*
X6392433Y15236401D01*
X6392245Y15235085D01*
X6391869Y15233582D01*
X6390742Y15230199D01*
X6389990Y15228131D01*
X6389050Y15226251D01*
X6387922Y15224184D01*
X6386419Y15222116D01*
X6384727Y15220236D01*
X6382847Y15218169D01*
X6380592Y15216289D01*
X6377960Y15214597D01*
X6378148D01*
X6378712Y15214223D01*
X6379652Y15213658D01*
X6380592Y15213094D01*
X6381907Y15212154D01*
X6383411Y15211026D01*
X6384915Y15209711D01*
X6386606Y15208018D01*
X6388298Y15206326D01*
X6389802Y15204260D01*
X6391305Y15202003D01*
X6392621Y15199373D01*
X6393749Y15196553D01*
X6394501Y15193546D01*
X6395065Y15190163D01*
X6395253Y15186591D01*
Y15186403D01*
Y15186028D01*
Y15185275D01*
X6395065Y15184148D01*
Y15183020D01*
X6394689Y15181516D01*
X6394125Y15178320D01*
X6392997Y15174562D01*
X6391305Y15170802D01*
X6390178Y15168735D01*
X6389050Y15166856D01*
X6387546Y15164977D01*
X6385855Y15163284D01*
X6385667Y15163097D01*
X6385479Y15162907D01*
X6384915Y15162534D01*
X6384163Y15161969D01*
X6383223Y15161217D01*
X6381907Y15160464D01*
X6380592Y15159714D01*
X6379088Y15158772D01*
X6377208Y15158022D01*
X6375329Y15157082D01*
X6373073Y15156329D01*
X6370630Y15155766D01*
X6368186Y15155014D01*
X6365367Y15154639D01*
X6362548Y15154449D01*
X6359352Y15154262D01*
X6345819D01*
Y15266850D01*
X6364239D01*
X6364991Y15266663D01*
D02*
G37*
G36*
X7313956Y21398911D02*
X7314886Y21396965D01*
X7315647Y21394936D01*
X7316324Y21392990D01*
X7316916Y21391045D01*
X7317339Y21389185D01*
X7317762Y21387323D01*
X7318100Y21385631D01*
X7318354Y21384024D01*
X7318608Y21382503D01*
X7318777Y21381149D01*
X7318861Y21379964D01*
X7318946Y21378949D01*
X7319031Y21378104D01*
Y21377512D01*
Y21377173D01*
Y21377003D01*
Y21375397D01*
X7318861Y21373874D01*
X7318692Y21372437D01*
X7318523Y21371083D01*
X7318269Y21369815D01*
X7318016Y21368715D01*
X7317677Y21367700D01*
X7317339Y21366769D01*
X7317085Y21366008D01*
X7316747Y21365247D01*
X7316493Y21364655D01*
X7316239Y21364148D01*
X7316070Y21363809D01*
X7315901Y21363554D01*
X7315732Y21363387D01*
Y21363303D01*
X7315055Y21362456D01*
X7314463Y21361778D01*
X7313786Y21361102D01*
X7313025Y21360596D01*
X7311672Y21359749D01*
X7310403Y21359157D01*
X7309219Y21358820D01*
X7308373Y21358650D01*
X7308035Y21358565D01*
X7307527D01*
X7306597Y21358650D01*
X7305751Y21358820D01*
X7304905Y21359073D01*
X7304060Y21359412D01*
X7302622Y21360257D01*
X7301438Y21361188D01*
X7300423Y21362119D01*
X7299661Y21362962D01*
X7299408Y21363303D01*
X7299238Y21363554D01*
X7299069Y21363725D01*
Y21363809D01*
X7297885Y21365839D01*
X7297039Y21368037D01*
X7296447Y21370238D01*
X7296024Y21372353D01*
X7295855Y21373282D01*
X7295771Y21374129D01*
X7295686Y21374974D01*
Y21375652D01*
X7295601Y21376158D01*
Y21376581D01*
Y21376836D01*
Y21376920D01*
X7295686Y21379710D01*
X7296024Y21382162D01*
X7296278Y21383263D01*
X7296532Y21384277D01*
X7296786Y21385208D01*
X7297039Y21386139D01*
X7297378Y21386900D01*
X7297631Y21387492D01*
X7297885Y21388084D01*
X7298054Y21388593D01*
X7298308Y21388930D01*
X7298393Y21389185D01*
X7298562Y21389352D01*
Y21389438D01*
X7299154Y21390283D01*
X7299746Y21391045D01*
X7300338Y21391637D01*
X7300930Y21392143D01*
X7302199Y21392990D01*
X7303467Y21393582D01*
X7304482Y21393919D01*
X7305413Y21394090D01*
X7305751Y21394174D01*
X7306174D01*
X7307189Y21394090D01*
X7308204Y21393919D01*
X7308627Y21393835D01*
X7308881Y21393752D01*
X7309134Y21393668D01*
X7309219D01*
X7298393Y21415912D01*
X7305667D01*
X7313956Y21398911D01*
D02*
G37*
G36*
X7365382Y21416588D02*
X7366650Y21416335D01*
X7367834Y21415996D01*
X7368934Y21415489D01*
X7369949Y21414897D01*
X7370879Y21414220D01*
X7371725Y21413544D01*
X7372486Y21412782D01*
X7373163Y21412021D01*
X7373755Y21411343D01*
X7374263Y21410667D01*
X7374686Y21410075D01*
X7375024Y21409653D01*
X7375278Y21409230D01*
X7375362Y21408977D01*
X7375447Y21408891D01*
X7376123Y21407368D01*
X7376715Y21405762D01*
X7377730Y21402293D01*
X7378407Y21398657D01*
X7378661Y21396965D01*
X7378830Y21395274D01*
X7378999Y21393668D01*
X7379168Y21392143D01*
X7379253Y21390791D01*
Y21389691D01*
X7379338Y21388760D01*
Y21388000D01*
Y21387576D01*
Y21387408D01*
X7379253Y21384869D01*
X7379168Y21382503D01*
X7378999Y21380302D01*
X7378745Y21378273D01*
X7378407Y21376411D01*
X7378069Y21374635D01*
X7377730Y21373029D01*
X7377392Y21371591D01*
X7377054Y21370322D01*
X7376715Y21369221D01*
X7376377Y21368292D01*
X7376039Y21367531D01*
X7375785Y21366939D01*
X7375616Y21366516D01*
X7375447Y21366261D01*
Y21366177D01*
X7374686Y21364909D01*
X7373840Y21363725D01*
X7372909Y21362794D01*
X7371979Y21361948D01*
X7371049Y21361188D01*
X7370118Y21360596D01*
X7369188Y21360172D01*
X7368342Y21359749D01*
X7367496Y21359412D01*
X7366735Y21359242D01*
X7365974Y21359073D01*
X7365382Y21358904D01*
X7364874D01*
X7364536Y21358820D01*
X7364197D01*
X7362506Y21358987D01*
X7360983Y21359326D01*
X7359461Y21359834D01*
X7358192Y21360426D01*
X7357092Y21360933D01*
X7356247Y21361441D01*
X7355993Y21361694D01*
X7355739Y21361778D01*
X7355655Y21361948D01*
X7355570D01*
Y21369646D01*
X7356416Y21368970D01*
X7357177Y21368292D01*
X7358700Y21367278D01*
X7359968Y21366600D01*
X7361152Y21366093D01*
X7361998Y21365839D01*
X7362675Y21365669D01*
X7363098Y21365585D01*
X7363267D01*
X7364113Y21365669D01*
X7364874Y21365839D01*
X7365551Y21366093D01*
X7366227Y21366431D01*
X7367327Y21367192D01*
X7368257Y21368207D01*
X7368934Y21369138D01*
X7369441Y21369984D01*
X7369526Y21370238D01*
X7369695Y21370491D01*
X7369780Y21370660D01*
Y21370744D01*
X7370118Y21371761D01*
X7370456Y21372945D01*
X7370710Y21374213D01*
X7370879Y21375566D01*
X7371218Y21378357D01*
X7371471Y21381149D01*
X7371556Y21382503D01*
X7371641Y21383771D01*
Y21384869D01*
X7371725Y21385802D01*
Y21386646D01*
Y21387238D01*
Y21387576D01*
Y21387746D01*
Y21389861D01*
X7371641Y21391890D01*
X7371556Y21393752D01*
X7371387Y21395444D01*
X7371302Y21396965D01*
X7371133Y21398318D01*
X7370964Y21399586D01*
X7370710Y21400687D01*
X7370541Y21401617D01*
X7370372Y21402463D01*
X7370203Y21403224D01*
X7370118Y21403732D01*
X7369949Y21404155D01*
X7369864Y21404494D01*
X7369780Y21404662D01*
Y21404747D01*
X7369357Y21405676D01*
X7368934Y21406439D01*
X7368511Y21407115D01*
X7368004Y21407707D01*
X7367496Y21408215D01*
X7366904Y21408638D01*
X7365889Y21409230D01*
X7364959Y21409653D01*
X7364197Y21409822D01*
X7363690Y21409906D01*
X7363521D01*
X7362167Y21409737D01*
X7360814Y21409399D01*
X7359630Y21408807D01*
X7358530Y21408215D01*
X7357600Y21407538D01*
X7356839Y21406946D01*
X7356416Y21406609D01*
X7356247Y21406439D01*
Y21413713D01*
X7357854Y21414728D01*
X7359292Y21415404D01*
X7360560Y21415912D01*
X7361744Y21416335D01*
X7362675Y21416504D01*
X7363436Y21416588D01*
X7363859Y21416673D01*
X7364028D01*
X7365382Y21416588D01*
D02*
G37*
G36*
X7342206Y21359579D02*
X7334932D01*
Y21415912D01*
X7342206D01*
Y21359579D01*
D02*
G37*
G36*
X6324600Y21336000D02*
X6315634D01*
X6314027Y21336086D01*
X6312589Y21336337D01*
X6311151Y21336678D01*
X6309883Y21337100D01*
X6308614Y21337607D01*
X6307514Y21338199D01*
X6306499Y21338876D01*
X6305569Y21339552D01*
X6304808Y21340144D01*
X6304047Y21340820D01*
X6303454Y21341412D01*
X6302947Y21341920D01*
X6302609Y21342345D01*
X6302355Y21342682D01*
X6302186Y21342937D01*
X6302101Y21343021D01*
X6301255Y21344458D01*
X6300494Y21345981D01*
X6299902Y21347588D01*
X6299310Y21349364D01*
X6298802Y21351056D01*
X6298464Y21352832D01*
X6297872Y21356300D01*
X6297703Y21357822D01*
X6297534Y21359344D01*
X6297449Y21360698D01*
X6297365Y21361882D01*
X6297280Y21362811D01*
Y21363574D01*
Y21363997D01*
Y21364166D01*
X6297365Y21366702D01*
X6297534Y21369156D01*
X6297788Y21371355D01*
X6298126Y21373470D01*
X6298549Y21375415D01*
X6299056Y21377191D01*
X6299648Y21378883D01*
X6300325Y21380490D01*
X6301002Y21381844D01*
X6301763Y21383197D01*
X6302609Y21384381D01*
X6303370Y21385480D01*
X6304300Y21386411D01*
X6305146Y21387341D01*
X6306077Y21388103D01*
X6306922Y21388779D01*
X6308783Y21389963D01*
X6310559Y21390810D01*
X6312166Y21391486D01*
X6313604Y21391908D01*
X6314873Y21392162D01*
X6315381Y21392247D01*
X6315803D01*
X6316142Y21392332D01*
X6324600D01*
Y21336000D01*
D02*
G37*
G36*
X6291782Y21357991D02*
Y21351479D01*
X6277065D01*
Y21336000D01*
X6269791D01*
Y21351479D01*
X6266661D01*
Y21356638D01*
X6269791D01*
Y21392924D01*
X6276642D01*
X6291782Y21357991D01*
D02*
G37*
G36*
X7682890Y19865869D02*
X7685258Y19865785D01*
X7687457Y19865616D01*
X7689487Y19865363D01*
X7691348Y19865024D01*
X7693124Y19864685D01*
X7694731Y19864346D01*
X7696169Y19864009D01*
X7697438Y19863670D01*
X7698538Y19863332D01*
X7699468Y19862994D01*
X7700229Y19862656D01*
X7700821Y19862401D01*
X7701244Y19862231D01*
X7701498Y19862064D01*
X7701583D01*
X7702851Y19861302D01*
X7704035Y19860455D01*
X7704966Y19859526D01*
X7705812Y19858595D01*
X7706573Y19857664D01*
X7707165Y19856734D01*
X7707588Y19855804D01*
X7708011Y19854958D01*
X7708349Y19854112D01*
X7708518Y19853351D01*
X7708687Y19852589D01*
X7708857Y19851997D01*
Y19851489D01*
X7708941Y19851152D01*
Y19850813D01*
X7708772Y19849123D01*
X7708434Y19847600D01*
X7707926Y19846077D01*
X7707334Y19844807D01*
X7706827Y19843709D01*
X7706319Y19842863D01*
X7706065Y19842609D01*
X7705981Y19842355D01*
X7705812Y19842271D01*
Y19842186D01*
X7698115D01*
X7698791Y19843031D01*
X7699468Y19843793D01*
X7700483Y19845316D01*
X7701160Y19846585D01*
X7701667Y19847769D01*
X7701921Y19848615D01*
X7702090Y19849290D01*
X7702175Y19849715D01*
Y19849883D01*
X7702090Y19850729D01*
X7701921Y19851489D01*
X7701667Y19852167D01*
X7701329Y19852844D01*
X7700568Y19853943D01*
X7699553Y19854874D01*
X7698622Y19855550D01*
X7697776Y19856058D01*
X7697523Y19856142D01*
X7697269Y19856313D01*
X7697100Y19856396D01*
X7697015D01*
X7696000Y19856734D01*
X7694816Y19857072D01*
X7693547Y19857327D01*
X7692194Y19857497D01*
X7689403Y19857834D01*
X7686612Y19858089D01*
X7685258Y19858173D01*
X7683989Y19858257D01*
X7682890D01*
X7681959Y19858342D01*
X7681114D01*
X7680522D01*
X7680183D01*
X7680014D01*
X7677900D01*
X7675870Y19858257D01*
X7674009Y19858173D01*
X7672317Y19858003D01*
X7670795Y19857919D01*
X7669441Y19857748D01*
X7668173Y19857581D01*
X7667073Y19857327D01*
X7666143Y19857156D01*
X7665297Y19856989D01*
X7664536Y19856819D01*
X7664028Y19856734D01*
X7663605Y19856564D01*
X7663267Y19856480D01*
X7663098Y19856396D01*
X7663013D01*
X7662083Y19855972D01*
X7661321Y19855550D01*
X7660645Y19855127D01*
X7660053Y19854620D01*
X7659545Y19854112D01*
X7659122Y19853520D01*
X7658530Y19852505D01*
X7658107Y19851575D01*
X7657938Y19850813D01*
X7657854Y19850307D01*
Y19850137D01*
X7658023Y19848784D01*
X7658361Y19847430D01*
X7658953Y19846246D01*
X7659545Y19845148D01*
X7660222Y19844215D01*
X7660814Y19843456D01*
X7661152Y19843031D01*
X7661321Y19842863D01*
X7654047D01*
X7653032Y19844470D01*
X7652356Y19845908D01*
X7651848Y19847177D01*
X7651425Y19848361D01*
X7651256Y19849290D01*
X7651172Y19850053D01*
X7651087Y19850475D01*
Y19850645D01*
X7651172Y19851997D01*
X7651425Y19853267D01*
X7651764Y19854451D01*
X7652271Y19855550D01*
X7652863Y19856564D01*
X7653540Y19857497D01*
X7654217Y19858342D01*
X7654978Y19859103D01*
X7655739Y19859779D01*
X7656416Y19860371D01*
X7657092Y19860880D01*
X7657684Y19861302D01*
X7658107Y19861639D01*
X7658530Y19861894D01*
X7658784Y19861980D01*
X7658869Y19862064D01*
X7660391Y19862740D01*
X7661998Y19863332D01*
X7665466Y19864346D01*
X7669103Y19865024D01*
X7670795Y19865277D01*
X7672486Y19865446D01*
X7674093Y19865616D01*
X7675616Y19865785D01*
X7676969Y19865869D01*
X7678069D01*
X7678999Y19865955D01*
X7679760D01*
X7680183D01*
X7680352D01*
X7682890Y19865869D01*
D02*
G37*
G36*
X7708180Y19814275D02*
X7700990D01*
Y19827469D01*
X7698707Y19826285D01*
X7696508Y19825185D01*
X7694393Y19824170D01*
X7692448Y19823241D01*
X7690671Y19822479D01*
X7689064Y19821718D01*
X7687542Y19821040D01*
X7686189Y19820448D01*
X7684920Y19819856D01*
X7683905Y19819434D01*
X7682974Y19819095D01*
X7682213Y19818758D01*
X7681621Y19818503D01*
X7681198Y19818333D01*
X7680945Y19818250D01*
X7680860D01*
X7678153Y19817319D01*
X7675531Y19816643D01*
X7673248Y19816135D01*
X7672148Y19815965D01*
X7671133Y19815797D01*
X7670287Y19815712D01*
X7669441Y19815628D01*
X7668765Y19815543D01*
X7668173Y19815459D01*
X7667665D01*
X7667327D01*
X7667158D01*
X7667073D01*
X7664451Y19815628D01*
X7662167Y19815965D01*
X7660137Y19816557D01*
X7659292Y19816896D01*
X7658530Y19817149D01*
X7657854Y19817488D01*
X7657177Y19817827D01*
X7656669Y19818082D01*
X7656247Y19818419D01*
X7655908Y19818588D01*
X7655654Y19818758D01*
X7655570Y19818925D01*
X7655485D01*
X7654724Y19819603D01*
X7654047Y19820364D01*
X7653540Y19821124D01*
X7653032Y19821887D01*
X7652271Y19823409D01*
X7651764Y19824931D01*
X7651510Y19826285D01*
X7651341Y19826877D01*
Y19827385D01*
X7651256Y19827808D01*
Y19828400D01*
X7651341Y19829837D01*
X7651595Y19831274D01*
X7651933Y19832629D01*
X7652271Y19833897D01*
X7652610Y19834912D01*
X7652948Y19835757D01*
X7653117Y19836096D01*
X7653202Y19836349D01*
X7653286Y19836435D01*
Y19836519D01*
X7660814D01*
X7660222Y19835081D01*
X7659714Y19833897D01*
X7659376Y19832797D01*
X7659207Y19831866D01*
X7659038Y19831190D01*
X7658953Y19830682D01*
Y19830260D01*
X7659038Y19829076D01*
X7659376Y19828061D01*
X7659799Y19827132D01*
X7660222Y19826370D01*
X7660729Y19825777D01*
X7661152Y19825270D01*
X7661491Y19825015D01*
X7661575Y19824931D01*
X7662590Y19824255D01*
X7663690Y19823747D01*
X7664874Y19823409D01*
X7665973Y19823155D01*
X7666904Y19822986D01*
X7667750Y19822902D01*
X7668257D01*
X7668342D01*
X7668426D01*
X7669780D01*
X7671218Y19823071D01*
X7674178Y19823494D01*
X7677223Y19824255D01*
X7680437Y19825185D01*
X7683651Y19826370D01*
X7686865Y19827554D01*
X7689995Y19828906D01*
X7693040Y19830260D01*
X7695916Y19831699D01*
X7698538Y19833052D01*
X7700990Y19834236D01*
X7702005Y19834828D01*
X7703020Y19835420D01*
X7703951Y19835927D01*
X7704712Y19836349D01*
X7705389Y19836690D01*
X7705981Y19837027D01*
X7706488Y19837366D01*
X7706827Y19837534D01*
X7706996Y19837619D01*
X7707080Y19837704D01*
X7708180D01*
Y19814275D01*
D02*
G37*
G36*
X7695323Y19806323D02*
X7697692Y19805984D01*
X7699722Y19805478D01*
X7700652Y19805139D01*
X7701498Y19804800D01*
X7702259Y19804547D01*
X7702851Y19804208D01*
X7703443Y19803955D01*
X7703866Y19803702D01*
X7704205Y19803532D01*
X7704458Y19803363D01*
X7704627Y19803194D01*
X7704712D01*
X7705473Y19802518D01*
X7706150Y19801842D01*
X7706827Y19801164D01*
X7707334Y19800403D01*
X7708095Y19798965D01*
X7708603Y19797612D01*
X7708941Y19796342D01*
X7709110Y19795413D01*
X7709195Y19794991D01*
Y19794482D01*
X7709110Y19793468D01*
X7709026Y19792537D01*
X7708518Y19790761D01*
X7707757Y19789238D01*
X7706911Y19788054D01*
X7706065Y19787039D01*
X7705304Y19786278D01*
X7704797Y19785855D01*
X7704712Y19785686D01*
X7704627D01*
X7702767Y19784586D01*
X7700737Y19783740D01*
X7698707Y19783148D01*
X7696761Y19782726D01*
X7695831Y19782556D01*
X7694985Y19782471D01*
X7694308Y19782387D01*
X7693632D01*
X7693124Y19782301D01*
X7692701D01*
X7692448D01*
X7692363D01*
X7690671Y19782387D01*
X7689064Y19782556D01*
X7687626Y19782893D01*
X7686273Y19783318D01*
X7685089Y19783826D01*
X7683989Y19784332D01*
X7682974Y19784924D01*
X7682129Y19785516D01*
X7681367Y19786192D01*
X7680691Y19786784D01*
X7680099Y19787292D01*
X7679676Y19787801D01*
X7679337Y19788223D01*
X7679084Y19788560D01*
X7678999Y19788731D01*
X7678915Y19788815D01*
X7678069Y19787801D01*
X7677138Y19786870D01*
X7676123Y19786108D01*
X7675108Y19785432D01*
X7674093Y19784840D01*
X7673078Y19784418D01*
X7672063Y19783994D01*
X7671048Y19783740D01*
X7670118Y19783485D01*
X7669272Y19783318D01*
X7668511Y19783148D01*
X7667834Y19783064D01*
X7667242Y19782979D01*
X7666819D01*
X7666566D01*
X7666481D01*
X7664028Y19783148D01*
X7661829Y19783571D01*
X7659884Y19784079D01*
X7658361Y19784755D01*
X7657684Y19785094D01*
X7657092Y19785432D01*
X7656585Y19785686D01*
X7656162Y19785939D01*
X7655824Y19786192D01*
X7655570Y19786362D01*
X7655485Y19786447D01*
X7655401Y19786531D01*
X7654640Y19787209D01*
X7654047Y19787885D01*
X7653455Y19788560D01*
X7653032Y19789238D01*
X7652271Y19790591D01*
X7651764Y19791776D01*
X7651510Y19792876D01*
X7651341Y19793721D01*
X7651256Y19794060D01*
Y19794482D01*
X7651341Y19795242D01*
X7651425Y19796089D01*
X7651848Y19797527D01*
X7652525Y19798880D01*
X7653286Y19800066D01*
X7654047Y19800995D01*
X7654640Y19801756D01*
X7655147Y19802179D01*
X7655232Y19802264D01*
X7655316Y19802348D01*
X7656923Y19803532D01*
X7658784Y19804378D01*
X7660645Y19804970D01*
X7662421Y19805392D01*
X7664028Y19805647D01*
X7664705Y19805733D01*
X7665297D01*
X7665804Y19805817D01*
X7666143D01*
X7666396D01*
X7666481D01*
X7667919Y19805733D01*
X7669357Y19805562D01*
X7670626Y19805309D01*
X7671810Y19804886D01*
X7672909Y19804463D01*
X7673924Y19803955D01*
X7674855Y19803448D01*
X7675700Y19802856D01*
X7676462Y19802348D01*
X7677138Y19801842D01*
X7677646Y19801334D01*
X7678069Y19800909D01*
X7678492Y19800487D01*
X7678745Y19800233D01*
X7678830Y19800066D01*
X7678915Y19799980D01*
X7679760Y19801164D01*
X7680606Y19802095D01*
X7681621Y19803024D01*
X7682721Y19803702D01*
X7683820Y19804378D01*
X7685004Y19804886D01*
X7686104Y19805309D01*
X7687288Y19805647D01*
X7688303Y19805984D01*
X7689318Y19806154D01*
X7690249Y19806323D01*
X7691010Y19806409D01*
X7691686D01*
X7692194Y19806493D01*
X7692532D01*
X7692617D01*
X7695323Y19806323D01*
D02*
G37*
G36*
X6591632Y21838232D02*
X6584358D01*
Y21894565D01*
X6591632D01*
Y21838232D01*
D02*
G37*
G36*
X6558476Y21895071D02*
X6559491Y21894818D01*
X6560506Y21894479D01*
X6561352Y21893887D01*
X6562198Y21893295D01*
X6562959Y21892450D01*
X6563720Y21891605D01*
X6564397Y21890588D01*
X6564989Y21889574D01*
X6565581Y21888390D01*
X6566511Y21886021D01*
X6567357Y21883400D01*
X6567949Y21880693D01*
X6568457Y21877986D01*
X6568795Y21875365D01*
X6569133Y21872913D01*
X6569218Y21871727D01*
X6569303Y21870712D01*
Y21869698D01*
X6569387Y21868852D01*
Y21868089D01*
X6569472Y21867413D01*
Y21866907D01*
Y21866483D01*
Y21866229D01*
Y21866145D01*
Y21863438D01*
X6569387Y21860985D01*
X6569218Y21858702D01*
X6569049Y21856503D01*
X6568795Y21854556D01*
X6568541Y21852782D01*
X6568288Y21851173D01*
X6568034Y21849736D01*
X6567780Y21848466D01*
X6567526Y21847368D01*
X6567273Y21846437D01*
X6567019Y21845676D01*
X6566850Y21845084D01*
X6566681Y21844661D01*
X6566596Y21844408D01*
Y21844324D01*
X6566004Y21843054D01*
X6565327Y21841956D01*
X6564651Y21841023D01*
X6563889Y21840178D01*
X6563128Y21839502D01*
X6562367Y21838994D01*
X6561606Y21838487D01*
X6560844Y21838148D01*
X6559491Y21837556D01*
X6558899Y21837473D01*
X6558392Y21837303D01*
X6557969D01*
X6557630Y21837218D01*
X6557377D01*
X6556192Y21837303D01*
X6555093Y21837556D01*
X6554078Y21837895D01*
X6553147Y21838318D01*
X6551540Y21839502D01*
X6550272Y21840855D01*
X6549257Y21842123D01*
X6548495Y21843307D01*
X6548326Y21843732D01*
X6548157Y21844069D01*
X6547988Y21844324D01*
Y21844408D01*
X6547480Y21845845D01*
X6546973Y21847368D01*
X6546635Y21849059D01*
X6546296Y21850836D01*
X6545789Y21854472D01*
X6545366Y21857941D01*
X6545281Y21859631D01*
X6545197Y21861156D01*
X6545112Y21862593D01*
Y21863777D01*
X6545028Y21864792D01*
Y21865468D01*
Y21865976D01*
Y21866145D01*
Y21868852D01*
X6545197Y21871388D01*
X6545281Y21873756D01*
X6545535Y21875957D01*
X6545704Y21877902D01*
X6545958Y21879762D01*
X6546296Y21881371D01*
X6546550Y21882808D01*
X6546804Y21884076D01*
X6547142Y21885176D01*
X6547396Y21886105D01*
X6547565Y21886783D01*
X6547819Y21887375D01*
X6547903Y21887798D01*
X6548073Y21888052D01*
Y21888136D01*
X6548665Y21889404D01*
X6549341Y21890421D01*
X6550018Y21891435D01*
X6550779Y21892197D01*
X6551540Y21892873D01*
X6552386Y21893465D01*
X6553147Y21893887D01*
X6553824Y21894312D01*
X6555262Y21894818D01*
X6555854Y21894904D01*
X6556362Y21895071D01*
X6556784D01*
X6557123Y21895157D01*
X6557377D01*
X6558476Y21895071D01*
D02*
G37*
G36*
X6615569Y21835188D02*
Y21833749D01*
X6615738Y21832481D01*
X6615823Y21831551D01*
X6615992Y21830791D01*
X6616161Y21830199D01*
X6616330Y21829774D01*
X6616415Y21829607D01*
X6616499Y21829521D01*
X6616922Y21829013D01*
X6617514Y21828674D01*
X6618191Y21828337D01*
X6618868Y21828168D01*
X6619460Y21828082D01*
X6619967Y21827998D01*
X6621405D01*
X6622505Y21828082D01*
X6622928D01*
X6623350Y21828168D01*
X6623689D01*
X6622843Y21821570D01*
X6621574Y21821400D01*
X6620559Y21821317D01*
X6620136Y21821233D01*
X6619544D01*
X6618529Y21821317D01*
X6617599Y21821400D01*
X6615823Y21821909D01*
X6614300Y21822670D01*
X6613031Y21823599D01*
X6611932Y21824783D01*
X6611002Y21826053D01*
X6610325Y21827406D01*
X6609733Y21828844D01*
X6609225Y21830199D01*
X6608887Y21831551D01*
X6608633Y21832904D01*
X6608464Y21834004D01*
X6608379Y21835019D01*
X6608295Y21835695D01*
Y21836203D01*
Y21836372D01*
Y21894565D01*
X6615569D01*
Y21835188D01*
D02*
G37*
G36*
X6155374Y21107201D02*
X6156897Y21106863D01*
X6158419Y21106355D01*
X6159688Y21105763D01*
X6160788Y21105257D01*
X6161633Y21104749D01*
X6161887Y21104495D01*
X6162141Y21104410D01*
X6162225Y21104240D01*
X6162310D01*
Y21096544D01*
X6161464Y21097221D01*
X6160703Y21097897D01*
X6159180Y21098912D01*
X6157912Y21099590D01*
X6156728Y21100096D01*
X6155882Y21100349D01*
X6155205Y21100519D01*
X6154782Y21100604D01*
X6154613D01*
X6153767Y21100519D01*
X6153006Y21100349D01*
X6152329Y21100096D01*
X6151653Y21099757D01*
X6150553Y21098997D01*
X6149623Y21097981D01*
X6148946Y21097052D01*
X6148439Y21096207D01*
X6148354Y21095952D01*
X6148185Y21095699D01*
X6148100Y21095529D01*
Y21095444D01*
X6147762Y21094429D01*
X6147424Y21093245D01*
X6147170Y21091977D01*
X6147001Y21090623D01*
X6146662Y21087833D01*
X6146409Y21085040D01*
X6146324Y21083688D01*
X6146239Y21082419D01*
Y21081319D01*
X6146155Y21080389D01*
Y21079543D01*
Y21078951D01*
Y21078613D01*
Y21078442D01*
Y21076329D01*
X6146239Y21074300D01*
X6146324Y21072438D01*
X6146493Y21070747D01*
X6146578Y21069225D01*
X6146747Y21067871D01*
X6146916Y21066602D01*
X6147170Y21065501D01*
X6147339Y21064572D01*
X6147508Y21063725D01*
X6147677Y21062965D01*
X6147762Y21062457D01*
X6147931Y21062035D01*
X6148016Y21061696D01*
X6148100Y21061526D01*
Y21061443D01*
X6148523Y21060512D01*
X6148946Y21059750D01*
X6149369Y21059074D01*
X6149876Y21058482D01*
X6150384Y21057974D01*
X6150976Y21057552D01*
X6151991Y21056960D01*
X6152921Y21056537D01*
X6153683Y21056367D01*
X6154190Y21056284D01*
X6154359D01*
X6155713Y21056451D01*
X6157066Y21056790D01*
X6158250Y21057384D01*
X6159350Y21057974D01*
X6160280Y21058652D01*
X6161041Y21059242D01*
X6161464Y21059583D01*
X6161633Y21059750D01*
Y21052477D01*
X6160026Y21051462D01*
X6158588Y21050784D01*
X6157320Y21050278D01*
X6156136Y21049855D01*
X6155205Y21049686D01*
X6154444Y21049602D01*
X6154021Y21049516D01*
X6153852D01*
X6152498Y21049602D01*
X6151230Y21049855D01*
X6150046Y21050192D01*
X6148946Y21050700D01*
X6147931Y21051292D01*
X6147001Y21051968D01*
X6146155Y21052646D01*
X6145394Y21053407D01*
X6144717Y21054169D01*
X6144125Y21054845D01*
X6143617Y21055522D01*
X6143194Y21056114D01*
X6142856Y21056537D01*
X6142602Y21056960D01*
X6142518Y21057213D01*
X6142433Y21057298D01*
X6141757Y21058820D01*
X6141165Y21060428D01*
X6140150Y21063895D01*
X6139473Y21067532D01*
X6139219Y21069225D01*
X6139050Y21070917D01*
X6138881Y21072523D01*
X6138712Y21074045D01*
X6138627Y21075398D01*
Y21076498D01*
X6138542Y21077429D01*
Y21078191D01*
Y21078613D01*
Y21078783D01*
X6138627Y21081319D01*
X6138712Y21083688D01*
X6138881Y21085887D01*
X6139135Y21087917D01*
X6139473Y21089777D01*
X6139811Y21091554D01*
X6140150Y21093161D01*
X6140488Y21094598D01*
X6140826Y21095866D01*
X6141165Y21096967D01*
X6141503Y21097897D01*
X6141841Y21098659D01*
X6142095Y21099251D01*
X6142264Y21099673D01*
X6142433Y21099927D01*
Y21100012D01*
X6143194Y21101282D01*
X6144040Y21102464D01*
X6144971Y21103395D01*
X6145901Y21104240D01*
X6146831Y21105002D01*
X6147762Y21105594D01*
X6148692Y21106017D01*
X6149538Y21106441D01*
X6150384Y21106778D01*
X6151145Y21106947D01*
X6151906Y21107117D01*
X6152498Y21107286D01*
X6153006D01*
X6153344Y21107372D01*
X6153683D01*
X6155374Y21107201D01*
D02*
G37*
G36*
X6217204Y21089948D02*
X6218134Y21087917D01*
X6218895Y21085971D01*
X6219572Y21084026D01*
X6220164Y21082082D01*
X6220672Y21080220D01*
X6221010Y21078442D01*
X6221348Y21076752D01*
X6221687Y21075145D01*
X6221856Y21073708D01*
X6222025Y21072354D01*
X6222109Y21071169D01*
X6222194Y21070154D01*
X6222279Y21069392D01*
Y21068800D01*
Y21068378D01*
Y21068294D01*
Y21066687D01*
X6222109Y21065250D01*
X6222025Y21063811D01*
X6221771Y21062543D01*
X6221517Y21061273D01*
X6221264Y21060175D01*
X6221010Y21059158D01*
X6220672Y21058228D01*
X6220333Y21057468D01*
X6220080Y21056706D01*
X6219826Y21056114D01*
X6219572Y21055606D01*
X6219403Y21055183D01*
X6219234Y21054930D01*
X6219065Y21054761D01*
Y21054675D01*
X6218472Y21053830D01*
X6217796Y21052985D01*
X6217119Y21052393D01*
X6216442Y21051801D01*
X6215681Y21051292D01*
X6215005Y21050870D01*
X6213651Y21050278D01*
X6212467Y21049939D01*
X6211537Y21049770D01*
X6211198Y21049686D01*
X6210691D01*
X6209761Y21049770D01*
X6208915Y21049939D01*
X6208069Y21050192D01*
X6207308Y21050531D01*
X6205785Y21051376D01*
X6204601Y21052309D01*
X6203586Y21053238D01*
X6202825Y21054083D01*
X6202571Y21054422D01*
X6202402Y21054675D01*
X6202317Y21054845D01*
X6202233Y21054930D01*
X6201133Y21056960D01*
X6200287Y21059158D01*
X6199695Y21061359D01*
X6199272Y21063472D01*
X6199103Y21064403D01*
X6199019Y21065250D01*
X6198934Y21066095D01*
Y21066687D01*
X6198849Y21067279D01*
Y21067702D01*
Y21067955D01*
Y21068040D01*
X6198934Y21070831D01*
X6199272Y21073283D01*
X6199526Y21074384D01*
X6199780Y21075398D01*
X6200034Y21076329D01*
X6200287Y21077174D01*
X6200541Y21077936D01*
X6200795Y21078613D01*
X6201049Y21079205D01*
X6201302Y21079712D01*
X6201471Y21080051D01*
X6201641Y21080304D01*
X6201725Y21080473D01*
Y21080557D01*
X6202317Y21081404D01*
X6202909Y21082082D01*
X6203501Y21082758D01*
X6204178Y21083266D01*
X6205447Y21084109D01*
X6206716Y21084703D01*
X6207731Y21085040D01*
X6208661Y21085210D01*
X6208999Y21085295D01*
X6209422D01*
X6210437Y21085210D01*
X6211368Y21085126D01*
X6211790Y21085040D01*
X6212129D01*
X6212383Y21084956D01*
X6212467D01*
X6202064Y21106609D01*
X6209168D01*
X6217204Y21089948D01*
D02*
G37*
G36*
X6182948Y21050278D02*
X6175674D01*
Y21106609D01*
X6182948D01*
Y21050278D01*
D02*
G37*
G36*
X6903531Y17532378D02*
X6905983Y17532039D01*
X6907083Y17531786D01*
X6908098Y17531532D01*
X6909028Y17531277D01*
X6909959Y17531024D01*
X6910720Y17530685D01*
X6911312Y17530432D01*
X6911904Y17530177D01*
X6912412Y17530009D01*
X6912750Y17529755D01*
X6913004Y17529671D01*
X6913173Y17529501D01*
X6913257D01*
X6914103Y17528909D01*
X6914865Y17528317D01*
X6915457Y17527725D01*
X6915964Y17527133D01*
X6916810Y17525865D01*
X6917402Y17524596D01*
X6917740Y17523581D01*
X6917909Y17522652D01*
X6917994Y17522311D01*
Y17521889D01*
X6917909Y17520874D01*
X6917740Y17519859D01*
X6917656Y17519437D01*
X6917571Y17519183D01*
X6917487Y17518929D01*
Y17518845D01*
X6939732Y17529671D01*
Y17522397D01*
X6922731Y17514108D01*
X6920785Y17513177D01*
X6918755Y17512416D01*
X6916810Y17511739D01*
X6914865Y17511147D01*
X6913004Y17510724D01*
X6911143Y17510303D01*
X6909451Y17509962D01*
X6907844Y17509709D01*
X6906322Y17509456D01*
X6904968Y17509286D01*
X6903784Y17509203D01*
X6902769Y17509117D01*
X6901923Y17509033D01*
X6901331D01*
X6900993D01*
X6900824D01*
X6899217D01*
X6897694Y17509203D01*
X6896256Y17509370D01*
X6894903Y17509540D01*
X6893634Y17509795D01*
X6892535Y17510048D01*
X6891520Y17510387D01*
X6890589Y17510724D01*
X6889828Y17510979D01*
X6889067Y17511317D01*
X6888475Y17511571D01*
X6887967Y17511824D01*
X6887629Y17511993D01*
X6887375Y17512161D01*
X6887206Y17512331D01*
X6887122D01*
X6886276Y17513008D01*
X6885599Y17513600D01*
X6884922Y17514278D01*
X6884415Y17515038D01*
X6883569Y17516391D01*
X6882977Y17517661D01*
X6882639Y17518845D01*
X6882470Y17519690D01*
X6882385Y17520029D01*
Y17520535D01*
X6882470Y17521466D01*
X6882639Y17522311D01*
X6882893Y17523158D01*
X6883231Y17524004D01*
X6884077Y17525443D01*
X6885007Y17526627D01*
X6885937Y17527641D01*
X6886783Y17528403D01*
X6887122Y17528656D01*
X6887375Y17528825D01*
X6887545Y17528995D01*
X6887629D01*
X6889659Y17530177D01*
X6891858Y17531024D01*
X6894057Y17531616D01*
X6896172Y17532039D01*
X6897102Y17532208D01*
X6897948Y17532294D01*
X6898794Y17532378D01*
X6899471D01*
X6899978Y17532462D01*
X6900401D01*
X6900655D01*
X6900739D01*
X6903531Y17532378D01*
D02*
G37*
G36*
X6939732Y17493047D02*
X6897018D01*
X6895749Y17492963D01*
X6894565Y17492793D01*
X6893634Y17492538D01*
X6892789Y17492287D01*
X6892197Y17492032D01*
X6891689Y17491779D01*
X6891435Y17491609D01*
X6891351Y17491524D01*
X6890674Y17490932D01*
X6890251Y17490340D01*
X6889913Y17489664D01*
X6889659Y17489072D01*
X6889490Y17488564D01*
X6889405Y17488141D01*
Y17487718D01*
X6889490Y17486787D01*
X6889744Y17486026D01*
X6890167Y17485265D01*
X6890674Y17484673D01*
X6891266Y17484166D01*
X6891943Y17483743D01*
X6893381Y17483151D01*
X6894819Y17482729D01*
X6895495Y17482643D01*
X6896087Y17482559D01*
X6896595Y17482474D01*
X6897018D01*
X6897271D01*
X6897356D01*
X6939732D01*
Y17475200D01*
X6897271D01*
X6894988Y17475369D01*
X6892873Y17475792D01*
X6891097Y17476300D01*
X6889574Y17476976D01*
X6888306Y17477654D01*
X6887883Y17477907D01*
X6887460Y17478160D01*
X6887122Y17478413D01*
X6886868Y17478583D01*
X6886783Y17478752D01*
X6886699D01*
X6886022Y17479430D01*
X6885345Y17480190D01*
X6884330Y17481628D01*
X6883654Y17483151D01*
X6883146Y17484589D01*
X6882893Y17485857D01*
X6882723Y17486787D01*
X6882639Y17487212D01*
Y17487718D01*
X6882723Y17488649D01*
X6882808Y17489578D01*
X6883231Y17491270D01*
X6883907Y17492708D01*
X6884584Y17494061D01*
X6885261Y17495078D01*
X6885937Y17495837D01*
X6886360Y17496346D01*
X6886530Y17496515D01*
X6887291Y17497191D01*
X6888137Y17497783D01*
X6889913Y17498714D01*
X6891858Y17499390D01*
X6893634Y17499812D01*
X6895326Y17500153D01*
X6896003Y17500237D01*
X6896679D01*
X6897187Y17500320D01*
X6897525D01*
X6897779D01*
X6897864D01*
X6939732D01*
Y17493047D01*
D02*
G37*
G36*
X5663733Y21234010D02*
X5663564Y21231726D01*
X5663141Y21229613D01*
X5662634Y21227837D01*
X5661957Y21226312D01*
X5661280Y21225044D01*
X5661027Y21224622D01*
X5660773Y21224199D01*
X5660519Y21223860D01*
X5660350Y21223607D01*
X5660181Y21223521D01*
Y21223438D01*
X5659504Y21222762D01*
X5658743Y21222084D01*
X5657305Y21221069D01*
X5655782Y21220392D01*
X5654345Y21219885D01*
X5653076Y21219630D01*
X5652145Y21219463D01*
X5651723Y21219377D01*
X5651215D01*
X5650285Y21219463D01*
X5649354Y21219547D01*
X5647663Y21219969D01*
X5646225Y21220647D01*
X5644871Y21221323D01*
X5643856Y21221999D01*
X5643095Y21222676D01*
X5642588Y21223099D01*
X5642418Y21223268D01*
X5641742Y21224030D01*
X5641150Y21224875D01*
X5640219Y21226651D01*
X5639543Y21228596D01*
X5639120Y21230373D01*
X5638781Y21232065D01*
X5638697Y21232741D01*
Y21233418D01*
X5638612Y21233926D01*
Y21234264D01*
Y21234518D01*
Y21234602D01*
Y21276469D01*
X5645886D01*
Y21233755D01*
X5645971Y21232487D01*
X5646140Y21231303D01*
X5646394Y21230373D01*
X5646648Y21229527D01*
X5646901Y21228935D01*
X5647155Y21228429D01*
X5647324Y21228174D01*
X5647409Y21228088D01*
X5648001Y21227412D01*
X5648593Y21226990D01*
X5649270Y21226651D01*
X5649862Y21226398D01*
X5650369Y21226228D01*
X5650792Y21226144D01*
X5651215D01*
X5652145Y21226228D01*
X5652907Y21226482D01*
X5653668Y21226904D01*
X5654260Y21227412D01*
X5654767Y21228004D01*
X5655190Y21228680D01*
X5655782Y21230119D01*
X5656205Y21231557D01*
X5656290Y21232234D01*
X5656375Y21232826D01*
X5656459Y21233333D01*
Y21233755D01*
Y21234010D01*
Y21234094D01*
Y21276469D01*
X5663733D01*
Y21234010D01*
D02*
G37*
G36*
X5622288Y21220139D02*
X5615014D01*
Y21276469D01*
X5622288D01*
Y21220139D01*
D02*
G37*
G36*
X5591500D02*
X5584226D01*
Y21276469D01*
X5591500D01*
Y21220139D01*
D02*
G37*
G36*
X7531110Y21411411D02*
X7532548Y21411156D01*
X7533902Y21410818D01*
X7535170Y21410480D01*
X7536185Y21410141D01*
X7537031Y21409802D01*
X7537369Y21409634D01*
X7537623Y21409549D01*
X7537708Y21409464D01*
X7537792D01*
Y21401936D01*
X7536354Y21402528D01*
X7535170Y21403036D01*
X7534071Y21403375D01*
X7533140Y21403545D01*
X7532464Y21403712D01*
X7531956Y21403796D01*
X7531533D01*
X7530349Y21403712D01*
X7529334Y21403375D01*
X7528404Y21402953D01*
X7527643Y21402528D01*
X7527050Y21402020D01*
X7526543Y21401598D01*
X7526289Y21401260D01*
X7526205Y21401175D01*
X7525528Y21400160D01*
X7525021Y21399062D01*
X7524682Y21397878D01*
X7524428Y21396777D01*
X7524259Y21395847D01*
X7524175Y21395001D01*
Y21394493D01*
Y21394409D01*
Y21394324D01*
Y21392970D01*
X7524344Y21391533D01*
X7524767Y21388573D01*
X7525528Y21385529D01*
X7526458Y21382314D01*
X7527643Y21379099D01*
X7528827Y21375885D01*
X7530180Y21372755D01*
X7531533Y21369711D01*
X7532971Y21366835D01*
X7534325Y21364214D01*
X7535509Y21361760D01*
X7536101Y21360745D01*
X7536693Y21359731D01*
X7537200Y21358800D01*
X7537623Y21358038D01*
X7537962Y21357362D01*
X7538300Y21356770D01*
X7538638Y21356262D01*
X7538807Y21355923D01*
X7538892Y21355756D01*
X7538977Y21355670D01*
Y21354572D01*
X7515547D01*
Y21361760D01*
X7528742D01*
X7527558Y21364044D01*
X7526458Y21366243D01*
X7525443Y21368358D01*
X7524513Y21370303D01*
X7523752Y21372079D01*
X7522991Y21373686D01*
X7522314Y21375209D01*
X7521722Y21376562D01*
X7521130Y21377831D01*
X7520707Y21378847D01*
X7520368Y21379776D01*
X7520030Y21380537D01*
X7519776Y21381129D01*
X7519607Y21381552D01*
X7519523Y21381805D01*
Y21381891D01*
X7518592Y21384596D01*
X7517916Y21387219D01*
X7517408Y21389503D01*
X7517239Y21390604D01*
X7517070Y21391618D01*
X7516985Y21392464D01*
X7516901Y21393309D01*
X7516816Y21393987D01*
X7516731Y21394579D01*
Y21395085D01*
Y21395424D01*
Y21395593D01*
Y21395679D01*
X7516901Y21398300D01*
X7517239Y21400583D01*
X7517831Y21402612D01*
X7518169Y21403459D01*
X7518423Y21404221D01*
X7518761Y21404897D01*
X7519100Y21405574D01*
X7519354Y21406081D01*
X7519692Y21406503D01*
X7519861Y21406842D01*
X7520030Y21407095D01*
X7520199Y21407181D01*
Y21407265D01*
X7520876Y21408028D01*
X7521637Y21408704D01*
X7522398Y21409212D01*
X7523160Y21409718D01*
X7524682Y21410480D01*
X7526205Y21410986D01*
X7527558Y21411241D01*
X7528150Y21411411D01*
X7528658D01*
X7529080Y21411494D01*
X7529673D01*
X7531110Y21411411D01*
D02*
G37*
G36*
X7553271Y21411578D02*
X7554540Y21411325D01*
X7555724Y21410986D01*
X7556823Y21410480D01*
X7557838Y21409888D01*
X7558769Y21409212D01*
X7559615Y21408534D01*
X7560376Y21407773D01*
X7561052Y21407011D01*
X7561645Y21406335D01*
X7562152Y21405658D01*
X7562575Y21405066D01*
X7562913Y21404643D01*
X7563167Y21404221D01*
X7563252Y21403967D01*
X7563336Y21403882D01*
X7564013Y21402361D01*
X7564605Y21400752D01*
X7565620Y21397285D01*
X7566297Y21393648D01*
X7566550Y21391956D01*
X7566719Y21390263D01*
X7566889Y21388657D01*
X7567058Y21387135D01*
X7567142Y21385780D01*
Y21384682D01*
X7567227Y21383751D01*
Y21382990D01*
Y21382567D01*
Y21382397D01*
X7567142Y21379861D01*
X7567058Y21377492D01*
X7566889Y21375293D01*
X7566635Y21373264D01*
X7566297Y21371404D01*
X7565958Y21369626D01*
X7565620Y21368019D01*
X7565282Y21366582D01*
X7564943Y21365314D01*
X7564605Y21364214D01*
X7564267Y21363283D01*
X7563928Y21362521D01*
X7563674Y21361929D01*
X7563505Y21361507D01*
X7563336Y21361253D01*
Y21361168D01*
X7562575Y21359898D01*
X7561729Y21358714D01*
X7560799Y21357785D01*
X7559868Y21356940D01*
X7558938Y21356178D01*
X7558007Y21355586D01*
X7557077Y21355164D01*
X7556231Y21354739D01*
X7555385Y21354402D01*
X7554624Y21354231D01*
X7553863Y21354063D01*
X7553271Y21353894D01*
X7552763D01*
X7552425Y21353809D01*
X7552087D01*
X7550395Y21353979D01*
X7548873Y21354317D01*
X7547350Y21354823D01*
X7546081Y21355417D01*
X7544982Y21355923D01*
X7544136Y21356432D01*
X7543882Y21356685D01*
X7543629Y21356770D01*
X7543544Y21356940D01*
X7543459D01*
Y21364636D01*
X7544305Y21363959D01*
X7545066Y21363283D01*
X7546589Y21362268D01*
X7547858Y21361591D01*
X7549042Y21361084D01*
X7549888Y21360831D01*
X7550564Y21360661D01*
X7550987Y21360576D01*
X7551156D01*
X7552002Y21360661D01*
X7552763Y21360831D01*
X7553440Y21361084D01*
X7554117Y21361423D01*
X7555216Y21362183D01*
X7556147Y21363197D01*
X7556823Y21364128D01*
X7557331Y21364973D01*
X7557415Y21365228D01*
X7557585Y21365482D01*
X7557669Y21365651D01*
Y21365736D01*
X7558007Y21366751D01*
X7558346Y21367935D01*
X7558600Y21369203D01*
X7558769Y21370557D01*
X7559107Y21373347D01*
X7559361Y21376138D01*
X7559445Y21377492D01*
X7559530Y21378761D01*
Y21379861D01*
X7559615Y21380791D01*
Y21381638D01*
Y21382230D01*
Y21382567D01*
Y21382738D01*
Y21384851D01*
X7559530Y21386880D01*
X7559445Y21388742D01*
X7559276Y21390433D01*
X7559192Y21391956D01*
X7559022Y21393309D01*
X7558853Y21394579D01*
X7558600Y21395679D01*
X7558430Y21396608D01*
X7558261Y21397453D01*
X7558092Y21398215D01*
X7558007Y21398723D01*
X7557838Y21399146D01*
X7557754Y21399484D01*
X7557669Y21399654D01*
Y21399738D01*
X7557246Y21400668D01*
X7556823Y21401430D01*
X7556400Y21402106D01*
X7555893Y21402698D01*
X7555385Y21403204D01*
X7554793Y21403629D01*
X7553778Y21404221D01*
X7552848Y21404643D01*
X7552087Y21404813D01*
X7551579Y21404897D01*
X7551410D01*
X7550057Y21404729D01*
X7548703Y21404388D01*
X7547519Y21403796D01*
X7546420Y21403204D01*
X7545489Y21402528D01*
X7544728Y21401936D01*
X7544305Y21401598D01*
X7544136Y21401430D01*
Y21408704D01*
X7545743Y21409718D01*
X7547181Y21410394D01*
X7548450Y21410902D01*
X7549634Y21411325D01*
X7550564Y21411494D01*
X7551326Y21411578D01*
X7551748Y21411664D01*
X7551918D01*
X7553271Y21411578D01*
D02*
G37*
G36*
X7508781Y21376562D02*
Y21370049D01*
X7494063D01*
Y21354572D01*
X7486789D01*
Y21370049D01*
X7483660D01*
Y21375209D01*
X7486789D01*
Y21411494D01*
X7493641D01*
X7508781Y21376562D01*
D02*
G37*
G36*
X7073881Y18135870D02*
X7075319Y18135619D01*
X7076672Y18135278D01*
X7077941Y18134941D01*
X7078956Y18134602D01*
X7079801Y18134264D01*
X7080140Y18134094D01*
X7080394Y18134010D01*
X7080478Y18133926D01*
X7080563D01*
Y18126398D01*
X7079125Y18126990D01*
X7077941Y18127498D01*
X7076841Y18127837D01*
X7075911Y18128004D01*
X7075234Y18128174D01*
X7074727Y18128259D01*
X7074304D01*
X7073119Y18128174D01*
X7072104Y18127837D01*
X7071174Y18127412D01*
X7070413Y18126990D01*
X7069821Y18126483D01*
X7069313Y18126060D01*
X7069060Y18125722D01*
X7068975Y18125636D01*
X7068298Y18124622D01*
X7067791Y18123521D01*
X7067452Y18122337D01*
X7067199Y18121239D01*
X7067030Y18120308D01*
X7066945Y18119463D01*
Y18118954D01*
Y18118871D01*
Y18118787D01*
Y18117432D01*
X7067114Y18115994D01*
X7067537Y18113034D01*
X7068298Y18109988D01*
X7069229Y18106775D01*
X7070413Y18103561D01*
X7071597Y18100346D01*
X7072950Y18097217D01*
X7074304Y18094173D01*
X7075742Y18091296D01*
X7077095Y18088675D01*
X7078279Y18086221D01*
X7078871Y18085207D01*
X7079463Y18084192D01*
X7079971Y18083261D01*
X7080394Y18082500D01*
X7080732Y18081824D01*
X7081070Y18081232D01*
X7081408Y18080724D01*
X7081578Y18080385D01*
X7081662Y18080215D01*
X7081747Y18080132D01*
Y18079031D01*
X7058318D01*
Y18086221D01*
X7071512D01*
X7070328Y18088506D01*
X7069229Y18090704D01*
X7068214Y18092819D01*
X7067283Y18094765D01*
X7066522Y18096541D01*
X7065761Y18098148D01*
X7065084Y18099670D01*
X7064492Y18101022D01*
X7063900Y18102292D01*
X7063477Y18103307D01*
X7063139Y18104237D01*
X7062800Y18104999D01*
X7062547Y18105591D01*
X7062378Y18106013D01*
X7062293Y18106268D01*
Y18106352D01*
X7061363Y18109059D01*
X7060686Y18111681D01*
X7060178Y18113965D01*
X7060009Y18115063D01*
X7059840Y18116080D01*
X7059756Y18116925D01*
X7059671Y18117770D01*
X7059586Y18118446D01*
X7059502Y18119038D01*
Y18119547D01*
Y18119885D01*
Y18120055D01*
Y18120139D01*
X7059671Y18122762D01*
X7060009Y18125044D01*
X7060601Y18127075D01*
X7060940Y18127921D01*
X7061193Y18128682D01*
X7061532Y18129358D01*
X7061870Y18130035D01*
X7062124Y18130544D01*
X7062462Y18130966D01*
X7062631Y18131303D01*
X7062800Y18131558D01*
X7062970Y18131642D01*
Y18131728D01*
X7063646Y18132487D01*
X7064408Y18133165D01*
X7065169Y18133672D01*
X7065930Y18134180D01*
X7067452Y18134941D01*
X7068975Y18135448D01*
X7070328Y18135703D01*
X7070920Y18135870D01*
X7071428D01*
X7071851Y18135956D01*
X7072443D01*
X7073881Y18135870D01*
D02*
G37*
G36*
X7158970Y18079031D02*
X7151696D01*
Y18105083D01*
X7142223D01*
Y18111850D01*
X7151696D01*
Y18128596D01*
X7141462D01*
Y18135364D01*
X7158970D01*
Y18079031D01*
D02*
G37*
G36*
X7131819D02*
X7124545D01*
Y18135364D01*
X7131819D01*
Y18079031D01*
D02*
G37*
G36*
X7115157D02*
X7106191D01*
X7104584Y18079117D01*
X7103146Y18079370D01*
X7101708Y18079709D01*
X7100439Y18080132D01*
X7099171Y18080640D01*
X7098071Y18081232D01*
X7097056Y18081908D01*
X7096126Y18082585D01*
X7095365Y18083177D01*
X7094603Y18083853D01*
X7094011Y18084445D01*
X7093504Y18084953D01*
X7093165Y18085376D01*
X7092912Y18085715D01*
X7092742Y18085968D01*
X7092658Y18086052D01*
X7091812Y18087489D01*
X7091051Y18089014D01*
X7090459Y18090620D01*
X7089867Y18092397D01*
X7089359Y18094089D01*
X7089021Y18095863D01*
X7088429Y18099332D01*
X7088260Y18100854D01*
X7088090Y18102377D01*
X7088006Y18103729D01*
X7087921Y18104913D01*
X7087837Y18105846D01*
Y18106606D01*
Y18107030D01*
Y18107198D01*
X7087921Y18109735D01*
X7088090Y18112189D01*
X7088344Y18114388D01*
X7088683Y18116502D01*
X7089105Y18118446D01*
X7089613Y18120224D01*
X7090205Y18121915D01*
X7090882Y18123521D01*
X7091558Y18124876D01*
X7092320Y18126228D01*
X7093165Y18127412D01*
X7093927Y18128513D01*
X7094857Y18129443D01*
X7095703Y18130373D01*
X7096633Y18131136D01*
X7097479Y18131812D01*
X7099340Y18132996D01*
X7101116Y18133841D01*
X7102723Y18134518D01*
X7104161Y18134941D01*
X7105430Y18135194D01*
X7105937Y18135278D01*
X7106360D01*
X7106699Y18135364D01*
X7115157D01*
Y18079031D01*
D02*
G37*
G36*
X5597770Y22276112D02*
X5598701Y22274165D01*
X5599462Y22272136D01*
X5600139Y22270190D01*
X5600731Y22268246D01*
X5601154Y22266385D01*
X5601577Y22264523D01*
X5601915Y22262833D01*
X5602169Y22261224D01*
X5602422Y22259703D01*
X5602592Y22258350D01*
X5602676Y22257166D01*
X5602761Y22256149D01*
X5602845Y22255304D01*
Y22254712D01*
Y22254375D01*
Y22254205D01*
Y22252599D01*
X5602676Y22251076D01*
X5602507Y22249637D01*
X5602338Y22248283D01*
X5602084Y22247015D01*
X5601830Y22245917D01*
X5601492Y22244901D01*
X5601154Y22243970D01*
X5600900Y22243208D01*
X5600562Y22242448D01*
X5600308Y22241856D01*
X5600054Y22241348D01*
X5599885Y22241010D01*
X5599716Y22240756D01*
X5599547Y22240587D01*
Y22240503D01*
X5598870Y22239658D01*
X5598278Y22238980D01*
X5597601Y22238304D01*
X5596840Y22237796D01*
X5595487Y22236951D01*
X5594218Y22236359D01*
X5593034Y22236020D01*
X5592188Y22235851D01*
X5591850Y22235767D01*
X5591342D01*
X5590412Y22235851D01*
X5589566Y22236020D01*
X5588720Y22236275D01*
X5587874Y22236612D01*
X5586436Y22237457D01*
X5585252Y22238388D01*
X5584237Y22239317D01*
X5583476Y22240164D01*
X5583222Y22240503D01*
X5583053Y22240756D01*
X5582884Y22240926D01*
Y22241010D01*
X5581700Y22243040D01*
X5580854Y22245239D01*
X5580262Y22247438D01*
X5579839Y22249553D01*
X5579670Y22250484D01*
X5579585Y22251329D01*
X5579501Y22252174D01*
Y22252852D01*
X5579416Y22253358D01*
Y22253783D01*
Y22254036D01*
Y22254120D01*
X5579501Y22256912D01*
X5579839Y22259364D01*
X5580093Y22260464D01*
X5580346Y22261479D01*
X5580600Y22262408D01*
X5580854Y22263341D01*
X5581192Y22264101D01*
X5581446Y22264693D01*
X5581700Y22265285D01*
X5581869Y22265793D01*
X5582123Y22266132D01*
X5582207Y22266385D01*
X5582376Y22266554D01*
Y22266638D01*
X5582969Y22267484D01*
X5583561Y22268246D01*
X5584153Y22268839D01*
X5584745Y22269345D01*
X5586013Y22270190D01*
X5587282Y22270782D01*
X5588297Y22271121D01*
X5589228Y22271291D01*
X5589566Y22271375D01*
X5589989D01*
X5591004Y22271291D01*
X5592019Y22271121D01*
X5592442Y22271037D01*
X5592695Y22270952D01*
X5592949Y22270868D01*
X5593034D01*
X5582207Y22293114D01*
X5589481D01*
X5597770Y22276112D01*
D02*
G37*
G36*
X5681337Y22236781D02*
X5674063D01*
Y22262833D01*
X5664590D01*
Y22269598D01*
X5674063D01*
Y22286346D01*
X5663829D01*
Y22293114D01*
X5681337D01*
Y22236781D01*
D02*
G37*
G36*
X5654187D02*
X5646913D01*
Y22293114D01*
X5654187D01*
Y22236781D01*
D02*
G37*
G36*
X5637524D02*
X5628558D01*
X5626951Y22236867D01*
X5625513Y22237119D01*
X5624075Y22237457D01*
X5622807Y22237881D01*
X5621538Y22238388D01*
X5620438Y22238980D01*
X5619423Y22239658D01*
X5618493Y22240334D01*
X5617732Y22240926D01*
X5616970Y22241602D01*
X5616378Y22242194D01*
X5615871Y22242702D01*
X5615533Y22243124D01*
X5615279Y22243463D01*
X5615110Y22243716D01*
X5615025Y22243800D01*
X5614179Y22245239D01*
X5613418Y22246762D01*
X5612826Y22248369D01*
X5612234Y22250145D01*
X5611726Y22251837D01*
X5611388Y22253613D01*
X5610796Y22257082D01*
X5610627Y22258603D01*
X5610458Y22260126D01*
X5610373Y22261479D01*
X5610289Y22262663D01*
X5610204Y22263594D01*
Y22264355D01*
Y22264778D01*
Y22264948D01*
X5610289Y22267484D01*
X5610458Y22269937D01*
X5610711Y22272136D01*
X5611050Y22274251D01*
X5611473Y22276196D01*
X5611980Y22277972D01*
X5612572Y22279665D01*
X5613249Y22281271D01*
X5613926Y22282623D01*
X5614687Y22283978D01*
X5615533Y22285162D01*
X5616294Y22286261D01*
X5617224Y22287192D01*
X5618070Y22288123D01*
X5619000Y22288884D01*
X5619846Y22289560D01*
X5621707Y22290744D01*
X5623483Y22291589D01*
X5625090Y22292267D01*
X5626528Y22292690D01*
X5627797Y22292943D01*
X5628304Y22293028D01*
X5628727D01*
X5629066Y22293114D01*
X5637524D01*
Y22236781D01*
D02*
G37*
G36*
X6559041Y19486090D02*
X6559887Y19485921D01*
X6560733Y19485667D01*
X6561494Y19485329D01*
X6563016Y19484483D01*
X6564200Y19483553D01*
X6565215Y19482622D01*
X6565977Y19481776D01*
X6566230Y19481438D01*
X6566400Y19481184D01*
X6566484Y19481015D01*
X6566569Y19480930D01*
X6567668Y19478900D01*
X6568514Y19476701D01*
X6569106Y19474503D01*
X6569529Y19472388D01*
X6569698Y19471457D01*
X6569783Y19470612D01*
X6569867Y19469765D01*
Y19469173D01*
X6569952Y19468581D01*
Y19468158D01*
Y19467905D01*
Y19467821D01*
X6569867Y19465028D01*
X6569529Y19462576D01*
X6569275Y19461476D01*
X6569022Y19460461D01*
X6568768Y19459531D01*
X6568514Y19458685D01*
X6568260Y19457924D01*
X6568007Y19457246D01*
X6567753Y19456654D01*
X6567499Y19456148D01*
X6567330Y19455809D01*
X6567161Y19455556D01*
X6567076Y19455386D01*
Y19455302D01*
X6566484Y19454456D01*
X6565892Y19453780D01*
X6565300Y19453104D01*
X6564623Y19452596D01*
X6563355Y19451750D01*
X6562086Y19451157D01*
X6561071Y19450819D01*
X6560141Y19450650D01*
X6559802Y19450565D01*
X6559379D01*
X6558364Y19450650D01*
X6557434Y19450735D01*
X6557011Y19450819D01*
X6556673D01*
X6556419Y19450903D01*
X6556334D01*
X6566738Y19429251D01*
X6559633D01*
X6551598Y19445914D01*
X6550667Y19447943D01*
X6549906Y19449889D01*
X6549229Y19451834D01*
X6548637Y19453780D01*
X6548130Y19455640D01*
X6547792Y19457417D01*
X6547453Y19459108D01*
X6547115Y19460715D01*
X6546946Y19462154D01*
X6546777Y19463506D01*
X6546692Y19464691D01*
X6546607Y19465706D01*
X6546523Y19466467D01*
Y19467059D01*
Y19467482D01*
Y19467566D01*
Y19469173D01*
X6546692Y19470612D01*
X6546777Y19472049D01*
X6547030Y19473318D01*
X6547284Y19474586D01*
X6547538Y19475687D01*
X6547792Y19476701D01*
X6548130Y19477632D01*
X6548468Y19478394D01*
X6548722Y19479153D01*
X6548976Y19479745D01*
X6549229Y19480254D01*
X6549399Y19480676D01*
X6549568Y19480930D01*
X6549737Y19481099D01*
Y19481184D01*
X6550329Y19482030D01*
X6551006Y19482877D01*
X6551682Y19483469D01*
X6552359Y19484061D01*
X6553120Y19484567D01*
X6553797Y19484990D01*
X6555150Y19485582D01*
X6556334Y19485921D01*
X6557265Y19486090D01*
X6557603Y19486174D01*
X6558111D01*
X6559041Y19486090D01*
D02*
G37*
G36*
X6585515Y19486259D02*
X6586784Y19486005D01*
X6587968Y19485667D01*
X6589068Y19485159D01*
X6590083Y19484567D01*
X6591013Y19483891D01*
X6591859Y19483214D01*
X6592620Y19482452D01*
X6593297Y19481693D01*
X6593889Y19481015D01*
X6594396Y19480338D01*
X6594819Y19479745D01*
X6595157Y19479323D01*
X6595411Y19478900D01*
X6595496Y19478647D01*
X6595580Y19478561D01*
X6596257Y19477040D01*
X6596849Y19475432D01*
X6597864Y19471965D01*
X6598541Y19468327D01*
X6598795Y19466637D01*
X6598964Y19464944D01*
X6599133Y19463338D01*
X6599302Y19461815D01*
X6599387Y19460461D01*
Y19459361D01*
X6599471Y19458430D01*
Y19457671D01*
Y19457246D01*
Y19457079D01*
X6599387Y19454541D01*
X6599302Y19452171D01*
X6599133Y19449973D01*
X6598879Y19447943D01*
X6598541Y19446083D01*
X6598202Y19444305D01*
X6597864Y19442699D01*
X6597526Y19441261D01*
X6597187Y19439993D01*
X6596849Y19438893D01*
X6596511Y19437962D01*
X6596172Y19437201D01*
X6595919Y19436609D01*
X6595750Y19436186D01*
X6595580Y19435933D01*
Y19435847D01*
X6594819Y19434579D01*
X6593973Y19433395D01*
X6593043Y19432465D01*
X6592113Y19431619D01*
X6591182Y19430858D01*
X6590252Y19430266D01*
X6589321Y19429843D01*
X6588476Y19429420D01*
X6587630Y19429082D01*
X6586868Y19428912D01*
X6586107Y19428743D01*
X6585515Y19428574D01*
X6585008D01*
X6584669Y19428490D01*
X6584331D01*
X6582639Y19428659D01*
X6581117Y19428996D01*
X6579594Y19429504D01*
X6578326Y19430096D01*
X6577226Y19430605D01*
X6576380Y19431113D01*
X6576127Y19431364D01*
X6575873Y19431450D01*
X6575788Y19431619D01*
X6575704D01*
Y19439316D01*
X6576549Y19438638D01*
X6577311Y19437962D01*
X6578833Y19436948D01*
X6580102Y19436272D01*
X6581286Y19435764D01*
X6582132Y19435510D01*
X6582809Y19435341D01*
X6583231Y19435255D01*
X6583401D01*
X6584246Y19435341D01*
X6585008Y19435510D01*
X6585684Y19435764D01*
X6586361Y19436102D01*
X6587461Y19436864D01*
X6588391Y19437878D01*
X6589068Y19438808D01*
X6589575Y19439655D01*
X6589660Y19439908D01*
X6589829Y19440163D01*
X6589913Y19440331D01*
Y19440416D01*
X6590252Y19441431D01*
X6590590Y19442615D01*
X6590844Y19443883D01*
X6591013Y19445238D01*
X6591351Y19448029D01*
X6591605Y19450819D01*
X6591690Y19452171D01*
X6591774Y19453441D01*
Y19454541D01*
X6591859Y19455470D01*
Y19456317D01*
Y19456909D01*
Y19457246D01*
Y19457417D01*
Y19459531D01*
X6591774Y19461562D01*
X6591690Y19463422D01*
X6591520Y19465112D01*
X6591436Y19466637D01*
X6591267Y19467989D01*
X6591098Y19469258D01*
X6590844Y19470358D01*
X6590675Y19471288D01*
X6590505Y19472134D01*
X6590336Y19472894D01*
X6590252Y19473402D01*
X6590083Y19473825D01*
X6589998Y19474164D01*
X6589913Y19474333D01*
Y19474417D01*
X6589491Y19475348D01*
X6589068Y19476109D01*
X6588645Y19476785D01*
X6588137Y19477377D01*
X6587630Y19477885D01*
X6587038Y19478308D01*
X6586023Y19478900D01*
X6585092Y19479323D01*
X6584331Y19479492D01*
X6583824Y19479578D01*
X6583654D01*
X6582301Y19479408D01*
X6580948Y19479070D01*
X6579764Y19478477D01*
X6578664Y19477885D01*
X6577734Y19477209D01*
X6576972Y19476617D01*
X6576549Y19476279D01*
X6576380Y19476109D01*
Y19483383D01*
X6577987Y19484398D01*
X6579425Y19485075D01*
X6580694Y19485582D01*
X6581878Y19486005D01*
X6582809Y19486174D01*
X6583570Y19486259D01*
X6583993Y19486343D01*
X6584162D01*
X6585515Y19486259D01*
D02*
G37*
G36*
X5939874Y21102193D02*
X5941396Y21101854D01*
X5942919Y21101346D01*
X5944188Y21100754D01*
X5945287Y21100247D01*
X5946133Y21099739D01*
X5946387Y21099484D01*
X5946640Y21099400D01*
X5946725Y21099232D01*
X5946810D01*
Y21091534D01*
X5945964Y21092210D01*
X5945202Y21092888D01*
X5943680Y21093903D01*
X5942411Y21094580D01*
X5941227Y21095087D01*
X5940381Y21095341D01*
X5939705Y21095509D01*
X5939282Y21095595D01*
X5939113D01*
X5938267Y21095509D01*
X5937506Y21095341D01*
X5936829Y21095087D01*
X5936152Y21094749D01*
X5935053Y21093988D01*
X5934122Y21092973D01*
X5933446Y21092043D01*
X5932938Y21091196D01*
X5932854Y21090942D01*
X5932684Y21090689D01*
X5932600Y21090520D01*
Y21090434D01*
X5932261Y21089420D01*
X5931923Y21088235D01*
X5931669Y21086967D01*
X5931500Y21085614D01*
X5931162Y21082823D01*
X5930908Y21080031D01*
X5930824Y21078677D01*
X5930739Y21077409D01*
Y21076311D01*
X5930654Y21075378D01*
Y21074535D01*
Y21073943D01*
Y21073602D01*
Y21073434D01*
Y21071320D01*
X5930739Y21069290D01*
X5930824Y21067429D01*
X5930993Y21065736D01*
X5931077Y21064215D01*
X5931246Y21062862D01*
X5931416Y21061594D01*
X5931669Y21060493D01*
X5931839Y21059563D01*
X5932008Y21058717D01*
X5932177Y21057956D01*
X5932261Y21057448D01*
X5932431Y21057025D01*
X5932515Y21056686D01*
X5932600Y21056519D01*
Y21056433D01*
X5933023Y21055502D01*
X5933446Y21054741D01*
X5933868Y21054065D01*
X5934376Y21053473D01*
X5934883Y21052965D01*
X5935476Y21052542D01*
X5936491Y21051950D01*
X5937421Y21051527D01*
X5938182Y21051358D01*
X5938690Y21051274D01*
X5938859D01*
X5940212Y21051443D01*
X5941565Y21051781D01*
X5942750Y21052373D01*
X5943849Y21052965D01*
X5944780Y21053642D01*
X5945541Y21054234D01*
X5945964Y21054572D01*
X5946133Y21054741D01*
Y21047467D01*
X5944526Y21046452D01*
X5943088Y21045776D01*
X5941819Y21045268D01*
X5940635Y21044846D01*
X5939705Y21044676D01*
X5938943Y21044592D01*
X5938521Y21044507D01*
X5938351D01*
X5936998Y21044592D01*
X5935729Y21044846D01*
X5934545Y21045184D01*
X5933446Y21045691D01*
X5932431Y21046283D01*
X5931500Y21046960D01*
X5930654Y21047636D01*
X5929893Y21048398D01*
X5929216Y21049159D01*
X5928624Y21049837D01*
X5928117Y21050513D01*
X5927694Y21051105D01*
X5927356Y21051527D01*
X5927102Y21051950D01*
X5927017Y21052203D01*
X5926933Y21052289D01*
X5926256Y21053812D01*
X5925664Y21055418D01*
X5924649Y21058887D01*
X5923972Y21062523D01*
X5923719Y21064215D01*
X5923549Y21065906D01*
X5923380Y21067513D01*
X5923211Y21069035D01*
X5923127Y21070389D01*
Y21071489D01*
X5923042Y21072420D01*
Y21073180D01*
Y21073602D01*
Y21073772D01*
X5923127Y21076311D01*
X5923211Y21078677D01*
X5923380Y21080878D01*
X5923634Y21082907D01*
X5923972Y21084769D01*
X5924311Y21086543D01*
X5924649Y21088152D01*
X5924987Y21089589D01*
X5925326Y21090858D01*
X5925664Y21091959D01*
X5926002Y21092888D01*
X5926341Y21093649D01*
X5926594Y21094241D01*
X5926764Y21094664D01*
X5926933Y21094917D01*
Y21095003D01*
X5927694Y21096271D01*
X5928540Y21097455D01*
X5929470Y21098386D01*
X5930401Y21099232D01*
X5931331Y21099992D01*
X5932261Y21100584D01*
X5933192Y21101009D01*
X5934038Y21101431D01*
X5934883Y21101768D01*
X5935645Y21101938D01*
X5936406Y21102107D01*
X5936998Y21102277D01*
X5937506D01*
X5937844Y21102361D01*
X5938182D01*
X5939874Y21102193D01*
D02*
G37*
G36*
X5991723Y21102530D02*
X5992822Y21102361D01*
X5993837Y21102107D01*
X5994852Y21101768D01*
X5996713Y21101009D01*
X5998235Y21099992D01*
X5999420Y21099062D01*
X5999927Y21098640D01*
X6000350Y21098216D01*
X6000688Y21097963D01*
X6000942Y21097710D01*
X6001027Y21097540D01*
X6001111Y21097455D01*
X6001872Y21096440D01*
X6002549Y21095425D01*
X6003057Y21094325D01*
X6003564Y21093227D01*
X6004325Y21091112D01*
X6004833Y21089082D01*
X6005002Y21088152D01*
X6005087Y21087306D01*
X6005256Y21086543D01*
Y21085867D01*
X6005340Y21085361D01*
Y21084937D01*
Y21084685D01*
Y21084599D01*
X6005171Y21082060D01*
X6004833Y21079778D01*
X6004156Y21077832D01*
X6003395Y21076056D01*
X6002380Y21074535D01*
X6001365Y21073265D01*
X6000181Y21072165D01*
X5999081Y21071236D01*
X5997897Y21070474D01*
X5996713Y21069882D01*
X5995698Y21069374D01*
X5994683Y21069035D01*
X5993922Y21068782D01*
X5993245Y21068613D01*
X5992907Y21068529D01*
X5992738D01*
Y21051866D01*
X6003564D01*
Y21045268D01*
X5985633D01*
Y21074872D01*
X5986056Y21074786D01*
X5986479Y21074702D01*
X5987409Y21074535D01*
X5988508D01*
X5990031Y21074619D01*
X5991469Y21074957D01*
X5992653Y21075378D01*
X5993583Y21075887D01*
X5994345Y21076479D01*
X5994937Y21076901D01*
X5995275Y21077240D01*
X5995360Y21077325D01*
X5996205Y21078424D01*
X5996798Y21079610D01*
X5997305Y21080878D01*
X5997559Y21082060D01*
X5997728Y21083160D01*
X5997897Y21084091D01*
Y21084344D01*
Y21084599D01*
Y21084769D01*
Y21084853D01*
X5997812Y21086629D01*
X5997559Y21088152D01*
X5997136Y21089505D01*
X5996713Y21090689D01*
X5996290Y21091534D01*
X5995867Y21092210D01*
X5995613Y21092551D01*
X5995529Y21092719D01*
X5994598Y21093649D01*
X5993583Y21094411D01*
X5992484Y21094917D01*
X5991553Y21095256D01*
X5990623Y21095425D01*
X5989946Y21095509D01*
X5989439Y21095595D01*
X5989270D01*
X5988339Y21095509D01*
X5987409Y21095425D01*
X5986479Y21095172D01*
X5985548Y21094917D01*
X5984787Y21094749D01*
X5984195Y21094495D01*
X5983772Y21094411D01*
X5983603Y21094325D01*
Y21101176D01*
X5984871Y21101685D01*
X5986140Y21102023D01*
X5987324Y21102277D01*
X5988339Y21102446D01*
X5989270Y21102530D01*
X5989946Y21102615D01*
X5990538D01*
X5991723Y21102530D01*
D02*
G37*
G36*
X5967448Y21045268D02*
X5960173D01*
Y21101601D01*
X5967448D01*
Y21045268D01*
D02*
G37*
G36*
X5652873Y19948099D02*
X5627668D01*
Y19947169D01*
X5627922Y19946323D01*
X5628345Y19945647D01*
X5628852Y19945055D01*
X5629360Y19944547D01*
X5629782Y19944209D01*
X5630121Y19943954D01*
X5630205Y19943871D01*
X5630797Y19943532D01*
X5631559Y19943195D01*
X5632405Y19942854D01*
X5633420Y19942432D01*
X5635534Y19941756D01*
X5637733Y19941164D01*
X5639848Y19940572D01*
X5640778Y19940318D01*
X5641624Y19940149D01*
X5642301Y19939980D01*
X5642808Y19939810D01*
X5643146Y19939726D01*
X5643231D01*
X5652873Y19937611D01*
Y19929999D01*
X5641370Y19932620D01*
X5638917Y19933212D01*
X5636634Y19933890D01*
X5634604Y19934482D01*
X5632827Y19935158D01*
X5631220Y19935835D01*
X5629867Y19936427D01*
X5628683Y19937103D01*
X5627583Y19937695D01*
X5626738Y19938203D01*
X5626061Y19938712D01*
X5625469Y19939218D01*
X5624961Y19939557D01*
X5624708Y19939896D01*
X5624454Y19940149D01*
X5624285Y19940233D01*
Y19940318D01*
X5623439Y19939304D01*
X5622593Y19938371D01*
X5621663Y19937611D01*
X5620648Y19936934D01*
X5619717Y19936342D01*
X5618702Y19935919D01*
X5617687Y19935497D01*
X5616672Y19935243D01*
X5614981Y19934821D01*
X5614135Y19934651D01*
X5613543Y19934566D01*
X5612951Y19934482D01*
X5612528D01*
X5612274D01*
X5612189D01*
X5610921D01*
X5609652Y19934651D01*
X5607453Y19935074D01*
X5605507Y19935666D01*
X5603816Y19936342D01*
X5603139Y19936765D01*
X5602547Y19937103D01*
X5602040Y19937442D01*
X5601617Y19937695D01*
X5601278Y19937949D01*
X5601025Y19938120D01*
X5600940Y19938203D01*
X5600855Y19938287D01*
X5600094Y19939049D01*
X5599418Y19939896D01*
X5598825Y19940741D01*
X5598318Y19941586D01*
X5597557Y19943446D01*
X5597049Y19945224D01*
X5596796Y19946831D01*
X5596711Y19947592D01*
X5596626Y19948184D01*
X5596542Y19948691D01*
Y19955373D01*
X5652873D01*
Y19948099D01*
D02*
G37*
G36*
Y19910545D02*
X5596542D01*
Y19917819D01*
X5652873D01*
Y19910545D01*
D02*
G37*
G36*
Y19879758D02*
X5596542D01*
Y19887032D01*
X5652873D01*
Y19879758D01*
D02*
G37*
G36*
X7046536Y20665240D02*
X7048058Y20664903D01*
X7049581Y20664397D01*
X7050849Y20663803D01*
X7051949Y20663297D01*
X7052795Y20662788D01*
X7053049Y20662535D01*
X7053302Y20662450D01*
X7053387Y20662280D01*
X7053472D01*
Y20654584D01*
X7052626Y20655261D01*
X7051864Y20655937D01*
X7050342Y20656952D01*
X7049073Y20657629D01*
X7047889Y20658136D01*
X7047043Y20658389D01*
X7046367Y20658559D01*
X7045944Y20658644D01*
X7045775D01*
X7044929Y20658559D01*
X7044168Y20658389D01*
X7043491Y20658136D01*
X7042814Y20657797D01*
X7041715Y20657037D01*
X7040784Y20656023D01*
X7040108Y20655092D01*
X7039600Y20654247D01*
X7039516Y20653992D01*
X7039346Y20653738D01*
X7039262Y20653569D01*
Y20653484D01*
X7038923Y20652469D01*
X7038585Y20651285D01*
X7038331Y20650017D01*
X7038162Y20648663D01*
X7037824Y20645872D01*
X7037570Y20643082D01*
X7037486Y20641728D01*
X7037401Y20640459D01*
Y20639359D01*
X7037316Y20638429D01*
Y20637582D01*
Y20636990D01*
Y20636653D01*
Y20636482D01*
Y20634369D01*
X7037401Y20632339D01*
X7037486Y20630478D01*
X7037655Y20628787D01*
X7037739Y20627264D01*
X7037908Y20625911D01*
X7038078Y20624641D01*
X7038331Y20623541D01*
X7038501Y20622612D01*
X7038670Y20621767D01*
X7038839Y20621005D01*
X7038923Y20620497D01*
X7039093Y20620074D01*
X7039177Y20619736D01*
X7039262Y20619566D01*
Y20619482D01*
X7039685Y20618552D01*
X7040108Y20617792D01*
X7040530Y20617114D01*
X7041038Y20616522D01*
X7041545Y20616016D01*
X7042138Y20615591D01*
X7043153Y20614999D01*
X7044083Y20614577D01*
X7044844Y20614407D01*
X7045352Y20614323D01*
X7045521D01*
X7046874Y20614491D01*
X7048227Y20614830D01*
X7049412Y20615424D01*
X7050511Y20616016D01*
X7051442Y20616692D01*
X7052203Y20617284D01*
X7052626Y20617622D01*
X7052795Y20617792D01*
Y20610516D01*
X7051188Y20609502D01*
X7049750Y20608826D01*
X7048481Y20608318D01*
X7047297Y20607895D01*
X7046367Y20607726D01*
X7045605Y20607642D01*
X7045183Y20607556D01*
X7045013D01*
X7043660Y20607642D01*
X7042391Y20607895D01*
X7041207Y20608234D01*
X7040108Y20608742D01*
X7039093Y20609332D01*
X7038162Y20610008D01*
X7037316Y20610686D01*
X7036555Y20611447D01*
X7035878Y20612209D01*
X7035286Y20612885D01*
X7034779Y20613562D01*
X7034356Y20614154D01*
X7034018Y20614577D01*
X7033764Y20614999D01*
X7033679Y20615253D01*
X7033595Y20615338D01*
X7032918Y20616859D01*
X7032326Y20618468D01*
X7031311Y20621935D01*
X7030634Y20625572D01*
X7030381Y20627264D01*
X7030211Y20628957D01*
X7030042Y20630563D01*
X7029873Y20632085D01*
X7029789Y20633440D01*
Y20634538D01*
X7029704Y20635469D01*
Y20636230D01*
Y20636653D01*
Y20636823D01*
X7029789Y20639359D01*
X7029873Y20641728D01*
X7030042Y20643927D01*
X7030296Y20645956D01*
X7030634Y20647816D01*
X7030973Y20649594D01*
X7031311Y20651201D01*
X7031649Y20652638D01*
X7031988Y20653906D01*
X7032326Y20655006D01*
X7032664Y20655937D01*
X7033003Y20656699D01*
X7033256Y20657291D01*
X7033426Y20657713D01*
X7033595Y20657967D01*
Y20658052D01*
X7034356Y20659322D01*
X7035202Y20660506D01*
X7036132Y20661435D01*
X7037063Y20662280D01*
X7037993Y20663042D01*
X7038923Y20663634D01*
X7039854Y20664056D01*
X7040700Y20664481D01*
X7041545Y20664818D01*
X7042307Y20664989D01*
X7043068Y20665157D01*
X7043660Y20665326D01*
X7044168D01*
X7044506Y20665411D01*
X7044844D01*
X7046536Y20665240D01*
D02*
G37*
G36*
X7081384Y20657460D02*
X7068189D01*
X7069373Y20655176D01*
X7070473Y20652977D01*
X7071488Y20650862D01*
X7072418Y20648917D01*
X7073179Y20647141D01*
X7073940Y20645534D01*
X7074617Y20644011D01*
X7075209Y20642657D01*
X7075801Y20641389D01*
X7076224Y20640375D01*
X7076562Y20639444D01*
X7076901Y20638683D01*
X7077155Y20638091D01*
X7077324Y20637668D01*
X7077408Y20637415D01*
Y20637329D01*
X7078339Y20634624D01*
X7079015Y20632001D01*
X7079523Y20629716D01*
X7079692Y20628616D01*
X7079861Y20627602D01*
X7079946Y20626756D01*
X7080030Y20625911D01*
X7080115Y20625233D01*
X7080199Y20624641D01*
Y20624135D01*
Y20623796D01*
Y20623627D01*
Y20623541D01*
X7080030Y20620920D01*
X7079692Y20618637D01*
X7079100Y20616608D01*
X7078762Y20615761D01*
X7078508Y20614999D01*
X7078169Y20614323D01*
X7077831Y20613646D01*
X7077577Y20613139D01*
X7077239Y20612717D01*
X7077070Y20612378D01*
X7076901Y20612125D01*
X7076732Y20612039D01*
Y20611955D01*
X7076055Y20611192D01*
X7075294Y20610516D01*
X7074532Y20610008D01*
X7073771Y20609502D01*
X7072249Y20608742D01*
X7070726Y20608234D01*
X7069373Y20607979D01*
X7068781Y20607809D01*
X7068273D01*
X7067850Y20607726D01*
X7067258D01*
X7065821Y20607809D01*
X7064383Y20608064D01*
X7063029Y20608401D01*
X7061761Y20608742D01*
X7060746Y20609079D01*
X7059900Y20609418D01*
X7059561Y20609586D01*
X7059308Y20609671D01*
X7059223Y20609756D01*
X7059139D01*
Y20617284D01*
X7060576Y20616692D01*
X7061761Y20616183D01*
X7062860Y20615845D01*
X7063791Y20615675D01*
X7064467Y20615508D01*
X7064975Y20615424D01*
X7065398D01*
X7066582Y20615508D01*
X7067597Y20615845D01*
X7068527Y20616267D01*
X7069288Y20616692D01*
X7069880Y20617200D01*
X7070388Y20617622D01*
X7070642Y20617960D01*
X7070726Y20618045D01*
X7071403Y20619060D01*
X7071910Y20620158D01*
X7072249Y20621342D01*
X7072502Y20622443D01*
X7072672Y20623373D01*
X7072756Y20624219D01*
Y20624727D01*
Y20624811D01*
Y20624896D01*
Y20626250D01*
X7072587Y20627687D01*
X7072164Y20630647D01*
X7071403Y20633691D01*
X7070473Y20636906D01*
X7069288Y20640121D01*
X7068104Y20643335D01*
X7066751Y20646465D01*
X7065398Y20649509D01*
X7063960Y20652385D01*
X7062606Y20655006D01*
X7061422Y20657460D01*
X7060830Y20658475D01*
X7060238Y20659489D01*
X7059731Y20660420D01*
X7059308Y20661182D01*
X7058969Y20661858D01*
X7058631Y20662450D01*
X7058293Y20662958D01*
X7058124Y20663297D01*
X7058039Y20663464D01*
X7057954Y20663550D01*
Y20664648D01*
X7081384D01*
Y20657460D01*
D02*
G37*
G36*
X7104897Y20608318D02*
X7097623D01*
Y20664648D01*
X7104897D01*
Y20608318D01*
D02*
G37*
G36*
X6094342Y21314819D02*
X6095527Y21314650D01*
X6096626Y21314481D01*
X6097557Y21314227D01*
X6098402Y21313889D01*
X6098994Y21313721D01*
X6099333Y21313550D01*
X6099502Y21313466D01*
Y21306445D01*
X6098571Y21306953D01*
X6097641Y21307291D01*
X6096795Y21307545D01*
X6096034Y21307713D01*
X6095442Y21307799D01*
X6095019Y21307883D01*
X6094596D01*
X6093497Y21307799D01*
X6092566Y21307545D01*
X6091720Y21307121D01*
X6090959Y21306784D01*
X6090452Y21306361D01*
X6090029Y21305939D01*
X6089775Y21305684D01*
X6089690Y21305600D01*
X6089098Y21304755D01*
X6088591Y21303738D01*
X6088252Y21302724D01*
X6088083Y21301794D01*
X6087914Y21300948D01*
X6087830Y21300272D01*
Y21299847D01*
Y21299763D01*
Y21299680D01*
X6087914Y21298410D01*
X6088083Y21297226D01*
X6088422Y21296297D01*
X6088845Y21295364D01*
X6089352Y21294604D01*
X6089944Y21293927D01*
X6090536Y21293335D01*
X6091128Y21292912D01*
X6092312Y21292151D01*
X6093412Y21291728D01*
X6093835Y21291644D01*
X6094173Y21291559D01*
X6094342Y21291475D01*
X6094427D01*
Y21284285D01*
X6093158Y21283948D01*
X6092059Y21283524D01*
X6091044Y21282932D01*
X6090198Y21282172D01*
X6089521Y21281409D01*
X6088929Y21280563D01*
X6088422Y21279633D01*
X6088083Y21278787D01*
X6087745Y21277856D01*
X6087576Y21277011D01*
X6087407Y21276250D01*
X6087238Y21275574D01*
Y21274982D01*
X6087153Y21274557D01*
Y21274220D01*
Y21274135D01*
X6087238Y21272444D01*
X6087491Y21271005D01*
X6087830Y21269737D01*
X6088168Y21268637D01*
X6088591Y21267792D01*
X6088929Y21267200D01*
X6089183Y21266861D01*
X6089267Y21266692D01*
X6090113Y21265762D01*
X6090959Y21265170D01*
X6091805Y21264662D01*
X6092651Y21264323D01*
X6093412Y21264156D01*
X6094004Y21264070D01*
X6094427Y21263985D01*
X6094596D01*
X6095611Y21264070D01*
X6096711Y21264240D01*
X6097726Y21264577D01*
X6098656Y21264915D01*
X6099502Y21265254D01*
X6100179Y21265591D01*
X6100601Y21265762D01*
X6100771Y21265846D01*
Y21258656D01*
X6099248Y21258064D01*
X6097895Y21257642D01*
X6096626Y21257388D01*
X6095611Y21257219D01*
X6094765Y21257050D01*
X6094089Y21256966D01*
X6093581D01*
X6092482Y21257050D01*
X6091467Y21257133D01*
X6090536Y21257388D01*
X6089606Y21257726D01*
X6087914Y21258488D01*
X6086476Y21259418D01*
X6085377Y21260265D01*
X6084531Y21261024D01*
X6084193Y21261363D01*
X6083939Y21261617D01*
X6083854Y21261702D01*
X6083770Y21261786D01*
X6083093Y21262717D01*
X6082416Y21263647D01*
X6081401Y21265677D01*
X6080725Y21267622D01*
X6080217Y21269482D01*
X6079879Y21271091D01*
X6079794Y21271767D01*
Y21272359D01*
X6079710Y21272867D01*
Y21273206D01*
Y21273459D01*
Y21273543D01*
X6079794Y21275574D01*
X6080133Y21277348D01*
X6080556Y21279041D01*
X6081148Y21280479D01*
X6081824Y21281831D01*
X6082585Y21283015D01*
X6083431Y21284032D01*
X6084277Y21284962D01*
X6085208Y21285722D01*
X6085969Y21286400D01*
X6086815Y21286906D01*
X6087491Y21287331D01*
X6088083Y21287668D01*
X6088506Y21287839D01*
X6088845Y21288007D01*
X6088929D01*
X6087407Y21288853D01*
X6086138Y21289783D01*
X6084954Y21290797D01*
X6084023Y21291814D01*
X6083178Y21292912D01*
X6082501Y21294012D01*
X6081909Y21295027D01*
X6081486Y21296042D01*
X6081063Y21297057D01*
X6080809Y21297903D01*
X6080640Y21298749D01*
X6080556Y21299425D01*
X6080471Y21300017D01*
X6080386Y21300525D01*
Y21300780D01*
Y21300864D01*
Y21301962D01*
X6080556Y21302979D01*
X6080978Y21304922D01*
X6081571Y21306699D01*
X6082163Y21308138D01*
X6082839Y21309238D01*
X6083431Y21310167D01*
X6083685Y21310422D01*
X6083854Y21310675D01*
X6083939Y21310759D01*
X6084023Y21310844D01*
X6084700Y21311520D01*
X6085461Y21312196D01*
X6086984Y21313213D01*
X6088506Y21313889D01*
X6089944Y21314397D01*
X6091128Y21314735D01*
X6091720Y21314819D01*
X6092143D01*
X6092566Y21314903D01*
X6093074D01*
X6094342Y21314819D01*
D02*
G37*
G36*
X6116080Y21314989D02*
X6117349Y21314735D01*
X6118533Y21314397D01*
X6119632Y21313889D01*
X6120647Y21313297D01*
X6121578Y21312621D01*
X6122424Y21311943D01*
X6123185Y21311182D01*
X6123862Y21310422D01*
X6124454Y21309744D01*
X6124961Y21309068D01*
X6125384Y21308476D01*
X6125722Y21308054D01*
X6125976Y21307629D01*
X6126061Y21307376D01*
X6126145Y21307291D01*
X6126822Y21305769D01*
X6127414Y21304163D01*
X6128429Y21300694D01*
X6129106Y21297057D01*
X6129359Y21295364D01*
X6129529Y21293674D01*
X6129698Y21292067D01*
X6129867Y21290544D01*
X6129951Y21289191D01*
Y21288091D01*
X6130036Y21287161D01*
Y21286400D01*
Y21285977D01*
Y21285808D01*
X6129951Y21283270D01*
X6129867Y21280902D01*
X6129698Y21278703D01*
X6129444Y21276672D01*
X6129106Y21274812D01*
X6128767Y21273036D01*
X6128429Y21271429D01*
X6128091Y21269991D01*
X6127752Y21268723D01*
X6127414Y21267622D01*
X6127076Y21266692D01*
X6126737Y21265932D01*
X6126484Y21265340D01*
X6126314Y21264915D01*
X6126145Y21264662D01*
Y21264577D01*
X6125384Y21263309D01*
X6124538Y21262125D01*
X6123608Y21261194D01*
X6122677Y21260349D01*
X6121747Y21259587D01*
X6120817Y21258995D01*
X6119886Y21258572D01*
X6119040Y21258150D01*
X6118195Y21257811D01*
X6117433Y21257642D01*
X6116672Y21257474D01*
X6116080Y21257303D01*
X6115572D01*
X6115234Y21257219D01*
X6114896D01*
X6113204Y21257388D01*
X6111682Y21257726D01*
X6110159Y21258234D01*
X6108890Y21258826D01*
X6107791Y21259332D01*
X6106945Y21259840D01*
X6106691Y21260095D01*
X6106438Y21260179D01*
X6106353Y21260349D01*
X6106268D01*
Y21268045D01*
X6107114Y21267369D01*
X6107876Y21266692D01*
X6109398Y21265677D01*
X6110667Y21264999D01*
X6111851Y21264493D01*
X6112697Y21264240D01*
X6113373Y21264070D01*
X6113796Y21263985D01*
X6113965D01*
X6114811Y21264070D01*
X6115572Y21264240D01*
X6116249Y21264493D01*
X6116926Y21264832D01*
X6118025Y21265591D01*
X6118956Y21266608D01*
X6119632Y21267538D01*
X6120140Y21268384D01*
X6120224Y21268637D01*
X6120394Y21268890D01*
X6120478Y21269060D01*
Y21269145D01*
X6120817Y21270160D01*
X6121155Y21271344D01*
X6121409Y21272614D01*
X6121578Y21273965D01*
X6121916Y21276756D01*
X6122170Y21279549D01*
X6122254Y21280902D01*
X6122339Y21282172D01*
Y21283270D01*
X6122424Y21284201D01*
Y21285046D01*
Y21285638D01*
Y21285977D01*
Y21286147D01*
Y21288260D01*
X6122339Y21290289D01*
X6122254Y21292151D01*
X6122085Y21293843D01*
X6122001Y21295364D01*
X6121832Y21296719D01*
X6121662Y21297987D01*
X6121409Y21299088D01*
X6121239Y21300017D01*
X6121070Y21300864D01*
X6120901Y21301624D01*
X6120817Y21302132D01*
X6120647Y21302554D01*
X6120563Y21302893D01*
X6120478Y21303062D01*
Y21303146D01*
X6120055Y21304077D01*
X6119632Y21304839D01*
X6119210Y21305515D01*
X6118702Y21306107D01*
X6118195Y21306615D01*
X6117602Y21307037D01*
X6116587Y21307629D01*
X6115657Y21308054D01*
X6114896Y21308221D01*
X6114388Y21308305D01*
X6114219D01*
X6112866Y21308138D01*
X6111513Y21307799D01*
X6110328Y21307207D01*
X6109229Y21306615D01*
X6108298Y21305939D01*
X6107537Y21305347D01*
X6107114Y21305008D01*
X6106945Y21304839D01*
Y21312112D01*
X6108552Y21313129D01*
X6109990Y21313805D01*
X6111259Y21314313D01*
X6112443Y21314735D01*
X6113373Y21314903D01*
X6114135Y21314989D01*
X6114557Y21315073D01*
X6114727D01*
X6116080Y21314989D01*
D02*
G37*
G36*
X6062117Y21257980D02*
X6054843D01*
Y21314313D01*
X6062117D01*
Y21257980D01*
D02*
G37*
G36*
X5823453Y19800401D02*
X5798247D01*
Y19799471D01*
X5798501Y19798625D01*
X5798924Y19797948D01*
X5799432Y19797356D01*
X5799939Y19796848D01*
X5800362Y19796510D01*
X5800700Y19796255D01*
X5800785Y19796172D01*
X5801377Y19795833D01*
X5802138Y19795496D01*
X5802984Y19795157D01*
X5803999Y19794734D01*
X5806114Y19794057D01*
X5808313Y19793465D01*
X5810427Y19792873D01*
X5811358Y19792619D01*
X5812204Y19792450D01*
X5812880Y19792281D01*
X5813388Y19792113D01*
X5813726Y19792027D01*
X5813811D01*
X5823453Y19789912D01*
Y19782300D01*
X5811950Y19784921D01*
X5809497Y19785513D01*
X5807213Y19786191D01*
X5805183Y19786783D01*
X5803407Y19787460D01*
X5801800Y19788136D01*
X5800447Y19788728D01*
X5799262Y19789404D01*
X5798163Y19789996D01*
X5797317Y19790504D01*
X5796640Y19791013D01*
X5796048Y19791521D01*
X5795541Y19791858D01*
X5795287Y19792197D01*
X5795033Y19792450D01*
X5794864Y19792535D01*
Y19792619D01*
X5794018Y19791605D01*
X5793173Y19790674D01*
X5792242Y19789912D01*
X5791227Y19789236D01*
X5790297Y19788644D01*
X5789282Y19788222D01*
X5788267Y19787798D01*
X5787252Y19787544D01*
X5785560Y19787122D01*
X5784714Y19786952D01*
X5784122Y19786868D01*
X5783530Y19786783D01*
X5783107D01*
X5782854D01*
X5782769D01*
X5781500D01*
X5780232Y19786952D01*
X5778032Y19787375D01*
X5776087Y19787967D01*
X5774395Y19788644D01*
X5773719Y19789067D01*
X5773127Y19789404D01*
X5772619Y19789745D01*
X5772196Y19789996D01*
X5771858Y19790251D01*
X5771604Y19790421D01*
X5771520Y19790504D01*
X5771435Y19790588D01*
X5770674Y19791351D01*
X5769997Y19792197D01*
X5769405Y19793042D01*
X5768898Y19793887D01*
X5768136Y19795749D01*
X5767629Y19797525D01*
X5767375Y19799132D01*
X5767290Y19799893D01*
X5767206Y19800485D01*
X5767121Y19800993D01*
Y19807675D01*
X5823453D01*
Y19800401D01*
D02*
G37*
G36*
Y19762846D02*
X5767121D01*
Y19770120D01*
X5823453D01*
Y19762846D01*
D02*
G37*
G36*
X5800700Y19747874D02*
X5802984Y19747707D01*
X5805183Y19747537D01*
X5807129Y19747282D01*
X5808905Y19747031D01*
X5810512Y19746776D01*
X5811950Y19746523D01*
X5813218Y19746268D01*
X5814318Y19746014D01*
X5815248Y19745761D01*
X5816010Y19745506D01*
X5816602Y19745338D01*
X5817025Y19745169D01*
X5817278Y19745084D01*
X5817363D01*
X5818632Y19744492D01*
X5819731Y19743816D01*
X5820662Y19743140D01*
X5821508Y19742378D01*
X5822184Y19741615D01*
X5822692Y19740855D01*
X5823199Y19740094D01*
X5823538Y19739333D01*
X5824130Y19737979D01*
X5824214Y19737387D01*
X5824383Y19736880D01*
Y19736456D01*
X5824468Y19736119D01*
Y19735864D01*
X5824383Y19734682D01*
X5824130Y19733582D01*
X5823791Y19732565D01*
X5823368Y19731636D01*
X5822184Y19730029D01*
X5820831Y19728760D01*
X5819562Y19727745D01*
X5818378Y19726984D01*
X5817955Y19726814D01*
X5817617Y19726645D01*
X5817363Y19726476D01*
X5817278D01*
X5815841Y19725969D01*
X5814318Y19725461D01*
X5812626Y19725124D01*
X5810850Y19724785D01*
X5807213Y19724277D01*
X5803745Y19723854D01*
X5802054Y19723770D01*
X5800531Y19723685D01*
X5799093Y19723599D01*
X5797909D01*
X5796894Y19723515D01*
X5796218D01*
X5795710D01*
X5795541D01*
X5792834D01*
X5790297Y19723685D01*
X5787928Y19723770D01*
X5785729Y19724023D01*
X5783784Y19724191D01*
X5781923Y19724446D01*
X5780316Y19724785D01*
X5778878Y19725038D01*
X5777609Y19725291D01*
X5776510Y19725630D01*
X5775580Y19725883D01*
X5774903Y19726053D01*
X5774311Y19726308D01*
X5773888Y19726392D01*
X5773634Y19726561D01*
X5773550D01*
X5772281Y19727153D01*
X5771266Y19727829D01*
X5770251Y19728506D01*
X5769490Y19729266D01*
X5768813Y19730029D01*
X5768221Y19730875D01*
X5767798Y19731636D01*
X5767375Y19732312D01*
X5766868Y19733749D01*
X5766783Y19734341D01*
X5766614Y19734850D01*
Y19735274D01*
X5766529Y19735611D01*
Y19735864D01*
X5766614Y19736964D01*
X5766868Y19737979D01*
X5767206Y19738994D01*
X5767798Y19739841D01*
X5768390Y19740686D01*
X5769236Y19741447D01*
X5770082Y19742207D01*
X5771097Y19742885D01*
X5772112Y19743477D01*
X5773296Y19744069D01*
X5775664Y19745000D01*
X5778286Y19745845D01*
X5780993Y19746439D01*
X5783699Y19746945D01*
X5786321Y19747282D01*
X5788774Y19747623D01*
X5789958Y19747707D01*
X5790973Y19747791D01*
X5791988D01*
X5792834Y19747874D01*
X5793595D01*
X5794272Y19747960D01*
X5794780D01*
X5795203D01*
X5795456D01*
X5795541D01*
X5798247D01*
X5800700Y19747874D01*
D02*
G37*
G36*
X6710124Y19714690D02*
X6711562Y19714436D01*
X6712915Y19714098D01*
X6714184Y19713759D01*
X6715199Y19713422D01*
X6716045Y19713083D01*
X6716383Y19712914D01*
X6716637Y19712830D01*
X6716722Y19712744D01*
X6716806D01*
Y19705217D01*
X6715368Y19705809D01*
X6714184Y19706316D01*
X6713085Y19706654D01*
X6712154Y19706824D01*
X6711478Y19706993D01*
X6710970Y19707077D01*
X6710547D01*
X6709363Y19706993D01*
X6708348Y19706654D01*
X6707418Y19706232D01*
X6706656Y19705809D01*
X6706064Y19705301D01*
X6705557Y19704878D01*
X6705303Y19704539D01*
X6705218Y19704456D01*
X6704542Y19703439D01*
X6704034Y19702341D01*
X6703696Y19701157D01*
X6703442Y19700056D01*
X6703273Y19699127D01*
X6703189Y19698280D01*
Y19697774D01*
Y19697688D01*
Y19697604D01*
Y19696251D01*
X6703358Y19694814D01*
X6703781Y19691853D01*
X6704542Y19688808D01*
X6705472Y19685594D01*
X6706656Y19682379D01*
X6707841Y19679166D01*
X6709194Y19676036D01*
X6710547Y19672990D01*
X6711985Y19670116D01*
X6713338Y19667493D01*
X6714523Y19665041D01*
X6715115Y19664024D01*
X6715707Y19663010D01*
X6716214Y19662080D01*
X6716637Y19661319D01*
X6716975Y19660641D01*
X6717314Y19660049D01*
X6717652Y19659541D01*
X6717821Y19659204D01*
X6717906Y19659035D01*
X6717990Y19658949D01*
Y19657851D01*
X6694561D01*
Y19665041D01*
X6707756D01*
X6706572Y19667323D01*
X6705472Y19669524D01*
X6704457Y19671638D01*
X6703527Y19673582D01*
X6702766Y19675359D01*
X6702004Y19676965D01*
X6701328Y19678490D01*
X6700736Y19679842D01*
X6700144Y19681111D01*
X6699721Y19682126D01*
X6699382Y19683057D01*
X6699044Y19683817D01*
X6698790Y19684409D01*
X6698621Y19684831D01*
X6698537Y19685086D01*
Y19685172D01*
X6697606Y19687877D01*
X6696929Y19690498D01*
X6696422Y19692783D01*
X6696253Y19693883D01*
X6696084Y19694897D01*
X6695999Y19695743D01*
X6695914Y19696590D01*
X6695830Y19697266D01*
X6695745Y19697858D01*
Y19698364D01*
Y19698705D01*
Y19698872D01*
Y19698958D01*
X6695914Y19701579D01*
X6696253Y19703864D01*
X6696845Y19705893D01*
X6697183Y19706738D01*
X6697437Y19707500D01*
X6697775Y19708177D01*
X6698114Y19708855D01*
X6698367Y19709361D01*
X6698706Y19709784D01*
X6698875Y19710123D01*
X6699044Y19710376D01*
X6699213Y19710461D01*
Y19710545D01*
X6699890Y19711307D01*
X6700651Y19711983D01*
X6701412Y19712491D01*
X6702174Y19712997D01*
X6703696Y19713759D01*
X6705218Y19714267D01*
X6706572Y19714520D01*
X6707164Y19714690D01*
X6707671D01*
X6708094Y19714774D01*
X6708686D01*
X6710124Y19714690D01*
D02*
G37*
G36*
X6763073Y19714859D02*
X6764341Y19714606D01*
X6765525Y19714267D01*
X6766625Y19713759D01*
X6767640Y19713167D01*
X6768570Y19712491D01*
X6769416Y19711813D01*
X6770177Y19711053D01*
X6770854Y19710292D01*
X6771446Y19709615D01*
X6771954Y19708939D01*
X6772377Y19708347D01*
X6772715Y19707922D01*
X6772969Y19707500D01*
X6773053Y19707246D01*
X6773138Y19707162D01*
X6773814Y19705640D01*
X6774407Y19704031D01*
X6775422Y19700565D01*
X6776098Y19696928D01*
X6776352Y19695236D01*
X6776521Y19693544D01*
X6776690Y19691937D01*
X6776859Y19690414D01*
X6776944Y19689061D01*
Y19687962D01*
X6777029Y19687032D01*
Y19686270D01*
Y19685847D01*
Y19685678D01*
X6776944Y19683141D01*
X6776859Y19680772D01*
X6776690Y19678574D01*
X6776437Y19676543D01*
X6776098Y19674683D01*
X6775760Y19672906D01*
X6775422Y19671300D01*
X6775083Y19669861D01*
X6774745Y19668593D01*
X6774407Y19667493D01*
X6774068Y19666563D01*
X6773730Y19665800D01*
X6773476Y19665208D01*
X6773307Y19664786D01*
X6773138Y19664532D01*
Y19664449D01*
X6772377Y19663179D01*
X6771531Y19661995D01*
X6770600Y19661066D01*
X6769670Y19660219D01*
X6768740Y19659457D01*
X6767809Y19658865D01*
X6766879Y19658443D01*
X6766033Y19658020D01*
X6765187Y19657681D01*
X6764426Y19657512D01*
X6763665Y19657343D01*
X6763073Y19657175D01*
X6762565D01*
X6762227Y19657089D01*
X6761888D01*
X6760197Y19657259D01*
X6758674Y19657597D01*
X6757152Y19658104D01*
X6755883Y19658698D01*
X6754784Y19659204D01*
X6753938Y19659712D01*
X6753684Y19659966D01*
X6753430Y19660049D01*
X6753346Y19660219D01*
X6753261D01*
Y19667915D01*
X6754107Y19667239D01*
X6754868Y19666563D01*
X6756391Y19665549D01*
X6757659Y19664871D01*
X6758843Y19664365D01*
X6759689Y19664110D01*
X6760366Y19663940D01*
X6760789Y19663857D01*
X6760958D01*
X6761804Y19663940D01*
X6762565Y19664110D01*
X6763242Y19664365D01*
X6763918Y19664702D01*
X6765018Y19665463D01*
X6765948Y19666478D01*
X6766625Y19667409D01*
X6767133Y19668254D01*
X6767217Y19668507D01*
X6767386Y19668762D01*
X6767471Y19668932D01*
Y19669016D01*
X6767809Y19670032D01*
X6768148Y19671214D01*
X6768401Y19672482D01*
X6768570Y19673837D01*
X6768909Y19676628D01*
X6769162Y19679419D01*
X6769247Y19680772D01*
X6769332Y19682040D01*
Y19683141D01*
X6769416Y19684071D01*
Y19684917D01*
Y19685509D01*
Y19685847D01*
Y19686017D01*
Y19688132D01*
X6769332Y19690161D01*
X6769247Y19692023D01*
X6769078Y19693713D01*
X6768993Y19695236D01*
X6768824Y19696590D01*
X6768655Y19697858D01*
X6768401Y19698958D01*
X6768232Y19699889D01*
X6768063Y19700734D01*
X6767894Y19701495D01*
X6767809Y19702003D01*
X6767640Y19702425D01*
X6767555Y19702763D01*
X6767471Y19702933D01*
Y19703017D01*
X6767048Y19703947D01*
X6766625Y19704709D01*
X6766202Y19705386D01*
X6765695Y19705978D01*
X6765187Y19706485D01*
X6764595Y19706908D01*
X6763580Y19707500D01*
X6762650Y19707922D01*
X6761888Y19708092D01*
X6761381Y19708177D01*
X6761212D01*
X6759858Y19708008D01*
X6758505Y19707671D01*
X6757321Y19707077D01*
X6756221Y19706485D01*
X6755291Y19705809D01*
X6754530Y19705217D01*
X6754107Y19704878D01*
X6753938Y19704709D01*
Y19711983D01*
X6755545Y19712997D01*
X6756983Y19713675D01*
X6758251Y19714182D01*
X6759436Y19714606D01*
X6760366Y19714774D01*
X6761127Y19714859D01*
X6761550Y19714944D01*
X6761719D01*
X6763073Y19714859D01*
D02*
G37*
G36*
X6739897Y19657851D02*
X6732623D01*
Y19714182D01*
X6739897D01*
Y19657851D01*
D02*
G37*
G36*
X6657092Y21421570D02*
X6658530Y21421317D01*
X6659883Y21420978D01*
X6661152Y21420639D01*
X6662167Y21420300D01*
X6663013Y21419963D01*
X6663351Y21419794D01*
X6663605Y21419708D01*
X6663689Y21419624D01*
X6663774D01*
Y21412097D01*
X6662336Y21412689D01*
X6661152Y21413196D01*
X6660052Y21413535D01*
X6659122Y21413704D01*
X6658445Y21413873D01*
X6657938Y21413957D01*
X6657515D01*
X6656331Y21413873D01*
X6655316Y21413535D01*
X6654385Y21413112D01*
X6653624Y21412689D01*
X6653032Y21412181D01*
X6652525Y21411758D01*
X6652271Y21411420D01*
X6652186Y21411336D01*
X6651510Y21410320D01*
X6651002Y21409221D01*
X6650664Y21408037D01*
X6650410Y21406937D01*
X6650241Y21406007D01*
X6650156Y21405161D01*
Y21404652D01*
Y21404568D01*
Y21404485D01*
Y21403131D01*
X6650326Y21401694D01*
X6650748Y21398734D01*
X6651510Y21395688D01*
X6652440Y21392474D01*
X6653624Y21389259D01*
X6654808Y21386044D01*
X6656162Y21382916D01*
X6657515Y21379871D01*
X6658953Y21376994D01*
X6660306Y21374373D01*
X6661490Y21371919D01*
X6662082Y21370905D01*
X6662675Y21369890D01*
X6663182Y21368961D01*
X6663605Y21368199D01*
X6663943Y21367522D01*
X6664282Y21366930D01*
X6664620Y21366422D01*
X6664789Y21366084D01*
X6664874Y21365915D01*
X6664958Y21365829D01*
Y21364731D01*
X6641529D01*
Y21371919D01*
X6654724D01*
X6653540Y21374203D01*
X6652440Y21376402D01*
X6651425Y21378519D01*
X6650495Y21380463D01*
X6649733Y21382239D01*
X6648972Y21383846D01*
X6648296Y21385368D01*
X6647703Y21386722D01*
X6647111Y21387991D01*
X6646689Y21389006D01*
X6646350Y21389935D01*
X6646012Y21390697D01*
X6645758Y21391289D01*
X6645589Y21391711D01*
X6645504Y21391966D01*
Y21392052D01*
X6644574Y21394757D01*
X6643897Y21397379D01*
X6643390Y21399663D01*
X6643221Y21400763D01*
X6643051Y21401778D01*
X6642967Y21402623D01*
X6642882Y21403468D01*
X6642798Y21404146D01*
X6642713Y21404738D01*
Y21405244D01*
Y21405585D01*
Y21405753D01*
Y21405838D01*
X6642882Y21408459D01*
X6643221Y21410744D01*
X6643813Y21412773D01*
X6644151Y21413618D01*
X6644405Y21414380D01*
X6644743Y21415057D01*
X6645081Y21415733D01*
X6645335Y21416241D01*
X6645674Y21416664D01*
X6645843Y21417001D01*
X6646012Y21417256D01*
X6646181Y21417342D01*
Y21417426D01*
X6646858Y21418187D01*
X6647619Y21418863D01*
X6648380Y21419371D01*
X6649141Y21419878D01*
X6650664Y21420639D01*
X6652186Y21421147D01*
X6653540Y21421400D01*
X6654132Y21421570D01*
X6654639D01*
X6655062Y21421654D01*
X6655654D01*
X6657092Y21421570D01*
D02*
G37*
G36*
X6626304D02*
X6627742Y21421317D01*
X6629095Y21420978D01*
X6630364Y21420639D01*
X6631379Y21420300D01*
X6632225Y21419963D01*
X6632563Y21419794D01*
X6632817Y21419708D01*
X6632902Y21419624D01*
X6632986D01*
Y21412097D01*
X6631548Y21412689D01*
X6630364Y21413196D01*
X6629265Y21413535D01*
X6628334Y21413704D01*
X6627658Y21413873D01*
X6627150Y21413957D01*
X6626727D01*
X6625543Y21413873D01*
X6624528Y21413535D01*
X6623598Y21413112D01*
X6622836Y21412689D01*
X6622244Y21412181D01*
X6621737Y21411758D01*
X6621483Y21411420D01*
X6621398Y21411336D01*
X6620722Y21410320D01*
X6620214Y21409221D01*
X6619876Y21408037D01*
X6619622Y21406937D01*
X6619453Y21406007D01*
X6619369Y21405161D01*
Y21404652D01*
Y21404568D01*
Y21404485D01*
Y21403131D01*
X6619538Y21401694D01*
X6619961Y21398734D01*
X6620722Y21395688D01*
X6621652Y21392474D01*
X6622836Y21389259D01*
X6624021Y21386044D01*
X6625374Y21382916D01*
X6626727Y21379871D01*
X6628165Y21376994D01*
X6629518Y21374373D01*
X6630703Y21371919D01*
X6631295Y21370905D01*
X6631887Y21369890D01*
X6632394Y21368961D01*
X6632817Y21368199D01*
X6633155Y21367522D01*
X6633494Y21366930D01*
X6633832Y21366422D01*
X6634001Y21366084D01*
X6634086Y21365915D01*
X6634170Y21365829D01*
Y21364731D01*
X6610741D01*
Y21371919D01*
X6623936D01*
X6622752Y21374203D01*
X6621652Y21376402D01*
X6620637Y21378519D01*
X6619707Y21380463D01*
X6618946Y21382239D01*
X6618184Y21383846D01*
X6617508Y21385368D01*
X6616916Y21386722D01*
X6616324Y21387991D01*
X6615901Y21389006D01*
X6615562Y21389935D01*
X6615224Y21390697D01*
X6614970Y21391289D01*
X6614801Y21391711D01*
X6614717Y21391966D01*
Y21392052D01*
X6613786Y21394757D01*
X6613109Y21397379D01*
X6612602Y21399663D01*
X6612433Y21400763D01*
X6612264Y21401778D01*
X6612179Y21402623D01*
X6612094Y21403468D01*
X6612010Y21404146D01*
X6611925Y21404738D01*
Y21405244D01*
Y21405585D01*
Y21405753D01*
Y21405838D01*
X6612094Y21408459D01*
X6612433Y21410744D01*
X6613025Y21412773D01*
X6613363Y21413618D01*
X6613617Y21414380D01*
X6613955Y21415057D01*
X6614294Y21415733D01*
X6614547Y21416241D01*
X6614886Y21416664D01*
X6615055Y21417001D01*
X6615224Y21417256D01*
X6615393Y21417342D01*
Y21417426D01*
X6616070Y21418187D01*
X6616831Y21418863D01*
X6617592Y21419371D01*
X6618354Y21419878D01*
X6619876Y21420639D01*
X6621398Y21421147D01*
X6622752Y21421400D01*
X6623344Y21421570D01*
X6623851D01*
X6624274Y21421654D01*
X6624866D01*
X6626304Y21421570D01*
D02*
G37*
G36*
X6679253Y21421739D02*
X6680521Y21421484D01*
X6681705Y21421147D01*
X6682805Y21420639D01*
X6683820Y21420047D01*
X6684750Y21419371D01*
X6685596Y21418694D01*
X6686357Y21417934D01*
X6687034Y21417172D01*
X6687626Y21416495D01*
X6688134Y21415817D01*
X6688557Y21415227D01*
X6688895Y21414803D01*
X6689149Y21414380D01*
X6689233Y21414127D01*
X6689318Y21414043D01*
X6689994Y21412520D01*
X6690587Y21410912D01*
X6691602Y21407445D01*
X6692278Y21403809D01*
X6692532Y21402116D01*
X6692701Y21400424D01*
X6692870Y21398817D01*
X6693039Y21397295D01*
X6693124Y21395941D01*
Y21394843D01*
X6693209Y21393912D01*
Y21393150D01*
Y21392728D01*
Y21392558D01*
X6693124Y21390021D01*
X6693039Y21387653D01*
X6692870Y21385452D01*
X6692617Y21383423D01*
X6692278Y21381563D01*
X6691940Y21379787D01*
X6691602Y21378178D01*
X6691263Y21376741D01*
X6690925Y21375473D01*
X6690587Y21374373D01*
X6690248Y21373444D01*
X6689910Y21372681D01*
X6689656Y21372089D01*
X6689487Y21371666D01*
X6689318Y21371413D01*
Y21371329D01*
X6688557Y21370059D01*
X6687711Y21368875D01*
X6686780Y21367944D01*
X6685850Y21367099D01*
X6684920Y21366338D01*
X6683989Y21365746D01*
X6683059Y21365323D01*
X6682213Y21364900D01*
X6681367Y21364561D01*
X6680606Y21364392D01*
X6679845Y21364223D01*
X6679253Y21364053D01*
X6678745D01*
X6678407Y21363969D01*
X6678068D01*
X6676377Y21364139D01*
X6674854Y21364478D01*
X6673332Y21364984D01*
X6672063Y21365578D01*
X6670964Y21366084D01*
X6670118Y21366592D01*
X6669864Y21366846D01*
X6669610Y21366930D01*
X6669526Y21367099D01*
X6669441D01*
Y21374796D01*
X6670287Y21374120D01*
X6671048Y21373444D01*
X6672571Y21372427D01*
X6673839Y21371751D01*
X6675023Y21371243D01*
X6675869Y21370990D01*
X6676546Y21370821D01*
X6676969Y21370737D01*
X6677138D01*
X6677984Y21370821D01*
X6678745Y21370990D01*
X6679422Y21371243D01*
X6680098Y21371582D01*
X6681198Y21372343D01*
X6682128Y21373358D01*
X6682805Y21374287D01*
X6683313Y21375134D01*
X6683397Y21375388D01*
X6683566Y21375642D01*
X6683651Y21375810D01*
Y21375896D01*
X6683989Y21376910D01*
X6684328Y21378094D01*
X6684581Y21379362D01*
X6684750Y21380717D01*
X6685089Y21383508D01*
X6685342Y21386299D01*
X6685427Y21387653D01*
X6685512Y21388921D01*
Y21390021D01*
X6685596Y21390952D01*
Y21391797D01*
Y21392389D01*
Y21392728D01*
Y21392897D01*
Y21395010D01*
X6685512Y21397041D01*
X6685427Y21398901D01*
X6685258Y21400594D01*
X6685173Y21402116D01*
X6685004Y21403468D01*
X6684835Y21404738D01*
X6684581Y21405838D01*
X6684412Y21406767D01*
X6684243Y21407614D01*
X6684074Y21408376D01*
X6683989Y21408884D01*
X6683820Y21409305D01*
X6683735Y21409644D01*
X6683651Y21409813D01*
Y21409897D01*
X6683228Y21410828D01*
X6682805Y21411589D01*
X6682382Y21412267D01*
X6681875Y21412859D01*
X6681367Y21413365D01*
X6680775Y21413788D01*
X6679760Y21414380D01*
X6678830Y21414803D01*
X6678068Y21414972D01*
X6677561Y21415057D01*
X6677392D01*
X6676038Y21414888D01*
X6674685Y21414549D01*
X6673501Y21413957D01*
X6672401Y21413365D01*
X6671471Y21412689D01*
X6670710Y21412097D01*
X6670287Y21411758D01*
X6670118Y21411589D01*
Y21418863D01*
X6671725Y21419878D01*
X6673163Y21420555D01*
X6674431Y21421062D01*
X6675616Y21421484D01*
X6676546Y21421654D01*
X6677307Y21421739D01*
X6677730Y21421825D01*
X6677899D01*
X6679253Y21421739D01*
D02*
G37*
G36*
X7234874Y20665312D02*
X7236397Y20664973D01*
X7237919Y20664465D01*
X7239188Y20663873D01*
X7240288Y20663367D01*
X7241133Y20662859D01*
X7241387Y20662605D01*
X7241641Y20662521D01*
X7241725Y20662352D01*
X7241810D01*
Y20654655D01*
X7240964Y20655331D01*
X7240203Y20656007D01*
X7238680Y20657024D01*
X7237412Y20657700D01*
X7236228Y20658208D01*
X7235382Y20658461D01*
X7234705Y20658630D01*
X7234282Y20658714D01*
X7234113D01*
X7233267Y20658630D01*
X7232506Y20658461D01*
X7231829Y20658208D01*
X7231153Y20657869D01*
X7230053Y20657108D01*
X7229123Y20656093D01*
X7228446Y20655162D01*
X7227939Y20654317D01*
X7227854Y20654063D01*
X7227685Y20653809D01*
X7227600Y20653641D01*
Y20653555D01*
X7227262Y20652541D01*
X7226924Y20651357D01*
X7226670Y20650087D01*
X7226501Y20648734D01*
X7226162Y20645943D01*
X7225909Y20643150D01*
X7225824Y20641798D01*
X7225739Y20640529D01*
Y20639430D01*
X7225655Y20638499D01*
Y20637654D01*
Y20637062D01*
Y20636723D01*
Y20636554D01*
Y20634441D01*
X7225739Y20632410D01*
X7225824Y20630550D01*
X7225993Y20628857D01*
X7226078Y20627335D01*
X7226247Y20625981D01*
X7226416Y20624713D01*
X7226670Y20623613D01*
X7226839Y20622684D01*
X7227008Y20621837D01*
X7227177Y20621075D01*
X7227262Y20620567D01*
X7227431Y20620145D01*
X7227516Y20619807D01*
X7227600Y20619638D01*
Y20619553D01*
X7228023Y20618623D01*
X7228446Y20617860D01*
X7228869Y20617184D01*
X7229376Y20616592D01*
X7229884Y20616084D01*
X7230476Y20615662D01*
X7231491Y20615070D01*
X7232421Y20614647D01*
X7233183Y20614478D01*
X7233690Y20614394D01*
X7233859D01*
X7235213Y20614563D01*
X7236566Y20614902D01*
X7237750Y20615492D01*
X7238850Y20616084D01*
X7239780Y20616762D01*
X7240541Y20617354D01*
X7240964Y20617693D01*
X7241133Y20617860D01*
Y20610587D01*
X7239526Y20609572D01*
X7238088Y20608896D01*
X7236820Y20608388D01*
X7235636Y20607965D01*
X7234705Y20607796D01*
X7233944Y20607712D01*
X7233521Y20607626D01*
X7233352D01*
X7231998Y20607712D01*
X7230730Y20607965D01*
X7229546Y20608304D01*
X7228446Y20608810D01*
X7227431Y20609402D01*
X7226501Y20610080D01*
X7225655Y20610757D01*
X7224894Y20611517D01*
X7224217Y20612279D01*
X7223625Y20612956D01*
X7223117Y20613632D01*
X7222694Y20614224D01*
X7222356Y20614647D01*
X7222102Y20615070D01*
X7222018Y20615324D01*
X7221933Y20615408D01*
X7221257Y20616931D01*
X7220665Y20618538D01*
X7219650Y20622006D01*
X7218973Y20625642D01*
X7218719Y20627335D01*
X7218550Y20629025D01*
X7218381Y20630634D01*
X7218212Y20632156D01*
X7218127Y20633508D01*
Y20634608D01*
X7218042Y20635539D01*
Y20636301D01*
Y20636723D01*
Y20636893D01*
X7218127Y20639430D01*
X7218212Y20641798D01*
X7218381Y20643997D01*
X7218635Y20646027D01*
X7218973Y20647888D01*
X7219311Y20649664D01*
X7219650Y20651271D01*
X7219988Y20652708D01*
X7220326Y20653978D01*
X7220665Y20655078D01*
X7221003Y20656007D01*
X7221341Y20656769D01*
X7221595Y20657361D01*
X7221764Y20657784D01*
X7221933Y20658038D01*
Y20658122D01*
X7222694Y20659390D01*
X7223540Y20660574D01*
X7224471Y20661507D01*
X7225401Y20662352D01*
X7226331Y20663113D01*
X7227262Y20663705D01*
X7228192Y20664128D01*
X7229038Y20664551D01*
X7229884Y20664890D01*
X7230645Y20665057D01*
X7231406Y20665227D01*
X7231998Y20665398D01*
X7232506D01*
X7232844Y20665482D01*
X7233183D01*
X7234874Y20665312D01*
D02*
G37*
G36*
X7269722Y20657530D02*
X7256527D01*
X7257711Y20655247D01*
X7258811Y20653049D01*
X7259826Y20650932D01*
X7260756Y20648988D01*
X7261518Y20647211D01*
X7262279Y20645604D01*
X7262956Y20644083D01*
X7263548Y20642729D01*
X7264140Y20641460D01*
X7264563Y20640445D01*
X7264901Y20639514D01*
X7265239Y20638753D01*
X7265493Y20638161D01*
X7265662Y20637738D01*
X7265747Y20637485D01*
Y20637399D01*
X7266677Y20634692D01*
X7267354Y20632071D01*
X7267861Y20629788D01*
X7268030Y20628688D01*
X7268200Y20627673D01*
X7268284Y20626826D01*
X7268369Y20625981D01*
X7268453Y20625305D01*
X7268538Y20624713D01*
Y20624205D01*
Y20623866D01*
Y20623698D01*
Y20623613D01*
X7268369Y20620992D01*
X7268030Y20618707D01*
X7267438Y20616676D01*
X7267100Y20615833D01*
X7266846Y20615070D01*
X7266508Y20614394D01*
X7266170Y20613718D01*
X7265916Y20613210D01*
X7265578Y20612787D01*
X7265408Y20612448D01*
X7265239Y20612193D01*
X7265070Y20612109D01*
Y20612025D01*
X7264393Y20611264D01*
X7263632Y20610587D01*
X7262871Y20610080D01*
X7262110Y20609572D01*
X7260587Y20608810D01*
X7259065Y20608304D01*
X7257711Y20608051D01*
X7257119Y20607881D01*
X7256612D01*
X7256189Y20607796D01*
X7255597D01*
X7254159Y20607881D01*
X7252721Y20608134D01*
X7251368Y20608473D01*
X7250099Y20608810D01*
X7249084Y20609151D01*
X7248238Y20609488D01*
X7247900Y20609657D01*
X7247646Y20609743D01*
X7247562Y20609827D01*
X7247477D01*
Y20617354D01*
X7248915Y20616762D01*
X7250099Y20616254D01*
X7251199Y20615916D01*
X7252129Y20615747D01*
X7252806Y20615578D01*
X7253313Y20615492D01*
X7253736D01*
X7254920Y20615578D01*
X7255935Y20615916D01*
X7256866Y20616339D01*
X7257627Y20616762D01*
X7258219Y20617268D01*
X7258726Y20617693D01*
X7258980Y20618031D01*
X7259065Y20618115D01*
X7259741Y20619130D01*
X7260249Y20620230D01*
X7260587Y20621414D01*
X7260841Y20622513D01*
X7261010Y20623444D01*
X7261095Y20624290D01*
Y20624797D01*
Y20624883D01*
Y20624966D01*
Y20626320D01*
X7260926Y20627757D01*
X7260503Y20630717D01*
X7259741Y20633763D01*
X7258811Y20636977D01*
X7257627Y20640192D01*
X7256443Y20643405D01*
X7255089Y20646535D01*
X7253736Y20649580D01*
X7252298Y20652457D01*
X7250945Y20655078D01*
X7249761Y20657530D01*
X7249169Y20658545D01*
X7248577Y20659560D01*
X7248069Y20660490D01*
X7247646Y20661252D01*
X7247308Y20661929D01*
X7246970Y20662521D01*
X7246631Y20663028D01*
X7246462Y20663367D01*
X7246377Y20663536D01*
X7246293Y20663620D01*
Y20664720D01*
X7269722D01*
Y20657530D01*
D02*
G37*
G36*
X7290614Y20665649D02*
X7291713Y20665398D01*
X7292728Y20665057D01*
X7293659Y20664635D01*
X7295266Y20663451D01*
X7296535Y20662099D01*
X7297550Y20660829D01*
X7298311Y20659645D01*
X7298480Y20659222D01*
X7298649Y20658884D01*
X7298818Y20658630D01*
Y20658545D01*
X7299326Y20657108D01*
X7299833Y20655585D01*
X7300172Y20653893D01*
X7300510Y20652116D01*
X7301017Y20648480D01*
X7301440Y20645012D01*
X7301525Y20643321D01*
X7301609Y20641798D01*
X7301694Y20640359D01*
Y20639175D01*
X7301779Y20638161D01*
Y20637485D01*
Y20636977D01*
Y20636807D01*
Y20634100D01*
X7301609Y20631564D01*
X7301525Y20629195D01*
X7301271Y20626996D01*
X7301102Y20625050D01*
X7300848Y20623190D01*
X7300510Y20621584D01*
X7300256Y20620145D01*
X7300002Y20618877D01*
X7299664Y20617776D01*
X7299410Y20616846D01*
X7299241Y20616170D01*
X7298987Y20615578D01*
X7298903Y20615155D01*
X7298734Y20614902D01*
Y20614816D01*
X7298142Y20613548D01*
X7297465Y20612534D01*
X7296788Y20611517D01*
X7296027Y20610757D01*
X7295266Y20610080D01*
X7294420Y20609488D01*
X7293659Y20609065D01*
X7292982Y20608643D01*
X7291544Y20608134D01*
X7290952Y20608051D01*
X7290445Y20607881D01*
X7290022D01*
X7289683Y20607796D01*
X7289430D01*
X7288330Y20607881D01*
X7287315Y20608134D01*
X7286300Y20608473D01*
X7285454Y20609065D01*
X7284608Y20609657D01*
X7283847Y20610503D01*
X7283086Y20611349D01*
X7282409Y20612364D01*
X7281817Y20613379D01*
X7281225Y20614563D01*
X7280295Y20616931D01*
X7279449Y20619553D01*
X7278857Y20622260D01*
X7278349Y20624966D01*
X7278011Y20627588D01*
X7277673Y20630042D01*
X7277588Y20631226D01*
X7277504Y20632240D01*
Y20633255D01*
X7277419Y20634100D01*
Y20634862D01*
X7277334Y20635539D01*
Y20636047D01*
Y20636470D01*
Y20636723D01*
Y20636807D01*
Y20639514D01*
X7277419Y20641966D01*
X7277588Y20644250D01*
X7277757Y20646449D01*
X7278011Y20648396D01*
X7278265Y20650172D01*
X7278519Y20651779D01*
X7278772Y20653217D01*
X7279026Y20654485D01*
X7279280Y20655585D01*
X7279534Y20656516D01*
X7279787Y20657277D01*
X7279956Y20657869D01*
X7280126Y20658292D01*
X7280210Y20658545D01*
Y20658630D01*
X7280802Y20659898D01*
X7281479Y20660999D01*
X7282156Y20661929D01*
X7282917Y20662775D01*
X7283678Y20663451D01*
X7284439Y20663959D01*
X7285201Y20664465D01*
X7285962Y20664804D01*
X7287315Y20665398D01*
X7287907Y20665482D01*
X7288415Y20665649D01*
X7288838D01*
X7289176Y20665735D01*
X7289430D01*
X7290614Y20665649D01*
D02*
G37*
G36*
X6961334Y21429288D02*
X6962602Y21429034D01*
X6963786Y21428696D01*
X6964886Y21428189D01*
X6965901Y21427597D01*
X6966831Y21426920D01*
X6967677Y21426244D01*
X6968438Y21425482D01*
X6969115Y21424721D01*
X6969707Y21424043D01*
X6970215Y21423367D01*
X6970638Y21422775D01*
X6970976Y21422353D01*
X6971230Y21421930D01*
X6971314Y21421677D01*
X6971399Y21421591D01*
X6972075Y21420068D01*
X6972668Y21418462D01*
X6973683Y21414993D01*
X6974359Y21411357D01*
X6974613Y21409665D01*
X6974782Y21407974D01*
X6974951Y21406367D01*
X6975120Y21404845D01*
X6975205Y21403491D01*
Y21402391D01*
X6975290Y21401460D01*
Y21400700D01*
Y21400278D01*
Y21400108D01*
X6975205Y21397569D01*
X6975120Y21395203D01*
X6974951Y21393002D01*
X6974698Y21390973D01*
X6974359Y21389111D01*
X6974021Y21387337D01*
X6973683Y21385728D01*
X6973344Y21384291D01*
X6973006Y21383022D01*
X6972668Y21381921D01*
X6972329Y21380992D01*
X6971991Y21380231D01*
X6971737Y21379639D01*
X6971568Y21379216D01*
X6971399Y21378963D01*
Y21378877D01*
X6970638Y21377609D01*
X6969792Y21376425D01*
X6968861Y21375494D01*
X6967931Y21374648D01*
X6967001Y21373888D01*
X6966070Y21373296D01*
X6965140Y21372871D01*
X6964294Y21372449D01*
X6963448Y21372112D01*
X6962687Y21371942D01*
X6961926Y21371773D01*
X6961334Y21371603D01*
X6960826D01*
X6960488Y21371519D01*
X6960149D01*
X6958458Y21371687D01*
X6956935Y21372026D01*
X6955413Y21372534D01*
X6954144Y21373126D01*
X6953045Y21373633D01*
X6952199Y21374141D01*
X6951945Y21374396D01*
X6951691Y21374480D01*
X6951607Y21374648D01*
X6951522D01*
Y21382346D01*
X6952368Y21381670D01*
X6953129Y21380992D01*
X6954652Y21379977D01*
X6955920Y21379300D01*
X6957104Y21378793D01*
X6957950Y21378539D01*
X6958627Y21378371D01*
X6959050Y21378285D01*
X6959219D01*
X6960065Y21378371D01*
X6960826Y21378539D01*
X6961503Y21378793D01*
X6962179Y21379131D01*
X6963279Y21379892D01*
X6964209Y21380907D01*
X6964886Y21381837D01*
X6965393Y21382684D01*
X6965478Y21382938D01*
X6965647Y21383191D01*
X6965732Y21383360D01*
Y21383446D01*
X6966070Y21384460D01*
X6966408Y21385645D01*
X6966662Y21386913D01*
X6966831Y21388266D01*
X6967170Y21391057D01*
X6967423Y21393849D01*
X6967508Y21395203D01*
X6967593Y21396471D01*
Y21397569D01*
X6967677Y21398502D01*
Y21399345D01*
Y21399937D01*
Y21400278D01*
Y21400446D01*
Y21402560D01*
X6967593Y21404590D01*
X6967508Y21406451D01*
X6967339Y21408144D01*
X6967254Y21409665D01*
X6967085Y21411018D01*
X6966916Y21412286D01*
X6966662Y21413387D01*
X6966493Y21414317D01*
X6966324Y21415163D01*
X6966155Y21415924D01*
X6966070Y21416432D01*
X6965901Y21416855D01*
X6965816Y21417194D01*
X6965732Y21417361D01*
Y21417447D01*
X6965309Y21418378D01*
X6964886Y21419139D01*
X6964463Y21419815D01*
X6963956Y21420407D01*
X6963448Y21420915D01*
X6962856Y21421338D01*
X6961841Y21421930D01*
X6960911Y21422353D01*
X6960149Y21422522D01*
X6959642Y21422606D01*
X6959473D01*
X6958119Y21422437D01*
X6956766Y21422099D01*
X6955582Y21421507D01*
X6954482Y21420915D01*
X6953552Y21420238D01*
X6952791Y21419646D01*
X6952368Y21419308D01*
X6952199Y21419139D01*
Y21426413D01*
X6953806Y21427428D01*
X6955244Y21428104D01*
X6956512Y21428612D01*
X6957697Y21429034D01*
X6958627Y21429204D01*
X6959388Y21429288D01*
X6959811Y21429373D01*
X6959980D01*
X6961334Y21429288D01*
D02*
G37*
G36*
X6938158Y21372279D02*
X6930884D01*
Y21428612D01*
X6938158D01*
Y21372279D01*
D02*
G37*
G36*
X6915236Y21422014D02*
X6901027D01*
X6910838Y21372787D01*
X6903902Y21371265D01*
X6892230Y21428612D01*
X6915236D01*
Y21422014D01*
D02*
G37*
G36*
X6570119Y19587926D02*
X6571557Y19587671D01*
X6572910Y19587334D01*
X6574179Y19586993D01*
X6575194Y19586656D01*
X6576039Y19586317D01*
X6576378Y19586150D01*
X6576632Y19586064D01*
X6576716Y19585979D01*
X6576801D01*
Y19578452D01*
X6575363Y19579044D01*
X6574179Y19579552D01*
X6573079Y19579889D01*
X6572149Y19580058D01*
X6571472Y19580228D01*
X6570965Y19580312D01*
X6570542D01*
X6569357Y19580228D01*
X6568342Y19579889D01*
X6567412Y19579466D01*
X6566651Y19579044D01*
X6566059Y19578535D01*
X6565551Y19578113D01*
X6565298Y19577776D01*
X6565213Y19577690D01*
X6564536Y19576675D01*
X6564029Y19575575D01*
X6563690Y19574393D01*
X6563437Y19573293D01*
X6563268Y19572362D01*
X6563183Y19571516D01*
Y19571008D01*
Y19570924D01*
Y19570839D01*
Y19569485D01*
X6563352Y19568048D01*
X6563775Y19565088D01*
X6564536Y19562044D01*
X6565467Y19558829D01*
X6566651Y19555614D01*
X6567835Y19552400D01*
X6569188Y19549271D01*
X6570542Y19546227D01*
X6571979Y19543350D01*
X6573333Y19540729D01*
X6574517Y19538275D01*
X6575109Y19537260D01*
X6575701Y19536246D01*
X6576209Y19535315D01*
X6576632Y19534554D01*
X6576970Y19533878D01*
X6577308Y19533286D01*
X6577646Y19532777D01*
X6577816Y19532439D01*
X6577900Y19532269D01*
X6577985Y19532185D01*
Y19531087D01*
X6554556D01*
Y19538275D01*
X6567750D01*
X6566566Y19540559D01*
X6565467Y19542758D01*
X6564452Y19544873D01*
X6563521Y19546819D01*
X6562760Y19548595D01*
X6561999Y19550201D01*
X6561322Y19551724D01*
X6560730Y19553078D01*
X6560138Y19554346D01*
X6559715Y19555360D01*
X6559377Y19556291D01*
X6559038Y19557053D01*
X6558785Y19557645D01*
X6558616Y19558067D01*
X6558531Y19558321D01*
Y19558406D01*
X6557601Y19561111D01*
X6556924Y19563734D01*
X6556416Y19566019D01*
X6556247Y19567117D01*
X6556078Y19568134D01*
X6555993Y19568977D01*
X6555909Y19569824D01*
X6555824Y19570502D01*
X6555740Y19571094D01*
Y19571600D01*
Y19571939D01*
Y19572108D01*
Y19572192D01*
X6555909Y19574815D01*
X6556247Y19577098D01*
X6556839Y19579128D01*
X6557178Y19579974D01*
X6557431Y19580734D01*
X6557770Y19581412D01*
X6558108Y19582089D01*
X6558362Y19582596D01*
X6558700Y19583018D01*
X6558869Y19583357D01*
X6559038Y19583611D01*
X6559208Y19583696D01*
Y19583780D01*
X6559884Y19584541D01*
X6560646Y19585217D01*
X6561407Y19585725D01*
X6562168Y19586234D01*
X6563690Y19586993D01*
X6565213Y19587502D01*
X6566566Y19587756D01*
X6567158Y19587926D01*
X6567666D01*
X6568089Y19588010D01*
X6568681D01*
X6570119Y19587926D01*
D02*
G37*
G36*
X6637446Y19531087D02*
X6630172D01*
Y19556291D01*
X6629242D01*
X6628396Y19556036D01*
X6627719Y19555614D01*
X6627127Y19555107D01*
X6626619Y19554599D01*
X6626281Y19554176D01*
X6626027Y19553838D01*
X6625943Y19553754D01*
X6625604Y19553162D01*
X6625266Y19552400D01*
X6624928Y19551553D01*
X6624505Y19550540D01*
X6623828Y19548425D01*
X6623236Y19546227D01*
X6622644Y19544112D01*
X6622390Y19543181D01*
X6622221Y19542336D01*
X6622052Y19541658D01*
X6621883Y19541151D01*
X6621798Y19540813D01*
Y19540729D01*
X6619684Y19531087D01*
X6612071D01*
X6614693Y19542589D01*
X6615285Y19545042D01*
X6615962Y19547325D01*
X6616554Y19549355D01*
X6617231Y19551132D01*
X6617908Y19552739D01*
X6618500Y19554092D01*
X6619176Y19555276D01*
X6619768Y19556377D01*
X6620276Y19557220D01*
X6620783Y19557898D01*
X6621291Y19558490D01*
X6621629Y19558998D01*
X6621967Y19559251D01*
X6622221Y19559505D01*
X6622306Y19559674D01*
X6622390D01*
X6621375Y19560519D01*
X6620445Y19561366D01*
X6619684Y19562296D01*
X6619007Y19563310D01*
X6618415Y19564243D01*
X6617992Y19565257D01*
X6617569Y19566272D01*
X6617315Y19567287D01*
X6616893Y19568977D01*
X6616723Y19569824D01*
X6616639Y19570416D01*
X6616554Y19571008D01*
Y19571431D01*
Y19571684D01*
Y19571770D01*
Y19573038D01*
X6616723Y19574307D01*
X6617146Y19576506D01*
X6617738Y19578452D01*
X6618415Y19580144D01*
X6618838Y19580820D01*
X6619176Y19581412D01*
X6619515Y19581918D01*
X6619768Y19582343D01*
X6620022Y19582681D01*
X6620191Y19582935D01*
X6620276Y19583018D01*
X6620360Y19583104D01*
X6621122Y19583865D01*
X6621967Y19584541D01*
X6622813Y19585133D01*
X6623659Y19585641D01*
X6625520Y19586401D01*
X6627296Y19586909D01*
X6628903Y19587164D01*
X6629664Y19587248D01*
X6630256Y19587334D01*
X6630764Y19587418D01*
X6637446D01*
Y19531087D01*
D02*
G37*
G36*
X6599892D02*
X6592617D01*
Y19587418D01*
X6599892D01*
Y19531087D01*
D02*
G37*
G36*
X6889142Y18836441D02*
X6890665Y18836102D01*
X6892187Y18835596D01*
X6893456Y18835004D01*
X6894555Y18834496D01*
X6895401Y18833987D01*
X6895655Y18833736D01*
X6895909Y18833650D01*
X6895993Y18833481D01*
X6896078D01*
Y18825784D01*
X6895232Y18826460D01*
X6894471Y18827138D01*
X6892948Y18828152D01*
X6891680Y18828828D01*
X6890495Y18829337D01*
X6889650Y18829590D01*
X6888973Y18829759D01*
X6888550Y18829845D01*
X6888381D01*
X6887535Y18829759D01*
X6886774Y18829590D01*
X6886097Y18829337D01*
X6885421Y18828998D01*
X6884321Y18828236D01*
X6883391Y18827222D01*
X6882714Y18826292D01*
X6882206Y18825446D01*
X6882122Y18825192D01*
X6881953Y18824937D01*
X6881868Y18824770D01*
Y18824684D01*
X6881530Y18823669D01*
X6881191Y18822485D01*
X6880938Y18821217D01*
X6880769Y18819862D01*
X6880430Y18817072D01*
X6880176Y18814281D01*
X6880092Y18812927D01*
X6880007Y18811659D01*
Y18810559D01*
X6879923Y18809628D01*
Y18808783D01*
Y18808191D01*
Y18807854D01*
Y18807683D01*
Y18805569D01*
X6880007Y18803539D01*
X6880092Y18801678D01*
X6880261Y18799986D01*
X6880346Y18798463D01*
X6880515Y18797112D01*
X6880684Y18795842D01*
X6880938Y18794742D01*
X6881107Y18793813D01*
X6881276Y18792966D01*
X6881445Y18792204D01*
X6881530Y18791698D01*
X6881699Y18791275D01*
X6881784Y18790936D01*
X6881868Y18790767D01*
Y18790683D01*
X6882291Y18789752D01*
X6882714Y18788991D01*
X6883137Y18788313D01*
X6883644Y18787721D01*
X6884152Y18787215D01*
X6884744Y18786792D01*
X6885759Y18786200D01*
X6886689Y18785777D01*
X6887451Y18785608D01*
X6887958Y18785522D01*
X6888127D01*
X6889481Y18785692D01*
X6890834Y18786031D01*
X6892018Y18786623D01*
X6893118Y18787215D01*
X6894048Y18787891D01*
X6894809Y18788483D01*
X6895232Y18788821D01*
X6895401Y18788991D01*
Y18781717D01*
X6893794Y18780702D01*
X6892356Y18780025D01*
X6891088Y18779518D01*
X6889903Y18779095D01*
X6888973Y18778926D01*
X6888212Y18778841D01*
X6887789Y18778757D01*
X6887620D01*
X6886266Y18778841D01*
X6884998Y18779095D01*
X6883814Y18779433D01*
X6882714Y18779941D01*
X6881699Y18780533D01*
X6880769Y18781209D01*
X6879923Y18781886D01*
X6879162Y18782648D01*
X6878485Y18783408D01*
X6877893Y18784085D01*
X6877385Y18784763D01*
X6876962Y18785355D01*
X6876624Y18785777D01*
X6876370Y18786200D01*
X6876286Y18786453D01*
X6876201Y18786539D01*
X6875524Y18788060D01*
X6874932Y18789668D01*
X6873917Y18793135D01*
X6873241Y18796771D01*
X6872987Y18798463D01*
X6872818Y18800156D01*
X6872649Y18801762D01*
X6872480Y18803285D01*
X6872395Y18804639D01*
Y18805737D01*
X6872310Y18806670D01*
Y18807430D01*
Y18807854D01*
Y18808022D01*
X6872395Y18810559D01*
X6872480Y18812927D01*
X6872649Y18815128D01*
X6872902Y18817157D01*
X6873241Y18819017D01*
X6873579Y18820795D01*
X6873917Y18822401D01*
X6874256Y18823839D01*
X6874594Y18825107D01*
X6874932Y18826207D01*
X6875271Y18827138D01*
X6875609Y18827899D01*
X6875863Y18828491D01*
X6876032Y18828914D01*
X6876201Y18829167D01*
Y18829253D01*
X6876962Y18830521D01*
X6877808Y18831705D01*
X6878739Y18832635D01*
X6879669Y18833481D01*
X6880599Y18834242D01*
X6881530Y18834834D01*
X6882460Y18835257D01*
X6883306Y18835680D01*
X6884152Y18836018D01*
X6884913Y18836188D01*
X6885674Y18836357D01*
X6886266Y18836526D01*
X6886774D01*
X6887112Y18836610D01*
X6887451D01*
X6889142Y18836441D01*
D02*
G37*
G36*
X6916716Y18779518D02*
X6909442D01*
Y18835849D01*
X6916716D01*
Y18779518D01*
D02*
G37*
G36*
X7088232Y19927213D02*
X7063027D01*
Y19926282D01*
X7063280Y19925436D01*
X7063703Y19924760D01*
X7064211Y19924168D01*
X7064718Y19923660D01*
X7065141Y19923322D01*
X7065479Y19923068D01*
X7065564Y19922984D01*
X7066156Y19922646D01*
X7066917Y19922307D01*
X7067763Y19921970D01*
X7068778Y19921545D01*
X7070893Y19920869D01*
X7073092Y19920277D01*
X7075206Y19919685D01*
X7076137Y19919431D01*
X7076983Y19919263D01*
X7077659Y19919093D01*
X7078167Y19918924D01*
X7078505Y19918839D01*
X7078590D01*
X7088232Y19916725D01*
Y19909113D01*
X7076729Y19911734D01*
X7074276Y19912326D01*
X7071992Y19913004D01*
X7069962Y19913596D01*
X7068186Y19914272D01*
X7066579Y19914948D01*
X7065226Y19915541D01*
X7064041Y19916217D01*
X7062942Y19916809D01*
X7062096Y19917317D01*
X7061419Y19917824D01*
X7060827Y19918332D01*
X7060320Y19918671D01*
X7060066Y19919008D01*
X7059812Y19919263D01*
X7059643Y19919347D01*
Y19919431D01*
X7058797Y19918416D01*
X7057952Y19917487D01*
X7057021Y19916725D01*
X7056006Y19916048D01*
X7055076Y19915456D01*
X7054061Y19915033D01*
X7053046Y19914610D01*
X7052031Y19914355D01*
X7050339Y19913934D01*
X7049493Y19913763D01*
X7048901Y19913680D01*
X7048309Y19913596D01*
X7047886D01*
X7047633D01*
X7047548D01*
X7046279D01*
X7045011Y19913763D01*
X7042811Y19914188D01*
X7040866Y19914780D01*
X7039174Y19915456D01*
X7038498Y19915878D01*
X7037906Y19916217D01*
X7037398Y19916556D01*
X7036975Y19916809D01*
X7036637Y19917062D01*
X7036383Y19917232D01*
X7036299Y19917317D01*
X7036214Y19917401D01*
X7035453Y19918163D01*
X7034776Y19919008D01*
X7034184Y19919855D01*
X7033677Y19920700D01*
X7032915Y19922562D01*
X7032408Y19924336D01*
X7032154Y19925945D01*
X7032070Y19926704D01*
X7031985Y19927296D01*
X7031900Y19927805D01*
Y19934486D01*
X7088232D01*
Y19927213D01*
D02*
G37*
G36*
Y19889658D02*
X7031900D01*
Y19896933D01*
X7088232D01*
Y19889658D01*
D02*
G37*
G36*
X7038498Y19859801D02*
X7087724Y19869614D01*
X7089247Y19862677D01*
X7031900Y19851004D01*
Y19874011D01*
X7038498D01*
Y19859801D01*
D02*
G37*
G36*
X6392389Y19287946D02*
X6393573Y19287778D01*
X6394673Y19287608D01*
X6395603Y19287354D01*
X6396449Y19287016D01*
X6397041Y19286847D01*
X6397380Y19286678D01*
X6397549Y19286594D01*
Y19279573D01*
X6396618Y19280080D01*
X6395688Y19280418D01*
X6394842Y19280672D01*
X6394081Y19280841D01*
X6393489Y19280927D01*
X6393066Y19281010D01*
X6392643D01*
X6391543Y19280927D01*
X6390613Y19280672D01*
X6389767Y19280249D01*
X6389006Y19279910D01*
X6388499Y19279488D01*
X6388076Y19279065D01*
X6387822Y19278812D01*
X6387737Y19278728D01*
X6387145Y19277881D01*
X6386638Y19276866D01*
X6386299Y19275851D01*
X6386130Y19274921D01*
X6385961Y19274075D01*
X6385876Y19273398D01*
Y19272975D01*
Y19272891D01*
Y19272806D01*
X6385961Y19271536D01*
X6386130Y19270354D01*
X6386469Y19269423D01*
X6386891Y19268492D01*
X6387399Y19267731D01*
X6387991Y19267055D01*
X6388583Y19266463D01*
X6389175Y19266039D01*
X6390359Y19265279D01*
X6391459Y19264854D01*
X6391882Y19264771D01*
X6392220Y19264687D01*
X6392389Y19264603D01*
X6392474D01*
Y19257413D01*
X6391205Y19257074D01*
X6390106Y19256651D01*
X6389091Y19256059D01*
X6388245Y19255298D01*
X6387568Y19254536D01*
X6386976Y19253690D01*
X6386469Y19252760D01*
X6386130Y19251913D01*
X6385792Y19250984D01*
X6385623Y19250137D01*
X6385454Y19249377D01*
X6385284Y19248700D01*
Y19248108D01*
X6385200Y19247685D01*
Y19247346D01*
Y19247263D01*
X6385284Y19245570D01*
X6385538Y19244133D01*
X6385876Y19242863D01*
X6386215Y19241763D01*
X6386638Y19240919D01*
X6386976Y19240327D01*
X6387230Y19239989D01*
X6387314Y19239819D01*
X6388160Y19238889D01*
X6389006Y19238297D01*
X6389852Y19237788D01*
X6390698Y19237451D01*
X6391459Y19237282D01*
X6392051Y19237196D01*
X6392474Y19237112D01*
X6392643D01*
X6393658Y19237196D01*
X6394758Y19237366D01*
X6395773Y19237704D01*
X6396703Y19238043D01*
X6397549Y19238380D01*
X6398225Y19238719D01*
X6398648Y19238889D01*
X6398818Y19238972D01*
Y19231784D01*
X6397295Y19231192D01*
X6395942Y19230769D01*
X6394673Y19230515D01*
X6393658Y19230347D01*
X6392812Y19230177D01*
X6392136Y19230092D01*
X6391628D01*
X6390528Y19230177D01*
X6389514Y19230261D01*
X6388583Y19230515D01*
X6387653Y19230853D01*
X6385961Y19231615D01*
X6384523Y19232545D01*
X6383424Y19233391D01*
X6382578Y19234152D01*
X6382239Y19234489D01*
X6381986Y19234744D01*
X6381901Y19234830D01*
X6381817Y19234914D01*
X6381140Y19235844D01*
X6380463Y19236774D01*
X6379448Y19238805D01*
X6378772Y19240749D01*
X6378264Y19242610D01*
X6377926Y19244217D01*
X6377841Y19244894D01*
Y19245486D01*
X6377757Y19245995D01*
Y19246332D01*
Y19246587D01*
Y19246671D01*
X6377841Y19248700D01*
X6378180Y19250476D01*
X6378602Y19252168D01*
X6379195Y19253606D01*
X6379871Y19254959D01*
X6380632Y19256143D01*
X6381478Y19257158D01*
X6382324Y19258089D01*
X6383254Y19258850D01*
X6384016Y19259528D01*
X6384862Y19260034D01*
X6385538Y19260457D01*
X6386130Y19260796D01*
X6386553Y19260965D01*
X6386891Y19261134D01*
X6386976D01*
X6385454Y19261980D01*
X6384185Y19262910D01*
X6383001Y19263925D01*
X6382070Y19264940D01*
X6381224Y19266039D01*
X6380548Y19267139D01*
X6379956Y19268153D01*
X6379533Y19269170D01*
X6379110Y19270184D01*
X6378856Y19271030D01*
X6378687Y19271877D01*
X6378602Y19272552D01*
X6378518Y19273145D01*
X6378433Y19273653D01*
Y19273906D01*
Y19273990D01*
Y19275090D01*
X6378602Y19276105D01*
X6379025Y19278050D01*
X6379617Y19279826D01*
X6380209Y19281264D01*
X6380886Y19282364D01*
X6381478Y19283295D01*
X6381732Y19283548D01*
X6381901Y19283801D01*
X6381986Y19283887D01*
X6382070Y19283971D01*
X6382747Y19284647D01*
X6383508Y19285324D01*
X6385031Y19286339D01*
X6386553Y19287016D01*
X6387991Y19287523D01*
X6389175Y19287862D01*
X6389767Y19287946D01*
X6390190D01*
X6390613Y19288031D01*
X6391121D01*
X6392389Y19287946D01*
D02*
G37*
G36*
X6459294Y19231107D02*
X6452020D01*
Y19256313D01*
X6451089D01*
X6450243Y19256059D01*
X6449567Y19255637D01*
X6448975Y19255128D01*
X6448467Y19254620D01*
X6448129Y19254198D01*
X6447875Y19253860D01*
X6447791Y19253775D01*
X6447452Y19253183D01*
X6447114Y19252422D01*
X6446776Y19251576D01*
X6446353Y19250562D01*
X6445676Y19248447D01*
X6445084Y19246246D01*
X6444492Y19244133D01*
X6444238Y19243202D01*
X6444069Y19242355D01*
X6443900Y19241679D01*
X6443731Y19241171D01*
X6443646Y19240834D01*
Y19240749D01*
X6441531Y19231107D01*
X6433919D01*
X6436541Y19242610D01*
X6437133Y19245062D01*
X6437810Y19247346D01*
X6438402Y19249377D01*
X6439079Y19251154D01*
X6439755Y19252760D01*
X6440347Y19254112D01*
X6441024Y19255298D01*
X6441616Y19256396D01*
X6442124Y19257243D01*
X6442631Y19257919D01*
X6443138Y19258511D01*
X6443477Y19259019D01*
X6443815Y19259273D01*
X6444069Y19259528D01*
X6444153Y19259695D01*
X6444238D01*
X6443223Y19260542D01*
X6442293Y19261388D01*
X6441531Y19262318D01*
X6440855Y19263333D01*
X6440263Y19264262D01*
X6439840Y19265279D01*
X6439417Y19266293D01*
X6439163Y19267308D01*
X6438740Y19269000D01*
X6438571Y19269846D01*
X6438486Y19270438D01*
X6438402Y19271030D01*
Y19271452D01*
Y19271706D01*
Y19271791D01*
Y19273061D01*
X6438571Y19274329D01*
X6438994Y19276527D01*
X6439586Y19278473D01*
X6440263Y19280165D01*
X6440686Y19280841D01*
X6441024Y19281433D01*
X6441362Y19281941D01*
X6441616Y19282364D01*
X6441870Y19282703D01*
X6442039Y19282956D01*
X6442124Y19283040D01*
X6442208Y19283125D01*
X6442969Y19283887D01*
X6443815Y19284563D01*
X6444661Y19285155D01*
X6445507Y19285661D01*
X6447368Y19286424D01*
X6449144Y19286931D01*
X6450751Y19287186D01*
X6451512Y19287270D01*
X6452104Y19287354D01*
X6452612Y19287439D01*
X6459294D01*
Y19231107D01*
D02*
G37*
G36*
X6421739D02*
X6414465D01*
Y19287439D01*
X6421739D01*
Y19231107D01*
D02*
G37*
G36*
X6253240Y19956158D02*
X6254509Y19955905D01*
X6255693Y19955566D01*
X6256792Y19955058D01*
X6257807Y19954466D01*
X6258738Y19953790D01*
X6259584Y19953114D01*
X6260345Y19952353D01*
X6261022Y19951591D01*
X6261614Y19950916D01*
X6262121Y19950238D01*
X6262544Y19949646D01*
X6262882Y19949223D01*
X6263136Y19948801D01*
X6263221Y19948547D01*
X6263305Y19948462D01*
X6263982Y19946941D01*
X6264574Y19945332D01*
X6265589Y19941866D01*
X6266266Y19938228D01*
X6266519Y19936536D01*
X6266689Y19934843D01*
X6266858Y19933237D01*
X6267027Y19931715D01*
X6267111Y19930360D01*
Y19929262D01*
X6267196Y19928331D01*
Y19927570D01*
Y19927147D01*
Y19926978D01*
X6267111Y19924442D01*
X6267027Y19922072D01*
X6266858Y19919873D01*
X6266604Y19917844D01*
X6266266Y19915984D01*
X6265927Y19914206D01*
X6265589Y19912599D01*
X6265251Y19911160D01*
X6264912Y19909892D01*
X6264574Y19908794D01*
X6264236Y19907863D01*
X6263897Y19907101D01*
X6263644Y19906509D01*
X6263474Y19906087D01*
X6263305Y19905833D01*
Y19905748D01*
X6262544Y19904478D01*
X6261698Y19903294D01*
X6260768Y19902365D01*
X6259837Y19901518D01*
X6258907Y19900758D01*
X6257977Y19900166D01*
X6257046Y19899744D01*
X6256200Y19899319D01*
X6255355Y19898982D01*
X6254593Y19898811D01*
X6253832Y19898643D01*
X6253240Y19898474D01*
X6252732D01*
X6252394Y19898389D01*
X6252056D01*
X6250364Y19898560D01*
X6248842Y19898897D01*
X6247319Y19899403D01*
X6246050Y19899997D01*
X6244951Y19900504D01*
X6244105Y19901012D01*
X6243851Y19901265D01*
X6243598Y19901350D01*
X6243513Y19901518D01*
X6243428D01*
Y19909216D01*
X6244274Y19908539D01*
X6245036Y19907863D01*
X6246558Y19906848D01*
X6247827Y19906171D01*
X6249011Y19905664D01*
X6249857Y19905409D01*
X6250533Y19905241D01*
X6250956Y19905156D01*
X6251125D01*
X6251971Y19905241D01*
X6252732Y19905409D01*
X6253409Y19905664D01*
X6254086Y19906001D01*
X6255185Y19906763D01*
X6256116Y19907777D01*
X6256792Y19908708D01*
X6257300Y19909554D01*
X6257384Y19909808D01*
X6257554Y19910062D01*
X6257638Y19910231D01*
Y19910316D01*
X6257977Y19911331D01*
X6258315Y19912515D01*
X6258569Y19913783D01*
X6258738Y19915137D01*
X6259076Y19917928D01*
X6259330Y19920718D01*
X6259414Y19922072D01*
X6259499Y19923341D01*
Y19924442D01*
X6259584Y19925371D01*
Y19926218D01*
Y19926810D01*
Y19927147D01*
Y19927316D01*
Y19929431D01*
X6259499Y19931461D01*
X6259414Y19933322D01*
X6259245Y19935013D01*
X6259161Y19936536D01*
X6258992Y19937889D01*
X6258822Y19939159D01*
X6258569Y19940257D01*
X6258399Y19941188D01*
X6258230Y19942033D01*
X6258061Y19942795D01*
X6257977Y19943303D01*
X6257807Y19943726D01*
X6257723Y19944064D01*
X6257638Y19944234D01*
Y19944318D01*
X6257215Y19945248D01*
X6256792Y19946008D01*
X6256370Y19946686D01*
X6255862Y19947278D01*
X6255355Y19947784D01*
X6254762Y19948209D01*
X6253747Y19948801D01*
X6252817Y19949223D01*
X6252056Y19949393D01*
X6251548Y19949477D01*
X6251379D01*
X6250026Y19949307D01*
X6248673Y19948969D01*
X6247488Y19948376D01*
X6246389Y19947784D01*
X6245458Y19947108D01*
X6244697Y19946516D01*
X6244274Y19946178D01*
X6244105Y19946008D01*
Y19953284D01*
X6245712Y19954298D01*
X6247150Y19954974D01*
X6248419Y19955482D01*
X6249603Y19955905D01*
X6250533Y19956075D01*
X6251295Y19956158D01*
X6251717Y19956244D01*
X6251887D01*
X6253240Y19956158D01*
D02*
G37*
G36*
X6230065Y19899152D02*
X6222790D01*
Y19955482D01*
X6230065D01*
Y19899152D01*
D02*
G37*
G36*
X6199277D02*
X6192003D01*
Y19955482D01*
X6199277D01*
Y19899152D01*
D02*
G37*
G36*
X5500614Y19559013D02*
X5475409D01*
Y19558084D01*
X5475663Y19557237D01*
X5476086Y19556561D01*
X5476593Y19555969D01*
X5477101Y19555463D01*
X5477523Y19555124D01*
X5477862Y19554871D01*
X5477946Y19554785D01*
X5478538Y19554446D01*
X5479300Y19554109D01*
X5480146Y19553770D01*
X5481160Y19553346D01*
X5483275Y19552670D01*
X5485474Y19552078D01*
X5487589Y19551488D01*
X5488519Y19551233D01*
X5489365Y19551064D01*
X5490042Y19550896D01*
X5490549Y19550725D01*
X5490887Y19550641D01*
X5490972D01*
X5500614Y19548526D01*
Y19540913D01*
X5489111Y19543536D01*
X5486658Y19544128D01*
X5484375Y19544804D01*
X5482345Y19545396D01*
X5480568Y19546072D01*
X5478961Y19546750D01*
X5477608Y19547342D01*
X5476424Y19548019D01*
X5475324Y19548611D01*
X5474479Y19549118D01*
X5473802Y19549626D01*
X5473210Y19550133D01*
X5472702Y19550471D01*
X5472449Y19550810D01*
X5472195Y19551064D01*
X5472026Y19551147D01*
Y19551233D01*
X5471180Y19550218D01*
X5470334Y19549287D01*
X5469404Y19548526D01*
X5468389Y19547850D01*
X5467458Y19547258D01*
X5466443Y19546835D01*
X5465428Y19546413D01*
X5464413Y19546158D01*
X5462722Y19545735D01*
X5461876Y19545566D01*
X5461284Y19545480D01*
X5460692Y19545396D01*
X5460269D01*
X5460015D01*
X5459930D01*
X5458662D01*
X5457393Y19545566D01*
X5455194Y19545988D01*
X5453248Y19546581D01*
X5451557Y19547258D01*
X5450880Y19547681D01*
X5450288Y19548019D01*
X5449781Y19548357D01*
X5449358Y19548611D01*
X5449019Y19548865D01*
X5448766Y19549034D01*
X5448681Y19549118D01*
X5448596Y19549203D01*
X5447835Y19549963D01*
X5447159Y19550810D01*
X5446566Y19551656D01*
X5446059Y19552502D01*
X5445298Y19554362D01*
X5444790Y19556139D01*
X5444536Y19557745D01*
X5444452Y19558507D01*
X5444367Y19559099D01*
X5444283Y19559607D01*
Y19566289D01*
X5500614D01*
Y19559013D01*
D02*
G37*
G36*
X5464836Y19536263D02*
X5467289Y19535924D01*
X5468389Y19535670D01*
X5469404Y19535416D01*
X5470334Y19535162D01*
X5471180Y19534909D01*
X5471941Y19534656D01*
X5472618Y19534401D01*
X5473210Y19534148D01*
X5473717Y19533894D01*
X5474056Y19533723D01*
X5474309Y19533556D01*
X5474479Y19533472D01*
X5474563D01*
X5475409Y19532880D01*
X5476086Y19532288D01*
X5476762Y19531694D01*
X5477270Y19531018D01*
X5478116Y19529749D01*
X5478708Y19528481D01*
X5479046Y19527464D01*
X5479215Y19526535D01*
X5479300Y19526196D01*
Y19525774D01*
X5479215Y19524759D01*
X5479131Y19523828D01*
X5479046Y19523405D01*
Y19523067D01*
X5478961Y19522813D01*
Y19522729D01*
X5500614Y19533131D01*
Y19526027D01*
X5483952Y19517992D01*
X5481922Y19517062D01*
X5479976Y19516301D01*
X5478031Y19515623D01*
X5476086Y19515031D01*
X5474225Y19514523D01*
X5472449Y19514186D01*
X5470757Y19513847D01*
X5469150Y19513509D01*
X5467712Y19513341D01*
X5466359Y19513171D01*
X5465174Y19513086D01*
X5464160Y19513002D01*
X5463398Y19512917D01*
X5462806D01*
X5462383D01*
X5462299D01*
X5460692D01*
X5459254Y19513086D01*
X5457816Y19513171D01*
X5456547Y19513425D01*
X5455278Y19513680D01*
X5454179Y19513931D01*
X5453164Y19514186D01*
X5452233Y19514523D01*
X5451472Y19514864D01*
X5450711Y19515115D01*
X5450119Y19515370D01*
X5449611Y19515623D01*
X5449188Y19515793D01*
X5448935Y19515962D01*
X5448766Y19516132D01*
X5448681D01*
X5447835Y19516724D01*
X5446989Y19517400D01*
X5446397Y19518077D01*
X5445805Y19518753D01*
X5445298Y19519514D01*
X5444875Y19520190D01*
X5444283Y19521545D01*
X5443944Y19522729D01*
X5443775Y19523659D01*
X5443691Y19523997D01*
Y19524506D01*
X5443775Y19525435D01*
X5443944Y19526282D01*
X5444198Y19527127D01*
X5444536Y19527888D01*
X5445382Y19529411D01*
X5446313Y19530595D01*
X5447243Y19531610D01*
X5448089Y19532372D01*
X5448427Y19532625D01*
X5448681Y19532794D01*
X5448850Y19532880D01*
X5448935Y19532964D01*
X5450965Y19534064D01*
X5453164Y19534909D01*
X5455363Y19535501D01*
X5457478Y19535924D01*
X5458408Y19536093D01*
X5459254Y19536177D01*
X5460100Y19536263D01*
X5460692D01*
X5461284Y19536346D01*
X5461707D01*
X5461960D01*
X5462045D01*
X5464836Y19536263D01*
D02*
G37*
G36*
X6868394Y19745406D02*
X6869240Y19745236D01*
X6870086Y19744981D01*
X6870847Y19744644D01*
X6872369Y19743797D01*
X6873553Y19742867D01*
X6874568Y19741937D01*
X6875330Y19741090D01*
X6875583Y19740753D01*
X6875753Y19740498D01*
X6875837Y19740331D01*
X6875922Y19740245D01*
X6877021Y19738216D01*
X6877867Y19736015D01*
X6878459Y19733817D01*
X6878882Y19731702D01*
X6879051Y19730772D01*
X6879136Y19729926D01*
X6879220Y19729080D01*
Y19728488D01*
X6879305Y19727896D01*
Y19727473D01*
Y19727220D01*
Y19727135D01*
X6879220Y19724344D01*
X6878882Y19721890D01*
X6878628Y19720792D01*
X6878375Y19719775D01*
X6878121Y19718846D01*
X6877867Y19717999D01*
X6877613Y19717239D01*
X6877360Y19716562D01*
X6877106Y19715970D01*
X6876852Y19715463D01*
X6876683Y19715125D01*
X6876514Y19714871D01*
X6876429Y19714700D01*
Y19714616D01*
X6875837Y19713771D01*
X6875245Y19713094D01*
X6874653Y19712418D01*
X6873976Y19711909D01*
X6872708Y19711064D01*
X6871439Y19710472D01*
X6870424Y19710133D01*
X6869494Y19709966D01*
X6869155Y19709880D01*
X6868732D01*
X6867717Y19709966D01*
X6866787Y19710049D01*
X6866364Y19710133D01*
X6866026D01*
X6865772Y19710219D01*
X6865687D01*
X6876091Y19688567D01*
X6868986D01*
X6860951Y19705228D01*
X6860020Y19707259D01*
X6859259Y19709204D01*
X6858582Y19711150D01*
X6857990Y19713094D01*
X6857483Y19714955D01*
X6857145Y19716731D01*
X6856806Y19718423D01*
X6856468Y19720030D01*
X6856299Y19721468D01*
X6856130Y19722821D01*
X6856045Y19724007D01*
X6855960Y19725020D01*
X6855876Y19725781D01*
Y19726373D01*
Y19726797D01*
Y19726881D01*
Y19728488D01*
X6856045Y19729926D01*
X6856130Y19731364D01*
X6856383Y19732632D01*
X6856637Y19733902D01*
X6856891Y19735001D01*
X6857145Y19736015D01*
X6857483Y19736948D01*
X6857821Y19737708D01*
X6858075Y19738469D01*
X6858329Y19739061D01*
X6858582Y19739569D01*
X6858752Y19739992D01*
X6858921Y19740245D01*
X6859090Y19740414D01*
Y19740498D01*
X6859682Y19741345D01*
X6860359Y19742191D01*
X6861035Y19742783D01*
X6861712Y19743375D01*
X6862473Y19743883D01*
X6863150Y19744305D01*
X6864503Y19744897D01*
X6865687Y19745236D01*
X6866618Y19745406D01*
X6866956Y19745490D01*
X6867464D01*
X6868394Y19745406D01*
D02*
G37*
G36*
X6940035Y19688567D02*
X6932761D01*
Y19713771D01*
X6931830D01*
X6930985Y19713518D01*
X6930308Y19713094D01*
X6929716Y19712587D01*
X6929208Y19712079D01*
X6928870Y19711658D01*
X6928616Y19711317D01*
X6928532Y19711234D01*
X6928193Y19710641D01*
X6927855Y19709880D01*
X6927517Y19709035D01*
X6927094Y19708020D01*
X6926417Y19705905D01*
X6925825Y19703706D01*
X6925233Y19701591D01*
X6924979Y19700661D01*
X6924810Y19699815D01*
X6924641Y19699138D01*
X6924472Y19698631D01*
X6924387Y19698293D01*
Y19698209D01*
X6922273Y19688567D01*
X6914660D01*
X6917282Y19700069D01*
X6917874Y19702522D01*
X6918551Y19704805D01*
X6919143Y19706834D01*
X6919820Y19708612D01*
X6920496Y19710219D01*
X6921089Y19711572D01*
X6921765Y19712756D01*
X6922357Y19713857D01*
X6922865Y19714700D01*
X6923372Y19715378D01*
X6923880Y19715970D01*
X6924218Y19716478D01*
X6924556Y19716731D01*
X6924810Y19716985D01*
X6924895Y19717154D01*
X6924979D01*
X6923964Y19717999D01*
X6923034Y19718846D01*
X6922273Y19719775D01*
X6921596Y19720792D01*
X6921004Y19721722D01*
X6920581Y19722737D01*
X6920158Y19723752D01*
X6919904Y19724767D01*
X6919481Y19726459D01*
X6919312Y19727304D01*
X6919228Y19727896D01*
X6919143Y19728488D01*
Y19728911D01*
Y19729166D01*
Y19729250D01*
Y19730518D01*
X6919312Y19731787D01*
X6919735Y19733986D01*
X6920327Y19735931D01*
X6921004Y19737624D01*
X6921427Y19738300D01*
X6921765Y19738892D01*
X6922104Y19739400D01*
X6922357Y19739822D01*
X6922611Y19740161D01*
X6922780Y19740414D01*
X6922865Y19740498D01*
X6922949Y19740584D01*
X6923711Y19741345D01*
X6924556Y19742021D01*
X6925402Y19742615D01*
X6926248Y19743121D01*
X6928109Y19743883D01*
X6929885Y19744389D01*
X6931492Y19744644D01*
X6932253Y19744728D01*
X6932845Y19744814D01*
X6933353Y19744897D01*
X6940035D01*
Y19688567D01*
D02*
G37*
G36*
X6902480D02*
X6895206D01*
Y19744897D01*
X6902480D01*
Y19688567D01*
D02*
G37*
G36*
X6836732Y19380792D02*
X6838254Y19380453D01*
X6839777Y19379945D01*
X6841045Y19379353D01*
X6842145Y19378847D01*
X6842991Y19378339D01*
X6843245Y19378085D01*
X6843498Y19378001D01*
X6843583Y19377832D01*
X6843668D01*
Y19370135D01*
X6842822Y19370811D01*
X6842060Y19371487D01*
X6840538Y19372504D01*
X6839269Y19373180D01*
X6838085Y19373688D01*
X6837239Y19373941D01*
X6836563Y19374110D01*
X6836140Y19374194D01*
X6835971D01*
X6835125Y19374110D01*
X6834364Y19373941D01*
X6833687Y19373688D01*
X6833010Y19373349D01*
X6831911Y19372588D01*
X6830980Y19371573D01*
X6830304Y19370642D01*
X6829796Y19369797D01*
X6829712Y19369543D01*
X6829542Y19369289D01*
X6829458Y19369119D01*
Y19369035D01*
X6829119Y19368021D01*
X6828781Y19366837D01*
X6828527Y19365567D01*
X6828358Y19364214D01*
X6828020Y19361423D01*
X6827766Y19358632D01*
X6827682Y19357278D01*
X6827597Y19356010D01*
Y19354910D01*
X6827512Y19353979D01*
Y19353134D01*
Y19352542D01*
Y19352203D01*
Y19352034D01*
Y19349921D01*
X6827597Y19347890D01*
X6827682Y19346030D01*
X6827851Y19344337D01*
X6827935Y19342815D01*
X6828104Y19341461D01*
X6828274Y19340193D01*
X6828527Y19339093D01*
X6828697Y19338164D01*
X6828866Y19337317D01*
X6829035Y19336555D01*
X6829119Y19336047D01*
X6829289Y19335625D01*
X6829373Y19335287D01*
X6829458Y19335118D01*
Y19335033D01*
X6829881Y19334103D01*
X6830304Y19333342D01*
X6830726Y19332664D01*
X6831234Y19332072D01*
X6831741Y19331564D01*
X6832334Y19331142D01*
X6833349Y19330550D01*
X6834279Y19330127D01*
X6835040Y19329958D01*
X6835548Y19329874D01*
X6835717D01*
X6837070Y19330043D01*
X6838423Y19330380D01*
X6839608Y19330972D01*
X6840707Y19331564D01*
X6841638Y19332242D01*
X6842399Y19332834D01*
X6842822Y19333173D01*
X6842991Y19333342D01*
Y19326068D01*
X6841384Y19325053D01*
X6839946Y19324376D01*
X6838677Y19323868D01*
X6837493Y19323445D01*
X6836563Y19323276D01*
X6835801Y19323192D01*
X6835379Y19323106D01*
X6835209D01*
X6833856Y19323192D01*
X6832587Y19323445D01*
X6831403Y19323784D01*
X6830304Y19324290D01*
X6829289Y19324883D01*
X6828358Y19325560D01*
X6827512Y19326237D01*
X6826751Y19326997D01*
X6826074Y19327759D01*
X6825482Y19328436D01*
X6824975Y19329112D01*
X6824552Y19329704D01*
X6824214Y19330127D01*
X6823960Y19330550D01*
X6823875Y19330804D01*
X6823791Y19330888D01*
X6823114Y19332411D01*
X6822522Y19334018D01*
X6821507Y19337486D01*
X6820830Y19341122D01*
X6820577Y19342815D01*
X6820407Y19344505D01*
X6820238Y19346114D01*
X6820069Y19347636D01*
X6819985Y19348988D01*
Y19350089D01*
X6819900Y19351019D01*
Y19351781D01*
Y19352203D01*
Y19352373D01*
X6819985Y19354910D01*
X6820069Y19357278D01*
X6820238Y19359477D01*
X6820492Y19361507D01*
X6820830Y19363368D01*
X6821169Y19365144D01*
X6821507Y19366751D01*
X6821845Y19368188D01*
X6822184Y19369458D01*
X6822522Y19370558D01*
X6822860Y19371487D01*
X6823199Y19372249D01*
X6823452Y19372841D01*
X6823622Y19373264D01*
X6823791Y19373518D01*
Y19373602D01*
X6824552Y19374870D01*
X6825398Y19376054D01*
X6826328Y19376987D01*
X6827259Y19377832D01*
X6828189Y19378593D01*
X6829119Y19379185D01*
X6830050Y19379608D01*
X6830896Y19380031D01*
X6831741Y19380370D01*
X6832503Y19380537D01*
X6833264Y19380707D01*
X6833856Y19380878D01*
X6834364D01*
X6834702Y19380962D01*
X6835040D01*
X6836732Y19380792D01*
D02*
G37*
G36*
X6857454Y19381129D02*
X6858469Y19381046D01*
X6859400Y19380792D01*
X6860330Y19380453D01*
X6862022Y19379694D01*
X6863460Y19378761D01*
X6864559Y19377916D01*
X6865405Y19377155D01*
X6865743Y19376817D01*
X6865997Y19376562D01*
X6866082Y19376479D01*
X6866166Y19376395D01*
X6866843Y19375462D01*
X6867520Y19374533D01*
X6868535Y19372504D01*
X6869211Y19370558D01*
X6869719Y19368697D01*
X6870057Y19367090D01*
X6870142Y19366412D01*
Y19365820D01*
X6870226Y19365314D01*
Y19364975D01*
Y19364722D01*
Y19364638D01*
X6870142Y19362607D01*
X6869803Y19360831D01*
X6869380Y19359138D01*
X6868788Y19357701D01*
X6868112Y19356348D01*
X6867351Y19355164D01*
X6866505Y19354149D01*
X6865659Y19353218D01*
X6864728Y19352457D01*
X6863967Y19351781D01*
X6863121Y19351273D01*
X6862445Y19350850D01*
X6861853Y19350513D01*
X6861430Y19350343D01*
X6861091Y19350172D01*
X6861007D01*
X6862529Y19349329D01*
X6863798Y19348396D01*
X6864982Y19347382D01*
X6865913Y19346367D01*
X6866758Y19345268D01*
X6867435Y19344168D01*
X6868027Y19343153D01*
X6868450Y19342139D01*
X6868873Y19341122D01*
X6869127Y19340277D01*
X6869296Y19339432D01*
X6869380Y19338754D01*
X6869465Y19338164D01*
X6869550Y19337656D01*
Y19337402D01*
Y19337317D01*
Y19336217D01*
X6869380Y19335202D01*
X6868958Y19333257D01*
X6868365Y19331480D01*
X6867773Y19330043D01*
X6867097Y19328943D01*
X6866505Y19328014D01*
X6866251Y19327759D01*
X6866082Y19327505D01*
X6865997Y19327422D01*
X6865913Y19327336D01*
X6865236Y19326660D01*
X6864475Y19325983D01*
X6862952Y19324968D01*
X6861430Y19324290D01*
X6859992Y19323784D01*
X6858808Y19323445D01*
X6858216Y19323361D01*
X6857793D01*
X6857370Y19323276D01*
X6856862D01*
X6855594Y19323361D01*
X6854409Y19323531D01*
X6853310Y19323698D01*
X6852379Y19323953D01*
X6851534Y19324290D01*
X6850942Y19324460D01*
X6850603Y19324631D01*
X6850434Y19324715D01*
Y19331735D01*
X6851365Y19331227D01*
X6852295Y19330888D01*
X6853141Y19330635D01*
X6853902Y19330466D01*
X6854494Y19330380D01*
X6854917Y19330296D01*
X6855340D01*
X6856439Y19330380D01*
X6857370Y19330635D01*
X6858216Y19331058D01*
X6858977Y19331396D01*
X6859484Y19331819D01*
X6859907Y19332242D01*
X6860161Y19332497D01*
X6860246Y19332581D01*
X6860838Y19333426D01*
X6861345Y19334441D01*
X6861684Y19335455D01*
X6861853Y19336388D01*
X6862022Y19337231D01*
X6862106Y19337909D01*
Y19338332D01*
Y19338416D01*
Y19338501D01*
X6862022Y19339771D01*
X6861853Y19340955D01*
X6861514Y19341884D01*
X6861091Y19342815D01*
X6860584Y19343576D01*
X6859992Y19344254D01*
X6859400Y19344846D01*
X6858808Y19345268D01*
X6857624Y19346030D01*
X6856524Y19346452D01*
X6856101Y19346536D01*
X6855763Y19346622D01*
X6855594Y19346706D01*
X6855509D01*
Y19353896D01*
X6856778Y19354233D01*
X6857877Y19354655D01*
X6858892Y19355247D01*
X6859738Y19356010D01*
X6860415Y19356770D01*
X6861007Y19357617D01*
X6861514Y19358546D01*
X6861853Y19359393D01*
X6862191Y19360323D01*
X6862360Y19361169D01*
X6862529Y19361929D01*
X6862698Y19362607D01*
Y19363199D01*
X6862783Y19363622D01*
Y19363960D01*
Y19364046D01*
X6862698Y19365736D01*
X6862445Y19367174D01*
X6862106Y19368443D01*
X6861768Y19369543D01*
X6861345Y19370387D01*
X6861007Y19370981D01*
X6860753Y19371320D01*
X6860669Y19371487D01*
X6859823Y19372418D01*
X6858977Y19373010D01*
X6858131Y19373518D01*
X6857285Y19373856D01*
X6856524Y19374026D01*
X6855932Y19374110D01*
X6855509Y19374194D01*
X6855340D01*
X6854325Y19374110D01*
X6853225Y19373941D01*
X6852210Y19373602D01*
X6851280Y19373264D01*
X6850434Y19372926D01*
X6849757Y19372588D01*
X6849335Y19372418D01*
X6849165Y19372334D01*
Y19379523D01*
X6850688Y19380115D01*
X6852041Y19380537D01*
X6853310Y19380792D01*
X6854325Y19380962D01*
X6855171Y19381129D01*
X6855847Y19381215D01*
X6856355D01*
X6857454Y19381129D01*
D02*
G37*
G36*
X6868053Y20425819D02*
X6869491Y20425565D01*
X6870844Y20425227D01*
X6872113Y20424889D01*
X6873128Y20424550D01*
X6873974Y20424213D01*
X6874312Y20424043D01*
X6874566Y20423958D01*
X6874650Y20423874D01*
X6874735D01*
Y20416347D01*
X6873297Y20416937D01*
X6872113Y20417445D01*
X6871013Y20417784D01*
X6870083Y20417953D01*
X6869406Y20418121D01*
X6868899Y20418207D01*
X6868476D01*
X6867292Y20418121D01*
X6866277Y20417784D01*
X6865346Y20417361D01*
X6864585Y20416937D01*
X6863993Y20416431D01*
X6863486Y20416008D01*
X6863232Y20415669D01*
X6863147Y20415585D01*
X6862471Y20414571D01*
X6861963Y20413470D01*
X6861625Y20412286D01*
X6861371Y20411188D01*
X6861202Y20410255D01*
X6861117Y20409410D01*
Y20408904D01*
Y20408818D01*
Y20408734D01*
Y20407381D01*
X6861287Y20405942D01*
X6861709Y20402982D01*
X6862471Y20399937D01*
X6863401Y20396722D01*
X6864585Y20393509D01*
X6865769Y20390295D01*
X6867123Y20387164D01*
X6868476Y20384120D01*
X6869914Y20381244D01*
X6871267Y20378622D01*
X6872451Y20376170D01*
X6873043Y20375156D01*
X6873635Y20374139D01*
X6874143Y20373209D01*
X6874566Y20372449D01*
X6874904Y20371771D01*
X6875243Y20371179D01*
X6875581Y20370673D01*
X6875750Y20370332D01*
X6875835Y20370164D01*
X6875919Y20370081D01*
Y20368980D01*
X6852490D01*
Y20376170D01*
X6865685D01*
X6864501Y20378453D01*
X6863401Y20380652D01*
X6862386Y20382767D01*
X6861456Y20384712D01*
X6860694Y20386488D01*
X6859933Y20388097D01*
X6859257Y20389618D01*
X6858664Y20390971D01*
X6858072Y20392239D01*
X6857649Y20393256D01*
X6857311Y20394186D01*
X6856973Y20394946D01*
X6856719Y20395538D01*
X6856550Y20395963D01*
X6856465Y20396214D01*
Y20396300D01*
X6855535Y20399007D01*
X6854858Y20401630D01*
X6854351Y20403912D01*
X6854182Y20405013D01*
X6854012Y20406027D01*
X6853928Y20406873D01*
X6853843Y20407719D01*
X6853759Y20408395D01*
X6853674Y20408987D01*
Y20409496D01*
Y20409833D01*
Y20410002D01*
Y20410088D01*
X6853843Y20412709D01*
X6854182Y20414993D01*
X6854774Y20417023D01*
X6855112Y20417868D01*
X6855366Y20418629D01*
X6855704Y20419305D01*
X6856042Y20419983D01*
X6856296Y20420491D01*
X6856634Y20420914D01*
X6856804Y20421252D01*
X6856973Y20421506D01*
X6857142Y20421590D01*
Y20421675D01*
X6857819Y20422437D01*
X6858580Y20423112D01*
X6859341Y20423621D01*
X6860102Y20424129D01*
X6861625Y20424889D01*
X6863147Y20425397D01*
X6864501Y20425650D01*
X6865093Y20425819D01*
X6865600D01*
X6866023Y20425903D01*
X6866615D01*
X6868053Y20425819D01*
D02*
G37*
G36*
X6890214Y20425987D02*
X6891482Y20425735D01*
X6892666Y20425397D01*
X6893766Y20424889D01*
X6894781Y20424297D01*
X6895711Y20423621D01*
X6896557Y20422943D01*
X6897318Y20422182D01*
X6897995Y20421420D01*
X6898587Y20420744D01*
X6899095Y20420068D01*
X6899518Y20419476D01*
X6899856Y20419054D01*
X6900110Y20418629D01*
X6900194Y20418376D01*
X6900279Y20418291D01*
X6900955Y20416769D01*
X6901548Y20415163D01*
X6902563Y20411694D01*
X6903239Y20408057D01*
X6903493Y20406364D01*
X6903662Y20404674D01*
X6903831Y20403067D01*
X6904000Y20401544D01*
X6904085Y20400191D01*
Y20399091D01*
X6904170Y20398161D01*
Y20397400D01*
Y20396977D01*
Y20396808D01*
X6904085Y20394270D01*
X6904000Y20391902D01*
X6903831Y20389703D01*
X6903578Y20387672D01*
X6903239Y20385812D01*
X6902901Y20384036D01*
X6902563Y20382430D01*
X6902224Y20380991D01*
X6901886Y20379723D01*
X6901548Y20378622D01*
X6901209Y20377692D01*
X6900871Y20376932D01*
X6900617Y20376340D01*
X6900448Y20375916D01*
X6900279Y20375662D01*
Y20375577D01*
X6899518Y20374309D01*
X6898672Y20373125D01*
X6897741Y20372194D01*
X6896811Y20371349D01*
X6895881Y20370587D01*
X6894950Y20369995D01*
X6894020Y20369572D01*
X6893174Y20369148D01*
X6892328Y20368811D01*
X6891567Y20368642D01*
X6890806Y20368472D01*
X6890214Y20368303D01*
X6889706D01*
X6889368Y20368219D01*
X6889029D01*
X6887338Y20368388D01*
X6885815Y20368726D01*
X6884293Y20369234D01*
X6883024Y20369826D01*
X6881925Y20370332D01*
X6881079Y20370840D01*
X6880825Y20371095D01*
X6880571Y20371179D01*
X6880487Y20371349D01*
X6880402D01*
Y20379045D01*
X6881248Y20378369D01*
X6882009Y20377692D01*
X6883532Y20376677D01*
X6884800Y20375999D01*
X6885984Y20375493D01*
X6886830Y20375240D01*
X6887507Y20375070D01*
X6887930Y20374985D01*
X6888099D01*
X6888945Y20375070D01*
X6889706Y20375240D01*
X6890383Y20375493D01*
X6891059Y20375832D01*
X6892159Y20376591D01*
X6893089Y20377608D01*
X6893766Y20378539D01*
X6894273Y20379384D01*
X6894358Y20379637D01*
X6894527Y20379890D01*
X6894612Y20380060D01*
Y20380145D01*
X6894950Y20381160D01*
X6895288Y20382344D01*
X6895542Y20383614D01*
X6895711Y20384966D01*
X6896050Y20387756D01*
X6896303Y20390549D01*
X6896388Y20391902D01*
X6896473Y20393172D01*
Y20394270D01*
X6896557Y20395201D01*
Y20396046D01*
Y20396638D01*
Y20396977D01*
Y20397147D01*
Y20399260D01*
X6896473Y20401289D01*
X6896388Y20403151D01*
X6896219Y20404843D01*
X6896134Y20406364D01*
X6895965Y20407719D01*
X6895796Y20408987D01*
X6895542Y20410088D01*
X6895373Y20411017D01*
X6895204Y20411864D01*
X6895035Y20412624D01*
X6894950Y20413132D01*
X6894781Y20413554D01*
X6894696Y20413893D01*
X6894612Y20414062D01*
Y20414146D01*
X6894189Y20415077D01*
X6893766Y20415839D01*
X6893343Y20416515D01*
X6892836Y20417107D01*
X6892328Y20417615D01*
X6891736Y20418037D01*
X6890721Y20418629D01*
X6889791Y20419054D01*
X6889029Y20419221D01*
X6888522Y20419305D01*
X6888353D01*
X6886999Y20419138D01*
X6885646Y20418799D01*
X6884462Y20418207D01*
X6883362Y20417615D01*
X6882432Y20416937D01*
X6881671Y20416347D01*
X6881248Y20416008D01*
X6881079Y20415839D01*
Y20423112D01*
X6882686Y20424129D01*
X6884124Y20424805D01*
X6885392Y20425311D01*
X6886577Y20425735D01*
X6887507Y20425903D01*
X6888268Y20425987D01*
X6888691Y20426073D01*
X6888860D01*
X6890214Y20425987D01*
D02*
G37*
G36*
X6844116Y20418713D02*
X6829907D01*
X6839718Y20369489D01*
X6832782Y20367966D01*
X6821110Y20425311D01*
X6844116D01*
Y20418713D01*
D02*
G37*
G36*
X7667479Y22244632D02*
X7660205D01*
Y22270683D01*
X7650731D01*
Y22277451D01*
X7660205D01*
Y22294197D01*
X7649970D01*
Y22300964D01*
X7667479D01*
Y22244632D01*
D02*
G37*
G36*
X7640328D02*
X7633054D01*
Y22300964D01*
X7640328D01*
Y22244632D01*
D02*
G37*
G36*
X7623665D02*
X7614700D01*
X7613092Y22244717D01*
X7611655Y22244971D01*
X7610217Y22245309D01*
X7608948Y22245732D01*
X7607679Y22246239D01*
X7606580Y22246831D01*
X7605565Y22247508D01*
X7604634Y22248186D01*
X7603873Y22248776D01*
X7603112Y22249454D01*
X7602520Y22250044D01*
X7602012Y22250552D01*
X7601674Y22250977D01*
X7601420Y22251314D01*
X7601251Y22251569D01*
X7601166Y22251653D01*
X7600321Y22253090D01*
X7599559Y22254613D01*
X7598967Y22256219D01*
X7598375Y22257996D01*
X7597868Y22259688D01*
X7597529Y22261464D01*
X7596937Y22264932D01*
X7596768Y22266454D01*
X7596599Y22267976D01*
X7596514Y22269330D01*
X7596430Y22270514D01*
X7596345Y22271445D01*
Y22272206D01*
Y22272629D01*
Y22272798D01*
X7596430Y22275336D01*
X7596599Y22277788D01*
X7596853Y22279987D01*
X7597191Y22282101D01*
X7597614Y22284047D01*
X7598121Y22285825D01*
X7598714Y22287515D01*
X7599390Y22289122D01*
X7600067Y22290475D01*
X7600828Y22291829D01*
X7601674Y22293013D01*
X7602435Y22294113D01*
X7603366Y22295042D01*
X7604211Y22295973D01*
X7605142Y22296735D01*
X7605988Y22297411D01*
X7607848Y22298595D01*
X7609625Y22299442D01*
X7611232Y22300117D01*
X7612670Y22300542D01*
X7613938Y22300795D01*
X7614446Y22300879D01*
X7614869D01*
X7615207Y22300964D01*
X7623665D01*
Y22244632D01*
D02*
G37*
G36*
X7590847Y22266623D02*
Y22260110D01*
X7576130D01*
Y22244632D01*
X7568856D01*
Y22260110D01*
X7565727D01*
Y22265269D01*
X7568856D01*
Y22301556D01*
X7575707D01*
X7590847Y22266623D01*
D02*
G37*
G36*
X6634593Y18674512D02*
X6621398D01*
X6622583Y18672227D01*
X6623682Y18670029D01*
X6624697Y18667912D01*
X6625628Y18665968D01*
X6626389Y18664192D01*
X6627150Y18662584D01*
X6627827Y18661063D01*
X6628419Y18659709D01*
X6629011Y18658440D01*
X6629434Y18657425D01*
X6629772Y18656496D01*
X6630110Y18655733D01*
X6630364Y18655141D01*
X6630533Y18654718D01*
X6630618Y18654465D01*
Y18654379D01*
X6631548Y18651672D01*
X6632225Y18649051D01*
X6632732Y18646768D01*
X6632902Y18645668D01*
X6633071Y18644653D01*
X6633155Y18643806D01*
X6633240Y18642961D01*
X6633325Y18642285D01*
X6633409Y18641693D01*
Y18641185D01*
Y18640846D01*
Y18640678D01*
Y18640593D01*
X6633240Y18637971D01*
X6632902Y18635687D01*
X6632310Y18633656D01*
X6631971Y18632812D01*
X6631717Y18632050D01*
X6631379Y18631374D01*
X6631041Y18630698D01*
X6630787Y18630190D01*
X6630449Y18629767D01*
X6630280Y18629428D01*
X6630110Y18629175D01*
X6629941Y18629089D01*
Y18629005D01*
X6629265Y18628244D01*
X6628503Y18627568D01*
X6627742Y18627060D01*
X6626981Y18626553D01*
X6625458Y18625790D01*
X6623936Y18625284D01*
X6622583Y18625031D01*
X6621991Y18624861D01*
X6621483D01*
X6621060Y18624776D01*
X6620468D01*
X6619030Y18624861D01*
X6617592Y18625114D01*
X6616239Y18625453D01*
X6614970Y18625790D01*
X6613955Y18626131D01*
X6613109Y18626468D01*
X6612771Y18626637D01*
X6612517Y18626723D01*
X6612433Y18626807D01*
X6612348D01*
Y18634334D01*
X6613786Y18633742D01*
X6614970Y18633235D01*
X6616070Y18632896D01*
X6617000Y18632727D01*
X6617677Y18632558D01*
X6618184Y18632474D01*
X6618607D01*
X6619791Y18632558D01*
X6620806Y18632896D01*
X6621737Y18633319D01*
X6622498Y18633742D01*
X6623090Y18634248D01*
X6623598Y18634673D01*
X6623851Y18635011D01*
X6623936Y18635095D01*
X6624613Y18636110D01*
X6625120Y18637210D01*
X6625458Y18638394D01*
X6625712Y18639494D01*
X6625881Y18640424D01*
X6625966Y18641270D01*
Y18641777D01*
Y18641862D01*
Y18641946D01*
Y18643300D01*
X6625797Y18644737D01*
X6625374Y18647697D01*
X6624613Y18650743D01*
X6623682Y18653957D01*
X6622498Y18657172D01*
X6621314Y18660385D01*
X6619961Y18663515D01*
X6618607Y18666560D01*
X6617169Y18669437D01*
X6615816Y18672058D01*
X6614632Y18674512D01*
X6614040Y18675526D01*
X6613448Y18676540D01*
X6612940Y18677470D01*
X6612517Y18678232D01*
X6612179Y18678909D01*
X6611841Y18679501D01*
X6611502Y18680008D01*
X6611333Y18680347D01*
X6611249Y18680516D01*
X6611164Y18680600D01*
Y18681700D01*
X6634593D01*
Y18674512D01*
D02*
G37*
G36*
X6592049Y18682378D02*
X6592979Y18682292D01*
X6594671Y18681870D01*
X6596108Y18681194D01*
X6597462Y18680516D01*
X6598477Y18679839D01*
X6599238Y18679163D01*
X6599745Y18678740D01*
X6599915Y18678571D01*
X6600591Y18677809D01*
X6601183Y18676962D01*
X6602114Y18675188D01*
X6602790Y18673242D01*
X6603213Y18671466D01*
X6603552Y18669774D01*
X6603636Y18669096D01*
Y18668420D01*
X6603721Y18667912D01*
Y18667575D01*
Y18667320D01*
Y18667236D01*
Y18625368D01*
X6596447D01*
Y18668082D01*
X6596362Y18669351D01*
X6596193Y18670535D01*
X6595939Y18671466D01*
X6595686Y18672311D01*
X6595432Y18672903D01*
X6595178Y18673412D01*
X6595009Y18673665D01*
X6594924Y18673749D01*
X6594332Y18674426D01*
X6593740Y18674849D01*
X6593064Y18675188D01*
X6592471Y18675441D01*
X6591964Y18675610D01*
X6591541Y18675694D01*
X6591118D01*
X6590188Y18675610D01*
X6589426Y18675356D01*
X6588665Y18674933D01*
X6588073Y18674426D01*
X6587566Y18673834D01*
X6587143Y18673157D01*
X6586551Y18671719D01*
X6586128Y18670280D01*
X6586043Y18669604D01*
X6585959Y18669012D01*
X6585874Y18668504D01*
Y18668082D01*
Y18667828D01*
Y18667744D01*
Y18625368D01*
X6578600D01*
Y18667828D01*
X6578769Y18670113D01*
X6579192Y18672227D01*
X6579700Y18674004D01*
X6580376Y18675526D01*
X6581053Y18676794D01*
X6581307Y18677217D01*
X6581560Y18677640D01*
X6581814Y18677979D01*
X6581983Y18678232D01*
X6582152Y18678317D01*
Y18678401D01*
X6582829Y18679079D01*
X6583590Y18679755D01*
X6585028Y18680769D01*
X6586551Y18681445D01*
X6587989Y18681953D01*
X6589257Y18682207D01*
X6590188Y18682378D01*
X6590611Y18682462D01*
X6591118D01*
X6592049Y18682378D01*
D02*
G37*
G36*
X6430938Y18324727D02*
X6421973D01*
X6420366Y18324811D01*
X6418928Y18325066D01*
X6417490Y18325403D01*
X6416221Y18325826D01*
X6414952Y18326334D01*
X6413853Y18326926D01*
X6412838Y18327602D01*
X6411907Y18328279D01*
X6411146Y18328871D01*
X6410385Y18329549D01*
X6409793Y18330141D01*
X6409285Y18330647D01*
X6408947Y18331070D01*
X6408693Y18331409D01*
X6408524Y18331662D01*
X6408440Y18331747D01*
X6407594Y18333185D01*
X6406833Y18334708D01*
X6406240Y18336314D01*
X6405648Y18338091D01*
X6405141Y18339783D01*
X6404803Y18341557D01*
X6404210Y18345026D01*
X6404041Y18346548D01*
X6403872Y18348071D01*
X6403788Y18349425D01*
X6403703Y18350609D01*
X6403618Y18351540D01*
Y18352299D01*
Y18352724D01*
Y18352892D01*
X6403703Y18355431D01*
X6403872Y18357883D01*
X6404126Y18360081D01*
X6404464Y18362196D01*
X6404887Y18364142D01*
X6405395Y18365918D01*
X6405987Y18367610D01*
X6406663Y18369217D01*
X6407340Y18370570D01*
X6408101Y18371922D01*
X6408947Y18373108D01*
X6409708Y18374207D01*
X6410639Y18375137D01*
X6411485Y18376068D01*
X6412415Y18376830D01*
X6413261Y18377505D01*
X6415122Y18378690D01*
X6416898Y18379536D01*
X6418505Y18380212D01*
X6419943Y18380635D01*
X6421211Y18380888D01*
X6421719Y18380974D01*
X6422142D01*
X6422480Y18381058D01*
X6430938D01*
Y18324727D01*
D02*
G37*
G36*
X6388647D02*
X6381373D01*
Y18381058D01*
X6388647D01*
Y18324727D01*
D02*
G37*
%LPC*%
G36*
X6430589Y15239784D02*
X6430213D01*
X6422319Y15192793D01*
X6438483D01*
X6430589Y15239784D01*
D02*
G37*
G36*
X6361608Y15253317D02*
X6360292D01*
Y15219109D01*
X6362924D01*
X6364239Y15219296D01*
X6365931Y15219672D01*
X6367810Y15220236D01*
X6369878Y15221176D01*
X6371758Y15222304D01*
X6373637Y15223808D01*
X6373825Y15223994D01*
X6374389Y15224747D01*
X6375141Y15225687D01*
X6375893Y15227191D01*
X6376645Y15229070D01*
X6377396Y15231139D01*
X6377960Y15233769D01*
X6378148Y15236589D01*
Y15236964D01*
Y15237904D01*
X6377960Y15239407D01*
X6377584Y15241100D01*
X6377021Y15242979D01*
X6376269Y15245047D01*
X6375329Y15247115D01*
X6373825Y15248807D01*
X6373637Y15248994D01*
X6373073Y15249557D01*
X6372134Y15250310D01*
X6370630Y15251062D01*
X6368938Y15251814D01*
X6366871Y15252565D01*
X6364427Y15253130D01*
X6361608Y15253317D01*
D02*
G37*
G36*
X6362736Y15205576D02*
X6360292D01*
Y15167795D01*
X6364051D01*
X6365743Y15167982D01*
X6367623Y15168359D01*
X6369690Y15168922D01*
X6371946Y15169862D01*
X6374013Y15170992D01*
X6375893Y15172495D01*
X6376081Y15172682D01*
X6376645Y15173434D01*
X6377396Y15174562D01*
X6378336Y15176067D01*
X6379276Y15177945D01*
X6380028Y15180389D01*
X6380592Y15183020D01*
X6380780Y15186217D01*
Y15186403D01*
Y15186591D01*
Y15187720D01*
X6380592Y15189223D01*
X6380216Y15191103D01*
X6379652Y15193358D01*
X6378712Y15195613D01*
X6377584Y15198058D01*
X6376081Y15200125D01*
X6375893Y15200313D01*
X6375141Y15201064D01*
X6374201Y15201816D01*
X6372697Y15202943D01*
X6370818Y15203883D01*
X6368562Y15204823D01*
X6365743Y15205386D01*
X6362736Y15205576D01*
D02*
G37*
G36*
X7307612Y21387154D02*
X7307443D01*
X7306682Y21387070D01*
X7306005Y21386731D01*
X7305413Y21386308D01*
X7304905Y21385631D01*
X7304482Y21384955D01*
X7304144Y21384109D01*
X7303552Y21382333D01*
X7303298Y21380556D01*
X7303214Y21379710D01*
X7303129Y21379034D01*
X7303045Y21378442D01*
Y21377934D01*
Y21377596D01*
Y21377512D01*
X7303129Y21375397D01*
X7303214Y21373537D01*
X7303467Y21372014D01*
X7303721Y21370660D01*
X7304060Y21369476D01*
X7304398Y21368462D01*
X7304821Y21367700D01*
X7305159Y21367108D01*
X7305582Y21366600D01*
X7306005Y21366177D01*
X7306343Y21365924D01*
X7306682Y21365755D01*
X7307189Y21365585D01*
X7307358D01*
X7308119Y21365669D01*
X7308712Y21366008D01*
X7309304Y21366600D01*
X7309811Y21367278D01*
X7310234Y21368037D01*
X7310572Y21368970D01*
X7311080Y21370999D01*
X7311334Y21372945D01*
X7311418Y21373874D01*
X7311503Y21374635D01*
X7311587Y21375311D01*
Y21375903D01*
Y21376244D01*
Y21376328D01*
X7311503Y21378273D01*
X7311418Y21379880D01*
X7311164Y21381319D01*
X7310911Y21382587D01*
X7310657Y21383601D01*
X7310234Y21384532D01*
X7309896Y21385208D01*
X7309473Y21385802D01*
X7309134Y21386223D01*
X7308712Y21386562D01*
X7308373Y21386815D01*
X7308119Y21386984D01*
X7307612Y21387154D01*
D02*
G37*
G36*
X6317326Y21385565D02*
X6316142D01*
X6314958Y21385480D01*
X6313858Y21385310D01*
X6312928Y21385143D01*
X6311997Y21384804D01*
X6311151Y21384381D01*
X6310390Y21383958D01*
X6309206Y21383112D01*
X6308276Y21382182D01*
X6307599Y21381335D01*
X6307345Y21380998D01*
X6307176Y21380827D01*
X6307092Y21380659D01*
Y21380576D01*
X6306669Y21379559D01*
X6306246Y21378461D01*
X6305907Y21377191D01*
X6305654Y21375923D01*
X6305146Y21373131D01*
X6304892Y21370425D01*
X6304723Y21369072D01*
Y21367886D01*
X6304639Y21366788D01*
X6304554Y21365857D01*
Y21365012D01*
Y21364420D01*
Y21364081D01*
Y21363911D01*
Y21361882D01*
X6304639Y21359937D01*
X6304808Y21358244D01*
X6304977Y21356638D01*
X6305146Y21355116D01*
X6305400Y21353761D01*
X6305654Y21352579D01*
X6305907Y21351562D01*
X6306161Y21350633D01*
X6306415Y21349786D01*
X6306669Y21349194D01*
X6306838Y21348602D01*
X6307007Y21348180D01*
X6307176Y21347926D01*
X6307261Y21347757D01*
Y21347672D01*
X6307768Y21346826D01*
X6308360Y21346065D01*
X6309037Y21345389D01*
X6309798Y21344881D01*
X6310559Y21344374D01*
X6311236Y21343951D01*
X6312759Y21343359D01*
X6314112Y21343021D01*
X6314704Y21342937D01*
X6315296Y21342851D01*
X6315719Y21342767D01*
X6317326D01*
Y21385565D01*
D02*
G37*
G36*
X6277234Y21379053D02*
X6277065D01*
Y21356638D01*
X6286792D01*
X6277234Y21379053D01*
D02*
G37*
G36*
X7668173Y19798373D02*
X7667665D01*
X7667496D01*
X7665889Y19798288D01*
X7664451Y19798204D01*
X7663182Y19798035D01*
X7662167Y19797781D01*
X7661237Y19797527D01*
X7660560Y19797189D01*
X7659884Y19796851D01*
X7659461Y19796428D01*
X7659038Y19796089D01*
X7658784Y19795750D01*
X7658446Y19795158D01*
X7658277Y19794736D01*
Y19794566D01*
X7658361Y19793890D01*
X7658699Y19793298D01*
X7659122Y19792790D01*
X7659714Y19792284D01*
X7660391Y19791945D01*
X7661237Y19791606D01*
X7662929Y19791183D01*
X7664620Y19790845D01*
X7665381Y19790761D01*
X7666143D01*
X7666735Y19790675D01*
X7667158D01*
X7667496D01*
X7667581D01*
X7668934Y19790761D01*
X7670203Y19790845D01*
X7671218Y19791014D01*
X7672063Y19791183D01*
X7672740Y19791437D01*
X7673248Y19791606D01*
X7673586Y19791692D01*
X7673670Y19791776D01*
X7674432Y19792198D01*
X7674939Y19792621D01*
X7675362Y19793129D01*
X7675616Y19793552D01*
X7675785Y19793974D01*
X7675870Y19794228D01*
Y19794566D01*
X7675785Y19795158D01*
X7675531Y19795750D01*
X7675193Y19796175D01*
X7674770Y19796597D01*
X7674347Y19796935D01*
X7674009Y19797189D01*
X7673755Y19797273D01*
X7673670Y19797359D01*
X7672740Y19797696D01*
X7671725Y19797951D01*
X7670710Y19798119D01*
X7669695Y19798204D01*
X7668849Y19798288D01*
X7668173Y19798373D01*
D02*
G37*
G36*
X7693124Y19799049D02*
X7692786D01*
X7692532D01*
X7692448D01*
X7692363D01*
X7690671Y19798965D01*
X7689234Y19798880D01*
X7687965Y19798627D01*
X7686865Y19798373D01*
X7685935Y19797951D01*
X7685174Y19797612D01*
X7684582Y19797189D01*
X7684074Y19796767D01*
X7683651Y19796342D01*
X7683397Y19795920D01*
X7683059Y19795158D01*
X7682890Y19794650D01*
Y19794482D01*
X7682974Y19793636D01*
X7683313Y19792876D01*
X7683736Y19792284D01*
X7684328Y19791776D01*
X7685089Y19791267D01*
X7685850Y19790930D01*
X7687626Y19790338D01*
X7689403Y19789999D01*
X7690164Y19789915D01*
X7690841Y19789830D01*
X7691517Y19789746D01*
X7691940D01*
X7692278D01*
X7692363D01*
X7693970Y19789830D01*
X7695408Y19789915D01*
X7696592Y19790169D01*
X7697607Y19790422D01*
X7698453Y19790675D01*
X7699045Y19790845D01*
X7699383Y19791014D01*
X7699553Y19791100D01*
X7700398Y19791606D01*
X7701075Y19792198D01*
X7701498Y19792706D01*
X7701836Y19793298D01*
X7702005Y19793721D01*
X7702090Y19794144D01*
X7702175Y19794398D01*
Y19794482D01*
X7702090Y19795242D01*
X7701752Y19795834D01*
X7701329Y19796428D01*
X7700821Y19796851D01*
X7700314Y19797273D01*
X7699891Y19797527D01*
X7699553Y19797696D01*
X7699468Y19797781D01*
X7698368Y19798204D01*
X7697184Y19798541D01*
X7696000Y19798711D01*
X7694901Y19798880D01*
X7693886Y19798965D01*
X7693124Y19799049D01*
D02*
G37*
G36*
X6557377Y21888559D02*
X6557292D01*
X6556869Y21888475D01*
X6556446Y21888390D01*
X6555685Y21887798D01*
X6555008Y21887038D01*
X6554501Y21886191D01*
X6554162Y21885345D01*
X6553824Y21884584D01*
X6553739Y21883992D01*
X6553655Y21883907D01*
Y21883823D01*
X6553486Y21882808D01*
X6553232Y21881708D01*
X6553063Y21880440D01*
X6552978Y21879086D01*
X6552725Y21876126D01*
X6552640Y21873164D01*
X6552555Y21871727D01*
Y21870459D01*
X6552471Y21869189D01*
Y21868175D01*
Y21867329D01*
Y21866652D01*
Y21866229D01*
Y21866060D01*
Y21864030D01*
X6552555Y21862170D01*
Y21860393D01*
X6552640Y21858702D01*
X6552809Y21857179D01*
X6552894Y21855740D01*
X6553063Y21854388D01*
X6553232Y21853204D01*
X6553401Y21852104D01*
X6553570Y21851006D01*
X6553824Y21850073D01*
X6553993Y21849229D01*
X6554416Y21847791D01*
X6554839Y21846606D01*
X6555347Y21845676D01*
X6555769Y21845000D01*
X6556192Y21844492D01*
X6556531Y21844154D01*
X6556869Y21843985D01*
X6557123Y21843900D01*
X6557207Y21843816D01*
X6557292D01*
X6557715Y21843900D01*
X6558138Y21844069D01*
X6558476Y21844408D01*
X6558814Y21844746D01*
X6559153Y21845253D01*
X6559491Y21845845D01*
X6559999Y21847282D01*
X6560506Y21848975D01*
X6560844Y21850836D01*
X6561183Y21852866D01*
X6561436Y21854980D01*
X6561606Y21857010D01*
X6561775Y21859039D01*
X6561859Y21860901D01*
X6561944Y21862593D01*
X6562029Y21864030D01*
Y21864622D01*
Y21865131D01*
Y21865553D01*
Y21865807D01*
Y21865976D01*
Y21866060D01*
Y21868597D01*
X6561944Y21870966D01*
Y21872997D01*
X6561859Y21874942D01*
X6561775Y21876633D01*
X6561690Y21878156D01*
X6561521Y21879424D01*
X6561436Y21880609D01*
X6561352Y21881538D01*
X6561183Y21882385D01*
X6561098Y21883061D01*
X6561014Y21883569D01*
X6560929Y21883907D01*
Y21884245D01*
X6560844Y21884331D01*
Y21884415D01*
X6560591Y21885176D01*
X6560337Y21885768D01*
X6560083Y21886360D01*
X6559745Y21886783D01*
X6559237Y21887544D01*
X6558645Y21888052D01*
X6558138Y21888306D01*
X6557715Y21888475D01*
X6557377Y21888559D01*
D02*
G37*
G36*
X6210775Y21078275D02*
X6210606D01*
X6209845Y21078191D01*
X6209168Y21077850D01*
X6208576Y21077344D01*
X6208153Y21076752D01*
X6207731Y21076076D01*
X6207308Y21075229D01*
X6206800Y21073453D01*
X6206546Y21071677D01*
X6206462Y21070831D01*
X6206377Y21070154D01*
X6206293Y21069478D01*
Y21069055D01*
Y21068716D01*
Y21068633D01*
X6206377Y21066518D01*
X6206462Y21064658D01*
X6206716Y21063133D01*
X6206969Y21061696D01*
X6207308Y21060597D01*
X6207646Y21059583D01*
X6208069Y21058820D01*
X6208492Y21058228D01*
X6208830Y21057721D01*
X6209253Y21057298D01*
X6209591Y21057043D01*
X6209930Y21056876D01*
X6210437Y21056706D01*
X6210606D01*
X6211368Y21056790D01*
X6212044Y21057129D01*
X6212552Y21057721D01*
X6213059Y21058398D01*
X6213482Y21059242D01*
X6213820Y21060089D01*
X6214328Y21062119D01*
X6214582Y21064066D01*
X6214751Y21064995D01*
Y21065842D01*
X6214835Y21066518D01*
Y21067026D01*
Y21067448D01*
Y21067532D01*
X6214751Y21069392D01*
X6214666Y21071085D01*
X6214413Y21072523D01*
X6214159Y21073708D01*
X6213820Y21074806D01*
X6213482Y21075652D01*
X6213144Y21076329D01*
X6212721Y21076921D01*
X6212298Y21077344D01*
X6211960Y21077682D01*
X6211621Y21077936D01*
X6211283Y21078105D01*
X6210775Y21078275D01*
D02*
G37*
G36*
X6902262Y17525018D02*
X6901754D01*
X6901416D01*
X6901331D01*
X6899217Y17524934D01*
X6897356Y17524850D01*
X6895834Y17524596D01*
X6894480Y17524342D01*
X6893296Y17524004D01*
X6892281Y17523665D01*
X6891520Y17523244D01*
X6890928Y17522903D01*
X6890420Y17522481D01*
X6889997Y17522058D01*
X6889744Y17521719D01*
X6889574Y17521382D01*
X6889405Y17520874D01*
Y17520705D01*
X6889490Y17519943D01*
X6889828Y17519353D01*
X6890420Y17518761D01*
X6891097Y17518253D01*
X6891858Y17517828D01*
X6892789Y17517491D01*
X6894819Y17516985D01*
X6896764Y17516730D01*
X6897694Y17516644D01*
X6898456Y17516560D01*
X6899132Y17516476D01*
X6899724D01*
X6900063D01*
X6900147D01*
X6902093Y17516560D01*
X6903700Y17516644D01*
X6905138Y17516899D01*
X6906406Y17517152D01*
X6907421Y17517406D01*
X6908352Y17517828D01*
X6909028Y17518169D01*
X6909620Y17518591D01*
X6910043Y17518929D01*
X6910382Y17519353D01*
X6910635Y17519690D01*
X6910805Y17519943D01*
X6910974Y17520451D01*
Y17520621D01*
X6910889Y17521382D01*
X6910551Y17522058D01*
X6910128Y17522652D01*
X6909451Y17523158D01*
X6908775Y17523581D01*
X6907929Y17523920D01*
X6906153Y17524512D01*
X6904376Y17524765D01*
X6903531Y17524850D01*
X6902854Y17524934D01*
X6902262Y17525018D01*
D02*
G37*
G36*
X7494233Y21397623D02*
X7494063D01*
Y21375209D01*
X7503790D01*
X7494233Y21397623D01*
D02*
G37*
G36*
X7107883Y18128596D02*
X7106699D01*
X7105514Y18128513D01*
X7104415Y18128343D01*
X7103484Y18128174D01*
X7102554Y18127837D01*
X7101708Y18127412D01*
X7100947Y18126990D01*
X7099763Y18126144D01*
X7098832Y18125214D01*
X7098156Y18124368D01*
X7097902Y18124030D01*
X7097733Y18123862D01*
X7097648Y18123691D01*
Y18123607D01*
X7097225Y18122592D01*
X7096802Y18121492D01*
X7096464Y18120224D01*
X7096210Y18118954D01*
X7095703Y18116164D01*
X7095449Y18113457D01*
X7095280Y18112103D01*
Y18110921D01*
X7095195Y18109821D01*
X7095111Y18108890D01*
Y18108044D01*
Y18107452D01*
Y18107114D01*
Y18106944D01*
Y18104913D01*
X7095195Y18102969D01*
X7095365Y18101277D01*
X7095534Y18099670D01*
X7095703Y18098148D01*
X7095957Y18096794D01*
X7096210Y18095610D01*
X7096464Y18094595D01*
X7096718Y18093665D01*
X7096972Y18092819D01*
X7097225Y18092227D01*
X7097394Y18091635D01*
X7097564Y18091212D01*
X7097733Y18090958D01*
X7097817Y18090788D01*
Y18090704D01*
X7098325Y18089859D01*
X7098917Y18089098D01*
X7099594Y18088422D01*
X7100355Y18087914D01*
X7101116Y18087405D01*
X7101793Y18086983D01*
X7103315Y18086391D01*
X7104669Y18086052D01*
X7105261Y18085968D01*
X7105853Y18085883D01*
X7106276Y18085799D01*
X7107883D01*
Y18128596D01*
D02*
G37*
G36*
X5591427Y22264355D02*
X5591258D01*
X5590496Y22264270D01*
X5589820Y22263931D01*
X5589228Y22263509D01*
X5588720Y22262833D01*
X5588297Y22262157D01*
X5587959Y22261310D01*
X5587367Y22259534D01*
X5587113Y22257758D01*
X5587028Y22256912D01*
X5586944Y22256235D01*
X5586859Y22255643D01*
Y22255135D01*
Y22254797D01*
Y22254712D01*
X5586944Y22252599D01*
X5587028Y22250737D01*
X5587282Y22249216D01*
X5587536Y22247861D01*
X5587874Y22246677D01*
X5588213Y22245662D01*
X5588636Y22244901D01*
X5588974Y22244308D01*
X5589397Y22243800D01*
X5589820Y22243378D01*
X5590158Y22243124D01*
X5590496Y22242957D01*
X5591004Y22242786D01*
X5591173D01*
X5591934Y22242871D01*
X5592526Y22243208D01*
X5593118Y22243800D01*
X5593626Y22244478D01*
X5594049Y22245239D01*
X5594387Y22246170D01*
X5594895Y22248199D01*
X5595148Y22250145D01*
X5595233Y22251076D01*
X5595317Y22251837D01*
X5595402Y22252513D01*
Y22253105D01*
Y22253444D01*
Y22253528D01*
X5595317Y22255473D01*
X5595233Y22257082D01*
X5594979Y22258519D01*
X5594725Y22259787D01*
X5594472Y22260802D01*
X5594049Y22261732D01*
X5593710Y22262408D01*
X5593288Y22263000D01*
X5592949Y22263425D01*
X5592526Y22263763D01*
X5592188Y22264017D01*
X5591934Y22264186D01*
X5591427Y22264355D01*
D02*
G37*
G36*
X5630250Y22286346D02*
X5629066D01*
X5627882Y22286261D01*
X5626782Y22286092D01*
X5625852Y22285922D01*
X5624921Y22285585D01*
X5624075Y22285162D01*
X5623314Y22284740D01*
X5622130Y22283893D01*
X5621200Y22282964D01*
X5620523Y22282117D01*
X5620269Y22281779D01*
X5620100Y22281609D01*
X5620015Y22281441D01*
Y22281355D01*
X5619593Y22280341D01*
X5619170Y22279240D01*
X5618831Y22277972D01*
X5618578Y22276704D01*
X5618070Y22273914D01*
X5617816Y22271207D01*
X5617647Y22269853D01*
Y22268668D01*
X5617563Y22267569D01*
X5617478Y22266638D01*
Y22265793D01*
Y22265201D01*
Y22264862D01*
Y22264693D01*
Y22262663D01*
X5617563Y22260718D01*
X5617732Y22259026D01*
X5617901Y22257419D01*
X5618070Y22255898D01*
X5618324Y22254543D01*
X5618578Y22253358D01*
X5618831Y22252344D01*
X5619085Y22251414D01*
X5619339Y22250568D01*
X5619593Y22249976D01*
X5619762Y22249384D01*
X5619931Y22248961D01*
X5620100Y22248708D01*
X5620185Y22248538D01*
Y22248453D01*
X5620692Y22247607D01*
X5621284Y22246846D01*
X5621961Y22246170D01*
X5622722Y22245662D01*
X5623483Y22245155D01*
X5624160Y22244733D01*
X5625682Y22244141D01*
X5627036Y22243800D01*
X5627628Y22243716D01*
X5628220Y22243633D01*
X5628643Y22243549D01*
X5630250D01*
Y22286346D01*
D02*
G37*
G36*
X6558364Y19479153D02*
X6558195D01*
X6557434Y19479070D01*
X6556757Y19478731D01*
X6556250Y19478139D01*
X6555742Y19477461D01*
X6555319Y19476617D01*
X6554981Y19475771D01*
X6554474Y19473741D01*
X6554220Y19471796D01*
X6554051Y19470865D01*
Y19470020D01*
X6553966Y19469344D01*
Y19468835D01*
Y19468411D01*
Y19468327D01*
X6554051Y19466467D01*
X6554135Y19464775D01*
X6554389Y19463338D01*
X6554643Y19462154D01*
X6554981Y19461053D01*
X6555319Y19460208D01*
X6555658Y19459531D01*
X6556081Y19458939D01*
X6556504Y19458516D01*
X6556842Y19458179D01*
X6557180Y19457924D01*
X6557519Y19457755D01*
X6558026Y19457587D01*
X6558195D01*
X6558956Y19457671D01*
X6559633Y19458009D01*
X6560225Y19458516D01*
X6560648Y19459108D01*
X6561071Y19459785D01*
X6561494Y19460631D01*
X6562001Y19462407D01*
X6562255Y19464183D01*
X6562340Y19465028D01*
X6562424Y19465706D01*
X6562509Y19466382D01*
Y19466805D01*
Y19467143D01*
Y19467229D01*
X6562424Y19469344D01*
X6562340Y19471204D01*
X6562086Y19472726D01*
X6561832Y19474164D01*
X6561494Y19475262D01*
X6561156Y19476279D01*
X6560733Y19477040D01*
X6560310Y19477632D01*
X6559971Y19478139D01*
X6559548Y19478561D01*
X6559210Y19478816D01*
X6558872Y19478986D01*
X6558364Y19479153D01*
D02*
G37*
G36*
X5620901Y19948099D02*
X5603308D01*
X5603393Y19947000D01*
X5603731Y19945985D01*
X5604154Y19945139D01*
X5604746Y19944463D01*
X5605423Y19943787D01*
X5606269Y19943279D01*
X5607030Y19942854D01*
X5607876Y19942517D01*
X5609567Y19942094D01*
X5610329Y19941925D01*
X5611005Y19941840D01*
X5611597Y19941756D01*
X5612020D01*
X5612359D01*
X5612443D01*
X5613966Y19941840D01*
X5615234Y19942009D01*
X5616334Y19942348D01*
X5617349Y19942686D01*
X5618110Y19943195D01*
X5618871Y19943701D01*
X5619379Y19944209D01*
X5619802Y19944801D01*
X5620225Y19945393D01*
X5620478Y19945900D01*
X5620732Y19946915D01*
X5620817Y19947253D01*
X5620901Y19947592D01*
Y19948099D01*
D02*
G37*
G36*
X5791481Y19800401D02*
X5773888D01*
X5773972Y19799301D01*
X5774311Y19798286D01*
X5774734Y19797440D01*
X5775326Y19796764D01*
X5776002Y19796088D01*
X5776848Y19795580D01*
X5777609Y19795157D01*
X5778455Y19794818D01*
X5780147Y19794395D01*
X5780908Y19794226D01*
X5781585Y19794142D01*
X5782177Y19794057D01*
X5782600D01*
X5782938D01*
X5783023D01*
X5784545Y19794142D01*
X5785814Y19794312D01*
X5786913Y19794649D01*
X5787928Y19794987D01*
X5788690Y19795496D01*
X5789451Y19796004D01*
X5789958Y19796510D01*
X5790381Y19797102D01*
X5790804Y19797694D01*
X5791058Y19798203D01*
X5791312Y19799217D01*
X5791396Y19799554D01*
X5791481Y19799893D01*
Y19800401D01*
D02*
G37*
G36*
X5797655Y19740517D02*
X5797063D01*
X5796556D01*
X5796133D01*
X5795879D01*
X5795710D01*
X5795625D01*
X5793088D01*
X5790720Y19740433D01*
X5788690D01*
X5786744Y19740347D01*
X5785053Y19740263D01*
X5783530Y19740178D01*
X5782261Y19740009D01*
X5781077Y19739925D01*
X5780147Y19739841D01*
X5779301Y19739671D01*
X5778624Y19739586D01*
X5778117Y19739502D01*
X5777779Y19739417D01*
X5777440D01*
X5777356Y19739333D01*
X5777271D01*
X5776510Y19739079D01*
X5775918Y19738824D01*
X5775326Y19738571D01*
X5774903Y19738232D01*
X5774142Y19737726D01*
X5773634Y19737132D01*
X5773380Y19736626D01*
X5773211Y19736203D01*
X5773127Y19735864D01*
Y19735780D01*
X5773211Y19735358D01*
X5773296Y19734933D01*
X5773888Y19734174D01*
X5774649Y19733496D01*
X5775495Y19732990D01*
X5776341Y19732651D01*
X5777102Y19732312D01*
X5777694Y19732228D01*
X5777779Y19732143D01*
X5777863D01*
X5778878Y19731973D01*
X5779978Y19731720D01*
X5781247Y19731551D01*
X5782600Y19731467D01*
X5785560Y19731213D01*
X5788521Y19731128D01*
X5789958Y19731044D01*
X5791227D01*
X5792496Y19730959D01*
X5793511D01*
X5794357D01*
X5795033D01*
X5795456D01*
X5795625D01*
X5797655D01*
X5799516Y19731044D01*
X5801292D01*
X5802984Y19731128D01*
X5804507Y19731297D01*
X5805944Y19731383D01*
X5807298Y19731551D01*
X5808482Y19731720D01*
X5809581Y19731889D01*
X5810681Y19732059D01*
X5811611Y19732312D01*
X5812457Y19732481D01*
X5813895Y19732904D01*
X5815079Y19733327D01*
X5816010Y19733835D01*
X5816686Y19734258D01*
X5817194Y19734682D01*
X5817532Y19735019D01*
X5817701Y19735358D01*
X5817786Y19735611D01*
X5817871Y19735696D01*
Y19735780D01*
X5817786Y19736203D01*
X5817617Y19736626D01*
X5817278Y19736964D01*
X5816940Y19737303D01*
X5816433Y19737640D01*
X5815841Y19737979D01*
X5814403Y19738487D01*
X5812711Y19738994D01*
X5810850Y19739333D01*
X5808820Y19739671D01*
X5806706Y19739925D01*
X5804676Y19740094D01*
X5802646Y19740263D01*
X5800785Y19740347D01*
X5799093Y19740433D01*
X5797655Y19740517D01*
D02*
G37*
G36*
X7289599Y20659137D02*
X7289514D01*
X7289091Y20659053D01*
X7288668Y20658884D01*
X7288330Y20658545D01*
X7287992Y20658208D01*
X7287653Y20657700D01*
X7287315Y20657108D01*
X7286808Y20655670D01*
X7286300Y20653978D01*
X7285962Y20652116D01*
X7285623Y20650087D01*
X7285370Y20647974D01*
X7285201Y20645943D01*
X7285031Y20643913D01*
X7284947Y20642052D01*
X7284862Y20640359D01*
X7284778Y20638922D01*
Y20638330D01*
Y20637823D01*
Y20637399D01*
Y20637146D01*
Y20636977D01*
Y20636893D01*
Y20634355D01*
X7284862Y20631987D01*
Y20629958D01*
X7284947Y20628011D01*
X7285031Y20626320D01*
X7285116Y20624797D01*
X7285285Y20623528D01*
X7285370Y20622343D01*
X7285454Y20621414D01*
X7285623Y20620567D01*
X7285708Y20619891D01*
X7285793Y20619383D01*
X7285877Y20619046D01*
Y20618707D01*
X7285962Y20618623D01*
Y20618538D01*
X7286216Y20617776D01*
X7286469Y20617184D01*
X7286723Y20616592D01*
X7287061Y20616170D01*
X7287569Y20615408D01*
X7288161Y20614902D01*
X7288668Y20614647D01*
X7289091Y20614478D01*
X7289430Y20614394D01*
X7289514D01*
X7289937Y20614478D01*
X7290360Y20614563D01*
X7291121Y20615155D01*
X7291798Y20615916D01*
X7292305Y20616762D01*
X7292644Y20617609D01*
X7292982Y20618369D01*
X7293067Y20618961D01*
X7293151Y20619046D01*
Y20619130D01*
X7293320Y20620145D01*
X7293574Y20621245D01*
X7293743Y20622513D01*
X7293828Y20623866D01*
X7294082Y20626826D01*
X7294166Y20629788D01*
X7294251Y20631226D01*
Y20632494D01*
X7294335Y20633763D01*
Y20634778D01*
Y20635625D01*
Y20636301D01*
Y20636723D01*
Y20636893D01*
Y20638922D01*
X7294251Y20640784D01*
Y20642558D01*
X7294166Y20644250D01*
X7293997Y20645773D01*
X7293913Y20647211D01*
X7293743Y20648566D01*
X7293574Y20649750D01*
X7293405Y20650848D01*
X7293236Y20651949D01*
X7292982Y20652878D01*
X7292813Y20653725D01*
X7292390Y20655162D01*
X7291967Y20656346D01*
X7291460Y20657277D01*
X7291037Y20657953D01*
X7290614Y20658461D01*
X7290275Y20658800D01*
X7289937Y20658968D01*
X7289683Y20659053D01*
X7289599Y20659137D01*
D02*
G37*
G36*
X6630172Y19580650D02*
X6629072Y19580566D01*
X6628057Y19580228D01*
X6627212Y19579805D01*
X6626535Y19579213D01*
X6625858Y19578535D01*
X6625351Y19577690D01*
X6624928Y19576929D01*
X6624589Y19576083D01*
X6624167Y19574393D01*
X6623997Y19573630D01*
X6623913Y19572954D01*
X6623828Y19572362D01*
Y19571939D01*
Y19571600D01*
Y19571516D01*
X6623913Y19569994D01*
X6624082Y19568726D01*
X6624420Y19567625D01*
X6624759Y19566611D01*
X6625266Y19565849D01*
X6625774Y19565088D01*
X6626281Y19564580D01*
X6626873Y19564157D01*
X6627465Y19563734D01*
X6627973Y19563481D01*
X6628988Y19563226D01*
X6629326Y19563142D01*
X6629664Y19563058D01*
X6630172D01*
Y19580650D01*
D02*
G37*
G36*
X7056260Y19927213D02*
X7038667D01*
X7038751Y19926112D01*
X7039090Y19925098D01*
X7039513Y19924252D01*
X7040105Y19923576D01*
X7040781Y19922899D01*
X7041627Y19922392D01*
X7042389Y19921970D01*
X7043234Y19921629D01*
X7044926Y19921208D01*
X7045687Y19921037D01*
X7046364Y19920953D01*
X7046956Y19920869D01*
X7047379D01*
X7047717D01*
X7047802D01*
X7049324Y19920953D01*
X7050593Y19921123D01*
X7051693Y19921461D01*
X7052708Y19921800D01*
X7053469Y19922307D01*
X7054230Y19922815D01*
X7054737Y19923322D01*
X7055160Y19923914D01*
X7055583Y19924506D01*
X7055837Y19925014D01*
X7056091Y19926028D01*
X7056175Y19926367D01*
X7056260Y19926704D01*
Y19927213D01*
D02*
G37*
G36*
X6452020Y19280672D02*
X6450920Y19280588D01*
X6449905Y19280249D01*
X6449059Y19279826D01*
X6448383Y19279234D01*
X6447706Y19278558D01*
X6447198Y19277711D01*
X6446776Y19276952D01*
X6446437Y19276105D01*
X6446014Y19274413D01*
X6445845Y19273653D01*
X6445761Y19272975D01*
X6445676Y19272383D01*
Y19271960D01*
Y19271622D01*
Y19271536D01*
X6445761Y19270015D01*
X6445930Y19268745D01*
X6446268Y19267647D01*
X6446606Y19266632D01*
X6447114Y19265871D01*
X6447621Y19265109D01*
X6448129Y19264603D01*
X6448721Y19264178D01*
X6449313Y19263756D01*
X6449820Y19263503D01*
X6450835Y19263248D01*
X6451174Y19263164D01*
X6451512Y19263078D01*
X6452020D01*
Y19280672D01*
D02*
G37*
G36*
X5468642Y19559013D02*
X5451049D01*
X5451134Y19557915D01*
X5451472Y19556900D01*
X5451895Y19556055D01*
X5452487Y19555377D01*
X5453164Y19554701D01*
X5454010Y19554193D01*
X5454771Y19553770D01*
X5455617Y19553432D01*
X5457308Y19553009D01*
X5458070Y19552840D01*
X5458746Y19552756D01*
X5459338Y19552670D01*
X5459761D01*
X5460100D01*
X5460184D01*
X5461707Y19552756D01*
X5462975Y19552925D01*
X5464075Y19553262D01*
X5465090Y19553601D01*
X5465851Y19554109D01*
X5466612Y19554616D01*
X5467120Y19555124D01*
X5467543Y19555716D01*
X5467966Y19556308D01*
X5468219Y19556815D01*
X5468473Y19557829D01*
X5468558Y19558170D01*
X5468642Y19558507D01*
Y19559013D01*
D02*
G37*
G36*
X5463483Y19528903D02*
X5463060D01*
X5462722D01*
X5462637D01*
X5460522Y19528819D01*
X5458662Y19528734D01*
X5457139Y19528481D01*
X5455701Y19528227D01*
X5454602Y19527888D01*
X5453587Y19527550D01*
X5452826Y19527127D01*
X5452233Y19526704D01*
X5451726Y19526366D01*
X5451303Y19525943D01*
X5451049Y19525604D01*
X5450880Y19525266D01*
X5450711Y19524759D01*
Y19524590D01*
X5450796Y19523828D01*
X5451134Y19523152D01*
X5451726Y19522644D01*
X5452403Y19522137D01*
X5453248Y19521713D01*
X5454094Y19521375D01*
X5456124Y19520868D01*
X5458070Y19520615D01*
X5459000Y19520445D01*
X5459846D01*
X5460522Y19520361D01*
X5461030D01*
X5461453D01*
X5461537D01*
X5463398Y19520445D01*
X5465090Y19520531D01*
X5466528Y19520782D01*
X5467712Y19521037D01*
X5468812Y19521375D01*
X5469657Y19521713D01*
X5470334Y19522052D01*
X5470926Y19522475D01*
X5471349Y19522897D01*
X5471687Y19523236D01*
X5471941Y19523575D01*
X5472110Y19523914D01*
X5472279Y19524420D01*
Y19524590D01*
X5472195Y19525351D01*
X5471856Y19526027D01*
X5471349Y19526620D01*
X5470757Y19527042D01*
X5470080Y19527464D01*
X5469234Y19527888D01*
X5467458Y19528397D01*
X5465682Y19528650D01*
X5464836Y19528734D01*
X5464160Y19528819D01*
X5463483Y19528903D01*
D02*
G37*
G36*
X6867717Y19738469D02*
X6867548D01*
X6866787Y19738383D01*
X6866110Y19738046D01*
X6865603Y19737454D01*
X6865095Y19736777D01*
X6864672Y19735931D01*
X6864334Y19735086D01*
X6863827Y19733057D01*
X6863573Y19731110D01*
X6863404Y19730180D01*
Y19729333D01*
X6863319Y19728658D01*
Y19728149D01*
Y19727727D01*
Y19727643D01*
X6863404Y19725781D01*
X6863488Y19724091D01*
X6863742Y19722652D01*
X6863996Y19721468D01*
X6864334Y19720367D01*
X6864672Y19719524D01*
X6865011Y19718846D01*
X6865434Y19718254D01*
X6865856Y19717831D01*
X6866195Y19717493D01*
X6866533Y19717239D01*
X6866871Y19717070D01*
X6867379Y19716901D01*
X6867548D01*
X6868309Y19716985D01*
X6868986Y19717323D01*
X6869578Y19717831D01*
X6870001Y19718423D01*
X6870424Y19719099D01*
X6870847Y19719946D01*
X6871354Y19721722D01*
X6871608Y19723499D01*
X6871693Y19724344D01*
X6871777Y19725020D01*
X6871862Y19725697D01*
Y19726120D01*
Y19726459D01*
Y19726543D01*
X6871777Y19728658D01*
X6871693Y19730518D01*
X6871439Y19732040D01*
X6871185Y19733479D01*
X6870847Y19734578D01*
X6870508Y19735593D01*
X6870086Y19736354D01*
X6869663Y19736948D01*
X6869324Y19737454D01*
X6868901Y19737877D01*
X6868563Y19738132D01*
X6868225Y19738300D01*
X6867717Y19738469D01*
D02*
G37*
G36*
X6932761Y19738132D02*
X6931661Y19738046D01*
X6930646Y19737708D01*
X6929800Y19737285D01*
X6929124Y19736693D01*
X6928447Y19736015D01*
X6927940Y19735170D01*
X6927517Y19734409D01*
X6927178Y19733563D01*
X6926756Y19731873D01*
X6926586Y19731110D01*
X6926502Y19730434D01*
X6926417Y19729842D01*
Y19729419D01*
Y19729080D01*
Y19728996D01*
X6926502Y19727473D01*
X6926671Y19726205D01*
X6927009Y19725105D01*
X6927348Y19724091D01*
X6927855Y19723329D01*
X6928363Y19722568D01*
X6928870Y19722060D01*
X6929462Y19721637D01*
X6930054Y19721214D01*
X6930562Y19720961D01*
X6931577Y19720708D01*
X6931915Y19720622D01*
X6932253Y19720538D01*
X6932761D01*
Y19738132D01*
D02*
G37*
G36*
X7616391Y22294197D02*
X7615207D01*
X7614023Y22294113D01*
X7612923Y22293942D01*
X7611993Y22293774D01*
X7611063Y22293436D01*
X7610217Y22293013D01*
X7609455Y22292590D01*
X7608271Y22291743D01*
X7607341Y22290814D01*
X7606664Y22289967D01*
X7606410Y22289630D01*
X7606241Y22289461D01*
X7606157Y22289291D01*
Y22289207D01*
X7605734Y22288193D01*
X7605311Y22287093D01*
X7604973Y22285825D01*
X7604719Y22284555D01*
X7604211Y22281764D01*
X7603958Y22279057D01*
X7603788Y22277704D01*
Y22276520D01*
X7603704Y22275420D01*
X7603619Y22274490D01*
Y22273643D01*
Y22273051D01*
Y22272713D01*
Y22272543D01*
Y22270514D01*
X7603704Y22268568D01*
X7603873Y22266878D01*
X7604042Y22265269D01*
X7604211Y22263748D01*
X7604465Y22262395D01*
X7604719Y22261211D01*
X7604973Y22260194D01*
X7605226Y22259265D01*
X7605480Y22258418D01*
X7605734Y22257828D01*
X7605903Y22257236D01*
X7606072Y22256812D01*
X7606241Y22256558D01*
X7606326Y22256389D01*
Y22256303D01*
X7606833Y22255460D01*
X7607425Y22254697D01*
X7608102Y22254021D01*
X7608863Y22253513D01*
X7609625Y22253006D01*
X7610301Y22252583D01*
X7611824Y22251991D01*
X7613177Y22251653D01*
X7613769Y22251569D01*
X7614361Y22251483D01*
X7614784Y22251399D01*
X7616391D01*
Y22294197D01*
D02*
G37*
G36*
X7576299Y22287685D02*
X7576130D01*
Y22265269D01*
X7585857D01*
X7576299Y22287685D01*
D02*
G37*
G36*
X6423664Y18374292D02*
X6422480D01*
X6421296Y18374207D01*
X6420196Y18374039D01*
X6419266Y18373869D01*
X6418336Y18373531D01*
X6417490Y18373108D01*
X6416729Y18372685D01*
X6415544Y18371838D01*
X6414614Y18370908D01*
X6413937Y18370062D01*
X6413684Y18369724D01*
X6413514Y18369556D01*
X6413430Y18369386D01*
Y18369301D01*
X6413007Y18368286D01*
X6412584Y18367188D01*
X6412246Y18365918D01*
X6411992Y18364648D01*
X6411485Y18361858D01*
X6411231Y18359151D01*
X6411062Y18357797D01*
Y18356615D01*
X6410977Y18355515D01*
X6410892Y18354584D01*
Y18353738D01*
Y18353146D01*
Y18352808D01*
Y18352638D01*
Y18350609D01*
X6410977Y18348663D01*
X6411146Y18346973D01*
X6411315Y18345364D01*
X6411485Y18343842D01*
X6411738Y18342490D01*
X6411992Y18341306D01*
X6412246Y18340289D01*
X6412499Y18339359D01*
X6412753Y18338513D01*
X6413007Y18337921D01*
X6413176Y18337329D01*
X6413345Y18336906D01*
X6413514Y18336653D01*
X6413599Y18336484D01*
Y18336398D01*
X6414107Y18335553D01*
X6414699Y18334792D01*
X6415375Y18334116D01*
X6416137Y18333607D01*
X6416898Y18333099D01*
X6417574Y18332677D01*
X6419097Y18332085D01*
X6420450Y18331747D01*
X6421042Y18331662D01*
X6421634Y18331578D01*
X6422057Y18331493D01*
X6423664D01*
Y18374292D01*
D02*
G37*
%LPD*%
D75*
X6486980Y18688980D02*
G03*
X6486980Y18688980I-12700J0D01*
G01*
X6350000Y18406599D02*
Y18605499D01*
X6300600Y21424120D02*
Y21644119D01*
X7615360Y19831696D02*
Y19853264D01*
X7543360Y19831696D02*
Y19853264D01*
X5576340Y21624080D02*
X5703340D01*
X5576340Y21312080D02*
X5706340D01*
X5646320Y19753456D02*
Y19784184D01*
X5570320Y19753456D02*
Y19784184D01*
X6090296Y21340640D02*
X6111864D01*
X6090296Y21412640D02*
X6111864D01*
X5740300Y19855057D02*
Y19885783D01*
X5664300Y19855057D02*
Y19885783D01*
X5547260Y19705196D02*
Y19735924D01*
X5471260Y19705196D02*
Y19735924D01*
%TF.MD5,ff7a92de0479a561cdb914b6ebdf47a1*%
M02*
