%TF.GenerationSoftware,Altium Limited,Altium Designer,25.2.1 (25)*%
G04 Layer_Color=16711935*
%FSLAX45Y45*%
%MOMM*%
%TF.SameCoordinates,1405630C-4DB4-4800-89E6-4DE4E69AA207*%
%TF.FilePolarity,Negative*%
%TF.FileFunction,Soldermask,Bot*%
%TF.Part,Single*%
G01*
G75*
%TA.AperFunction,SMDPad,CuDef*%
%ADD24C,1.27000*%
G04:AMPARAMS|DCode=80|XSize=0.6616mm|YSize=0.7216mm|CornerRadius=0.1208mm|HoleSize=0mm|Usage=FLASHONLY|Rotation=90.000|XOffset=0mm|YOffset=0mm|HoleType=Round|Shape=RoundedRectangle|*
%AMROUNDEDRECTD80*
21,1,0.66160,0.48000,0,0,90.0*
21,1,0.42000,0.72160,0,0,90.0*
1,1,0.24160,0.24000,0.21000*
1,1,0.24160,0.24000,-0.21000*
1,1,0.24160,-0.24000,-0.21000*
1,1,0.24160,-0.24000,0.21000*
%
%ADD80ROUNDEDRECTD80*%
G04:AMPARAMS|DCode=81|XSize=0.6416mm|YSize=0.7416mm|CornerRadius=0.1183mm|HoleSize=0mm|Usage=FLASHONLY|Rotation=0.000|XOffset=0mm|YOffset=0mm|HoleType=Round|Shape=RoundedRectangle|*
%AMROUNDEDRECTD81*
21,1,0.64160,0.50500,0,0,0.0*
21,1,0.40500,0.74160,0,0,0.0*
1,1,0.23660,0.20250,-0.25250*
1,1,0.23660,-0.20250,-0.25250*
1,1,0.23660,-0.20250,0.25250*
1,1,0.23660,0.20250,0.25250*
%
%ADD81ROUNDEDRECTD81*%
G04:AMPARAMS|DCode=84|XSize=0.6416mm|YSize=0.7416mm|CornerRadius=0.1183mm|HoleSize=0mm|Usage=FLASHONLY|Rotation=270.000|XOffset=0mm|YOffset=0mm|HoleType=Round|Shape=RoundedRectangle|*
%AMROUNDEDRECTD84*
21,1,0.64160,0.50500,0,0,270.0*
21,1,0.40500,0.74160,0,0,270.0*
1,1,0.23660,-0.25250,-0.20250*
1,1,0.23660,-0.25250,0.20250*
1,1,0.23660,0.25250,0.20250*
1,1,0.23660,0.25250,-0.20250*
%
%ADD84ROUNDEDRECTD84*%
G04:AMPARAMS|DCode=85|XSize=0.6616mm|YSize=0.7216mm|CornerRadius=0.1208mm|HoleSize=0mm|Usage=FLASHONLY|Rotation=180.000|XOffset=0mm|YOffset=0mm|HoleType=Round|Shape=RoundedRectangle|*
%AMROUNDEDRECTD85*
21,1,0.66160,0.48000,0,0,180.0*
21,1,0.42000,0.72160,0,0,180.0*
1,1,0.24160,-0.21000,0.24000*
1,1,0.24160,0.21000,0.24000*
1,1,0.24160,0.21000,-0.24000*
1,1,0.24160,-0.21000,-0.24000*
%
%ADD85ROUNDEDRECTD85*%
%TA.AperFunction,ComponentPad*%
%ADD116C,1.09220*%
%ADD117C,2.64160*%
%ADD118C,1.11760*%
%ADD119C,1.37160*%
%ADD120R,1.37160X1.37160*%
%ADD121C,3.27660*%
%TA.AperFunction,SMDPad,CuDef*%
%ADD122R,1.40160X1.50160*%
G04:AMPARAMS|DCode=123|XSize=1.1016mm|YSize=1.5516mm|CornerRadius=0.1758mm|HoleSize=0mm|Usage=FLASHONLY|Rotation=0.000|XOffset=0mm|YOffset=0mm|HoleType=Round|Shape=RoundedRectangle|*
%AMROUNDEDRECTD123*
21,1,1.10160,1.20000,0,0,0.0*
21,1,0.75000,1.55160,0,0,0.0*
1,1,0.35160,0.37500,-0.60000*
1,1,0.35160,-0.37500,-0.60000*
1,1,0.35160,-0.37500,0.60000*
1,1,0.35160,0.37500,0.60000*
%
%ADD123ROUNDEDRECTD123*%
G04:AMPARAMS|DCode=124|XSize=1.3716mm|YSize=1.2446mm|CornerRadius=0.10795mm|HoleSize=0mm|Usage=FLASHONLY|Rotation=270.000|XOffset=0mm|YOffset=0mm|HoleType=Round|Shape=RoundedRectangle|*
%AMROUNDEDRECTD124*
21,1,1.37160,1.02870,0,0,270.0*
21,1,1.15570,1.24460,0,0,270.0*
1,1,0.21590,-0.51435,-0.57785*
1,1,0.21590,-0.51435,0.57785*
1,1,0.21590,0.51435,0.57785*
1,1,0.21590,0.51435,-0.57785*
%
%ADD124ROUNDEDRECTD124*%
G04:AMPARAMS|DCode=125|XSize=1.3716mm|YSize=1.3716mm|CornerRadius=0.1143mm|HoleSize=0mm|Usage=FLASHONLY|Rotation=270.000|XOffset=0mm|YOffset=0mm|HoleType=Round|Shape=RoundedRectangle|*
%AMROUNDEDRECTD125*
21,1,1.37160,1.14300,0,0,270.0*
21,1,1.14300,1.37160,0,0,270.0*
1,1,0.22860,-0.57150,-0.57150*
1,1,0.22860,-0.57150,0.57150*
1,1,0.22860,0.57150,0.57150*
1,1,0.22860,0.57150,-0.57150*
%
%ADD125ROUNDEDRECTD125*%
G04:AMPARAMS|DCode=126|XSize=1.1016mm|YSize=1.5516mm|CornerRadius=0.1758mm|HoleSize=0mm|Usage=FLASHONLY|Rotation=90.000|XOffset=0mm|YOffset=0mm|HoleType=Round|Shape=RoundedRectangle|*
%AMROUNDEDRECTD126*
21,1,1.10160,1.20000,0,0,90.0*
21,1,0.75000,1.55160,0,0,90.0*
1,1,0.35160,0.60000,0.37500*
1,1,0.35160,0.60000,-0.37500*
1,1,0.35160,-0.60000,-0.37500*
1,1,0.35160,-0.60000,0.37500*
%
%ADD126ROUNDEDRECTD126*%
%ADD127R,0.50160X0.80160*%
%ADD128R,0.45080X0.30080*%
G04:AMPARAMS|DCode=129|XSize=0.9906mm|YSize=0.8636mm|CornerRadius=0.11557mm|HoleSize=0mm|Usage=FLASHONLY|Rotation=180.000|XOffset=0mm|YOffset=0mm|HoleType=Round|Shape=RoundedRectangle|*
%AMROUNDEDRECTD129*
21,1,0.99060,0.63246,0,0,180.0*
21,1,0.75946,0.86360,0,0,180.0*
1,1,0.23114,-0.37973,0.31623*
1,1,0.23114,0.37973,0.31623*
1,1,0.23114,0.37973,-0.31623*
1,1,0.23114,-0.37973,-0.31623*
%
%ADD129ROUNDEDRECTD129*%
G04:AMPARAMS|DCode=130|XSize=0.9906mm|YSize=0.8636mm|CornerRadius=0.13081mm|HoleSize=0mm|Usage=FLASHONLY|Rotation=180.000|XOffset=0mm|YOffset=0mm|HoleType=Round|Shape=RoundedRectangle|*
%AMROUNDEDRECTD130*
21,1,0.99060,0.60198,0,0,180.0*
21,1,0.72898,0.86360,0,0,180.0*
1,1,0.26162,-0.36449,0.30099*
1,1,0.26162,0.36449,0.30099*
1,1,0.26162,0.36449,-0.30099*
1,1,0.26162,-0.36449,-0.30099*
%
%ADD130ROUNDEDRECTD130*%
G04:AMPARAMS|DCode=131|XSize=0.9906mm|YSize=1.2446mm|CornerRadius=0.12636mm|HoleSize=0mm|Usage=FLASHONLY|Rotation=180.000|XOffset=0mm|YOffset=0mm|HoleType=Round|Shape=RoundedRectangle|*
%AMROUNDEDRECTD131*
21,1,0.99060,0.99187,0,0,180.0*
21,1,0.73787,1.24460,0,0,180.0*
1,1,0.25273,-0.36894,0.49593*
1,1,0.25273,0.36894,0.49593*
1,1,0.25273,0.36894,-0.49593*
1,1,0.25273,-0.36894,-0.49593*
%
%ADD131ROUNDEDRECTD131*%
%ADD132R,1.00080X1.70080*%
%ADD133R,0.53080X0.40080*%
G04:AMPARAMS|DCode=134|XSize=1.3716mm|YSize=1.3716mm|CornerRadius=0.1143mm|HoleSize=0mm|Usage=FLASHONLY|Rotation=180.000|XOffset=0mm|YOffset=0mm|HoleType=Round|Shape=RoundedRectangle|*
%AMROUNDEDRECTD134*
21,1,1.37160,1.14300,0,0,180.0*
21,1,1.14300,1.37160,0,0,180.0*
1,1,0.22860,-0.57150,0.57150*
1,1,0.22860,0.57150,0.57150*
1,1,0.22860,0.57150,-0.57150*
1,1,0.22860,-0.57150,-0.57150*
%
%ADD134ROUNDEDRECTD134*%
G36*
X6773992Y15268166D02*
X6775496Y15267978D01*
X6777375Y15267603D01*
X6779443Y15267038D01*
X6781698Y15266286D01*
X6784142Y15265347D01*
Y15251814D01*
X6783954Y15252002D01*
X6783202Y15252377D01*
X6782074Y15252940D01*
X6780571Y15253505D01*
X6779067Y15254070D01*
X6777187Y15254633D01*
X6775496Y15255009D01*
X6773804Y15255197D01*
X6772864D01*
X6772112Y15255009D01*
X6770421Y15254633D01*
X6768353Y15253880D01*
X6766286Y15252565D01*
X6765346Y15251627D01*
X6764594Y15250687D01*
X6763842Y15249370D01*
X6763466Y15247865D01*
X6763090Y15246175D01*
X6762902Y15244295D01*
Y15244107D01*
Y15243542D01*
X6763090Y15242792D01*
Y15241664D01*
X6763278Y15240160D01*
X6763654Y15238657D01*
X6764030Y15236777D01*
X6764594Y15234709D01*
X6764782Y15234521D01*
X6764970Y15233582D01*
X6765534Y15232266D01*
X6766474Y15230199D01*
X6767789Y15227379D01*
X6768541Y15225687D01*
X6769481Y15223994D01*
X6770609Y15221928D01*
X6771737Y15219672D01*
X6773052Y15217229D01*
X6774368Y15214597D01*
X6774556Y15214409D01*
X6774744Y15214034D01*
X6775120Y15213281D01*
X6775684Y15212154D01*
X6776248Y15211026D01*
X6776999Y15209523D01*
X6778691Y15206326D01*
X6780571Y15202756D01*
X6782262Y15198997D01*
X6783766Y15195425D01*
X6784894Y15192230D01*
X6785082Y15191853D01*
X6785270Y15190913D01*
X6785646Y15189410D01*
X6786209Y15187720D01*
X6786585Y15185464D01*
X6786961Y15183208D01*
X6787149Y15180765D01*
X6787337Y15178510D01*
Y15178320D01*
Y15177945D01*
Y15177380D01*
X6787149Y15176630D01*
X6786961Y15174562D01*
X6786585Y15171931D01*
X6785646Y15168922D01*
X6784518Y15165916D01*
X6783014Y15162721D01*
X6780759Y15159901D01*
X6780383Y15159525D01*
X6779631Y15158772D01*
X6778127Y15157646D01*
X6776248Y15156329D01*
X6773804Y15155014D01*
X6770985Y15153886D01*
X6767789Y15153136D01*
X6764030Y15152759D01*
X6762714D01*
X6761211Y15152946D01*
X6759519Y15153322D01*
X6757264Y15153886D01*
X6754820Y15154639D01*
X6752377Y15155579D01*
X6749745Y15157082D01*
Y15172118D01*
X6750121Y15171931D01*
X6750873Y15171179D01*
X6752189Y15170239D01*
X6753692Y15169112D01*
X6755572Y15167795D01*
X6757827Y15166856D01*
X6760083Y15166104D01*
X6762339Y15165916D01*
X6763090D01*
X6764030Y15166104D01*
X6764970Y15166292D01*
X6766286Y15166669D01*
X6767413Y15167232D01*
X6768729Y15167982D01*
X6770045Y15168922D01*
X6770233Y15169112D01*
X6770609Y15169487D01*
X6771173Y15170239D01*
X6771737Y15171179D01*
X6772300Y15172305D01*
X6772864Y15173622D01*
X6773240Y15174937D01*
X6773428Y15176630D01*
Y15176817D01*
Y15177380D01*
Y15178133D01*
X6773240Y15179260D01*
X6773052Y15180577D01*
X6772676Y15182268D01*
X6772112Y15184148D01*
X6771549Y15186028D01*
Y15186217D01*
X6771173Y15187155D01*
X6770609Y15188660D01*
X6769669Y15190727D01*
X6768353Y15193546D01*
X6767413Y15195238D01*
X6766474Y15197118D01*
X6765534Y15199185D01*
X6764406Y15201440D01*
X6763090Y15203883D01*
X6761587Y15206516D01*
Y15206703D01*
X6761211Y15207268D01*
X6760835Y15208018D01*
X6760271Y15208958D01*
X6759707Y15210274D01*
X6758955Y15211591D01*
X6757264Y15214973D01*
X6755572Y15218546D01*
X6753880Y15222304D01*
X6752377Y15225687D01*
X6751249Y15228882D01*
Y15229259D01*
X6750873Y15230199D01*
X6750497Y15231702D01*
X6750121Y15233392D01*
X6749745Y15235649D01*
X6749369Y15237904D01*
X6749181Y15240160D01*
X6748993Y15242416D01*
Y15242603D01*
Y15242979D01*
Y15243542D01*
X6749181Y15244295D01*
X6749369Y15246362D01*
X6749745Y15248994D01*
X6750497Y15252002D01*
X6751625Y15255197D01*
X6753316Y15258205D01*
X6755384Y15261024D01*
X6755760Y15261398D01*
X6756512Y15262151D01*
X6758015Y15263280D01*
X6759895Y15264783D01*
X6762151Y15266098D01*
X6765158Y15267226D01*
X6768353Y15267978D01*
X6771924Y15268353D01*
X6772864D01*
X6773992Y15268166D01*
D02*
G37*
G36*
X6473820Y15267978D02*
X6475700Y15267603D01*
X6478143Y15266850D01*
X6480774Y15265910D01*
X6483594Y15264407D01*
X6486789Y15262338D01*
Y15247865D01*
X6486413Y15248242D01*
X6485473Y15248994D01*
X6484158Y15250122D01*
X6482278Y15251437D01*
X6480023Y15252565D01*
X6477579Y15253693D01*
X6474948Y15254445D01*
X6472128Y15254820D01*
X6471752D01*
X6470813Y15254633D01*
X6469121Y15254257D01*
X6467241Y15253505D01*
X6465174Y15252377D01*
X6463106Y15250497D01*
X6462166Y15249370D01*
X6461227Y15247865D01*
X6460287Y15246362D01*
X6459535Y15244482D01*
Y15244295D01*
X6459347Y15243919D01*
X6459159Y15243355D01*
X6458971Y15242603D01*
X6458595Y15241476D01*
X6458407Y15239972D01*
X6458031Y15238280D01*
X6457655Y15236401D01*
X6457279Y15234145D01*
X6456904Y15231702D01*
X6456716Y15228882D01*
X6456340Y15225874D01*
X6456152Y15222491D01*
X6455964Y15218733D01*
X6455776Y15214784D01*
Y15210461D01*
Y15210274D01*
Y15209523D01*
Y15208208D01*
Y15206703D01*
X6455964Y15204636D01*
Y15202568D01*
X6456152Y15200125D01*
X6456340Y15197493D01*
X6456716Y15191853D01*
X6457467Y15186217D01*
X6457843Y15183585D01*
X6458407Y15181142D01*
X6458971Y15178697D01*
X6459723Y15176630D01*
Y15176442D01*
X6459911Y15176254D01*
X6460475Y15174937D01*
X6461415Y15173434D01*
X6462918Y15171555D01*
X6464610Y15169487D01*
X6466865Y15167982D01*
X6469497Y15166669D01*
X6471001Y15166479D01*
X6472692Y15166292D01*
X6473068D01*
X6473820Y15166479D01*
X6475136Y15166669D01*
X6477015Y15167232D01*
X6479271Y15168359D01*
X6481902Y15169675D01*
X6484722Y15171742D01*
X6486413Y15172870D01*
X6488105Y15174374D01*
Y15158961D01*
X6487729Y15158772D01*
X6486601Y15158022D01*
X6485098Y15157082D01*
X6482842Y15155954D01*
X6480211Y15154639D01*
X6477391Y15153699D01*
X6474196Y15152946D01*
X6470813Y15152759D01*
X6470249D01*
X6469497Y15152946D01*
X6468369D01*
X6467241Y15153136D01*
X6465738Y15153510D01*
X6462542Y15154639D01*
X6460851Y15155389D01*
X6458971Y15156329D01*
X6457091Y15157458D01*
X6455212Y15158961D01*
X6453520Y15160654D01*
X6451641Y15162534D01*
X6449949Y15164787D01*
X6448445Y15167419D01*
Y15167607D01*
X6448069Y15168172D01*
X6447693Y15168922D01*
X6447130Y15170239D01*
X6446566Y15171742D01*
X6446002Y15173622D01*
X6445250Y15175690D01*
X6444498Y15178320D01*
X6443746Y15181142D01*
X6442994Y15184335D01*
X6442431Y15187720D01*
X6441867Y15191666D01*
X6441303Y15195801D01*
X6440927Y15200125D01*
X6440739Y15204823D01*
X6440551Y15209898D01*
Y15210274D01*
Y15211026D01*
Y15212531D01*
X6440739Y15214409D01*
Y15216666D01*
X6440927Y15219484D01*
X6441303Y15222304D01*
X6441491Y15225499D01*
X6442431Y15232454D01*
X6443934Y15239597D01*
X6445814Y15246552D01*
X6447130Y15249747D01*
X6448445Y15252753D01*
X6448633Y15252940D01*
X6448821Y15253505D01*
X6449197Y15254257D01*
X6449949Y15255197D01*
X6451641Y15257640D01*
X6454272Y15260648D01*
X6457467Y15263467D01*
X6461415Y15265910D01*
X6463670Y15266850D01*
X6465926Y15267603D01*
X6468557Y15268166D01*
X6471188Y15268353D01*
X6472504D01*
X6473820Y15267978D01*
D02*
G37*
G36*
X6675125Y15154262D02*
X6661028D01*
X6661780Y15235649D01*
X6661404Y15235837D01*
X6647119Y15198808D01*
X6644488D01*
X6630203Y15235837D01*
X6629827Y15235649D01*
X6630767Y15154262D01*
X6616670D01*
Y15266850D01*
X6628887D01*
X6645803Y15225499D01*
X6662720Y15266850D01*
X6675125D01*
Y15154262D01*
D02*
G37*
G36*
X6829628Y15213094D02*
X6851995Y15154262D01*
X6836771D01*
X6816659Y15211214D01*
X6832636Y15266850D01*
X6847672D01*
X6829628Y15213094D01*
D02*
G37*
G36*
X6816095Y15154262D02*
X6801622D01*
Y15266850D01*
X6816095D01*
Y15154262D01*
D02*
G37*
G36*
X6743167D02*
X6729070D01*
X6724934Y15179260D01*
X6704071D01*
X6699560Y15154262D01*
X6685651D01*
X6706890Y15267603D01*
X6721927D01*
X6743167Y15154262D01*
D02*
G37*
G36*
X6529268Y15213094D02*
X6551635Y15154262D01*
X6536411D01*
X6516299Y15211214D01*
X6532275Y15266850D01*
X6547312D01*
X6529268Y15213094D01*
D02*
G37*
G36*
X6515735Y15154262D02*
X6501262D01*
Y15266850D01*
X6515735D01*
Y15154262D01*
D02*
G37*
G36*
X6433972D02*
X6419875D01*
X6415740Y15179260D01*
X6394877D01*
X6390366Y15154262D01*
X6376457D01*
X6397696Y15267603D01*
X6412733D01*
X6433972Y15154262D01*
D02*
G37*
G36*
X6339616Y15266663D02*
X6340744D01*
X6342060Y15266473D01*
X6345067Y15265910D01*
X6348451Y15264783D01*
X6351834Y15263280D01*
X6355405Y15261398D01*
X6357097Y15260085D01*
X6358788Y15258580D01*
X6358976D01*
X6359164Y15258205D01*
X6360104Y15257076D01*
X6361420Y15255385D01*
X6363111Y15252940D01*
X6364615Y15250122D01*
X6365931Y15246739D01*
X6366871Y15242979D01*
X6367247Y15240912D01*
Y15238844D01*
Y15238657D01*
Y15238092D01*
Y15237341D01*
X6367059Y15236401D01*
X6366871Y15235085D01*
X6366495Y15233582D01*
X6365367Y15230199D01*
X6364615Y15228131D01*
X6363675Y15226251D01*
X6362548Y15224184D01*
X6361044Y15222116D01*
X6359352Y15220236D01*
X6357473Y15218169D01*
X6355217Y15216289D01*
X6352586Y15214597D01*
X6352774D01*
X6353338Y15214223D01*
X6354277Y15213658D01*
X6355217Y15213094D01*
X6356533Y15212154D01*
X6358037Y15211026D01*
X6359540Y15209711D01*
X6361232Y15208018D01*
X6362924Y15206326D01*
X6364427Y15204260D01*
X6365931Y15202003D01*
X6367247Y15199373D01*
X6368374Y15196553D01*
X6369126Y15193546D01*
X6369690Y15190163D01*
X6369878Y15186591D01*
Y15186403D01*
Y15186028D01*
Y15185275D01*
X6369690Y15184148D01*
Y15183020D01*
X6369314Y15181516D01*
X6368750Y15178320D01*
X6367623Y15174562D01*
X6365931Y15170802D01*
X6364803Y15168735D01*
X6363675Y15166856D01*
X6362172Y15164977D01*
X6360480Y15163284D01*
X6360292Y15163097D01*
X6360104Y15162907D01*
X6359540Y15162534D01*
X6358788Y15161969D01*
X6357849Y15161217D01*
X6356533Y15160464D01*
X6355217Y15159714D01*
X6353713Y15158772D01*
X6351834Y15158022D01*
X6349954Y15157082D01*
X6347699Y15156329D01*
X6345255Y15155766D01*
X6342812Y15155014D01*
X6339992Y15154639D01*
X6337173Y15154449D01*
X6333978Y15154262D01*
X6320445D01*
Y15266850D01*
X6338865D01*
X6339616Y15266663D01*
D02*
G37*
%LPC*%
G36*
X6714409Y15239784D02*
X6714033D01*
X6706138Y15192793D01*
X6722303D01*
X6714409Y15239784D01*
D02*
G37*
G36*
X6405215D02*
X6404839D01*
X6396944Y15192793D01*
X6413109D01*
X6405215Y15239784D01*
D02*
G37*
G36*
X6336233Y15253317D02*
X6334917D01*
Y15219109D01*
X6337549D01*
X6338865Y15219296D01*
X6340556Y15219672D01*
X6342436Y15220236D01*
X6344503Y15221176D01*
X6346383Y15222304D01*
X6348263Y15223808D01*
X6348451Y15223994D01*
X6349014Y15224747D01*
X6349766Y15225687D01*
X6350518Y15227191D01*
X6351270Y15229070D01*
X6352022Y15231139D01*
X6352586Y15233769D01*
X6352774Y15236589D01*
Y15236964D01*
Y15237904D01*
X6352586Y15239407D01*
X6352210Y15241100D01*
X6351646Y15242979D01*
X6350894Y15245047D01*
X6349954Y15247115D01*
X6348451Y15248807D01*
X6348263Y15248994D01*
X6347699Y15249557D01*
X6346759Y15250310D01*
X6345255Y15251062D01*
X6343564Y15251814D01*
X6341496Y15252565D01*
X6339053Y15253130D01*
X6336233Y15253317D01*
D02*
G37*
G36*
X6337361Y15205576D02*
X6334917D01*
Y15167795D01*
X6338677D01*
X6340368Y15167982D01*
X6342248Y15168359D01*
X6344315Y15168922D01*
X6346571Y15169862D01*
X6348639Y15170992D01*
X6350518Y15172495D01*
X6350706Y15172682D01*
X6351270Y15173434D01*
X6352022Y15174562D01*
X6352962Y15176067D01*
X6353901Y15177945D01*
X6354653Y15180389D01*
X6355217Y15183020D01*
X6355405Y15186217D01*
Y15186403D01*
Y15186591D01*
Y15187720D01*
X6355217Y15189223D01*
X6354841Y15191103D01*
X6354277Y15193358D01*
X6353338Y15195613D01*
X6352210Y15198058D01*
X6350706Y15200125D01*
X6350518Y15200313D01*
X6349766Y15201064D01*
X6348827Y15201816D01*
X6347323Y15202943D01*
X6345443Y15203883D01*
X6343188Y15204823D01*
X6340368Y15205386D01*
X6337361Y15205576D01*
D02*
G37*
%LPD*%
D24*
X7109460Y17907001D02*
D03*
X5631180Y22064980D02*
D03*
X7617460Y22072600D02*
D03*
D80*
X7579360Y19794479D02*
D03*
Y19890480D02*
D03*
X6781800Y18818600D02*
D03*
Y18722600D02*
D03*
D81*
X6489900Y19545300D02*
D03*
X6387900D02*
D03*
Y19342101D02*
D03*
X6489900D02*
D03*
X6870500Y19606261D02*
D03*
X6972500D02*
D03*
D84*
X5608320Y19717821D02*
D03*
Y19819820D02*
D03*
X5702300Y19819420D02*
D03*
Y19921420D02*
D03*
X6972300Y19964600D02*
D03*
Y19862601D02*
D03*
X5509260Y19669560D02*
D03*
Y19771561D02*
D03*
D85*
X6390900Y19443700D02*
D03*
X6486900D02*
D03*
X6053080Y21376640D02*
D03*
X6149080D02*
D03*
X6835400Y20292059D02*
D03*
X6931400D02*
D03*
D116*
X5525300Y20616721D02*
D03*
X5626900Y20108720D02*
D03*
X5423700D02*
D03*
D117*
X6888480Y17927319D02*
D03*
X6319520D02*
D03*
D118*
X6225540Y17670779D02*
D03*
X6982460D02*
D03*
D119*
X6405880D02*
D03*
X6802120D02*
D03*
X7620000Y21719540D02*
D03*
X7366000D02*
D03*
X7112000D02*
D03*
X6858000D02*
D03*
X6604000D02*
D03*
X6350000D02*
D03*
X6096000D02*
D03*
X5842000D02*
D03*
X6969760Y18280380D02*
D03*
X6583680Y17772380D02*
D03*
X6586220Y17594580D02*
D03*
D120*
X5588000Y21719540D02*
D03*
D121*
X6604000Y18227040D02*
D03*
X7556500Y20957539D02*
D03*
X5651500D02*
D03*
D122*
X6471700Y18516600D02*
D03*
X6761700D02*
D03*
X5925600Y21534120D02*
D03*
X6215600D02*
D03*
D123*
X6407400Y19900900D02*
D03*
X6597400D02*
D03*
X7212580Y21526500D02*
D03*
X7402580D02*
D03*
X7753100D02*
D03*
X7563100D02*
D03*
X6597400Y19697701D02*
D03*
X6407400D02*
D03*
X6511540Y21526500D02*
D03*
X6701540D02*
D03*
X7052060D02*
D03*
X6862060D02*
D03*
D124*
X6231890Y17670779D02*
D03*
X6976110D02*
D03*
D125*
X6405880D02*
D03*
X6802120D02*
D03*
X6969760Y18280380D02*
D03*
D126*
X6159500Y20973801D02*
D03*
Y20783800D02*
D03*
X5943600Y20973801D02*
D03*
Y20783800D02*
D03*
X7048500Y20973801D02*
D03*
Y20783800D02*
D03*
X7251700Y20973801D02*
D03*
Y20783800D02*
D03*
X6672580Y19178520D02*
D03*
Y19368520D02*
D03*
D127*
X6767120Y17541240D02*
D03*
D128*
X6837120Y17518739D02*
D03*
Y17563741D02*
D03*
D129*
X5514340Y21564600D02*
D03*
Y21371561D02*
D03*
D130*
X5768340D02*
D03*
D131*
Y21545551D02*
D03*
D132*
X6604000Y18808701D02*
D03*
D133*
X6695000Y18743700D02*
D03*
Y18808701D02*
D03*
Y18873700D02*
D03*
X6513000D02*
D03*
Y18808701D02*
D03*
Y18743700D02*
D03*
D134*
X6583680Y17772380D02*
D03*
X6586220Y17594580D02*
D03*
%TF.MD5,b2dff0e0f2d6549f25d141d47a002404*%
M02*
