%TF.GenerationSoftware,Altium Limited,Altium Designer,25.2.1 (25)*%
G04 Layer_Color=2752767*
%FSLAX45Y45*%
%MOMM*%
%TF.SameCoordinates,1405630C-4DB4-4800-89E6-4DE4E69AA207*%
%TF.FilePolarity,Positive*%
%TF.FileFunction,Drawing*%
%TF.Part,Single*%
G01*
G75*
%TA.AperFunction,NonConductor*%
%ADD148C,0.12700*%
%ADD149C,0.16933*%
%ADD150C,0.10160*%
D148*
X5474500Y20565919D02*
Y20667520D01*
X5576100D01*
Y20565919D01*
X5474500D01*
X5576100Y20057919D02*
Y20159520D01*
X5677700D01*
Y20057919D01*
X5576100D01*
X5372900D02*
Y20159520D01*
X5474500D01*
Y20057919D01*
X5372900D01*
X6837680Y17927319D02*
X6888480Y17978120D01*
X6939280Y17927319D01*
X6888480Y17876520D01*
X6837680Y17927319D01*
X6174740Y17619980D02*
Y17721581D01*
X6276340D01*
Y17619980D01*
X6174740D01*
X6195060Y17640300D02*
Y17701260D01*
X6256020D01*
Y17640300D01*
X6195060D01*
X6355080Y17619980D02*
Y17721581D01*
X6456680D01*
Y17619980D01*
X6355080D01*
X6375400Y17640300D02*
Y17701260D01*
X6436360D01*
Y17640300D01*
X6375400D01*
X6751320Y17619980D02*
Y17721581D01*
X6852920D01*
Y17619980D01*
X6751320D01*
X6771640Y17640300D02*
Y17701260D01*
X6832600D01*
Y17640300D01*
X6771640D01*
X6931660Y17619980D02*
Y17721581D01*
X7033260D01*
Y17619980D01*
X6931660D01*
X6951980Y17640300D02*
Y17701260D01*
X7012940D01*
Y17640300D01*
X6951980D01*
X7569200Y21668739D02*
Y21770340D01*
X7670800D01*
Y21668739D01*
X7569200D01*
X7589520Y21689059D02*
Y21750020D01*
X7650480D01*
Y21689059D01*
X7589520D01*
X7315200Y21668739D02*
Y21770340D01*
X7416800D01*
Y21668739D01*
X7315200D01*
X7335520Y21689059D02*
Y21750020D01*
X7396480D01*
Y21689059D01*
X7335520D01*
X7061200Y21668739D02*
Y21770340D01*
X7162800D01*
Y21668739D01*
X7061200D01*
X7081520Y21689059D02*
Y21750020D01*
X7142480D01*
Y21689059D01*
X7081520D01*
X6807200Y21668739D02*
Y21770340D01*
X6908800D01*
Y21668739D01*
X6807200D01*
X6827520Y21689059D02*
Y21750020D01*
X6888480D01*
Y21689059D01*
X6827520D01*
X6553200Y21668739D02*
Y21770340D01*
X6654800D01*
Y21668739D01*
X6553200D01*
X6573520Y21689059D02*
Y21750020D01*
X6634480D01*
Y21689059D01*
X6573520D01*
X6299200Y21668739D02*
Y21770340D01*
X6400800D01*
Y21668739D01*
X6299200D01*
X6319520Y21689059D02*
Y21750020D01*
X6380480D01*
Y21689059D01*
X6319520D01*
X6045200Y21668739D02*
Y21770340D01*
X6146800D01*
Y21668739D01*
X6045200D01*
X6065520Y21689059D02*
Y21750020D01*
X6126480D01*
Y21689059D01*
X6065520D01*
X5791200Y21668739D02*
Y21770340D01*
X5892800D01*
Y21668739D01*
X5791200D01*
X5811520Y21689059D02*
Y21750020D01*
X5872480D01*
Y21689059D01*
X5811520D01*
X5537200Y21668739D02*
Y21770340D01*
X5638800D01*
Y21668739D01*
X5537200D01*
X5557520Y21689059D02*
Y21750020D01*
X5618480D01*
Y21689059D01*
X5557520D01*
X6918960Y18229581D02*
Y18331180D01*
X7020560D01*
Y18229581D01*
X6918960D01*
X6939280Y18249899D02*
Y18310860D01*
X7000240D01*
Y18249899D01*
X6939280D01*
X6532880Y17721581D02*
Y17823180D01*
X6634480D01*
Y17721581D01*
X6532880D01*
X6553200Y17741901D02*
Y17802859D01*
X6614160D01*
Y17741901D01*
X6553200D01*
X6535420Y17543781D02*
Y17645380D01*
X6637020D01*
Y17543781D01*
X6535420D01*
X6555740Y17564101D02*
Y17625060D01*
X6616700D01*
Y17564101D01*
X6555740D01*
X6268720Y17927319D02*
X6319520Y17978120D01*
X6370320Y17927319D01*
X6319520Y17876520D01*
X6268720Y17927319D01*
X5514340Y21513800D02*
X5463540Y21615401D01*
X5565140D01*
X5514340Y21513800D01*
Y21534120D02*
X5483860Y21595081D01*
X5544820D01*
X5514340Y21534120D01*
X5789460Y20492380D02*
X5738660Y20593980D01*
X5840260D01*
X5789460Y20492380D01*
Y20512700D02*
X5758980Y20573660D01*
X5819940D01*
X5789460Y20512700D01*
X7792720Y19900900D02*
X7741920Y20002499D01*
X7843520D01*
X7792720Y19900900D01*
Y19921220D02*
X7762240Y19982179D01*
X7823200D01*
X7792720Y19921220D01*
X6212840Y21320760D02*
X6162040Y21422360D01*
X6263640D01*
X6212840Y21320760D01*
Y21341080D02*
X6182360Y21402040D01*
X6243320D01*
X6212840Y21341080D01*
X6017260Y21259801D02*
X5966460Y21361400D01*
X6068060D01*
X6017260Y21259801D01*
Y21280119D02*
X5986780Y21341080D01*
X6047740D01*
X6017260Y21280119D01*
X5768340Y21320760D02*
X5717540Y21422360D01*
X5819140D01*
X5768340Y21320760D01*
Y21341080D02*
X5737860Y21402040D01*
X5798820D01*
X5768340Y21341080D01*
X7668260Y19850101D02*
X7617460Y19951700D01*
X7719060D01*
X7668260Y19850101D01*
Y19870419D02*
X7637780Y19931380D01*
X7698740D01*
X7668260Y19870419D01*
X7490460Y19847560D02*
X7439660Y19949159D01*
X7541260D01*
X7490460Y19847560D01*
Y19867880D02*
X7459980Y19928841D01*
X7520940D01*
X7490460Y19867880D01*
X6972300Y19811800D02*
X6921500Y19913400D01*
X7023100D01*
X6972300Y19811800D01*
Y19832120D02*
X6941820Y19893080D01*
X7002780D01*
X6972300Y19832120D01*
X6464300Y19547839D02*
X6413500Y19649440D01*
X6515100D01*
X6464300Y19547839D01*
Y19568159D02*
X6433820Y19629120D01*
X6494780D01*
X6464300Y19568159D01*
X5741200Y19621040D02*
X5690400Y19722639D01*
X5792000D01*
X5741200Y19621040D01*
Y19641360D02*
X5710720Y19702319D01*
X5771680D01*
X5741200Y19641360D01*
X6662420Y20292059D02*
X6611620Y20393660D01*
X6713220D01*
X6662420Y20292059D01*
Y20312379D02*
X6631940Y20373340D01*
X6692900D01*
X6662420Y20312379D01*
X6387900Y19494501D02*
X6337100Y19596100D01*
X6438700D01*
X6387900Y19494501D01*
Y19514819D02*
X6357420Y19575780D01*
X6418380D01*
X6387900Y19514819D01*
X6179820Y20106641D02*
X6129020Y20208240D01*
X6230620D01*
X6179820Y20106641D01*
Y20126961D02*
X6149340Y20187920D01*
X6210300D01*
X6179820Y20126961D01*
X5834380Y20690840D02*
X5783580Y20792439D01*
X5885180D01*
X5834380Y20690840D01*
Y20711160D02*
X5803900Y20772121D01*
X5864860D01*
X5834380Y20711160D01*
X5492280Y19560080D02*
X5441480Y19661681D01*
X5543080D01*
X5492280Y19560080D01*
Y19580400D02*
X5461800Y19641360D01*
X5522760D01*
X5492280Y19580400D01*
X5731040Y19674380D02*
X5680240Y19775980D01*
X5781840D01*
X5731040Y19674380D01*
Y19694701D02*
X5700560Y19755659D01*
X5761520D01*
X5731040Y19694701D01*
X7137400Y20304761D02*
X7086600Y20406360D01*
X7188200D01*
X7137400Y20304761D01*
Y20325079D02*
X7106920Y20386040D01*
X7167880D01*
X7137400Y20325079D01*
X5555780Y19544839D02*
X5504980Y19646440D01*
X5606580D01*
X5555780Y19544839D01*
Y19565160D02*
X5525300Y19626120D01*
X5586260D01*
X5555780Y19565160D01*
X6842100Y19621201D02*
X6791300Y19722800D01*
X6892900D01*
X6842100Y19621201D01*
Y19641521D02*
X6811620Y19702480D01*
X6872580D01*
X6842100Y19641521D01*
X5890260Y20640041D02*
X5839460Y20741640D01*
X5941060D01*
X5890260Y20640041D01*
Y20660361D02*
X5859780Y20721320D01*
X5920740D01*
X5890260Y20660361D01*
X6972300Y19710600D02*
X6921500Y19812199D01*
X7023100D01*
X6972300Y19710600D01*
Y19730920D02*
X6941820Y19791879D01*
X7002780D01*
X6972300Y19730920D01*
X5614200Y19549921D02*
X5563400Y19651520D01*
X5665000D01*
X5614200Y19549921D01*
Y19570239D02*
X5583720Y19631200D01*
X5644680D01*
X5614200Y19570239D01*
X5435600Y19685001D02*
X5384800Y19786600D01*
X5486400D01*
X5435600Y19685001D01*
Y19705321D02*
X5405120Y19766280D01*
X5466080D01*
X5435600Y19705321D01*
X6520180Y18877280D02*
X6469380Y18978880D01*
X6570980D01*
X6520180Y18877280D01*
Y18897600D02*
X6489700Y18958560D01*
X6550660D01*
X6520180Y18897600D01*
X7020560Y18770599D02*
X6969760Y18872200D01*
X7071360D01*
X7020560Y18770599D01*
Y18790919D02*
X6990080Y18851880D01*
X7051040D01*
X7020560Y18790919D01*
X5497360Y19981720D02*
X5446560Y20083321D01*
X5548160D01*
X5497360Y19981720D01*
Y20002040D02*
X5466880Y20063000D01*
X5527840D01*
X5497360Y20002040D01*
X6781800Y19282201D02*
X6731000Y19383800D01*
X6832600D01*
X6781800Y19282201D01*
Y19302521D02*
X6751320Y19363480D01*
X6812280D01*
X6781800Y19302521D01*
X5389880Y19725639D02*
X5339080Y19827240D01*
X5440680D01*
X5389880Y19725639D01*
Y19745959D02*
X5359400Y19806920D01*
X5420360D01*
X5389880Y19745959D01*
X7632700Y19644360D02*
X7581900Y19745959D01*
X7683500D01*
X7632700Y19644360D01*
Y19664680D02*
X7602220Y19725639D01*
X7663180D01*
X7632700Y19664680D01*
X7528560Y19644360D02*
X7477760Y19745959D01*
X7579360D01*
X7528560Y19644360D01*
Y19664680D02*
X7498080Y19725639D01*
X7559040D01*
X7528560Y19664680D01*
X6451600Y21275040D02*
X6400800Y21376640D01*
X6502400D01*
X6451600Y21275040D01*
Y21295360D02*
X6421120Y21356320D01*
X6482080D01*
X6451600Y21295360D01*
X6526530Y21276311D02*
X6475730Y21377910D01*
X6577330D01*
X6526530Y21276311D01*
Y21296629D02*
X6496050Y21357590D01*
X6557010D01*
X6526530Y21296629D01*
X5788660Y19725639D02*
X5737860Y19827240D01*
X5839460D01*
X5788660Y19725639D01*
Y19745959D02*
X5758180Y19806920D01*
X5819140D01*
X5788660Y19745959D01*
X5778500Y19845020D02*
X5727700Y19946620D01*
X5829300D01*
X5778500Y19845020D01*
Y19865340D02*
X5748020Y19926300D01*
X5808980D01*
X5778500Y19865340D01*
X6791960Y19560539D02*
X6741160Y19662140D01*
X6842760D01*
X6791960Y19560539D01*
Y19580859D02*
X6761480Y19641820D01*
X6822440D01*
X6791960Y19580859D01*
X5441480Y19577859D02*
X5390680Y19679460D01*
X5492280D01*
X5441480Y19577859D01*
Y19598180D02*
X5411000Y19659140D01*
X5471960D01*
X5441480Y19598180D01*
X5509260Y19720760D02*
X5458460Y19822360D01*
X5560060D01*
X5509260Y19720760D01*
Y19741080D02*
X5478780Y19802040D01*
X5539740D01*
X5509260Y19741080D01*
X7366000Y21310600D02*
X7391400Y21336000D01*
X7416800D01*
X7391400Y21361400D01*
X7416800Y21386800D01*
X7391400D01*
X7366000Y21412199D01*
X7340600Y21386800D01*
X7315200D01*
X7340600Y21361400D01*
X7315200Y21336000D01*
X7340600D01*
X7366000Y21310600D01*
Y21330920D02*
X7381240Y21346159D01*
X7396480D01*
X7381240Y21361400D01*
X7396480Y21376640D01*
X7381240D01*
X7366000Y21391879D01*
X7350760Y21376640D01*
X7335520D01*
X7350760Y21361400D01*
X7335520Y21346159D01*
X7350760D01*
X7366000Y21330920D01*
X5638800Y21437601D02*
X5664200Y21463000D01*
X5689600D01*
X5664200Y21488400D01*
X5689600Y21513800D01*
X5664200D01*
X5638800Y21539200D01*
X5613400Y21513800D01*
X5588000D01*
X5613400Y21488400D01*
X5588000Y21463000D01*
X5613400D01*
X5638800Y21437601D01*
Y21457919D02*
X5654040Y21473160D01*
X5669280D01*
X5654040Y21488400D01*
X5669280Y21503641D01*
X5654040D01*
X5638800Y21518880D01*
X5623560Y21503641D01*
X5608320D01*
X5623560Y21488400D01*
X5608320Y21473160D01*
X5623560D01*
X5638800Y21457919D01*
X6934200Y20091400D02*
X6959600Y20116800D01*
X6985000D01*
X6959600Y20142200D01*
X6985000Y20167599D01*
X6959600D01*
X6934200Y20192999D01*
X6908800Y20167599D01*
X6883400D01*
X6908800Y20142200D01*
X6883400Y20116800D01*
X6908800D01*
X6934200Y20091400D01*
Y20111720D02*
X6949440Y20126961D01*
X6964680D01*
X6949440Y20142200D01*
X6964680Y20157440D01*
X6949440D01*
X6934200Y20172681D01*
X6918960Y20157440D01*
X6903720D01*
X6918960Y20142200D01*
X6903720Y20126961D01*
X6918960D01*
X6934200Y20111720D01*
X6146800Y20700999D02*
X6096000Y20802600D01*
X6197600D01*
X6146800Y20700999D01*
Y20721320D02*
X6116320Y20782280D01*
X6177280D01*
X6146800Y20721320D01*
X6197600Y20700999D02*
X6146800Y20802600D01*
X6248400D01*
X6197600Y20700999D01*
Y20721320D02*
X6167120Y20782280D01*
X6228080D01*
X6197600Y20721320D01*
X7010400Y20700999D02*
X6959600Y20802600D01*
X7061200D01*
X7010400Y20700999D01*
Y20721320D02*
X6979920Y20782280D01*
X7040880D01*
X7010400Y20721320D01*
X6642100Y21310600D02*
X6667500Y21336000D01*
X6692900D01*
X6667500Y21361400D01*
X6692900Y21386800D01*
X6667500D01*
X6642100Y21412199D01*
X6616700Y21386800D01*
X6591300D01*
X6616700Y21361400D01*
X6591300Y21336000D01*
X6616700D01*
X6642100Y21310600D01*
Y21330920D02*
X6657340Y21346159D01*
X6672580D01*
X6657340Y21361400D01*
X6672580Y21376640D01*
X6657340D01*
X6642100Y21391879D01*
X6626860Y21376640D01*
X6611620D01*
X6626860Y21361400D01*
X6611620Y21346159D01*
X6626860D01*
X6642100Y21330920D01*
X7061200Y20700999D02*
X7010400Y20802600D01*
X7112000D01*
X7061200Y20700999D01*
Y20721320D02*
X7030720Y20782280D01*
X7091680D01*
X7061200Y20721320D01*
X6794500Y21310600D02*
X6819900Y21336000D01*
X6845300D01*
X6819900Y21361400D01*
X6845300Y21386800D01*
X6819900D01*
X6794500Y21412199D01*
X6769100Y21386800D01*
X6743700D01*
X6769100Y21361400D01*
X6743700Y21336000D01*
X6769100D01*
X6794500Y21310600D01*
Y21330920D02*
X6809740Y21346159D01*
X6824980D01*
X6809740Y21361400D01*
X6824980Y21376640D01*
X6809740D01*
X6794500Y21391879D01*
X6779260Y21376640D01*
X6764020D01*
X6779260Y21361400D01*
X6764020Y21346159D01*
X6779260D01*
X6794500Y21330920D01*
X7670800Y21310600D02*
X7696200Y21336000D01*
X7721600D01*
X7696200Y21361400D01*
X7721600Y21386800D01*
X7696200D01*
X7670800Y21412199D01*
X7645400Y21386800D01*
X7620000D01*
X7645400Y21361400D01*
X7620000Y21336000D01*
X7645400D01*
X7670800Y21310600D01*
Y21330920D02*
X7686040Y21346159D01*
X7701280D01*
X7686040Y21361400D01*
X7701280Y21376640D01*
X7686040D01*
X7670800Y21391879D01*
X7655560Y21376640D01*
X7640320D01*
X7655560Y21361400D01*
X7640320Y21346159D01*
X7655560D01*
X7670800Y21330920D01*
X7010400Y20751801D02*
X6959600Y20853400D01*
X7061200D01*
X7010400Y20751801D01*
Y20772121D02*
X6979920Y20833080D01*
X7040880D01*
X7010400Y20772121D01*
X7594600Y21310600D02*
X7620000Y21336000D01*
X7645400D01*
X7620000Y21361400D01*
X7645400Y21386800D01*
X7620000D01*
X7594600Y21412199D01*
X7569200Y21386800D01*
X7543800D01*
X7569200Y21361400D01*
X7543800Y21336000D01*
X7569200D01*
X7594600Y21310600D01*
Y21330920D02*
X7609840Y21346159D01*
X7625080D01*
X7609840Y21361400D01*
X7625080Y21376640D01*
X7609840D01*
X7594600Y21391879D01*
X7579360Y21376640D01*
X7564120D01*
X7579360Y21361400D01*
X7564120Y21346159D01*
X7579360D01*
X7594600Y21330920D01*
X6718300Y21310600D02*
X6743700Y21336000D01*
X6769100D01*
X6743700Y21361400D01*
X6769100Y21386800D01*
X6743700D01*
X6718300Y21412199D01*
X6692900Y21386800D01*
X6667500D01*
X6692900Y21361400D01*
X6667500Y21336000D01*
X6692900D01*
X6718300Y21310600D01*
Y21330920D02*
X6733540Y21346159D01*
X6748780D01*
X6733540Y21361400D01*
X6748780Y21376640D01*
X6733540D01*
X6718300Y21391879D01*
X6703060Y21376640D01*
X6687820D01*
X6703060Y21361400D01*
X6687820Y21346159D01*
X6703060D01*
X6718300Y21330920D01*
X7442200Y21310600D02*
X7467600Y21336000D01*
X7493000D01*
X7467600Y21361400D01*
X7493000Y21386800D01*
X7467600D01*
X7442200Y21412199D01*
X7416800Y21386800D01*
X7391400D01*
X7416800Y21361400D01*
X7391400Y21336000D01*
X7416800D01*
X7442200Y21310600D01*
Y21330920D02*
X7457440Y21346159D01*
X7472680D01*
X7457440Y21361400D01*
X7472680Y21376640D01*
X7457440D01*
X7442200Y21391879D01*
X7426960Y21376640D01*
X7411720D01*
X7426960Y21361400D01*
X7411720Y21346159D01*
X7426960D01*
X7442200Y21330920D01*
X6146800Y20751801D02*
X6096000Y20853400D01*
X6197600D01*
X6146800Y20751801D01*
Y20772121D02*
X6116320Y20833080D01*
X6177280D01*
X6146800Y20772121D01*
X6197600Y20751801D02*
X6146800Y20853400D01*
X6248400D01*
X6197600Y20751801D01*
Y20772121D02*
X6167120Y20833080D01*
X6228080D01*
X6197600Y20772121D01*
X5638800Y21361400D02*
X5664200Y21386800D01*
X5689600D01*
X5664200Y21412199D01*
X5689600Y21437601D01*
X5664200D01*
X5638800Y21463000D01*
X5613400Y21437601D01*
X5588000D01*
X5613400Y21412199D01*
X5588000Y21386800D01*
X5613400D01*
X5638800Y21361400D01*
Y21381720D02*
X5654040Y21396960D01*
X5669280D01*
X5654040Y21412199D01*
X5669280Y21427440D01*
X5654040D01*
X5638800Y21442680D01*
X5623560Y21427440D01*
X5608320D01*
X5623560Y21412199D01*
X5608320Y21396960D01*
X5623560D01*
X5638800Y21381720D01*
X7061200Y20751801D02*
X7010400Y20853400D01*
X7112000D01*
X7061200Y20751801D01*
Y20772121D02*
X7030720Y20833080D01*
X7091680D01*
X7061200Y20772121D01*
X7518400Y21310600D02*
X7543800Y21336000D01*
X7569200D01*
X7543800Y21361400D01*
X7569200Y21386800D01*
X7543800D01*
X7518400Y21412199D01*
X7493000Y21386800D01*
X7467600D01*
X7493000Y21361400D01*
X7467600Y21336000D01*
X7493000D01*
X7518400Y21310600D01*
Y21330920D02*
X7533640Y21346159D01*
X7548880D01*
X7533640Y21361400D01*
X7548880Y21376640D01*
X7533640D01*
X7518400Y21391879D01*
X7503160Y21376640D01*
X7487920D01*
X7503160Y21361400D01*
X7487920Y21346159D01*
X7503160D01*
X7518400Y21330920D01*
X6309360Y18503900D02*
X6334760Y18529300D01*
X6360160D01*
X6334760Y18554700D01*
X6360160Y18580099D01*
X6334760D01*
X6309360Y18605499D01*
X6283960Y18580099D01*
X6258560D01*
X6283960Y18554700D01*
X6258560Y18529300D01*
X6283960D01*
X6309360Y18503900D01*
Y18524220D02*
X6324600Y18539461D01*
X6339840D01*
X6324600Y18554700D01*
X6339840Y18569940D01*
X6324600D01*
X6309360Y18585181D01*
X6294120Y18569940D01*
X6278880D01*
X6294120Y18554700D01*
X6278880Y18539461D01*
X6294120D01*
X6309360Y18524220D01*
X5951220Y20398740D02*
X5900420Y20500340D01*
X6002020D01*
X5951220Y20398740D01*
Y20419060D02*
X5920740Y20480020D01*
X5981700D01*
X5951220Y20419060D01*
X5387340Y19829781D02*
X5336540Y19931380D01*
X5438140D01*
X5387340Y19829781D01*
Y19850101D02*
X5356860Y19911060D01*
X5417820D01*
X5387340Y19850101D01*
X6733800Y19024600D02*
X6683000Y19126199D01*
X6784600D01*
X6733800Y19024600D01*
Y19044920D02*
X6703320Y19105881D01*
X6764280D01*
X6733800Y19044920D01*
X6835400Y20241260D02*
X6784600Y20342860D01*
X6886200D01*
X6835400Y20241260D01*
Y20261580D02*
X6804920Y20322540D01*
X6865880D01*
X6835400Y20261580D01*
X5560860Y20680220D02*
X5510060Y20781821D01*
X5611660D01*
X5560860Y20680220D01*
Y20700540D02*
X5530380Y20761501D01*
X5591340D01*
X5560860Y20700540D01*
X7579360Y19918680D02*
X7528560Y20020280D01*
X7630160D01*
X7579360Y19918680D01*
Y19939000D02*
X7548880Y19999960D01*
X7609840D01*
X7579360Y19939000D01*
X6972300Y19608800D02*
X6921500Y19710400D01*
X7023100D01*
X6972300Y19608800D01*
Y19629120D02*
X6941820Y19690080D01*
X7002780D01*
X6972300Y19629120D01*
X7137400Y20409100D02*
X7086600Y20510699D01*
X7188200D01*
X7137400Y20409100D01*
Y20429420D02*
X7106920Y20490379D01*
X7167880D01*
X7137400Y20429420D01*
X6159500Y21267419D02*
X6108700Y21369020D01*
X6210300D01*
X6159500Y21267419D01*
Y21287740D02*
X6129020Y21348700D01*
X6189980D01*
X6159500Y21287740D01*
X6350000Y18872200D02*
X6375400Y18897600D01*
X6400800D01*
X6375400Y18923000D01*
X6400800Y18948399D01*
X6375400D01*
X6350000Y18973801D01*
X6324600Y18948399D01*
X6299200D01*
X6324600Y18923000D01*
X6299200Y18897600D01*
X6324600D01*
X6350000Y18872200D01*
Y18892520D02*
X6365240Y18907761D01*
X6380480D01*
X6365240Y18923000D01*
X6380480Y18938240D01*
X6365240D01*
X6350000Y18953481D01*
X6334760Y18938240D01*
X6319520D01*
X6334760Y18923000D01*
X6319520Y18907761D01*
X6334760D01*
X6350000Y18892520D01*
X6273800Y19697701D02*
X6299200Y19723100D01*
X6324600D01*
X6299200Y19748500D01*
X6324600Y19773900D01*
X6299200D01*
X6273800Y19799300D01*
X6248400Y19773900D01*
X6223000D01*
X6248400Y19748500D01*
X6223000Y19723100D01*
X6248400D01*
X6273800Y19697701D01*
Y19718021D02*
X6289040Y19733260D01*
X6304280D01*
X6289040Y19748500D01*
X6304280Y19763741D01*
X6289040D01*
X6273800Y19778979D01*
X6258560Y19763741D01*
X6243320D01*
X6258560Y19748500D01*
X6243320Y19733260D01*
X6258560D01*
X6273800Y19718021D01*
X6716800Y19282201D02*
X6666000Y19383800D01*
X6767600D01*
X6716800Y19282201D01*
Y19302521D02*
X6686320Y19363480D01*
X6747280D01*
X6716800Y19302521D01*
X6350000Y18935699D02*
X6375400Y18961099D01*
X6400800D01*
X6375400Y18986501D01*
X6400800Y19011900D01*
X6375400D01*
X6350000Y19037300D01*
X6324600Y19011900D01*
X6299200D01*
X6324600Y18986501D01*
X6299200Y18961099D01*
X6324600D01*
X6350000Y18935699D01*
Y18956020D02*
X6365240Y18971260D01*
X6380480D01*
X6365240Y18986501D01*
X6380480Y19001740D01*
X6365240D01*
X6350000Y19016980D01*
X6334760Y19001740D01*
X6319520D01*
X6334760Y18986501D01*
X6319520Y18971260D01*
X6334760D01*
X6350000Y18956020D01*
X6223000Y18935699D02*
X6248400Y18961099D01*
X6273800D01*
X6248400Y18986501D01*
X6273800Y19011900D01*
X6248400D01*
X6223000Y19037300D01*
X6197600Y19011900D01*
X6172200D01*
X6197600Y18986501D01*
X6172200Y18961099D01*
X6197600D01*
X6223000Y18935699D01*
Y18956020D02*
X6238240Y18971260D01*
X6253480D01*
X6238240Y18986501D01*
X6253480Y19001740D01*
X6238240D01*
X6223000Y19016980D01*
X6207760Y19001740D01*
X6192520D01*
X6207760Y18986501D01*
X6192520Y18971260D01*
X6207760D01*
X6223000Y18956020D01*
X6210300Y19761200D02*
X6235700Y19786600D01*
X6261100D01*
X6235700Y19812000D01*
X6261100Y19837399D01*
X6235700D01*
X6210300Y19862801D01*
X6184900Y19837399D01*
X6159500D01*
X6184900Y19812000D01*
X6159500Y19786600D01*
X6184900D01*
X6210300Y19761200D01*
Y19781520D02*
X6225540Y19796761D01*
X6240780D01*
X6225540Y19812000D01*
X6240780Y19827240D01*
X6225540D01*
X6210300Y19842480D01*
X6195060Y19827240D01*
X6179820D01*
X6195060Y19812000D01*
X6179820Y19796761D01*
X6195060D01*
X6210300Y19781520D01*
X6273800Y19761200D02*
X6299200Y19786600D01*
X6324600D01*
X6299200Y19812000D01*
X6324600Y19837399D01*
X6299200D01*
X6273800Y19862801D01*
X6248400Y19837399D01*
X6223000D01*
X6248400Y19812000D01*
X6223000Y19786600D01*
X6248400D01*
X6273800Y19761200D01*
Y19781520D02*
X6289040Y19796761D01*
X6304280D01*
X6289040Y19812000D01*
X6304280Y19827240D01*
X6289040D01*
X6273800Y19842480D01*
X6258560Y19827240D01*
X6243320D01*
X6258560Y19812000D01*
X6243320Y19796761D01*
X6258560D01*
X6273800Y19781520D01*
X6210300Y19824699D02*
X6235700Y19850101D01*
X6261100D01*
X6235700Y19875500D01*
X6261100Y19900900D01*
X6235700D01*
X6210300Y19926300D01*
X6184900Y19900900D01*
X6159500D01*
X6184900Y19875500D01*
X6159500Y19850101D01*
X6184900D01*
X6210300Y19824699D01*
Y19845020D02*
X6225540Y19860260D01*
X6240780D01*
X6225540Y19875500D01*
X6240780Y19890739D01*
X6225540D01*
X6210300Y19905980D01*
X6195060Y19890739D01*
X6179820D01*
X6195060Y19875500D01*
X6179820Y19860260D01*
X6195060D01*
X6210300Y19845020D01*
X6286500Y18935699D02*
X6311900Y18961099D01*
X6337300D01*
X6311900Y18986501D01*
X6337300Y19011900D01*
X6311900D01*
X6286500Y19037300D01*
X6261100Y19011900D01*
X6235700D01*
X6261100Y18986501D01*
X6235700Y18961099D01*
X6261100D01*
X6286500Y18935699D01*
Y18956020D02*
X6301740Y18971260D01*
X6316980D01*
X6301740Y18986501D01*
X6316980Y19001740D01*
X6301740D01*
X6286500Y19016980D01*
X6271260Y19001740D01*
X6256020D01*
X6271260Y18986501D01*
X6256020Y18971260D01*
X6271260D01*
X6286500Y18956020D01*
X6273800Y19824699D02*
X6299200Y19850101D01*
X6324600D01*
X6299200Y19875500D01*
X6324600Y19900900D01*
X6299200D01*
X6273800Y19926300D01*
X6248400Y19900900D01*
X6223000D01*
X6248400Y19875500D01*
X6223000Y19850101D01*
X6248400D01*
X6273800Y19824699D01*
Y19845020D02*
X6289040Y19860260D01*
X6304280D01*
X6289040Y19875500D01*
X6304280Y19890739D01*
X6289040D01*
X6273800Y19905980D01*
X6258560Y19890739D01*
X6243320D01*
X6258560Y19875500D01*
X6243320Y19860260D01*
X6258560D01*
X6273800Y19845020D01*
X6210300Y19697701D02*
X6235700Y19723100D01*
X6261100D01*
X6235700Y19748500D01*
X6261100Y19773900D01*
X6235700D01*
X6210300Y19799300D01*
X6184900Y19773900D01*
X6159500D01*
X6184900Y19748500D01*
X6159500Y19723100D01*
X6184900D01*
X6210300Y19697701D01*
Y19718021D02*
X6225540Y19733260D01*
X6240780D01*
X6225540Y19748500D01*
X6240780Y19763741D01*
X6225540D01*
X6210300Y19778979D01*
X6195060Y19763741D01*
X6179820D01*
X6195060Y19748500D01*
X6179820Y19733260D01*
X6195060D01*
X6210300Y19718021D01*
X6286500Y18872200D02*
X6311900Y18897600D01*
X6337300D01*
X6311900Y18923000D01*
X6337300Y18948399D01*
X6311900D01*
X6286500Y18973801D01*
X6261100Y18948399D01*
X6235700D01*
X6261100Y18923000D01*
X6235700Y18897600D01*
X6261100D01*
X6286500Y18872200D01*
Y18892520D02*
X6301740Y18907761D01*
X6316980D01*
X6301740Y18923000D01*
X6316980Y18938240D01*
X6301740D01*
X6286500Y18953481D01*
X6271260Y18938240D01*
X6256020D01*
X6271260Y18923000D01*
X6256020Y18907761D01*
X6271260D01*
X6286500Y18892520D01*
X6223000Y18872200D02*
X6248400Y18897600D01*
X6273800D01*
X6248400Y18923000D01*
X6273800Y18948399D01*
X6248400D01*
X6223000Y18973801D01*
X6197600Y18948399D01*
X6172200D01*
X6197600Y18923000D01*
X6172200Y18897600D01*
X6197600D01*
X6223000Y18872200D01*
Y18892520D02*
X6238240Y18907761D01*
X6253480D01*
X6238240Y18923000D01*
X6253480Y18938240D01*
X6238240D01*
X6223000Y18953481D01*
X6207760Y18938240D01*
X6192520D01*
X6207760Y18923000D01*
X6192520Y18907761D01*
X6207760D01*
X6223000Y18892520D01*
X6311900Y20025101D02*
X6261100Y20126700D01*
X6362700D01*
X6311900Y20025101D01*
Y20045419D02*
X6281420Y20106380D01*
X6342380D01*
X6311900Y20045419D01*
X6390900Y19392900D02*
X6340100Y19494501D01*
X6441700D01*
X6390900Y19392900D01*
Y19413220D02*
X6360420Y19474181D01*
X6421380D01*
X6390900Y19413220D01*
X7432040Y19845020D02*
X7381240Y19946620D01*
X7482840D01*
X7432040Y19845020D01*
Y19865340D02*
X7401560Y19926300D01*
X7462520D01*
X7432040Y19865340D01*
X6934200Y20241400D02*
X6883400Y20342999D01*
X6985000D01*
X6934200Y20241400D01*
Y20261720D02*
X6903720Y20322681D01*
X6964680D01*
X6934200Y20261720D01*
X5892800Y20955000D02*
X5842000Y21056599D01*
X5943600D01*
X5892800Y20955000D01*
Y20975320D02*
X5862320Y21036279D01*
X5923280D01*
X5892800Y20975320D01*
X5788660Y20640041D02*
X5737860Y20741640D01*
X5839460D01*
X5788660Y20640041D01*
Y20660361D02*
X5758180Y20721320D01*
X5819140D01*
X5788660Y20660361D01*
X7724140Y19850101D02*
X7673340Y19951700D01*
X7774940D01*
X7724140Y19850101D01*
Y19870419D02*
X7693660Y19931380D01*
X7754620D01*
X7724140Y19870419D01*
X5976620Y21305521D02*
X5925820Y21407120D01*
X6027420D01*
X5976620Y21305521D01*
Y21325841D02*
X5946140Y21386800D01*
X6007100D01*
X5976620Y21325841D01*
X6350000Y21463000D02*
X6375400Y21488400D01*
X6400800D01*
X6375400Y21513800D01*
X6400800Y21539200D01*
X6375400D01*
X6350000Y21564600D01*
X6324600Y21539200D01*
X6299200D01*
X6324600Y21513800D01*
X6299200Y21488400D01*
X6324600D01*
X6350000Y21463000D01*
Y21483321D02*
X6365240Y21498560D01*
X6380480D01*
X6365240Y21513800D01*
X6380480Y21529041D01*
X6365240D01*
X6350000Y21544279D01*
X6334760Y21529041D01*
X6319520D01*
X6334760Y21513800D01*
X6319520Y21498560D01*
X6334760D01*
X6350000Y21483321D01*
X5943600Y20955000D02*
X5892800Y21056599D01*
X5994400D01*
X5943600Y20955000D01*
Y20975320D02*
X5913120Y21036279D01*
X5974080D01*
X5943600Y20975320D01*
X5892800Y20904201D02*
X5842000Y21005800D01*
X5943600D01*
X5892800Y20904201D01*
Y20924519D02*
X5862320Y20985480D01*
X5923280D01*
X5892800Y20924519D01*
X6985000Y21665640D02*
X6934200Y21767239D01*
X7035800D01*
X6985000Y21665640D01*
Y21685960D02*
X6954520Y21746919D01*
X7015480D01*
X6985000Y21685960D01*
X7753100Y21475700D02*
X7778500Y21501100D01*
X7803900D01*
X7778500Y21526500D01*
X7803900Y21551900D01*
X7778500D01*
X7753100Y21577299D01*
X7727700Y21551900D01*
X7702300D01*
X7727700Y21526500D01*
X7702300Y21501100D01*
X7727700D01*
X7753100Y21475700D01*
Y21496021D02*
X7768340Y21511259D01*
X7783580D01*
X7768340Y21526500D01*
X7783580Y21541740D01*
X7768340D01*
X7753100Y21556979D01*
X7737860Y21541740D01*
X7722620D01*
X7737860Y21526500D01*
X7722620Y21511259D01*
X7737860D01*
X7753100Y21496021D01*
X7010400Y20955000D02*
X6959600Y21056599D01*
X7061200D01*
X7010400Y20955000D01*
Y20975320D02*
X6979920Y21036279D01*
X7040880D01*
X7010400Y20975320D01*
X7061200Y20955000D02*
X7010400Y21056599D01*
X7112000D01*
X7061200Y20955000D01*
Y20975320D02*
X7030720Y21036279D01*
X7091680D01*
X7061200Y20975320D01*
X6794500Y19383000D02*
X6743700Y19484599D01*
X6845300D01*
X6794500Y19383000D01*
Y19403320D02*
X6764020Y19464281D01*
X6824980D01*
X6794500Y19403320D01*
X7010400Y20904201D02*
X6959600Y21005800D01*
X7061200D01*
X7010400Y20904201D01*
Y20924519D02*
X6979920Y20985480D01*
X7040880D01*
X7010400Y20924519D01*
X5415280Y19784061D02*
X5364480Y19885660D01*
X5466080D01*
X5415280Y19784061D01*
Y19804379D02*
X5384800Y19865340D01*
X5445760D01*
X5415280Y19804379D01*
X6693117Y18757855D02*
X6718517Y18783255D01*
X6743917D01*
X6718517Y18808655D01*
X6743917Y18834055D01*
X6718517D01*
X6693117Y18859454D01*
X6667717Y18834055D01*
X6642317D01*
X6667717Y18808655D01*
X6642317Y18783255D01*
X6667717D01*
X6693117Y18757855D01*
Y18778175D02*
X6708357Y18793414D01*
X6723597D01*
X6708357Y18808655D01*
X6723597Y18823895D01*
X6708357D01*
X6693117Y18839136D01*
X6677877Y18823895D01*
X6662637D01*
X6677877Y18808655D01*
X6662637Y18793414D01*
X6677877D01*
X6693117Y18778175D01*
X6720840Y19164301D02*
X6670040Y19265900D01*
X6771640D01*
X6720840Y19164301D01*
Y19184621D02*
X6690360Y19245580D01*
X6751320D01*
X6720840Y19184621D01*
X6896100Y19380200D02*
X6845300Y19481799D01*
X6946900D01*
X6896100Y19380200D01*
Y19400520D02*
X6865620Y19461481D01*
X6926580D01*
X6896100Y19400520D01*
X5943600Y20904201D02*
X5892800Y21005800D01*
X5994400D01*
X5943600Y20904201D01*
Y20924519D02*
X5913120Y20985480D01*
X5974080D01*
X5943600Y20924519D01*
X7212580Y21475700D02*
X7237980Y21501100D01*
X7263380D01*
X7237980Y21526500D01*
X7263380Y21551900D01*
X7237980D01*
X7212580Y21577299D01*
X7187180Y21551900D01*
X7161780D01*
X7187180Y21526500D01*
X7161780Y21501100D01*
X7187180D01*
X7212580Y21475700D01*
Y21496021D02*
X7227820Y21511259D01*
X7243060D01*
X7227820Y21526500D01*
X7243060Y21541740D01*
X7227820D01*
X7212580Y21556979D01*
X7197340Y21541740D01*
X7182100D01*
X7197340Y21526500D01*
X7182100Y21511259D01*
X7197340D01*
X7212580Y21496021D01*
X7581900Y19662140D02*
X7531100Y19763741D01*
X7632700D01*
X7581900Y19662140D01*
Y19682460D02*
X7551420Y19743420D01*
X7612380D01*
X7581900Y19682460D01*
X6742100Y19621201D02*
X6691300Y19722800D01*
X6792900D01*
X6742100Y19621201D01*
Y19641521D02*
X6711620Y19702480D01*
X6772580D01*
X6742100Y19641521D01*
X7061200Y20904201D02*
X7010400Y21005800D01*
X7112000D01*
X7061200Y20904201D01*
Y20924519D02*
X7030720Y20985480D01*
X7091680D01*
X7061200Y20924519D01*
X6314333Y18247157D02*
X6339733Y18272559D01*
X6365133D01*
X6339733Y18297958D01*
X6365133Y18323358D01*
X6339733D01*
X6314333Y18348758D01*
X6288933Y18323358D01*
X6263533D01*
X6288933Y18297958D01*
X6263533Y18272559D01*
X6288933D01*
X6314333Y18247157D01*
Y18267477D02*
X6329573Y18282718D01*
X6344813D01*
X6329573Y18297958D01*
X6344813Y18313197D01*
X6329573D01*
X6314333Y18328438D01*
X6299093Y18313197D01*
X6283853D01*
X6299093Y18297958D01*
X6283853Y18282718D01*
X6299093D01*
X6314333Y18267477D01*
X6313951Y18189853D02*
X6339351Y18215253D01*
X6364751D01*
X6339351Y18240652D01*
X6364751Y18266052D01*
X6339351D01*
X6313951Y18291454D01*
X6288551Y18266052D01*
X6263151D01*
X6288551Y18240652D01*
X6263151Y18215253D01*
X6288551D01*
X6313951Y18189853D01*
Y18210173D02*
X6329191Y18225414D01*
X6344431D01*
X6329191Y18240652D01*
X6344431Y18255893D01*
X6329191D01*
X6313951Y18271133D01*
X6298711Y18255893D01*
X6283471D01*
X6298711Y18240652D01*
X6283471Y18225414D01*
X6298711D01*
X6313951Y18210173D01*
X6255309Y18247540D02*
X6280709Y18272940D01*
X6306109D01*
X6280709Y18298340D01*
X6306109Y18323740D01*
X6280709D01*
X6255309Y18349139D01*
X6229909Y18323740D01*
X6204509D01*
X6229909Y18298340D01*
X6204509Y18272940D01*
X6229909D01*
X6255309Y18247540D01*
Y18267860D02*
X6270549Y18283099D01*
X6285789D01*
X6270549Y18298340D01*
X6285789Y18313580D01*
X6270549D01*
X6255309Y18328819D01*
X6240069Y18313580D01*
X6224829D01*
X6240069Y18298340D01*
X6224829Y18283099D01*
X6240069D01*
X6255309Y18267860D01*
X6313760Y18304272D02*
X6339160Y18329672D01*
X6364560D01*
X6339160Y18355072D01*
X6364560Y18380472D01*
X6339160D01*
X6313760Y18405872D01*
X6288360Y18380472D01*
X6262960D01*
X6288360Y18355072D01*
X6262960Y18329672D01*
X6288360D01*
X6313760Y18304272D01*
Y18324593D02*
X6329000Y18339832D01*
X6344240D01*
X6329000Y18355072D01*
X6344240Y18370312D01*
X6329000D01*
X6313760Y18385551D01*
X6298520Y18370312D01*
X6283280D01*
X6298520Y18355072D01*
X6283280Y18339832D01*
X6298520D01*
X6313760Y18324593D01*
X6255882Y18304845D02*
X6281282Y18330244D01*
X6306682D01*
X6281282Y18355646D01*
X6306682Y18381046D01*
X6281282D01*
X6255882Y18406445D01*
X6230482Y18381046D01*
X6205082D01*
X6230482Y18355646D01*
X6205082Y18330244D01*
X6230482D01*
X6255882Y18304845D01*
Y18325165D02*
X6271122Y18340405D01*
X6286362D01*
X6271122Y18355646D01*
X6286362Y18370885D01*
X6271122D01*
X6255882Y18386125D01*
X6240642Y18370885D01*
X6225402D01*
X6240642Y18355646D01*
X6225402Y18340405D01*
X6240642D01*
X6255882Y18325165D01*
X6255118Y18190617D02*
X6280518Y18216017D01*
X6305918D01*
X6280518Y18241417D01*
X6305918Y18266817D01*
X6280518D01*
X6255118Y18292216D01*
X6229718Y18266817D01*
X6204318D01*
X6229718Y18241417D01*
X6204318Y18216017D01*
X6229718D01*
X6255118Y18190617D01*
Y18210938D02*
X6270358Y18226176D01*
X6285598D01*
X6270358Y18241417D01*
X6285598Y18256657D01*
X6270358D01*
X6255118Y18271896D01*
X6239878Y18256657D01*
X6224638D01*
X6239878Y18241417D01*
X6224638Y18226176D01*
X6239878D01*
X6255118Y18210938D01*
D149*
X6654800Y18227040D02*
G03*
X6654800Y18227040I-50800J0D01*
G01*
X7607300Y20957539D02*
G03*
X7607300Y20957539I-50800J0D01*
G01*
X5702300D02*
G03*
X5702300Y20957539I-50800J0D01*
G01*
D150*
X6634480Y18227040D02*
G03*
X6634480Y18227040I-30480J0D01*
G01*
X7586980Y20957539D02*
G03*
X7586980Y20957539I-30480J0D01*
G01*
X5681980D02*
G03*
X5681980Y20957539I-30480J0D01*
G01*
%TF.MD5,7d59327992d2e61912c73c7d257197b2*%
M02*
