%TF.GenerationSoftware,Altium Limited,Altium Designer,25.2.1 (25)*%
G04 Layer_Color=8421504*
%FSLAX45Y45*%
%MOMM*%
%TF.SameCoordinates,1405630C-4DB4-4800-89E6-4DE4E69AA207*%
%TF.FilePolarity,Positive*%
%TF.FileFunction,Paste,Top*%
%TF.Part,Single*%
G01*
G75*
%TA.AperFunction,SMDPad,CuDef*%
G04:AMPARAMS|DCode=10|XSize=0.67mm|YSize=0.3mm|CornerRadius=0.0255mm|HoleSize=0mm|Usage=FLASHONLY|Rotation=270.000|XOffset=0mm|YOffset=0mm|HoleType=Round|Shape=RoundedRectangle|*
%AMROUNDEDRECTD10*
21,1,0.67000,0.24900,0,0,270.0*
21,1,0.61900,0.30000,0,0,270.0*
1,1,0.05100,-0.12450,-0.30950*
1,1,0.05100,-0.12450,0.30950*
1,1,0.05100,0.12450,0.30950*
1,1,0.05100,0.12450,-0.30950*
%
%ADD10ROUNDEDRECTD10*%
%ADD11R,0.42000X0.70000*%
%ADD12R,0.10000X0.10000*%
G04:AMPARAMS|DCode=13|XSize=0.56mm|YSize=0.62mm|CornerRadius=0.07mm|HoleSize=0mm|Usage=FLASHONLY|Rotation=90.000|XOffset=0mm|YOffset=0mm|HoleType=Round|Shape=RoundedRectangle|*
%AMROUNDEDRECTD13*
21,1,0.56000,0.48000,0,0,90.0*
21,1,0.42000,0.62000,0,0,90.0*
1,1,0.14000,0.24000,0.21000*
1,1,0.14000,0.24000,-0.21000*
1,1,0.14000,-0.24000,-0.21000*
1,1,0.14000,-0.24000,0.21000*
%
%ADD13ROUNDEDRECTD13*%
G04:AMPARAMS|DCode=14|XSize=0.54mm|YSize=0.64mm|CornerRadius=0.0675mm|HoleSize=0mm|Usage=FLASHONLY|Rotation=0.000|XOffset=0mm|YOffset=0mm|HoleType=Round|Shape=RoundedRectangle|*
%AMROUNDEDRECTD14*
21,1,0.54000,0.50500,0,0,0.0*
21,1,0.40500,0.64000,0,0,0.0*
1,1,0.13500,0.20250,-0.25250*
1,1,0.13500,-0.20250,-0.25250*
1,1,0.13500,-0.20250,0.25250*
1,1,0.13500,0.20250,0.25250*
%
%ADD14ROUNDEDRECTD14*%
%ADD15R,0.40000X0.45000*%
%ADD16R,1.72000X1.12000*%
G04:AMPARAMS|DCode=17|XSize=0.54mm|YSize=0.64mm|CornerRadius=0.0675mm|HoleSize=0mm|Usage=FLASHONLY|Rotation=270.000|XOffset=0mm|YOffset=0mm|HoleType=Round|Shape=RoundedRectangle|*
%AMROUNDEDRECTD17*
21,1,0.54000,0.50500,0,0,270.0*
21,1,0.40500,0.64000,0,0,270.0*
1,1,0.13500,-0.25250,-0.20250*
1,1,0.13500,-0.25250,0.20250*
1,1,0.13500,0.25250,0.20250*
1,1,0.13500,0.25250,-0.20250*
%
%ADD17ROUNDEDRECTD17*%
G04:AMPARAMS|DCode=18|XSize=0.56mm|YSize=0.62mm|CornerRadius=0.07mm|HoleSize=0mm|Usage=FLASHONLY|Rotation=180.000|XOffset=0mm|YOffset=0mm|HoleType=Round|Shape=RoundedRectangle|*
%AMROUNDEDRECTD18*
21,1,0.56000,0.48000,0,0,180.0*
21,1,0.42000,0.62000,0,0,180.0*
1,1,0.14000,-0.21000,0.24000*
1,1,0.14000,0.21000,0.24000*
1,1,0.14000,0.21000,-0.24000*
1,1,0.14000,-0.21000,-0.24000*
%
%ADD18ROUNDEDRECTD18*%
%ADD20R,0.35000X0.30000*%
%ADD21R,0.70000X0.30000*%
%ADD22R,0.30000X0.35000*%
%ADD23R,0.30000X0.70000*%
%ADD24C,1.27000*%
%ADD25R,0.85000X0.30000*%
%ADD26R,0.30000X0.85000*%
%ADD27R,0.60000X0.20000*%
%ADD28P,0.39994X4X180.0*%
%ADD29R,0.80000X1.07000*%
%ADD30C,1.01600*%
%ADD32R,0.70000X0.25000*%
%ADD33R,0.27500X0.71300*%
G04:AMPARAMS|DCode=34|XSize=2.54mm|YSize=2.54mm|CornerRadius=0.127mm|HoleSize=0mm|Usage=FLASHONLY|Rotation=90.000|XOffset=0mm|YOffset=0mm|HoleType=Round|Shape=RoundedRectangle|*
%AMROUNDEDRECTD34*
21,1,2.54000,2.28600,0,0,90.0*
21,1,2.28600,2.54000,0,0,90.0*
1,1,0.25400,1.14300,1.14300*
1,1,0.25400,1.14300,-1.14300*
1,1,0.25400,-1.14300,-1.14300*
1,1,0.25400,-1.14300,1.14300*
%
%ADD34ROUNDEDRECTD34*%
%ADD35R,0.25000X1.25000*%
%ADD36R,0.85000X0.25000*%
%ADD37R,0.25000X0.80000*%
%ADD38R,0.80000X0.25000*%
G04:AMPARAMS|DCode=39|XSize=0.85mm|YSize=0.25mm|CornerRadius=0mm|HoleSize=0mm|Usage=FLASHONLY|Rotation=90.000|XOffset=0mm|YOffset=0mm|HoleType=Round|Shape=RoundedRectangle|*
%AMROUNDEDRECTD39*
21,1,0.85000,0.25000,0,0,90.0*
21,1,0.85000,0.25000,0,0,90.0*
1,1,0.00000,0.12500,0.42500*
1,1,0.00000,0.12500,-0.42500*
1,1,0.00000,-0.12500,-0.42500*
1,1,0.00000,-0.12500,0.42500*
%
%ADD39ROUNDEDRECTD39*%
G04:AMPARAMS|DCode=41|XSize=1.6256mm|YSize=3.048mm|CornerRadius=0.08128mm|HoleSize=0mm|Usage=FLASHONLY|Rotation=180.000|XOffset=0mm|YOffset=0mm|HoleType=Round|Shape=RoundedRectangle|*
%AMROUNDEDRECTD41*
21,1,1.62560,2.88544,0,0,180.0*
21,1,1.46304,3.04800,0,0,180.0*
1,1,0.16256,-0.73152,1.44272*
1,1,0.16256,0.73152,1.44272*
1,1,0.16256,0.73152,-1.44272*
1,1,0.16256,-0.73152,-1.44272*
%
%ADD41ROUNDEDRECTD41*%
%ADD42R,0.22500X0.56300*%
%ADD43R,0.71300X0.22500*%
G04:AMPARAMS|DCode=44|XSize=0.3mm|YSize=0.2mm|CornerRadius=0.025mm|HoleSize=0mm|Usage=FLASHONLY|Rotation=0.000|XOffset=0mm|YOffset=0mm|HoleType=Round|Shape=RoundedRectangle|*
%AMROUNDEDRECTD44*
21,1,0.30000,0.15000,0,0,0.0*
21,1,0.25000,0.20000,0,0,0.0*
1,1,0.05000,0.12500,-0.07500*
1,1,0.05000,-0.12500,-0.07500*
1,1,0.05000,-0.12500,0.07500*
1,1,0.05000,0.12500,0.07500*
%
%ADD44ROUNDEDRECTD44*%
G04:AMPARAMS|DCode=45|XSize=0.35mm|YSize=0.2mm|CornerRadius=0.025mm|HoleSize=0mm|Usage=FLASHONLY|Rotation=0.000|XOffset=0mm|YOffset=0mm|HoleType=Round|Shape=RoundedRectangle|*
%AMROUNDEDRECTD45*
21,1,0.35000,0.15000,0,0,0.0*
21,1,0.30000,0.20000,0,0,0.0*
1,1,0.05000,0.15000,-0.07500*
1,1,0.05000,-0.15000,-0.07500*
1,1,0.05000,-0.15000,0.07500*
1,1,0.05000,0.15000,0.07500*
%
%ADD45ROUNDEDRECTD45*%
%ADD46R,0.70000X0.40000*%
%ADD47R,0.25000X0.40000*%
%TA.AperFunction,OtherPad,Pad U3-Un4 (67.725mm,187.873mm)*%
%ADD135R,0.64000X1.00000*%
%TA.AperFunction,OtherPad,Pad U3-Un3 (67.725mm,189.063mm)*%
%ADD136R,0.64000X1.00000*%
%TA.AperFunction,OtherPad,Pad U3-Un2 (66.895mm,187.873mm)*%
%ADD137R,0.64000X1.00000*%
%TA.AperFunction,OtherPad,Pad U3-Un1 (66.895mm,189.063mm)*%
%ADD138R,0.64000X1.00000*%
G36*
X5587200Y19944321D02*
X5572200D01*
Y19959320D01*
X5602200D01*
X5587200Y19944321D01*
D02*
G37*
G36*
X5402200D02*
X5387200D01*
X5372200Y19959320D01*
X5402200D01*
Y19944321D01*
D02*
G37*
G36*
X5617200Y19914320D02*
X5602200D01*
Y19929320D01*
X5617200Y19944321D01*
Y19914320D01*
D02*
G37*
G36*
X5372200Y19929320D02*
Y19914320D01*
X5357200D01*
Y19944321D01*
X5372200Y19929320D01*
D02*
G37*
G36*
X5617200Y19714320D02*
X5602200Y19729320D01*
Y19744321D01*
X5617200D01*
Y19714320D01*
D02*
G37*
G36*
X5372200Y19729320D02*
X5357200Y19714320D01*
Y19744321D01*
X5372200D01*
Y19729320D01*
D02*
G37*
G36*
X5602200Y19699319D02*
X5572200D01*
Y19714320D01*
X5587200D01*
X5602200Y19699319D01*
D02*
G37*
G36*
X5402200D02*
X5372200D01*
X5387200Y19714320D01*
X5402200D01*
Y19699319D01*
D02*
G37*
G36*
X6328800Y18654401D02*
X6091800D01*
Y18869400D01*
X6133800D01*
Y18824400D01*
X6156800D01*
Y18869400D01*
X6198800D01*
Y18824400D01*
X6221800D01*
Y18869400D01*
X6263800D01*
Y18824400D01*
X6286800D01*
Y18869400D01*
X6328800D01*
Y18654401D01*
D02*
G37*
G36*
X7160260Y17416780D02*
X7096760Y17353281D01*
X6982460D01*
Y17607280D01*
X6972526Y17608063D01*
X6957241Y17612502D01*
X6943540Y17620605D01*
X6932285Y17631860D01*
X6924182Y17645561D01*
X6919742Y17660846D01*
X6918960Y17670779D01*
X6919742Y17680714D01*
X6924182Y17695999D01*
X6932285Y17709700D01*
X6943540Y17720955D01*
X6957241Y17729057D01*
X6972526Y17733498D01*
X6982460Y17734280D01*
X7160260D01*
Y17416780D01*
D02*
G37*
G36*
X6865620Y17670779D02*
Y17576801D01*
X6916420Y17519650D01*
Y17353281D01*
X6738620D01*
Y17670779D01*
X6802120Y17734280D01*
X6865620Y17670779D01*
D02*
G37*
G36*
X6469380D02*
Y17353281D01*
X6291580D01*
Y17519650D01*
X6342380Y17576801D01*
Y17670779D01*
X6405880Y17734280D01*
X6469380Y17670779D01*
D02*
G37*
G36*
X6225540Y17353281D02*
X6111240D01*
X6047740Y17416780D01*
Y17734280D01*
X6225540D01*
Y17353281D01*
D02*
G37*
G36*
X6780477Y15268166D02*
X6781980Y15267978D01*
X6783860Y15267603D01*
X6785927Y15267038D01*
X6788183Y15266286D01*
X6790627Y15265347D01*
Y15251814D01*
X6790439Y15252002D01*
X6789687Y15252377D01*
X6788559Y15252940D01*
X6787055Y15253505D01*
X6785552Y15254070D01*
X6783672Y15254633D01*
X6781980Y15255009D01*
X6780289Y15255197D01*
X6779349D01*
X6778597Y15255009D01*
X6776905Y15254633D01*
X6774838Y15253880D01*
X6772770Y15252565D01*
X6771830Y15251627D01*
X6771079Y15250687D01*
X6770327Y15249370D01*
X6769951Y15247865D01*
X6769575Y15246175D01*
X6769387Y15244295D01*
Y15244107D01*
Y15243542D01*
X6769575Y15242792D01*
Y15241664D01*
X6769763Y15240160D01*
X6770139Y15238657D01*
X6770515Y15236777D01*
X6771079Y15234709D01*
X6771267Y15234521D01*
X6771455Y15233582D01*
X6772018Y15232266D01*
X6772958Y15230199D01*
X6774274Y15227379D01*
X6775026Y15225687D01*
X6775966Y15223994D01*
X6777093Y15221928D01*
X6778221Y15219672D01*
X6779537Y15217229D01*
X6780853Y15214597D01*
X6781041Y15214409D01*
X6781229Y15214034D01*
X6781604Y15213281D01*
X6782168Y15212154D01*
X6782732Y15211026D01*
X6783484Y15209523D01*
X6785176Y15206326D01*
X6787055Y15202756D01*
X6788747Y15198997D01*
X6790251Y15195425D01*
X6791378Y15192230D01*
X6791566Y15191853D01*
X6791754Y15190913D01*
X6792130Y15189410D01*
X6792694Y15187720D01*
X6793070Y15185464D01*
X6793446Y15183208D01*
X6793634Y15180765D01*
X6793822Y15178510D01*
Y15178320D01*
Y15177945D01*
Y15177380D01*
X6793634Y15176630D01*
X6793446Y15174562D01*
X6793070Y15171931D01*
X6792130Y15168922D01*
X6791002Y15165916D01*
X6789499Y15162721D01*
X6787243Y15159901D01*
X6786867Y15159525D01*
X6786115Y15158772D01*
X6784612Y15157646D01*
X6782732Y15156329D01*
X6780289Y15155014D01*
X6777469Y15153886D01*
X6774274Y15153136D01*
X6770515Y15152759D01*
X6769199D01*
X6767695Y15152946D01*
X6766004Y15153322D01*
X6763748Y15153886D01*
X6761305Y15154639D01*
X6758861Y15155579D01*
X6756230Y15157082D01*
Y15172118D01*
X6756606Y15171931D01*
X6757358Y15171179D01*
X6758673Y15170239D01*
X6760177Y15169112D01*
X6762057Y15167795D01*
X6764312Y15166856D01*
X6766568Y15166104D01*
X6768823Y15165916D01*
X6769575D01*
X6770515Y15166104D01*
X6771455Y15166292D01*
X6772770Y15166669D01*
X6773898Y15167232D01*
X6775214Y15167982D01*
X6776529Y15168922D01*
X6776717Y15169112D01*
X6777093Y15169487D01*
X6777657Y15170239D01*
X6778221Y15171179D01*
X6778785Y15172305D01*
X6779349Y15173622D01*
X6779725Y15174937D01*
X6779913Y15176630D01*
Y15176817D01*
Y15177380D01*
Y15178133D01*
X6779725Y15179260D01*
X6779537Y15180577D01*
X6779161Y15182268D01*
X6778597Y15184148D01*
X6778033Y15186028D01*
Y15186217D01*
X6777657Y15187155D01*
X6777093Y15188660D01*
X6776154Y15190727D01*
X6774838Y15193546D01*
X6773898Y15195238D01*
X6772958Y15197118D01*
X6772018Y15199185D01*
X6770891Y15201440D01*
X6769575Y15203883D01*
X6768071Y15206516D01*
Y15206703D01*
X6767695Y15207268D01*
X6767319Y15208018D01*
X6766756Y15208958D01*
X6766192Y15210274D01*
X6765440Y15211591D01*
X6763748Y15214973D01*
X6762057Y15218546D01*
X6760365Y15222304D01*
X6758861Y15225687D01*
X6757733Y15228882D01*
Y15229259D01*
X6757358Y15230199D01*
X6756982Y15231702D01*
X6756606Y15233392D01*
X6756230Y15235649D01*
X6755854Y15237904D01*
X6755666Y15240160D01*
X6755478Y15242416D01*
Y15242603D01*
Y15242979D01*
Y15243542D01*
X6755666Y15244295D01*
X6755854Y15246362D01*
X6756230Y15248994D01*
X6756982Y15252002D01*
X6758109Y15255197D01*
X6759801Y15258205D01*
X6761869Y15261024D01*
X6762245Y15261398D01*
X6762996Y15262151D01*
X6764500Y15263280D01*
X6766380Y15264783D01*
X6768635Y15266098D01*
X6771643Y15267226D01*
X6774838Y15267978D01*
X6778409Y15268353D01*
X6779349D01*
X6780477Y15268166D01*
D02*
G37*
G36*
X6508874Y15154262D02*
X6497221D01*
X6471846Y15224371D01*
X6471658D01*
Y15154262D01*
X6458501D01*
Y15266850D01*
X6469967D01*
X6495341Y15196928D01*
X6495717Y15197305D01*
Y15266850D01*
X6508874D01*
Y15154262D01*
D02*
G37*
G36*
X6900959Y15253317D02*
X6875396D01*
Y15219672D01*
X6898891D01*
Y15206139D01*
X6875396D01*
Y15167795D01*
X6902463D01*
Y15154262D01*
X6860924D01*
Y15266850D01*
X6900959D01*
Y15253317D01*
D02*
G37*
G36*
X6848894D02*
X6831602D01*
Y15154262D01*
X6817129D01*
Y15253317D01*
X6799837D01*
Y15266850D01*
X6848894D01*
Y15253317D01*
D02*
G37*
G36*
X6749651Y15154262D02*
X6735554D01*
X6731419Y15179260D01*
X6710556D01*
X6706045Y15154262D01*
X6692135D01*
X6713375Y15267603D01*
X6728412D01*
X6749651Y15154262D01*
D02*
G37*
G36*
X6656235Y15266663D02*
X6657551D01*
X6659054Y15266473D01*
X6662438Y15265723D01*
X6666385Y15264783D01*
X6670520Y15263280D01*
X6674467Y15261212D01*
X6676347Y15259895D01*
X6678226Y15258392D01*
X6678414D01*
X6678602Y15258015D01*
X6679730Y15256888D01*
X6681234Y15255009D01*
X6682925Y15252377D01*
X6684617Y15249182D01*
X6685933Y15245235D01*
X6687061Y15240724D01*
X6687248Y15238280D01*
X6687436Y15235649D01*
Y15235461D01*
Y15235085D01*
Y15234145D01*
X6687248Y15233205D01*
Y15231889D01*
X6687061Y15230574D01*
X6686309Y15227191D01*
X6685369Y15223431D01*
X6683865Y15219484D01*
X6681798Y15215726D01*
X6680482Y15213846D01*
X6678978Y15212154D01*
X6678602Y15211778D01*
X6678038Y15211401D01*
X6677475Y15210838D01*
X6675595Y15209523D01*
X6672964Y15208018D01*
X6669580Y15206326D01*
X6665633Y15205011D01*
X6661122Y15204073D01*
X6658491Y15203883D01*
X6655859Y15203696D01*
X6652852D01*
Y15154262D01*
X6638379D01*
Y15266850D01*
X6655107D01*
X6656235Y15266663D01*
D02*
G37*
G36*
X6569586Y15253317D02*
X6552293D01*
Y15154262D01*
X6537820D01*
Y15253317D01*
X6520528D01*
Y15266850D01*
X6569586D01*
Y15253317D01*
D02*
G37*
G36*
X6339335Y15266663D02*
X6340462D01*
X6341966Y15266473D01*
X6345161Y15265723D01*
X6348733Y15264783D01*
X6352304Y15263280D01*
X6355875Y15261024D01*
X6357567Y15259708D01*
X6359070Y15258205D01*
X6359446Y15257828D01*
X6359822Y15257265D01*
X6360198Y15256700D01*
X6361514Y15254820D01*
X6363018Y15252190D01*
X6364333Y15248994D01*
X6365649Y15245047D01*
X6366401Y15240724D01*
X6366777Y15235649D01*
Y15235461D01*
Y15234897D01*
Y15234145D01*
X6366589Y15233018D01*
X6366401Y15231702D01*
X6366213Y15230199D01*
X6365273Y15226627D01*
X6363957Y15222681D01*
X6363018Y15220612D01*
X6361702Y15218546D01*
X6360386Y15216666D01*
X6358882Y15214784D01*
X6357003Y15213094D01*
X6354935Y15211401D01*
X6355123D01*
X6355311Y15211026D01*
X6355875Y15210651D01*
X6356439Y15209898D01*
X6357191Y15209148D01*
X6358131Y15208018D01*
X6359070Y15206516D01*
X6360198Y15204823D01*
X6361514Y15202756D01*
X6362642Y15200313D01*
X6363957Y15197493D01*
X6365273Y15194298D01*
X6366589Y15190727D01*
X6367904Y15186778D01*
X6369220Y15182268D01*
X6370348Y15177380D01*
X6375611Y15154262D01*
X6360386D01*
X6355875Y15173622D01*
Y15173810D01*
X6355687Y15174562D01*
X6355499Y15175502D01*
X6355123Y15176817D01*
X6354747Y15178510D01*
X6354183Y15180389D01*
X6353244Y15184525D01*
X6351928Y15188847D01*
X6350612Y15193170D01*
X6349860Y15195050D01*
X6349108Y15196741D01*
X6348545Y15198433D01*
X6347793Y15199561D01*
X6347605Y15199750D01*
X6347229Y15200500D01*
X6346477Y15201253D01*
X6345537Y15202380D01*
X6344222Y15203320D01*
X6342718Y15204073D01*
X6341214Y15204636D01*
X6339335D01*
Y15154262D01*
X6324862D01*
Y15266850D01*
X6338207D01*
X6339335Y15266663D01*
D02*
G37*
G36*
X6305126Y15253317D02*
X6284450D01*
Y15219859D01*
X6303622D01*
Y15206326D01*
X6284450D01*
Y15154262D01*
X6269977D01*
Y15266850D01*
X6305126D01*
Y15253317D01*
D02*
G37*
G36*
X6413955Y15268166D02*
X6414894D01*
X6416022Y15267790D01*
X6417338Y15267413D01*
X6418842Y15267038D01*
X6420533Y15266286D01*
X6422225Y15265535D01*
X6424104Y15264407D01*
X6425796Y15263091D01*
X6427676Y15261588D01*
X6429555Y15259708D01*
X6431247Y15257452D01*
X6432939Y15255009D01*
X6434630Y15252190D01*
X6434818Y15252002D01*
X6435006Y15251437D01*
X6435382Y15250497D01*
X6435946Y15249182D01*
X6436510Y15247678D01*
X6437262Y15245799D01*
X6438014Y15243542D01*
X6438765Y15240912D01*
X6439517Y15238092D01*
X6440269Y15234897D01*
X6441021Y15231514D01*
X6441585Y15227756D01*
X6442149Y15223808D01*
X6442525Y15219672D01*
X6442900Y15215161D01*
Y15210461D01*
Y15210086D01*
Y15209335D01*
Y15207831D01*
X6442713Y15205951D01*
Y15203696D01*
X6442525Y15201064D01*
X6442149Y15198058D01*
X6441773Y15194862D01*
X6440833Y15188095D01*
X6439329Y15181142D01*
X6437074Y15174187D01*
X6435758Y15170992D01*
X6434254Y15167982D01*
X6434066Y15167795D01*
X6433878Y15167419D01*
X6433315Y15166669D01*
X6432751Y15165540D01*
X6430871Y15163097D01*
X6428240Y15160464D01*
X6425232Y15157646D01*
X6421473Y15155202D01*
X6419405Y15154262D01*
X6417338Y15153510D01*
X6415082Y15152946D01*
X6412639Y15152759D01*
X6412075D01*
X6411323Y15152946D01*
X6410383D01*
X6409256Y15153322D01*
X6407940Y15153510D01*
X6404933Y15154639D01*
X6403241Y15155579D01*
X6401549Y15156519D01*
X6399670Y15157834D01*
X6397790Y15159337D01*
X6395910Y15161029D01*
X6394219Y15163097D01*
X6392527Y15165540D01*
X6390836Y15168172D01*
Y15168359D01*
X6390460Y15168922D01*
X6390084Y15169862D01*
X6389520Y15170992D01*
X6388956Y15172495D01*
X6388204Y15174562D01*
X6387452Y15176630D01*
X6386700Y15179260D01*
X6385949Y15182080D01*
X6385197Y15185275D01*
X6384445Y15188660D01*
X6383881Y15192606D01*
X6383317Y15196553D01*
X6382941Y15200876D01*
X6382753Y15205576D01*
X6382565Y15210461D01*
Y15210838D01*
Y15211591D01*
Y15212906D01*
X6382753Y15214597D01*
Y15216853D01*
X6382941Y15219296D01*
X6383317Y15222116D01*
X6383505Y15225124D01*
X6384069Y15228319D01*
X6384445Y15231702D01*
X6385949Y15238657D01*
X6387828Y15245612D01*
X6389144Y15248807D01*
X6390460Y15252002D01*
X6390648Y15252190D01*
X6390836Y15252753D01*
X6391212Y15253505D01*
X6391963Y15254633D01*
X6392715Y15255762D01*
X6393655Y15257265D01*
X6396286Y15260272D01*
X6399294Y15263280D01*
X6401173Y15264595D01*
X6403241Y15265723D01*
X6405308Y15266850D01*
X6407564Y15267603D01*
X6410008Y15268166D01*
X6412639Y15268353D01*
X6413203D01*
X6413955Y15268166D01*
D02*
G37*
%LPC*%
G36*
X6720893Y15239784D02*
X6720517D01*
X6712623Y15192793D01*
X6728788D01*
X6720893Y15239784D01*
D02*
G37*
G36*
X6652852Y15253317D02*
Y15217229D01*
X6656047D01*
X6656987Y15217416D01*
X6658115Y15217606D01*
X6659430Y15217793D01*
X6660934Y15218169D01*
X6662438Y15218921D01*
X6664129Y15219672D01*
X6665821Y15220612D01*
X6667325Y15221928D01*
X6668828Y15223431D01*
X6670144Y15225311D01*
X6671272Y15227567D01*
X6672212Y15230009D01*
X6672776Y15233018D01*
X6672964Y15236401D01*
Y15236589D01*
Y15237154D01*
X6672776Y15238092D01*
X6672588Y15239032D01*
X6672400Y15240347D01*
X6671836Y15241852D01*
X6671272Y15243355D01*
X6670520Y15245047D01*
X6669392Y15246552D01*
X6668077Y15248055D01*
X6666385Y15249557D01*
X6664505Y15250874D01*
X6662250Y15251814D01*
X6659430Y15252753D01*
X6656423Y15253130D01*
X6652852Y15253317D01*
D02*
G37*
G36*
X6339335D02*
Y15218169D01*
X6340462D01*
X6341026Y15218356D01*
X6341778D01*
X6343846Y15219109D01*
X6344973Y15219672D01*
X6346101Y15220236D01*
X6347229Y15221176D01*
X6348357Y15222304D01*
X6349484Y15223621D01*
X6350424Y15225311D01*
X6351176Y15227191D01*
X6351740Y15229446D01*
X6352116Y15232079D01*
X6352304Y15235085D01*
Y15235274D01*
Y15235837D01*
Y15236777D01*
X6352116Y15237904D01*
X6351928Y15239220D01*
X6351552Y15240724D01*
X6350612Y15244107D01*
X6350048Y15245799D01*
X6349108Y15247490D01*
X6348169Y15248994D01*
X6346853Y15250310D01*
X6345349Y15251627D01*
X6343658Y15252565D01*
X6341590Y15253130D01*
X6339335Y15253317D01*
D02*
G37*
G36*
X6412451Y15254820D02*
X6412075D01*
X6411323Y15254633D01*
X6410008Y15254257D01*
X6408504Y15253317D01*
X6406624Y15252002D01*
X6405684Y15251062D01*
X6404933Y15249747D01*
X6403993Y15248430D01*
X6403053Y15246927D01*
X6402301Y15245047D01*
X6401549Y15242979D01*
Y15242792D01*
X6401361Y15242416D01*
X6401173Y15241664D01*
X6400985Y15240724D01*
X6400610Y15239597D01*
X6400422Y15238092D01*
X6400046Y15236401D01*
X6399670Y15234521D01*
X6399294Y15232266D01*
X6398918Y15229822D01*
X6398730Y15227191D01*
X6398354Y15224184D01*
X6398166Y15221176D01*
X6397978Y15217793D01*
X6397790Y15214223D01*
Y15210461D01*
Y15210274D01*
Y15209523D01*
Y15208395D01*
Y15206891D01*
X6397978Y15205199D01*
Y15203133D01*
X6398166Y15200876D01*
X6398354Y15198245D01*
X6398730Y15192982D01*
X6399294Y15187531D01*
X6400234Y15182268D01*
X6400985Y15179825D01*
X6401549Y15177570D01*
Y15177380D01*
X6401737Y15177005D01*
X6401925Y15176442D01*
X6402301Y15175877D01*
X6403241Y15173997D01*
X6404369Y15171931D01*
X6406060Y15169862D01*
X6407940Y15167982D01*
X6409068Y15167419D01*
X6410195Y15166856D01*
X6411511Y15166479D01*
X6412827Y15166292D01*
X6413203D01*
X6413955Y15166479D01*
X6415270Y15166856D01*
X6416774Y15167795D01*
X6418466Y15169112D01*
X6419405Y15170052D01*
X6420157Y15171179D01*
X6421097Y15172495D01*
X6422037Y15174187D01*
X6422789Y15175877D01*
X6423541Y15177945D01*
Y15178133D01*
X6423729Y15178510D01*
X6423917Y15179073D01*
X6424104Y15180013D01*
X6424480Y15181329D01*
X6424856Y15182832D01*
X6425232Y15184525D01*
X6425608Y15186403D01*
X6425984Y15188660D01*
X6426360Y15191103D01*
X6426736Y15193735D01*
X6427112Y15196553D01*
X6427300Y15199750D01*
X6427488Y15203133D01*
X6427676Y15206703D01*
Y15210461D01*
Y15210651D01*
Y15211401D01*
Y15212531D01*
Y15214034D01*
X6427488Y15215726D01*
Y15217793D01*
X6427300Y15220049D01*
X6427112Y15222491D01*
X6426736Y15227756D01*
X6425984Y15233205D01*
X6424856Y15238467D01*
X6424292Y15240912D01*
X6423541Y15243167D01*
Y15243355D01*
X6423353Y15243732D01*
X6423165Y15244295D01*
X6422789Y15245047D01*
X6421849Y15246927D01*
X6420721Y15248994D01*
X6419030Y15251062D01*
X6417150Y15252940D01*
X6416210Y15253693D01*
X6414894Y15254257D01*
X6413767Y15254633D01*
X6412451Y15254820D01*
D02*
G37*
%LPD*%
D10*
X5889460Y20543179D02*
D03*
X5789460D02*
D03*
Y20691180D02*
D03*
X5839460D02*
D03*
X5889460D02*
D03*
D11*
X6112800Y18554401D02*
D03*
X6177800D02*
D03*
X6242800D02*
D03*
X6307800D02*
D03*
D12*
X6210300Y18694400D02*
D03*
D13*
X6527800Y19167101D02*
D03*
Y19263100D02*
D03*
X6629400Y19167101D02*
D03*
Y19263100D02*
D03*
X6794500Y19433800D02*
D03*
Y19529800D02*
D03*
X6489700D02*
D03*
Y19433800D02*
D03*
X6692900Y19529800D02*
D03*
Y19433800D02*
D03*
X6007100Y20546320D02*
D03*
Y20642320D02*
D03*
X5276380Y20271539D02*
D03*
Y20367540D02*
D03*
X5258600Y19778780D02*
D03*
Y19874780D02*
D03*
X6289040Y21455119D02*
D03*
Y21359120D02*
D03*
X6311900Y20075900D02*
D03*
Y19979900D02*
D03*
D14*
X6489500Y19075400D02*
D03*
X6591500D02*
D03*
X6540700Y18580099D02*
D03*
X6438700D02*
D03*
X5449300Y19549921D02*
D03*
X5347300D02*
D03*
X5715600Y19829320D02*
D03*
X5817600D02*
D03*
X5715600Y19930920D02*
D03*
X5817600D02*
D03*
D15*
X6716800Y19148000D02*
D03*
X6781800D02*
D03*
X6846800D02*
D03*
Y19333000D02*
D03*
X6781800D02*
D03*
X6716800D02*
D03*
D16*
X6781800Y19240500D02*
D03*
D17*
X6896100Y19532800D02*
D03*
Y19430800D02*
D03*
X6591300Y19532800D02*
D03*
Y19430800D02*
D03*
X5902960Y21458121D02*
D03*
Y21356120D02*
D03*
X6972300Y19761400D02*
D03*
Y19659399D02*
D03*
X5814860Y20144080D02*
D03*
Y20246080D02*
D03*
X6972300Y19862601D02*
D03*
Y19964600D02*
D03*
X6438900Y18872000D02*
D03*
Y18974001D02*
D03*
X7137400Y20357899D02*
D03*
Y20459900D02*
D03*
X6438900Y18681500D02*
D03*
Y18783501D02*
D03*
D18*
X6540240Y20116800D02*
D03*
X6444240D02*
D03*
X5692400Y21844000D02*
D03*
X5788400D02*
D03*
X7450080Y21877020D02*
D03*
X7546080D02*
D03*
X5923540Y21602699D02*
D03*
X6019540D02*
D03*
X6829800Y19075400D02*
D03*
X6733800D02*
D03*
D20*
X5339700Y19929320D02*
D03*
Y19729320D02*
D03*
X5634700D02*
D03*
Y19929320D02*
D03*
D21*
X5357200Y19879320D02*
D03*
Y19829320D02*
D03*
Y19779320D02*
D03*
X5617200D02*
D03*
Y19829320D02*
D03*
Y19879320D02*
D03*
D22*
X5387200Y19681821D02*
D03*
X5587200D02*
D03*
Y19976820D02*
D03*
X5387200D02*
D03*
D23*
X5437200Y19699319D02*
D03*
X5487200D02*
D03*
X5537200D02*
D03*
Y19959320D02*
D03*
X5487200D02*
D03*
X5437200D02*
D03*
D24*
X6225540Y17670779D02*
D03*
X6405880D02*
D03*
X6802120D02*
D03*
X7039610D02*
D03*
D25*
X6725700Y20292200D02*
D03*
Y20342200D02*
D03*
X7015700D02*
D03*
Y20292200D02*
D03*
D26*
X6795700Y20412199D02*
D03*
X6845700D02*
D03*
X6895700D02*
D03*
X6945700D02*
D03*
D27*
X6910700Y20200700D02*
D03*
X6830700D02*
D03*
D28*
X6940700Y20190700D02*
D03*
X6800700D02*
D03*
D29*
X6920700Y20137199D02*
D03*
X6820700D02*
D03*
D30*
X7109460Y17993359D02*
D03*
X5631180Y22064980D02*
D03*
X7614920Y22072600D02*
D03*
D32*
X6871000Y18921800D02*
D03*
Y18871800D02*
D03*
Y18821800D02*
D03*
Y18771800D02*
D03*
X6591000D02*
D03*
Y18821800D02*
D03*
Y18871800D02*
D03*
Y18921800D02*
D03*
D33*
X6501600Y21406100D02*
D03*
X6451600D02*
D03*
X6401600D02*
D03*
Y21519901D02*
D03*
X6451600D02*
D03*
X6501600D02*
D03*
D34*
X7033260Y18280380D02*
D03*
D35*
X6802100Y19812000D02*
D03*
X6712100D02*
D03*
X6622100D02*
D03*
X6532100D02*
D03*
X6442100D02*
D03*
D36*
X6404600Y19762000D02*
D03*
Y19862000D02*
D03*
D37*
X6442100Y19952000D02*
D03*
X6492100D02*
D03*
X6542100D02*
D03*
X6592100D02*
D03*
X6642100D02*
D03*
X6692100D02*
D03*
X6742100D02*
D03*
X6792100D02*
D03*
X6842100D02*
D03*
Y19672000D02*
D03*
X6792100D02*
D03*
X6742100D02*
D03*
X6692100D02*
D03*
X6642100D02*
D03*
X6592100D02*
D03*
X6542100D02*
D03*
X6492100D02*
D03*
D38*
X6882100Y19862000D02*
D03*
Y19762000D02*
D03*
D39*
X6442100Y19672000D02*
D03*
D41*
X6601460Y17861279D02*
D03*
X6604000Y17505679D02*
D03*
D42*
X7539360Y19919330D02*
D03*
X7579360D02*
D03*
X7619360D02*
D03*
Y19765630D02*
D03*
X7579360D02*
D03*
X7539360D02*
D03*
D43*
X7628710Y19862480D02*
D03*
Y19822479D02*
D03*
X7530010D02*
D03*
Y19862480D02*
D03*
D44*
X6107980Y21401241D02*
D03*
Y21351241D02*
D03*
Y21301241D02*
D03*
X6047980D02*
D03*
Y21351241D02*
D03*
D45*
X6050480Y21401241D02*
D03*
D46*
X6985000Y21716440D02*
D03*
D47*
X7007500Y21646440D02*
D03*
X6962500D02*
D03*
D135*
X6772500Y18787300D02*
D03*
D136*
Y18906300D02*
D03*
D137*
X6689500Y18787300D02*
D03*
D138*
Y18906300D02*
D03*
%TF.MD5,e1dc269b163459f6725baf19bad7e8ed*%
M02*
