%TF.GenerationSoftware,Altium Limited,Altium Designer,25.2.1 (25)*%
G04 Layer_Physical_Order=6*
G04 Layer_Color=16776960*
%FSLAX45Y45*%
%MOMM*%
%TF.SameCoordinates,1405630C-4DB4-4800-89E6-4DE4E69AA207*%
%TF.FilePolarity,Positive*%
%TF.FileFunction,Copper,L6,Inr,Signal*%
%TF.Part,Single*%
G01*
G75*
%TA.AperFunction,ComponentPad*%
%ADD51C,0.99060*%
%ADD52C,2.54000*%
%ADD53C,1.01600*%
%ADD54C,1.27000*%
%ADD55R,1.27000X1.27000*%
%ADD56C,3.17500*%
%TA.AperFunction,ViaPad*%
%ADD57C,0.35560*%
%ADD58C,0.50800*%
G36*
X7673425Y21853932D02*
X7673587Y21853117D01*
X7676929Y21819191D01*
X7675276Y21817249D01*
X7666200Y21810374D01*
X7646523Y21818526D01*
X7620000Y21822017D01*
X7593477Y21818526D01*
X7568762Y21808289D01*
X7547538Y21792001D01*
X7531252Y21770778D01*
X7521015Y21746063D01*
X7517523Y21719540D01*
X7521015Y21693018D01*
X7531252Y21668301D01*
X7547538Y21647078D01*
X7568762Y21630792D01*
X7593477Y21620555D01*
X7620000Y21617062D01*
X7646523Y21620555D01*
X7671238Y21630792D01*
X7692462Y21647078D01*
X7708748Y21668301D01*
X7718985Y21693018D01*
X7721752Y21714035D01*
X7734114Y21719821D01*
X7734703Y21719835D01*
X7752963Y21704849D01*
X7783851Y21688341D01*
X7805517Y21681767D01*
X8067501Y19548074D01*
X8067498Y19548071D01*
X8067364Y19548055D01*
X8068568Y19541998D01*
X8064724Y19522673D01*
X8053777Y19506290D01*
X8037394Y19495343D01*
X8020017Y19491887D01*
X8018466Y19492195D01*
X7366000D01*
X7365882Y19492172D01*
X7326165Y19488260D01*
X7287862Y19476640D01*
X7252561Y19457771D01*
X7221620Y19432381D01*
X7196228Y19401439D01*
X7177359Y19366138D01*
X7165740Y19327835D01*
X7161829Y19288124D01*
X7161805Y19288005D01*
X7161804D01*
X7161804Y19288004D01*
X7161804Y19288004D01*
X7161805Y19275458D01*
Y17402014D01*
X7162153Y17400264D01*
X7158655Y17382681D01*
X7147705Y17366292D01*
X7131315Y17355341D01*
X7114149Y17351927D01*
X7112799Y17352196D01*
X6096003D01*
X6094254Y17351846D01*
X6076676Y17355344D01*
X6060291Y17366292D01*
X6049343Y17382677D01*
X6045882Y17400079D01*
X6046195Y17401656D01*
Y19288000D01*
X6046172Y19288116D01*
X6042260Y19327837D01*
X6030641Y19366139D01*
X6011773Y19401439D01*
X5986380Y19432381D01*
X5955439Y19457773D01*
X5920139Y19476640D01*
X5881836Y19488260D01*
X5842122Y19492172D01*
X5842003Y19492195D01*
X5189933D01*
X5188184Y19491847D01*
X5170606Y19495345D01*
X5154221Y19506293D01*
X5143273Y19522676D01*
X5140719Y19535516D01*
X5140558Y19547675D01*
D01*
X5141958Y19559956D01*
X5402484Y21681773D01*
X5424152Y21688345D01*
X5455039Y21704855D01*
X5473700Y21720171D01*
X5486400Y21714163D01*
Y21617940D01*
X5479104Y21608263D01*
X5474053Y21604887D01*
X5461702Y21586403D01*
X5457365Y21564600D01*
X5461702Y21542796D01*
X5474053Y21524313D01*
X5492537Y21511961D01*
X5514340Y21507625D01*
X5536143Y21511961D01*
X5554627Y21524313D01*
X5566978Y21542796D01*
X5571315Y21564600D01*
X5566978Y21586403D01*
X5554627Y21604887D01*
X5554099Y21605240D01*
X5557952Y21617940D01*
X5689600D01*
Y21821140D01*
X5540718D01*
X5532189Y21830550D01*
X5534309Y21852081D01*
X5534575Y21853413D01*
Y22125407D01*
X7673425D01*
Y21853932D01*
D02*
G37*
G36*
X6667513Y15267696D02*
X6669392Y15267320D01*
X6671836Y15266568D01*
X6674467Y15265630D01*
X6677287Y15264125D01*
X6680482Y15262057D01*
Y15247585D01*
X6680106Y15247960D01*
X6679166Y15248712D01*
X6677850Y15249840D01*
X6675971Y15251157D01*
X6673715Y15252283D01*
X6671272Y15253410D01*
X6668640Y15254163D01*
X6665821Y15254539D01*
X6665445D01*
X6664505Y15254350D01*
X6662814Y15253975D01*
X6660934Y15253223D01*
X6658867Y15252095D01*
X6656799Y15250217D01*
X6655859Y15249088D01*
X6654919Y15247585D01*
X6653980Y15246082D01*
X6653228Y15244202D01*
Y15244012D01*
X6653040Y15243637D01*
X6652852Y15243073D01*
X6652664Y15242322D01*
X6652288Y15241194D01*
X6652100Y15239690D01*
X6651724Y15237997D01*
X6651348Y15236119D01*
X6650972Y15233862D01*
X6650596Y15231419D01*
X6650408Y15228600D01*
X6650032Y15225594D01*
X6649844Y15222211D01*
X6649657Y15218451D01*
X6649469Y15214503D01*
Y15210181D01*
Y15209991D01*
Y15209241D01*
Y15207925D01*
Y15206421D01*
X6649657Y15204353D01*
Y15202286D01*
X6649844Y15199843D01*
X6650032Y15197211D01*
X6650408Y15191573D01*
X6651160Y15185934D01*
X6651536Y15183302D01*
X6652100Y15180859D01*
X6652664Y15178415D01*
X6653416Y15176347D01*
Y15176160D01*
X6653604Y15175972D01*
X6654168Y15174657D01*
X6655107Y15173152D01*
X6656611Y15171272D01*
X6658303Y15169205D01*
X6660558Y15167702D01*
X6663190Y15166386D01*
X6664693Y15166199D01*
X6666385Y15166010D01*
X6666761D01*
X6667513Y15166199D01*
X6668828Y15166386D01*
X6670708Y15166949D01*
X6672964Y15168077D01*
X6675595Y15169392D01*
X6678414Y15171461D01*
X6680106Y15172588D01*
X6681798Y15174092D01*
Y15158679D01*
X6681422Y15158492D01*
X6680294Y15157739D01*
X6678790Y15156799D01*
X6676535Y15155672D01*
X6673903Y15154356D01*
X6671084Y15153416D01*
X6667889Y15152666D01*
X6664505Y15152477D01*
X6663941D01*
X6663190Y15152666D01*
X6662062D01*
X6660934Y15152853D01*
X6659430Y15153229D01*
X6656235Y15154356D01*
X6654543Y15155109D01*
X6652664Y15156049D01*
X6650784Y15157176D01*
X6648905Y15158679D01*
X6647213Y15160371D01*
X6645333Y15162251D01*
X6643642Y15164507D01*
X6642138Y15167139D01*
Y15167326D01*
X6641762Y15167889D01*
X6641386Y15168642D01*
X6640822Y15169957D01*
X6640259Y15171461D01*
X6639695Y15173340D01*
X6638943Y15175407D01*
X6638191Y15178040D01*
X6637439Y15180859D01*
X6636687Y15184055D01*
X6636123Y15187437D01*
X6635559Y15191383D01*
X6634996Y15195520D01*
X6634620Y15199843D01*
X6634432Y15204543D01*
X6634244Y15209618D01*
Y15209991D01*
Y15210744D01*
Y15212248D01*
X6634432Y15214128D01*
Y15216383D01*
X6634620Y15219202D01*
X6634996Y15222021D01*
X6635184Y15225217D01*
X6636123Y15232172D01*
X6637627Y15239314D01*
X6639507Y15246269D01*
X6640822Y15249464D01*
X6642138Y15252470D01*
X6642326Y15252660D01*
X6642514Y15253223D01*
X6642890Y15253975D01*
X6643642Y15254915D01*
X6645333Y15257358D01*
X6647965Y15260365D01*
X6651160Y15263185D01*
X6655107Y15265630D01*
X6657363Y15266568D01*
X6659618Y15267320D01*
X6662250Y15267883D01*
X6664881Y15268073D01*
X6666197D01*
X6667513Y15267696D01*
D02*
G37*
G36*
X6321854Y15153979D02*
X6310201D01*
X6284826Y15224089D01*
X6284638D01*
Y15153979D01*
X6271481D01*
Y15266568D01*
X6282947D01*
X6308321Y15196648D01*
X6308697Y15197023D01*
Y15266568D01*
X6321854D01*
Y15153979D01*
D02*
G37*
G36*
X6251557D02*
X6239904D01*
X6214529Y15224089D01*
X6214341D01*
Y15153979D01*
X6201184D01*
Y15266568D01*
X6212649D01*
X6238024Y15196648D01*
X6238400Y15197023D01*
Y15266568D01*
X6251557D01*
Y15153979D01*
D02*
G37*
G36*
X6559436Y15253410D02*
X6537820D01*
Y15220142D01*
X6538196D01*
X6538948Y15219954D01*
X6540076Y15219579D01*
X6541767Y15219202D01*
X6543647Y15218451D01*
X6545715Y15217511D01*
X6548158Y15216383D01*
X6550414Y15214879D01*
X6552857Y15213000D01*
X6555113Y15210744D01*
X6557180Y15208113D01*
X6559060Y15205106D01*
X6560751Y15201534D01*
X6561879Y15197588D01*
X6562819Y15193076D01*
X6563007Y15188000D01*
Y15187813D01*
Y15187250D01*
Y15186497D01*
X6562819Y15185370D01*
Y15184055D01*
X6562631Y15182550D01*
X6561879Y15178979D01*
X6560939Y15175032D01*
X6559436Y15170709D01*
X6557368Y15166386D01*
X6556052Y15164317D01*
X6554549Y15162251D01*
Y15162064D01*
X6554173Y15161874D01*
X6553045Y15160559D01*
X6551165Y15159055D01*
X6548722Y15157176D01*
X6545715Y15155109D01*
X6542143Y15153604D01*
X6538008Y15152289D01*
X6535753Y15152101D01*
X6533497Y15151913D01*
X6532369D01*
X6530866Y15152101D01*
X6529174Y15152289D01*
X6527107Y15152666D01*
X6524663Y15153229D01*
X6522220Y15153979D01*
X6519588Y15154919D01*
Y15168452D01*
X6519964Y15168265D01*
X6520716Y15168077D01*
X6521844Y15167702D01*
X6523535Y15167139D01*
X6525227Y15166574D01*
X6527107Y15166199D01*
X6528986Y15166010D01*
X6530866Y15165822D01*
X6531242D01*
X6532182Y15166010D01*
X6533685Y15166199D01*
X6535377Y15166574D01*
X6537444Y15167139D01*
X6539512Y15168265D01*
X6541579Y15169582D01*
X6543459Y15171461D01*
X6543647Y15171649D01*
X6544211Y15172588D01*
X6544963Y15173904D01*
X6545903Y15175597D01*
X6546654Y15177850D01*
X6547406Y15180672D01*
X6547970Y15183865D01*
X6548158Y15187437D01*
Y15187625D01*
Y15187813D01*
Y15188940D01*
X6547970Y15190820D01*
X6547594Y15192888D01*
X6546842Y15195332D01*
X6546091Y15197775D01*
X6544775Y15200220D01*
X6543083Y15202473D01*
X6542895Y15202663D01*
X6542143Y15203413D01*
X6541016Y15204353D01*
X6539512Y15205293D01*
X6537632Y15206421D01*
X6535377Y15207173D01*
X6532557Y15207925D01*
X6529550Y15208113D01*
X6527295D01*
X6525415Y15207738D01*
X6524475Y15207549D01*
X6523723Y15207361D01*
Y15266568D01*
X6559436D01*
Y15253410D01*
D02*
G37*
G36*
X6969001Y15266380D02*
X6970128D01*
X6971632Y15266193D01*
X6974827Y15265440D01*
X6978399Y15264500D01*
X6981970Y15262997D01*
X6985541Y15260742D01*
X6987233Y15259425D01*
X6988736Y15257922D01*
X6989112Y15257545D01*
X6989488Y15256982D01*
X6989864Y15256419D01*
X6991180Y15254539D01*
X6992683Y15251907D01*
X6993999Y15248712D01*
X6995315Y15244765D01*
X6996067Y15240442D01*
X6996443Y15235367D01*
Y15235179D01*
Y15234615D01*
Y15233862D01*
X6996255Y15232736D01*
X6996067Y15231419D01*
X6995879Y15229916D01*
X6994939Y15226344D01*
X6993623Y15222398D01*
X6992683Y15220329D01*
X6991368Y15218263D01*
X6990052Y15216383D01*
X6988548Y15214503D01*
X6986669Y15212811D01*
X6984601Y15211121D01*
X6984789D01*
X6984977Y15210744D01*
X6985541Y15210368D01*
X6986105Y15209618D01*
X6986857Y15208865D01*
X6987797Y15207738D01*
X6988736Y15206233D01*
X6989864Y15204543D01*
X6991180Y15202473D01*
X6992308Y15200031D01*
X6993623Y15197211D01*
X6994939Y15194016D01*
X6996255Y15190445D01*
X6997570Y15186497D01*
X6998886Y15181985D01*
X7000014Y15177100D01*
X7005277Y15153979D01*
X6990052D01*
X6985541Y15173340D01*
Y15173528D01*
X6985353Y15174280D01*
X6985165Y15175220D01*
X6984789Y15176537D01*
X6984413Y15178227D01*
X6983849Y15180107D01*
X6982910Y15184242D01*
X6981594Y15188565D01*
X6980278Y15192888D01*
X6979526Y15194768D01*
X6978774Y15196458D01*
X6978211Y15198151D01*
X6977459Y15199278D01*
X6977271Y15199467D01*
X6976895Y15200220D01*
X6976143Y15200970D01*
X6975203Y15202098D01*
X6973887Y15203038D01*
X6972384Y15203790D01*
X6970880Y15204353D01*
X6969001D01*
Y15153979D01*
X6954528D01*
Y15266568D01*
X6967873D01*
X6969001Y15266380D01*
D02*
G37*
G36*
X6933288Y15253035D02*
X6907726D01*
Y15219389D01*
X6931221D01*
Y15205856D01*
X6907726D01*
Y15167513D01*
X6934792D01*
Y15153979D01*
X6893253D01*
Y15266568D01*
X6933288D01*
Y15253035D01*
D02*
G37*
G36*
X6848518Y15266380D02*
X6849834D01*
X6851338Y15266193D01*
X6854721Y15265440D01*
X6858668Y15264500D01*
X6862803Y15262997D01*
X6866750Y15260930D01*
X6868630Y15259615D01*
X6870510Y15258110D01*
X6870697D01*
X6870885Y15257735D01*
X6872013Y15256607D01*
X6873517Y15254727D01*
X6875208Y15252095D01*
X6876900Y15248900D01*
X6878216Y15244952D01*
X6879344Y15240442D01*
X6879532Y15237997D01*
X6879720Y15235367D01*
Y15235179D01*
Y15234802D01*
Y15233862D01*
X6879532Y15232924D01*
Y15231609D01*
X6879344Y15230292D01*
X6878592Y15226909D01*
X6877652Y15223151D01*
X6876148Y15219202D01*
X6874081Y15215443D01*
X6872765Y15213564D01*
X6871261Y15211871D01*
X6870885Y15211496D01*
X6870322Y15211121D01*
X6869758Y15210556D01*
X6867878Y15209241D01*
X6865247Y15207738D01*
X6861863Y15206046D01*
X6857916Y15204730D01*
X6853405Y15203790D01*
X6850774Y15203603D01*
X6848142Y15203413D01*
X6845135D01*
Y15153979D01*
X6830662D01*
Y15266568D01*
X6847390D01*
X6848518Y15266380D01*
D02*
G37*
G36*
X6785364D02*
X6786679D01*
X6788183Y15266193D01*
X6791566Y15265440D01*
X6795513Y15264500D01*
X6799649Y15262997D01*
X6803596Y15260930D01*
X6805475Y15259615D01*
X6807355Y15258110D01*
X6807543D01*
X6807731Y15257735D01*
X6808859Y15256607D01*
X6810362Y15254727D01*
X6812054Y15252095D01*
X6813746Y15248900D01*
X6815061Y15244952D01*
X6816189Y15240442D01*
X6816377Y15237997D01*
X6816565Y15235367D01*
Y15235179D01*
Y15234802D01*
Y15233862D01*
X6816377Y15232924D01*
Y15231609D01*
X6816189Y15230292D01*
X6815437Y15226909D01*
X6814497Y15223151D01*
X6812994Y15219202D01*
X6810926Y15215443D01*
X6809610Y15213564D01*
X6808107Y15211871D01*
X6807731Y15211496D01*
X6807167Y15211121D01*
X6806603Y15210556D01*
X6804724Y15209241D01*
X6802092Y15207738D01*
X6798709Y15206046D01*
X6794762Y15204730D01*
X6790251Y15203790D01*
X6787619Y15203603D01*
X6784988Y15203413D01*
X6781980D01*
Y15153979D01*
X6767507D01*
Y15266568D01*
X6784236D01*
X6785364Y15266380D01*
D02*
G37*
G36*
X6417526D02*
X6418654D01*
X6420157Y15266193D01*
X6423353Y15265440D01*
X6426924Y15264500D01*
X6430495Y15262997D01*
X6434066Y15260742D01*
X6435758Y15259425D01*
X6437262Y15257922D01*
X6437638Y15257545D01*
X6438014Y15256982D01*
X6438389Y15256419D01*
X6439705Y15254539D01*
X6441209Y15251907D01*
X6442525Y15248712D01*
X6443840Y15244765D01*
X6444592Y15240442D01*
X6444968Y15235367D01*
Y15235179D01*
Y15234615D01*
Y15233862D01*
X6444780Y15232736D01*
X6444592Y15231419D01*
X6444404Y15229916D01*
X6443464Y15226344D01*
X6442149Y15222398D01*
X6441209Y15220329D01*
X6439893Y15218263D01*
X6438577Y15216383D01*
X6437074Y15214503D01*
X6435194Y15212811D01*
X6433127Y15211121D01*
X6433315D01*
X6433503Y15210744D01*
X6434066Y15210368D01*
X6434630Y15209618D01*
X6435382Y15208865D01*
X6436322Y15207738D01*
X6437262Y15206233D01*
X6438389Y15204543D01*
X6439705Y15202473D01*
X6440833Y15200031D01*
X6442149Y15197211D01*
X6443464Y15194016D01*
X6444780Y15190445D01*
X6446096Y15186497D01*
X6447412Y15181985D01*
X6448539Y15177100D01*
X6453802Y15153979D01*
X6438577D01*
X6434066Y15173340D01*
Y15173528D01*
X6433878Y15174280D01*
X6433690Y15175220D01*
X6433315Y15176537D01*
X6432939Y15178227D01*
X6432375Y15180107D01*
X6431435Y15184242D01*
X6430119Y15188565D01*
X6428803Y15192888D01*
X6428052Y15194768D01*
X6427300Y15196458D01*
X6426736Y15198151D01*
X6425984Y15199278D01*
X6425796Y15199467D01*
X6425420Y15200220D01*
X6424668Y15200970D01*
X6423729Y15202098D01*
X6422413Y15203038D01*
X6420909Y15203790D01*
X6419405Y15204353D01*
X6417526D01*
Y15153979D01*
X6403053D01*
Y15266568D01*
X6416398D01*
X6417526Y15266380D01*
D02*
G37*
G36*
X6381813Y15253035D02*
X6356251D01*
Y15219389D01*
X6379746D01*
Y15205856D01*
X6356251D01*
Y15167513D01*
X6383317D01*
Y15153979D01*
X6341778D01*
Y15266568D01*
X6381813D01*
Y15253035D01*
D02*
G37*
G36*
X6181636Y15153979D02*
X6167163D01*
Y15266568D01*
X6181636D01*
Y15153979D01*
D02*
G37*
G36*
X6722397Y15267883D02*
X6723337D01*
X6724465Y15267508D01*
X6725780Y15267133D01*
X6727284Y15266756D01*
X6728976Y15266005D01*
X6730667Y15265253D01*
X6732547Y15264125D01*
X6734238Y15262810D01*
X6736118Y15261307D01*
X6737998Y15259425D01*
X6739689Y15257170D01*
X6741381Y15254727D01*
X6743073Y15251907D01*
X6743261Y15251720D01*
X6743449Y15251157D01*
X6743824Y15250217D01*
X6744388Y15248900D01*
X6744952Y15247395D01*
X6745704Y15245517D01*
X6746456Y15243262D01*
X6747208Y15240630D01*
X6747960Y15237811D01*
X6748711Y15234615D01*
X6749463Y15231232D01*
X6750027Y15227473D01*
X6750591Y15223526D01*
X6750967Y15219389D01*
X6751343Y15214879D01*
Y15210181D01*
Y15209804D01*
Y15209053D01*
Y15207549D01*
X6751155Y15205669D01*
Y15203413D01*
X6750967Y15200781D01*
X6750591Y15197775D01*
X6750215Y15194580D01*
X6749275Y15187813D01*
X6747772Y15180859D01*
X6745516Y15173904D01*
X6744200Y15170709D01*
X6742697Y15167702D01*
X6742509Y15167513D01*
X6742321Y15167139D01*
X6741757Y15166386D01*
X6741193Y15165257D01*
X6739313Y15162814D01*
X6736682Y15160184D01*
X6733675Y15157364D01*
X6729915Y15154919D01*
X6727848Y15153979D01*
X6725780Y15153229D01*
X6723525Y15152666D01*
X6721081Y15152477D01*
X6720517D01*
X6719766Y15152666D01*
X6718826D01*
X6717698Y15153041D01*
X6716382Y15153229D01*
X6713375Y15154356D01*
X6711683Y15155296D01*
X6709992Y15156236D01*
X6708112Y15157552D01*
X6706232Y15159055D01*
X6704353Y15160747D01*
X6702661Y15162814D01*
X6700970Y15165257D01*
X6699278Y15167889D01*
Y15168077D01*
X6698902Y15168642D01*
X6698526Y15169582D01*
X6697962Y15170709D01*
X6697398Y15172212D01*
X6696646Y15174280D01*
X6695895Y15176347D01*
X6695143Y15178979D01*
X6694391Y15181798D01*
X6693639Y15184995D01*
X6692887Y15188377D01*
X6692323Y15192323D01*
X6691760Y15196271D01*
X6691384Y15200594D01*
X6691196Y15205293D01*
X6691008Y15210181D01*
Y15210556D01*
Y15211308D01*
Y15212624D01*
X6691196Y15214316D01*
Y15216571D01*
X6691384Y15219016D01*
X6691760Y15221834D01*
X6691948Y15224841D01*
X6692511Y15228036D01*
X6692887Y15231419D01*
X6694391Y15238374D01*
X6696271Y15245329D01*
X6697586Y15248524D01*
X6698902Y15251720D01*
X6699090Y15251907D01*
X6699278Y15252470D01*
X6699654Y15253223D01*
X6700406Y15254350D01*
X6701158Y15255479D01*
X6702097Y15256982D01*
X6704729Y15259990D01*
X6707736Y15262997D01*
X6709616Y15264313D01*
X6711683Y15265440D01*
X6713751Y15266568D01*
X6716006Y15267320D01*
X6718450Y15267883D01*
X6721081Y15268073D01*
X6721645D01*
X6722397Y15267883D01*
D02*
G37*
%LPC*%
G36*
X7366000Y21809207D02*
X7342793Y21806152D01*
X7323359Y21798102D01*
X7366000Y21755461D01*
X7408641Y21798102D01*
X7389207Y21806152D01*
X7366000Y21809207D01*
D02*
G37*
G36*
X5842000D02*
X5818793Y21806152D01*
X5799359Y21798102D01*
X5842000Y21755461D01*
X5884641Y21798102D01*
X5865207Y21806152D01*
X5842000Y21809207D01*
D02*
G37*
G36*
X7444562Y21762181D02*
X7401921Y21719540D01*
X7444562Y21676900D01*
X7452612Y21696333D01*
X7455667Y21719540D01*
X7452612Y21742747D01*
X7444562Y21762181D01*
D02*
G37*
G36*
X5920562D02*
X5877921Y21719540D01*
X5920562Y21676900D01*
X5928612Y21696333D01*
X5931667Y21719540D01*
X5928612Y21742747D01*
X5920562Y21762181D01*
D02*
G37*
G36*
X7287438D02*
X7279388Y21742747D01*
X7276333Y21719540D01*
X7279388Y21696333D01*
X7287438Y21676900D01*
X7330079Y21719540D01*
X7287438Y21762181D01*
D02*
G37*
G36*
X5763438D02*
X5755388Y21742747D01*
X5752333Y21719540D01*
X5755388Y21696333D01*
X5763438Y21676900D01*
X5806079Y21719540D01*
X5763438Y21762181D01*
D02*
G37*
G36*
X7366000Y21683620D02*
X7323359Y21640977D01*
X7342793Y21632928D01*
X7366000Y21629874D01*
X7389207Y21632928D01*
X7408641Y21640977D01*
X7366000Y21683620D01*
D02*
G37*
G36*
X5842000D02*
X5799359Y21640977D01*
X5818793Y21632928D01*
X5842000Y21629874D01*
X5865207Y21632928D01*
X5884641Y21640977D01*
X5842000Y21683620D01*
D02*
G37*
G36*
X7112000Y21822017D02*
X7085477Y21818526D01*
X7060762Y21808289D01*
X7039538Y21792001D01*
X7023252Y21770778D01*
X7013015Y21746063D01*
X7009523Y21719540D01*
X7013015Y21693018D01*
X7023252Y21668301D01*
X7039538Y21647078D01*
X7060762Y21630792D01*
X7085477Y21620555D01*
X7112000Y21617062D01*
X7138523Y21620555D01*
X7163238Y21630792D01*
X7184462Y21647078D01*
X7200748Y21668301D01*
X7210985Y21693018D01*
X7214477Y21719540D01*
X7210985Y21746063D01*
X7200748Y21770778D01*
X7184462Y21792001D01*
X7163238Y21808289D01*
X7138523Y21818526D01*
X7112000Y21822017D01*
D02*
G37*
G36*
X6858000D02*
X6831477Y21818526D01*
X6806762Y21808289D01*
X6785538Y21792001D01*
X6769252Y21770778D01*
X6759015Y21746063D01*
X6755523Y21719540D01*
X6759015Y21693018D01*
X6769252Y21668301D01*
X6785538Y21647078D01*
X6806762Y21630792D01*
X6831477Y21620555D01*
X6858000Y21617062D01*
X6884523Y21620555D01*
X6909238Y21630792D01*
X6930462Y21647078D01*
X6946748Y21668301D01*
X6956985Y21693018D01*
X6960477Y21719540D01*
X6956985Y21746063D01*
X6946748Y21770778D01*
X6930462Y21792001D01*
X6909238Y21808289D01*
X6884523Y21818526D01*
X6858000Y21822017D01*
D02*
G37*
G36*
X6604000D02*
X6577477Y21818526D01*
X6552762Y21808289D01*
X6531538Y21792001D01*
X6515252Y21770778D01*
X6505015Y21746063D01*
X6501523Y21719540D01*
X6505015Y21693018D01*
X6515252Y21668301D01*
X6531538Y21647078D01*
X6552762Y21630792D01*
X6577477Y21620555D01*
X6604000Y21617062D01*
X6630523Y21620555D01*
X6655238Y21630792D01*
X6676462Y21647078D01*
X6692748Y21668301D01*
X6702985Y21693018D01*
X6706477Y21719540D01*
X6702985Y21746063D01*
X6692748Y21770778D01*
X6676462Y21792001D01*
X6655238Y21808289D01*
X6630523Y21818526D01*
X6604000Y21822017D01*
D02*
G37*
G36*
X6350000D02*
X6323477Y21818526D01*
X6298762Y21808289D01*
X6277538Y21792001D01*
X6261252Y21770778D01*
X6251015Y21746063D01*
X6247523Y21719540D01*
X6251015Y21693018D01*
X6261252Y21668301D01*
X6277538Y21647078D01*
X6298762Y21630792D01*
X6323477Y21620555D01*
X6350000Y21617062D01*
X6376523Y21620555D01*
X6401238Y21630792D01*
X6422462Y21647078D01*
X6438748Y21668301D01*
X6448985Y21693018D01*
X6452477Y21719540D01*
X6448985Y21746063D01*
X6438748Y21770778D01*
X6422462Y21792001D01*
X6401238Y21808289D01*
X6376523Y21818526D01*
X6350000Y21822017D01*
D02*
G37*
G36*
X6096000D02*
X6069477Y21818526D01*
X6044762Y21808289D01*
X6023538Y21792001D01*
X6007252Y21770778D01*
X5997015Y21746063D01*
X5993523Y21719540D01*
X5997015Y21693018D01*
X6007252Y21668301D01*
X6023538Y21647078D01*
X6044762Y21630792D01*
X6069477Y21620555D01*
X6096000Y21617062D01*
X6122523Y21620555D01*
X6147238Y21630792D01*
X6168462Y21647078D01*
X6184748Y21668301D01*
X6194985Y21693018D01*
X6198477Y21719540D01*
X6194985Y21746063D01*
X6184748Y21770778D01*
X6168462Y21792001D01*
X6147238Y21808289D01*
X6122523Y21818526D01*
X6096000Y21822017D01*
D02*
G37*
G36*
X6794500Y21426144D02*
X6769724Y21421216D01*
X6756400Y21412312D01*
X6743076Y21421216D01*
X6718300Y21426144D01*
X6693524Y21421216D01*
X6680200Y21412312D01*
X6666876Y21421216D01*
X6642100Y21426144D01*
X6617324Y21421216D01*
X6596319Y21407181D01*
X6582284Y21386176D01*
X6579361Y21371483D01*
X6571883Y21369048D01*
X6565743Y21368115D01*
X6548333Y21379749D01*
X6526530Y21384085D01*
X6504727Y21379749D01*
X6488115Y21368648D01*
X6473403Y21378477D01*
X6451600Y21382816D01*
X6429797Y21378477D01*
X6411313Y21366127D01*
X6398962Y21347643D01*
X6394625Y21325841D01*
X6398962Y21304037D01*
X6411313Y21285553D01*
X6429797Y21273203D01*
X6451600Y21268864D01*
X6473403Y21273203D01*
X6490015Y21284302D01*
X6504727Y21274472D01*
X6526530Y21270135D01*
X6548333Y21274472D01*
X6566817Y21286823D01*
X6579168Y21305307D01*
X6581179Y21315417D01*
X6594661Y21318100D01*
X6596319Y21315619D01*
X6617324Y21301584D01*
X6642100Y21296655D01*
X6666876Y21301584D01*
X6680200Y21310487D01*
X6693524Y21301584D01*
X6718300Y21296655D01*
X6743076Y21301584D01*
X6756400Y21310487D01*
X6769724Y21301584D01*
X6794500Y21296655D01*
X6819276Y21301584D01*
X6840281Y21315619D01*
X6854316Y21336624D01*
X6859244Y21361400D01*
X6854316Y21386176D01*
X6840281Y21407181D01*
X6819276Y21421216D01*
X6794500Y21426144D01*
D02*
G37*
G36*
X7670800D02*
X7646024Y21421216D01*
X7632700Y21412312D01*
X7619376Y21421216D01*
X7594600Y21426144D01*
X7569824Y21421216D01*
X7556500Y21412312D01*
X7543176Y21421216D01*
X7518400Y21426144D01*
X7493624Y21421216D01*
X7480300Y21412312D01*
X7466976Y21421216D01*
X7442200Y21426144D01*
X7417424Y21421216D01*
X7404100Y21412312D01*
X7390776Y21421216D01*
X7366000Y21426144D01*
X7341224Y21421216D01*
X7320219Y21407181D01*
X7306184Y21386176D01*
X7301256Y21361400D01*
X7306184Y21336624D01*
X7320219Y21315619D01*
X7341224Y21301584D01*
X7366000Y21296655D01*
X7390776Y21301584D01*
X7404100Y21310487D01*
X7417424Y21301584D01*
X7442200Y21296655D01*
X7466976Y21301584D01*
X7480300Y21310487D01*
X7493624Y21301584D01*
X7518400Y21296655D01*
X7543176Y21301584D01*
X7556500Y21310487D01*
X7569824Y21301584D01*
X7594600Y21296655D01*
X7619376Y21301584D01*
X7632700Y21310487D01*
X7646024Y21301584D01*
X7670800Y21296655D01*
X7695576Y21301584D01*
X7716581Y21315619D01*
X7730616Y21336624D01*
X7735544Y21361400D01*
X7730616Y21386176D01*
X7716581Y21407181D01*
X7695576Y21421216D01*
X7670800Y21426144D01*
D02*
G37*
G36*
X5638800Y21553143D02*
X5614024Y21548216D01*
X5593019Y21534181D01*
X5578984Y21513176D01*
X5574056Y21488400D01*
X5578984Y21463625D01*
X5587887Y21450301D01*
X5578984Y21436977D01*
X5574056Y21412199D01*
X5578984Y21387424D01*
X5593019Y21366418D01*
X5614024Y21352383D01*
X5638800Y21347456D01*
X5663576Y21352383D01*
X5684581Y21366418D01*
X5698616Y21387424D01*
X5703544Y21412199D01*
X5698616Y21436977D01*
X5689713Y21450301D01*
X5698616Y21463625D01*
X5703544Y21488400D01*
X5698616Y21513176D01*
X5684581Y21534181D01*
X5663576Y21548216D01*
X5638800Y21553143D01*
D02*
G37*
G36*
X5768340Y21428535D02*
X5746537Y21424197D01*
X5728053Y21411847D01*
X5715702Y21393362D01*
X5711365Y21371561D01*
X5715702Y21349757D01*
X5728053Y21331273D01*
X5746537Y21318922D01*
X5768340Y21314584D01*
X5790143Y21318922D01*
X5808627Y21331273D01*
X5820978Y21349757D01*
X5825315Y21371561D01*
X5820978Y21393362D01*
X5808627Y21411847D01*
X5790143Y21424197D01*
X5768340Y21428535D01*
D02*
G37*
G36*
X6212840D02*
X6191037Y21424197D01*
X6172553Y21411847D01*
X6160202Y21393362D01*
X6156468Y21374593D01*
X6137697Y21370857D01*
X6119213Y21358507D01*
X6106862Y21340022D01*
X6102525Y21318221D01*
X6106862Y21296417D01*
X6119213Y21277933D01*
X6137697Y21265582D01*
X6159500Y21261246D01*
X6181303Y21265582D01*
X6199787Y21277933D01*
X6212138Y21296417D01*
X6215872Y21315189D01*
X6234643Y21318922D01*
X6253127Y21331273D01*
X6265478Y21349757D01*
X6269815Y21371561D01*
X6265478Y21393362D01*
X6253127Y21411847D01*
X6234643Y21424197D01*
X6212840Y21428535D01*
D02*
G37*
G36*
X6017260Y21367575D02*
X5995457Y21363239D01*
X5976973Y21350887D01*
X5964622Y21332404D01*
X5960285Y21310600D01*
X5964622Y21288797D01*
X5976973Y21270312D01*
X5995457Y21257962D01*
X6017260Y21253625D01*
X6039063Y21257962D01*
X6057547Y21270312D01*
X6069898Y21288797D01*
X6074235Y21310600D01*
X6069898Y21332404D01*
X6057547Y21350887D01*
X6039063Y21363239D01*
X6017260Y21367575D01*
D02*
G37*
G36*
X6604000Y21171960D02*
X6550193Y21167726D01*
X6497710Y21155125D01*
X6447845Y21134471D01*
X6401825Y21106270D01*
X6360783Y21071217D01*
X6325730Y21030174D01*
X6297529Y20984155D01*
X6276874Y20934290D01*
X6264274Y20881807D01*
X6260363Y20832109D01*
X6247578Y20828384D01*
X6237887Y20842886D01*
X6219403Y20855238D01*
X6197600Y20859575D01*
X6175797Y20855238D01*
X6172200Y20852835D01*
X6168603Y20855238D01*
X6146800Y20859575D01*
X6124997Y20855238D01*
X6106513Y20842886D01*
X6094162Y20824403D01*
X6089825Y20802600D01*
X6094162Y20780797D01*
X6096565Y20777200D01*
X6094162Y20773602D01*
X6089825Y20751801D01*
X6094162Y20729997D01*
X6106513Y20711513D01*
X6124997Y20699162D01*
X6146800Y20694826D01*
X6168603Y20699162D01*
X6172200Y20701566D01*
X6175797Y20699162D01*
X6197600Y20694826D01*
X6219403Y20699162D01*
X6237887Y20711513D01*
X6250238Y20729997D01*
X6254575Y20751801D01*
X6250780Y20770877D01*
X6251856Y20772720D01*
X6254161Y20772995D01*
X6265191Y20770377D01*
X6276874Y20721710D01*
X6297529Y20671844D01*
X6325730Y20625826D01*
X6360783Y20584782D01*
X6401825Y20549730D01*
X6447845Y20521529D01*
X6497710Y20500874D01*
X6550193Y20488274D01*
X6604000Y20484039D01*
X6657807Y20488274D01*
X6710290Y20500874D01*
X6760155Y20521529D01*
X6806175Y20549730D01*
X6847217Y20584782D01*
X6882270Y20625826D01*
X6910471Y20671844D01*
X6931126Y20721710D01*
X6942809Y20770377D01*
X6953839Y20772995D01*
X6956144Y20772720D01*
X6957220Y20770877D01*
X6953425Y20751801D01*
X6957762Y20729997D01*
X6970113Y20711513D01*
X6988597Y20699162D01*
X7010400Y20694826D01*
X7032203Y20699162D01*
X7035800Y20701566D01*
X7039397Y20699162D01*
X7061200Y20694826D01*
X7083003Y20699162D01*
X7101487Y20711513D01*
X7113838Y20729997D01*
X7118175Y20751801D01*
X7113838Y20773602D01*
X7111435Y20777200D01*
X7113838Y20780797D01*
X7118175Y20802600D01*
X7113838Y20824403D01*
X7101487Y20842886D01*
X7083003Y20855238D01*
X7061200Y20859575D01*
X7039397Y20855238D01*
X7035800Y20852835D01*
X7032203Y20855238D01*
X7010400Y20859575D01*
X6988597Y20855238D01*
X6970113Y20842886D01*
X6960422Y20828384D01*
X6947637Y20832109D01*
X6943726Y20881807D01*
X6931126Y20934290D01*
X6910471Y20984155D01*
X6882270Y21030174D01*
X6847217Y21071217D01*
X6806175Y21106270D01*
X6760155Y21134471D01*
X6710290Y21155125D01*
X6657807Y21167726D01*
X6604000Y21171960D01*
D02*
G37*
G36*
X7556500Y21155344D02*
X7517911Y21151543D01*
X7480804Y21140286D01*
X7446607Y21122008D01*
X7416633Y21097408D01*
X7392033Y21067433D01*
X7373754Y21033237D01*
X7362498Y20996129D01*
X7358697Y20957539D01*
X7362498Y20918951D01*
X7373754Y20881844D01*
X7392033Y20847647D01*
X7416633Y20817673D01*
X7446607Y20793073D01*
X7480804Y20774794D01*
X7517911Y20763538D01*
X7556500Y20759737D01*
X7595089Y20763538D01*
X7632196Y20774794D01*
X7666393Y20793073D01*
X7696367Y20817673D01*
X7720967Y20847647D01*
X7739246Y20881844D01*
X7750502Y20918951D01*
X7754303Y20957539D01*
X7750502Y20996129D01*
X7739246Y21033237D01*
X7720967Y21067433D01*
X7696367Y21097408D01*
X7666393Y21122008D01*
X7632196Y21140286D01*
X7595089Y21151543D01*
X7556500Y21155344D01*
D02*
G37*
G36*
X5651500D02*
X5612911Y21151543D01*
X5575804Y21140286D01*
X5541607Y21122008D01*
X5511633Y21097408D01*
X5487033Y21067433D01*
X5468754Y21033237D01*
X5457498Y20996129D01*
X5453697Y20957539D01*
X5457498Y20918951D01*
X5468754Y20881844D01*
X5487033Y20847647D01*
X5511633Y20817673D01*
X5537644Y20796326D01*
X5538143Y20791847D01*
X5537133Y20783881D01*
X5536045Y20781647D01*
X5520573Y20771307D01*
X5508222Y20752823D01*
X5503885Y20731020D01*
X5506972Y20715503D01*
X5503326Y20704755D01*
X5498729Y20700565D01*
X5481107Y20693265D01*
X5462802Y20679218D01*
X5448755Y20660913D01*
X5439926Y20639597D01*
X5436914Y20616721D01*
X5439926Y20593845D01*
X5448755Y20572527D01*
X5462802Y20554222D01*
X5481107Y20540175D01*
X5502424Y20531346D01*
X5525300Y20528334D01*
X5548176Y20531346D01*
X5569493Y20540175D01*
X5587799Y20554222D01*
X5601845Y20572527D01*
X5610675Y20593845D01*
X5613686Y20616721D01*
X5610675Y20639597D01*
X5601845Y20660913D01*
X5594230Y20670836D01*
X5596593Y20687691D01*
X5601147Y20690733D01*
X5613498Y20709216D01*
X5617835Y20731020D01*
X5613925Y20750677D01*
X5618394Y20758321D01*
X5622226Y20762621D01*
X5651500Y20759737D01*
X5690089Y20763538D01*
X5727196Y20774794D01*
X5761393Y20793073D01*
X5791367Y20817673D01*
X5815967Y20847647D01*
X5834246Y20881844D01*
X5845502Y20918951D01*
X5849303Y20957539D01*
X5845502Y20996129D01*
X5834246Y21033237D01*
X5815967Y21067433D01*
X5791367Y21097408D01*
X5761393Y21122008D01*
X5727196Y21140286D01*
X5690089Y21151543D01*
X5651500Y21155344D01*
D02*
G37*
G36*
X5834380Y20798615D02*
X5812577Y20794278D01*
X5794093Y20781927D01*
X5781742Y20763443D01*
X5777405Y20741640D01*
X5781742Y20719836D01*
X5794093Y20701353D01*
X5812577Y20689001D01*
X5834380Y20684665D01*
X5834509Y20684691D01*
X5837622Y20669037D01*
X5849973Y20650552D01*
X5868457Y20638202D01*
X5890260Y20633865D01*
X5912063Y20638202D01*
X5930547Y20650552D01*
X5942898Y20669037D01*
X5947235Y20690840D01*
X5942898Y20712643D01*
X5930547Y20731126D01*
X5912063Y20743478D01*
X5890260Y20747815D01*
X5890131Y20747789D01*
X5887018Y20763443D01*
X5874667Y20781927D01*
X5856183Y20794278D01*
X5834380Y20798615D01*
D02*
G37*
G36*
X5789460Y20600156D02*
X5767657Y20595818D01*
X5749173Y20583467D01*
X5736822Y20564983D01*
X5732485Y20543179D01*
X5736822Y20521378D01*
X5749173Y20502893D01*
X5767657Y20490543D01*
X5789460Y20486205D01*
X5811263Y20490543D01*
X5829747Y20502893D01*
X5842098Y20521378D01*
X5846435Y20543179D01*
X5842098Y20564983D01*
X5829747Y20583467D01*
X5811263Y20595818D01*
X5789460Y20600156D01*
D02*
G37*
G36*
X5951220Y20506516D02*
X5929417Y20502177D01*
X5910933Y20489827D01*
X5898582Y20471342D01*
X5894245Y20449541D01*
X5898582Y20427737D01*
X5910933Y20409253D01*
X5929417Y20396902D01*
X5951220Y20392564D01*
X5973023Y20396902D01*
X5991507Y20409253D01*
X6003858Y20427737D01*
X6008195Y20449541D01*
X6003858Y20471342D01*
X5991507Y20489827D01*
X5973023Y20502177D01*
X5951220Y20506516D01*
D02*
G37*
G36*
X7137400Y20516875D02*
X7115597Y20512538D01*
X7097113Y20500188D01*
X7084762Y20481703D01*
X7080425Y20459900D01*
X7084762Y20438097D01*
X7097113Y20419614D01*
X7105393Y20414079D01*
Y20401379D01*
X7097113Y20395847D01*
X7084762Y20377364D01*
X7080425Y20355560D01*
X7084762Y20333757D01*
X7097113Y20315273D01*
X7115597Y20302922D01*
X7137400Y20298586D01*
X7159203Y20302922D01*
X7177687Y20315273D01*
X7190038Y20333757D01*
X7194375Y20355560D01*
X7190038Y20377364D01*
X7177687Y20395847D01*
X7169407Y20401379D01*
Y20414079D01*
X7177687Y20419614D01*
X7190038Y20438097D01*
X7194375Y20459900D01*
X7190038Y20481703D01*
X7177687Y20500188D01*
X7159203Y20512538D01*
X7137400Y20516875D01*
D02*
G37*
G36*
X6662420Y20399835D02*
X6640617Y20395499D01*
X6622133Y20383147D01*
X6609782Y20364664D01*
X6605445Y20342860D01*
X6609782Y20321057D01*
X6622133Y20302573D01*
X6640617Y20290222D01*
X6662420Y20285886D01*
X6684223Y20290222D01*
X6702707Y20302573D01*
X6715058Y20321057D01*
X6719395Y20342860D01*
X6715058Y20364664D01*
X6702707Y20383147D01*
X6684223Y20395499D01*
X6662420Y20399835D01*
D02*
G37*
G36*
X6835400Y20349036D02*
X6813597Y20344698D01*
X6795113Y20332347D01*
X6782762Y20313863D01*
X6778425Y20292059D01*
X6782762Y20270258D01*
X6795113Y20251773D01*
X6813597Y20239423D01*
X6835400Y20235085D01*
X6857203Y20239423D01*
X6875687Y20251773D01*
X6888038Y20270258D01*
X6892375Y20292059D01*
X6888038Y20313863D01*
X6875687Y20332347D01*
X6857203Y20344698D01*
X6835400Y20349036D01*
D02*
G37*
G36*
X6179820Y20214415D02*
X6158017Y20210078D01*
X6139533Y20197726D01*
X6127182Y20179243D01*
X6122845Y20157440D01*
X6127182Y20135637D01*
X6139533Y20117152D01*
X6158017Y20104802D01*
X6179820Y20100465D01*
X6201623Y20104802D01*
X6220107Y20117152D01*
X6232458Y20135637D01*
X6236795Y20157440D01*
X6232458Y20179243D01*
X6220107Y20197726D01*
X6201623Y20210078D01*
X6179820Y20214415D01*
D02*
G37*
G36*
X6934200Y20206944D02*
X6909424Y20202016D01*
X6888419Y20187981D01*
X6874384Y20166975D01*
X6869456Y20142200D01*
X6874384Y20117424D01*
X6888419Y20096419D01*
X6909424Y20082384D01*
X6934200Y20077457D01*
X6958976Y20082384D01*
X6979981Y20096419D01*
X6994016Y20117424D01*
X6998944Y20142200D01*
X6994016Y20166975D01*
X6979981Y20187981D01*
X6958976Y20202016D01*
X6934200Y20206944D01*
D02*
G37*
G36*
X5626900Y20197105D02*
X5604024Y20194093D01*
X5582707Y20185265D01*
X5564402Y20171217D01*
X5550355Y20152913D01*
X5541526Y20131596D01*
X5538514Y20108720D01*
X5541526Y20085844D01*
X5541728Y20085355D01*
X5531469Y20076935D01*
X5519163Y20085158D01*
X5509244Y20087131D01*
X5512086Y20108720D01*
X5509075Y20131596D01*
X5500245Y20152913D01*
X5486199Y20171217D01*
X5467893Y20185265D01*
X5446576Y20194093D01*
X5423700Y20197105D01*
X5400824Y20194093D01*
X5379507Y20185265D01*
X5361202Y20171217D01*
X5347155Y20152913D01*
X5338326Y20131596D01*
X5335314Y20108720D01*
X5338326Y20085844D01*
X5347155Y20064526D01*
X5361202Y20046222D01*
X5379507Y20032175D01*
X5400824Y20023346D01*
X5423700Y20020334D01*
X5442322Y20022784D01*
X5444722Y20010716D01*
X5457073Y19992233D01*
X5475557Y19979881D01*
X5497360Y19975545D01*
X5519163Y19979881D01*
X5537647Y19992233D01*
X5549998Y20010716D01*
X5554335Y20032520D01*
X5552735Y20040564D01*
X5563901Y20045978D01*
X5564587Y20046080D01*
X5582707Y20032175D01*
X5604024Y20023346D01*
X5626900Y20020334D01*
X5649776Y20023346D01*
X5671093Y20032175D01*
X5689399Y20046222D01*
X5703445Y20064526D01*
X5712275Y20085844D01*
X5715286Y20108720D01*
X5712275Y20131596D01*
X5703445Y20152913D01*
X5689399Y20171217D01*
X5671093Y20185265D01*
X5649776Y20194093D01*
X5626900Y20197105D01*
D02*
G37*
G36*
X7579360Y20026456D02*
X7557557Y20022118D01*
X7539073Y20009767D01*
X7526722Y19991283D01*
X7522385Y19969479D01*
X7524673Y19957980D01*
X7513243Y19950343D01*
X7512263Y19950998D01*
X7490460Y19955334D01*
X7468657Y19950998D01*
X7450173Y19938647D01*
X7437822Y19920163D01*
X7433485Y19898360D01*
X7437822Y19876556D01*
X7450173Y19858073D01*
X7468657Y19845721D01*
X7490460Y19841385D01*
X7512263Y19845721D01*
X7530747Y19858073D01*
X7543098Y19876556D01*
X7547435Y19898360D01*
X7545147Y19909860D01*
X7556577Y19917497D01*
X7557557Y19916843D01*
X7579360Y19912505D01*
X7601163Y19916843D01*
X7601560Y19917107D01*
X7612990Y19909470D01*
X7611285Y19900900D01*
X7615622Y19879097D01*
X7627973Y19860612D01*
X7646457Y19848262D01*
X7668260Y19843925D01*
X7690063Y19848262D01*
X7708547Y19860612D01*
X7720898Y19879097D01*
X7725235Y19900900D01*
X7720898Y19922704D01*
X7708547Y19941187D01*
X7690063Y19953539D01*
X7668260Y19957875D01*
X7646457Y19953539D01*
X7646060Y19953273D01*
X7634630Y19960910D01*
X7636335Y19969479D01*
X7631998Y19991283D01*
X7619647Y20009767D01*
X7601163Y20022118D01*
X7579360Y20026456D01*
D02*
G37*
G36*
X6273800Y19940244D02*
X6249024Y19935316D01*
X6242050Y19930656D01*
X6235076Y19935316D01*
X6210300Y19940244D01*
X6185524Y19935316D01*
X6164519Y19921281D01*
X6150484Y19900276D01*
X6145556Y19875500D01*
X6150484Y19850723D01*
X6155144Y19843750D01*
X6150484Y19836777D01*
X6145556Y19812000D01*
X6150484Y19787224D01*
X6155144Y19780251D01*
X6150484Y19773276D01*
X6145556Y19748500D01*
X6150484Y19723724D01*
X6164519Y19702719D01*
X6185524Y19688684D01*
X6210300Y19683755D01*
X6235076Y19688684D01*
X6242050Y19693344D01*
X6249024Y19688684D01*
X6273800Y19683755D01*
X6298576Y19688684D01*
X6319581Y19702719D01*
X6333616Y19723724D01*
X6338544Y19748500D01*
X6333616Y19773276D01*
X6328956Y19780251D01*
X6333616Y19787224D01*
X6338544Y19812000D01*
X6333616Y19836777D01*
X6328956Y19843750D01*
X6333616Y19850723D01*
X6338544Y19875500D01*
X6333616Y19900276D01*
X6319581Y19921281D01*
X6298576Y19935316D01*
X6273800Y19940244D01*
D02*
G37*
G36*
X7792720Y20008675D02*
X7770917Y20004338D01*
X7752433Y19991988D01*
X7740082Y19973503D01*
X7735745Y19951700D01*
X7740082Y19929897D01*
X7752433Y19911414D01*
X7770917Y19899062D01*
X7792720Y19894725D01*
X7814523Y19899062D01*
X7833007Y19911414D01*
X7845358Y19929897D01*
X7849695Y19951700D01*
X7845358Y19973503D01*
X7833007Y19991988D01*
X7814523Y20004338D01*
X7792720Y20008675D01*
D02*
G37*
G36*
X5778500Y19952795D02*
X5756697Y19948457D01*
X5738213Y19936107D01*
X5725862Y19917622D01*
X5721525Y19895821D01*
X5725862Y19874017D01*
X5738213Y19855533D01*
X5756697Y19843182D01*
X5764682Y19841594D01*
X5766272Y19832442D01*
X5765859Y19828410D01*
X5748373Y19816727D01*
X5736022Y19798244D01*
X5732754Y19781815D01*
X5731040Y19782155D01*
X5709237Y19777818D01*
X5690753Y19765466D01*
X5678402Y19746983D01*
X5674065Y19725180D01*
X5678402Y19703377D01*
X5687724Y19689426D01*
X5684225Y19671840D01*
X5688562Y19650037D01*
X5700913Y19631554D01*
X5719397Y19619202D01*
X5741200Y19614865D01*
X5763003Y19619202D01*
X5781487Y19631554D01*
X5793838Y19650037D01*
X5798175Y19671840D01*
X5793838Y19693643D01*
X5784712Y19707301D01*
X5787533Y19719688D01*
X5788660Y19719466D01*
X5810463Y19723802D01*
X5828947Y19736153D01*
X5841298Y19754637D01*
X5845635Y19776440D01*
X5841298Y19798244D01*
X5828947Y19816727D01*
X5810463Y19829079D01*
X5802478Y19830666D01*
X5800888Y19839818D01*
X5801301Y19843849D01*
X5818787Y19855533D01*
X5831138Y19874017D01*
X5835475Y19895821D01*
X5831138Y19917622D01*
X5818787Y19936107D01*
X5800303Y19948457D01*
X5778500Y19952795D01*
D02*
G37*
G36*
X7632700Y19752135D02*
X7610897Y19747798D01*
X7592413Y19735448D01*
X7586980Y19727316D01*
X7574280D01*
X7568847Y19735448D01*
X7550363Y19747798D01*
X7528560Y19752135D01*
X7506757Y19747798D01*
X7488273Y19735448D01*
X7475922Y19716963D01*
X7471585Y19695160D01*
X7475922Y19673357D01*
X7488273Y19654874D01*
X7506757Y19642522D01*
X7528560Y19638185D01*
X7550363Y19642522D01*
X7568847Y19654874D01*
X7574280Y19663004D01*
X7586980D01*
X7592413Y19654874D01*
X7610897Y19642522D01*
X7632700Y19638185D01*
X7654503Y19642522D01*
X7672987Y19654874D01*
X7685338Y19673357D01*
X7689675Y19695160D01*
X7685338Y19716963D01*
X7672987Y19735448D01*
X7654503Y19747798D01*
X7632700Y19752135D01*
D02*
G37*
G36*
X5387340Y19937555D02*
X5365537Y19933218D01*
X5347053Y19920866D01*
X5334702Y19902383D01*
X5330365Y19880580D01*
X5334702Y19858777D01*
X5347053Y19840292D01*
X5354527Y19835300D01*
Y19820024D01*
X5349593Y19816727D01*
X5337242Y19798244D01*
X5332905Y19776440D01*
X5337242Y19754637D01*
X5349593Y19736153D01*
X5368077Y19723802D01*
X5381545Y19721123D01*
X5382962Y19713997D01*
X5395313Y19695512D01*
X5406702Y19687903D01*
Y19672627D01*
X5401193Y19668947D01*
X5388842Y19650462D01*
X5384505Y19628661D01*
X5388842Y19606857D01*
X5401193Y19588373D01*
X5419677Y19576022D01*
X5441480Y19571684D01*
X5450115Y19573402D01*
X5451993Y19570593D01*
X5470477Y19558241D01*
X5492280Y19553905D01*
X5513623Y19558151D01*
X5515493Y19555353D01*
X5533977Y19543002D01*
X5555780Y19538664D01*
X5577583Y19543002D01*
X5588791Y19550491D01*
X5592397Y19548082D01*
X5614200Y19543745D01*
X5636003Y19548082D01*
X5654487Y19560432D01*
X5666838Y19578917D01*
X5671175Y19600720D01*
X5666838Y19622523D01*
X5654487Y19641006D01*
X5636003Y19653358D01*
X5614200Y19657695D01*
X5592397Y19653358D01*
X5581189Y19645869D01*
X5577583Y19648277D01*
X5555780Y19652615D01*
X5534437Y19648369D01*
X5532567Y19651167D01*
X5514083Y19663518D01*
X5492280Y19667854D01*
X5483645Y19666138D01*
X5481767Y19668947D01*
X5470378Y19676556D01*
Y19691832D01*
X5475887Y19695512D01*
X5488238Y19713997D01*
X5489151Y19718585D01*
X5509260Y19714584D01*
X5531063Y19718922D01*
X5549547Y19731273D01*
X5561898Y19749757D01*
X5566235Y19771561D01*
X5561898Y19793362D01*
X5549547Y19811847D01*
X5531063Y19824197D01*
X5509260Y19828535D01*
X5487457Y19824197D01*
X5468973Y19811847D01*
X5456622Y19793362D01*
X5455709Y19788774D01*
X5443935Y19791116D01*
X5442518Y19798244D01*
X5430167Y19816727D01*
X5422693Y19821721D01*
Y19836996D01*
X5427627Y19840292D01*
X5439978Y19858777D01*
X5444315Y19880580D01*
X5439978Y19902383D01*
X5427627Y19920866D01*
X5409143Y19933218D01*
X5387340Y19937555D01*
D02*
G37*
G36*
X6972300Y19919576D02*
X6950497Y19915237D01*
X6932013Y19902887D01*
X6919662Y19884402D01*
X6915325Y19862601D01*
X6919662Y19840797D01*
X6932013Y19822313D01*
X6937944Y19818350D01*
Y19805650D01*
X6932013Y19801688D01*
X6919662Y19783203D01*
X6915325Y19761400D01*
X6919662Y19739597D01*
X6932013Y19721114D01*
X6938392Y19716850D01*
Y19704150D01*
X6932013Y19699887D01*
X6919662Y19681403D01*
X6915325Y19659599D01*
X6919662Y19637798D01*
X6932013Y19619313D01*
X6950497Y19606963D01*
X6972300Y19602625D01*
X6994103Y19606963D01*
X7012587Y19619313D01*
X7024938Y19637798D01*
X7029275Y19659599D01*
X7024938Y19681403D01*
X7012587Y19699887D01*
X7006208Y19704150D01*
Y19716850D01*
X7012587Y19721114D01*
X7024938Y19739597D01*
X7029275Y19761400D01*
X7024938Y19783203D01*
X7012587Y19801688D01*
X7006656Y19805650D01*
Y19818350D01*
X7012587Y19822313D01*
X7024938Y19840797D01*
X7029275Y19862601D01*
X7024938Y19884402D01*
X7012587Y19902887D01*
X6994103Y19915237D01*
X6972300Y19919576D01*
D02*
G37*
G36*
X6464300Y19655615D02*
X6442497Y19651279D01*
X6424013Y19638927D01*
X6411662Y19620444D01*
X6409759Y19610876D01*
X6394917Y19600879D01*
X6387900Y19602275D01*
X6366097Y19597939D01*
X6347613Y19585587D01*
X6335262Y19567104D01*
X6330925Y19545300D01*
X6335262Y19523497D01*
X6347613Y19505013D01*
X6366097Y19492662D01*
X6387900Y19488326D01*
X6409703Y19492662D01*
X6428187Y19505013D01*
X6440538Y19523497D01*
X6442441Y19533064D01*
X6457284Y19543060D01*
X6464300Y19541666D01*
X6486103Y19546002D01*
X6504587Y19558353D01*
X6516938Y19576837D01*
X6521275Y19598640D01*
X6516938Y19620444D01*
X6504587Y19638927D01*
X6486103Y19651279D01*
X6464300Y19655615D01*
D02*
G37*
G36*
X6842100Y19728975D02*
X6820297Y19724638D01*
X6801813Y19712286D01*
X6789462Y19693803D01*
X6785125Y19672000D01*
X6786091Y19667146D01*
X6770157Y19663979D01*
X6751673Y19651627D01*
X6739322Y19633144D01*
X6734985Y19611340D01*
X6739322Y19589537D01*
X6751673Y19571053D01*
X6770157Y19558702D01*
X6791960Y19554366D01*
X6813763Y19558702D01*
X6832247Y19571053D01*
X6844598Y19589537D01*
X6848935Y19611340D01*
X6847970Y19616193D01*
X6863903Y19619362D01*
X6882387Y19631712D01*
X6894738Y19650197D01*
X6899075Y19672000D01*
X6894738Y19693803D01*
X6882387Y19712286D01*
X6863903Y19724638D01*
X6842100Y19728975D01*
D02*
G37*
G36*
X6781800Y19389975D02*
X6759997Y19385638D01*
X6749300Y19378490D01*
X6738603Y19385638D01*
X6716800Y19389975D01*
X6694997Y19385638D01*
X6676513Y19373286D01*
X6664162Y19354803D01*
X6659825Y19333000D01*
X6664162Y19311197D01*
X6676513Y19292712D01*
X6694997Y19280362D01*
X6716800Y19276025D01*
X6738603Y19280362D01*
X6749300Y19287511D01*
X6759997Y19280362D01*
X6781800Y19276025D01*
X6803603Y19280362D01*
X6822087Y19292712D01*
X6834438Y19311197D01*
X6838775Y19333000D01*
X6834438Y19354803D01*
X6822087Y19373286D01*
X6803603Y19385638D01*
X6781800Y19389975D01*
D02*
G37*
G36*
X6350000Y19051244D02*
X6325224Y19046317D01*
X6318250Y19041656D01*
X6311276Y19046317D01*
X6286500Y19051244D01*
X6261724Y19046317D01*
X6254750Y19041656D01*
X6247776Y19046317D01*
X6223000Y19051244D01*
X6198224Y19046317D01*
X6177219Y19032281D01*
X6163184Y19011276D01*
X6158256Y18986501D01*
X6163184Y18961723D01*
X6167844Y18954750D01*
X6163184Y18947775D01*
X6158256Y18923000D01*
X6163184Y18898224D01*
X6177219Y18877219D01*
X6198224Y18863184D01*
X6223000Y18858257D01*
X6247776Y18863184D01*
X6254750Y18867844D01*
X6261724Y18863184D01*
X6286500Y18858257D01*
X6311276Y18863184D01*
X6318250Y18867844D01*
X6325224Y18863184D01*
X6350000Y18858257D01*
X6374776Y18863184D01*
X6395781Y18877219D01*
X6409816Y18898224D01*
X6414744Y18923000D01*
X6409816Y18947775D01*
X6405156Y18954750D01*
X6409816Y18961723D01*
X6414744Y18986501D01*
X6409816Y19011276D01*
X6395781Y19032281D01*
X6374776Y19046317D01*
X6350000Y19051244D01*
D02*
G37*
G36*
X6733800Y19132375D02*
X6711997Y19128038D01*
X6693513Y19115688D01*
X6681162Y19097203D01*
X6676825Y19075400D01*
X6681162Y19053596D01*
X6693513Y19035114D01*
X6711997Y19022762D01*
X6733800Y19018425D01*
X6755603Y19022762D01*
X6774087Y19035114D01*
X6786438Y19053596D01*
X6790775Y19075400D01*
X6786438Y19097203D01*
X6774087Y19115688D01*
X6755603Y19128038D01*
X6733800Y19132375D01*
D02*
G37*
G36*
X6520180Y18985056D02*
X6498377Y18980717D01*
X6479893Y18968367D01*
X6467542Y18949883D01*
X6463205Y18928081D01*
X6467542Y18906277D01*
X6479893Y18887793D01*
X6498377Y18875443D01*
X6520180Y18871104D01*
X6541983Y18875443D01*
X6560467Y18887793D01*
X6572818Y18906277D01*
X6577155Y18928081D01*
X6572818Y18949883D01*
X6560467Y18968367D01*
X6541983Y18980717D01*
X6520180Y18985056D01*
D02*
G37*
G36*
X7020560Y18878375D02*
X6998757Y18874039D01*
X6980273Y18861687D01*
X6967922Y18843204D01*
X6963585Y18821400D01*
X6967922Y18799597D01*
X6980273Y18781113D01*
X6998757Y18768762D01*
X7020560Y18764426D01*
X7042363Y18768762D01*
X7060847Y18781113D01*
X7073198Y18799597D01*
X7077535Y18821400D01*
X7073198Y18843204D01*
X7060847Y18861687D01*
X7042363Y18874039D01*
X7020560Y18878375D01*
D02*
G37*
G36*
X6309360Y18619444D02*
X6284584Y18614516D01*
X6263579Y18600481D01*
X6249544Y18579475D01*
X6244616Y18554700D01*
X6249544Y18529924D01*
X6263579Y18508919D01*
X6284584Y18494884D01*
X6309360Y18489957D01*
X6334136Y18494884D01*
X6355141Y18508919D01*
X6369176Y18529924D01*
X6374104Y18554700D01*
X6369176Y18579475D01*
X6355141Y18600481D01*
X6334136Y18614516D01*
X6309360Y18619444D01*
D02*
G37*
G36*
X6969760Y18370047D02*
X6946553Y18366992D01*
X6927119Y18358942D01*
X6969760Y18316301D01*
X7012401Y18358942D01*
X6992967Y18366992D01*
X6969760Y18370047D01*
D02*
G37*
G36*
X6891198Y18323021D02*
X6883148Y18303587D01*
X6880093Y18280380D01*
X6883148Y18257173D01*
X6891198Y18237740D01*
X6933839Y18280380D01*
X6891198Y18323021D01*
D02*
G37*
G36*
X7048322D02*
X7005681Y18280380D01*
X7048322Y18237740D01*
X7056372Y18257173D01*
X7059427Y18280380D01*
X7056372Y18303587D01*
X7048322Y18323021D01*
D02*
G37*
G36*
X6969760Y18244460D02*
X6927119Y18201817D01*
X6946553Y18193768D01*
X6969760Y18190714D01*
X6992967Y18193768D01*
X7012401Y18201817D01*
X6969760Y18244460D01*
D02*
G37*
G36*
X6255882Y18420389D02*
X6231105Y18415462D01*
X6210101Y18401427D01*
X6196066Y18380421D01*
X6191138Y18355646D01*
X6196066Y18330869D01*
X6198369Y18327422D01*
X6195493Y18323117D01*
X6190565Y18298340D01*
X6195493Y18273564D01*
X6197860Y18270023D01*
X6195302Y18266194D01*
X6190374Y18241417D01*
X6195302Y18216641D01*
X6209337Y18195636D01*
X6230341Y18181602D01*
X6255118Y18176672D01*
X6279894Y18181602D01*
X6283962Y18184320D01*
X6289174Y18180836D01*
X6313951Y18175909D01*
X6338727Y18180836D01*
X6359732Y18194872D01*
X6373766Y18215877D01*
X6378695Y18240652D01*
X6373766Y18265430D01*
X6371367Y18269020D01*
X6374148Y18273183D01*
X6379077Y18297958D01*
X6374148Y18322734D01*
X6371336Y18326944D01*
X6373575Y18330295D01*
X6378504Y18355072D01*
X6373575Y18379848D01*
X6359540Y18400853D01*
X6338536Y18414886D01*
X6313760Y18419817D01*
X6288983Y18414886D01*
X6285250Y18412393D01*
X6280658Y18415462D01*
X6255882Y18420389D01*
D02*
G37*
G36*
X6604000Y18424841D02*
X6565411Y18421042D01*
X6528304Y18409785D01*
X6494107Y18391507D01*
X6464133Y18366907D01*
X6439533Y18336932D01*
X6421254Y18302736D01*
X6409998Y18265630D01*
X6406198Y18227040D01*
X6409998Y18188451D01*
X6421254Y18151344D01*
X6439533Y18117146D01*
X6464133Y18087173D01*
X6494107Y18062573D01*
X6528304Y18044295D01*
X6565411Y18033038D01*
X6604000Y18029237D01*
X6642589Y18033038D01*
X6679696Y18044295D01*
X6713893Y18062573D01*
X6743867Y18087173D01*
X6768467Y18117146D01*
X6786746Y18151344D01*
X6798002Y18188451D01*
X6801802Y18227040D01*
X6798002Y18265630D01*
X6786746Y18302736D01*
X6768467Y18336932D01*
X6743867Y18366907D01*
X6713893Y18391507D01*
X6679696Y18409785D01*
X6642589Y18421042D01*
X6604000Y18424841D01*
D02*
G37*
G36*
X6888480Y18080457D02*
X6858604Y18077515D01*
X6829877Y18068800D01*
X6803401Y18054649D01*
X6799925Y18051796D01*
X6820834Y18030887D01*
X6784913Y17994966D01*
X6764004Y18015875D01*
X6761151Y18012399D01*
X6746999Y17985922D01*
X6738285Y17957196D01*
X6735343Y17927319D01*
X6738285Y17897444D01*
X6746999Y17868716D01*
X6761151Y17842241D01*
X6764004Y17838765D01*
X6784913Y17859674D01*
X6820834Y17823753D01*
X6799925Y17802844D01*
X6803401Y17799991D01*
X6829877Y17785838D01*
X6858604Y17777126D01*
X6888480Y17774184D01*
X6918356Y17777126D01*
X6947083Y17785838D01*
X6973559Y17799991D01*
X6977035Y17802844D01*
X6956126Y17823753D01*
X6992047Y17859674D01*
X7012956Y17838765D01*
X7015809Y17842241D01*
X7029961Y17868716D01*
X7038675Y17897444D01*
X7041617Y17927319D01*
X7038675Y17957196D01*
X7029961Y17985922D01*
X7015809Y18012399D01*
X6996765Y18035605D01*
X6977489Y18051424D01*
X6964510Y18024899D01*
X6918880Y18047227D01*
X6931718Y18073460D01*
X6918356Y18077515D01*
X6888480Y18080457D01*
D02*
G37*
G36*
X6319520Y18093219D02*
X6287155Y18090031D01*
X6256033Y18080589D01*
X6227352Y18065260D01*
X6202212Y18044627D01*
X6181580Y18019489D01*
X6166250Y17990807D01*
X6156809Y17959685D01*
X6153621Y17927319D01*
X6156809Y17894955D01*
X6166250Y17863834D01*
X6181580Y17835152D01*
X6202212Y17810011D01*
X6227352Y17789380D01*
X6256033Y17774049D01*
X6287155Y17764609D01*
X6319520Y17761421D01*
X6338710Y17763310D01*
X6343564Y17751028D01*
X6333418Y17743242D01*
X6317132Y17722018D01*
X6315003Y17716878D01*
X6301596Y17717696D01*
X6288944Y17734184D01*
X6270374Y17748434D01*
X6248747Y17757391D01*
X6225540Y17760448D01*
X6202333Y17757391D01*
X6180706Y17748434D01*
X6162136Y17734184D01*
X6147886Y17715614D01*
X6138928Y17693987D01*
X6135873Y17670779D01*
X6138928Y17647572D01*
X6147886Y17625946D01*
X6162136Y17607376D01*
X6180706Y17593126D01*
X6202333Y17584167D01*
X6225540Y17581113D01*
X6248747Y17584167D01*
X6270374Y17593126D01*
X6288944Y17607376D01*
X6301596Y17623865D01*
X6315003Y17624683D01*
X6317132Y17619542D01*
X6333418Y17598318D01*
X6354642Y17582031D01*
X6379357Y17571796D01*
X6405880Y17568303D01*
X6432403Y17571796D01*
X6457118Y17582031D01*
X6471166Y17592812D01*
X6484715Y17587199D01*
X6487235Y17568057D01*
X6497472Y17543343D01*
X6513758Y17522118D01*
X6534982Y17505832D01*
X6559697Y17495595D01*
X6586220Y17492104D01*
X6612743Y17495595D01*
X6637458Y17505832D01*
X6658682Y17522118D01*
X6674968Y17543343D01*
X6685205Y17568057D01*
X6688697Y17594580D01*
X6685205Y17621103D01*
X6674968Y17645818D01*
X6658682Y17667043D01*
X6646421Y17676451D01*
Y17692459D01*
X6656142Y17699918D01*
X6672428Y17721143D01*
X6682665Y17745857D01*
X6686157Y17772380D01*
X6682665Y17798903D01*
X6672428Y17823618D01*
X6656142Y17844843D01*
X6634918Y17861128D01*
X6610203Y17871365D01*
X6583680Y17874857D01*
X6557157Y17871365D01*
X6532442Y17861128D01*
X6511218Y17844843D01*
X6494932Y17823618D01*
X6484695Y17798903D01*
X6481203Y17772380D01*
X6483448Y17755333D01*
X6471543Y17748460D01*
X6457118Y17759528D01*
X6432403Y17769765D01*
X6407954Y17772984D01*
X6405427Y17778442D01*
X6404794Y17785695D01*
X6411688Y17789380D01*
X6436828Y17810011D01*
X6457460Y17835152D01*
X6472790Y17863834D01*
X6482231Y17894955D01*
X6485419Y17927319D01*
X6482231Y17959685D01*
X6472790Y17990807D01*
X6457460Y18019489D01*
X6436828Y18044627D01*
X6411688Y18065260D01*
X6383007Y18080589D01*
X6351885Y18090031D01*
X6319520Y18093219D01*
D02*
G37*
G36*
X6802120Y17773257D02*
X6775597Y17769765D01*
X6750882Y17759528D01*
X6729658Y17743242D01*
X6713372Y17722018D01*
X6703135Y17697302D01*
X6699643Y17670779D01*
X6703135Y17644257D01*
X6713372Y17619542D01*
X6729658Y17598318D01*
X6750882Y17582031D01*
X6775597Y17571796D01*
X6802120Y17568303D01*
X6828643Y17571796D01*
X6853358Y17582031D01*
X6874582Y17598318D01*
X6890868Y17619542D01*
X6892997Y17624683D01*
X6906404Y17623865D01*
X6919056Y17607376D01*
X6937626Y17593126D01*
X6959253Y17584167D01*
X6982460Y17581113D01*
X7005667Y17584167D01*
X7027294Y17593126D01*
X7045864Y17607376D01*
X7060114Y17625946D01*
X7069072Y17647572D01*
X7072127Y17670779D01*
X7069072Y17693987D01*
X7060114Y17715614D01*
X7045864Y17734184D01*
X7027294Y17748434D01*
X7005667Y17757391D01*
X6982460Y17760448D01*
X6959253Y17757391D01*
X6937626Y17748434D01*
X6919056Y17734184D01*
X6906404Y17717696D01*
X6892997Y17716878D01*
X6890868Y17722018D01*
X6874582Y17743242D01*
X6853358Y17759528D01*
X6828643Y17769765D01*
X6802120Y17773257D01*
D02*
G37*
G36*
X6969001Y15253035D02*
Y15217886D01*
X6970128D01*
X6970692Y15218076D01*
X6971444D01*
X6973512Y15218826D01*
X6974639Y15219389D01*
X6975767Y15219954D01*
X6976895Y15220894D01*
X6978023Y15222021D01*
X6979150Y15223338D01*
X6980090Y15225029D01*
X6980842Y15226909D01*
X6981406Y15229164D01*
X6981782Y15231796D01*
X6981970Y15234802D01*
Y15234991D01*
Y15235555D01*
Y15236494D01*
X6981782Y15237624D01*
X6981594Y15238937D01*
X6981218Y15240442D01*
X6980278Y15243825D01*
X6979714Y15245517D01*
X6978774Y15247209D01*
X6977835Y15248712D01*
X6976519Y15250027D01*
X6975015Y15251344D01*
X6973324Y15252283D01*
X6971256Y15252847D01*
X6969001Y15253035D01*
D02*
G37*
G36*
X6845135D02*
Y15216946D01*
X6848330D01*
X6849270Y15217136D01*
X6850398Y15217323D01*
X6851713Y15217511D01*
X6853217Y15217886D01*
X6854721Y15218639D01*
X6856413Y15219389D01*
X6858104Y15220329D01*
X6859608Y15221646D01*
X6861111Y15223151D01*
X6862427Y15225029D01*
X6863555Y15227284D01*
X6864495Y15229729D01*
X6865059Y15232736D01*
X6865247Y15236119D01*
Y15236307D01*
Y15236871D01*
X6865059Y15237811D01*
X6864871Y15238750D01*
X6864683Y15240067D01*
X6864119Y15241570D01*
X6863555Y15243073D01*
X6862803Y15244765D01*
X6861675Y15246269D01*
X6860360Y15247772D01*
X6858668Y15249277D01*
X6856788Y15250592D01*
X6854533Y15251532D01*
X6851713Y15252470D01*
X6848706Y15252847D01*
X6845135Y15253035D01*
D02*
G37*
G36*
X6781980D02*
Y15216946D01*
X6785176D01*
X6786115Y15217136D01*
X6787243Y15217323D01*
X6788559Y15217511D01*
X6790063Y15217886D01*
X6791566Y15218639D01*
X6793258Y15219389D01*
X6794950Y15220329D01*
X6796453Y15221646D01*
X6797957Y15223151D01*
X6799273Y15225029D01*
X6800400Y15227284D01*
X6801340Y15229729D01*
X6801904Y15232736D01*
X6802092Y15236119D01*
Y15236307D01*
Y15236871D01*
X6801904Y15237811D01*
X6801716Y15238750D01*
X6801528Y15240067D01*
X6800964Y15241570D01*
X6800400Y15243073D01*
X6799649Y15244765D01*
X6798521Y15246269D01*
X6797205Y15247772D01*
X6795513Y15249277D01*
X6793634Y15250592D01*
X6791378Y15251532D01*
X6788559Y15252470D01*
X6785552Y15252847D01*
X6781980Y15253035D01*
D02*
G37*
G36*
X6417526D02*
Y15217886D01*
X6418654D01*
X6419218Y15218076D01*
X6419969D01*
X6422037Y15218826D01*
X6423165Y15219389D01*
X6424292Y15219954D01*
X6425420Y15220894D01*
X6426548Y15222021D01*
X6427676Y15223338D01*
X6428616Y15225029D01*
X6429367Y15226909D01*
X6429931Y15229164D01*
X6430307Y15231796D01*
X6430495Y15234802D01*
Y15234991D01*
Y15235555D01*
Y15236494D01*
X6430307Y15237624D01*
X6430119Y15238937D01*
X6429743Y15240442D01*
X6428803Y15243825D01*
X6428240Y15245517D01*
X6427300Y15247209D01*
X6426360Y15248712D01*
X6425044Y15250027D01*
X6423541Y15251344D01*
X6421849Y15252283D01*
X6419781Y15252847D01*
X6417526Y15253035D01*
D02*
G37*
G36*
X6720893Y15254539D02*
X6720517D01*
X6719766Y15254350D01*
X6718450Y15253975D01*
X6716946Y15253035D01*
X6715067Y15251720D01*
X6714127Y15250780D01*
X6713375Y15249464D01*
X6712435Y15248148D01*
X6711495Y15246645D01*
X6710743Y15244765D01*
X6709992Y15242697D01*
Y15242509D01*
X6709804Y15242134D01*
X6709616Y15241382D01*
X6709428Y15240442D01*
X6709052Y15239314D01*
X6708864Y15237811D01*
X6708488Y15236119D01*
X6708112Y15234239D01*
X6707736Y15231984D01*
X6707360Y15229539D01*
X6707172Y15226909D01*
X6706796Y15223901D01*
X6706608Y15220894D01*
X6706420Y15217511D01*
X6706232Y15213940D01*
Y15210181D01*
Y15209991D01*
Y15209241D01*
Y15208113D01*
Y15206609D01*
X6706420Y15204918D01*
Y15202850D01*
X6706608Y15200594D01*
X6706796Y15197963D01*
X6707172Y15192700D01*
X6707736Y15187250D01*
X6708676Y15181985D01*
X6709428Y15179543D01*
X6709992Y15177287D01*
Y15177100D01*
X6710180Y15176724D01*
X6710368Y15176160D01*
X6710743Y15175597D01*
X6711683Y15173717D01*
X6712811Y15171649D01*
X6714503Y15169582D01*
X6716382Y15167702D01*
X6717510Y15167139D01*
X6718638Y15166574D01*
X6719954Y15166199D01*
X6721269Y15166010D01*
X6721645D01*
X6722397Y15166199D01*
X6723713Y15166574D01*
X6725216Y15167513D01*
X6726908Y15168829D01*
X6727848Y15169769D01*
X6728600Y15170897D01*
X6729539Y15172212D01*
X6730479Y15173904D01*
X6731231Y15175597D01*
X6731983Y15177663D01*
Y15177850D01*
X6732171Y15178227D01*
X6732359Y15178790D01*
X6732547Y15179732D01*
X6732923Y15181047D01*
X6733299Y15182550D01*
X6733675Y15184242D01*
X6734051Y15186122D01*
X6734426Y15188377D01*
X6734802Y15190820D01*
X6735178Y15193452D01*
X6735554Y15196271D01*
X6735742Y15199467D01*
X6735930Y15202850D01*
X6736118Y15206421D01*
Y15210181D01*
Y15210368D01*
Y15211121D01*
Y15212248D01*
Y15213753D01*
X6735930Y15215443D01*
Y15217511D01*
X6735742Y15219766D01*
X6735554Y15222211D01*
X6735178Y15227473D01*
X6734426Y15232924D01*
X6733299Y15238187D01*
X6732735Y15240630D01*
X6731983Y15242885D01*
Y15243073D01*
X6731795Y15243449D01*
X6731607Y15244012D01*
X6731231Y15244765D01*
X6730291Y15246645D01*
X6729164Y15248712D01*
X6727472Y15250780D01*
X6725592Y15252660D01*
X6724653Y15253410D01*
X6723337Y15253975D01*
X6722209Y15254350D01*
X6720893Y15254539D01*
D02*
G37*
%LPD*%
D51*
X5525300Y20616721D02*
D03*
X5626900Y20108720D02*
D03*
X5423700D02*
D03*
D52*
X6888480Y17927319D02*
D03*
X6319520D02*
D03*
D53*
X6225540Y17670779D02*
D03*
X6982460D02*
D03*
D54*
X6405880D02*
D03*
X6802120D02*
D03*
X7620000Y21719540D02*
D03*
X7366000D02*
D03*
X7112000D02*
D03*
X6858000D02*
D03*
X6604000D02*
D03*
X6350000D02*
D03*
X6096000D02*
D03*
X5842000D02*
D03*
X6969760Y18280380D02*
D03*
X6583680Y17772380D02*
D03*
X6586220Y17594580D02*
D03*
D55*
X5588000Y21719540D02*
D03*
D56*
X6604000Y18227040D02*
D03*
X7556500Y20957539D02*
D03*
X5651500D02*
D03*
D57*
X5514340Y21564600D02*
D03*
X5789460Y20543179D02*
D03*
X7792720Y19951700D02*
D03*
X6212840Y21371561D02*
D03*
X6017260Y21310600D02*
D03*
X5768340Y21371561D02*
D03*
X7668260Y19900900D02*
D03*
X7490460Y19898360D02*
D03*
X6972300Y19862601D02*
D03*
X6464300Y19598640D02*
D03*
X5741200Y19671840D02*
D03*
X6662420Y20342860D02*
D03*
X6387900Y19545300D02*
D03*
X6179820Y20157440D02*
D03*
X5834380Y20741640D02*
D03*
X5492280Y19610880D02*
D03*
X5731040Y19725180D02*
D03*
X7137400Y20355560D02*
D03*
X5555780Y19595641D02*
D03*
X6842100Y19672000D02*
D03*
X5890260Y20690840D02*
D03*
X6972300Y19761400D02*
D03*
X5614200Y19600720D02*
D03*
X5435600Y19735800D02*
D03*
X6520180Y18928081D02*
D03*
X7020560Y18821400D02*
D03*
X5497360Y20032520D02*
D03*
X6781800Y19333000D02*
D03*
X5389880Y19776440D02*
D03*
X7632700Y19695160D02*
D03*
X7528560D02*
D03*
X6451600Y21325841D02*
D03*
X6526530Y21327110D02*
D03*
X5788660Y19776440D02*
D03*
X5778500Y19895821D02*
D03*
X6791960Y19611340D02*
D03*
X5441480Y19628661D02*
D03*
X5509260Y19771561D02*
D03*
X6146800Y20751801D02*
D03*
X6197600D02*
D03*
X7010400D02*
D03*
X7061200D02*
D03*
X7010400Y20802600D02*
D03*
X6146800D02*
D03*
X6197600D02*
D03*
X7061200D02*
D03*
X5951220Y20449541D02*
D03*
X5387340Y19880580D02*
D03*
X6733800Y19075400D02*
D03*
X6835400Y20292059D02*
D03*
X5560860Y20731020D02*
D03*
X7579360Y19969479D02*
D03*
X6972300Y19659599D02*
D03*
X7137400Y20459900D02*
D03*
X6159500Y21318221D02*
D03*
X6716800Y19333000D02*
D03*
X6311900Y20075900D02*
D03*
X6390900Y19443700D02*
D03*
X7432040Y19895821D02*
D03*
X6934200Y20292200D02*
D03*
X5892800Y21005800D02*
D03*
X5788660Y20690840D02*
D03*
X7724140Y19900900D02*
D03*
X5976620Y21356320D02*
D03*
X5943600Y21005800D02*
D03*
X5892800Y20955000D02*
D03*
X6985000Y21716440D02*
D03*
X7010400Y21005800D02*
D03*
X7061200D02*
D03*
X6794500Y19433800D02*
D03*
X7010400Y20955000D02*
D03*
X5415280Y19834860D02*
D03*
X6720840Y19215100D02*
D03*
X6896100Y19431000D02*
D03*
X5943600Y20955000D02*
D03*
X7581900Y19712939D02*
D03*
X6742100Y19672000D02*
D03*
X7061200Y20955000D02*
D03*
D58*
X7366000Y21361400D02*
D03*
X5638800Y21488400D02*
D03*
X6934200Y20142200D02*
D03*
X6642100Y21361400D02*
D03*
X6794500D02*
D03*
X7670800D02*
D03*
X7594600D02*
D03*
X6718300D02*
D03*
X7442200D02*
D03*
X5638800Y21412199D02*
D03*
X7518400Y21361400D02*
D03*
X6309360Y18554700D02*
D03*
X6350000Y18923000D02*
D03*
X6273800Y19748500D02*
D03*
X6350000Y18986501D02*
D03*
X6223000D02*
D03*
X6210300Y19812000D02*
D03*
X6273800D02*
D03*
X6210300Y19875500D02*
D03*
X6286500Y18986501D02*
D03*
X6273800Y19875500D02*
D03*
X6210300Y19748500D02*
D03*
X6286500Y18923000D02*
D03*
X6223000D02*
D03*
X6350000Y21513800D02*
D03*
X7753100Y21526500D02*
D03*
X6693117Y18808655D02*
D03*
X7212580Y21526500D02*
D03*
X6314333Y18297958D02*
D03*
X6313951Y18240652D02*
D03*
X6255309Y18298340D02*
D03*
X6313760Y18355072D02*
D03*
X6255882Y18355646D02*
D03*
X6255118Y18241417D02*
D03*
%TF.MD5,d066bea6bb700264dc0cacbe6d2fe57a*%
M02*
