%TF.GenerationSoftware,Altium Limited,Altium Designer,25.2.1 (25)*%
G04 Layer_Color=8388736*
%FSLAX45Y45*%
%MOMM*%
%TF.SameCoordinates,1405630C-4DB4-4800-89E6-4DE4E69AA207*%
%TF.FilePolarity,Negative*%
%TF.FileFunction,Soldermask,Top*%
%TF.Part,Single*%
G01*
G75*
%TA.AperFunction,SMDPad,CuDef*%
%ADD24C,1.27000*%
G04:AMPARAMS|DCode=76|XSize=0.7716mm|YSize=0.4016mm|CornerRadius=0.0763mm|HoleSize=0mm|Usage=FLASHONLY|Rotation=270.000|XOffset=0mm|YOffset=0mm|HoleType=Round|Shape=RoundedRectangle|*
%AMROUNDEDRECTD76*
21,1,0.77160,0.24900,0,0,270.0*
21,1,0.61900,0.40160,0,0,270.0*
1,1,0.15260,-0.12450,-0.30950*
1,1,0.15260,-0.12450,0.30950*
1,1,0.15260,0.12450,0.30950*
1,1,0.15260,0.12450,-0.30950*
%
%ADD76ROUNDEDRECTD76*%
G04:AMPARAMS|DCode=77|XSize=0.7208mm|YSize=0.3508mm|CornerRadius=0.0509mm|HoleSize=0mm|Usage=FLASHONLY|Rotation=270.000|XOffset=0mm|YOffset=0mm|HoleType=Round|Shape=RoundedRectangle|*
%AMROUNDEDRECTD77*
21,1,0.72080,0.24900,0,0,270.0*
21,1,0.61900,0.35080,0,0,270.0*
1,1,0.10180,-0.12450,-0.30950*
1,1,0.10180,-0.12450,0.30950*
1,1,0.10180,0.12450,0.30950*
1,1,0.10180,0.12450,-0.30950*
%
%ADD77ROUNDEDRECTD77*%
%ADD78R,0.52160X0.80160*%
%ADD79R,0.20160X0.20160*%
G04:AMPARAMS|DCode=80|XSize=0.6616mm|YSize=0.7216mm|CornerRadius=0.1208mm|HoleSize=0mm|Usage=FLASHONLY|Rotation=90.000|XOffset=0mm|YOffset=0mm|HoleType=Round|Shape=RoundedRectangle|*
%AMROUNDEDRECTD80*
21,1,0.66160,0.48000,0,0,90.0*
21,1,0.42000,0.72160,0,0,90.0*
1,1,0.24160,0.24000,0.21000*
1,1,0.24160,0.24000,-0.21000*
1,1,0.24160,-0.24000,-0.21000*
1,1,0.24160,-0.24000,0.21000*
%
%ADD80ROUNDEDRECTD80*%
G04:AMPARAMS|DCode=81|XSize=0.6416mm|YSize=0.7416mm|CornerRadius=0.1183mm|HoleSize=0mm|Usage=FLASHONLY|Rotation=0.000|XOffset=0mm|YOffset=0mm|HoleType=Round|Shape=RoundedRectangle|*
%AMROUNDEDRECTD81*
21,1,0.64160,0.50500,0,0,0.0*
21,1,0.40500,0.74160,0,0,0.0*
1,1,0.23660,0.20250,-0.25250*
1,1,0.23660,-0.20250,-0.25250*
1,1,0.23660,-0.20250,0.25250*
1,1,0.23660,0.20250,0.25250*
%
%ADD81ROUNDEDRECTD81*%
%ADD82R,0.45080X0.50080*%
%ADD83R,1.77080X1.17080*%
G04:AMPARAMS|DCode=84|XSize=0.6416mm|YSize=0.7416mm|CornerRadius=0.1183mm|HoleSize=0mm|Usage=FLASHONLY|Rotation=270.000|XOffset=0mm|YOffset=0mm|HoleType=Round|Shape=RoundedRectangle|*
%AMROUNDEDRECTD84*
21,1,0.64160,0.50500,0,0,270.0*
21,1,0.40500,0.74160,0,0,270.0*
1,1,0.23660,-0.25250,-0.20250*
1,1,0.23660,-0.25250,0.20250*
1,1,0.23660,0.25250,0.20250*
1,1,0.23660,0.25250,-0.20250*
%
%ADD84ROUNDEDRECTD84*%
G04:AMPARAMS|DCode=85|XSize=0.6616mm|YSize=0.7216mm|CornerRadius=0.1208mm|HoleSize=0mm|Usage=FLASHONLY|Rotation=180.000|XOffset=0mm|YOffset=0mm|HoleType=Round|Shape=RoundedRectangle|*
%AMROUNDEDRECTD85*
21,1,0.66160,0.48000,0,0,180.0*
21,1,0.42000,0.72160,0,0,180.0*
1,1,0.24160,-0.21000,0.24000*
1,1,0.24160,0.21000,0.24000*
1,1,0.24160,0.21000,-0.24000*
1,1,0.24160,-0.21000,-0.24000*
%
%ADD85ROUNDEDRECTD85*%
%TA.AperFunction,BGAPad,CuDef*%
%ADD86C,0.88900*%
%TA.AperFunction,SMDPad,CuDef*%
%ADD87R,0.40080X0.35080*%
%ADD88R,0.75080X0.35080*%
%ADD89R,0.35080X0.40080*%
%ADD90R,0.35080X0.75080*%
%ADD91C,1.37160*%
%ADD92R,0.90080X0.35080*%
%ADD93R,0.35080X0.90080*%
%ADD94R,0.95160X0.40160*%
%ADD95R,0.65080X0.25080*%
%ADD96P,0.54363X4X180.0*%
%ADD97R,0.85080X1.12080*%
G04:AMPARAMS|DCode=98|XSize=0.5908mm|YSize=0.6908mm|CornerRadius=0.0929mm|HoleSize=0mm|Usage=FLASHONLY|Rotation=90.000|XOffset=0mm|YOffset=0mm|HoleType=Round|Shape=RoundedRectangle|*
%AMROUNDEDRECTD98*
21,1,0.59080,0.50500,0,0,90.0*
21,1,0.40500,0.69080,0,0,90.0*
1,1,0.18580,0.25250,0.20250*
1,1,0.18580,0.25250,-0.20250*
1,1,0.18580,-0.25250,-0.20250*
1,1,0.18580,-0.25250,0.20250*
%
%ADD98ROUNDEDRECTD98*%
%ADD99R,1.76160X2.48160*%
%ADD100R,0.80160X0.35160*%
%ADD101R,0.37660X0.81460*%
G04:AMPARAMS|DCode=102|XSize=2.6416mm|YSize=2.6416mm|CornerRadius=0.1778mm|HoleSize=0mm|Usage=FLASHONLY|Rotation=90.000|XOffset=0mm|YOffset=0mm|HoleType=Round|Shape=RoundedRectangle|*
%AMROUNDEDRECTD102*
21,1,2.64160,2.28600,0,0,90.0*
21,1,2.28600,2.64160,0,0,90.0*
1,1,0.35560,1.14300,1.14300*
1,1,0.35560,1.14300,-1.14300*
1,1,0.35560,-1.14300,-1.14300*
1,1,0.35560,-1.14300,1.14300*
%
%ADD102ROUNDEDRECTD102*%
%ADD103R,0.35160X1.35160*%
%ADD104R,0.95160X0.35160*%
%ADD105R,0.35160X0.90160*%
%ADD106R,0.90160X0.35160*%
G04:AMPARAMS|DCode=107|XSize=0.9516mm|YSize=0.3516mm|CornerRadius=0mm|HoleSize=0mm|Usage=FLASHONLY|Rotation=90.000|XOffset=0mm|YOffset=0mm|HoleType=Round|Shape=RoundedRectangle|*
%AMROUNDEDRECTD107*
21,1,0.95160,0.35160,0,0,90.0*
21,1,0.95160,0.35160,0,0,90.0*
1,1,0.00000,0.17580,0.47580*
1,1,0.00000,0.17580,-0.47580*
1,1,0.00000,-0.17580,-0.47580*
1,1,0.00000,-0.17580,0.47580*
%
%ADD107ROUNDEDRECTD107*%
%ADD108R,0.40160X0.40160*%
G04:AMPARAMS|DCode=109|XSize=1.7272mm|YSize=3.1496mm|CornerRadius=0.13208mm|HoleSize=0mm|Usage=FLASHONLY|Rotation=180.000|XOffset=0mm|YOffset=0mm|HoleType=Round|Shape=RoundedRectangle|*
%AMROUNDEDRECTD109*
21,1,1.72720,2.88544,0,0,180.0*
21,1,1.46304,3.14960,0,0,180.0*
1,1,0.26416,-0.73152,1.44272*
1,1,0.26416,0.73152,1.44272*
1,1,0.26416,0.73152,-1.44272*
1,1,0.26416,-0.73152,-1.44272*
%
%ADD109ROUNDEDRECTD109*%
%ADD110R,0.27580X0.61380*%
%ADD111R,0.76380X0.27580*%
G04:AMPARAMS|DCode=112|XSize=0.4016mm|YSize=0.3016mm|CornerRadius=0.0758mm|HoleSize=0mm|Usage=FLASHONLY|Rotation=0.000|XOffset=0mm|YOffset=0mm|HoleType=Round|Shape=RoundedRectangle|*
%AMROUNDEDRECTD112*
21,1,0.40160,0.15000,0,0,0.0*
21,1,0.25000,0.30160,0,0,0.0*
1,1,0.15160,0.12500,-0.07500*
1,1,0.15160,-0.12500,-0.07500*
1,1,0.15160,-0.12500,0.07500*
1,1,0.15160,0.12500,0.07500*
%
%ADD112ROUNDEDRECTD112*%
G04:AMPARAMS|DCode=113|XSize=0.4516mm|YSize=0.3016mm|CornerRadius=0.0758mm|HoleSize=0mm|Usage=FLASHONLY|Rotation=0.000|XOffset=0mm|YOffset=0mm|HoleType=Round|Shape=RoundedRectangle|*
%AMROUNDEDRECTD113*
21,1,0.45160,0.15000,0,0,0.0*
21,1,0.30000,0.30160,0,0,0.0*
1,1,0.15160,0.15000,-0.07500*
1,1,0.15160,-0.15000,-0.07500*
1,1,0.15160,-0.15000,0.07500*
1,1,0.15160,0.15000,0.07500*
%
%ADD113ROUNDEDRECTD113*%
%ADD114R,0.80160X0.50160*%
%ADD115R,0.30080X0.45080*%
%TA.AperFunction,ComponentPad*%
%ADD116C,1.09220*%
%ADD117C,2.64160*%
%ADD118C,1.11760*%
%ADD119C,1.37160*%
%ADD120R,1.37160X1.37160*%
%ADD121C,3.27660*%
G36*
X6082100Y20137000D02*
X6007100Y20187000D01*
X5932100Y20137000D01*
Y20252000D01*
X6082100D01*
Y20137000D01*
D02*
G37*
G36*
Y20107001D02*
Y20007001D01*
X5932100D01*
Y20107001D01*
X6007100Y20157001D01*
X6082100Y20107001D01*
D02*
G37*
G36*
X5587200Y19944321D02*
X5572200D01*
Y19959320D01*
X5602200D01*
X5587200Y19944321D01*
D02*
G37*
G36*
X5402200D02*
X5387200D01*
X5372200Y19959320D01*
X5402200D01*
Y19944321D01*
D02*
G37*
G36*
X5617200Y19914320D02*
X5602200D01*
Y19929320D01*
X5617200Y19944321D01*
Y19914320D01*
D02*
G37*
G36*
X5372200Y19929320D02*
Y19914320D01*
X5357200D01*
Y19944321D01*
X5372200Y19929320D01*
D02*
G37*
G36*
X6082100Y19730600D02*
X6007100Y19780600D01*
X5932100Y19730600D01*
Y19845599D01*
X6082100D01*
Y19730600D01*
D02*
G37*
G36*
X5617200Y19714320D02*
X5602200Y19729320D01*
Y19744321D01*
X5617200D01*
Y19714320D01*
D02*
G37*
G36*
X5372200Y19729320D02*
X5357200Y19714320D01*
Y19744321D01*
X5372200D01*
Y19729320D01*
D02*
G37*
G36*
X5602200Y19699319D02*
X5572200D01*
Y19714320D01*
X5587200D01*
X5602200Y19699319D01*
D02*
G37*
G36*
X5402200D02*
X5372200D01*
X5387200Y19714320D01*
X5402200D01*
Y19699319D01*
D02*
G37*
G36*
X6082100Y19700600D02*
Y19600600D01*
X5932100D01*
Y19700600D01*
X6007100Y19750600D01*
X6082100Y19700600D01*
D02*
G37*
G36*
X7136200Y19095599D02*
X7061200Y19145599D01*
X6986200Y19095599D01*
Y19210600D01*
X7136200D01*
Y19095599D01*
D02*
G37*
G36*
Y19065601D02*
Y18965601D01*
X6986200D01*
Y19065601D01*
X7061200Y19115601D01*
X7136200Y19065601D01*
D02*
G37*
G36*
X6328800Y18654401D02*
X6091800D01*
Y18869400D01*
X6133800D01*
Y18824400D01*
X6156800D01*
Y18869400D01*
X6198800D01*
Y18824400D01*
X6221800D01*
Y18869400D01*
X6263800D01*
Y18824400D01*
X6286800D01*
Y18869400D01*
X6328800D01*
Y18654401D01*
D02*
G37*
G36*
X7160260Y17416780D02*
X7096760Y17353281D01*
X6982460D01*
Y17607280D01*
X6972526Y17608063D01*
X6957241Y17612502D01*
X6943540Y17620605D01*
X6932285Y17631860D01*
X6924182Y17645561D01*
X6919742Y17660846D01*
X6918960Y17670779D01*
X6919742Y17680714D01*
X6924182Y17695999D01*
X6932285Y17709700D01*
X6943540Y17720955D01*
X6957241Y17729057D01*
X6972526Y17733498D01*
X6982460Y17734280D01*
X7160260D01*
Y17416780D01*
D02*
G37*
G36*
X6865620Y17670779D02*
Y17576801D01*
X6916420Y17519650D01*
Y17353281D01*
X6738620D01*
Y17670779D01*
X6802120Y17734280D01*
X6865620Y17670779D01*
D02*
G37*
G36*
X6469380D02*
Y17353281D01*
X6291580D01*
Y17519650D01*
X6342380Y17576801D01*
Y17670779D01*
X6405880Y17734280D01*
X6469380Y17670779D01*
D02*
G37*
G36*
X6225540Y17353281D02*
X6111240D01*
X6047740Y17416780D01*
Y17734280D01*
X6225540D01*
Y17353281D01*
D02*
G37*
G36*
X6809516Y15268166D02*
X6811020Y15267978D01*
X6812900Y15267603D01*
X6814967Y15267038D01*
X6817223Y15266286D01*
X6819666Y15265347D01*
Y15251814D01*
X6819478Y15252002D01*
X6818727Y15252377D01*
X6817599Y15252940D01*
X6816095Y15253505D01*
X6814591Y15254070D01*
X6812712Y15254633D01*
X6811020Y15255009D01*
X6809329Y15255197D01*
X6808389D01*
X6807637Y15255009D01*
X6805945Y15254633D01*
X6803878Y15253880D01*
X6801810Y15252565D01*
X6800870Y15251627D01*
X6800118Y15250687D01*
X6799367Y15249370D01*
X6798991Y15247865D01*
X6798615Y15246175D01*
X6798427Y15244295D01*
Y15244107D01*
Y15243542D01*
X6798615Y15242792D01*
Y15241664D01*
X6798803Y15240160D01*
X6799179Y15238657D01*
X6799555Y15236777D01*
X6800118Y15234709D01*
X6800306Y15234521D01*
X6800494Y15233582D01*
X6801058Y15232266D01*
X6801998Y15230199D01*
X6803314Y15227379D01*
X6804066Y15225687D01*
X6805005Y15223994D01*
X6806133Y15221928D01*
X6807261Y15219672D01*
X6808577Y15217229D01*
X6809892Y15214597D01*
X6810080Y15214409D01*
X6810268Y15214034D01*
X6810644Y15213281D01*
X6811208Y15212154D01*
X6811772Y15211026D01*
X6812524Y15209523D01*
X6814215Y15206326D01*
X6816095Y15202756D01*
X6817787Y15198997D01*
X6819290Y15195425D01*
X6820418Y15192230D01*
X6820606Y15191853D01*
X6820794Y15190913D01*
X6821170Y15189410D01*
X6821734Y15187720D01*
X6822110Y15185464D01*
X6822486Y15183208D01*
X6822674Y15180765D01*
X6822862Y15178510D01*
Y15178320D01*
Y15177945D01*
Y15177380D01*
X6822674Y15176630D01*
X6822486Y15174562D01*
X6822110Y15171931D01*
X6821170Y15168922D01*
X6820042Y15165916D01*
X6818539Y15162721D01*
X6816283Y15159901D01*
X6815907Y15159525D01*
X6815155Y15158772D01*
X6813652Y15157646D01*
X6811772Y15156329D01*
X6809329Y15155014D01*
X6806509Y15153886D01*
X6803314Y15153136D01*
X6799555Y15152759D01*
X6798239D01*
X6796735Y15152946D01*
X6795044Y15153322D01*
X6792788Y15153886D01*
X6790345Y15154639D01*
X6787901Y15155579D01*
X6785270Y15157082D01*
Y15172118D01*
X6785646Y15171931D01*
X6786397Y15171179D01*
X6787713Y15170239D01*
X6789217Y15169112D01*
X6791096Y15167795D01*
X6793352Y15166856D01*
X6795607Y15166104D01*
X6797863Y15165916D01*
X6798615D01*
X6799555Y15166104D01*
X6800494Y15166292D01*
X6801810Y15166669D01*
X6802938Y15167232D01*
X6804254Y15167982D01*
X6805569Y15168922D01*
X6805757Y15169112D01*
X6806133Y15169487D01*
X6806697Y15170239D01*
X6807261Y15171179D01*
X6807825Y15172305D01*
X6808389Y15173622D01*
X6808765Y15174937D01*
X6808953Y15176630D01*
Y15176817D01*
Y15177380D01*
Y15178133D01*
X6808765Y15179260D01*
X6808577Y15180577D01*
X6808201Y15182268D01*
X6807637Y15184148D01*
X6807073Y15186028D01*
Y15186217D01*
X6806697Y15187155D01*
X6806133Y15188660D01*
X6805193Y15190727D01*
X6803878Y15193546D01*
X6802938Y15195238D01*
X6801998Y15197118D01*
X6801058Y15199185D01*
X6799931Y15201440D01*
X6798615Y15203883D01*
X6797111Y15206516D01*
Y15206703D01*
X6796735Y15207268D01*
X6796359Y15208018D01*
X6795795Y15208958D01*
X6795232Y15210274D01*
X6794480Y15211591D01*
X6792788Y15214973D01*
X6791096Y15218546D01*
X6789405Y15222304D01*
X6787901Y15225687D01*
X6786773Y15228882D01*
Y15229259D01*
X6786397Y15230199D01*
X6786021Y15231702D01*
X6785646Y15233392D01*
X6785270Y15235649D01*
X6784894Y15237904D01*
X6784706Y15240160D01*
X6784518Y15242416D01*
Y15242603D01*
Y15242979D01*
Y15243542D01*
X6784706Y15244295D01*
X6784894Y15246362D01*
X6785270Y15248994D01*
X6786021Y15252002D01*
X6787149Y15255197D01*
X6788841Y15258205D01*
X6790908Y15261024D01*
X6791284Y15261398D01*
X6792036Y15262151D01*
X6793540Y15263280D01*
X6795419Y15264783D01*
X6797675Y15266098D01*
X6800682Y15267226D01*
X6803878Y15267978D01*
X6807449Y15268353D01*
X6808389D01*
X6809516Y15268166D01*
D02*
G37*
G36*
X6710650Y15154262D02*
X6696553D01*
X6697304Y15235649D01*
X6696928Y15235837D01*
X6682643Y15198808D01*
X6680012D01*
X6665727Y15235837D01*
X6665351Y15235649D01*
X6666291Y15154262D01*
X6652194D01*
Y15266850D01*
X6664411D01*
X6681328Y15225499D01*
X6698244Y15266850D01*
X6710650D01*
Y15154262D01*
D02*
G37*
G36*
X6523817D02*
X6512164D01*
X6486789Y15224371D01*
X6486601D01*
Y15154262D01*
X6473444D01*
Y15266850D01*
X6484910D01*
X6510284Y15196928D01*
X6510660Y15197305D01*
Y15266850D01*
X6523817D01*
Y15154262D01*
D02*
G37*
G36*
X6865153Y15213094D02*
X6887520Y15154262D01*
X6872295D01*
X6852183Y15211214D01*
X6868160Y15266850D01*
X6883197D01*
X6865153Y15213094D01*
D02*
G37*
G36*
X6851620Y15154262D02*
X6837147D01*
Y15266850D01*
X6851620D01*
Y15154262D01*
D02*
G37*
G36*
X6778691D02*
X6764594D01*
X6760459Y15179260D01*
X6739595D01*
X6735084Y15154262D01*
X6721175D01*
X6742415Y15267603D01*
X6757452D01*
X6778691Y15154262D01*
D02*
G37*
G36*
X6584528Y15253317D02*
X6567236D01*
Y15154262D01*
X6552763D01*
Y15253317D01*
X6535471D01*
Y15266850D01*
X6584528D01*
Y15253317D01*
D02*
G37*
G36*
X6354277Y15266663D02*
X6355405D01*
X6356909Y15266473D01*
X6360104Y15265723D01*
X6363675Y15264783D01*
X6367247Y15263280D01*
X6370818Y15261024D01*
X6372509Y15259708D01*
X6374013Y15258205D01*
X6374389Y15257828D01*
X6374765Y15257265D01*
X6375141Y15256700D01*
X6376457Y15254820D01*
X6377960Y15252190D01*
X6379276Y15248994D01*
X6380592Y15245047D01*
X6381344Y15240724D01*
X6381720Y15235649D01*
Y15235461D01*
Y15234897D01*
Y15234145D01*
X6381532Y15233018D01*
X6381344Y15231702D01*
X6381156Y15230199D01*
X6380216Y15226627D01*
X6378900Y15222681D01*
X6377960Y15220612D01*
X6376645Y15218546D01*
X6375329Y15216666D01*
X6373825Y15214784D01*
X6371946Y15213094D01*
X6369878Y15211401D01*
X6370066D01*
X6370254Y15211026D01*
X6370818Y15210651D01*
X6371382Y15209898D01*
X6372134Y15209148D01*
X6373073Y15208018D01*
X6374013Y15206516D01*
X6375141Y15204823D01*
X6376457Y15202756D01*
X6377584Y15200313D01*
X6378900Y15197493D01*
X6380216Y15194298D01*
X6381532Y15190727D01*
X6382847Y15186778D01*
X6384163Y15182268D01*
X6385291Y15177380D01*
X6390554Y15154262D01*
X6375329D01*
X6370818Y15173622D01*
Y15173810D01*
X6370630Y15174562D01*
X6370442Y15175502D01*
X6370066Y15176817D01*
X6369690Y15178510D01*
X6369126Y15180389D01*
X6368186Y15184525D01*
X6366871Y15188847D01*
X6365555Y15193170D01*
X6364803Y15195050D01*
X6364051Y15196741D01*
X6363487Y15198433D01*
X6362736Y15199561D01*
X6362548Y15199750D01*
X6362172Y15200500D01*
X6361420Y15201253D01*
X6360480Y15202380D01*
X6359164Y15203320D01*
X6357661Y15204073D01*
X6356157Y15204636D01*
X6354277D01*
Y15154262D01*
X6339804D01*
Y15266850D01*
X6353150D01*
X6354277Y15266663D01*
D02*
G37*
G36*
X6320069Y15253317D02*
X6299393D01*
Y15219859D01*
X6318565D01*
Y15206326D01*
X6299393D01*
Y15154262D01*
X6284920D01*
Y15266850D01*
X6320069D01*
Y15253317D01*
D02*
G37*
G36*
X6428897Y15268166D02*
X6429837D01*
X6430965Y15267790D01*
X6432281Y15267413D01*
X6433784Y15267038D01*
X6435476Y15266286D01*
X6437168Y15265535D01*
X6439047Y15264407D01*
X6440739Y15263091D01*
X6442619Y15261588D01*
X6444498Y15259708D01*
X6446190Y15257452D01*
X6447881Y15255009D01*
X6449573Y15252190D01*
X6449761Y15252002D01*
X6449949Y15251437D01*
X6450325Y15250497D01*
X6450889Y15249182D01*
X6451453Y15247678D01*
X6452205Y15245799D01*
X6452956Y15243542D01*
X6453708Y15240912D01*
X6454460Y15238092D01*
X6455212Y15234897D01*
X6455964Y15231514D01*
X6456528Y15227756D01*
X6457091Y15223808D01*
X6457467Y15219672D01*
X6457843Y15215161D01*
Y15210461D01*
Y15210086D01*
Y15209335D01*
Y15207831D01*
X6457655Y15205951D01*
Y15203696D01*
X6457467Y15201064D01*
X6457091Y15198058D01*
X6456716Y15194862D01*
X6455776Y15188095D01*
X6454272Y15181142D01*
X6452017Y15174187D01*
X6450701Y15170992D01*
X6449197Y15167982D01*
X6449009Y15167795D01*
X6448821Y15167419D01*
X6448257Y15166669D01*
X6447693Y15165540D01*
X6445814Y15163097D01*
X6443182Y15160464D01*
X6440175Y15157646D01*
X6436416Y15155202D01*
X6434348Y15154262D01*
X6432281Y15153510D01*
X6430025Y15152946D01*
X6427582Y15152759D01*
X6427018D01*
X6426266Y15152946D01*
X6425326D01*
X6424198Y15153322D01*
X6422883Y15153510D01*
X6419875Y15154639D01*
X6418184Y15155579D01*
X6416492Y15156519D01*
X6414613Y15157834D01*
X6412733Y15159337D01*
X6410853Y15161029D01*
X6409162Y15163097D01*
X6407470Y15165540D01*
X6405778Y15168172D01*
Y15168359D01*
X6405402Y15168922D01*
X6405027Y15169862D01*
X6404463Y15170992D01*
X6403899Y15172495D01*
X6403147Y15174562D01*
X6402395Y15176630D01*
X6401643Y15179260D01*
X6400891Y15182080D01*
X6400140Y15185275D01*
X6399388Y15188660D01*
X6398824Y15192606D01*
X6398260Y15196553D01*
X6397884Y15200876D01*
X6397696Y15205576D01*
X6397508Y15210461D01*
Y15210838D01*
Y15211591D01*
Y15212906D01*
X6397696Y15214597D01*
Y15216853D01*
X6397884Y15219296D01*
X6398260Y15222116D01*
X6398448Y15225124D01*
X6399012Y15228319D01*
X6399388Y15231702D01*
X6400891Y15238657D01*
X6402771Y15245612D01*
X6404087Y15248807D01*
X6405402Y15252002D01*
X6405590Y15252190D01*
X6405778Y15252753D01*
X6406154Y15253505D01*
X6406906Y15254633D01*
X6407658Y15255762D01*
X6408598Y15257265D01*
X6411229Y15260272D01*
X6414237Y15263280D01*
X6416116Y15264595D01*
X6418184Y15265723D01*
X6420251Y15266850D01*
X6422507Y15267603D01*
X6424950Y15268166D01*
X6427582Y15268353D01*
X6428146D01*
X6428897Y15268166D01*
D02*
G37*
%LPC*%
G36*
X6749933Y15239784D02*
X6749557D01*
X6741663Y15192793D01*
X6757827D01*
X6749933Y15239784D01*
D02*
G37*
G36*
X6354277Y15253317D02*
Y15218169D01*
X6355405D01*
X6355969Y15218356D01*
X6356721D01*
X6358788Y15219109D01*
X6359916Y15219672D01*
X6361044Y15220236D01*
X6362172Y15221176D01*
X6363299Y15222304D01*
X6364427Y15223621D01*
X6365367Y15225311D01*
X6366119Y15227191D01*
X6366683Y15229446D01*
X6367059Y15232079D01*
X6367247Y15235085D01*
Y15235274D01*
Y15235837D01*
Y15236777D01*
X6367059Y15237904D01*
X6366871Y15239220D01*
X6366495Y15240724D01*
X6365555Y15244107D01*
X6364991Y15245799D01*
X6364051Y15247490D01*
X6363111Y15248994D01*
X6361796Y15250310D01*
X6360292Y15251627D01*
X6358600Y15252565D01*
X6356533Y15253130D01*
X6354277Y15253317D01*
D02*
G37*
G36*
X6427394Y15254820D02*
X6427018D01*
X6426266Y15254633D01*
X6424950Y15254257D01*
X6423447Y15253317D01*
X6421567Y15252002D01*
X6420627Y15251062D01*
X6419875Y15249747D01*
X6418936Y15248430D01*
X6417996Y15246927D01*
X6417244Y15245047D01*
X6416492Y15242979D01*
Y15242792D01*
X6416304Y15242416D01*
X6416116Y15241664D01*
X6415928Y15240724D01*
X6415552Y15239597D01*
X6415364Y15238092D01*
X6414988Y15236401D01*
X6414613Y15234521D01*
X6414237Y15232266D01*
X6413861Y15229822D01*
X6413673Y15227191D01*
X6413297Y15224184D01*
X6413109Y15221176D01*
X6412921Y15217793D01*
X6412733Y15214223D01*
Y15210461D01*
Y15210274D01*
Y15209523D01*
Y15208395D01*
Y15206891D01*
X6412921Y15205199D01*
Y15203133D01*
X6413109Y15200876D01*
X6413297Y15198245D01*
X6413673Y15192982D01*
X6414237Y15187531D01*
X6415176Y15182268D01*
X6415928Y15179825D01*
X6416492Y15177570D01*
Y15177380D01*
X6416680Y15177005D01*
X6416868Y15176442D01*
X6417244Y15175877D01*
X6418184Y15173997D01*
X6419312Y15171931D01*
X6421003Y15169862D01*
X6422883Y15167982D01*
X6424011Y15167419D01*
X6425138Y15166856D01*
X6426454Y15166479D01*
X6427770Y15166292D01*
X6428146D01*
X6428897Y15166479D01*
X6430213Y15166856D01*
X6431717Y15167795D01*
X6433409Y15169112D01*
X6434348Y15170052D01*
X6435100Y15171179D01*
X6436040Y15172495D01*
X6436980Y15174187D01*
X6437732Y15175877D01*
X6438483Y15177945D01*
Y15178133D01*
X6438671Y15178510D01*
X6438859Y15179073D01*
X6439047Y15180013D01*
X6439423Y15181329D01*
X6439799Y15182832D01*
X6440175Y15184525D01*
X6440551Y15186403D01*
X6440927Y15188660D01*
X6441303Y15191103D01*
X6441679Y15193735D01*
X6442055Y15196553D01*
X6442243Y15199750D01*
X6442431Y15203133D01*
X6442619Y15206703D01*
Y15210461D01*
Y15210651D01*
Y15211401D01*
Y15212531D01*
Y15214034D01*
X6442431Y15215726D01*
Y15217793D01*
X6442243Y15220049D01*
X6442055Y15222491D01*
X6441679Y15227756D01*
X6440927Y15233205D01*
X6439799Y15238467D01*
X6439235Y15240912D01*
X6438483Y15243167D01*
Y15243355D01*
X6438295Y15243732D01*
X6438108Y15244295D01*
X6437732Y15245047D01*
X6436792Y15246927D01*
X6435664Y15248994D01*
X6433972Y15251062D01*
X6432093Y15252940D01*
X6431153Y15253693D01*
X6429837Y15254257D01*
X6428710Y15254633D01*
X6427394Y15254820D01*
D02*
G37*
%LPD*%
D24*
X7109460Y17993359D02*
D03*
X5631180Y22064980D02*
D03*
X7614920Y22072600D02*
D03*
D76*
X5889460Y20543179D02*
D03*
X5789460D02*
D03*
D77*
Y20691180D02*
D03*
X5839460D02*
D03*
X5889460D02*
D03*
D78*
X6112800Y18554401D02*
D03*
X6177800D02*
D03*
X6242800D02*
D03*
X6307800D02*
D03*
D79*
X6210300Y18694400D02*
D03*
D80*
X6527800Y19167101D02*
D03*
Y19263100D02*
D03*
X6629400Y19167101D02*
D03*
Y19263100D02*
D03*
X6794500Y19433800D02*
D03*
Y19529800D02*
D03*
X6489700D02*
D03*
Y19433800D02*
D03*
X6692900Y19529800D02*
D03*
Y19433800D02*
D03*
X6007100Y20546320D02*
D03*
Y20642320D02*
D03*
X5276380Y20271539D02*
D03*
Y20367540D02*
D03*
X5258600Y19778780D02*
D03*
Y19874780D02*
D03*
X6289040Y21455119D02*
D03*
Y21359120D02*
D03*
X6311900Y20075900D02*
D03*
Y19979900D02*
D03*
D81*
X6489500Y19075400D02*
D03*
X6591500D02*
D03*
X6540700Y18580099D02*
D03*
X6438700D02*
D03*
X5449300Y19549921D02*
D03*
X5347300D02*
D03*
X5715600Y19829320D02*
D03*
X5817600D02*
D03*
X5715600Y19930920D02*
D03*
X5817600D02*
D03*
D82*
X6716800Y19148000D02*
D03*
X6781800D02*
D03*
X6846800D02*
D03*
Y19333000D02*
D03*
X6781800D02*
D03*
X6716800D02*
D03*
D83*
X6781800Y19240500D02*
D03*
D84*
X6896100Y19532800D02*
D03*
Y19430800D02*
D03*
X6591300Y19532800D02*
D03*
Y19430800D02*
D03*
X5902960Y21458121D02*
D03*
Y21356120D02*
D03*
X5814860Y20144080D02*
D03*
Y20246080D02*
D03*
X6438900Y18872000D02*
D03*
Y18974001D02*
D03*
X7137400Y20357899D02*
D03*
Y20459900D02*
D03*
X6438900Y18681500D02*
D03*
Y18783501D02*
D03*
D85*
X6540240Y20116800D02*
D03*
X6444240D02*
D03*
X5692400Y21844000D02*
D03*
X5788400D02*
D03*
X7450080Y21877020D02*
D03*
X7546080D02*
D03*
X5923540Y21602699D02*
D03*
X6019540D02*
D03*
X6829800Y19075400D02*
D03*
X6733800D02*
D03*
D86*
X5461800Y20489720D02*
D03*
X5588800D02*
D03*
X5461800Y20362720D02*
D03*
X5588800D02*
D03*
X5461800Y20235719D02*
D03*
X5588800D02*
D03*
D87*
X5339700Y19929320D02*
D03*
Y19729320D02*
D03*
X5634700D02*
D03*
Y19929320D02*
D03*
D88*
X5357200Y19879320D02*
D03*
Y19829320D02*
D03*
Y19779320D02*
D03*
X5617200D02*
D03*
Y19829320D02*
D03*
Y19879320D02*
D03*
D89*
X5387200Y19681821D02*
D03*
X5587200D02*
D03*
Y19976820D02*
D03*
X5387200D02*
D03*
D90*
X5437200Y19699319D02*
D03*
X5487200D02*
D03*
X5537200D02*
D03*
Y19959320D02*
D03*
X5487200D02*
D03*
X5437200D02*
D03*
D91*
X6225540Y17670779D02*
D03*
X6405880D02*
D03*
X6802120D02*
D03*
X7039610D02*
D03*
D92*
X6725700Y20292200D02*
D03*
Y20342200D02*
D03*
X7015700D02*
D03*
D93*
X6795700Y20412199D02*
D03*
X6845700D02*
D03*
X6895700D02*
D03*
X6945700D02*
D03*
D94*
X7015700Y20292200D02*
D03*
D95*
X6910700Y20200700D02*
D03*
X6830700D02*
D03*
D96*
X6940700Y20190700D02*
D03*
X6800700D02*
D03*
D97*
X6920700Y20137199D02*
D03*
X6820700D02*
D03*
D98*
X6972300Y19761400D02*
D03*
Y19659399D02*
D03*
Y19862601D02*
D03*
Y19964600D02*
D03*
D99*
X6731000Y18846800D02*
D03*
D100*
X6871000Y18921800D02*
D03*
Y18871800D02*
D03*
Y18821800D02*
D03*
Y18771800D02*
D03*
X6591000D02*
D03*
Y18821800D02*
D03*
Y18871800D02*
D03*
Y18921800D02*
D03*
D101*
X6501600Y21406100D02*
D03*
X6451600D02*
D03*
X6401600D02*
D03*
Y21519901D02*
D03*
X6451600D02*
D03*
X6501600D02*
D03*
D102*
X7033260Y18280380D02*
D03*
D103*
X6802100Y19812000D02*
D03*
X6712100D02*
D03*
X6622100D02*
D03*
X6532100D02*
D03*
X6442100D02*
D03*
D104*
X6404600Y19762000D02*
D03*
Y19862000D02*
D03*
D105*
X6442100Y19952000D02*
D03*
X6492100D02*
D03*
X6542100D02*
D03*
X6592100D02*
D03*
X6642100D02*
D03*
X6692100D02*
D03*
X6742100D02*
D03*
X6792100D02*
D03*
X6842100D02*
D03*
Y19672000D02*
D03*
X6792100D02*
D03*
X6742100D02*
D03*
X6692100D02*
D03*
X6642100D02*
D03*
X6592100D02*
D03*
X6542100D02*
D03*
X6492100D02*
D03*
D106*
X6882100Y19862000D02*
D03*
Y19762000D02*
D03*
D107*
X6442100Y19672000D02*
D03*
D108*
X7061200Y19160600D02*
D03*
Y19015601D02*
D03*
X6007100Y20202000D02*
D03*
Y20057001D02*
D03*
Y19795599D02*
D03*
Y19650600D02*
D03*
D109*
X6601460Y17861279D02*
D03*
X6604000Y17505679D02*
D03*
D110*
X7539360Y19919330D02*
D03*
X7579360D02*
D03*
X7619360D02*
D03*
Y19765630D02*
D03*
X7579360D02*
D03*
X7539360D02*
D03*
D111*
X7628710Y19862480D02*
D03*
Y19822479D02*
D03*
X7530010D02*
D03*
Y19862480D02*
D03*
D112*
X6107980Y21401241D02*
D03*
Y21351241D02*
D03*
Y21301241D02*
D03*
X6047980D02*
D03*
Y21351241D02*
D03*
D113*
X6050480Y21401241D02*
D03*
D114*
X6985000Y21716440D02*
D03*
D115*
X7007500Y21646440D02*
D03*
X6962500D02*
D03*
D116*
X5525300Y20616721D02*
D03*
X5626900Y20108720D02*
D03*
X5423700D02*
D03*
D117*
X6888480Y17927319D02*
D03*
X6319520D02*
D03*
D118*
X6225540Y17670779D02*
D03*
X6982460D02*
D03*
D119*
X6405880D02*
D03*
X6802120D02*
D03*
X7620000Y21719540D02*
D03*
X7366000D02*
D03*
X7112000D02*
D03*
X6858000D02*
D03*
X6604000D02*
D03*
X6350000D02*
D03*
X6096000D02*
D03*
X5842000D02*
D03*
X6969760Y18280380D02*
D03*
X6583680Y17772380D02*
D03*
X6586220Y17594580D02*
D03*
D120*
X5588000Y21719540D02*
D03*
D121*
X6604000Y18227040D02*
D03*
X7556500Y20957539D02*
D03*
X5651500D02*
D03*
%TF.MD5,0e3ad7e35339e0a53544f7cf8e395d0d*%
M02*
